<svg id="09f4ae43-88e1-46b4-83e3-f34c3b633394" data-name="Layer 3" xmlns="http://www.w3.org/2000/svg" xmlns:xlink="http://www.w3.org/1999/xlink" viewBox="0 0 256 256"><defs><style>.\32 cd96ac9-a829-4597-ae41-4145575ebbcd{fill:none;}.\38 bc5a689-7fbf-41ce-96c7-ec86a513fba3{fill:#f2e474;}.\38 48717db-f32b-43b2-8da7-9b4ed0d8683b{fill:#be5d32;}.ed31723d-5337-454d-b7b0-4a8c68de578a{fill:#5d5d61;}.c133d871-a71b-4d3b-ac79-2bb775ac733a{clip-path:url(#991e9fd6-414c-4204-9328-c52aa1f14b00);}.d1094493-bace-47cf-8949-334be63c391c{fill:#ec6c3d;}.b7bc50a1-c20d-45f4-8bd9-d6bea195ddb4{fill:#fff;}</style><clipPath id="991e9fd6-414c-4204-9328-c52aa1f14b00"><path class="2cd96ac9-a829-4597-ae41-4145575ebbcd" d="M73,142H183s-4.33,49.67-53,49.67S73,142,73,142Z"/></clipPath></defs><title>Happy_Color</title><circle class="8bc5a689-7fbf-41ce-96c7-ec86a513fba3" cx="127.5" cy="128.67" r="120.67"/><rect class="848717db-f32b-43b2-8da7-9b4ed0d8683b" x="69.15" y="75.31" width="24.15" height="39.24" rx="12.07" ry="12.07"/><rect class="848717db-f32b-43b2-8da7-9b4ed0d8683b" x="159.87" y="75.31" width="24.15" height="39.24" rx="12.07" ry="12.07"/><path class="ed31723d-5337-454d-b7b0-4a8c68de578a" d="M73,142H183s-4.33,49.67-53,49.67S73,142,73,142Z"/><g class="c133d871-a71b-4d3b-ac79-2bb775ac733a"><circle class="d1094493-bace-47cf-8949-334be63c391c" cx="133" cy="202" r="38.33"/></g><path class="b7bc50a1-c20d-45f4-8bd9-d6bea195ddb4" d="M226.77,9.9l4.5,8.22a2.39,2.39,0,0,0,1,1l8.22,4.5a2.39,2.39,0,0,1,0,4.2l-8.22,4.5a2.39,2.39,0,0,0-1,1l-4.5,8.22a2.39,2.39,0,0,1-4.2,0l-4.5-8.22a2.39,2.39,0,0,0-1-1l-8.22-4.5a2.39,2.39,0,0,1,0-4.2l8.22-4.5a2.39,2.39,0,0,0,1-1l4.5-8.22A2.39,2.39,0,0,1,226.77,9.9Z"/></svg>