<svg id="930ad90a-9bd9-4d36-bd83-439a50ad5962" data-name="Layer 3" xmlns="http://www.w3.org/2000/svg" xmlns:xlink="http://www.w3.org/1999/xlink" viewBox="0 0 256 256"><defs><style>.\37 e012e6b-1e1b-4832-9de8-dd63a5eced31{fill:none;}.bdfe7d57-a9ed-44f3-bd61-a0f4c519c2fd{fill:#96979a;}.\37 2bc2faf-a50e-46ca-8f44-903fe5dbc2c5{fill:#5d5d61;}.a2c66100-5220-4014-baac-caa2fe8d5279{clip-path:url(#d7c1622c-2931-4ff0-bc0f-77714353a612);}.\33 188af69-a113-45a9-bbc8-02e52407399c{fill:gray;}.\34 cfba302-e811-4fd6-ad29-99693f6ae04e{fill:#e6edfd;}</style><clipPath id="d7c1622c-2931-4ff0-bc0f-77714353a612"><path class="7e012e6b-1e1b-4832-9de8-dd63a5eced31" d="M73,142H183s-4.33,49.67-53,49.67S73,142,73,142Z"/></clipPath></defs><title>Happy_Gray</title><circle class="bdfe7d57-a9ed-44f3-bd61-a0f4c519c2fd" cx="127.5" cy="128.67" r="120.67"/><rect class="72bc2faf-a50e-46ca-8f44-903fe5dbc2c5" x="69.15" y="75.31" width="24.15" height="39.24" rx="12.07" ry="12.07"/><rect class="72bc2faf-a50e-46ca-8f44-903fe5dbc2c5" x="159.87" y="75.31" width="24.15" height="39.24" rx="12.07" ry="12.07"/><path class="72bc2faf-a50e-46ca-8f44-903fe5dbc2c5" d="M73,142H183s-4.33,49.67-53,49.67S73,142,73,142Z"/><g class="a2c66100-5220-4014-baac-caa2fe8d5279"><circle class="3188af69-a113-45a9-bbc8-02e52407399c" cx="133" cy="202" r="38.33"/></g><path class="4cfba302-e811-4fd6-ad29-99693f6ae04e" d="M226.77,9.9l4.5,8.22a2.39,2.39,0,0,0,1,1l8.22,4.5a2.39,2.39,0,0,1,0,4.2l-8.22,4.5a2.39,2.39,0,0,0-1,1l-4.5,8.22a2.39,2.39,0,0,1-4.2,0l-4.5-8.22a2.39,2.39,0,0,0-1-1l-8.22-4.5a2.39,2.39,0,0,1,0-4.2l8.22-4.5a2.39,2.39,0,0,0,1-1l4.5-8.22A2.39,2.39,0,0,1,226.77,9.9Z"/></svg>