<svg id="0d3e6cbf-5399-482a-aab6-7d2ca4a6d414" data-name="Layer 3" xmlns="http://www.w3.org/2000/svg" xmlns:xlink="http://www.w3.org/1999/xlink" viewBox="0 0 256 256"><defs><style>.\37 3c61e74-7574-4b15-b9e5-bdc16cd76043{fill:none;}.\37 a914ebf-081f-43bf-b6b0-db51eb9d22a4{fill:#f2e474;}.b494ae86-ba72-4670-b272-1d8fa963da3e{fill:#be5d32;}.\37 367a0f0-c65b-4c0c-90e6-d212afdfb496{fill:#48494d;}.cf484574-3a5f-403a-a724-16143e7d4f93{clip-path:url(#19a230e3-3f29-4f41-a8cb-4620ca1d47a9);}.e50694a3-17f6-46bf-bac2-70fecc323346{fill:#a4644f;}.\35 a65db24-f10a-41c2-b1bd-e25c28ee7502{fill:#29abe2;}</style><clipPath id="19a230e3-3f29-4f41-a8cb-4620ca1d47a9"><path class="73c61e74-7574-4b15-b9e5-bdc16cd76043" d="M101.74,198.63s29.35-10.53,55.55,0c0,0-6.94-26-29.12-25.31S101.74,198.63,101.74,198.63Z"/></clipPath></defs><title>Sad_Color</title><circle class="7a914ebf-081f-43bf-b6b0-db51eb9d22a4" cx="127.5" cy="128.67" r="120.67"/><rect class="b494ae86-ba72-4670-b272-1d8fa963da3e" x="58.8" y="138.22" width="47.79" height="11.95" rx="1.67" ry="1.67"/><rect class="b494ae86-ba72-4670-b272-1d8fa963da3e" x="150.8" y="138.22" width="47.79" height="11.95" rx="1.67" ry="1.67"/><path class="7367a0f0-c65b-4c0c-90e6-d212afdfb496" d="M101.74,198.63s29.35-10.53,55.55,0c0,0-6.94-26-29.12-25.31S101.74,198.63,101.74,198.63Z"/><g class="cf484574-3a5f-403a-a724-16143e7d4f93"><circle class="e50694a3-17f6-46bf-bac2-70fecc323346" cx="128.75" cy="208.25" r="22.25"/></g><path class="5a65db24-f10a-41c2-b1bd-e25c28ee7502" d="M55.82,54.15s-13.44,23.3-11.65,34.5,13.89,13.89,13.89,13.89,14.78-2.24,13-21.06C71,81.48,67.47,70.72,55.82,54.15Z"/></svg>