<svg xmlns="http://www.w3.org/2000/svg" width="27.631" height="31.081" viewBox="0 0 27.631 31.081">
  <g id="Grupo_1699" data-name="Grupo 1699" transform="translate(-3.998 -3)">
    <g id="Grupo_1698" data-name="Grupo 1698" transform="translate(3.998 3)">
      <path id="Trazado_4127" data-name="Trazado 4127" d="M14.039,8.57a2.469,2.469,0,1,0,2.469,2.469A2.469,2.469,0,0,0,14.039,8.57Z" transform="translate(1.504 1.048)" fill="#ff9498"/>
      <path id="Trazado_4128" data-name="Trazado 4128" d="M19.542,3A12.055,12.055,0,0,0,7.489,14.465l-3.315,4.42a.863.863,0,0,0,.691,1.381h2.59v5.18A3.464,3.464,0,0,0,10.908,28.9h1.727v5.18H24.722V26a12.082,12.082,0,0,0-5.18-23Zm5.18,12.087c0,.224-.017.449-.035.673l1.433,1.14a.324.324,0,0,1,.086.432l-1.381,2.4a.347.347,0,0,1-.414.155L22.7,19.2a5.189,5.189,0,0,1-1.157.673l-.276,1.83a.338.338,0,0,1-.345.294H18.16a.351.351,0,0,1-.345-.294l-.259-1.83a4.939,4.939,0,0,1-1.174-.673l-1.709.691a.362.362,0,0,1-.432-.155l-1.381-2.4a.327.327,0,0,1,.086-.432l1.45-1.14c-.017-.224-.035-.449-.035-.673a4.235,4.235,0,0,1,.069-.673l-1.468-1.14a.342.342,0,0,1-.086-.449l1.381-2.383a.34.34,0,0,1,.414-.155l1.727.691a5.482,5.482,0,0,1,1.157-.673l.259-1.83a.351.351,0,0,1,.345-.294h2.763a.351.351,0,0,1,.345.294l.259,1.83a5.189,5.189,0,0,1,1.157.673l1.727-.691a.333.333,0,0,1,.414.155l1.381,2.383a.346.346,0,0,1-.086.449l-1.468,1.14A2.782,2.782,0,0,1,24.722,15.087Z" transform="translate(-3.998 -3)" fill="#ff9498"/>
    </g>
  </g>
</svg>
