<svg xmlns="http://www.w3.org/2000/svg" width="37.052" height="27" viewBox="0 0 37.052 27">
  <g id="Grupo_1696" data-name="Grupo 1696" transform="translate(-2.394 -5)">
    <g id="Grupo_1695" data-name="Grupo 1695" transform="translate(2.394 5)">
      <path id="Trazado_4126" data-name="Trazado 4126" d="M39.4,26.388l-2.1-14.773A7.707,7.707,0,0,0,29.656,5H12.184a7.707,7.707,0,0,0-7.637,6.615l-2.1,14.773A4.909,4.909,0,0,0,7.3,32h0a4.889,4.889,0,0,0,3.471-1.446l4.359-4.339H26.706l4.339,4.339A4.922,4.922,0,0,0,34.516,32h0A4.912,4.912,0,0,0,39.4,26.388Zm-20.4-9.816H15.134v3.857H13.206V16.571H9.349V14.643h3.857V10.786h1.929v3.857h3.857Zm7.714-1.929a1.929,1.929,0,1,1,1.929-1.929A1.934,1.934,0,0,1,26.706,14.643Zm3.857,5.786A1.929,1.929,0,1,1,32.491,18.5,1.934,1.934,0,0,1,30.563,20.428Z" transform="translate(-2.394 -5)" fill="#87d0c7"/>
    </g>
  </g>
</svg>
