<?xml version="1.0" encoding="UTF-8" standalone="no"?>
<svg
   xmlns:dc="http://purl.org/dc/elements/1.1/"
   xmlns:cc="http://creativecommons.org/ns#"
   xmlns:rdf="http://www.w3.org/1999/02/22-rdf-syntax-ns#"
   xmlns:svg="http://www.w3.org/2000/svg"
   xmlns="http://www.w3.org/2000/svg"
   xmlns:sodipodi="http://sodipodi.sourceforge.net/DTD/sodipodi-0.dtd"
   xmlns:inkscape="http://www.inkscape.org/namespaces/inkscape"
   width="44"
   height="22"
   viewBox="0 0 44 22"
   version="1.1"
   id="svg4"
   sodipodi:docname="team.svg"
   inkscape:version="0.92.4 (5da689c313, 2019-01-14)">
  <metadata
     id="metadata10">
    <rdf:RDF>
      <cc:Work
         rdf:about="">
        <dc:format>image/svg+xml</dc:format>
        <dc:type
           rdf:resource="http://purl.org/dc/dcmitype/StillImage" />
      </cc:Work>
    </rdf:RDF>
  </metadata>
  <defs
     id="defs8" />
  <sodipodi:namedview
     pagecolor="#ffffff"
     bordercolor="#666666"
     borderopacity="1"
     objecttolerance="10"
     gridtolerance="10"
     guidetolerance="10"
     inkscape:pageopacity="0"
     inkscape:pageshadow="2"
     inkscape:window-width="1360"
     inkscape:window-height="705"
     id="namedview6"
     showgrid="false"
     inkscape:zoom="7.9318182"
     inkscape:cx="6.3037249"
     inkscape:cy="11"
     inkscape:window-x="1912"
     inkscape:window-y="-8"
     inkscape:window-maximized="1"
     inkscape:current-layer="svg4" />
  <g
     id="g819">
    <g
       transform="translate(0,-6)"
       data-name="Grupo 1700"
       id="Grupo_1700">
      <path
         style="fill:#3474b5"
         inkscape:connector-curvature="0"
         d="m 22,18.375 a 19.453,19.453 0 0 1 7.773,1.65 A 5.471,5.471 0 0 1 33,25.03 V 28 H 11 v -2.952 a 5.433,5.433 0 0 1 3.227,-5 A 19.141,19.141 0 0 1 22,18.375 Z M 7.333,18.833 A 3.667,3.667 0 1 0 3.666,15.166 3.677,3.677 0 0 0 7.333,18.833 Z M 9.4,20.85 A 12.8,12.8 0 0 0 7.328,20.667 12.743,12.743 0 0 0 2.228,21.73 3.687,3.687 0 0 0 0,25.122 V 28 H 8.25 V 25.048 A 8.248,8.248 0 0 1 9.4,20.85 Z M 36.662,18.833 A 3.667,3.667 0 1 0 33,15.167 3.677,3.677 0 0 0 36.667,18.833 Z M 44,25.122 a 3.687,3.687 0 0 0 -2.237,-3.392 12.463,12.463 0 0 0 -7.168,-0.88 8.248,8.248 0 0 1 1.155,4.2 V 28 H 44 Z M 22,6 A 5.5,5.5 0 1 1 16.5,11.5 5.493,5.493 0 0 1 22,6 Z"
         data-name="Trazado 4133"
         id="Trazado_4133" />
    </g>
  </g>
</svg>
