<?xml version="1.0" encoding="UTF-8" standalone="no"?>
<svg
   xmlns:dc="http://purl.org/dc/elements/1.1/"
   xmlns:cc="http://creativecommons.org/ns#"
   xmlns:rdf="http://www.w3.org/1999/02/22-rdf-syntax-ns#"
   xmlns:svg="http://www.w3.org/2000/svg"
   xmlns="http://www.w3.org/2000/svg"
   xmlns:sodipodi="http://sodipodi.sourceforge.net/DTD/sodipodi-0.dtd"
   xmlns:inkscape="http://www.inkscape.org/namespaces/inkscape"
   width="291"
   height="346"
   viewBox="0 0 291 346"
   version="1.1"
   id="svg28"
   sodipodi:docname="circles.svg"
   inkscape:version="0.92.4 (5da689c313, 2019-01-14)">
  <metadata
     id="metadata34">
    <rdf:RDF>
      <cc:Work
         rdf:about="">
        <dc:format>image/svg+xml</dc:format>
        <dc:type
           rdf:resource="http://purl.org/dc/dcmitype/StillImage" />
      </cc:Work>
    </rdf:RDF>
  </metadata>
  <defs
     id="defs32" />
  <sodipodi:namedview
     pagecolor="#ffffff"
     bordercolor="#666666"
     borderopacity="1"
     objecttolerance="10"
     gridtolerance="10"
     guidetolerance="10"
     inkscape:pageopacity="0"
     inkscape:pageshadow="2"
     inkscape:window-width="1360"
     inkscape:window-height="705"
     id="namedview30"
     showgrid="false"
     inkscape:zoom="0.96460809"
     inkscape:cx="55.868478"
     inkscape:cy="186.35184"
     inkscape:window-x="1912"
     inkscape:window-y="-8"
     inkscape:window-maximized="1"
     inkscape:current-layer="svg28" />
  <path
     transform="translate(0 58)"
     style="opacity:0.78600003;fill:#fdb092"
     d="M 140,70 A 70,70 0 0 1 70,140 70,70 0 0 1 0,70 70,70 0 0 1 70,0 70,70 0 0 1 140,70 Z"
     id="Elipse_1045" />
  <path
     transform="translate(112)"
     style="opacity:0.78600003;fill:#ff777c"
     d="M 179,89.5 A 89.5,89.5 0 0 1 89.5,179 89.5,89.5 0 0 1 0,89.5 89.5,89.5 0 0 1 89.5,0 89.5,89.5 0 0 1 179,89.5 Z"
     id="Elipse_1047" />
  <path
     transform="translate(70 128)"
     style="opacity:0.78600003;fill:#66c3b8"
     d="M 219,109 A 109.5,109 0 0 1 109.5,218 109.5,109 0 0 1 0,109 109.5,109 0 0 1 109.5,0 109.5,109 0 0 1 219,109 Z"
     id="Elipse_1046" />
  <g
     id="Grupo_1687"
     data-name="Grupo 1687"
     transform="translate(19337,-10954)">
    <g
       aria-label="536"
       transform="translate(-19194,11192)"
       style="font-size:31px;font-family:SegoeUI, 'Segoe UI';fill:#ffffff"
       id="_536_">
      <path
         d="m 14.66748,-6.6298828 q 0,1.5893555 -0.544921,2.8759765 -0.544922,1.2866211 -1.559082,2.209961 -0.999024,0.92333983 -2.421875,1.42285155 -1.422852,0.49951172 -3.1635747,0.49951172 -3.0273437,0 -4.4956054,-0.90820313 V -3.1635742 q 2.2099609,1.4228515 4.5258789,1.4228515 1.180664,0 2.1191406,-0.3481445 0.9536136,-0.3481445 1.6196286,-0.96875 0.666016,-0.6206055 1.01416,-1.4985351 0.363282,-0.8779297 0.363282,-1.9223633 0,-2.1191407 -1.422852,-3.3149414 -1.4228514,-1.210938 -4.1323241,-1.210938 -0.4389648,0 -0.9233398,0.01514 -0.484375,0.01514 -0.96875,0.04541 -0.484375,0.01514 -0.9536133,0.04541 -0.4541015,0.03027 -0.8325195,0.07568 l 0.7416992,-10.8833 H 13.668457 v 2.240235 H 5.7822266 l -0.4389649,6.372558 q 0.484375,-0.03027 1.0292969,-0.04541 0.5449219,-0.03027 0.96875,-0.03027 1.7255859,0 3.0878904,0.454101 1.362305,0.454102 2.300781,1.301758 0.953614,0.83252 1.437989,2.0585938 0.499511,1.2109375 0.499511,2.7246094 z"
         id="path906"
         inkscape:connector-curvature="0" />
      <path
         d="m 31.13623,-6.1455078 q 0,1.4682617 -0.560058,2.6791992 -0.544922,1.1958008 -1.559082,2.0585938 -0.999024,0.84765621 -2.406738,1.31689449 -1.407715,0.46923828 -3.103028,0.46923828 -3.103027,0 -4.93457,-1.18066406 V -3.4663086 q 2.194824,1.7255859 5.025391,1.7255859 1.135253,0 2.043457,-0.2875976 0.923339,-0.2875977 1.574218,-0.8325195 0.666016,-0.5449219 1.01416,-1.3168946 0.363282,-0.7719726 0.363282,-1.7407226 0,-4.253418 -6.054688,-4.253418 h -1.801269 v -2.104004 h 1.710449 q 5.358398,0 5.358398,-3.996094 0,-3.693359 -4.086914,-3.693359 -2.300781,0 -4.313965,1.543945 v -2.406738 q 2.073731,-1.241211 4.934571,-1.241211 1.362304,0 2.467285,0.378418 1.10498,0.378418 1.89209,1.05957 0.787109,0.681153 1.210937,1.634766 0.438965,0.953613 0.438965,2.104004 0,4.283691 -4.329101,5.509765 v 0.06055 q 1.10498,0.121094 2.043457,0.544922 0.938476,0.408692 1.619628,1.0747073 0.681153,0.6660156 1.059571,1.5742187 0.393554,0.8930664 0.393554,1.9829102 z"
         id="path908"
         inkscape:connector-curvature="0" />
      <path
         d="m 48.891602,-6.887207 q 0,1.5893554 -0.514649,2.9213867 -0.514648,1.3320312 -1.422851,2.3007812 -0.908204,0.96875004 -2.164551,1.51367191 -1.256348,0.52978516 -2.72461,0.52978516 -1.634765,0 -2.936523,-0.68115235 -1.286621,-0.68115234 -2.194824,-1.95263672 -0.893067,-1.2866211 -1.362305,-3.1333008 -0.469238,-1.8466797 -0.469238,-4.1625976 0,-2.8305665 0.620605,-5.1313475 0.635742,-2.315918 1.786133,-3.950684 1.165527,-1.649902 2.800293,-2.542969 1.634766,-0.893066 3.647949,-0.893066 2.240235,0 3.602539,0.620606 v 2.346191 q -1.680175,-0.862793 -3.541992,-0.862793 -1.453125,0 -2.618652,0.650879 -1.165528,0.650879 -1.998047,1.84668 -0.83252,1.180664 -1.286621,2.860839 -0.438965,1.680176 -0.438965,3.73877 h 0.06055 q 1.498535,-2.709473 4.949707,-2.709473 1.422851,0 2.558105,0.484375 1.150391,0.484375 1.952637,1.377442 0.817383,0.877929 1.256348,2.1040036 0.438965,1.2260742 0.438965,2.7246094 z m -2.542969,0.3178711 q 0,-1.1352539 -0.287598,-2.0434571 -0.287598,-0.9082031 -0.832519,-1.543945 -0.529786,-0.635742 -1.316895,-0.96875 -0.787109,-0.348145 -1.786133,-0.348145 -0.92334,0 -1.710449,0.348145 -0.787109,0.348144 -1.362305,0.953613 -0.575195,0.590332 -0.908203,1.3925781 -0.317871,0.7871094 -0.317871,1.6801758 0,1.1201172 0.317871,2.1040039 0.317871,0.96875 0.893067,1.6953125 0.575195,0.7265625 1.362304,1.1503906 0.802246,0.4086914 1.770996,0.4086914 0.938477,0 1.71045,-0.3481445 0.771972,-0.3632812 1.316894,-0.9990234 0.544922,-0.6357422 0.847656,-1.5136719 0.302735,-0.8930664 0.302735,-1.9677734 z"
         id="path910"
         inkscape:connector-curvature="0" />
    </g>
    <g
       aria-label="Ejercicios"
       transform="translate(-19194,11221)"
       style="font-size:22px;font-family:SegoeUI, 'Segoe UI';fill:#ffffff"
       id="Ejercicios">
      <path
         d="M 10.183594,0 H 2.0195313 v -15.404297 h 7.8203125 v 1.632813 h -6.015625 v 5.1240231 h 5.5644531 v 1.6220703 H 3.8242188 v 5.3925781 h 6.3593752 z"
         id="path913"
         inkscape:connector-curvature="0" />
      <path
         d="m 14.673828,-0.46191406 q 0,2.70703126 -1.095703,4.16796876 -1.084961,1.4716797 -3.115234,1.4716797 -0.7519535,0 -1.4609379,-0.34375 V 3.1904297 q 0.7949219,0.4833984 1.5039059,0.4833984 2.40625,0 2.40625,-3.8457031 V -11 h 1.761719 z M 13.814453,-13.792969 q -0.472656,0 -0.805664,-0.322265 -0.333008,-0.322266 -0.333008,-0.816407 0,-0.49414 0.333008,-0.816406 0.333008,-0.333008 0.805664,-0.333008 0.483399,0 0.816406,0.333008 0.34375,0.322266 0.34375,0.816406 0,0.472657 -0.34375,0.805664 -0.333007,0.333008 -0.816406,0.333008 z"
         id="path915"
         inkscape:connector-curvature="0" />
      <path
         d="m 27.081055,-5.0595703 h -7.766602 q 0.04297,1.836914 0.988281,2.8359375 0.945313,0.9990234 2.59961,0.9990234 1.858398,0 3.416015,-1.2246094 v 1.65429693 q -1.450195,1.05273437 -3.834961,1.05273437 -2.331054,0 -3.663086,-1.4931641 -1.332031,-1.5039062 -1.332031,-4.2216796 0,-2.5673829 1.450196,-4.178711 1.460937,-1.6220708 3.620117,-1.6220708 2.159179,0 3.34082,1.3964849 1.181641,1.3964843 1.181641,3.8779297 z m -1.804688,-1.4931641 q -0.01074,-1.5253906 -0.741211,-2.3740234 -0.719726,-0.8486328 -2.008789,-0.8486328 -1.246094,0 -2.116211,0.8916015 -0.870117,0.8916016 -1.074219,2.3310547 z"
         id="path917"
         inkscape:connector-curvature="0" />
      <path
         d="m 35.492187,-9.2167969 q -0.461914,-0.3544922 -1.332031,-0.3544922 -1.127929,0 -1.890625,1.0634766 -0.751953,1.0634766 -0.751953,2.9003906 V 0 h -1.761719 v -11 h 1.761719 v 2.2666016 h 0.04297 q 0.375976,-1.1601563 1.149414,-1.8046876 0.773437,-0.655273 1.729492,-0.655273 0.6875,0 1.052734,0.15039 z"
         id="path919"
         inkscape:connector-curvature="0" />
      <path
         d="m 44.902344,-0.50488281 q -1.267578,0.76269531 -3.007813,0.76269531 -2.352539,0 -3.802734,-1.5253906 -1.439453,-1.5361328 -1.439453,-3.9746094 0,-2.7177734 1.557617,-4.3613281 1.557617,-1.6542974 4.157226,-1.6542974 1.450196,0 2.556641,0.53711 v 1.8046874 q -1.224609,-0.859375 -2.621094,-0.859375 -1.686523,0 -2.771484,1.2138672 -1.074219,1.203125 -1.074219,3.1689453 0,1.9335937 1.009766,3.0507812 1.020508,1.1171875 2.728515,1.1171875 1.439454,0 2.707032,-0.9560547 z"
         id="path921"
         inkscape:connector-curvature="0" />
      <path
         d="m 48.490234,-13.792969 q -0.472656,0 -0.805664,-0.322265 -0.333008,-0.322266 -0.333008,-0.816407 0,-0.49414 0.333008,-0.816406 0.333008,-0.333008 0.805664,-0.333008 0.483399,0 0.816407,0.333008 0.34375,0.322266 0.34375,0.816406 0,0.472657 -0.34375,0.805664 -0.333008,0.333008 -0.816407,0.333008 z M 49.349609,0 h -1.761718 v -11 h 1.761718 z"
         id="path923"
         inkscape:connector-curvature="0" />
      <path
         d="M 60.414062,-0.50488281 Q 59.146484,0.2578125 57.40625,0.2578125 q -2.352539,0 -3.802734,-1.5253906 -1.439454,-1.5361328 -1.439454,-3.9746094 0,-2.7177734 1.557618,-4.3613281 1.557617,-1.6542974 4.157226,-1.6542974 1.450196,0 2.556641,0.53711 v 1.8046874 q -1.22461,-0.859375 -2.621094,-0.859375 -1.686523,0 -2.771484,1.2138672 -1.074219,1.203125 -1.074219,3.1689453 0,1.9335937 1.009766,3.0507812 1.020507,1.1171875 2.728515,1.1171875 1.439453,0 2.707031,-0.9560547 z"
         id="path925"
         inkscape:connector-curvature="0" />
      <path
         d="m 64.001953,-13.792969 q -0.472656,0 -0.805664,-0.322265 -0.333008,-0.322266 -0.333008,-0.816407 0,-0.49414 0.333008,-0.816406 0.333008,-0.333008 0.805664,-0.333008 0.483399,0 0.816406,0.333008 0.34375,0.322266 0.34375,0.816406 0,0.472657 -0.34375,0.805664 -0.333007,0.333008 -0.816406,0.333008 z M 64.861328,0 h -1.761719 v -11 h 1.761719 z"
         id="path927"
         inkscape:connector-curvature="0" />
      <path
         d="m 73.025391,0.2578125 q -2.438477,0 -3.899414,-1.5361328 -1.450196,-1.546875 -1.450196,-4.0927734 0,-2.7714844 1.514649,-4.3291016 1.514648,-1.5576177 4.092773,-1.5576177 2.459961,0 3.834961,1.5146489 1.385742,1.5146485 1.385742,4.2001954 0,2.6318359 -1.493164,4.2216796 -1.482422,1.5791016 -3.985351,1.5791016 z m 0.128906,-10.0332031 q -1.697266,0 -2.685547,1.1601562 -0.988281,1.1494141 -0.988281,3.1796875 0,1.9550781 0.999023,3.0830078 0.999024,1.1279297 2.674805,1.1279297 1.708008,0 2.621094,-1.1064453 0.923828,-1.1064453 0.923828,-3.1474609 0,-2.0625 -0.923828,-3.1796875 -0.913086,-1.1171875 -2.621094,-1.1171875 z"
         id="path929"
         inkscape:connector-curvature="0" />
      <path
         d="M 80.652344,-0.39746094 V -2.2880859 q 1.439453,1.0634765 3.168945,1.0634765 2.320313,0 2.320313,-1.546875 0,-0.4404297 -0.204102,-0.7412109 -0.193359,-0.3115235 -0.537109,-0.5478516 -0.333008,-0.2363281 -0.794922,-0.4189453 -0.451172,-0.1933594 -0.977539,-0.3974609 -0.730469,-0.2900391 -1.289063,-0.5800781 -0.547851,-0.3007813 -0.923828,-0.6660157 -0.365234,-0.3759765 -0.558594,-0.8486328 -0.182617,-0.4726562 -0.182617,-1.1064453 0,-0.7734375 0.354492,-1.3642578 0.354492,-0.6015622 0.945313,-0.9990232 0.59082,-0.408203 1.342773,-0.612305 0.762696,-0.204102 1.56836,-0.204102 1.428711,0 2.55664,0.494141 v 1.7832032 q -1.213867,-0.7949218 -2.792969,-0.7949218 -0.49414,0 -0.891601,0.118164 -0.397461,0.1074219 -0.6875,0.3115235 -0.279297,0.2041015 -0.44043,0.4941406 -0.15039,0.2792969 -0.15039,0.6230469 0,0.4296875 0.15039,0.7197265 0.161133,0.2900391 0.461914,0.515625 0.300782,0.225586 0.730469,0.4082032 0.429688,0.1826172 0.977539,0.3974609 0.730469,0.2792969 1.310547,0.5800781 0.580078,0.2900391 0.988281,0.6660157 0.408203,0.3652343 0.623047,0.8486328 0.225586,0.4833984 0.225586,1.149414 0,0.8164063 -0.365234,1.4179688 -0.354493,0.60156247 -0.956055,0.99902341 -0.601563,0.39746094 -1.385742,0.59082031 -0.78418,0.19335938 -1.643555,0.19335938 -1.697266,0 -2.943359,-0.65527344 z"
         id="path931"
         inkscape:connector-curvature="0" />
    </g>
    <g
       aria-label="+"
       transform="translate(-19145,11200)"
       style="font-size:61px;font-family:SegoeUI, 'Segoe UI';fill:#ffffff"
       id="_">
      <path
         d="M 34.908203,-15.786133 H 22.875 V -3.7827148 H 18.913574 V -15.786133 H 6.9101562 v -3.991211 H 18.913574 V -31.780762 H 22.875 v 12.003418 h 12.033203 z"
         id="path934"
         inkscape:connector-curvature="0" />
    </g>
  </g>
  <g
     id="Grupo_1688"
     data-name="Grupo 1688"
     transform="translate(19235,-11065)">
    <g
       aria-label="49"
       transform="translate(-19182,11185)"
       style="font-size:23px;font-family:SegoeUI, 'Segoe UI';fill:#ffffff"
       id="_49">
      <path
         d="M 9.5458984,-16.104492 V -5.4692383 H 11.612305 V -3.784668 H 9.5458984 V 0 H 7.7265625 V -3.784668 H 0.15722656 v -1.5947265 q 1.05566404,-1.1904297 2.13378904,-2.538086 1.078125,-1.3588867 2.0551758,-2.7514645 0.9882813,-1.392578 1.8193359,-2.773926 0.8422852,-1.392578 1.4150391,-2.661621 z M 2.2348633,-5.4692383 h 5.4916992 v -7.8837887 q -0.8422852,1.471191 -1.5947266,2.627929 -0.7524414,1.1567386 -1.4375,2.100098 -0.6738281,0.9433594 -1.2915039,1.7070313 -0.6176757,0.7636718 -1.1679687,1.4487304 z"
         id="path890"
         inkscape:connector-curvature="0" />
      <path
         d="m 23.673828,-9.0180664 q 0,2.2124023 -0.437988,3.9418945 -0.437988,1.7182617 -1.280274,2.9199219 -0.842285,1.19042969 -2.055175,1.81933594 -1.212891,0.61767578 -2.762696,0.61767578 -1.594726,0 -2.807617,-0.56152344 V -2.0439453 q 1.336426,0.7524414 2.852539,0.7524414 1.089356,0 1.942871,-0.4492188 0.864746,-0.4492187 1.459961,-1.3027343 0.595215,-0.8647461 0.909668,-2.1225586 0.314453,-1.2578125 0.314453,-2.8862305 h -0.04492 q -1.033203,2.0776367 -3.59375,2.0776367 -1.033203,0 -1.897949,-0.359375 -0.864746,-0.3706054 -1.493652,-1.0332031 -0.628906,-0.6738281 -0.977051,-1.5947266 -0.348144,-0.9208984 -0.348144,-2.0327149 0,-1.19043 0.381836,-2.178711 0.393066,-0.988281 1.078125,-1.695801 0.696289,-0.71875 1.639648,-1.111816 0.95459,-0.393066 2.077637,-0.393066 1.21289,0 2.145019,0.49414 0.94336,0.48291 1.583496,1.42627 0.640137,0.932129 0.977051,2.302246 0.336914,1.370117 0.336914,3.1333006 z m -1.987793,-1.6508786 q 0,-0.932129 -0.24707,-1.695801 -0.23584,-0.763672 -0.662598,-1.302734 -0.426758,-0.550293 -1.021972,-0.842286 -0.583985,-0.303222 -1.280274,-0.303222 -0.662598,0 -1.235351,0.269531 -0.572754,0.258301 -0.999512,0.741211 -0.415528,0.47168 -0.662598,1.134277 -0.23584,0.651367 -0.23584,1.42627 0,0.853515 0.22461,1.5273435 0.23584,0.6738282 0.662597,1.1455078 0.426758,0.4604493 1.021973,0.7075196 0.606445,0.2470703 1.336426,0.2470703 0.640136,0 1.20166,-0.2358399 0.572754,-0.2470703 0.988281,-0.6513671 0.426758,-0.4155274 0.662598,-0.9658204 0.24707,-0.5615238 0.24707,-1.2016598 z"
         id="path892"
         inkscape:connector-curvature="0" />
    </g>
    <g
       aria-label="TEMAS"
       transform="translate(-19194,11207)"
       style="font-size:17px;font-family:SegoeUI, 'Segoe UI';fill:#ffffff"
       id="TEMAS">
      <path
         d="M 8.5996094,-10.641602 H 5.1630859 V 0 H 3.7685547 V -10.641602 H 0.34033203 V -11.90332 H 8.5996094 Z"
         id="path895"
         inkscape:connector-curvature="0" />
      <path
         d="m 16.767578,0 h -6.308594 v -11.90332 h 6.042969 v 1.261718 h -4.648437 v 3.9594731 h 4.299804 v 1.253418 h -4.299804 v 4.1669922 h 4.914062 z"
         id="path897"
         inkscape:connector-curvature="0" />
      <path
         d="m 31.194336,0 h -1.386231 v -7.9853516 q 0,-0.946289 0.116211,-2.3159184 h -0.0332 q -0.199218,0.8051762 -0.356933,1.1538091 L 25.466797,0 H 24.786133 L 20.727051,-9.0810547 Q 20.552734,-9.4794922 20.370117,-10.30127 h -0.0332 q 0.06641,0.7138677 0.06641,2.33252 V 0 h -1.344726 v -11.90332 h 1.842773 l 3.652344,8.3007809 q 0.42334,0.9545899 0.547851,1.4277344 h 0.0498 q 0.356934,-0.9794922 0.572754,-1.4609375 l 3.727051,-8.2675778 h 1.743164 z"
         id="path899"
         inkscape:connector-curvature="0" />
      <path
         d="M 43.545898,0 H 42.001953 L 40.740234,-3.3369141 H 35.693359 L 34.506348,0 h -1.552246 l 4.565429,-11.90332 h 1.444336 z m -3.262207,-4.590332 -1.867675,-5.0717774 q -0.09131,-0.2490234 -0.182618,-0.7968746 h -0.0332 q -0.08301,0.5063473 -0.190918,0.7968746 l -1.851074,5.0717774 z"
         id="path901"
         inkscape:connector-curvature="0" />
      <path
         d="M 44.73291,-0.48144531 V -2.125 q 0.282227,0.2490234 0.672363,0.4482422 0.398438,0.1992187 0.830079,0.340332 0.439941,0.1328125 0.879882,0.2075196 0.439942,0.074707 0.813477,0.074707 1.286621,0 1.91748,-0.4731445 0.639161,-0.4814454 0.639161,-1.3779297 0,-0.4814454 -0.215821,-0.8383789 -0.207519,-0.3569336 -0.581054,-0.647461 -0.373536,-0.2988281 -0.888184,-0.5644531 -0.506348,-0.2739258 -1.095703,-0.5727539 -0.622559,-0.3154297 -1.16211,-0.6391602 -0.53955,-0.3237304 -0.937988,-0.7138672 -0.398437,-0.3901367 -0.630859,-0.8798828 -0.224121,-0.4980468 -0.224121,-1.1621093 0,-0.8134766 0.356933,-1.4111332 0.356934,-0.605957 0.937989,-0.996093 0.581054,-0.390137 1.319824,-0.581055 0.74707,-0.190918 1.519043,-0.190918 1.759765,0 2.564941,0.42334 v 1.568847 q -1.054199,-0.730468 -2.706055,-0.730468 -0.456542,0 -0.913085,0.09961 -0.456543,0.09131 -0.813477,0.307129 -0.356934,0.21582 -0.581055,0.5561523 -0.224121,0.340332 -0.224121,0.8300781 0,0.456543 0.166016,0.7885743 0.174316,0.3320312 0.506347,0.605957 0.332032,0.2739258 0.805176,0.53125 0.481446,0.2573242 1.104004,0.5644531 0.63916,0.3154297 1.211914,0.6640625 0.572754,0.3486328 1.004395,0.7719727 0.43164,0.4233398 0.680664,0.9379883 0.257324,0.5146484 0.257324,1.1787109 0,0.8798828 -0.348633,1.4941406 -0.340332,0.60595704 -0.929687,0.98779298 -0.581055,0.38183594 -1.344727,0.54785156 -0.763672,0.17431641 -1.610351,0.17431641 -0.282227,0 -0.697266,-0.0498047 -0.415039,-0.0415039 -0.84668,-0.1328125 -0.43164,-0.08300781 -0.821777,-0.20751953 -0.381836,-0.1328125 -0.614258,-0.29052833 z"
         id="path903"
         inkscape:connector-curvature="0" />
    </g>
  </g>
  <g
     id="Grupo_1689"
     data-name="Grupo 1689"
     transform="translate(19414.082,-11113.688)">
    <g
       aria-label="INTELIGENCIAARTIFICIAL"
       style="font-size:22px;font-family:SegoeUI, 'Segoe UI';text-align:start;text-anchor:start;fill:#ffffff"
       id="INTELIGENCIA_ARTIFICIAL">
      <path
         d="m -19277.486,11195.89 h -1.805 v -15.405 h 1.805 z"
         style="text-align:start;text-anchor:start"
         id="path845"
         inkscape:connector-curvature="0" />
      <path
         d="m -19261.029,11195.89 h -2.213 l -7.928,-12.279 q -0.301,-0.462 -0.494,-0.966 h -0.06 q 0.09,0.494 0.09,2.116 v 11.129 h -1.804 v -15.405 h 2.342 l 7.712,12.085 q 0.484,0.752 0.623,1.032 h 0.04 q -0.107,-0.666 -0.107,-2.267 v -10.85 h 1.805 z"
         style="text-align:start;text-anchor:start"
         id="path847"
         inkscape:connector-curvature="0" />
      <path
         d="m -19247.881,11182.118 h -4.447 v 13.772 h -1.805 v -13.772 h -4.436 v -1.633 h 10.688 z"
         style="text-align:start;text-anchor:start"
         id="path849"
         inkscape:connector-curvature="0" />
      <path
         d="m -19237.311,11195.89 h -8.164 v -15.405 h 7.821 v 1.633 h -6.016 v 5.124 h 5.565 v 1.622 h -5.565 v 5.393 h 6.359 z"
         style="text-align:start;text-anchor:start"
         id="path851"
         inkscape:connector-curvature="0" />
      <path
         d="m -19226.354,11195.89 h -7.992 v -15.405 h 1.805 v 13.772 h 6.187 z"
         style="text-align:start;text-anchor:start"
         id="path853"
         inkscape:connector-curvature="0" />
      <path
         d="m -19222.186,11195.89 h -1.804 v -15.405 h 1.804 z"
         style="text-align:start;text-anchor:start"
         id="path855"
         inkscape:connector-curvature="0" />
      <path
         d="m -19206.631,11194.837 q -2.32,1.31 -5.156,1.31 -3.298,0 -5.339,-2.126 -2.03,-2.127 -2.03,-5.629 0,-3.578 2.256,-5.866 2.266,-2.298 5.736,-2.298 2.514,0 4.222,0.816 v 1.998 q -1.87,-1.182 -4.426,-1.182 -2.589,0 -4.243,1.784 -1.655,1.783 -1.655,4.619 0,2.922 1.537,4.597 1.536,1.665 4.167,1.665 1.805,0 3.126,-0.719 v -4.319 h -3.373 v -1.633 h 5.178 z"
         style="text-align:start;text-anchor:start"
         id="path857"
         inkscape:connector-curvature="0" />
      <path
         d="m -19194.9,11195.89 h -8.164 v -15.405 h 7.82 v 1.633 h -6.016 v 5.124 h 5.565 v 1.622 h -5.565 v 5.393 h 6.36 z"
         style="text-align:start;text-anchor:start"
         id="path859"
         inkscape:connector-curvature="0" />
      <path
         d="m -19179.518,11195.89 h -2.212 l -7.928,-12.279 q -0.301,-0.462 -0.494,-0.966 h -0.07 q 0.09,0.494 0.09,2.116 v 11.129 h -1.805 v -15.405 h 2.342 l 7.713,12.085 q 0.484,0.752 0.623,1.032 h 0.04 q -0.107,-0.666 -0.107,-2.267 v -10.85 h 1.804 z"
         style="text-align:start;text-anchor:start"
         id="path861"
         inkscape:connector-curvature="0" />
      <path
         d="m -19164.994,11195.245 q -1.708,0.902 -4.254,0.902 -3.287,0 -5.264,-2.116 -1.976,-2.116 -1.976,-5.553 0,-3.696 2.223,-5.973 2.224,-2.277 5.64,-2.277 2.191,0 3.631,0.633 v 1.923 q -1.654,-0.924 -3.652,-0.924 -2.654,0 -4.308,1.773 -1.644,1.772 -1.644,4.737 0,2.815 1.536,4.49 1.547,1.665 4.05,1.665 2.321,0 4.018,-1.031 z"
         style="text-align:start;text-anchor:start"
         id="path863"
         inkscape:connector-curvature="0" />
      <path
         d="m -19160.053,11195.89 h -1.804 v -15.405 h 1.804 z"
         style="text-align:start;text-anchor:start"
         id="path865"
         inkscape:connector-curvature="0" />
      <path
         d="m -19144.09,11195.89 h -1.998 l -1.633,-4.319 h -6.531 l -1.536,4.319 h -2.009 l 5.908,-15.405 h 1.869 z m -4.222,-5.941 -2.417,-6.563 q -0.118,-0.323 -0.236,-1.032 h -0.04 q -0.107,0.656 -0.247,1.032 l -2.395,6.563 z"
         style="text-align:start;text-anchor:start"
         id="path867"
         inkscape:connector-curvature="0" />
      <path
         d="m -19267.367,11225.89 h -1.998 l -1.633,-4.319 h -6.531 l -1.536,4.319 h -2.009 l 5.908,-15.405 h 1.869 z m -4.222,-5.941 -2.417,-6.563 q -0.118,-0.323 -0.236,-1.032 h -0.04 q -0.108,0.656 -0.247,1.032 l -2.396,6.563 z"
         style="text-align:start;text-anchor:start"
         id="path869"
         inkscape:connector-curvature="0" />
      <path
         d="m -19254.068,11225.89 h -2.149 l -2.578,-4.319 q -0.354,-0.601 -0.687,-1.02 -0.333,-0.43 -0.688,-0.698 -0.344,-0.269 -0.752,-0.387 -0.397,-0.129 -0.902,-0.129 h -1.483 v 6.553 h -1.804 v -15.405 h 4.597 q 1.01,0 1.859,0.258 0.859,0.247 1.482,0.763 0.634,0.515 0.988,1.289 0.355,0.763 0.355,1.794 0,0.806 -0.247,1.482 -0.236,0.666 -0.688,1.193 -0.44,0.526 -1.074,0.902 -0.623,0.365 -1.407,0.569 v 0.04 q 0.387,0.172 0.666,0.398 0.29,0.215 0.548,0.515 0.258,0.301 0.505,0.688 0.257,0.376 0.569,0.881 z m -9.239,-13.772 v 5.586 h 2.45 q 0.676,0 1.246,-0.204 0.58,-0.204 0.999,-0.58 0.419,-0.387 0.655,-0.935 0.236,-0.558 0.236,-1.246 0,-1.235 -0.805,-1.923 -0.795,-0.698 -2.31,-0.698 z"
         style="text-align:start;text-anchor:start"
         id="path871"
         inkscape:connector-curvature="0" />
      <path
         d="m -19243.842,11212.118 h -4.447 v 13.772 h -1.805 v -13.772 h -4.436 v -1.633 h 10.688 z"
         style="text-align:start;text-anchor:start"
         id="path873"
         inkscape:connector-curvature="0" />
      <path
         d="m -19239.631,11225.89 h -1.805 v -15.405 h 1.805 z"
         style="text-align:start;text-anchor:start"
         id="path875"
         inkscape:connector-curvature="0" />
      <path
         d="m -19227.771,11212.118 h -6.016 v 5.328 h 5.564 v 1.622 h -5.564 v 6.822 h -1.805 v -15.405 h 7.821 z"
         style="text-align:start;text-anchor:start"
         id="path877"
         inkscape:connector-curvature="0" />
      <path
         d="m -19223.045,11225.89 h -1.805 v -15.405 h 1.805 z"
         style="text-align:start;text-anchor:start"
         id="path879"
         inkscape:connector-curvature="0" />
      <path
         d="m -19208.521,11225.245 q -1.708,0.902 -4.254,0.902 -3.287,0 -5.264,-2.116 -1.977,-2.116 -1.977,-5.553 0,-3.696 2.224,-5.973 2.224,-2.277 5.64,-2.277 2.191,0 3.631,0.633 v 1.923 q -1.655,-0.924 -3.653,-0.924 -2.653,0 -4.307,1.773 -1.644,1.772 -1.644,4.737 0,2.815 1.536,4.49 1.547,1.665 4.05,1.665 2.32,0 4.018,-1.031 z"
         style="text-align:start;text-anchor:start"
         id="path881"
         inkscape:connector-curvature="0" />
      <path
         d="m -19203.58,11225.89 h -1.805 v -15.405 h 1.805 z"
         style="text-align:start;text-anchor:start"
         id="path883"
         inkscape:connector-curvature="0" />
      <path
         d="m -19187.617,11225.89 h -1.998 l -1.633,-4.319 h -6.531 l -1.536,4.319 h -2.009 l 5.908,-15.405 h 1.869 z m -4.222,-5.941 -2.417,-6.563 q -0.118,-0.323 -0.236,-1.032 h -0.04 q -0.108,0.656 -0.247,1.032 l -2.396,6.563 z"
         style="text-align:start;text-anchor:start"
         id="path885"
         inkscape:connector-curvature="0" />
      <path
         d="m -19177.369,11225.89 h -7.992 v -15.405 h 1.804 v 13.772 h 6.188 z"
         style="text-align:start;text-anchor:start"
         id="path887"
         inkscape:connector-curvature="0" />
    </g>
  </g>
</svg>
