<svg xmlns="http://www.w3.org/2000/svg" width="354" height="364.604" viewBox="0 0 354 364.604">
  <g id="Grupo_1718" data-name="Grupo 1718" transform="translate(-456.991 -1162.195)">
    <g id="Grupo_1713" data-name="Grupo 1713" transform="translate(456.991 1162.195)">
      <g id="Grupo_1712" data-name="Grupo 1712">
        <g id="Grupo_1704" data-name="Grupo 1704">
          <path id="Trazado_4137" data-name="Trazado 4137" d="M525.013,1307.141a84.62,84.62,0,0,1,26.757-56.4l-45.5-50.327a152.259,152.259,0,0,0-49.017,103.321Z" transform="translate(-456.976 -1160.023)" fill="#f8bd3a"/>
          <path id="Trazado_4138" data-name="Trazado 4138" d="M545.848,1363a84.621,84.621,0,0,1-20.96-58.8l-67.764-3.41a152.258,152.258,0,0,0,38.4,107.72Z" transform="translate(-456.991 -1154.317)" fill="#32b0f3"/>
          <path id="Trazado_4139" data-name="Trazado 4139" d="M551.074,1251.053a84.62,84.62,0,0,1,58.806-20.96l3.409-67.765a152.258,152.258,0,0,0-107.72,38.4Z" transform="translate(-454.23 -1162.195)" fill="#ec5465"/>
          <path id="Trazado_4140" data-name="Trazado 4140" d="M610.293,1162.453l-3.409,67.764a84.634,84.634,0,0,1,56.4,26.757l50.327-45.5A152.261,152.261,0,0,0,610.293,1162.453Z" transform="translate(-448.471 -1162.181)" fill="#7ce2c3"/>
          <path id="Trazado_4141" data-name="Trazado 4141" d="M601.935,1388.355a84.619,84.619,0,0,1-56.4-26.757L495.2,1407.1a152.248,152.248,0,0,0,103.321,49.016Z" transform="translate(-454.819 -1150.861)" fill="#7643d6"/>
        </g>
        <g id="Grupo_1711" data-name="Grupo 1711" transform="translate(123.258 31.849)">
          <g id="Grupo_1705" data-name="Grupo 1705" transform="translate(117.82)">
            <rect id="Rectángulo_1426" data-name="Rectángulo 1426" width="66.295" height="39.937" transform="translate(32.447 16.962) rotate(27.861)" fill="#7ce2c3"/>
            <path id="Trazado_4142" data-name="Trazado 4142" d="M703.684,1192.51l13.894,16.765L699,1244.425,685.1,1227.66Z" transform="translate(-685.103 -1192.321)" fill="#9ff4d7"/>
            <path id="Trazado_4143" data-name="Trazado 4143" d="M793.852,1239.686l-21.678-2.039-18.664,35.308,21.678,2.039Z" transform="translate(-681.215 -1189.755)" fill="#55bf9c"/>
            <path id="Trazado_4144" data-name="Trazado 4144" d="M702.737,1192.331l20.96,3.35,58.532,30.94,14.794,15.791-21.678-2.039-58.8-31.08Z" transform="translate(-684.101 -1192.331)" fill="#f2d69c"/>
            <path id="Trazado_4145" data-name="Trazado 4145" d="M758.123,1221.114c-.762,1.444-5.812.271-11.277-2.618s-9.278-6.4-8.515-7.844,5.812-.271,11.277,2.619S758.886,1219.671,758.123,1221.114Z" transform="translate(-682.083 -1191.325)" fill="#383838"/>
          </g>
          <g id="Grupo_1706" data-name="Grupo 1706" transform="translate(79.332 49.565)">
            <rect id="Rectángulo_1427" data-name="Rectángulo 1427" width="66.295" height="39.937" transform="translate(32.447 16.962) rotate(27.861)" fill="#ec5465"/>
            <path id="Trazado_4146" data-name="Trazado 4146" d="M667.266,1239.409l13.894,16.765-18.581,35.15-13.894-16.765Z" transform="translate(-648.685 -1239.22)" fill="#ed7284"/>
            <path id="Trazado_4147" data-name="Trazado 4147" d="M757.434,1286.585l-21.678-2.039-18.664,35.307,21.678,2.039Z" transform="translate(-644.797 -1236.655)" fill="#d13b51"/>
            <path id="Trazado_4148" data-name="Trazado 4148" d="M666.319,1239.23l20.96,3.351,58.532,30.94,14.794,15.79-21.678-2.039-58.8-31.08Z" transform="translate(-647.683 -1239.23)" fill="#f2d69c"/>
            <path id="Trazado_4149" data-name="Trazado 4149" d="M721.706,1268.014c-.763,1.443-5.812.27-11.278-2.619s-9.277-6.4-8.515-7.844,5.811-.271,11.277,2.619S722.468,1266.57,721.706,1268.014Z" transform="translate(-645.665 -1238.224)" fill="#383838"/>
          </g>
          <g id="Grupo_1707" data-name="Grupo 1707" transform="translate(60.481 110.913)">
            <rect id="Rectángulo_1428" data-name="Rectángulo 1428" width="66.295" height="39.937" transform="translate(32.447 16.962) rotate(27.861)" fill="#f8bd3a"/>
            <path id="Trazado_4150" data-name="Trazado 4150" d="M649.429,1297.457l13.894,16.765-18.581,35.15-13.894-16.765Z" transform="translate(-630.848 -1297.268)" fill="#f7cc77"/>
            <path id="Trazado_4151" data-name="Trazado 4151" d="M739.6,1344.633l-21.678-2.039L699.255,1377.9l21.678,2.039Z" transform="translate(-626.96 -1294.703)" fill="#e0a328"/>
            <path id="Trazado_4152" data-name="Trazado 4152" d="M648.482,1297.278l20.96,3.35,58.532,30.94,14.794,15.79-21.678-2.039-58.8-31.08Z" transform="translate(-629.846 -1297.278)" fill="#f2d69c"/>
            <path id="Trazado_4153" data-name="Trazado 4153" d="M703.868,1326.062c-.762,1.443-5.811.27-11.277-2.619s-9.278-6.4-8.515-7.844,5.812-.271,11.277,2.619S704.631,1324.618,703.868,1326.062Z" transform="translate(-627.828 -1296.272)" fill="#383838"/>
          </g>
          <g id="Grupo_1708" data-name="Grupo 1708" transform="translate(19.637 156.551)">
            <rect id="Rectángulo_1429" data-name="Rectángulo 1429" width="66.295" height="39.937" transform="translate(32.447 16.962) rotate(27.861)" fill="#32b0f3"/>
            <path id="Trazado_4154" data-name="Trazado 4154" d="M610.781,1340.64l13.894,16.765-18.581,35.15L592.2,1375.79Z" transform="translate(-592.201 -1340.451)" fill="#4dbdef"/>
            <path id="Trazado_4155" data-name="Trazado 4155" d="M700.949,1387.817l-21.678-2.039-18.664,35.308,21.678,2.039Z" transform="translate(-588.312 -1337.886)" fill="#2a9ed1"/>
            <path id="Trazado_4156" data-name="Trazado 4156" d="M609.834,1340.462l20.96,3.351,58.531,30.941,14.794,15.79-21.678-2.039-58.8-31.08Z" transform="translate(-591.198 -1340.462)" fill="#f2d69c"/>
            <path id="Trazado_4157" data-name="Trazado 4157" d="M665.221,1369.245c-.763,1.443-5.812.271-11.276-2.619s-9.278-6.4-8.515-7.844,5.812-.27,11.277,2.619S665.984,1367.8,665.221,1369.245Z" transform="translate(-589.181 -1339.455)" fill="#383838"/>
          </g>
          <g id="Grupo_1710" data-name="Grupo 1710" transform="translate(0 212.4)">
            <path id="Trazado_4158" data-name="Trazado 4158" d="M573.62,1426.745l20.625,85.016,73.348-35.117Z" transform="translate(-573.62 -1391.406)" fill="#f2d69c"/>
            <path id="Trazado_4159" data-name="Trazado 4159" d="M612.4,1499.287c-8.248-10.505-17.713-12.838-24.3-12.9l5.332,21.979Z" transform="translate(-572.797 -1388.016)" fill="#383838"/>
            <path id="Trazado_4160" data-name="Trazado 4160" d="M593.423,1508.371l.126-.06,2.952-20.584a28.646,28.646,0,0,0-8.409-1.335Z" transform="translate(-572.797 -1388.016)" fill="#424242"/>
            <g id="Grupo_1709" data-name="Grupo 1709" transform="translate(0)">
              <rect id="Rectángulo_1430" data-name="Rectángulo 1430" width="66.295" height="39.937" transform="translate(32.447 16.962) rotate(27.861)" fill="#7643d6"/>
              <path id="Trazado_4161" data-name="Trazado 4161" d="M592.2,1393.485,606.1,1410.25l-18.581,35.15-13.894-16.765Z" transform="translate(-573.62 -1393.297)" fill="#8b68e0"/>
              <path id="Trazado_4162" data-name="Trazado 4162" d="M682.369,1440.662l-21.678-2.039-18.664,35.307,21.678,2.039Z" transform="translate(-569.732 -1390.731)" fill="#5f36c1"/>
              <path id="Trazado_4163" data-name="Trazado 4163" d="M591.254,1393.307l20.96,3.35,58.532,30.94,14.794,15.791-21.678-2.039-58.8-31.08Z" transform="translate(-572.618 -1393.307)" fill="#f2d69c"/>
              <path id="Trazado_4164" data-name="Trazado 4164" d="M646.641,1422.09c-.763,1.443-5.811.27-11.277-2.619s-9.277-6.4-8.515-7.843,5.812-.271,11.278,2.618S647.4,1420.647,646.641,1422.09Z" transform="translate(-570.6 -1392.301)" fill="#383838"/>
            </g>
            <path id="Trazado_4165" data-name="Trazado 4165" d="M573.62,1426.781s17.522-5.782,13.894,16.765l-6.09,4.283Z" transform="translate(-573.62 -1391.442)" fill="#f2d69c"/>
            <path id="Trazado_4166" data-name="Trazado 4166" d="M586.767,1442.668s38.92-10.243,58.5,31.148l-32.452-7.109Z" transform="translate(-572.873 -1390.565)" fill="#f2d69c"/>
            <path id="Trazado_4167" data-name="Trazado 4167" d="M642.127,1472.422s15.261-15.525,21.58,1.987l-21.715,2.2Z" transform="translate(-569.734 -1389.171)" fill="#f2d69c"/>
          </g>
        </g>
      </g>
    </g>
    <path id="Trazado_4168" data-name="Trazado 4168" d="M506.58,1342.691a1.072,1.072,0,0,0,.042-.108l1.507-2.369.01-.013.006-.016.145-.228c.12-.159,2.9-3.919,2.263-7.43a5.439,5.439,0,0,0-2.585-3.7,5.35,5.35,0,0,0-4.429-.755c-3.252.892-5.355,4.714-5.631,5.238l-1.654,2.6a.453.453,0,0,0-.191.3l-11.782,18.524a1.13,1.13,0,0,0-.168.744l.962,7.725a1.129,1.129,0,0,0,.505.806l.007,0a1.129,1.129,0,0,0,.935.127l7.544-2.317a1.128,1.128,0,0,0,.619-.472l11.814-18.58A.976.976,0,0,0,506.58,1342.691ZM491.8,1356.242l9.791-15.394,2.473,1.573-10.135,15.936A13.2,13.2,0,0,0,491.8,1356.242Zm7.89-16.6-9.784,15.383a12.207,12.207,0,0,0-2.507-.986l10.059-15.817Zm-1.024-3.318.369-.579,6.605,4.2-.369.579Zm5.473-6.077a3.147,3.147,0,0,1,2.625.483,3.23,3.23,0,0,1,1.577,2.2c.347,1.88-.821,4.073-1.479,5.125l-6.651-4.229C500.923,1332.652,502.4,1330.719,504.135,1330.244ZM487.143,1361.6l-.681-5.474a10.3,10.3,0,0,1,5.89,3.874Z" transform="translate(1.541 9.418)" fill="#fff"/>
    <g id="Grupo_1714" data-name="Grupo 1714" transform="translate(537.653 1403.18)">
      <path id="Trazado_4169" data-name="Trazado 4169" d="M551.241,1393.975c-.013,0-.023-.007-.037-.007l-.056,0-.056,0c-.013,0-.024.007-.037.007a12.217,12.217,0,0,0-12.041,11.681,1.107,1.107,0,0,0-.148.526,12.2,12.2,0,0,0,3.314,8.369,12.359,12.359,0,0,0,1.471,1.319l2.415,7.709a1.126,1.126,0,0,0,1.075.79h8.013a1.125,1.125,0,0,0,1.074-.79l2.415-7.709a12.522,12.522,0,0,0,1.478-1.323,12.21,12.21,0,0,0,3.308-8.365,1.1,1.1,0,0,0-.148-.527A12.216,12.216,0,0,0,551.241,1393.975Zm-.093,2.247a9.971,9.971,0,0,1,6.58,17.406c-.222.194-.449.38-.689.556a3.214,3.214,0,0,0-.567.764l-1.018,3.244h-8.614l-1.017-3.244a1.1,1.1,0,0,0-.287-.446,1.114,1.114,0,0,0-.279-.317c-.239-.177-.468-.363-.684-.552a9.97,9.97,0,0,1,6.575-17.411Zm-3.076,25.9-.525-1.674h7.2l-.525,1.674Z" transform="translate(-532.999 -1390.006)" fill="#fff"/>
      <path id="Trazado_4170" data-name="Trazado 4170" d="M542.741,1394.4a1.126,1.126,0,0,0,1.864-1.264l-1.639-2.418a1.125,1.125,0,1,0-1.863,1.263Z" transform="translate(-532.883 -1390.219)" fill="#fff"/>
      <path id="Trazado_4171" data-name="Trazado 4171" d="M538.389,1398.869l-2.764-.948a1.126,1.126,0,0,0-.73,2.13l2.764.948a1.126,1.126,0,0,0,.73-2.13Z" transform="translate(-533.268 -1389.784)" fill="#fff"/>
      <path id="Trazado_4172" data-name="Trazado 4172" d="M536.87,1407.239l-2.779.9a1.125,1.125,0,1,0,.7,2.14l2.777-.9a1.126,1.126,0,0,0-.7-2.141Z" transform="translate(-533.314 -1389.255)" fill="#fff"/>
      <path id="Trazado_4173" data-name="Trazado 4173" d="M557.51,1394.889a1.124,1.124,0,0,0,.933-.493l1.639-2.419a1.126,1.126,0,0,0-1.864-1.263l-1.639,2.418a1.126,1.126,0,0,0,.931,1.758Z" transform="translate(-532.003 -1390.219)" fill="#fff"/>
      <path id="Trazado_4174" data-name="Trazado 4174" d="M563.586,1401l2.764-.948a1.125,1.125,0,0,0-.729-2.13l-2.764.948a1.125,1.125,0,0,0,.729,2.13Z" transform="translate(-531.678 -1389.784)" fill="#fff"/>
      <path id="Trazado_4175" data-name="Trazado 4175" d="M567.154,1408.143l-2.779-.9a1.126,1.126,0,1,0-.7,2.141l2.777.9a1.125,1.125,0,0,0,.7-2.14Z" transform="translate(-531.633 -1389.255)" fill="#fff"/>
    </g>
    <g id="Grupo_1715" data-name="Grupo 1715" transform="translate(481.406 1246.375)">
      <path id="Trazado_4176" data-name="Trazado 4176" d="M492.8,1257.092a7.622,7.622,0,1,0-7.622-7.623A7.625,7.625,0,0,0,492.8,1257.092Zm0-13.318a5.694,5.694,0,1,1-5.694,5.694A5.687,5.687,0,0,1,492.8,1243.774Z" transform="translate(-479.804 -1241.847)" fill="#fff"/>
      <path id="Trazado_4177" data-name="Trazado 4177" d="M506.269,1259.8a6.236,6.236,0,1,0-6.236-6.235A6.237,6.237,0,0,0,506.269,1259.8Zm0-10.544a4.308,4.308,0,1,1-4.308,4.308A4.3,4.3,0,0,1,506.269,1249.261Z" transform="translate(-478.96 -1241.535)" fill="#fff"/>
      <path id="Trazado_4178" data-name="Trazado 4178" d="M511.829,1260.372a9.9,9.9,0,0,0-3.774-.738h-1.063a10.017,10.017,0,0,0-4.47,1.068,12.573,12.573,0,0,0-3.945-2.577,12.355,12.355,0,0,0-4.668-.91h-1.347a12.47,12.47,0,0,0-12.468,12.469.964.964,0,0,0,.964.964h16.7a.907.907,0,0,0,.122.024h19.285a.964.964,0,0,0,.964-.964A10.022,10.022,0,0,0,511.829,1260.372Zm-26.724,1.864a10.478,10.478,0,0,1,7.456-3.092h1.347a10.417,10.417,0,0,1,3.943.768,10.648,10.648,0,0,1,3.787,2.613,10.5,10.5,0,0,1,2.767,6.2H482.064A10.459,10.459,0,0,1,485.1,1262.236Zm21.236,6.509c0-.046-.012-.092-.016-.138-.009-.1-.022-.2-.033-.3-.028-.257-.064-.513-.109-.766-.019-.11-.038-.22-.06-.329-.055-.274-.12-.545-.194-.815-.019-.07-.034-.141-.054-.21q-.148-.5-.336-.987c-.032-.082-.068-.162-.1-.243-.1-.244-.207-.486-.323-.724-.05-.1-.1-.2-.154-.3q-.179-.344-.383-.676c-.049-.082-.1-.165-.147-.246-.179-.28-.366-.556-.568-.822a8.162,8.162,0,0,1,3.129-.62h1.063a7.976,7.976,0,0,1,3.048.595,8.1,8.1,0,0,1,5.043,6.587Z" transform="translate(-480.093 -1240.973)" fill="#fff"/>
    </g>
    <g id="Grupo_1716" data-name="Grupo 1716" transform="translate(641.649 1193.486)">
      <path id="Trazado_4179" data-name="Trazado 4179" d="M666.884,1193.283a1.03,1.03,0,0,0-.841-1.126c-.388-.071-8.987-1.57-16.105,2.19a1.189,1.189,0,0,0-.16-.042c-.268-.032-6.613-.745-10.859,2.529a1.034,1.034,0,0,0-.259,1.342l3.036,5.15q-.5,1.024-.922,2.12c-1.359.087-3.591.712-5.9,3.4a1.032,1.032,0,0,0,.447,1.648,13.707,13.707,0,0,0-3.591,7.174,1.081,1.081,0,0,0,.932,1.249,15.794,15.794,0,0,0,1.636.086,13.323,13.323,0,0,0,6.268-1.49,1.031,1.031,0,0,0,1.453.9c3.227-1.444,4.459-3.407,4.929-4.686.792-.066,1.559-.164,2.307-.286l4.011,4.308a1.035,1.035,0,0,0,1.36.134c4.349-3.142,5.468-9.427,5.514-9.692,0-.015,0-.029,0-.043C665.831,1202.388,666.842,1193.672,666.884,1193.283Zm-9.118,14.283-.022.019c-.25.228-.516.438-.791.643a14.789,14.789,0,0,1-1.474.969,18.437,18.437,0,0,1-5.316,1.991,25.5,25.5,0,0,1-3.157.477l-4.238-5.679a25.4,25.4,0,0,1,1.542-3.224,17.234,17.234,0,0,1,4.579-5.333c.192-.145.39-.284.6-.423a19.494,19.494,0,0,1,8.655-2.942l4.664,6.248A19.69,19.69,0,0,1,657.766,1207.566Zm6.913-13.512a30.27,30.27,0,0,1-1.006,3.958l-3.073-4.117A30.518,30.518,0,0,1,664.679,1194.054Zm-17.713,2.262c-.161.134-.312.287-.469.429s-.3.266-.447.408c-.324.313-.638.645-.945.987-.1.106-.195.2-.286.311q-.587.686-1.126,1.449c-.09.127-.173.264-.261.394-.2.3-.4.589-.6.9l-1.909-3.237A13.34,13.34,0,0,1,646.966,1196.316Zm-4.389,19.47-.007-.181a1.033,1.033,0,0,0-1.724-.73,10.318,10.318,0,0,1-6.825,2.061,10.249,10.249,0,0,1,3.911-5.957,1.032,1.032,0,0,0-.208-1.864l-.164-.054a5.308,5.308,0,0,1,3.724-1.566c.753.965,3.136,4.157,3.851,5.159A5.337,5.337,0,0,1,642.577,1215.786Zm11.548-.146-2.5-2.681c.251-.067.489-.149.736-.223.183-.055.368-.107.547-.167.613-.2,1.21-.421,1.781-.67.032-.014.06-.031.092-.045.538-.238,1.052-.5,1.551-.782.161-.091.316-.187.472-.282.185-.111.378-.213.557-.331A13.213,13.213,0,0,1,654.125,1215.64Z" transform="translate(-631.717 -1191.803)" fill="#fff"/>
      <path id="Trazado_4180" data-name="Trazado 4180" d="M650,1198.581a4.3,4.3,0,0,0-1.142,1.277,4.345,4.345,0,0,0-.586,2.393,4.319,4.319,0,1,0,1.729-3.669Zm4.818,3.787a2.256,2.256,0,0,1-4.486-.217,2.257,2.257,0,0,1,.9-1.916,2.232,2.232,0,0,1,.582-.3c.041-.015.083-.031.124-.043a2.225,2.225,0,0,1,.6-.1c.053,0,.1,0,.157.007a2.443,2.443,0,0,1,.312.035c.059.012.117.028.175.044a2.2,2.2,0,0,1,.289.1c.054.023.109.046.162.074a2.358,2.358,0,0,1,.279.18c.042.032.087.058.128.093a2.19,2.19,0,0,1,.347.365A2.245,2.245,0,0,1,654.815,1202.368Z" transform="translate(-630.777 -1191.466)" fill="#fff"/>
    </g>
    <g id="Grupo_1717" data-name="Grupo 1717" transform="translate(559.566 1191.985)">
      <path id="Trazado_4181" data-name="Trazado 4181" d="M573.863,1214.78H555.9a1.851,1.851,0,0,1-1.849-1.849v-20.7a1.851,1.851,0,0,1,1.849-1.85h17.964a1.851,1.851,0,0,1,1.848,1.85v20.7A1.851,1.851,0,0,1,573.863,1214.78Zm-17.562-2.252H573.46v-19.893H556.3Z" transform="translate(-554.049 -1190.383)" fill="#fff"/>
      <path id="Trazado_4182" data-name="Trazado 4182" d="M576.2,1196.661h-5.585a1.126,1.126,0,0,1,0-2.252H576.2a1.126,1.126,0,0,1,0,2.252Z" transform="translate(-553.171 -1190.154)" fill="#fff"/>
      <path id="Trazado_4183" data-name="Trazado 4183" d="M576.2,1200.923h-5.585a1.126,1.126,0,1,1,0-2.251H576.2a1.126,1.126,0,1,1,0,2.251Z" transform="translate(-553.171 -1189.912)" fill="#fff"/>
      <path id="Trazado_4184" data-name="Trazado 4184" d="M576.2,1205.185h-5.585a1.126,1.126,0,0,1,0-2.252H576.2a1.126,1.126,0,0,1,0,2.252Z" transform="translate(-553.171 -1189.67)" fill="#fff"/>
      <path id="Trazado_4185" data-name="Trazado 4185" d="M576.2,1209.447h-5.585a1.125,1.125,0,1,1,0-2.251H576.2a1.125,1.125,0,1,1,0,2.251Z" transform="translate(-553.171 -1189.427)" fill="#fff"/>
    </g>
  </g>
</svg>
