<svg id="import_contacts-24px" xmlns="http://www.w3.org/2000/svg" width="24" height="24" viewBox="0 0 24 24">
  <g id="Grupo_1730" data-name="Grupo 1730">
    <rect id="Rectángulo_1437" data-name="Rectángulo 1437" width="24" height="24" fill="none"/>
  </g>
  <g id="Grupo_1733" data-name="Grupo 1733">
    <g id="Grupo_1732" data-name="Grupo 1732">
      <g id="Grupo_1731" data-name="Grupo 1731">
        <path id="Trazado_4196" data-name="Trazado 4196" d="M17.5,4.5A9.3,9.3,0,0,0,12,6,9.3,9.3,0,0,0,6.5,4.5,9.3,9.3,0,0,0,1,6V20.65c0,.65.73.45.75.45A12.205,12.205,0,0,1,6.5,20,9.3,9.3,0,0,1,12,21.5,12.045,12.045,0,0,1,17.5,20a10.178,10.178,0,0,1,4.75,1.05A.528.528,0,0,0,23,20.6V6A9.4,9.4,0,0,0,17.5,4.5Zm3.5,14a11.62,11.62,0,0,0-3.5-.5A12.045,12.045,0,0,0,12,19.5V8a12.045,12.045,0,0,1,5.5-1.5A11.62,11.62,0,0,1,21,7Z" fill="#fff"/>
      </g>
    </g>
  </g>
</svg>
