<svg id="8c758f41-d432-44b2-9e30-a6f04ec8d99b" data-name="85503825-e6e6-44d3-b734-e4e2be02e176" xmlns="http://www.w3.org/2000/svg" xmlns:xlink="http://www.w3.org/1999/xlink" viewBox="0 0 1231 308"><defs><style>.d3cbd0ea-3870-4798-810c-16514e4f8cd1{fill:none;}.da3f98e6-c14a-4780-90f2-f28a0a77269c{fill:#346eb5;}.\37 98932e2-eae5-45c7-ac6f-a952372b0ff3,.cefcd93e-7d67-4400-8dfa-c3d08ad82b7b{opacity:0.3;mix-blend-mode:multiply;}.cefcd93e-7d67-4400-8dfa-c3d08ad82b7b,.d56f0300-3390-43cf-a9f4-7b66528c573e{fill:#333;}.\35 4ef7ab6-2ed4-4cc7-aae5-de55c991ba83{fill:#fff;}.c1e35056-3470-4897-8105-f124e530dd45{fill:url(#3cd86cae-beae-4cad-ab18-64835fd2d54f);}.\36 1c46bdf-bb97-45dd-850c-3cccf70526cb{fill:url(#debaa5eb-410f-464a-a452-1cc698585f25);}.\32 020efc3-e846-424f-92b1-6e307bd0542e{fill:#ff931e;}.\32 ffffb9a-3934-4a8b-887b-9c15a1b26eb5{fill:#fbb03b;}</style><pattern id="3cd86cae-beae-4cad-ab18-64835fd2d54f" data-name="New Pattern Swatch 2" width="336.29" height="336.29" patternTransform="translate(124.89 183.52) scale(0.76)" patternUnits="userSpaceOnUse" viewBox="0 0 336.29 336.29"><rect class="d3cbd0ea-3870-4798-810c-16514e4f8cd1" width="336.29" height="336.29"/><rect class="da3f98e6-c14a-4780-90f2-f28a0a77269c" width="336.29" height="336.29"/><g class="798932e2-eae5-45c7-ac6f-a952372b0ff3"><path class="d56f0300-3390-43cf-a9f4-7b66528c573e" d="M192.19,120.61l-15.2-7a0.38,0.38,0,0,1-.21-0.57l7.11-15.5a1,1,0,0,0-.53-1.42l-3.8-1.74a1,1,0,0,0-1.42.53L171,110.43a0.38,0.38,0,0,1-.57.21l-15.2-7a1,1,0,0,0-1.42.53l-1.7,3.7a1,1,0,0,0,.53,1.42l15.2,7a0.38,0.38,0,0,1,.21.57L161.15,132a1,1,0,0,0,.53,1.42l3.8,1.74a1,1,0,0,0,1.42-.53l6.93-15.11a0.38,0.38,0,0,1,.57-0.21l15.2,7a1,1,0,0,0,1.42-.53l1.7-3.7A1,1,0,0,0,192.19,120.61Z"/></g><path class="cefcd93e-7d67-4400-8dfa-c3d08ad82b7b" d="M141.47,303.44a6.17,6.17,0,0,0-3.54-3.33,6.27,6.27,0,0,0-4.78-.15,6,6,0,0,0-3.36,3.36l-0.47,1.15A1.1,1.1,0,0,0,130,306l1.47,0.6a1.1,1.1,0,0,0,1.49-.63l0.4-1a2.69,2.69,0,0,1,1.33-1.58,2.22,2.22,0,0,1,1.87,0,2.36,2.36,0,0,1,1.41,1.33,2.72,2.72,0,0,1-.11,2.09c-0.46,1.14-1.82,2.45-4,3.91-3.29,2.11-6.28,4-8.91,5.59l-0.08.06a1.64,1.64,0,0,0-.52.67l-0.51,1.25a1.1,1.1,0,0,0,.63,1.49l10.08,4.11a1.21,1.21,0,0,0,.55.09,1.11,1.11,0,0,0,.94-0.72l0.49-1.19a1.11,1.11,0,0,0-.63-1.49L129.39,318c3.12-1.92,5.46-3.38,7-4.36,2.64-1.74,4.29-3.49,5-5.32A6.13,6.13,0,0,0,141.47,303.44Z"/><g class="798932e2-eae5-45c7-ac6f-a952372b0ff3"><path class="d56f0300-3390-43cf-a9f4-7b66528c573e" d="M15.65,197l4.15,2.22a1.3,1.3,0,0,0,1.09.07l13.49-6.11a0.3,0.3,0,0,1,.44.23l2.38,14.62a1.3,1.3,0,0,0,.66.86l4,2.15q0.66,0.35.84,0a0.84,0.84,0,0,0,0-.42l-3.3-19a0.46,0.46,0,0,1,.18-0.34l17.67-7.79a0.43,0.43,0,0,0,.33-0.44,0.79,0.79,0,0,0-.48-0.51L53,180.33a1.3,1.3,0,0,0-1.09-.07l-13.39,6.1a0.4,0.4,0,0,1-.25-0.06,0.4,0.4,0,0,1-.19-0.17l-2.41-14.56a1.31,1.31,0,0,0-.66-0.86l-4.08-2.19q-0.66-.35-0.84,0a0.82,0.82,0,0,0,0,.42l3.3,19a0.26,0.26,0,0,1-.18.34l-17.67,7.79a0.43,0.43,0,0,0-.33.44A0.78,0.78,0,0,0,15.65,197Z"/></g><g class="798932e2-eae5-45c7-ac6f-a952372b0ff3"><path class="d56f0300-3390-43cf-a9f4-7b66528c573e" d="M183.4,187.2l33.88,14.36a1.24,1.24,0,0,0,1.84-.74l2.3-5.43a1.24,1.24,0,0,0-.74-1.84L186.8,179.18a1.24,1.24,0,0,0-1.84.74l-2.3,5.43A1.24,1.24,0,0,0,183.4,187.2Z"/></g><g class="798932e2-eae5-45c7-ac6f-a952372b0ff3"><path class="d56f0300-3390-43cf-a9f4-7b66528c573e" d="M199.82,305.89l24.62,11a0.91,0.91,0,0,0,1.36-.52l1.76-3.95a0.91,0.91,0,0,0-.52-1.36l-24.62-11a0.91,0.91,0,0,0-1.36.52l-1.76,3.95A0.91,0.91,0,0,0,199.82,305.89Z"/><circle class="d56f0300-3390-43cf-a9f4-7b66528c573e" cx="219.12" cy="295.79" r="5.9" transform="translate(-101.64 115.19) rotate(-24.09)"/><circle class="d56f0300-3390-43cf-a9f4-7b66528c573e" cx="207.67" cy="321.38" r="5.9" transform="translate(-113.08 112.74) rotate(-24.09)"/></g><path class="cefcd93e-7d67-4400-8dfa-c3d08ad82b7b" d="M242.61,56.46L232.48,59.8s-3.85,4.66,1.83,6.7l10.39-4,2.13,28.75s0.88,5.07,4.94,1.91,25.35-39.42,25.35-39.42l42,16.25s6-2.42,2.87-7.41L275,44.39,252.24,81.33l-1.33-23.44A3.23,3.23,0,0,0,246.6,55Z"/><path class="cefcd93e-7d67-4400-8dfa-c3d08ad82b7b" d="M29.15,136l33-55.88,48.72,36.68Zm37-40L46.8,124l43.29-10.75Z"/><g class="798932e2-eae5-45c7-ac6f-a952372b0ff3"><path class="d56f0300-3390-43cf-a9f4-7b66528c573e" d="M306.06,234.18a12.8,12.8,0,1,1,2.37-18A12.8,12.8,0,0,1,306.06,234.18Zm-2.88-4.58A7.25,7.25,0,1,0,293,228.25,7.25,7.25,0,0,0,303.18,229.6Z"/><polygon class="d56f0300-3390-43cf-a9f4-7b66528c573e" points="308.61 217.11 306.86 214.83 311.77 211.07 313.51 213.35 308.61 217.11"/><path class="d56f0300-3390-43cf-a9f4-7b66528c573e" d="M288.11,231.81L245,256.4s-0.86-18.53,40.79-29.87Z"/><path class="d56f0300-3390-43cf-a9f4-7b66528c573e" d="M289.42,231.1l-35,35.23s17.67,5.64,39.45-31.63Z"/><polygon class="d56f0300-3390-43cf-a9f4-7b66528c573e" points="276 248.22 269.15 239.29 270.9 237.94 277.75 246.88 276 248.22"/><polygon class="d56f0300-3390-43cf-a9f4-7b66528c573e" points="312.32 216.89 308.11 211.4 313.72 207.11 317.93 212.6 312.32 216.89"/></g><path class="cefcd93e-7d67-4400-8dfa-c3d08ad82b7b" d="M197.56,264a28.72,28.72,0,1,1-12.13-38.78A28.74,28.74,0,0,1,197.56,264Zm-8.77-29.11a44.94,44.94,0,0,1-1.24,10.9l7.5,3.93A23.06,23.06,0,0,0,188.79,234.9ZM172.59,238l9.72,5.09a40.46,40.46,0,0,0,.42-12.62A40.46,40.46,0,0,0,172.59,238Zm-14.23,12a41.23,41.23,0,0,1,5.33-10.17l-8.6-4.51a22.47,22.47,0,0,0-5.33,10.17Zm-2.91,16.5a44.94,44.94,0,0,1,1.24-10.9l-7.5-3.93A22.94,22.94,0,0,0,155.45,266.46ZM175.61,228a22.94,22.94,0,0,0-15.76,3.28l7.5,3.93A44.94,44.94,0,0,1,175.61,228Zm-4,35.41-9.72-5.09a40.46,40.46,0,0,0-.42,12.62A40.46,40.46,0,0,0,171.64,263.4Zm6.83-9.39a41.89,41.89,0,0,0,2.26-5.3l-11.9-6.24a36.13,36.13,0,0,0-5.33,10.17l11.9,6.24A42.26,42.26,0,0,0,178.48,254Zm5.91,16.07-7.5-3.93a44.94,44.94,0,0,1-8.26,7.22A23.06,23.06,0,0,0,184.39,270.08Zm4.75-4a22.47,22.47,0,0,0,5.33-10.17l-8.6-4.51a41.23,41.23,0,0,1-5.33,10.17Z"/><path class="cefcd93e-7d67-4400-8dfa-c3d08ad82b7b" d="M326.66,290.61l-14.38,32.47a4,4,0,0,1-5.2,2l-18-8a3.94,3.94,0,0,1-2-5.2l14.38-32.47a3.94,3.94,0,0,1,5.19-2l18,8A3.94,3.94,0,0,1,326.66,290.61Zm-5.2,2-18-8-11.18,25.25,18,8Z"/><path class="cefcd93e-7d67-4400-8dfa-c3d08ad82b7b" d="M90.13,318.75L87.52,325,12.84,293.65l2.61-6.22,12.45,5.22a6.77,6.77,0,0,1-3.61-8.83L37.34,252.7a6.77,6.77,0,0,1,8.83-3.61L96,270a6.77,6.77,0,0,1,3.61,8.83l-13.08,31.1a6.74,6.74,0,0,1-8.8,3.63ZM30.51,286.42l49.79,20.88,13.05-31.12L43.56,255.31Z"/><g class="798932e2-eae5-45c7-ac6f-a952372b0ff3"><path class="d56f0300-3390-43cf-a9f4-7b66528c573e" d="M298,141.89l-17.36,37.49a6.64,6.64,0,0,1-8.7,3.56l-23.21-10.75a6.64,6.64,0,0,1-2.91-8.93l17.36-37.49a6.64,6.64,0,0,1,8.7-3.56L295.1,133A6.64,6.64,0,0,1,298,141.89Zm-30.9,31.22-7.74-3.58-1,2.08,7.74,3.58Zm27.52-32.78-28-13-15.43,33.32,28,13Z"/></g><path class="cefcd93e-7d67-4400-8dfa-c3d08ad82b7b" d="M191.38,32.86c-5.39,10-26.66,17.55-26.66,17.55s-5.36-21.93,0-31.92A15.13,15.13,0,0,1,191.38,32.86Zm-8.56-4.62a5.4,5.4,0,1,0-7.32,2.19A5.41,5.41,0,0,0,182.82,28.24Z"/><g class="798932e2-eae5-45c7-ac6f-a952372b0ff3"><path class="d56f0300-3390-43cf-a9f4-7b66528c573e" d="M44.84,34a12,12,0,0,1-1.57,9.75,3.34,3.34,0,0,0-.41,2.71l1,3.84a3.45,3.45,0,0,1-2.42,4.22L41,54.6a3.41,3.41,0,0,1-5.71,1.55l-0.47.13a3.45,3.45,0,0,1-4.22-2.42l-1-3.84a3.35,3.35,0,0,0-1.76-2.14,12,12,0,0,1,0-21.53,11.56,11.56,0,0,1,2.26-.86A12,12,0,0,1,44.84,34ZM40.13,49.5l-6.64,1.8L33.94,53l6.64-1.8Zm-0.9-3.32L32.59,48,33,49.64l6.64-1.8ZM36.9,35.38l-1.5-.86-2,3.42L30,36l-0.86,1.5L33,39.68,34.18,44l1.66-.45-1.17-4.3Z"/></g><g class="798932e2-eae5-45c7-ac6f-a952372b0ff3"><path class="d56f0300-3390-43cf-a9f4-7b66528c573e" d="M116.3,57.61a7.13,7.13,0,0,1-.71,3.71,7.34,7.34,0,0,1-2.5,2.91,7.26,7.26,0,0,1-3.56,1.25l-0.56,0a7.13,7.13,0,0,1-3.15-.73,7.25,7.25,0,0,1-4.1-6.07,7.33,7.33,0,0,1,.74-3.76,7.12,7.12,0,0,1,2.48-2.85,7.32,7.32,0,0,1,3.55-1.22,7.21,7.21,0,0,1,3.75.73,7.14,7.14,0,0,1,2.85,2.48h0A7.33,7.33,0,0,1,116.3,57.61Zm-4,2.11h0a3.61,3.61,0,0,0,.22-2.85,3.45,3.45,0,0,0-1.85-2.09,3.62,3.62,0,0,0-1.6-.39,3.69,3.69,0,0,0-1.21.21,3.57,3.57,0,0,0-2.13,1.92,3.75,3.75,0,0,0-.24,2.92,3.46,3.46,0,0,0,1.88,2.12,3.37,3.37,0,0,0,2.79.13A3.77,3.77,0,0,0,112.31,59.72Z"/><path class="d56f0300-3390-43cf-a9f4-7b66528c573e" d="M95.23,33.23a7.42,7.42,0,0,1,3.23-6.64A7.32,7.32,0,0,1,102,25.37a7.22,7.22,0,0,1,3.75.73,7.13,7.13,0,0,1,2.85,2.48,7.33,7.33,0,0,1,1.22,3.55,7.42,7.42,0,0,1-3.23,6.64A7.31,7.31,0,0,1,103.05,40l-0.56,0a7.12,7.12,0,0,1-3.15-.73,7.21,7.21,0,0,1-2.89-2.5A7.3,7.3,0,0,1,95.23,33.23ZM99,33.93a3.54,3.54,0,0,0,1.86,2.15,3.41,3.41,0,0,0,2.79.15A3.94,3.94,0,0,0,106,31.4a3.42,3.42,0,0,0-1.84-2.11,3.58,3.58,0,0,0-1.58-.39A3.75,3.75,0,0,0,99.24,31h0A3.72,3.72,0,0,0,99,33.93Z"/><path class="d56f0300-3390-43cf-a9f4-7b66528c573e" d="M122.28,35.14a1.15,1.15,0,0,0-.66-0.85l-1.33-.65a1.3,1.3,0,0,0-1.44.13L89.64,54.53a1.09,1.09,0,0,0-.51,1.09,1.15,1.15,0,0,0,.66.86l1.33,0.65a1.48,1.48,0,0,0,.65.16A1.24,1.24,0,0,0,92.55,57l29.22-20.76A1.09,1.09,0,0,0,122.28,35.14Z"/></g><path class="cefcd93e-7d67-4400-8dfa-c3d08ad82b7b" d="M310.22,23.65a9,9,0,1,1-9-9A9,9,0,0,1,310.22,23.65Zm-2.51,0a6.45,6.45,0,1,0-6.45,6.45A6.45,6.45,0,0,0,307.71,23.65Z"/><g id="8b9113fe-24ee-499a-be02-6fb91fcb5967" data-name="O2GW8N" class="798932e2-eae5-45c7-ac6f-a952372b0ff3"><path class="d56f0300-3390-43cf-a9f4-7b66528c573e" d="M125.39,179.83L117,176.16l-2.34,4.26c-2.92,5.28-5.79,10.6-8.79,15.84a22.72,22.72,0,0,1-5.47,6.91,4.93,4.93,0,0,1-7.85-2A4.38,4.38,0,0,1,94.21,196c1.73-1.15,3.57-2.15,5.3-3.31a31.33,31.33,0,0,0,9.21-9.64c1.56-2.5,2.88-5.16,4.31-7.74,0.25-.45.27-0.8-0.31-1a39.36,39.36,0,0,0-3.72-1.47,7.61,7.61,0,0,0-7,1.59c-0.19.15-.39,0.31-0.59,0.45-1.1.78-1.1,0.78-2.4-.11,2-1.94,3.95-3.9,6-5.76a6,6,0,0,1,5-1.45,14.19,14.19,0,0,1,3.28.66c4,1.47,7.94,2.94,11.83,4.59,5.48,2.31,10.89,4.78,16.33,7.18,0.25,0.11.49,0.25,0.83,0.41l-2.52,5.79-9.06-3.95c-0.64,1.3-1.2,2.55-1.84,3.74-2,3.79-4.18,7.51-6.09,11.35a27.62,27.62,0,0,0-2.32,6.37,4.49,4.49,0,0,0,6.13,5.16,9.72,9.72,0,0,0,2.49-2.15,4,4,0,0,0,.52-0.81L131,206.5c-0.5.82-.93,1.64-1.45,2.38a13.77,13.77,0,0,1-5.09,4.56,8.19,8.19,0,0,1-9.32-1.24,7.33,7.33,0,0,1-2-8.59,68.23,68.23,0,0,1,3.79-8c2.64-5,5.4-9.89,8.11-14.83C125.12,180.51,125.23,180.21,125.39,179.83Z"/></g></pattern><pattern id="debaa5eb-410f-464a-a452-1cc698585f25" data-name="New Pattern Swatch 2" width="336.29" height="336.29" patternTransform="translate(130.21 183.52) scale(0.76)" patternUnits="userSpaceOnUse" viewBox="0 0 336.29 336.29"><rect class="d3cbd0ea-3870-4798-810c-16514e4f8cd1" width="336.29" height="336.29"/><rect class="da3f98e6-c14a-4780-90f2-f28a0a77269c" width="336.29" height="336.29"/><g class="798932e2-eae5-45c7-ac6f-a952372b0ff3"><path class="d56f0300-3390-43cf-a9f4-7b66528c573e" d="M192.19,120.61l-15.2-7a0.38,0.38,0,0,1-.21-0.57l7.11-15.5a1,1,0,0,0-.53-1.42l-3.8-1.74a1,1,0,0,0-1.42.53L171,110.43a0.38,0.38,0,0,1-.57.21l-15.2-7a1,1,0,0,0-1.42.53l-1.7,3.7a1,1,0,0,0,.53,1.42l15.2,7a0.38,0.38,0,0,1,.21.57L161.15,132a1,1,0,0,0,.53,1.42l3.8,1.74a1,1,0,0,0,1.42-.53l6.93-15.11a0.38,0.38,0,0,1,.57-0.21l15.2,7a1,1,0,0,0,1.42-.53l1.7-3.7A1,1,0,0,0,192.19,120.61Z"/></g><path class="cefcd93e-7d67-4400-8dfa-c3d08ad82b7b" d="M141.47,303.44a6.17,6.17,0,0,0-3.54-3.33,6.27,6.27,0,0,0-4.78-.15,6,6,0,0,0-3.36,3.36l-0.47,1.15A1.1,1.1,0,0,0,130,306l1.47,0.6a1.1,1.1,0,0,0,1.49-.63l0.4-1a2.69,2.69,0,0,1,1.33-1.58,2.22,2.22,0,0,1,1.87,0,2.36,2.36,0,0,1,1.41,1.33,2.72,2.72,0,0,1-.11,2.09c-0.46,1.14-1.82,2.45-4,3.91-3.29,2.11-6.28,4-8.91,5.59l-0.08.06a1.64,1.64,0,0,0-.52.67l-0.51,1.25a1.1,1.1,0,0,0,.63,1.49l10.08,4.11a1.21,1.21,0,0,0,.55.09,1.11,1.11,0,0,0,.94-0.72l0.49-1.19a1.11,1.11,0,0,0-.63-1.49L129.39,318c3.12-1.92,5.46-3.38,7-4.36,2.64-1.74,4.29-3.49,5-5.32A6.13,6.13,0,0,0,141.47,303.44Z"/><g class="798932e2-eae5-45c7-ac6f-a952372b0ff3"><path class="d56f0300-3390-43cf-a9f4-7b66528c573e" d="M15.65,197l4.15,2.22a1.3,1.3,0,0,0,1.09.07l13.49-6.11a0.3,0.3,0,0,1,.44.23l2.38,14.62a1.3,1.3,0,0,0,.66.86l4,2.15q0.66,0.35.84,0a0.84,0.84,0,0,0,0-.42l-3.3-19a0.46,0.46,0,0,1,.18-0.34l17.67-7.79a0.43,0.43,0,0,0,.33-0.44,0.79,0.79,0,0,0-.48-0.51L53,180.33a1.3,1.3,0,0,0-1.09-.07l-13.39,6.1a0.4,0.4,0,0,1-.25-0.06,0.4,0.4,0,0,1-.19-0.17l-2.41-14.56a1.31,1.31,0,0,0-.66-0.86l-4.08-2.19q-0.66-.35-0.84,0a0.82,0.82,0,0,0,0,.42l3.3,19a0.26,0.26,0,0,1-.18.34l-17.67,7.79a0.43,0.43,0,0,0-.33.44A0.78,0.78,0,0,0,15.65,197Z"/></g><g class="798932e2-eae5-45c7-ac6f-a952372b0ff3"><path class="d56f0300-3390-43cf-a9f4-7b66528c573e" d="M183.4,187.2l33.88,14.36a1.24,1.24,0,0,0,1.84-.74l2.3-5.43a1.24,1.24,0,0,0-.74-1.84L186.8,179.18a1.24,1.24,0,0,0-1.84.74l-2.3,5.43A1.24,1.24,0,0,0,183.4,187.2Z"/></g><g class="798932e2-eae5-45c7-ac6f-a952372b0ff3"><path class="d56f0300-3390-43cf-a9f4-7b66528c573e" d="M199.82,305.89l24.62,11a0.91,0.91,0,0,0,1.36-.52l1.76-3.95a0.91,0.91,0,0,0-.52-1.36l-24.62-11a0.91,0.91,0,0,0-1.36.52l-1.76,3.95A0.91,0.91,0,0,0,199.82,305.89Z"/><circle class="d56f0300-3390-43cf-a9f4-7b66528c573e" cx="219.12" cy="295.79" r="5.9" transform="translate(-101.64 115.19) rotate(-24.09)"/><circle class="d56f0300-3390-43cf-a9f4-7b66528c573e" cx="207.67" cy="321.38" r="5.9" transform="translate(-113.08 112.74) rotate(-24.09)"/></g><path class="cefcd93e-7d67-4400-8dfa-c3d08ad82b7b" d="M242.61,56.46L232.48,59.8s-3.85,4.66,1.83,6.7l10.39-4,2.13,28.75s0.88,5.07,4.94,1.91,25.35-39.42,25.35-39.42l42,16.25s6-2.42,2.87-7.41L275,44.39,252.24,81.33l-1.33-23.44A3.23,3.23,0,0,0,246.6,55Z"/><path class="cefcd93e-7d67-4400-8dfa-c3d08ad82b7b" d="M29.15,136l33-55.88,48.72,36.68Zm37-40L46.8,124l43.29-10.75Z"/><g class="798932e2-eae5-45c7-ac6f-a952372b0ff3"><path class="d56f0300-3390-43cf-a9f4-7b66528c573e" d="M306.06,234.18a12.8,12.8,0,1,1,2.37-18A12.8,12.8,0,0,1,306.06,234.18Zm-2.88-4.58A7.25,7.25,0,1,0,293,228.25,7.25,7.25,0,0,0,303.18,229.6Z"/><polygon class="d56f0300-3390-43cf-a9f4-7b66528c573e" points="308.61 217.11 306.86 214.83 311.77 211.07 313.51 213.35 308.61 217.11"/><path class="d56f0300-3390-43cf-a9f4-7b66528c573e" d="M288.11,231.81L245,256.4s-0.86-18.53,40.79-29.87Z"/><path class="d56f0300-3390-43cf-a9f4-7b66528c573e" d="M289.42,231.1l-35,35.23s17.67,5.64,39.45-31.63Z"/><polygon class="d56f0300-3390-43cf-a9f4-7b66528c573e" points="276 248.22 269.15 239.29 270.9 237.94 277.75 246.88 276 248.22"/><polygon class="d56f0300-3390-43cf-a9f4-7b66528c573e" points="312.32 216.89 308.11 211.4 313.72 207.11 317.93 212.6 312.32 216.89"/></g><path class="cefcd93e-7d67-4400-8dfa-c3d08ad82b7b" d="M197.56,264a28.72,28.72,0,1,1-12.13-38.78A28.74,28.74,0,0,1,197.56,264Zm-8.77-29.11a44.94,44.94,0,0,1-1.24,10.9l7.5,3.93A23.06,23.06,0,0,0,188.79,234.9ZM172.59,238l9.72,5.09a40.46,40.46,0,0,0,.42-12.62A40.46,40.46,0,0,0,172.59,238Zm-14.23,12a41.23,41.23,0,0,1,5.33-10.17l-8.6-4.51a22.47,22.47,0,0,0-5.33,10.17Zm-2.91,16.5a44.94,44.94,0,0,1,1.24-10.9l-7.5-3.93A22.94,22.94,0,0,0,155.45,266.46ZM175.61,228a22.94,22.94,0,0,0-15.76,3.28l7.5,3.93A44.94,44.94,0,0,1,175.61,228Zm-4,35.41-9.72-5.09a40.46,40.46,0,0,0-.42,12.62A40.46,40.46,0,0,0,171.64,263.4Zm6.83-9.39a41.89,41.89,0,0,0,2.26-5.3l-11.9-6.24a36.13,36.13,0,0,0-5.33,10.17l11.9,6.24A42.26,42.26,0,0,0,178.48,254Zm5.91,16.07-7.5-3.93a44.94,44.94,0,0,1-8.26,7.22A23.06,23.06,0,0,0,184.39,270.08Zm4.75-4a22.47,22.47,0,0,0,5.33-10.17l-8.6-4.51a41.23,41.23,0,0,1-5.33,10.17Z"/><path class="cefcd93e-7d67-4400-8dfa-c3d08ad82b7b" d="M326.66,290.61l-14.38,32.47a4,4,0,0,1-5.2,2l-18-8a3.94,3.94,0,0,1-2-5.2l14.38-32.47a3.94,3.94,0,0,1,5.19-2l18,8A3.94,3.94,0,0,1,326.66,290.61Zm-5.2,2-18-8-11.18,25.25,18,8Z"/><path class="cefcd93e-7d67-4400-8dfa-c3d08ad82b7b" d="M90.13,318.75L87.52,325,12.84,293.65l2.61-6.22,12.45,5.22a6.77,6.77,0,0,1-3.61-8.83L37.34,252.7a6.77,6.77,0,0,1,8.83-3.61L96,270a6.77,6.77,0,0,1,3.61,8.83l-13.08,31.1a6.74,6.74,0,0,1-8.8,3.63ZM30.51,286.42l49.79,20.88,13.05-31.12L43.56,255.31Z"/><g class="798932e2-eae5-45c7-ac6f-a952372b0ff3"><path class="d56f0300-3390-43cf-a9f4-7b66528c573e" d="M298,141.89l-17.36,37.49a6.64,6.64,0,0,1-8.7,3.56l-23.21-10.75a6.64,6.64,0,0,1-2.91-8.93l17.36-37.49a6.64,6.64,0,0,1,8.7-3.56L295.1,133A6.64,6.64,0,0,1,298,141.89Zm-30.9,31.22-7.74-3.58-1,2.08,7.74,3.58Zm27.52-32.78-28-13-15.43,33.32,28,13Z"/></g><path class="cefcd93e-7d67-4400-8dfa-c3d08ad82b7b" d="M191.38,32.86c-5.39,10-26.66,17.55-26.66,17.55s-5.36-21.93,0-31.92A15.13,15.13,0,0,1,191.38,32.86Zm-8.56-4.62a5.4,5.4,0,1,0-7.32,2.19A5.41,5.41,0,0,0,182.82,28.24Z"/><g class="798932e2-eae5-45c7-ac6f-a952372b0ff3"><path class="d56f0300-3390-43cf-a9f4-7b66528c573e" d="M44.84,34a12,12,0,0,1-1.57,9.75,3.34,3.34,0,0,0-.41,2.71l1,3.84a3.45,3.45,0,0,1-2.42,4.22L41,54.6a3.41,3.41,0,0,1-5.71,1.55l-0.47.13a3.45,3.45,0,0,1-4.22-2.42l-1-3.84a3.35,3.35,0,0,0-1.76-2.14,12,12,0,0,1,0-21.53,11.56,11.56,0,0,1,2.26-.86A12,12,0,0,1,44.84,34ZM40.13,49.5l-6.64,1.8L33.94,53l6.64-1.8Zm-0.9-3.32L32.59,48,33,49.64l6.64-1.8ZM36.9,35.38l-1.5-.86-2,3.42L30,36l-0.86,1.5L33,39.68,34.18,44l1.66-.45-1.17-4.3Z"/></g><g class="798932e2-eae5-45c7-ac6f-a952372b0ff3"><path class="d56f0300-3390-43cf-a9f4-7b66528c573e" d="M116.3,57.61a7.13,7.13,0,0,1-.71,3.71,7.34,7.34,0,0,1-2.5,2.91,7.26,7.26,0,0,1-3.56,1.25l-0.56,0a7.13,7.13,0,0,1-3.15-.73,7.25,7.25,0,0,1-4.1-6.07,7.33,7.33,0,0,1,.74-3.76,7.12,7.12,0,0,1,2.48-2.85,7.32,7.32,0,0,1,3.55-1.22,7.21,7.21,0,0,1,3.75.73,7.14,7.14,0,0,1,2.85,2.48h0A7.33,7.33,0,0,1,116.3,57.61Zm-4,2.11h0a3.61,3.61,0,0,0,.22-2.85,3.45,3.45,0,0,0-1.85-2.09,3.62,3.62,0,0,0-1.6-.39,3.69,3.69,0,0,0-1.21.21,3.57,3.57,0,0,0-2.13,1.92,3.75,3.75,0,0,0-.24,2.92,3.46,3.46,0,0,0,1.88,2.12,3.37,3.37,0,0,0,2.79.13A3.77,3.77,0,0,0,112.31,59.72Z"/><path class="d56f0300-3390-43cf-a9f4-7b66528c573e" d="M95.23,33.23a7.42,7.42,0,0,1,3.23-6.64A7.32,7.32,0,0,1,102,25.37a7.22,7.22,0,0,1,3.75.73,7.13,7.13,0,0,1,2.85,2.48,7.33,7.33,0,0,1,1.22,3.55,7.42,7.42,0,0,1-3.23,6.64A7.31,7.31,0,0,1,103.05,40l-0.56,0a7.12,7.12,0,0,1-3.15-.73,7.21,7.21,0,0,1-2.89-2.5A7.3,7.3,0,0,1,95.23,33.23ZM99,33.93a3.54,3.54,0,0,0,1.86,2.15,3.41,3.41,0,0,0,2.79.15A3.94,3.94,0,0,0,106,31.4a3.42,3.42,0,0,0-1.84-2.11,3.58,3.58,0,0,0-1.58-.39A3.75,3.75,0,0,0,99.24,31h0A3.72,3.72,0,0,0,99,33.93Z"/><path class="d56f0300-3390-43cf-a9f4-7b66528c573e" d="M122.28,35.14a1.15,1.15,0,0,0-.66-0.85l-1.33-.65a1.3,1.3,0,0,0-1.44.13L89.64,54.53a1.09,1.09,0,0,0-.51,1.09,1.15,1.15,0,0,0,.66.86l1.33,0.65a1.48,1.48,0,0,0,.65.16A1.24,1.24,0,0,0,92.55,57l29.22-20.76A1.09,1.09,0,0,0,122.28,35.14Z"/></g><path class="cefcd93e-7d67-4400-8dfa-c3d08ad82b7b" d="M310.22,23.65a9,9,0,1,1-9-9A9,9,0,0,1,310.22,23.65Zm-2.51,0a6.45,6.45,0,1,0-6.45,6.45A6.45,6.45,0,0,0,307.71,23.65Z"/><g id="4bc1dcec-750d-4d82-b627-5301ebea0238" data-name="O2GW8N" class="798932e2-eae5-45c7-ac6f-a952372b0ff3"><path class="d56f0300-3390-43cf-a9f4-7b66528c573e" d="M125.39,179.83L117,176.16l-2.34,4.26c-2.92,5.28-5.79,10.6-8.79,15.84a22.72,22.72,0,0,1-5.47,6.91,4.93,4.93,0,0,1-7.85-2A4.38,4.38,0,0,1,94.21,196c1.73-1.15,3.57-2.15,5.3-3.31a31.33,31.33,0,0,0,9.21-9.64c1.56-2.5,2.88-5.16,4.31-7.74,0.25-.45.27-0.8-0.31-1a39.36,39.36,0,0,0-3.72-1.47,7.61,7.61,0,0,0-7,1.59c-0.19.15-.39,0.31-0.59,0.45-1.1.78-1.1,0.78-2.4-.11,2-1.94,3.95-3.9,6-5.76a6,6,0,0,1,5-1.45,14.19,14.19,0,0,1,3.28.66c4,1.47,7.94,2.94,11.83,4.59,5.48,2.31,10.89,4.78,16.33,7.18,0.25,0.11.49,0.25,0.83,0.41l-2.52,5.79-9.06-3.95c-0.64,1.3-1.2,2.55-1.84,3.74-2,3.79-4.18,7.51-6.09,11.35a27.62,27.62,0,0,0-2.32,6.37,4.49,4.49,0,0,0,6.13,5.16,9.72,9.72,0,0,0,2.49-2.15,4,4,0,0,0,.52-0.81L131,206.5c-0.5.82-.93,1.64-1.45,2.38a13.77,13.77,0,0,1-5.09,4.56,8.19,8.19,0,0,1-9.32-1.24,7.33,7.33,0,0,1-2-8.59,68.23,68.23,0,0,1,3.79-8c2.64-5,5.4-9.89,8.11-14.83C125.12,180.51,125.23,180.21,125.39,179.83Z"/></g></pattern></defs><title>Logo_Matematia</title><path class="54ef7ab6-2ed4-4cc7-aae5-de55c991ba83" d="M1122.18,214.9l-40-145.49c-5.26-20.22-23.24-26.23-44.29-26.23h-13.94a45.61,45.61,0,0,0-30.42,11.48,5.69,5.69,0,0,1-7.57,0,45.7,45.7,0,0,0-30.61-11.47H944.23a46.87,46.87,0,0,0-15.46,2.59,46.89,46.89,0,0,0-15.46-2.59H826.42A46.17,46.17,0,0,0,803.68,49a45.85,45.85,0,0,0-22.55-5.87H767.19A45.6,45.6,0,0,0,736.36,55a5,5,0,0,1-6.78,0,45.13,45.13,0,0,0-30.77-11.82H687.49A45.84,45.84,0,0,0,656.23,55.3a6.9,6.9,0,0,1-9.35,0,45.85,45.85,0,0,0-31.25-12.13H604.3a46.86,46.86,0,0,0-16.45,2.94,46.62,46.62,0,0,0-16.43-2.94H491.93a46.87,46.87,0,0,0-15.47,2.63A46.15,46.15,0,0,0,461,43.17H374.12A46.67,46.67,0,0,0,353.46,48a4.6,4.6,0,0,1-4.1,0,45.91,45.91,0,0,0-20.54-4.81H314.89a45.59,45.59,0,0,0-31.47,12.44,3.94,3.94,0,0,1-5.43,0,45.27,45.27,0,0,0-31.48-12.42H235.19A46.52,46.52,0,0,0,203.9,55.38a6.85,6.85,0,0,1-9.27,0,45.85,45.85,0,0,0-31.31-12.18H152c-25.53,0-45.53,12-45.53,37.43V228.69c0,25.32,20,36.14,45.53,36.14h11.11a45.18,45.18,0,0,0,30.3-11.38,8.68,8.68,0,0,1,11.6,0,45.39,45.39,0,0,0,30.4,11.39h11.11a47,47,0,0,0,13.53-2,47.11,47.11,0,0,0,13.69,2h11.32a45.69,45.69,0,0,0,32.2-13.08,6.41,6.41,0,0,1,9,0,45.66,45.66,0,0,0,32.18,13.07H370a46.63,46.63,0,0,0,20.66-4.75,46.85,46.85,0,0,0,20.71,4.75h11.11a46.06,46.06,0,0,0,30.25-11,6.92,6.92,0,0,1,9,0,46,46,0,0,0,30.24,11h79.48a47.36,47.36,0,0,0,16.46-2.92,47.1,47.1,0,0,0,16.42,2.92h11.11a46.44,46.44,0,0,0,28-9.16,13.84,13.84,0,0,1,16.58,0,45.75,45.75,0,0,0,27.71,9.12h11.11a46.76,46.76,0,0,0,13.51-2,47.11,47.11,0,0,0,13.71,2h11.32a45.79,45.79,0,0,0,28.81-10.06,12.57,12.57,0,0,1,15.78,0,45.76,45.76,0,0,0,28.8,10.06h11.54a46.93,46.93,0,0,0,17.07-3.17,9.84,9.84,0,0,1,7.14,0,47.37,47.37,0,0,0,17.17,3.17h11.11A45.89,45.89,0,0,0,905,253.77a6.77,6.77,0,0,1,8.89,0,46.21,46.21,0,0,0,30.36,11.06h11.11a47.46,47.46,0,0,0,13.68-2,47.1,47.1,0,0,0,13.76,2H994.1a45.74,45.74,0,0,0,30.52-11.51,9.32,9.32,0,0,1,12.35,0,45.71,45.71,0,0,0,30.51,11.51H1079c25.51,0,45.5-10.71,45.5-35.88A43.31,43.31,0,0,0,1122.18,214.9Z"/><path class="c1e35056-3470-4897-8105-f124e530dd45" d="M242.33,69H231a12.45,12.45,0,0,0-10.34,5.28l-0.26.26-25.16,43.34L169.73,74.43l-0.25-.15A12.48,12.48,0,0,0,159.15,69H147.82C141.16,69,136,73.58,136,80.24V228.32A11.54,11.54,0,0,0,147.82,240h11.11A11.75,11.75,0,0,0,171,228.32V142.95l12.58,21.94,0.15,0.48A12.62,12.62,0,0,0,194,171h2.4a12.8,12.8,0,0,0,10.34-5.62l0.5-.44L220,143.07v85.25C220,235,224.57,240,231.23,240h11.11A11.41,11.41,0,0,0,254,228.32V80.24C254,73.58,249,69,242.33,69Z"/><path class="61c46bdf-bb97-45dd-850c-3cccf70526cb" d="M341.56,77.88A11.56,11.56,0,0,0,330,69H316a11.56,11.56,0,0,0-11.6,8.88L263.75,225.7l-0.15.59A11.26,11.26,0,0,0,274.87,240H286.2a11.83,11.83,0,0,0,11.61-9.24L303.27,210h39.24L348,230.76A11.82,11.82,0,0,0,359.58,240h11.54c6.66,0,11.87-4.83,11.87-11.24v-1.54l-0.72-1.77ZM306.3,181h0Zm16.52-45.14L334.2,179H311.55Z"/><path class="61c46bdf-bb97-45dd-850c-3cccf70526cb" d="M462.15,69H375.26C368.61,69,364,73.58,364,80.24v9.15C364,96,368.61,102,375.26,102H401V228.32A11.28,11.28,0,0,0,412.5,240h11.11c6.66,0,12.39-5,12.39-11.68V102h26.15c6.66,0,11.85-6,11.85-12.61V80.24C474,73.58,468.81,69,462.15,69Z"/><path class="61c46bdf-bb97-45dd-850c-3cccf70526cb" d="M572.56,69H493.07C486.42,69,481,73.58,481,80.24V228.32A11.75,11.75,0,0,0,493.07,240h79.48c6.66,0,12.44-5,12.44-11.68v-9.15c0-6.66-5.78-11.18-12.44-11.18H516V171h35.22c6.66,0,12.78-5.71,12.78-12.36v-9.15c0-6.66-6.13-11.49-12.78-11.49H516V102h56.56c6.66,0,12.44-6,12.44-12.61V80.24C585,73.58,579.22,69,572.56,69Z"/><path class="61c46bdf-bb97-45dd-850c-3cccf70526cb" d="M700,69H688.63a12.46,12.46,0,0,0-10.34,5.28l-0.26.26-25.16,43.34L627.35,74.43l-0.25-.15A12.48,12.48,0,0,0,616.76,69H605.44C598.78,69,594,73.58,594,80.24V228.32C594,235,598.78,240,605.44,240h11.11c6.66,0,12.45-5,12.45-11.68V142.95l12.39,21.94,0.06,0.48A12.45,12.45,0,0,0,651.61,171H654a12.8,12.8,0,0,0,10.34-5.62l0.69-.45,13-21.87v85.25C678,235,682.19,240,688.85,240H700a11.73,11.73,0,0,0,12-11.68V80.24C712,73.58,706.61,69,700,69Z"/><path class="61c46bdf-bb97-45dd-850c-3cccf70526cb" d="M793.86,77.88A11.56,11.56,0,0,0,782.27,69H768.33a11.56,11.56,0,0,0-11.6,8.88L716.05,225.7l-0.15.59A11.26,11.26,0,0,0,727.17,240H738.5a11.83,11.83,0,0,0,11.61-9.24L755.57,210h39.24l5.46,20.75A11.82,11.82,0,0,0,811.88,240h11.54c6.66,0,12.57-4.83,12.57-11.24v-1.54l-1.07-1.77Zm-18.74,58L786.5,179H763.85Z"/><path class="61c46bdf-bb97-45dd-850c-3cccf70526cb" d="M914.45,69H827.56C820.91,69,816,73.58,816,80.24v9.15C816,96,820.91,102,827.56,102H853V228.32A11.52,11.52,0,0,0,864.8,240h11.11A11.77,11.77,0,0,0,888,228.32V102h26.45A13,13,0,0,0,927,89.39V80.24C927,73.58,921.11,69,914.45,69Z"/><rect class="2020efc3-e846-424f-92b1-6e307bd0542e" x="934" y="69" width="34" height="172" rx="11.68" ry="11.68"/><path class="2ffffb9a-3934-4a8b-887b-9c15a1b26eb5" d="M1096.08,225.34L1055.32,77.88A11.73,11.73,0,0,0,1043.57,69h-13.94a11.56,11.56,0,0,0-11.6,8.88L977.36,225.7l-0.15.59A11.26,11.26,0,0,0,988.48,240H999.8a11.83,11.83,0,0,0,11.61-9.24l5.46-20.76h39.24l5.46,20.76a11.82,11.82,0,0,0,11.61,9.24h11.54c6.66,0,12.27-4.83,12.27-11.24v-1.54ZM1019.91,181h0Zm16.52-45.14L1047.8,179h-22.65Z"/></svg>