<svg id="b471eed6-7f64-4def-b7d5-188d41af2c90" data-name="Layer 1" xmlns="http://www.w3.org/2000/svg" viewBox="0 0 1024 200"><defs><style>.a741b959-d8b5-4b91-9372-dc070b8b1196{fill:#fff;}.\30 7560b10-3d9b-4649-b2f2-9e18531b544f{fill:#7adfc3;}</style></defs><title>MatematiaInicio</title><path class="a741b959-d8b5-4b91-9372-dc070b8b1196" d="M99.05,29.06h23.51A2.42,2.42,0,0,1,125,31.5v137a2.42,2.42,0,0,1-2.43,2.43H98.85a2.42,2.42,0,0,1-2.43-2.43v-90a0.65,0.65,0,1,0-1.22-.4L76.56,108.92a2.9,2.9,0,0,1-2.84,1.62H69.06a2.9,2.9,0,0,1-2.84-1.62L47.57,78.11a0.81,0.81,0,0,0-.81-0.51,0.81,0.81,0,0,0-.41.91v90a2.42,2.42,0,0,1-2.43,2.43H20.21a2.42,2.42,0,0,1-2.43-2.43V31.5a2.42,2.42,0,0,1,2.43-2.43H43.72a2.91,2.91,0,0,1,2.84,1.62L70.88,70.61q0.61,1.22,1.22,0L96.21,30.69A2.9,2.9,0,0,1,99.05,29.06Z"/><path class="a741b959-d8b5-4b91-9372-dc070b8b1196" d="M218.23,168.91L213.56,149a1,1,0,0,0-1-.81h-37.9a1,1,0,0,0-1,.81L169,168.91a2.55,2.55,0,0,1-2.63,2H141.82q-2.64,0-2-2.63L176.27,31.09a2.67,2.67,0,0,1,2.84-2H208.5a2.67,2.67,0,0,1,2.84,2L247.82,168.3l0.2,0.81q0,1.82-2.23,1.82H221.06A2.67,2.67,0,0,1,218.23,168.91Zm-38.91-43.07a1.34,1.34,0,0,0,.81.3h26.75a1.35,1.35,0,0,0,.81-0.3,0.74,0.74,0,0,0,.2-0.91l-14-58.78a0.63,0.63,0,1,0-1.22,0l-13.58,58.78A0.74,0.74,0,0,0,179.31,125.84Z"/><path class="a741b959-d8b5-4b91-9372-dc070b8b1196" d="M338.11,29.77a2.35,2.35,0,0,1,.71,1.72V51.36a2.42,2.42,0,0,1-2.43,2.43H305.58a0.9,0.9,0,0,0-1,1v113.7a2.42,2.42,0,0,1-2.43,2.43H278.42a2.42,2.42,0,0,1-2.43-2.43V54.8a0.9,0.9,0,0,0-1-1H245.18a2.42,2.42,0,0,1-2.43-2.43V31.5a2.43,2.43,0,0,1,2.43-2.43h91.2A2.35,2.35,0,0,1,338.11,29.77Z"/><path class="a741b959-d8b5-4b91-9372-dc070b8b1196" d="M440.46,52.88a2.34,2.34,0,0,1-1.72.71H384.42a0.89,0.89,0,0,0-1,1V86.22a0.89,0.89,0,0,0,1,1h33.85a2.42,2.42,0,0,1,2.43,2.43v19.66a2.42,2.42,0,0,1-2.43,2.43H384.42a0.89,0.89,0,0,0-1,1V145.4a0.89,0.89,0,0,0,1,1h54.32a2.42,2.42,0,0,1,2.43,2.43v19.66a2.42,2.42,0,0,1-2.43,2.43H357.26a2.42,2.42,0,0,1-2.43-2.43V31.5a2.43,2.43,0,0,1,2.43-2.43h81.48a2.42,2.42,0,0,1,2.43,2.43V51.15A2.34,2.34,0,0,1,440.46,52.88Z"/><path class="a741b959-d8b5-4b91-9372-dc070b8b1196" d="M539.26,29.06h23.51a2.43,2.43,0,0,1,2.43,2.43v137a2.42,2.42,0,0,1-2.43,2.43H539.06a2.42,2.42,0,0,1-2.43-2.43v-90a0.65,0.65,0,1,0-1.22-.4l-18.65,30.81a2.91,2.91,0,0,1-2.84,1.62h-4.66a2.9,2.9,0,0,1-2.84-1.62L487.78,78.11A0.82,0.82,0,0,0,487,77.6a0.81,0.81,0,0,0-.41.91v90a2.42,2.42,0,0,1-2.43,2.43H460.42a2.42,2.42,0,0,1-2.43-2.43V31.5a2.43,2.43,0,0,1,2.43-2.43h23.51a2.91,2.91,0,0,1,2.84,1.62l24.32,39.93q0.61,1.22,1.22,0l24.12-39.93A2.9,2.9,0,0,1,539.26,29.06Z"/><path class="a741b959-d8b5-4b91-9372-dc070b8b1196" d="M658.43,168.91L653.77,149a1,1,0,0,0-1-.81h-37.9a1,1,0,0,0-1,.81l-4.66,19.86a2.55,2.55,0,0,1-2.63,2H582q-2.64,0-2-2.63L616.48,31.09a2.67,2.67,0,0,1,2.84-2H648.7a2.67,2.67,0,0,1,2.84,2L688,168.3l0.2,0.81q0,1.82-2.23,1.82H661.27A2.67,2.67,0,0,1,658.43,168.91Zm-38.91-43.07a1.34,1.34,0,0,0,.81.3h26.75a1.35,1.35,0,0,0,.81-0.3,0.74,0.74,0,0,0,.2-0.91l-14-58.78a0.63,0.63,0,1,0-1.22,0l-13.58,58.78A0.74,0.74,0,0,0,619.52,125.84Z"/><path class="a741b959-d8b5-4b91-9372-dc070b8b1196" d="M778.32,29.77A2.35,2.35,0,0,1,779,31.5V51.36a2.42,2.42,0,0,1-2.43,2.43H745.79a0.9,0.9,0,0,0-1,1v113.7a2.42,2.42,0,0,1-2.43,2.43H718.63a2.42,2.42,0,0,1-2.43-2.43V54.8a0.9,0.9,0,0,0-1-1H685.39A2.42,2.42,0,0,1,683,51.36V31.5a2.42,2.42,0,0,1,2.43-2.43h91.2A2.35,2.35,0,0,1,778.32,29.77Z"/><path class="07560b10-3d9b-4649-b2f2-9e18531b544f" d="M774.67,122.6a2.33,2.33,0,0,1-.71-1.72V101.22a2.42,2.42,0,0,1,2.43-2.43H836a2.42,2.42,0,0,1,2.43,2.43v19.66a2.42,2.42,0,0,1-2.43,2.43H776.39A2.33,2.33,0,0,1,774.67,122.6Z"/><path class="a741b959-d8b5-4b91-9372-dc070b8b1196" d="M855.13,170.23a2.34,2.34,0,0,1-.71-1.72V31.5a2.42,2.42,0,0,1,2.43-2.43h23.71A2.42,2.42,0,0,1,883,31.5v137a2.42,2.42,0,0,1-2.43,2.43H856.85A2.33,2.33,0,0,1,855.13,170.23Z"/><path class="a741b959-d8b5-4b91-9372-dc070b8b1196" d="M976.43,168.91L971.77,149a1,1,0,0,0-1-.81h-37.9a1,1,0,0,0-1,.81l-4.66,19.86a2.55,2.55,0,0,1-2.63,2H900q-2.64,0-2-2.63L934.47,31.09a2.67,2.67,0,0,1,2.84-2H966.7a2.67,2.67,0,0,1,2.84,2L1006,168.3l0.2,0.81q0,1.82-2.23,1.82H979.26A2.67,2.67,0,0,1,976.43,168.91Zm-38.91-43.07a1.34,1.34,0,0,0,.81.3h26.75a1.35,1.35,0,0,0,.81-0.3,0.74,0.74,0,0,0,.2-0.91l-14-58.78a0.63,0.63,0,1,0-1.22,0l-13.58,58.78A0.74,0.74,0,0,0,937.51,125.84Z"/></svg>