<svg id="coin" xmlns="http://www.w3.org/2000/svg" width="70.576" height="73.097" viewBox="0 0 70.576 73.097">
  <path id="Trazado_1257" data-name="Trazado 1257" d="M407.359,226.816a31,31,0,0,0,6.4-18.816v7.562a31,31,0,0,1-6.3,18.677V226.9Zm0,0" transform="translate(-343.185 -175.232)" fill="#ce893d"/>
  <path id="Trazado_1258" data-name="Trazado 1258" d="M373.966,327.529v7.335a33.362,33.362,0,0,1-6.3,6.415v-7.449l-.063-.076a33.408,33.408,0,0,0,6.263-6.314Zm0,0" transform="translate(-309.691 -275.857)" fill="#e6a71e"/>
  <path id="Trazado_1259" data-name="Trazado 1259" d="M35.288,0C54.772,0,70.576,14.67,70.576,32.768a31,31,0,0,1-6.4,18.816A33.4,33.4,0,0,1,57.911,57.9a34.071,34.071,0,0,1-6.239,3.894A36.712,36.712,0,0,1,44.11,64.5a38.174,38.174,0,0,1-17.644,0,36.712,36.712,0,0,1-7.562-2.71A34.091,34.091,0,0,1,12.666,57.9,33.4,33.4,0,0,1,6.4,51.584,31,31,0,0,1,0,32.768C0,14.67,15.8,0,35.288,0Zm0,0" transform="translate(0 0)" fill="#ffcb5a"/>
  <path id="Trazado_1260" data-name="Trazado 1260" d="M334.3,367.6v7.449a34.2,34.2,0,0,1-6.289,3.919l-.012-.025v-7.524a34.068,34.068,0,0,0,6.239-3.894Zm0,0" transform="translate(-276.328 -309.622)" fill="#ce893d"/>
  <path id="Trazado_1261" data-name="Trazado 1261" d="M287.562,399.762l.012.025a36.356,36.356,0,0,1-7.524,2.71l-.05-.214v-7.335a36.714,36.714,0,0,0,7.562-2.71Zm0,0" transform="translate(-235.89 -330.446)" fill="#e6a71e"/>
  <path id="Trazado_1262" data-name="Trazado 1262" d="M232.872,416.99A37.988,37.988,0,0,1,224,418.036v-7.562a37.6,37.6,0,0,0,8.822-1.033v7.335Zm0,0" transform="translate(-188.712 -344.939)" fill="#ce893d"/>
  <path id="Trazado_1263" data-name="Trazado 1263" d="M176.552,410.475v7.562a37.992,37.992,0,0,1-8.872-1.046l.05-.214v-7.335A37.6,37.6,0,0,0,176.552,410.475Zm0,0" transform="translate(-141.264 -344.939)" fill="#e6a71e"/>
  <path id="Trazado_1264" data-name="Trazado 1264" d="M127.5,394.948v7.335l-.05.214a36.358,36.358,0,0,1-7.524-2.71l.012-.025v-7.524A36.715,36.715,0,0,0,127.5,394.948Zm0,0" transform="translate(-101.03 -330.446)" fill="#ce893d"/>
  <path id="Trazado_1265" data-name="Trazado 1265" d="M80.063,367.52a34.086,34.086,0,0,0,6.239,3.894v7.524l-.012.025A34.885,34.885,0,0,1,80,375.044V367.6Zm0,0" transform="translate(-67.397 -309.622)" fill="#e6a71e"/>
  <path id="Trazado_1266" data-name="Trazado 1266" d="M40.1,327.441a33.4,33.4,0,0,0,6.263,6.314l-.063.076v7.449a33.365,33.365,0,0,1-6.3-6.415v-7.335Zm0,0" transform="translate(-33.699 -275.857)" fill="#ce893d"/>
  <path id="Trazado_1267" data-name="Trazado 1267" d="M0,208a31,31,0,0,0,6.4,18.816l-.1.088v7.335A31,31,0,0,1,0,215.562Zm0,0" transform="translate(0 -175.232)" fill="#e6a71e"/>
  <path id="Trazado_1268" data-name="Trazado 1268" d="M103.453,73.206C103.453,59.285,91.039,48,75.726,48S48,59.285,48,73.206,60.413,98.412,75.726,98.412,103.453,87.127,103.453,73.206Zm0,0" transform="translate(-40.438 -40.438)" fill="#e6a71e"/>
  <g id="Grupo_611" data-name="Grupo 611" transform="translate(11.343 11.343)">
    <path id="Trazado_1269" data-name="Trazado 1269" d="M324.731,266.718l-1.723-1.838a19.167,19.167,0,0,0,3.7-4.729l2.208,1.212A21.554,21.554,0,0,1,324.731,266.718Zm0,0" transform="translate(-283.465 -230.511)" fill="#ffcb5a"/>
    <path id="Trazado_1270" data-name="Trazado 1270" d="M95.946,114.85C82.741,114.85,72,105.239,72,93.425S82.741,72,95.946,72s23.946,9.611,23.946,21.425H117.37c0-10.424-9.611-18.9-21.425-18.9S74.521,83,74.521,93.425s9.611,18.9,21.425,18.9A23.331,23.331,0,0,0,107.9,109.1l1.291,2.167A25.86,25.86,0,0,1,95.946,114.85Zm0,0" transform="translate(-72 -72)" fill="#ffcb5a"/>
  </g>
</svg>
