<svg xmlns="http://www.w3.org/2000/svg" xmlns:xlink="http://www.w3.org/1999/xlink" viewBox="0 0 1920 1080"><defs><style>.\34 8e3aabf-377a-4c18-96d3-c2aa84e817fa{fill:none;}.eea2a76b-7265-4a61-b774-c05aef264219{fill:#1a1a1a;}.\33 0faf12f-6ba8-4af4-a9c7-d7b0507cc8d0,.\39 e2f4854-33ed-4d35-b289-41761a49d825{isolation:isolate;}.\31 f4abc0b-c1fc-45c6-b125-380295727a59{opacity:0.3;}.\31 f4abc0b-c1fc-45c6-b125-380295727a59,.\31 fc83164-4603-4f65-9522-34d500e5b39f,.d37340c2-3c81-4be4-9153-81849b7ddf9e{mix-blend-mode:multiply;}.c4efe3c6-564d-4380-9dff-ff85077f5477{fill:#333;}.\36 03dc36a-e5ff-406d-9abd-434bcd8b9d2a,.a1114283-6267-4be6-8a62-0e7bf9059bf1{fill:#fff;}.f4bc2d76-8366-4234-b898-f81ae7fad2a8{fill:#00a99d;}.d0e96427-af47-4085-8cc2-dffa397bc708{opacity:0.45;}.\31 efb936d-3d33-47b2-a15a-b127bdc93192{clip-path:url(#6cdbdcc8-9a13-4cce-8890-831aed1745b8);}.\30 e357052-7f84-494e-8784-7350fe7c5df0,.\39 e2f4854-33ed-4d35-b289-41761a49d825{opacity:0.5;}.\35 73a43cf-0704-49d0-b66e-0a909996a330{clip-path:url(#2351d384-2d7a-41a7-8bb7-215ac05bcb9c);}.\37 89f2d80-24fa-4a74-891a-559ef6172e3d{opacity:0.28;}.d37340c2-3c81-4be4-9153-81849b7ddf9e{opacity:0.2;}.\31 fc83164-4603-4f65-9522-34d500e5b39f{opacity:0.15;}.\36 b36ea5f-c1bd-4199-b34e-24ad32567281{clip-path:url(#8d63f41e-3365-4c57-b8bf-f634b3b99372);}.\37 84cc506-f6f6-4996-9141-942b256486b5{fill:#fbb03b;}.\36 67e99ce-8557-4d96-a423-2fa2cc500997{clip-path:url(#94e3982f-88b3-47bc-82fe-fb58022aad74);}.caa13a6e-746a-4d25-98e4-452ab3625914{fill:#ff931e;}.\36 5e4e86e-d1c0-447e-b8e8-68f76361c6d9{fill:#ff931f;}.ff22fe6b-9b53-4bc7-b950-cba1475c2040{fill:#ff941f;}.f80b6d9d-26b3-4917-a027-f2eab4a0ac8c{fill:#ff9420;}.\30 bd6d277-ac3e-4ec2-9b25-99d03fbdd2b9{fill:#ff9421;}.\36 ba6cbfa-451d-4883-8417-a60d107ebd81{fill:#ff9521;}.\37 ec5e742-232c-49d2-b361-85491f8d50a7{fill:#ff9522;}.ae02986c-dade-4ac3-8913-2f7556f24a0c{fill:#ff9523;}.a8cb00ec-66f3-4a43-9515-608a1dabbae3{fill:#ff9623;}.\37 b097f0a-f6be-4574-871b-acb968d946d5{fill:#ff9624;}.\32 3d7afbd-0393-4ad2-8b98-09e41b677cde{fill:#ff9625;}.db416e39-acbd-40a5-9abb-59402a383bc5{fill:#ff9726;}.\32 5f69f78-59a2-443b-b1d1-c536c34f4291{fill:#ff9727;}.\30 1fa4054-1c7c-423b-86c5-c403bdae4802{fill:#ff9828;}.c05ba697-ff23-4e30-8c34-d7d6759f7daf{fill:#ff9829;}.d8959127-3eb5-476c-a063-0abd41d8674b{fill:#ff992a;}.f884d87c-5f6c-4db6-b34a-e8217e27fd90{fill:#ff992b;}.\36 f524d5d-aaef-4580-b348-0bfb83dd1e50{fill:#ff9a2c;}.\31 b1c439c-563b-41e8-b0dd-bea48492e20f{fill:#ff9a2d;}.\38 7ea0039-5c73-4786-840b-77d0f35f9bfd{fill:#ff9b2e;}.a510a9c8-f8a7-4df8-9788-52ca878d2648{fill:#ff9b2f;}.\38 628575a-5360-4108-8c2a-d7445354bee1{fill:#ff9b30;}.\35 becabbe-889c-4717-8f7c-7c7c236ace73{fill:#ff9c30;}.\39 8d53d11-d036-4764-a3ae-d0e8bc058a2d{fill:#ff9c31;}.c3fafe1b-ba79-42dc-af60-a8da3388e158{fill:#ff9d32;}.\33 a20d1e8-49eb-4475-8b35-bee856b7aba4{fill:#ff9d33;}.\30 ba2cc0c-c1db-434e-9b52-865d635985ce{fill:#ff9d34;}.\32 a91e8c7-e696-46ea-b035-d52bca3be894{fill:#ff9e34;}.\31 3e66f4b-e6c0-4eec-ae4e-9a6e2b1e685f{fill:#ff9e35;}.d155aa0b-a923-4e35-a749-2d27671a0fa5{fill:#ff9e36;}.ff130568-2fdf-467c-b2a3-073614a2681d{fill:#ff9f36;}.\37 4aae60c-c001-4e4f-b131-bf10c418747e{fill:#ff9f37;}.b968dbd0-da35-4725-8b82-65849ccf77cb{fill:#ff9f38;}.b13b3f47-b796-4848-a7c4-c3dedf61f18e{fill:#ffa038;}.\30 b289cf7-8a84-4e9d-8e77-e6a3bad9cfa1{fill:#ffa039;}.\31 da9322e-d443-4456-894b-c3f4baf019dd{fill:#ffa03a;}.dfe39ec2-362b-4227-9d73-a88636e99108{fill:#ffa13a;}.f1393fef-712b-40bb-9b02-af083364a48e{fill:#ffa13b;}.\30 b9e3b8d-bb24-49b6-bb63-b26562cc2f31{fill:#ffa13c;}.\31 f463cdb-4d6e-41b4-ac71-d18b4578e440{fill:#ffa23d;}.f071d931-a808-46e7-82cd-93e6d7c3bdda{fill:#ffa23e;}.\35 680978a-0ba1-4154-ab7d-1b65203bd26c{fill:#ffa33f;}.b78984e3-51ac-45ed-9446-cd9d35bf5374{fill:#ffa340;}.\39 c96332f-3269-4883-b540-258e44f7c270{fill:#ffa440;}.\39 5905ed0-f3a1-4de0-a446-ca3653f739d9{fill:#ffa441;}.ab4e2f28-bb99-4591-8f9a-78bb8e256db0{fill:#ffa442;}.aebb5d55-57d8-4c02-8070-8b916224e2f0{fill:#ffa543;}.fe5a3937-6224-4603-9d6d-4e3d5d8ba51f{fill:#ffa544;}.\30 858c68e-2531-4137-89a3-9373ee5e9df9{fill:#ffa645;}.e41e781f-5067-4ef7-832d-ac418d8317a2{fill:#ffa646;}.\39 fffa34d-2440-47d6-924a-216deeffc9fb{fill:#ffa747;}.b494b055-d7e3-4b2c-ab1b-1f94217bee17{fill:#ffa748;}.\34 41dbfcd-593a-422d-abf7-fb6c9e288193{fill:#ffa849;}.cf1ba24c-025e-4f56-85a0-2127e69bfd97{fill:#ffa84a;}.\34 aa018cb-8567-4989-a74c-ac06c07fa448{fill:#ffa84b;}.\34 ce8335e-7c1c-44b7-9162-5f5139d7f77a{fill:#ffa94b;}.fdb40a28-5610-486b-a455-95e833184073{fill:#ffa94c;}.\34 ade2bee-fedd-4520-b1af-88371bf2dbe2{fill:#ffaa4d;}.d473fce4-7297-4f83-9683-5bfd141d469e{fill:#ffaa4e;}.f7d55aa0-9874-459e-8618-c2684ead2f9d{fill:#ffab4f;}.\38 9b74524-ec0d-4906-a4c4-ebf856be0d53{fill:#ffab50;}.\39 ef664b0-18a0-481d-9f93-d02dfb4b4f3e{fill:#ffac51;}.b54e4750-ba10-46d0-a5df-7a240eeccda1{fill:#ffac52;}.\33 bcdabe5-d5a3-4954-b4dc-669f14bb8b1a{fill:#ffac53;}.\37 74f5a66-2335-4dc0-b533-b5d4f63c5641{fill:#ffad54;}.\30 0939ae5-34bb-42a5-9dd1-28534be10959{fill:#ffad55;}.b37948e6-104c-4f93-9ee4-bf538e97912f{fill:#ffae56;}.\39 095f952-a2b8-4569-b9f4-afb6a9347c6d{fill:#ffae57;}.\31 83dd699-2031-4846-b91e-c48d614a6d86{fill:#ffaf58;}.\36 611523b-94fe-40c1-803c-67affc0cb316{fill:#ffaf59;}.c3cc8d51-31c0-4f23-b116-8ad28e6b648f{fill:#ffb05a;}.\31 18c03e5-47f8-4b0b-8ad0-50bd110f5a63{fill:#ffb05b;}.dbc36401-b54c-400f-86d3-e438eef5c6e1{fill:#ffb15c;}.\37 ece6d98-9563-46f1-a721-0dc24397bf4e{fill:#ffb15e;}.fcf96500-1eab-4828-9c66-c1878bfc6498{fill:#ffb25f;}.eae71ef5-c91f-4be7-8be9-f08e351db3b7{fill:#ffb360;}.dec863ea-b30b-4feb-a050-b54dfb4f634b{fill:#ffb361;}.\33 cdd990b-4bcf-486d-a482-c3ae7dadb726{fill:#ffb462;}.b622ca4b-c4d5-4e9e-80de-b5985634267c{fill:#ffb463;}.\36 32e6752-fa79-4e5c-b593-646d5118f22e{fill:#ffb564;}.\30 3ec7a18-fea1-453a-991a-bdd04907f41a{fill:#ffb565;}.c4111c97-24de-46de-b19e-c36409dcd73d{fill:#ffb667;}.\35 e31811c-dbb7-46d7-b58a-9b0cd48bf17d{fill:#ffb668;}.e6875ff5-fdd5-46fc-9722-c0887addd627{fill:#ffb769;}.ba54444b-6215-4f02-8ff2-a205a695a769{fill:#ffb86a;}.\36 24c88b1-6c45-4c95-8725-486ca319e907{fill:#ffb86b;}.b209023b-e453-4968-9599-96fc3e0c7a44{fill:#ffb96d;}.cf072c0a-742f-4f1a-b37a-bd21fa533682{fill:#ffb96e;}.\35 0c23446-4505-487d-9665-cbf143e19ae9{fill:#ffba6f;}.\35 02f553d-c945-4981-a0c4-08e6bd9bb45c{fill:#ffba70;}.\36 7b0cb6c-c72d-4a1c-8593-2718b44eff06{fill:#ffbb71;}.\32 3d00213-a6ed-4984-8848-e58e4a3fedcc{fill:#ffbc73;}.f4308a05-a595-475a-a961-74de5f5e3976{fill:#ffbc74;}.c58a5ce9-1e0e-4188-857e-9482fa5c61d2{fill:#ffbd75;}.\37 fdbca56-1469-4de9-aaf5-c7c84076c6c8{fill:#ffbe77;}.\35 f73cd6a-066f-4a97-99f6-182666bda91c{fill:#ffbe78;}.f8b1d79b-0ba7-4d1c-ab4c-7a4f74fdd26a{fill:#ffbf79;}.ec599fa9-51fb-48dc-bb0b-a867bec43aaa{fill:#ffbf7b;}.\32 59df867-f680-4f89-99e4-6f83a7271489{fill:#ffc07c;}.dcb14112-52ca-4ad6-894d-466786290370{fill:#ffc17d;}.fb18c700-fc93-4d03-992a-564a305c5eec{fill:#ffc17f;}.b0d7c47d-37c2-4963-9485-9ba77c8cfeb9{fill:#ffc280;}.\34 f4e694c-cc1b-4506-a0a4-3ecaa7773287{fill:#ffc381;}.\39 91bd063-a520-47a4-9dd8-912ebe562c40{fill:#ffc383;}.e834e134-c290-4a31-8e61-57774c264a41{fill:#ffc484;}.\38 dc44cb3-ccaa-4766-80d6-9fdb2b09bdcc{fill:#ffc585;}.\32 c278830-844d-413d-8438-751f6bce8e1a{fill:#ffc587;}.\30 1a37e64-b897-4f9c-82d6-92f8eaaf2886{fill:#ffc688;}.cbd2d854-4bed-4f6b-a604-5e756859e0d5{fill:#ffc78a;}.aa4f6a06-0704-4f53-bef1-8321426e1b44{fill:#ffc78b;}.cf3499c8-ddab-46a7-a5c8-49386a63f33d{fill:#ffc88d;}.\33 866e50d-3b0d-441f-87c8-fd988b5e1353{fill:#ffc98e;}.\32 4cfebe0-c35e-4bf3-97a3-039e3c404b1d{fill:#ffca90;}.\33 826d67c-0cfd-4158-9bcb-7d7e1b9bae3a{fill:#ffca91;}.\39 d569194-9ab9-4fc1-a455-98417a447b45{fill:#ffcb93;}.e0c3abe8-5839-412e-b6b3-ff005a2b6c6b{fill:#ffcc94;}.b67ac003-a5f3-44fe-95c7-2a21633f5b5a{fill:#ffcc96;}.\37 94e0894-767f-4110-a486-a172ae4708e5{fill:#ffcd97;}.a6f7dc71-0ad6-49c8-aaae-bfcf45565cc0{fill:#ffce99;}.\30 1b94626-5b52-4106-92a6-809aba39a35d{fill:#ffcf9a;}.f5decddf-e6a6-4410-a4ef-69e1005b59b4{fill:#ffcf9c;}.\39 8e4a45c-c60d-4a7c-8a3d-73aebe98a9ca{fill:#ffd09d;}.\32 e590f40-ee65-46b9-a0dc-6a43d144fd2c{fill:#ffd19f;}.\36 68d8d17-677e-4e46-8de7-8d4b4ae56ba9{fill:#ffd2a0;}.e0586ac4-8a88-4dcc-b3df-5cc0d687e538{fill:#ffd2a2;}.\37 f44dda9-f516-4455-8b13-921e20cf2067{fill:#ffd3a4;}.fdbccbae-ee0f-4fda-8701-5ca6dda73703{fill:#ffd4a5;}.\35 3a70c78-ffb1-43b3-b3dc-260447f4c317{fill:#ffd5a7;}.ea4e8816-598c-4ca1-99dd-5ccbfd0d4603{fill:#ffd5a9;}.\34 2b699a8-4b4f-4d06-bdd3-390abd500fad{fill:#ffd6aa;}.e83a3d16-9d23-4efb-a5c1-b2478a4857b3{fill:#ffd7ac;}.\39 6aac032-42d3-4498-80ba-231202d612ed{fill:#ffd8ae;}.e86ae935-8cc6-42a0-a316-03a5ca0a6681{fill:#ffd9af;}.aadbb205-9310-442f-82e5-27b4e7d897f0{fill:#ffd9b1;}.\30 ce8575e-f97d-4c5c-8f83-3501ea47b33c{fill:#ffdab3;}.b1088eb0-eb47-429d-8fe5-1a61b7f636c1{fill:#ffdbb4;}.b8cb82eb-c6e6-460c-933b-2cd6e3e448c7{fill:#ffdcb6;}.a72882e5-db07-43d3-bd37-caa0122eb37d{fill:#ffddb8;}.\30 e859648-c4aa-42b8-a788-1d9f16d2d7e1{fill:#ffdeb9;}.\36 e6bdaa6-269d-41fb-ba79-19eb69d80d4d{fill:#ffdebb;}.d0557220-bacf-47eb-9f40-306782019f40{fill:#ffdfbd;}.df7f9a6f-cb98-4e0f-8935-5292fb063e47{fill:#ffe0bf;}.a18e48df-8650-40b1-acb6-51bacaaefb02{fill:#ffe1c1;}.\33 878b781-785b-4c3c-a861-29fdd1e21017{fill:#ffe2c2;}.abf08680-7623-44e3-b2db-a445a1cc4335{fill:#ffe3c4;}.f55e7660-4387-49f0-b463-48d34c1a8d8b{fill:#ffe4c6;}.\34 1b96aaf-fc97-4dc8-9517-27a5fceb2266{fill:#ffe4c8;}.\34 8fe56f6-5582-40c8-b263-d6ae9c3ae621{fill:#ffe5ca;}.d2b5b990-141b-493e-ab27-428609ae6daa{fill:#ffe6cb;}.\35 ba4d349-48c1-4eb1-b200-3fa1f07b8f0a{fill:#ffe7cd;}.\32 7d9aa5f-32a8-4370-aadb-1b7582568272{fill:#ffe8cf;}.\35 2ebfba6-e252-466a-9088-063263a5f76d{fill:#ffe9d1;}.\38 3c53e60-b574-4b9c-ab3d-53be3fecf404{fill:#ffead3;}.\36 6bb5102-a57d-4801-be91-edc6bc481c86{fill:#ffebd5;}.db1b7003-8893-4a73-ba60-868bcf66976b{fill:#ffecd7;}.c36c5451-d2dc-4df6-a3b0-d15c73acae0a{fill:#ffedd9;}.e7d2b2e4-1d80-40f3-b9c2-f3f9bdd5cc64{fill:#ffeedb;}.\37 731e74c-1bf0-4dfc-9838-0468314f6974{fill:#ffeedc;}.c2e08424-782c-45d0-beed-12f381450bf3{fill:#ffefde;}.c6db659f-c9a7-4d3b-9351-5ee62b24b2a0{fill:#fff0e0;}.a4eb52fa-4fa1-4168-ad2d-1af9dd166bfa{fill:#fff1e2;}.a07e97ae-693d-4e79-9f2a-01f7eea25c10{fill:#fff2e4;}.\36 5061f17-8a51-43aa-aa3b-006dc8423e1f{fill:#fff3e6;}.d941793d-e1c7-4187-9614-90243a89b93a{fill:#fff4e8;}.\33 5c0869c-b95d-451e-a448-d4046cdad48e{fill:#fff5ea;}.ad53171e-0369-472a-a10b-e38854acc8cd{fill:#fff6ec;}.\30 7fc865c-92f6-4f00-beb4-aa3e69f4f229{fill:#fff7ee;}.eabebab3-86db-44cb-a7e6-40ebab28901c{fill:#fff8f0;}.\37 ad74fed-2c5a-4e90-9f1e-6e1963b8efcc{fill:#fff9f2;}.b418d4d0-8d4f-45ed-b010-c559398ded6b{fill:#fffaf5;}.\38 e142ef0-6283-4db5-b4de-6220145725c4{fill:#fffbf7;}.\34 db717bd-6a22-4e63-98f3-48377616e7d0{fill:#fffcf9;}.\37 aac5f7e-e1be-4b98-a9fe-356f3796a08d{fill:#fffdfb;}.\39 4063a73-228b-42f1-b399-a4e1fe086f81{fill:#fffefd;}.\39 753c6f3-239a-4266-ae26-aff299d6c8ee{opacity:0.78;}.a1114283-6267-4be6-8a62-0e7bf9059bf1{stroke:#fff;stroke-miterlimit:10;}.cc59bc12-77f3-4b98-b744-77c403248c2c{opacity:0.49;}.b49cc43d-12c3-4784-aacf-d32b7565fd97{fill:#095c57;}</style><clipPath id="6cdbdcc8-9a13-4cce-8890-831aed1745b8"><circle class="48e3aabf-377a-4c18-96d3-c2aa84e817fa" cx="153.32" cy="932.42" r="123" transform="translate(-468.69 221.06) rotate(-31.83)"/></clipPath><clipPath id="2351d384-2d7a-41a7-8bb7-215ac05bcb9c"><rect class="48e3aabf-377a-4c18-96d3-c2aa84e817fa" x="-109.86" y="745.38" width="527.24" height="397.11" transform="translate(-281.58 92.39) rotate(-17.83)"/></clipPath><clipPath id="8d63f41e-3365-4c57-b8bf-f634b3b99372"><polygon class="eea2a76b-7265-4a61-b774-c05aef264219" points="133.06 833.07 155.43 869.71 197.4 861.56 176.49 898.63 190.54 932 152.03 921.66 119.12 951.39 118.12 907.57 85.84 885.7 119.88 872.96 133.06 833.07"/></clipPath><clipPath id="94e3982f-88b3-47bc-82fe-fb58022aad74"><polygon class="48e3aabf-377a-4c18-96d3-c2aa84e817fa" points="133.05 832.77 157.48 864.69 197.55 861.45 174.74 894.55 190.21 931.65 151.68 920.19 121.17 946.37 120.17 906.18 85.85 885.25 123.75 871.88 133.05 832.77"/></clipPath></defs><title>Sello_Puntuacion_8</title><g class="30faf12f-6ba8-4af4-a9c7-d7b0507cc8d0"><g id="29248418-5f8a-4b6c-bd03-2c73fad5abf0" data-name="Layer 3"><g class="1f4abc0b-c1fc-45c6-b125-380295727a59"><circle class="c4efe3c6-564d-4380-9dff-ff85077f5477" cx="150.37" cy="937.39" r="132.91" transform="translate(-471.75 220.26) rotate(-31.83)"/></g><circle class="603dc36a-e5ff-406d-9abd-434bcd8b9d2a" cx="151.24" cy="932.55" r="132.91" transform="translate(-469.07 219.99) rotate(-31.83)"/><circle class="f4bc2d76-8366-4234-b898-f81ae7fad2a8" cx="152.52" cy="933.2" r="123" transform="translate(-469.22 220.76) rotate(-31.83)"/><g class="d0e96427-af47-4085-8cc2-dffa397bc708"><g class="1efb936d-3d33-47b2-a15a-b127bdc93192"><g class="9e2f4854-33ed-4d35-b289-41761a49d825"><g class="573a43cf-0704-49d0-b66e-0a909996a330"><g class="789f2d80-24fa-4a74-891a-559ef6172e3d"><path class="603dc36a-e5ff-406d-9abd-434bcd8b9d2a" d="M244,1224.06l-0.15,0c-10.67,3.43-21.54,6.55-32.38,9.27l-58-290.06c1.8-.47-1.82.58,0,0Zm32-11.42L153.57,943.35c1.69-.65-1.64.8,0,0l153.58,255.79C296.93,1203.95,286.46,1208.51,276,1212.64Zm-97.66,27.93c-11.06,2-22.3,3.7-33.4,4.94l8.65-302.21c1.78-.19-1.8.31,0,0Zm158.9-57L153.52,943.36c1.56-.88-1.48,1,0,0l212.28,222.92C356.57,1172.29,346.95,1178.15,337.21,1183.62Zm-225.77,64.57c-11,.5-22.15.61-33,0.32l75.13-305.14c1.75,0-1.76.08,0,0Zm281.44-101L153.52,943.36c1.4-1-1.32,1.13,0,0L418,1126.66C410,1133.7,401.5,1140.65,392.87,1147.22Zm-346.94,99.2c-10.65-1.08-21.32-2.53-31.6-4.32L153.57,943.35c1.66,0.28-1.73-.15,0,0ZM441.09,1104.7L153.52,943.36c1.19-1.2-1.11,1.28,0,0L462,1081.6C455.45,1089.45,448.39,1097.2,441.09,1104.7ZM-16.16,1235.52c-9.93-2.56-19.73-5.53-29.19-8.79L153.51,943.32c1.58,0.52-1.66-.44,0,0ZM480.56,1057.4l-327-114c1-1.35-.8,1.4,0,0l343.1,89.07C491.73,1040.85,486.3,1049.26,480.56,1057.4ZM-73,1215.82c-8.92-4-17.65-8.32-26-13L153.52,943.36c1.38,0.75-1.46-.67,0,0Zm583.14-209.11L153.52,943.36c0.64-1.4-.52,1.42,0,0L521,980.5C517.88,989.26,514.21,998.09,510.15,1006.71ZM-123,1187.87a276.34,276.34,0,0,1-22-16.84L153.56,943.3c1.12,0.94-1.25-.85,0,0ZM529,953.94L153.52,943.36c0.36-1.42-.19,1.42,0,0l380.68-16A261.09,261.09,0,0,1,529,953.94Zm-693.85,198.49a257.69,257.69,0,0,1-17.34-20.19L153.52,943.36c0.84,1.09-1-1,0,0ZM536.46,900.78L153.52,943.36c0-1.37.12,1.37,0,0l382.24-68.72A217.37,217.37,0,0,1,536.46,900.78Zm-733.35,209.78a225.46,225.46,0,0,1-12-22.83L153.57,943.35c0.57,1.28-.71-1.18,0,0ZM532.19,849L153.52,943.36c-0.28-1.37.44,1.38,0,0h0L525.65,824l0.13,0.39A222.1,222.1,0,0,1,532.19,849Zm-750.1,215.55-0.33-1a227.33,227.33,0,0,1-6.37-24.37l378.13-95.83c0.28,1.37-.44-1.38,0,0h0l-371.75,120.41ZM153.52,943.36c-0.57-1.28.76,1.17,0,0L504.2,777a228.62,228.62,0,0,1,12.07,22.86Zm0,0-381.75,70.25a232.34,232.34,0,0,1-.72-26.19l382.46-44.06C153.48,944.74,153.41,942,153.52,943.36Zm0,0c-0.85-1.14,1,1,0,0L472.1,735.2a235.25,235.25,0,0,1,17.34,20.19Zm0,0L-226.76,961c1.24-8.81,3-17.77,5.12-26.6l375.17,9C153.22,944.77,153.72,941.95,153.52,943.36Zm0,0c-1.12-.94,1.25.85,0,0l276.7-243.57a277,277,0,0,1,22.06,16.83Zm0,0-367.13-35.62c3.1-8.75,6.77-17.58,10.78-26.19l356.35,61.81C152.89,944.76,154,941.9,153.52,943.36Zm0,0c-1.35-.81,1.5.6,0,0L380.14,671.91c8.92,4,17.65,8.32,26,13Zm0,0-342.87-87.52c4.89-8.41,10.32-16.83,16-25L153.52,943.36C152.6,944.69,154.37,942,153.52,943.36Zm0,0c-1.55-.59,1.65.39,0,0l169.7-291.07c9.93,2.56,19.72,5.48,29.17,8.74Zm0,0L-154.77,806.65c6.53-7.85,13.57-15.65,20.87-23.15L153.52,943.36C152.34,944.56,154.62,942,153.52,943.36Zm0,0c-1.68-.33,1.73.15,0,0L261.15,641.44c10.64,1,21.25,2.5,31.6,4.32Zm0,0L-110.8,761.54c8-7.08,16.43-14,25.11-20.6L153.52,943.36C152.12,944.41,154.83,942.19,153.52,943.36Zm0,0c-1.7-.05,1.76-0.08,0,0l42.1-303.63c11.06-.52,22.22-0.58,33.14-0.35Zm0,0L-58.73,721.9c9.28-6.07,18.89-11.93,28.63-17.4L153.52,943.36C152,944.18,155,942.4,153.52,943.36Zm0,0c-1.73.18,1.78-.36,0,0l-24.81-296c11.11-2.05,22.35-3.71,33.5-5Zm0,0L0,689c10.11-4.82,20.58-9.38,31.07-13.52l122.49,267.9C151.79,944,155.17,942.57,153.52,943.36Zm0,0c-1.77.41,1.82-.58,0,0h0L63.28,663.9l0.39-.13c10.52-3.38,21.25-6.45,31.88-9.17Z"/></g></g></g></g></g><g class="d37340c2-3c81-4be4-9153-81849b7ddf9e"><path class="c4efe3c6-564d-4380-9dff-ff85077f5477" d="M223,1029.77c-57.72,35.83-142.53,19.58-176-39.5-19.4-34.2-16.56-53.38-14.58-78.59A123,123,0,1,0,276,943.16C270,976.17,253.72,1010.68,223,1029.77Z"/></g><g class="1fc83164-4603-4f65-9522-34d500e5b39f"><polygon class="eea2a76b-7265-4a61-b774-c05aef264219" points="133.06 833.07 155.43 869.71 197.4 861.56 176.49 898.63 190.54 932 152.03 921.66 119.12 951.39 118.12 907.57 85.84 885.7 119.88 872.96 133.06 833.07"/><g class="6b36ea5f-c1bd-4199-b34e-24ad32567281"><rect class="eea2a76b-7265-4a61-b774-c05aef264219" x="91.47" y="838.06" width="111.6" height="113.46" transform="translate(-489.74 249.38) rotate(-35.28)"/><circle class="eea2a76b-7265-4a61-b774-c05aef264219" cx="147.84" cy="895.54" r="56.29" transform="translate(-490.07 249.84) rotate(-35.28)"/><circle class="eea2a76b-7265-4a61-b774-c05aef264219" cx="147.84" cy="895.54" r="56.04" transform="translate(-490.07 249.84) rotate(-35.28)"/><circle class="eea2a76b-7265-4a61-b774-c05aef264219" cx="147.84" cy="895.54" r="55.79" transform="matrix(0.82, -0.58, 0.58, 0.82, -490.07, 249.84)"/><circle class="eea2a76b-7265-4a61-b774-c05aef264219" cx="147.84" cy="895.54" r="55.54" transform="translate(-490.07 249.84) rotate(-35.28)"/><circle class="eea2a76b-7265-4a61-b774-c05aef264219" cx="147.84" cy="895.54" r="55.29" transform="translate(-490.07 249.84) rotate(-35.28)"/><circle class="eea2a76b-7265-4a61-b774-c05aef264219" cx="147.84" cy="895.54" r="55.04" transform="translate(-490.07 249.84) rotate(-35.28)"/><circle class="eea2a76b-7265-4a61-b774-c05aef264219" cx="147.84" cy="895.54" r="54.79" transform="translate(-490.07 249.84) rotate(-35.28)"/><circle class="eea2a76b-7265-4a61-b774-c05aef264219" cx="147.84" cy="895.54" r="54.54" transform="translate(-490.07 249.84) rotate(-35.28)"/><circle class="eea2a76b-7265-4a61-b774-c05aef264219" cx="147.84" cy="895.54" r="54.29" transform="translate(-490.07 249.84) rotate(-35.28)"/><circle class="eea2a76b-7265-4a61-b774-c05aef264219" cx="147.84" cy="895.54" r="54.03" transform="translate(-490.07 249.84) rotate(-35.28)"/><circle class="eea2a76b-7265-4a61-b774-c05aef264219" cx="147.84" cy="895.54" r="53.78" transform="translate(-490.07 249.84) rotate(-35.28)"/><circle class="eea2a76b-7265-4a61-b774-c05aef264219" cx="147.84" cy="895.54" r="53.53" transform="translate(-490.07 249.84) rotate(-35.28)"/><circle class="eea2a76b-7265-4a61-b774-c05aef264219" cx="147.84" cy="895.54" r="53.28" transform="translate(-490.07 249.84) rotate(-35.28)"/><circle class="eea2a76b-7265-4a61-b774-c05aef264219" cx="147.84" cy="895.54" r="53.03" transform="translate(-490.07 249.84) rotate(-35.28)"/><circle class="eea2a76b-7265-4a61-b774-c05aef264219" cx="147.84" cy="895.54" r="52.78" transform="translate(-490.07 249.84) rotate(-35.28)"/><circle class="eea2a76b-7265-4a61-b774-c05aef264219" cx="147.84" cy="895.54" r="52.53" transform="translate(-490.07 249.84) rotate(-35.28)"/><circle class="eea2a76b-7265-4a61-b774-c05aef264219" cx="147.84" cy="895.54" r="52.28" transform="translate(-490.07 249.84) rotate(-35.28)"/><circle class="eea2a76b-7265-4a61-b774-c05aef264219" cx="147.84" cy="895.54" r="52.03" transform="translate(-490.07 249.84) rotate(-35.28)"/><circle class="eea2a76b-7265-4a61-b774-c05aef264219" cx="147.84" cy="895.54" r="51.78" transform="translate(-490.07 249.84) rotate(-35.28)"/><circle class="eea2a76b-7265-4a61-b774-c05aef264219" cx="147.84" cy="895.54" r="51.53" transform="translate(-490.07 249.84) rotate(-35.28)"/><circle class="eea2a76b-7265-4a61-b774-c05aef264219" cx="147.84" cy="895.54" r="51.28" transform="translate(-490.07 249.84) rotate(-35.28)"/><circle class="eea2a76b-7265-4a61-b774-c05aef264219" cx="147.84" cy="895.54" r="51.03" transform="translate(-490.07 249.84) rotate(-35.28)"/><circle class="eea2a76b-7265-4a61-b774-c05aef264219" cx="147.84" cy="895.54" r="50.78" transform="translate(-490.07 249.84) rotate(-35.28)"/><circle class="eea2a76b-7265-4a61-b774-c05aef264219" cx="147.84" cy="895.54" r="50.53" transform="translate(-490.07 249.84) rotate(-35.28)"/><circle class="eea2a76b-7265-4a61-b774-c05aef264219" cx="147.84" cy="895.54" r="50.28" transform="matrix(0.82, -0.58, 0.58, 0.82, -490.07, 249.84)"/><circle class="eea2a76b-7265-4a61-b774-c05aef264219" cx="147.84" cy="895.54" r="50.03" transform="translate(-490.07 249.84) rotate(-35.28)"/><circle class="eea2a76b-7265-4a61-b774-c05aef264219" cx="147.84" cy="895.54" r="49.78" transform="translate(-490.07 249.84) rotate(-35.28)"/><circle class="eea2a76b-7265-4a61-b774-c05aef264219" cx="147.84" cy="895.54" r="49.53" transform="translate(-490.07 249.84) rotate(-35.28)"/><circle class="eea2a76b-7265-4a61-b774-c05aef264219" cx="147.84" cy="895.54" r="49.28" transform="matrix(0.82, -0.58, 0.58, 0.82, -490.07, 249.84)"/><circle class="eea2a76b-7265-4a61-b774-c05aef264219" cx="147.84" cy="895.54" r="49.03" transform="translate(-490.07 249.84) rotate(-35.28)"/><circle class="eea2a76b-7265-4a61-b774-c05aef264219" cx="147.84" cy="895.54" r="48.78" transform="translate(-490.07 249.84) rotate(-35.28)"/><circle class="eea2a76b-7265-4a61-b774-c05aef264219" cx="147.84" cy="895.54" r="48.53" transform="translate(-490.07 249.84) rotate(-35.28)"/><circle class="eea2a76b-7265-4a61-b774-c05aef264219" cx="147.84" cy="895.54" r="48.28" transform="translate(-490.07 249.84) rotate(-35.28)"/><circle class="eea2a76b-7265-4a61-b774-c05aef264219" cx="147.84" cy="895.54" r="48.03" transform="translate(-490.07 249.84) rotate(-35.28)"/><circle class="eea2a76b-7265-4a61-b774-c05aef264219" cx="147.84" cy="895.54" r="47.78" transform="translate(-490.07 249.84) rotate(-35.28)"/><circle class="eea2a76b-7265-4a61-b774-c05aef264219" cx="147.84" cy="895.54" r="47.53" transform="translate(-490.07 249.84) rotate(-35.28)"/><circle class="eea2a76b-7265-4a61-b774-c05aef264219" cx="147.84" cy="895.54" r="47.28" transform="translate(-490.07 249.84) rotate(-35.28)"/><circle class="eea2a76b-7265-4a61-b774-c05aef264219" cx="147.84" cy="895.54" r="47.03" transform="translate(-490.07 249.84) rotate(-35.28)"/><circle class="eea2a76b-7265-4a61-b774-c05aef264219" cx="147.84" cy="895.54" r="46.78" transform="translate(-490.07 249.84) rotate(-35.28)"/><circle class="eea2a76b-7265-4a61-b774-c05aef264219" cx="147.84" cy="895.54" r="46.53" transform="translate(-490.07 249.84) rotate(-35.28)"/><circle class="eea2a76b-7265-4a61-b774-c05aef264219" cx="147.84" cy="895.54" r="46.28" transform="translate(-490.07 249.84) rotate(-35.28)"/><circle class="eea2a76b-7265-4a61-b774-c05aef264219" cx="147.84" cy="895.54" r="46.03" transform="translate(-490.07 249.84) rotate(-35.28)"/><circle class="eea2a76b-7265-4a61-b774-c05aef264219" cx="147.84" cy="895.54" r="45.78" transform="translate(-490.07 249.84) rotate(-35.28)"/><circle class="eea2a76b-7265-4a61-b774-c05aef264219" cx="147.84" cy="895.54" r="45.53" transform="translate(-490.07 249.84) rotate(-35.28)"/><circle class="eea2a76b-7265-4a61-b774-c05aef264219" cx="147.84" cy="895.54" r="45.28" transform="translate(-490.07 249.84) rotate(-35.28)"/><circle class="eea2a76b-7265-4a61-b774-c05aef264219" cx="147.84" cy="895.54" r="45.03" transform="translate(-490.07 249.84) rotate(-35.28)"/><circle class="eea2a76b-7265-4a61-b774-c05aef264219" cx="147.84" cy="895.54" r="44.78" transform="translate(-490.07 249.84) rotate(-35.28)"/><circle class="eea2a76b-7265-4a61-b774-c05aef264219" cx="147.84" cy="895.54" r="44.53" transform="translate(-490.07 249.84) rotate(-35.28)"/><circle class="eea2a76b-7265-4a61-b774-c05aef264219" cx="147.84" cy="895.54" r="44.28" transform="translate(-490.07 249.84) rotate(-35.28)"/><circle class="eea2a76b-7265-4a61-b774-c05aef264219" cx="147.84" cy="895.54" r="44.03" transform="translate(-490.07 249.84) rotate(-35.28)"/><circle class="eea2a76b-7265-4a61-b774-c05aef264219" cx="147.84" cy="895.54" r="43.78" transform="translate(-490.07 249.84) rotate(-35.28)"/><circle class="eea2a76b-7265-4a61-b774-c05aef264219" cx="147.84" cy="895.54" r="43.53" transform="translate(-490.07 249.84) rotate(-35.28)"/><circle class="eea2a76b-7265-4a61-b774-c05aef264219" cx="147.84" cy="895.54" r="43.28" transform="translate(-490.07 249.84) rotate(-35.28)"/><circle class="eea2a76b-7265-4a61-b774-c05aef264219" cx="147.84" cy="895.54" r="43.03" transform="translate(-490.07 249.84) rotate(-35.28)"/><circle class="eea2a76b-7265-4a61-b774-c05aef264219" cx="147.84" cy="895.54" r="42.78" transform="translate(-490.07 249.84) rotate(-35.28)"/><circle class="eea2a76b-7265-4a61-b774-c05aef264219" cx="147.84" cy="895.54" r="42.53" transform="translate(-490.07 249.84) rotate(-35.28)"/><circle class="eea2a76b-7265-4a61-b774-c05aef264219" cx="147.84" cy="895.54" r="42.28" transform="translate(-490.07 249.84) rotate(-35.28)"/><circle class="eea2a76b-7265-4a61-b774-c05aef264219" cx="147.84" cy="895.54" r="42.03" transform="translate(-490.07 249.84) rotate(-35.28)"/><circle class="eea2a76b-7265-4a61-b774-c05aef264219" cx="147.84" cy="895.54" r="41.78" transform="translate(-490.07 249.84) rotate(-35.28)"/><circle class="eea2a76b-7265-4a61-b774-c05aef264219" cx="147.84" cy="895.54" r="41.53" transform="translate(-490.07 249.84) rotate(-35.28)"/><circle class="eea2a76b-7265-4a61-b774-c05aef264219" cx="147.84" cy="895.54" r="41.28" transform="translate(-490.07 249.84) rotate(-35.28)"/><circle class="eea2a76b-7265-4a61-b774-c05aef264219" cx="147.84" cy="895.54" r="41.03" transform="translate(-490.07 249.84) rotate(-35.28)"/><circle class="eea2a76b-7265-4a61-b774-c05aef264219" cx="147.84" cy="895.54" r="40.78" transform="translate(-490.07 249.84) rotate(-35.28)"/><circle class="eea2a76b-7265-4a61-b774-c05aef264219" cx="147.84" cy="895.54" r="40.53" transform="translate(-490.07 249.84) rotate(-35.28)"/><circle class="eea2a76b-7265-4a61-b774-c05aef264219" cx="147.84" cy="895.54" r="40.28" transform="translate(-490.07 249.84) rotate(-35.28)"/><circle class="eea2a76b-7265-4a61-b774-c05aef264219" cx="147.84" cy="895.54" r="40.03" transform="translate(-490.07 249.84) rotate(-35.28)"/><circle class="eea2a76b-7265-4a61-b774-c05aef264219" cx="147.84" cy="895.54" r="39.78" transform="translate(-490.07 249.84) rotate(-35.28)"/><circle class="eea2a76b-7265-4a61-b774-c05aef264219" cx="147.84" cy="895.54" r="39.53" transform="translate(-490.07 249.84) rotate(-35.28)"/><circle class="eea2a76b-7265-4a61-b774-c05aef264219" cx="147.84" cy="895.54" r="39.28" transform="translate(-490.07 249.84) rotate(-35.28)"/><circle class="eea2a76b-7265-4a61-b774-c05aef264219" cx="147.84" cy="895.54" r="39.03" transform="translate(-490.07 249.84) rotate(-35.28)"/><circle class="eea2a76b-7265-4a61-b774-c05aef264219" cx="147.84" cy="895.54" r="38.78" transform="translate(-490.07 249.84) rotate(-35.28)"/><circle class="eea2a76b-7265-4a61-b774-c05aef264219" cx="147.84" cy="895.54" r="38.52" transform="translate(-490.07 249.84) rotate(-35.28)"/><circle class="eea2a76b-7265-4a61-b774-c05aef264219" cx="147.84" cy="895.54" r="38.27" transform="translate(-490.07 249.84) rotate(-35.28)"/><circle class="eea2a76b-7265-4a61-b774-c05aef264219" cx="147.84" cy="895.54" r="38.02" transform="translate(-490.07 249.84) rotate(-35.28)"/><circle class="eea2a76b-7265-4a61-b774-c05aef264219" cx="147.84" cy="895.54" r="37.77" transform="translate(-490.07 249.84) rotate(-35.28)"/><circle class="eea2a76b-7265-4a61-b774-c05aef264219" cx="147.84" cy="895.54" r="37.52" transform="translate(-490.07 249.84) rotate(-35.28)"/><circle class="eea2a76b-7265-4a61-b774-c05aef264219" cx="147.84" cy="895.54" r="37.27" transform="translate(-490.07 249.84) rotate(-35.28)"/><circle class="eea2a76b-7265-4a61-b774-c05aef264219" cx="147.84" cy="895.54" r="37.02" transform="translate(-490.07 249.84) rotate(-35.28)"/><circle class="eea2a76b-7265-4a61-b774-c05aef264219" cx="147.84" cy="895.54" r="36.77" transform="translate(-490.07 249.84) rotate(-35.28)"/><circle class="eea2a76b-7265-4a61-b774-c05aef264219" cx="147.84" cy="895.54" r="36.52" transform="translate(-490.07 249.84) rotate(-35.28)"/><circle class="eea2a76b-7265-4a61-b774-c05aef264219" cx="147.84" cy="895.54" r="36.27" transform="translate(-490.07 249.84) rotate(-35.28)"/><circle class="eea2a76b-7265-4a61-b774-c05aef264219" cx="147.84" cy="895.54" r="36.02" transform="translate(-490.07 249.84) rotate(-35.28)"/><circle class="eea2a76b-7265-4a61-b774-c05aef264219" cx="147.84" cy="895.54" r="35.77" transform="translate(-490.07 249.84) rotate(-35.28)"/><circle class="eea2a76b-7265-4a61-b774-c05aef264219" cx="147.84" cy="895.54" r="35.52" transform="translate(-490.07 249.84) rotate(-35.28)"/><circle class="eea2a76b-7265-4a61-b774-c05aef264219" cx="147.84" cy="895.54" r="35.27" transform="translate(-490.07 249.84) rotate(-35.28)"/><circle class="eea2a76b-7265-4a61-b774-c05aef264219" cx="147.84" cy="895.54" r="35.02" transform="translate(-490.07 249.84) rotate(-35.28)"/><circle class="eea2a76b-7265-4a61-b774-c05aef264219" cx="147.84" cy="895.54" r="34.77" transform="translate(-490.07 249.84) rotate(-35.28)"/><circle class="eea2a76b-7265-4a61-b774-c05aef264219" cx="147.84" cy="895.54" r="34.52" transform="translate(-490.07 249.84) rotate(-35.28)"/><circle class="eea2a76b-7265-4a61-b774-c05aef264219" cx="147.84" cy="895.54" r="34.27" transform="translate(-490.07 249.84) rotate(-35.28)"/><circle class="eea2a76b-7265-4a61-b774-c05aef264219" cx="147.84" cy="895.54" r="34.02" transform="translate(-490.07 249.84) rotate(-35.28)"/><circle class="eea2a76b-7265-4a61-b774-c05aef264219" cx="147.84" cy="895.54" r="33.77" transform="translate(-490.07 249.84) rotate(-35.28)"/><circle class="eea2a76b-7265-4a61-b774-c05aef264219" cx="147.84" cy="895.54" r="33.52" transform="translate(-490.07 249.84) rotate(-35.28)"/><circle class="eea2a76b-7265-4a61-b774-c05aef264219" cx="147.84" cy="895.54" r="33.27" transform="translate(-490.07 249.84) rotate(-35.28)"/><circle class="eea2a76b-7265-4a61-b774-c05aef264219" cx="147.84" cy="895.54" r="33.02" transform="translate(-490.07 249.84) rotate(-35.28)"/><circle class="eea2a76b-7265-4a61-b774-c05aef264219" cx="147.84" cy="895.54" r="32.77" transform="translate(-490.07 249.84) rotate(-35.28)"/><circle class="eea2a76b-7265-4a61-b774-c05aef264219" cx="147.84" cy="895.54" r="32.52" transform="translate(-490.07 249.84) rotate(-35.28)"/><circle class="eea2a76b-7265-4a61-b774-c05aef264219" cx="147.84" cy="895.54" r="32.27" transform="translate(-490.07 249.84) rotate(-35.28)"/><circle class="eea2a76b-7265-4a61-b774-c05aef264219" cx="147.84" cy="895.54" r="32.02" transform="translate(-490.07 249.84) rotate(-35.28)"/><circle class="eea2a76b-7265-4a61-b774-c05aef264219" cx="147.84" cy="895.54" r="31.77" transform="translate(-490.07 249.84) rotate(-35.28)"/><circle class="eea2a76b-7265-4a61-b774-c05aef264219" cx="147.84" cy="895.54" r="31.52" transform="translate(-490.07 249.84) rotate(-35.28)"/><circle class="eea2a76b-7265-4a61-b774-c05aef264219" cx="147.84" cy="895.54" r="31.27" transform="translate(-490.07 249.84) rotate(-35.28)"/><circle class="eea2a76b-7265-4a61-b774-c05aef264219" cx="147.84" cy="895.54" r="31.02" transform="translate(-490.07 249.84) rotate(-35.28)"/><circle class="eea2a76b-7265-4a61-b774-c05aef264219" cx="147.84" cy="895.54" r="30.77" transform="translate(-490.07 249.84) rotate(-35.28)"/><circle class="eea2a76b-7265-4a61-b774-c05aef264219" cx="147.84" cy="895.54" r="30.52" transform="translate(-490.07 249.84) rotate(-35.28)"/><circle class="eea2a76b-7265-4a61-b774-c05aef264219" cx="147.84" cy="895.54" r="30.27" transform="translate(-490.07 249.84) rotate(-35.28)"/><circle class="eea2a76b-7265-4a61-b774-c05aef264219" cx="147.84" cy="895.54" r="30.02" transform="translate(-490.07 249.84) rotate(-35.28)"/><circle class="eea2a76b-7265-4a61-b774-c05aef264219" cx="147.84" cy="895.54" r="29.77" transform="translate(-490.07 249.84) rotate(-35.28)"/><circle class="eea2a76b-7265-4a61-b774-c05aef264219" cx="147.84" cy="895.54" r="29.52" transform="translate(-490.07 249.84) rotate(-35.28)"/><circle class="eea2a76b-7265-4a61-b774-c05aef264219" cx="147.84" cy="895.54" r="29.27" transform="translate(-490.07 249.84) rotate(-35.28)"/><circle class="eea2a76b-7265-4a61-b774-c05aef264219" cx="147.84" cy="895.54" r="29.02" transform="translate(-490.07 249.84) rotate(-35.28)"/><circle class="eea2a76b-7265-4a61-b774-c05aef264219" cx="147.84" cy="895.54" r="28.77" transform="translate(-490.07 249.84) rotate(-35.28)"/><circle class="eea2a76b-7265-4a61-b774-c05aef264219" cx="147.84" cy="895.54" r="28.52" transform="translate(-490.07 249.84) rotate(-35.28)"/><circle class="eea2a76b-7265-4a61-b774-c05aef264219" cx="147.84" cy="895.54" r="28.27" transform="translate(-490.07 249.84) rotate(-35.28)"/><circle class="eea2a76b-7265-4a61-b774-c05aef264219" cx="147.84" cy="895.54" r="28.02" transform="translate(-490.07 249.84) rotate(-35.28)"/><circle class="eea2a76b-7265-4a61-b774-c05aef264219" cx="147.84" cy="895.54" r="27.77" transform="translate(-490.07 249.84) rotate(-35.28)"/><circle class="eea2a76b-7265-4a61-b774-c05aef264219" cx="147.84" cy="895.54" r="27.52" transform="matrix(0.82, -0.58, 0.58, 0.82, -490.07, 249.84)"/><circle class="eea2a76b-7265-4a61-b774-c05aef264219" cx="147.84" cy="895.54" r="27.27" transform="translate(-490.07 249.84) rotate(-35.28)"/><circle class="eea2a76b-7265-4a61-b774-c05aef264219" cx="147.84" cy="895.54" r="27.02" transform="translate(-490.07 249.84) rotate(-35.28)"/><circle class="eea2a76b-7265-4a61-b774-c05aef264219" cx="147.84" cy="895.54" r="26.77" transform="translate(-490.07 249.84) rotate(-35.28)"/><circle class="eea2a76b-7265-4a61-b774-c05aef264219" cx="147.84" cy="895.54" r="26.52" transform="translate(-490.07 249.84) rotate(-35.28)"/><circle class="eea2a76b-7265-4a61-b774-c05aef264219" cx="147.84" cy="895.54" r="26.27" transform="translate(-490.07 249.84) rotate(-35.28)"/><circle class="eea2a76b-7265-4a61-b774-c05aef264219" cx="147.84" cy="895.54" r="26.02" transform="translate(-490.07 249.84) rotate(-35.28)"/><circle class="eea2a76b-7265-4a61-b774-c05aef264219" cx="147.84" cy="895.54" r="25.77" transform="translate(-490.07 249.84) rotate(-35.28)"/><circle class="eea2a76b-7265-4a61-b774-c05aef264219" cx="147.84" cy="895.54" r="25.52" transform="translate(-490.07 249.84) rotate(-35.28)"/><circle class="eea2a76b-7265-4a61-b774-c05aef264219" cx="147.84" cy="895.54" r="25.27" transform="translate(-490.07 249.84) rotate(-35.28)"/><circle class="eea2a76b-7265-4a61-b774-c05aef264219" cx="147.84" cy="895.54" r="25.02" transform="translate(-490.07 249.84) rotate(-35.28)"/><circle class="eea2a76b-7265-4a61-b774-c05aef264219" cx="147.84" cy="895.54" r="24.77" transform="translate(-490.07 249.84) rotate(-35.28)"/><circle class="eea2a76b-7265-4a61-b774-c05aef264219" cx="147.84" cy="895.54" r="24.52" transform="translate(-490.07 249.84) rotate(-35.28)"/><circle class="eea2a76b-7265-4a61-b774-c05aef264219" cx="147.84" cy="895.54" r="24.27" transform="translate(-490.07 249.84) rotate(-35.28)"/><circle class="eea2a76b-7265-4a61-b774-c05aef264219" cx="147.84" cy="895.54" r="24.02" transform="translate(-490.07 249.84) rotate(-35.28)"/><circle class="eea2a76b-7265-4a61-b774-c05aef264219" cx="147.84" cy="895.54" r="23.77" transform="translate(-490.07 249.84) rotate(-35.28)"/><circle class="eea2a76b-7265-4a61-b774-c05aef264219" cx="147.84" cy="895.54" r="23.52" transform="translate(-490.07 249.84) rotate(-35.28)"/><circle class="eea2a76b-7265-4a61-b774-c05aef264219" cx="147.84" cy="895.54" r="23.27" transform="translate(-490.07 249.84) rotate(-35.28)"/><circle class="eea2a76b-7265-4a61-b774-c05aef264219" cx="147.84" cy="895.54" r="23.01" transform="translate(-490.07 249.84) rotate(-35.28)"/><circle class="eea2a76b-7265-4a61-b774-c05aef264219" cx="147.84" cy="895.54" r="22.76" transform="translate(-490.07 249.84) rotate(-35.28)"/><circle class="eea2a76b-7265-4a61-b774-c05aef264219" cx="147.84" cy="895.54" r="22.51" transform="translate(-490.07 249.84) rotate(-35.28)"/><circle class="eea2a76b-7265-4a61-b774-c05aef264219" cx="147.84" cy="895.54" r="22.26" transform="translate(-490.07 249.84) rotate(-35.28)"/><circle class="eea2a76b-7265-4a61-b774-c05aef264219" cx="147.84" cy="895.54" r="22.01" transform="translate(-490.07 249.84) rotate(-35.28)"/><circle class="eea2a76b-7265-4a61-b774-c05aef264219" cx="147.84" cy="895.54" r="21.76" transform="matrix(0.82, -0.58, 0.58, 0.82, -490.07, 249.84)"/><circle class="eea2a76b-7265-4a61-b774-c05aef264219" cx="147.84" cy="895.54" r="21.51" transform="matrix(0.82, -0.58, 0.58, 0.82, -490.07, 249.84)"/><circle class="eea2a76b-7265-4a61-b774-c05aef264219" cx="147.84" cy="895.54" r="21.26" transform="translate(-490.07 249.84) rotate(-35.28)"/><circle class="eea2a76b-7265-4a61-b774-c05aef264219" cx="147.84" cy="895.54" r="21.01" transform="translate(-490.07 249.84) rotate(-35.28)"/><circle class="eea2a76b-7265-4a61-b774-c05aef264219" cx="147.84" cy="895.54" r="20.76" transform="translate(-490.07 249.84) rotate(-35.28)"/><circle class="eea2a76b-7265-4a61-b774-c05aef264219" cx="147.84" cy="895.54" r="20.51" transform="translate(-490.07 249.84) rotate(-35.28)"/><circle class="eea2a76b-7265-4a61-b774-c05aef264219" cx="147.84" cy="895.54" r="20.26" transform="translate(-490.07 249.84) rotate(-35.28)"/><circle class="eea2a76b-7265-4a61-b774-c05aef264219" cx="147.84" cy="895.54" r="20.01" transform="translate(-490.07 249.84) rotate(-35.28)"/><circle class="eea2a76b-7265-4a61-b774-c05aef264219" cx="147.84" cy="895.54" r="19.76" transform="translate(-490.07 249.84) rotate(-35.28)"/><circle class="eea2a76b-7265-4a61-b774-c05aef264219" cx="147.84" cy="895.54" r="19.51" transform="translate(-490.07 249.84) rotate(-35.28)"/><circle class="eea2a76b-7265-4a61-b774-c05aef264219" cx="147.84" cy="895.54" r="19.26" transform="translate(-490.07 249.84) rotate(-35.28)"/><circle class="eea2a76b-7265-4a61-b774-c05aef264219" cx="147.84" cy="895.54" r="19.01" transform="matrix(0.82, -0.58, 0.58, 0.82, -490.07, 249.84)"/><circle class="eea2a76b-7265-4a61-b774-c05aef264219" cx="147.84" cy="895.54" r="18.76" transform="translate(-490.07 249.84) rotate(-35.28)"/><circle class="eea2a76b-7265-4a61-b774-c05aef264219" cx="147.84" cy="895.54" r="18.51" transform="translate(-490.07 249.84) rotate(-35.28)"/><circle class="eea2a76b-7265-4a61-b774-c05aef264219" cx="147.84" cy="895.54" r="18.26" transform="translate(-490.07 249.84) rotate(-35.28)"/><circle class="eea2a76b-7265-4a61-b774-c05aef264219" cx="147.84" cy="895.54" r="18.01" transform="translate(-490.07 249.84) rotate(-35.28)"/><circle class="eea2a76b-7265-4a61-b774-c05aef264219" cx="147.84" cy="895.54" r="17.76" transform="translate(-490.07 249.84) rotate(-35.28)"/><circle class="eea2a76b-7265-4a61-b774-c05aef264219" cx="147.84" cy="895.54" r="17.51" transform="translate(-490.07 249.84) rotate(-35.28)"/><circle class="eea2a76b-7265-4a61-b774-c05aef264219" cx="147.84" cy="895.54" r="17.26" transform="translate(-490.07 249.84) rotate(-35.28)"/><circle class="eea2a76b-7265-4a61-b774-c05aef264219" cx="147.84" cy="895.54" r="17.01" transform="translate(-490.07 249.84) rotate(-35.28)"/><circle class="eea2a76b-7265-4a61-b774-c05aef264219" cx="147.84" cy="895.54" r="16.76" transform="translate(-490.07 249.84) rotate(-35.28)"/><circle class="eea2a76b-7265-4a61-b774-c05aef264219" cx="147.84" cy="895.54" r="16.51" transform="translate(-490.07 249.84) rotate(-35.28)"/><circle class="eea2a76b-7265-4a61-b774-c05aef264219" cx="147.84" cy="895.54" r="16.26" transform="translate(-490.07 249.84) rotate(-35.28)"/><circle class="eea2a76b-7265-4a61-b774-c05aef264219" cx="147.84" cy="895.54" r="16.01" transform="matrix(0.82, -0.58, 0.58, 0.82, -490.07, 249.84)"/><circle class="eea2a76b-7265-4a61-b774-c05aef264219" cx="147.84" cy="895.54" r="15.76" transform="translate(-490.07 249.84) rotate(-35.28)"/><circle class="eea2a76b-7265-4a61-b774-c05aef264219" cx="147.84" cy="895.54" r="15.51" transform="translate(-490.07 249.84) rotate(-35.28)"/><circle class="eea2a76b-7265-4a61-b774-c05aef264219" cx="147.84" cy="895.54" r="15.26" transform="translate(-490.07 249.84) rotate(-35.28)"/><circle class="eea2a76b-7265-4a61-b774-c05aef264219" cx="147.84" cy="895.54" r="15.01" transform="translate(-490.07 249.84) rotate(-35.28)"/><circle class="eea2a76b-7265-4a61-b774-c05aef264219" cx="147.84" cy="895.54" r="14.76" transform="translate(-490.07 249.84) rotate(-35.28)"/><circle class="eea2a76b-7265-4a61-b774-c05aef264219" cx="147.84" cy="895.54" r="14.51" transform="translate(-490.07 249.84) rotate(-35.28)"/><circle class="eea2a76b-7265-4a61-b774-c05aef264219" cx="147.84" cy="895.54" r="14.26" transform="translate(-490.07 249.84) rotate(-35.28)"/><circle class="eea2a76b-7265-4a61-b774-c05aef264219" cx="147.84" cy="895.54" r="14.01" transform="translate(-490.07 249.84) rotate(-35.28)"/><circle class="eea2a76b-7265-4a61-b774-c05aef264219" cx="147.84" cy="895.54" r="13.76" transform="translate(-490.07 249.84) rotate(-35.28)"/><circle class="eea2a76b-7265-4a61-b774-c05aef264219" cx="147.84" cy="895.54" r="13.51" transform="translate(-490.07 249.84) rotate(-35.28)"/><circle class="eea2a76b-7265-4a61-b774-c05aef264219" cx="147.84" cy="895.54" r="13.26" transform="translate(-490.07 249.84) rotate(-35.28)"/><circle class="eea2a76b-7265-4a61-b774-c05aef264219" cx="147.84" cy="895.54" r="13.01" transform="translate(-490.07 249.84) rotate(-35.28)"/><circle class="eea2a76b-7265-4a61-b774-c05aef264219" cx="147.84" cy="895.54" r="12.76" transform="translate(-490.07 249.84) rotate(-35.28)"/><circle class="eea2a76b-7265-4a61-b774-c05aef264219" cx="147.84" cy="895.54" r="12.51" transform="translate(-490.07 249.84) rotate(-35.28)"/><circle class="eea2a76b-7265-4a61-b774-c05aef264219" cx="147.84" cy="895.54" r="12.26" transform="translate(-490.07 249.84) rotate(-35.28)"/><circle class="eea2a76b-7265-4a61-b774-c05aef264219" cx="147.84" cy="895.54" r="12.01" transform="translate(-490.07 249.84) rotate(-35.28)"/><circle class="eea2a76b-7265-4a61-b774-c05aef264219" cx="147.84" cy="895.54" r="11.76" transform="translate(-490.07 249.84) rotate(-35.28)"/><circle class="eea2a76b-7265-4a61-b774-c05aef264219" cx="147.84" cy="895.54" r="11.51" transform="translate(-490.07 249.84) rotate(-35.28)"/><circle class="eea2a76b-7265-4a61-b774-c05aef264219" cx="147.84" cy="895.54" r="11.26" transform="translate(-490.07 249.84) rotate(-35.28)"/><circle class="eea2a76b-7265-4a61-b774-c05aef264219" cx="147.84" cy="895.54" r="11.01" transform="translate(-490.07 249.84) rotate(-35.28)"/><circle class="eea2a76b-7265-4a61-b774-c05aef264219" cx="147.84" cy="895.54" r="10.76" transform="translate(-490.07 249.84) rotate(-35.28)"/><circle class="eea2a76b-7265-4a61-b774-c05aef264219" cx="147.84" cy="895.54" r="10.51" transform="translate(-490.07 249.84) rotate(-35.28)"/><circle class="eea2a76b-7265-4a61-b774-c05aef264219" cx="147.84" cy="895.54" r="10.26" transform="translate(-490.07 249.84) rotate(-35.28)"/><circle class="eea2a76b-7265-4a61-b774-c05aef264219" cx="147.84" cy="895.54" r="10.01" transform="translate(-490.07 249.84) rotate(-35.28)"/><circle class="eea2a76b-7265-4a61-b774-c05aef264219" cx="147.84" cy="895.54" r="9.76" transform="translate(-490.07 249.84) rotate(-35.28)"/><circle class="eea2a76b-7265-4a61-b774-c05aef264219" cx="147.84" cy="895.54" r="9.51" transform="translate(-490.07 249.84) rotate(-35.28)"/><circle class="eea2a76b-7265-4a61-b774-c05aef264219" cx="147.84" cy="895.54" r="9.26" transform="translate(-490.07 249.84) rotate(-35.28)"/><circle class="eea2a76b-7265-4a61-b774-c05aef264219" cx="147.84" cy="895.54" r="9.01" transform="translate(-490.07 249.84) rotate(-35.28)"/><circle class="eea2a76b-7265-4a61-b774-c05aef264219" cx="147.84" cy="895.54" r="8.76" transform="translate(-490.07 249.84) rotate(-35.28)"/><circle class="eea2a76b-7265-4a61-b774-c05aef264219" cx="147.84" cy="895.54" r="8.51" transform="translate(-490.07 249.84) rotate(-35.28)"/><circle class="eea2a76b-7265-4a61-b774-c05aef264219" cx="147.84" cy="895.54" r="8.26" transform="translate(-490.07 249.84) rotate(-35.28)"/><circle class="eea2a76b-7265-4a61-b774-c05aef264219" cx="147.84" cy="895.54" r="8.01" transform="translate(-490.07 249.84) rotate(-35.28)"/><circle class="eea2a76b-7265-4a61-b774-c05aef264219" cx="147.84" cy="895.54" r="7.76" transform="translate(-490.07 249.84) rotate(-35.28)"/><circle class="eea2a76b-7265-4a61-b774-c05aef264219" cx="147.84" cy="895.54" r="7.5" transform="translate(-490.07 249.84) rotate(-35.28)"/><circle class="eea2a76b-7265-4a61-b774-c05aef264219" cx="147.84" cy="895.54" r="7.25" transform="translate(-490.07 249.84) rotate(-35.28)"/><circle class="eea2a76b-7265-4a61-b774-c05aef264219" cx="147.84" cy="895.54" r="7" transform="translate(-490.07 249.84) rotate(-35.28)"/><circle class="eea2a76b-7265-4a61-b774-c05aef264219" cx="147.84" cy="895.54" r="6.75" transform="translate(-490.07 249.84) rotate(-35.28)"/><circle class="eea2a76b-7265-4a61-b774-c05aef264219" cx="147.84" cy="895.54" r="6.5" transform="translate(-490.07 249.84) rotate(-35.28)"/><circle class="eea2a76b-7265-4a61-b774-c05aef264219" cx="147.84" cy="895.54" r="6.25" transform="translate(-490.07 249.84) rotate(-35.28)"/><circle class="eea2a76b-7265-4a61-b774-c05aef264219" cx="147.84" cy="895.54" r="6" transform="translate(-490.07 249.84) rotate(-35.28)"/><circle class="eea2a76b-7265-4a61-b774-c05aef264219" cx="147.84" cy="895.54" r="5.75" transform="translate(-490.07 249.84) rotate(-35.28)"/><circle class="eea2a76b-7265-4a61-b774-c05aef264219" cx="147.84" cy="895.54" r="5.5" transform="translate(-490.07 249.84) rotate(-35.28)"/><circle class="eea2a76b-7265-4a61-b774-c05aef264219" cx="147.84" cy="895.54" r="5.25" transform="translate(-490.07 249.84) rotate(-35.28)"/><circle class="eea2a76b-7265-4a61-b774-c05aef264219" cx="147.84" cy="895.54" r="5" transform="translate(-490.07 249.84) rotate(-35.28)"/><circle class="eea2a76b-7265-4a61-b774-c05aef264219" cx="147.84" cy="895.54" r="4.75" transform="translate(-490.07 249.84) rotate(-35.28)"/><circle class="eea2a76b-7265-4a61-b774-c05aef264219" cx="147.84" cy="895.54" r="4.5" transform="translate(-490.07 249.84) rotate(-35.28)"/><circle class="eea2a76b-7265-4a61-b774-c05aef264219" cx="147.84" cy="895.54" r="4.25" transform="translate(-490.07 249.84) rotate(-35.28)"/><circle class="eea2a76b-7265-4a61-b774-c05aef264219" cx="147.84" cy="895.54" r="4" transform="translate(-490.07 249.84) rotate(-35.28)"/><circle class="eea2a76b-7265-4a61-b774-c05aef264219" cx="147.84" cy="895.54" r="3.75" transform="translate(-490.07 249.84) rotate(-35.28)"/><circle class="eea2a76b-7265-4a61-b774-c05aef264219" cx="147.84" cy="895.54" r="3.5" transform="translate(-490.07 249.84) rotate(-35.28)"/><circle class="eea2a76b-7265-4a61-b774-c05aef264219" cx="147.84" cy="895.54" r="3.25" transform="translate(-490.07 249.84) rotate(-35.28)"/><circle class="eea2a76b-7265-4a61-b774-c05aef264219" cx="147.84" cy="895.54" r="3" transform="translate(-490.07 249.84) rotate(-35.28)"/><circle class="eea2a76b-7265-4a61-b774-c05aef264219" cx="147.84" cy="895.54" r="2.75" transform="matrix(0.82, -0.58, 0.58, 0.82, -490.07, 249.84)"/><circle class="eea2a76b-7265-4a61-b774-c05aef264219" cx="147.84" cy="895.54" r="2.5" transform="translate(-490.07 249.84) rotate(-35.28)"/><circle class="eea2a76b-7265-4a61-b774-c05aef264219" cx="147.84" cy="895.54" r="2.25" transform="translate(-490.07 249.84) rotate(-35.28)"/><circle class="eea2a76b-7265-4a61-b774-c05aef264219" cx="147.84" cy="895.54" r="2" transform="translate(-490.07 249.84) rotate(-35.28)"/><circle class="eea2a76b-7265-4a61-b774-c05aef264219" cx="147.84" cy="895.54" r="1.75" transform="translate(-490.07 249.84) rotate(-35.28)"/><circle class="eea2a76b-7265-4a61-b774-c05aef264219" cx="147.84" cy="895.54" r="1.5" transform="translate(-490.07 249.84) rotate(-35.28)"/><circle class="eea2a76b-7265-4a61-b774-c05aef264219" cx="147.84" cy="895.54" r="1.25" transform="translate(-490.07 249.84) rotate(-35.28)"/><circle class="eea2a76b-7265-4a61-b774-c05aef264219" cx="147.84" cy="895.54" r="1" transform="translate(-490.07 249.84) rotate(-35.28)"/><circle class="eea2a76b-7265-4a61-b774-c05aef264219" cx="147.84" cy="895.54" r="0.75" transform="translate(-490.07 249.84) rotate(-35.28)"/><circle class="eea2a76b-7265-4a61-b774-c05aef264219" cx="147.84" cy="895.54" r="0.5" transform="translate(-490.07 249.84) rotate(-35.28)"/><circle class="eea2a76b-7265-4a61-b774-c05aef264219" cx="147.84" cy="895.54" r="0.25" transform="translate(-490.07 249.84) rotate(-35.28)"/></g></g><polygon class="784cc506-f6f6-4996-9141-942b256486b5" points="133.05 832.77 157.48 864.69 197.55 861.45 174.74 894.55 190.21 931.65 151.68 920.19 121.17 946.37 120.17 906.18 85.85 885.25 123.75 871.88 133.05 832.77"/><g class="1fc83164-4603-4f65-9522-34d500e5b39f"><g class="667e99ce-8557-4d96-a423-2fa2cc500997"><rect class="caa13a6e-746a-4d25-98e4-452ab3625914" x="93.53" y="833.04" width="111.6" height="113.46" transform="translate(-486.46 249.65) rotate(-35.28)"/><circle class="caa13a6e-746a-4d25-98e4-452ab3625914" cx="149.89" cy="890.52" r="56.29" transform="translate(-486.79 250.11) rotate(-35.28)"/><circle class="caa13a6e-746a-4d25-98e4-452ab3625914" cx="149.89" cy="890.52" r="56.04" transform="translate(-486.79 250.11) rotate(-35.28)"/><circle class="caa13a6e-746a-4d25-98e4-452ab3625914" cx="149.89" cy="890.52" r="55.79" transform="matrix(0.82, -0.58, 0.58, 0.82, -486.79, 250.11)"/><circle class="caa13a6e-746a-4d25-98e4-452ab3625914" cx="149.89" cy="890.52" r="55.54" transform="translate(-486.79 250.11) rotate(-35.28)"/><circle class="caa13a6e-746a-4d25-98e4-452ab3625914" cx="149.89" cy="890.52" r="55.29" transform="translate(-486.79 250.11) rotate(-35.28)"/><circle class="caa13a6e-746a-4d25-98e4-452ab3625914" cx="149.89" cy="890.52" r="55.04" transform="translate(-486.79 250.11) rotate(-35.28)"/><circle class="caa13a6e-746a-4d25-98e4-452ab3625914" cx="149.89" cy="890.52" r="54.79" transform="translate(-486.79 250.11) rotate(-35.28)"/><circle class="caa13a6e-746a-4d25-98e4-452ab3625914" cx="149.89" cy="890.52" r="54.54" transform="translate(-486.79 250.11) rotate(-35.28)"/><circle class="caa13a6e-746a-4d25-98e4-452ab3625914" cx="149.89" cy="890.52" r="54.29" transform="translate(-486.79 250.11) rotate(-35.28)"/><circle class="caa13a6e-746a-4d25-98e4-452ab3625914" cx="149.89" cy="890.52" r="54.03" transform="translate(-486.79 250.11) rotate(-35.28)"/><circle class="caa13a6e-746a-4d25-98e4-452ab3625914" cx="149.89" cy="890.52" r="53.78" transform="translate(-486.79 250.11) rotate(-35.28)"/><circle class="caa13a6e-746a-4d25-98e4-452ab3625914" cx="149.89" cy="890.52" r="53.53" transform="translate(-486.79 250.11) rotate(-35.28)"/><circle class="caa13a6e-746a-4d25-98e4-452ab3625914" cx="149.89" cy="890.52" r="53.28" transform="translate(-486.79 250.11) rotate(-35.28)"/><circle class="65e4e86e-d1c0-447e-b8e8-68f76361c6d9" cx="149.89" cy="890.52" r="53.03" transform="translate(-486.79 250.11) rotate(-35.28)"/><circle class="65e4e86e-d1c0-447e-b8e8-68f76361c6d9" cx="149.89" cy="890.52" r="52.78" transform="translate(-486.79 250.11) rotate(-35.28)"/><circle class="65e4e86e-d1c0-447e-b8e8-68f76361c6d9" cx="149.89" cy="890.52" r="52.53" transform="translate(-486.79 250.11) rotate(-35.28)"/><circle class="65e4e86e-d1c0-447e-b8e8-68f76361c6d9" cx="149.89" cy="890.52" r="52.28" transform="translate(-486.79 250.11) rotate(-35.28)"/><circle class="65e4e86e-d1c0-447e-b8e8-68f76361c6d9" cx="149.89" cy="890.52" r="52.03" transform="translate(-486.79 250.11) rotate(-35.28)"/><circle class="ff22fe6b-9b53-4bc7-b950-cba1475c2040" cx="149.89" cy="890.52" r="51.78" transform="translate(-486.79 250.11) rotate(-35.28)"/><circle class="ff22fe6b-9b53-4bc7-b950-cba1475c2040" cx="149.89" cy="890.52" r="51.53" transform="translate(-486.79 250.11) rotate(-35.28)"/><circle class="ff22fe6b-9b53-4bc7-b950-cba1475c2040" cx="149.89" cy="890.52" r="51.28" transform="translate(-486.79 250.11) rotate(-35.28)"/><circle class="f80b6d9d-26b3-4917-a027-f2eab4a0ac8c" cx="149.89" cy="890.52" r="51.03" transform="translate(-486.79 250.11) rotate(-35.28)"/><circle class="f80b6d9d-26b3-4917-a027-f2eab4a0ac8c" cx="149.89" cy="890.52" r="50.78" transform="translate(-486.79 250.11) rotate(-35.28)"/><circle class="f80b6d9d-26b3-4917-a027-f2eab4a0ac8c" cx="149.89" cy="890.52" r="50.53" transform="translate(-486.79 250.11) rotate(-35.28)"/><circle class="f80b6d9d-26b3-4917-a027-f2eab4a0ac8c" cx="149.89" cy="890.52" r="50.28" transform="matrix(0.82, -0.58, 0.58, 0.82, -486.79, 250.11)"/><circle class="f80b6d9d-26b3-4917-a027-f2eab4a0ac8c" cx="149.89" cy="890.52" r="50.03" transform="translate(-486.79 250.11) rotate(-35.28)"/><circle class="f80b6d9d-26b3-4917-a027-f2eab4a0ac8c" cx="149.89" cy="890.52" r="49.78" transform="translate(-486.79 250.11) rotate(-35.28)"/><circle class="0bd6d277-ac3e-4ec2-9b25-99d03fbdd2b9" cx="149.89" cy="890.52" r="49.53" transform="translate(-486.79 250.11) rotate(-35.28)"/><circle class="0bd6d277-ac3e-4ec2-9b25-99d03fbdd2b9" cx="149.89" cy="890.52" r="49.28" transform="matrix(0.82, -0.58, 0.58, 0.82, -486.79, 250.11)"/><circle class="0bd6d277-ac3e-4ec2-9b25-99d03fbdd2b9" cx="149.89" cy="890.52" r="49.03" transform="translate(-486.79 250.11) rotate(-35.28)"/><circle class="6ba6cbfa-451d-4883-8417-a60d107ebd81" cx="149.89" cy="890.52" r="48.78" transform="translate(-486.79 250.11) rotate(-35.28)"/><circle class="6ba6cbfa-451d-4883-8417-a60d107ebd81" cx="149.89" cy="890.52" r="48.53" transform="translate(-486.79 250.11) rotate(-35.28)"/><circle class="7ec5e742-232c-49d2-b361-85491f8d50a7" cx="149.89" cy="890.52" r="48.28" transform="translate(-486.79 250.11) rotate(-35.28)"/><circle class="7ec5e742-232c-49d2-b361-85491f8d50a7" cx="149.89" cy="890.52" r="48.03" transform="translate(-486.79 250.11) rotate(-35.28)"/><circle class="7ec5e742-232c-49d2-b361-85491f8d50a7" cx="149.89" cy="890.52" r="47.78" transform="translate(-486.79 250.11) rotate(-35.28)"/><circle class="7ec5e742-232c-49d2-b361-85491f8d50a7" cx="149.89" cy="890.52" r="47.53" transform="translate(-486.79 250.11) rotate(-35.28)"/><circle class="ae02986c-dade-4ac3-8913-2f7556f24a0c" cx="149.89" cy="890.52" r="47.28" transform="translate(-486.79 250.11) rotate(-35.28)"/><circle class="ae02986c-dade-4ac3-8913-2f7556f24a0c" cx="149.89" cy="890.52" r="47.03" transform="translate(-486.79 250.11) rotate(-35.28)"/><circle class="a8cb00ec-66f3-4a43-9515-608a1dabbae3" cx="149.89" cy="890.52" r="46.78" transform="translate(-486.79 250.11) rotate(-35.28)"/><circle class="7b097f0a-f6be-4574-871b-acb968d946d5" cx="149.89" cy="890.52" r="46.53" transform="translate(-486.79 250.11) rotate(-35.28)"/><circle class="7b097f0a-f6be-4574-871b-acb968d946d5" cx="149.89" cy="890.52" r="46.28" transform="matrix(0.82, -0.58, 0.58, 0.82, -486.79, 250.11)"/><circle class="7b097f0a-f6be-4574-871b-acb968d946d5" cx="149.89" cy="890.52" r="46.03" transform="translate(-486.79 250.11) rotate(-35.28)"/><circle class="23d7afbd-0393-4ad2-8b98-09e41b677cde" cx="149.89" cy="890.52" r="45.78" transform="translate(-486.79 250.11) rotate(-35.28)"/><circle class="23d7afbd-0393-4ad2-8b98-09e41b677cde" cx="149.89" cy="890.52" r="45.53" transform="translate(-486.79 250.11) rotate(-35.28)"/><circle class="23d7afbd-0393-4ad2-8b98-09e41b677cde" cx="149.89" cy="890.52" r="45.28" transform="translate(-486.79 250.11) rotate(-35.28)"/><circle class="db416e39-acbd-40a5-9abb-59402a383bc5" cx="149.89" cy="890.52" r="45.03" transform="translate(-486.79 250.11) rotate(-35.28)"/><circle class="db416e39-acbd-40a5-9abb-59402a383bc5" cx="149.89" cy="890.52" r="44.78" transform="translate(-486.79 250.11) rotate(-35.28)"/><circle class="db416e39-acbd-40a5-9abb-59402a383bc5" cx="149.89" cy="890.52" r="44.53" transform="translate(-486.79 250.11) rotate(-35.28)"/><circle class="25f69f78-59a2-443b-b1d1-c536c34f4291" cx="149.89" cy="890.52" r="44.28" transform="translate(-486.79 250.11) rotate(-35.28)"/><circle class="25f69f78-59a2-443b-b1d1-c536c34f4291" cx="149.89" cy="890.52" r="44.03" transform="translate(-486.79 250.11) rotate(-35.28)"/><circle class="01fa4054-1c7c-423b-86c5-c403bdae4802" cx="149.89" cy="890.52" r="43.78" transform="translate(-486.79 250.11) rotate(-35.28)"/><circle class="01fa4054-1c7c-423b-86c5-c403bdae4802" cx="149.89" cy="890.52" r="43.53" transform="translate(-486.79 250.11) rotate(-35.28)"/><circle class="01fa4054-1c7c-423b-86c5-c403bdae4802" cx="149.89" cy="890.52" r="43.28" transform="translate(-486.79 250.11) rotate(-35.28)"/><circle class="c05ba697-ff23-4e30-8c34-d7d6759f7daf" cx="149.89" cy="890.52" r="43.03" transform="translate(-486.79 250.11) rotate(-35.28)"/><circle class="c05ba697-ff23-4e30-8c34-d7d6759f7daf" cx="149.89" cy="890.52" r="42.78" transform="translate(-486.79 250.11) rotate(-35.28)"/><circle class="d8959127-3eb5-476c-a063-0abd41d8674b" cx="149.89" cy="890.52" r="42.53" transform="translate(-486.79 250.11) rotate(-35.28)"/><circle class="d8959127-3eb5-476c-a063-0abd41d8674b" cx="149.89" cy="890.52" r="42.28" transform="translate(-486.79 250.11) rotate(-35.28)"/><circle class="f884d87c-5f6c-4db6-b34a-e8217e27fd90" cx="149.89" cy="890.52" r="42.03" transform="translate(-486.79 250.11) rotate(-35.28)"/><circle class="f884d87c-5f6c-4db6-b34a-e8217e27fd90" cx="149.89" cy="890.52" r="41.78" transform="translate(-486.79 250.11) rotate(-35.28)"/><circle class="f884d87c-5f6c-4db6-b34a-e8217e27fd90" cx="149.89" cy="890.52" r="41.53" transform="translate(-486.79 250.11) rotate(-35.28)"/><circle class="6f524d5d-aaef-4580-b348-0bfb83dd1e50" cx="149.89" cy="890.52" r="41.28" transform="translate(-486.79 250.11) rotate(-35.28)"/><circle class="6f524d5d-aaef-4580-b348-0bfb83dd1e50" cx="149.89" cy="890.52" r="41.03" transform="translate(-486.79 250.11) rotate(-35.28)"/><circle class="1b1c439c-563b-41e8-b0dd-bea48492e20f" cx="149.89" cy="890.52" r="40.78" transform="translate(-486.79 250.11) rotate(-35.28)"/><circle class="1b1c439c-563b-41e8-b0dd-bea48492e20f" cx="149.89" cy="890.52" r="40.53" transform="translate(-486.79 250.11) rotate(-35.28)"/><circle class="87ea0039-5c73-4786-840b-77d0f35f9bfd" cx="149.89" cy="890.52" r="40.28" transform="matrix(0.82, -0.58, 0.58, 0.82, -486.79, 250.11)"/><circle class="a510a9c8-f8a7-4df8-9788-52ca878d2648" cx="149.89" cy="890.52" r="40.03" transform="translate(-486.79 250.11) rotate(-35.28)"/><circle class="a510a9c8-f8a7-4df8-9788-52ca878d2648" cx="149.89" cy="890.52" r="39.78" transform="translate(-486.79 250.11) rotate(-35.28)"/><circle class="8628575a-5360-4108-8c2a-d7445354bee1" cx="149.89" cy="890.52" r="39.53" transform="translate(-486.79 250.11) rotate(-35.28)"/><circle class="5becabbe-889c-4717-8f7c-7c7c236ace73" cx="149.89" cy="890.52" r="39.28" transform="translate(-486.79 250.11) rotate(-35.28)"/><circle class="98d53d11-d036-4764-a3ae-d0e8bc058a2d" cx="149.89" cy="890.52" r="39.03" transform="translate(-486.79 250.11) rotate(-35.28)"/><circle class="98d53d11-d036-4764-a3ae-d0e8bc058a2d" cx="149.89" cy="890.52" r="38.78" transform="translate(-486.79 250.11) rotate(-35.28)"/><circle class="c3fafe1b-ba79-42dc-af60-a8da3388e158" cx="149.89" cy="890.52" r="38.52" transform="translate(-486.79 250.11) rotate(-35.28)"/><circle class="3a20d1e8-49eb-4475-8b35-bee856b7aba4" cx="149.89" cy="890.52" r="38.27" transform="translate(-486.79 250.11) rotate(-35.28)"/><circle class="3a20d1e8-49eb-4475-8b35-bee856b7aba4" cx="149.89" cy="890.52" r="38.02" transform="translate(-486.79 250.11) rotate(-35.28)"/><circle class="0ba2cc0c-c1db-434e-9b52-865d635985ce" cx="149.89" cy="890.52" r="37.77" transform="translate(-486.79 250.11) rotate(-35.28)"/><circle class="2a91e8c7-e696-46ea-b035-d52bca3be894" cx="149.89" cy="890.52" r="37.52" transform="translate(-486.79 250.11) rotate(-35.28)"/><circle class="13e66f4b-e6c0-4eec-ae4e-9a6e2b1e685f" cx="149.89" cy="890.52" r="37.27" transform="translate(-486.79 250.11) rotate(-35.28)"/><circle class="d155aa0b-a923-4e35-a749-2d27671a0fa5" cx="149.89" cy="890.52" r="37.02" transform="translate(-486.79 250.11) rotate(-35.28)"/><circle class="ff130568-2fdf-467c-b2a3-073614a2681d" cx="149.89" cy="890.52" r="36.77" transform="translate(-486.79 250.11) rotate(-35.28)"/><circle class="74aae60c-c001-4e4f-b131-bf10c418747e" cx="149.89" cy="890.52" r="36.52" transform="translate(-486.79 250.11) rotate(-35.28)"/><circle class="b968dbd0-da35-4725-8b82-65849ccf77cb" cx="149.89" cy="890.52" r="36.27" transform="translate(-486.79 250.11) rotate(-35.28)"/><circle class="b13b3f47-b796-4848-a7c4-c3dedf61f18e" cx="149.89" cy="890.52" r="36.02" transform="translate(-486.79 250.11) rotate(-35.28)"/><circle class="0b289cf7-8a84-4e9d-8e77-e6a3bad9cfa1" cx="149.89" cy="890.52" r="35.77" transform="translate(-486.79 250.11) rotate(-35.28)"/><circle class="1da9322e-d443-4456-894b-c3f4baf019dd" cx="149.89" cy="890.52" r="35.52" transform="translate(-486.79 250.11) rotate(-35.28)"/><circle class="dfe39ec2-362b-4227-9d73-a88636e99108" cx="149.89" cy="890.52" r="35.27" transform="translate(-486.79 250.11) rotate(-35.28)"/><circle class="f1393fef-712b-40bb-9b02-af083364a48e" cx="149.89" cy="890.52" r="35.02" transform="translate(-486.79 250.11) rotate(-35.28)"/><circle class="0b9e3b8d-bb24-49b6-bb63-b26562cc2f31" cx="149.89" cy="890.52" r="34.77" transform="translate(-486.79 250.11) rotate(-35.28)"/><circle class="1f463cdb-4d6e-41b4-ac71-d18b4578e440" cx="149.89" cy="890.52" r="34.52" transform="translate(-486.79 250.11) rotate(-35.28)"/><circle class="1f463cdb-4d6e-41b4-ac71-d18b4578e440" cx="149.89" cy="890.52" r="34.27" transform="translate(-486.79 250.11) rotate(-35.28)"/><circle class="f071d931-a808-46e7-82cd-93e6d7c3bdda" cx="149.89" cy="890.52" r="34.02" transform="translate(-486.79 250.11) rotate(-35.28)"/><circle class="5680978a-0ba1-4154-ab7d-1b65203bd26c" cx="149.89" cy="890.52" r="33.77" transform="translate(-486.79 250.11) rotate(-35.28)"/><circle class="b78984e3-51ac-45ed-9446-cd9d35bf5374" cx="149.89" cy="890.52" r="33.52" transform="translate(-486.79 250.11) rotate(-35.28)"/><circle class="9c96332f-3269-4883-b540-258e44f7c270" cx="149.89" cy="890.52" r="33.27" transform="translate(-486.79 250.11) rotate(-35.28)"/><circle class="95905ed0-f3a1-4de0-a446-ca3653f739d9" cx="149.89" cy="890.52" r="33.02" transform="translate(-486.79 250.11) rotate(-35.28)"/><circle class="ab4e2f28-bb99-4591-8f9a-78bb8e256db0" cx="149.89" cy="890.52" r="32.77" transform="translate(-486.79 250.11) rotate(-35.28)"/><circle class="aebb5d55-57d8-4c02-8070-8b916224e2f0" cx="149.89" cy="890.52" r="32.52" transform="translate(-486.79 250.11) rotate(-35.28)"/><circle class="fe5a3937-6224-4603-9d6d-4e3d5d8ba51f" cx="149.89" cy="890.52" r="32.27" transform="translate(-486.79 250.11) rotate(-35.28)"/><circle class="fe5a3937-6224-4603-9d6d-4e3d5d8ba51f" cx="149.89" cy="890.52" r="32.02" transform="translate(-486.79 250.11) rotate(-35.28)"/><circle class="0858c68e-2531-4137-89a3-9373ee5e9df9" cx="149.89" cy="890.52" r="31.77" transform="translate(-486.79 250.11) rotate(-35.28)"/><circle class="e41e781f-5067-4ef7-832d-ac418d8317a2" cx="149.89" cy="890.52" r="31.52" transform="translate(-486.79 250.11) rotate(-35.28)"/><circle class="9fffa34d-2440-47d6-924a-216deeffc9fb" cx="149.89" cy="890.52" r="31.27" transform="translate(-486.79 250.11) rotate(-35.28)"/><circle class="b494b055-d7e3-4b2c-ab1b-1f94217bee17" cx="149.89" cy="890.52" r="31.02" transform="translate(-486.79 250.11) rotate(-35.28)"/><circle class="441dbfcd-593a-422d-abf7-fb6c9e288193" cx="149.89" cy="890.52" r="30.77" transform="translate(-486.79 250.11) rotate(-35.28)"/><circle class="cf1ba24c-025e-4f56-85a0-2127e69bfd97" cx="149.89" cy="890.52" r="30.52" transform="translate(-486.79 250.11) rotate(-35.28)"/><circle class="4aa018cb-8567-4989-a74c-ac06c07fa448" cx="149.89" cy="890.52" r="30.27" transform="translate(-486.79 250.11) rotate(-35.28)"/><circle class="4ce8335e-7c1c-44b7-9162-5f5139d7f77a" cx="149.89" cy="890.52" r="30.02" transform="translate(-486.79 250.11) rotate(-35.28)"/><circle class="fdb40a28-5610-486b-a455-95e833184073" cx="149.89" cy="890.52" r="29.77" transform="translate(-486.79 250.11) rotate(-35.28)"/><circle class="4ade2bee-fedd-4520-b1af-88371bf2dbe2" cx="149.89" cy="890.52" r="29.52" transform="translate(-486.79 250.11) rotate(-35.28)"/><circle class="d473fce4-7297-4f83-9683-5bfd141d469e" cx="149.89" cy="890.52" r="29.27" transform="translate(-486.79 250.11) rotate(-35.28)"/><circle class="f7d55aa0-9874-459e-8618-c2684ead2f9d" cx="149.89" cy="890.52" r="29.02" transform="translate(-486.79 250.11) rotate(-35.28)"/><circle class="89b74524-ec0d-4906-a4c4-ebf856be0d53" cx="149.89" cy="890.52" r="28.77" transform="translate(-486.79 250.11) rotate(-35.28)"/><circle class="9ef664b0-18a0-481d-9f93-d02dfb4b4f3e" cx="149.89" cy="890.52" r="28.52" transform="translate(-486.79 250.11) rotate(-35.28)"/><circle class="b54e4750-ba10-46d0-a5df-7a240eeccda1" cx="149.89" cy="890.52" r="28.27" transform="translate(-486.79 250.11) rotate(-35.28)"/><circle class="3bcdabe5-d5a3-4954-b4dc-669f14bb8b1a" cx="149.89" cy="890.52" r="28.02" transform="translate(-486.79 250.11) rotate(-35.28)"/><circle class="774f5a66-2335-4dc0-b533-b5d4f63c5641" cx="149.89" cy="890.52" r="27.77" transform="translate(-486.79 250.11) rotate(-35.28)"/><circle class="00939ae5-34bb-42a5-9dd1-28534be10959" cx="149.89" cy="890.52" r="27.52" transform="translate(-486.79 250.11) rotate(-35.28)"/><circle class="b37948e6-104c-4f93-9ee4-bf538e97912f" cx="149.89" cy="890.52" r="27.27" transform="translate(-486.79 250.11) rotate(-35.28)"/><circle class="9095f952-a2b8-4569-b9f4-afb6a9347c6d" cx="149.89" cy="890.52" r="27.02" transform="translate(-486.79 250.11) rotate(-35.28)"/><circle class="183dd699-2031-4846-b91e-c48d614a6d86" cx="149.89" cy="890.52" r="26.77" transform="translate(-486.79 250.11) rotate(-35.28)"/><circle class="6611523b-94fe-40c1-803c-67affc0cb316" cx="149.89" cy="890.52" r="26.52" transform="translate(-486.79 250.11) rotate(-35.28)"/><circle class="c3cc8d51-31c0-4f23-b116-8ad28e6b648f" cx="149.89" cy="890.52" r="26.27" transform="translate(-486.79 250.11) rotate(-35.28)"/><circle class="118c03e5-47f8-4b0b-8ad0-50bd110f5a63" cx="149.89" cy="890.52" r="26.02" transform="translate(-486.79 250.11) rotate(-35.28)"/><circle class="dbc36401-b54c-400f-86d3-e438eef5c6e1" cx="149.89" cy="890.52" r="25.77" transform="translate(-486.79 250.11) rotate(-35.28)"/><circle class="7ece6d98-9563-46f1-a721-0dc24397bf4e" cx="149.89" cy="890.52" r="25.52" transform="translate(-486.79 250.11) rotate(-35.28)"/><circle class="fcf96500-1eab-4828-9c66-c1878bfc6498" cx="149.89" cy="890.52" r="25.27" transform="translate(-486.79 250.11) rotate(-35.28)"/><circle class="eae71ef5-c91f-4be7-8be9-f08e351db3b7" cx="149.89" cy="890.52" r="25.02" transform="translate(-486.79 250.11) rotate(-35.28)"/><circle class="dec863ea-b30b-4feb-a050-b54dfb4f634b" cx="149.89" cy="890.52" r="24.77" transform="translate(-486.79 250.11) rotate(-35.28)"/><circle class="3cdd990b-4bcf-486d-a482-c3ae7dadb726" cx="149.89" cy="890.52" r="24.52" transform="translate(-486.79 250.11) rotate(-35.28)"/><circle class="b622ca4b-c4d5-4e9e-80de-b5985634267c" cx="149.89" cy="890.52" r="24.27" transform="translate(-486.79 250.11) rotate(-35.28)"/><circle class="632e6752-fa79-4e5c-b593-646d5118f22e" cx="149.89" cy="890.52" r="24.02" transform="translate(-486.79 250.11) rotate(-35.28)"/><circle class="03ec7a18-fea1-453a-991a-bdd04907f41a" cx="149.89" cy="890.52" r="23.77" transform="translate(-486.79 250.11) rotate(-35.28)"/><circle class="c4111c97-24de-46de-b19e-c36409dcd73d" cx="149.89" cy="890.52" r="23.52" transform="translate(-486.79 250.11) rotate(-35.28)"/><circle class="5e31811c-dbb7-46d7-b58a-9b0cd48bf17d" cx="149.89" cy="890.52" r="23.27" transform="translate(-486.79 250.11) rotate(-35.28)"/><circle class="e6875ff5-fdd5-46fc-9722-c0887addd627" cx="149.89" cy="890.52" r="23.01" transform="translate(-486.79 250.11) rotate(-35.28)"/><circle class="ba54444b-6215-4f02-8ff2-a205a695a769" cx="149.89" cy="890.52" r="22.76" transform="translate(-486.79 250.11) rotate(-35.28)"/><circle class="624c88b1-6c45-4c95-8725-486ca319e907" cx="149.89" cy="890.52" r="22.51" transform="translate(-486.79 250.11) rotate(-35.28)"/><circle class="b209023b-e453-4968-9599-96fc3e0c7a44" cx="149.89" cy="890.52" r="22.26" transform="translate(-486.79 250.11) rotate(-35.28)"/><circle class="cf072c0a-742f-4f1a-b37a-bd21fa533682" cx="149.89" cy="890.52" r="22.01" transform="translate(-486.79 250.11) rotate(-35.28)"/><circle class="50c23446-4505-487d-9665-cbf143e19ae9" cx="149.89" cy="890.52" r="21.76" transform="matrix(0.82, -0.58, 0.58, 0.82, -486.79, 250.11)"/><circle class="502f553d-c945-4981-a0c4-08e6bd9bb45c" cx="149.89" cy="890.52" r="21.51" transform="matrix(0.82, -0.58, 0.58, 0.82, -486.79, 250.11)"/><circle class="67b0cb6c-c72d-4a1c-8593-2718b44eff06" cx="149.89" cy="890.52" r="21.26" transform="translate(-486.79 250.11) rotate(-35.28)"/><circle class="23d00213-a6ed-4984-8848-e58e4a3fedcc" cx="149.89" cy="890.52" r="21.01" transform="translate(-486.79 250.11) rotate(-35.28)"/><circle class="f4308a05-a595-475a-a961-74de5f5e3976" cx="149.89" cy="890.52" r="20.76" transform="translate(-486.79 250.11) rotate(-35.28)"/><circle class="c58a5ce9-1e0e-4188-857e-9482fa5c61d2" cx="149.89" cy="890.52" r="20.51" transform="translate(-486.79 250.11) rotate(-35.28)"/><circle class="7fdbca56-1469-4de9-aaf5-c7c84076c6c8" cx="149.89" cy="890.52" r="20.26" transform="translate(-486.79 250.11) rotate(-35.28)"/><circle class="5f73cd6a-066f-4a97-99f6-182666bda91c" cx="149.89" cy="890.52" r="20.01" transform="translate(-486.79 250.11) rotate(-35.28)"/><circle class="f8b1d79b-0ba7-4d1c-ab4c-7a4f74fdd26a" cx="149.89" cy="890.52" r="19.76" transform="translate(-486.79 250.11) rotate(-35.28)"/><circle class="ec599fa9-51fb-48dc-bb0b-a867bec43aaa" cx="149.89" cy="890.52" r="19.51" transform="translate(-486.79 250.11) rotate(-35.28)"/><circle class="259df867-f680-4f89-99e4-6f83a7271489" cx="149.89" cy="890.52" r="19.26" transform="translate(-486.79 250.11) rotate(-35.28)"/><circle class="dcb14112-52ca-4ad6-894d-466786290370" cx="149.89" cy="890.52" r="19.01" transform="translate(-486.79 250.11) rotate(-35.28)"/><circle class="fb18c700-fc93-4d03-992a-564a305c5eec" cx="149.89" cy="890.52" r="18.76" transform="translate(-486.79 250.11) rotate(-35.28)"/><circle class="b0d7c47d-37c2-4963-9485-9ba77c8cfeb9" cx="149.89" cy="890.52" r="18.51" transform="translate(-486.79 250.11) rotate(-35.28)"/><circle class="4f4e694c-cc1b-4506-a0a4-3ecaa7773287" cx="149.89" cy="890.52" r="18.26" transform="translate(-486.79 250.11) rotate(-35.28)"/><circle class="991bd063-a520-47a4-9dd8-912ebe562c40" cx="149.89" cy="890.52" r="18.01" transform="translate(-486.79 250.11) rotate(-35.28)"/><circle class="e834e134-c290-4a31-8e61-57774c264a41" cx="149.89" cy="890.52" r="17.76" transform="translate(-486.79 250.11) rotate(-35.28)"/><circle class="8dc44cb3-ccaa-4766-80d6-9fdb2b09bdcc" cx="149.89" cy="890.52" r="17.51" transform="translate(-486.79 250.11) rotate(-35.28)"/><circle class="2c278830-844d-413d-8438-751f6bce8e1a" cx="149.89" cy="890.52" r="17.26" transform="translate(-486.79 250.11) rotate(-35.28)"/><circle class="01a37e64-b897-4f9c-82d6-92f8eaaf2886" cx="149.89" cy="890.52" r="17.01" transform="translate(-486.79 250.11) rotate(-35.28)"/><circle class="cbd2d854-4bed-4f6b-a604-5e756859e0d5" cx="149.89" cy="890.52" r="16.76" transform="translate(-486.79 250.11) rotate(-35.28)"/><circle class="aa4f6a06-0704-4f53-bef1-8321426e1b44" cx="149.89" cy="890.52" r="16.51" transform="translate(-486.79 250.11) rotate(-35.28)"/><circle class="cf3499c8-ddab-46a7-a5c8-49386a63f33d" cx="149.89" cy="890.52" r="16.26" transform="translate(-486.79 250.11) rotate(-35.28)"/><circle class="3866e50d-3b0d-441f-87c8-fd988b5e1353" cx="149.89" cy="890.52" r="16.01" transform="translate(-486.79 250.11) rotate(-35.28)"/><circle class="24cfebe0-c35e-4bf3-97a3-039e3c404b1d" cx="149.89" cy="890.52" r="15.76" transform="translate(-486.79 250.11) rotate(-35.28)"/><circle class="3826d67c-0cfd-4158-9bcb-7d7e1b9bae3a" cx="149.89" cy="890.52" r="15.51" transform="translate(-486.79 250.11) rotate(-35.28)"/><circle class="9d569194-9ab9-4fc1-a455-98417a447b45" cx="149.89" cy="890.52" r="15.26" transform="translate(-486.79 250.11) rotate(-35.28)"/><circle class="e0c3abe8-5839-412e-b6b3-ff005a2b6c6b" cx="149.89" cy="890.52" r="15.01" transform="translate(-486.79 250.11) rotate(-35.28)"/><circle class="b67ac003-a5f3-44fe-95c7-2a21633f5b5a" cx="149.89" cy="890.52" r="14.76" transform="translate(-486.79 250.11) rotate(-35.28)"/><circle class="794e0894-767f-4110-a486-a172ae4708e5" cx="149.89" cy="890.52" r="14.51" transform="translate(-486.79 250.11) rotate(-35.28)"/><circle class="a6f7dc71-0ad6-49c8-aaae-bfcf45565cc0" cx="149.89" cy="890.52" r="14.26" transform="translate(-486.79 250.11) rotate(-35.28)"/><circle class="01b94626-5b52-4106-92a6-809aba39a35d" cx="149.89" cy="890.52" r="14.01" transform="translate(-486.79 250.11) rotate(-35.28)"/><circle class="f5decddf-e6a6-4410-a4ef-69e1005b59b4" cx="149.89" cy="890.52" r="13.76" transform="translate(-486.79 250.11) rotate(-35.28)"/><circle class="98e4a45c-c60d-4a7c-8a3d-73aebe98a9ca" cx="149.89" cy="890.52" r="13.51" transform="translate(-486.79 250.11) rotate(-35.28)"/><circle class="2e590f40-ee65-46b9-a0dc-6a43d144fd2c" cx="149.89" cy="890.52" r="13.26" transform="translate(-486.79 250.11) rotate(-35.28)"/><circle class="668d8d17-677e-4e46-8de7-8d4b4ae56ba9" cx="149.89" cy="890.52" r="13.01" transform="translate(-486.79 250.11) rotate(-35.28)"/><circle class="e0586ac4-8a88-4dcc-b3df-5cc0d687e538" cx="149.89" cy="890.52" r="12.76" transform="translate(-486.79 250.11) rotate(-35.28)"/><circle class="7f44dda9-f516-4455-8b13-921e20cf2067" cx="149.89" cy="890.52" r="12.51" transform="translate(-486.79 250.11) rotate(-35.28)"/><circle class="fdbccbae-ee0f-4fda-8701-5ca6dda73703" cx="149.89" cy="890.52" r="12.26" transform="translate(-486.79 250.11) rotate(-35.28)"/><circle class="53a70c78-ffb1-43b3-b3dc-260447f4c317" cx="149.89" cy="890.52" r="12.01" transform="translate(-486.79 250.11) rotate(-35.28)"/><circle class="ea4e8816-598c-4ca1-99dd-5ccbfd0d4603" cx="149.89" cy="890.52" r="11.76" transform="translate(-486.79 250.11) rotate(-35.28)"/><circle class="42b699a8-4b4f-4d06-bdd3-390abd500fad" cx="149.89" cy="890.52" r="11.51" transform="translate(-486.79 250.11) rotate(-35.28)"/><circle class="e83a3d16-9d23-4efb-a5c1-b2478a4857b3" cx="149.89" cy="890.52" r="11.26" transform="translate(-486.79 250.11) rotate(-35.28)"/><circle class="96aac032-42d3-4498-80ba-231202d612ed" cx="149.89" cy="890.52" r="11.01" transform="translate(-486.79 250.11) rotate(-35.28)"/><circle class="e86ae935-8cc6-42a0-a316-03a5ca0a6681" cx="149.89" cy="890.52" r="10.76" transform="translate(-486.79 250.11) rotate(-35.28)"/><circle class="aadbb205-9310-442f-82e5-27b4e7d897f0" cx="149.89" cy="890.52" r="10.51" transform="translate(-486.79 250.11) rotate(-35.28)"/><circle class="0ce8575e-f97d-4c5c-8f83-3501ea47b33c" cx="149.89" cy="890.52" r="10.26" transform="translate(-486.79 250.11) rotate(-35.28)"/><circle class="b1088eb0-eb47-429d-8fe5-1a61b7f636c1" cx="149.89" cy="890.52" r="10.01" transform="translate(-486.79 250.11) rotate(-35.28)"/><circle class="b8cb82eb-c6e6-460c-933b-2cd6e3e448c7" cx="149.89" cy="890.52" r="9.76" transform="translate(-486.79 250.11) rotate(-35.28)"/><circle class="a72882e5-db07-43d3-bd37-caa0122eb37d" cx="149.89" cy="890.52" r="9.51" transform="translate(-486.79 250.11) rotate(-35.28)"/><circle class="0e859648-c4aa-42b8-a788-1d9f16d2d7e1" cx="149.89" cy="890.52" r="9.26" transform="translate(-486.79 250.11) rotate(-35.28)"/><circle class="6e6bdaa6-269d-41fb-ba79-19eb69d80d4d" cx="149.89" cy="890.52" r="9.01" transform="translate(-486.79 250.11) rotate(-35.28)"/><circle class="d0557220-bacf-47eb-9f40-306782019f40" cx="149.89" cy="890.52" r="8.76" transform="translate(-486.79 250.11) rotate(-35.28)"/><circle class="df7f9a6f-cb98-4e0f-8935-5292fb063e47" cx="149.89" cy="890.52" r="8.51" transform="translate(-486.79 250.11) rotate(-35.28)"/><circle class="a18e48df-8650-40b1-acb6-51bacaaefb02" cx="149.89" cy="890.52" r="8.26" transform="translate(-486.79 250.11) rotate(-35.28)"/><circle class="3878b781-785b-4c3c-a861-29fdd1e21017" cx="149.89" cy="890.52" r="8.01" transform="translate(-486.79 250.11) rotate(-35.28)"/><circle class="abf08680-7623-44e3-b2db-a445a1cc4335" cx="149.89" cy="890.52" r="7.76" transform="translate(-486.79 250.11) rotate(-35.28)"/><circle class="f55e7660-4387-49f0-b463-48d34c1a8d8b" cx="149.89" cy="890.52" r="7.5" transform="translate(-486.79 250.11) rotate(-35.28)"/><circle class="41b96aaf-fc97-4dc8-9517-27a5fceb2266" cx="149.89" cy="890.52" r="7.25" transform="translate(-486.79 250.11) rotate(-35.28)"/><circle class="48fe56f6-5582-40c8-b263-d6ae9c3ae621" cx="149.89" cy="890.52" r="7" transform="translate(-486.79 250.11) rotate(-35.28)"/><circle class="d2b5b990-141b-493e-ab27-428609ae6daa" cx="149.89" cy="890.52" r="6.75" transform="translate(-486.79 250.11) rotate(-35.28)"/><circle class="5ba4d349-48c1-4eb1-b200-3fa1f07b8f0a" cx="149.89" cy="890.52" r="6.5" transform="translate(-486.79 250.11) rotate(-35.28)"/><circle class="27d9aa5f-32a8-4370-aadb-1b7582568272" cx="149.89" cy="890.52" r="6.25" transform="translate(-486.79 250.11) rotate(-35.28)"/><circle class="52ebfba6-e252-466a-9088-063263a5f76d" cx="149.89" cy="890.52" r="6" transform="translate(-486.79 250.11) rotate(-35.28)"/><circle class="83c53e60-b574-4b9c-ab3d-53be3fecf404" cx="149.89" cy="890.52" r="5.75" transform="translate(-486.79 250.11) rotate(-35.28)"/><circle class="66bb5102-a57d-4801-be91-edc6bc481c86" cx="149.89" cy="890.52" r="5.5" transform="translate(-486.79 250.11) rotate(-35.28)"/><circle class="db1b7003-8893-4a73-ba60-868bcf66976b" cx="149.89" cy="890.52" r="5.25" transform="translate(-486.79 250.11) rotate(-35.28)"/><circle class="c36c5451-d2dc-4df6-a3b0-d15c73acae0a" cx="149.89" cy="890.52" r="5" transform="translate(-486.79 250.11) rotate(-35.28)"/><circle class="e7d2b2e4-1d80-40f3-b9c2-f3f9bdd5cc64" cx="149.89" cy="890.52" r="4.75" transform="translate(-486.79 250.11) rotate(-35.28)"/><circle class="7731e74c-1bf0-4dfc-9838-0468314f6974" cx="149.89" cy="890.52" r="4.5" transform="translate(-486.79 250.11) rotate(-35.28)"/><circle class="c2e08424-782c-45d0-beed-12f381450bf3" cx="149.89" cy="890.52" r="4.25" transform="translate(-486.79 250.11) rotate(-35.28)"/><circle class="c6db659f-c9a7-4d3b-9351-5ee62b24b2a0" cx="149.89" cy="890.52" r="4" transform="translate(-486.79 250.11) rotate(-35.28)"/><circle class="a4eb52fa-4fa1-4168-ad2d-1af9dd166bfa" cx="149.89" cy="890.52" r="3.75" transform="translate(-486.79 250.11) rotate(-35.28)"/><circle class="a07e97ae-693d-4e79-9f2a-01f7eea25c10" cx="149.89" cy="890.52" r="3.5" transform="translate(-486.79 250.11) rotate(-35.28)"/><circle class="65061f17-8a51-43aa-aa3b-006dc8423e1f" cx="149.89" cy="890.52" r="3.25" transform="translate(-486.79 250.11) rotate(-35.28)"/><circle class="d941793d-e1c7-4187-9614-90243a89b93a" cx="149.89" cy="890.52" r="3" transform="translate(-486.79 250.11) rotate(-35.28)"/><circle class="35c0869c-b95d-451e-a448-d4046cdad48e" cx="149.89" cy="890.52" r="2.75" transform="matrix(0.82, -0.58, 0.58, 0.82, -486.79, 250.11)"/><circle class="ad53171e-0369-472a-a10b-e38854acc8cd" cx="149.89" cy="890.52" r="2.5" transform="translate(-486.79 250.11) rotate(-35.28)"/><circle class="07fc865c-92f6-4f00-beb4-aa3e69f4f229" cx="149.89" cy="890.52" r="2.25" transform="translate(-486.79 250.11) rotate(-35.28)"/><circle class="eabebab3-86db-44cb-a7e6-40ebab28901c" cx="149.89" cy="890.52" r="2" transform="translate(-486.79 250.11) rotate(-35.28)"/><circle class="7ad74fed-2c5a-4e90-9f1e-6e1963b8efcc" cx="149.89" cy="890.52" r="1.75" transform="translate(-486.79 250.11) rotate(-35.28)"/><circle class="b418d4d0-8d4f-45ed-b010-c559398ded6b" cx="149.89" cy="890.52" r="1.5" transform="translate(-486.79 250.11) rotate(-35.28)"/><circle class="8e142ef0-6283-4db5-b4de-6220145725c4" cx="149.89" cy="890.52" r="1.25" transform="translate(-486.79 250.11) rotate(-35.28)"/><circle class="4db717bd-6a22-4e63-98f3-48377616e7d0" cx="149.89" cy="890.52" r="1" transform="translate(-486.79 250.11) rotate(-35.28)"/><circle class="7aac5f7e-e1be-4b98-a9fe-356f3796a08d" cx="149.89" cy="890.52" r="0.75" transform="translate(-486.79 250.11) rotate(-35.28)"/><circle class="94063a73-228b-42f1-b399-a4e1fe086f81" cx="149.89" cy="890.52" r="0.5" transform="translate(-486.79 250.11) rotate(-35.28)"/><circle class="603dc36a-e5ff-406d-9abd-434bcd8b9d2a" cx="149.89" cy="890.52" r="0.25" transform="translate(-486.79 250.11) rotate(-35.28)"/></g></g><g class="9753c6f3-239a-4266-ae26-aff299d6c8ee"><polygon class="603dc36a-e5ff-406d-9abd-434bcd8b9d2a" points="133.57 834.81 156.33 864.56 133.08 837.72 133.57 834.81"/></g><g class="9753c6f3-239a-4266-ae26-aff299d6c8ee"><polygon class="603dc36a-e5ff-406d-9abd-434bcd8b9d2a" points="157.98 865.67 195.6 862.22 173.92 893.32 192.09 864.51 157.98 865.67"/></g><g class="9753c6f3-239a-4266-ae26-aff299d6c8ee"><polygon class="603dc36a-e5ff-406d-9abd-434bcd8b9d2a" points="87.89 885.36 123.94 873.52 123.19 876.9 87.89 885.36"/></g><g class="0e357052-7f84-494e-8784-7350fe7c5df0"><polygon class="603dc36a-e5ff-406d-9abd-434bcd8b9d2a" points="132.92 841.53 130.4 850.44 134.67 844 141.48 850.01 133.26 839.59 132.92 841.53"/></g><path class="a1114283-6267-4be6-8a62-0e7bf9059bf1" d="M118.81,990.13L117.35,987a0.12,0.12,0,0,0-.15-0.06l-6.29,1.14a0.12,0.12,0,0,0-.12.1l-0.27,3.45a0.28,0.28,0,0,1-.25.29l-1.37.25a0.25,0.25,0,0,1-.21,0,0.24,0.24,0,0,1-.08-0.2l1.69-18.79a0.27,0.27,0,0,1,.25-0.29l1.68-.3a0.27,0.27,0,0,1,.33.18l8.16,17,0,0.07a0.22,0.22,0,0,1-.23.26l-1.39.25A0.28,0.28,0,0,1,118.81,990.13ZM111,986.46a0.13,0.13,0,0,0,.1,0l5.45-1a0.13,0.13,0,0,0,.08-0.06s0-.05,0-0.07l-4.7-10.08a0.08,0.08,0,0,0-.06,0,0.07,0.07,0,0,0,0,.06l-0.85,11.08S110.93,986.43,111,986.46Z"/><path class="a1114283-6267-4be6-8a62-0e7bf9059bf1" d="M125.54,988.86L124.13,981a0.21,0.21,0,0,0,0-.13l-6.33-9,0-.1a0.2,0.2,0,0,1,.2-0.25l1.42-.26a0.29,0.29,0,0,1,.33.16l4.95,7.23a0.09,0.09,0,0,0,.16,0l2.1-8.51a0.29,0.29,0,0,1,.25-0.26l1.42-.26a0.23,0.23,0,0,1,.21.06,0.23,0.23,0,0,1,.05.22L126,980.54a0.22,0.22,0,0,0,0,.14l1.42,7.84a0.24,0.24,0,0,1-.22.31l-1.34.24A0.24,0.24,0,0,1,125.54,988.86Z"/><path class="a1114283-6267-4be6-8a62-0e7bf9059bf1" d="M137.55,986.5a4.82,4.82,0,0,1-2.24-1.58,6,6,0,0,1-1.19-2.75l-2.33-12.9A0.24,0.24,0,0,1,132,969l1.34-.24a0.24,0.24,0,0,1,.31.22l2.35,13a3.83,3.83,0,0,0,1.46,2.53,3.75,3.75,0,0,0,5.11-.92,3.84,3.84,0,0,0,.48-2.89l-2.35-13a0.24,0.24,0,0,1,.22-0.31l1.34-.24a0.24,0.24,0,0,1,.31.22l2.33,12.9a6,6,0,0,1-.15,3,4.83,4.83,0,0,1-1.55,2.26A6.29,6.29,0,0,1,137.55,986.5Z"/><path class="a1114283-6267-4be6-8a62-0e7bf9059bf1" d="M149.82,984.5l-3.24-17.9a0.24,0.24,0,0,1,.22-0.31l5.13-.93a5.11,5.11,0,0,1,3.94.67,5,5,0,0,1,2,3.41l1.52,8.42a5,5,0,0,1-.69,3.9,5.11,5.11,0,0,1-3.46,2l-5.13.93A0.24,0.24,0,0,1,149.82,984.5Zm1.73-1.73,3.45-.62a3.06,3.06,0,0,0,2.12-1.37,3.85,3.85,0,0,0,.4-2.72L156,969.95a3.81,3.81,0,0,0-1.31-2.43,3,3,0,0,0-2.49-.53l-3.45.62a0.1,0.1,0,0,0-.09.13l2.7,14.95A0.09,0.09,0,0,0,151.54,982.77Z"/><path class="a1114283-6267-4be6-8a62-0e7bf9059bf1" d="M172.14,980.49l-1.46-3.13a0.12,0.12,0,0,0-.15-0.06l-6.29,1.14a0.12,0.12,0,0,0-.12.1L163.85,982a0.28,0.28,0,0,1-.25.29l-1.37.25a0.22,0.22,0,0,1-.29-0.25l1.69-18.79a0.27,0.27,0,0,1,.25-0.29l1.68-.3a0.27,0.27,0,0,1,.33.19l8.16,17,0,0.08a0.22,0.22,0,0,1-.23.26l-1.39.25A0.28,0.28,0,0,1,172.14,980.49Zm-7.85-3.68a0.13,0.13,0,0,0,.1,0l5.45-1a0.13,0.13,0,0,0,.08-0.06s0-.05,0-0.07l-4.7-10.08a0.08,0.08,0,0,0-.06,0,0.07,0.07,0,0,0,0,.06l-0.85,11.08S164.26,976.79,164.29,976.81Z"/><path class="a1114283-6267-4be6-8a62-0e7bf9059bf1" d="M183,959.74l1.34-.24a0.24,0.24,0,0,1,.31.21l3.24,17.9a0.24,0.24,0,0,1-.22.31l-1.42.26a0.31,0.31,0,0,1-.35-0.13l-9.6-12.81a0.15,0.15,0,0,0-.1,0s0,0,0,.09l2.55,14a0.24,0.24,0,0,1-.21.31l-1.34.24a0.24,0.24,0,0,1-.31-0.22l-3.24-17.9a0.24,0.24,0,0,1,.22-0.31l1.42-.26a0.31,0.31,0,0,1,.35.13l9.61,12.86a0.14,0.14,0,0,0,.1,0s0,0,0-.09l-2.56-14A0.24,0.24,0,0,1,183,959.74Z"/><path class="a1114283-6267-4be6-8a62-0e7bf9059bf1" d="M198.88,957.14l0.2,1.11a0.24,0.24,0,0,1-.22.31l-4.29.78a0.1,0.1,0,0,0-.09.13l3,16.42a0.24,0.24,0,0,1-.21.31l-1.34.24a0.24,0.24,0,0,1-.31-0.22l-3-16.42a0.1,0.1,0,0,0-.12-0.09l-4.13.75a0.24,0.24,0,0,1-.31-0.21l-0.2-1.11a0.24,0.24,0,0,1,.22-0.31l10.5-1.9A0.24,0.24,0,0,1,198.88,957.14Z"/><path class="a1114283-6267-4be6-8a62-0e7bf9059bf1" d="M212.21,956.15l-7.9,1.43a0.1,0.1,0,0,0-.09.13l1.18,6.53a0.09,0.09,0,0,0,.12.09l5.32-1a0.24,0.24,0,0,1,.31.21l0.2,1.11a0.24,0.24,0,0,1-.22.31l-5.32,1a0.1,0.1,0,0,0-.09.13l1.19,6.58a0.1,0.1,0,0,0,.13.09l7.9-1.43a0.24,0.24,0,0,1,.31.22l0.2,1.11a0.24,0.24,0,0,1-.22.31l-9.61,1.74a0.24,0.24,0,0,1-.31-0.22l-3.24-17.9a0.24,0.24,0,0,1,.22-0.31l9.61-1.74a0.24,0.24,0,0,1,.31.22l0.2,1.11A0.24,0.24,0,0,1,212.21,956.15Z"/><path class="a1114283-6267-4be6-8a62-0e7bf9059bf1" d="M123.78,1004.75l-7.9,1.43a0.09,0.09,0,0,0-.08.13l1.18,6.53a0.09,0.09,0,0,0,.12.08l5.32-1a0.24,0.24,0,0,1,.31.22l0.2,1.1a0.24,0.24,0,0,1-.22.31l-5.32,1a0.09,0.09,0,0,0-.09.13l1.19,6.58a0.09,0.09,0,0,0,.12.09l7.9-1.43a0.24,0.24,0,0,1,.31.22l0.2,1.1a0.24,0.24,0,0,1-.22.31l-9.61,1.74a0.24,0.24,0,0,1-.31-0.22l-3.24-17.9a0.24,0.24,0,0,1,.21-0.31l9.61-1.74a0.24,0.24,0,0,1,.31.22l0.2,1.11A0.24,0.24,0,0,1,123.78,1004.75Z"/><path class="a1114283-6267-4be6-8a62-0e7bf9059bf1" d="M130.87,1019.69a4.51,4.51,0,0,1-2.09-3.22l-0.13-.71a0.24,0.24,0,0,1,.22-0.31l1.29-.23a0.24,0.24,0,0,1,.31.22l0.11,0.61a3.07,3.07,0,0,0,1.43,2.19,3.9,3.9,0,0,0,2.82.41,3.49,3.49,0,0,0,2.29-1.29,2.94,2.94,0,0,0,.5-2.37,2.86,2.86,0,0,0-.7-1.48,4.36,4.36,0,0,0-1.46-1q-0.92-.41-2.6-1a25.35,25.35,0,0,1-2.84-1.06,5.48,5.48,0,0,1-1.8-1.33,4.43,4.43,0,0,1-1-2.21,4.3,4.3,0,0,1,.76-3.59,5.41,5.41,0,0,1,3.44-1.87,5.6,5.6,0,0,1,4.14.64,4.7,4.7,0,0,1,2.09,3.29l0.11,0.61a0.24,0.24,0,0,1-.22.31l-1.32.24a0.24,0.24,0,0,1-.31-0.21l-0.11-.58a3.2,3.2,0,0,0-1.38-2.21,3.67,3.67,0,0,0-2.77-.44,3.32,3.32,0,0,0-2.17,1.18,2.83,2.83,0,0,0-.44,2.31,2.74,2.74,0,0,0,.67,1.43,4,4,0,0,0,1.34.9q0.84,0.36,2.55.93a29.44,29.44,0,0,1,3.06,1.2,5.84,5.84,0,0,1,1.82,1.33,4.18,4.18,0,0,1,1,2.12,4.6,4.6,0,0,1-.79,3.77,5.6,5.6,0,0,1-3.63,2A5.78,5.78,0,0,1,130.87,1019.69Z"/><path class="a1114283-6267-4be6-8a62-0e7bf9059bf1" d="M149.8,998.64l0.2,1.11a0.24,0.24,0,0,1-.22.31l-4.29.78a0.09,0.09,0,0,0-.09.13l3,16.42a0.24,0.24,0,0,1-.22.31l-1.34.24a0.24,0.24,0,0,1-.31-0.22l-3-16.42a0.1,0.1,0,0,0-.12-0.09l-4.13.75a0.24,0.24,0,0,1-.31-0.22l-0.2-1.11a0.24,0.24,0,0,1,.21-0.31l10.5-1.9A0.24,0.24,0,0,1,149.8,998.64Z"/><path class="a1114283-6267-4be6-8a62-0e7bf9059bf1" d="M165,1014.43l-4.73-7.54a0.11,0.11,0,0,0-.12-0.06l-3.4.61a0.1,0.1,0,0,0-.09.13l1.46,8.05a0.24,0.24,0,0,1-.22.31l-1.34.24a0.24,0.24,0,0,1-.31-0.22L153,998.06a0.24,0.24,0,0,1,.21-0.31l5.58-1a4.76,4.76,0,0,1,2.55.19,4.38,4.38,0,0,1,2,1.49,5.84,5.84,0,0,1,1.07,2.55,5.34,5.34,0,0,1-.32,3.21,4.21,4.21,0,0,1-2.06,2.11c-0.06,0-.07.09,0,0.14l4.87,7.54,0,0.1a0.2,0.2,0,0,1-.2.25l-1.4.25A0.29,0.29,0,0,1,165,1014.43Zm-9.85-15.24,1.2,6.66a0.09,0.09,0,0,0,.12.08l3.63-.66a2.87,2.87,0,0,0,2-1.35,3.64,3.64,0,0,0,.39-2.63,3.69,3.69,0,0,0-1.29-2.35,2.86,2.86,0,0,0-2.38-.55l-3.63.66A0.09,0.09,0,0,0,155.15,999.19Z"/><path class="a1114283-6267-4be6-8a62-0e7bf9059bf1" d="M177,995.13l-7.9,1.43a0.1,0.1,0,0,0-.09.13l1.18,6.53a0.09,0.09,0,0,0,.12.08l5.32-1a0.24,0.24,0,0,1,.31.22l0.2,1.1a0.24,0.24,0,0,1-.21.31l-5.32,1a0.09,0.09,0,0,0-.09.13l1.19,6.58a0.09,0.09,0,0,0,.13.09l7.9-1.43a0.24,0.24,0,0,1,.31.22l0.2,1.1a0.24,0.24,0,0,1-.22.31l-9.61,1.74a0.24,0.24,0,0,1-.31-0.22l-3.24-17.9a0.24,0.24,0,0,1,.21-0.31l9.61-1.74a0.24,0.24,0,0,1,.31.22l0.2,1.11A0.24,0.24,0,0,1,177,995.13Z"/><path class="a1114283-6267-4be6-8a62-0e7bf9059bf1" d="M183.76,1011l-3.24-17.9a0.24,0.24,0,0,1,.22-0.31l1.34-.24a0.24,0.24,0,0,1,.31.22l3,16.42a0.09,0.09,0,0,0,.12.09l7.66-1.39a0.24,0.24,0,0,1,.31.22l0.2,1.1a0.24,0.24,0,0,1-.22.31l-9.37,1.69A0.24,0.24,0,0,1,183.76,1011Z"/><path class="a1114283-6267-4be6-8a62-0e7bf9059bf1" d="M196.44,1008.69l-3.24-17.9a0.24,0.24,0,0,1,.21-0.31l1.34-.24a0.24,0.24,0,0,1,.31.22l3,16.42a0.09,0.09,0,0,0,.12.09l7.66-1.39a0.24,0.24,0,0,1,.31.22l0.2,1.1a0.24,0.24,0,0,1-.22.31l-9.37,1.69A0.24,0.24,0,0,1,196.44,1008.69Z"/><path class="a1114283-6267-4be6-8a62-0e7bf9059bf1" d="M218.9,1004.65l-1.46-3.13a0.12,0.12,0,0,0-.15-0.06L211,1002.6a0.12,0.12,0,0,0-.12.1l-0.27,3.45a0.28,0.28,0,0,1-.25.29l-1.37.25a0.24,0.24,0,0,1-.21,0,0.25,0.25,0,0,1-.08-0.2l1.69-18.79a0.28,0.28,0,0,1,.25-0.29l1.68-.3a0.27,0.27,0,0,1,.33.19l8.16,17,0,0.07a0.22,0.22,0,0,1-.23.26l-1.39.25A0.27,0.27,0,0,1,218.9,1004.65ZM211,1001a0.12,0.12,0,0,0,.1,0l5.45-1a0.13,0.13,0,0,0,.08-0.06s0-.05,0-0.07L212,989.81a0.08,0.08,0,0,0-.06,0,0.07,0.07,0,0,0,0,.06L211,1000.91S211,1001,211,1001Z"/><g class="cc59bc12-77f3-4b98-b744-77c403248c2c"><path class="b49cc43d-12c3-4784-aacf-d32b7565fd97" d="M251,870.82L249.86,869c-0.79-1.15-1.85-2.95-3.5-5.1a112.21,112.21,0,0,0-15.58-17.51l-2.89-2.61-3.16-2.59c-1.06-.91-2.22-1.74-3.4-2.61s-2.35-1.79-3.64-2.6a112.87,112.87,0,0,0-17.13-9.71,118.56,118.56,0,0,0-45.67-10.79,118.71,118.71,0,0,0-54.15,11.28c-1.14.49-2.23,1.08-3.34,1.65l-3.33,1.73-3.26,1.9-1.64,1c-0.52.32-1.06,0.69-1.59,1l-3.21,2.1c-1.06.71-2.08,1.5-3.12,2.24-2.11,1.47-4.08,3.15-6.11,4.77a116.12,116.12,0,0,0-11.35,10.94c-1.84,1.92-3.47,4-5.2,6.09-0.82,1.06-1.61,2.15-2.42,3.22L55,865.07l-1.13,1.68a117.76,117.76,0,0,0-20.47,62.6A117,117,0,0,0,43,979.61a117.05,117.05,0,0,0,18.25,29.27,121.73,121.73,0,0,0,12.1,12.29,116.94,116.94,0,0,0,28.7,18.49,124.3,124.3,0,0,0,15.87,5.89,121.61,121.61,0,0,0,16.38,3.54,117.36,117.36,0,0,0,32.79.06l2-.26,2-.36c1.32-.25,2.65-0.47,4-0.73,2.6-.63,5.22-1.15,7.75-1.94a116,116,0,0,0,14.83-5.29c2.36-1.09,4.74-2.11,7-3.35,1.13-.6,2.29-1.16,3.4-1.8l3.3-1.93c0.54-.32,1.11-0.64,1.63-1l1.59-1,3.17-2.08,3-2.2c1-.74,2-1.45,3-2.25A118.56,118.56,0,0,0,244,1004.51a119.84,119.84,0,0,0,13.93-23,118.47,118.47,0,0,0,10.61-45.7,112.86,112.86,0,0,0-1.1-19.66c-0.16-1.52-.47-3-0.72-4.42s-0.49-2.85-.83-4.2l-0.92-4-1.05-3.75a112.21,112.21,0,0,0-8.77-21.73c-1.2-2.43-2.33-4.18-3-5.4Zm0.08-.05,1.08,1.83c0.69,1.22,1.84,3,3,5.39a112.41,112.41,0,0,1,8.9,21.72l1.08,3.75,0.94,4c0.35,1.36.59,2.77,0.85,4.21s0.57,2.91.74,4.42A113.28,113.28,0,0,1,269,935.8a119.33,119.33,0,0,1-10.37,46,120.71,120.71,0,0,1-13.88,23.29c-0.68,1-1.46,1.84-2.2,2.77s-1.49,1.85-2.27,2.75l-2.42,2.66-1.22,1.34-1.28,1.28-2.59,2.57c-0.87.86-1.81,1.65-2.72,2.48-1.8,1.68-3.74,3.22-5.68,4.79-1,.81-2,1.53-3,2.27l-3.06,2.23-3.17,2.08-1.59,1c-0.56.35-1.1,0.65-1.66,1l-3.32,1.95c-1.12.64-2.28,1.2-3.43,1.81-2.27,1.25-4.67,2.27-7.05,3.37a116.94,116.94,0,0,1-15,5.32c-2.56.79-5.19,1.32-7.82,2-1.32.27-2.66,0.49-4,.74l-2,.36-2,.27a118.55,118.55,0,0,1-65.53-9.64,117.59,117.59,0,0,1-40.93-31.17A118.76,118.76,0,0,1,42.6,979.81a122.3,122.3,0,0,1-5.68-16.37A117.53,117.53,0,0,1,33,929.34a127,127,0,0,1,1.74-16.93,122.27,122.27,0,0,1,4.07-16.35,118.07,118.07,0,0,1,14.51-29.63l1.13-1.69,1.21-1.63c0.81-1.08,1.6-2.18,2.42-3.25,1.72-2.07,3.36-4.2,5.2-6.14a116.78,116.78,0,0,1,11.37-11c2-1.64,4-3.34,6.14-4.83,1.05-.76,2.07-1.55,3.14-2.27l3.2-2.11c0.54-.35,1.05-0.7,1.61-1l1.65-1,3.28-1.93L97,827.75c1.11-.58,2.21-1.18,3.36-1.68,2.27-1,4.5-2.11,6.81-3,1.15-.45,2.27-0.94,3.42-1.34l3.45-1.18,1.72-.58,1.74-.5,3.45-1c1.15-.3,2.32-0.55,3.47-0.82s2.29-.57,3.46-0.75a120.67,120.67,0,0,1,27-2.11,119.24,119.24,0,0,1,45.83,11.1,113.27,113.27,0,0,1,17.13,9.83c1.29,0.83,2.46,1.76,3.64,2.63s2.33,1.72,3.39,2.63l3.16,2.62,2.88,2.63a112.4,112.4,0,0,1,15.52,17.62c1.64,2.17,2.69,4,3.48,5.12Z"/></g></g></g></svg>