<svg xmlns="http://www.w3.org/2000/svg" xmlns:xlink="http://www.w3.org/1999/xlink" viewBox="0 0 1920 1080"><defs><style>.\39 7c04051-5473-4b29-8c40-198be62e9315{fill:none;}.\37 ecf6df0-db76-4c0e-b09c-85375f8e58b1,.bc9eb8c2-6aef-4b43-96a5-46bef9d3da4e{isolation:isolate;}.\33 e3affd0-8f75-439a-98f5-e08df959974d{opacity:0.3;}.\33 27a3753-3645-402c-b8ca-6379557cd4ae,.\33 e3affd0-8f75-439a-98f5-e08df959974d,.\35 9c16c7f-0cb4-4e07-8a1f-d2f32d760e2b,.c98c4c38-94d7-440f-bede-25d85354f69c{mix-blend-mode:multiply;}.f38e47ab-6043-408d-8916-c68e345b1cfe{fill:#333;}.\38 609eb8a-ee26-41e9-9fc0-176c58daf784{fill:#fff;}.\37 e87b6ce-013b-4823-8477-4384374342cb{fill:#0071bc;}.\30 7e546b3-13c1-44cd-9f3d-586a15b5db44{opacity:0.45;}.\35 d3255ea-fb97-47f0-b695-6819423ea5fb{clip-path:url(#4bca8932-8766-43a6-9a2e-4dd7e5405f43);}.\37 ecf6df0-db76-4c0e-b09c-85375f8e58b1,.c563be18-2610-4305-acf8-86e68c9443fb{opacity:0.5;}.\36 e1c1952-8932-4de4-b603-8fc6cfa6f1d3{clip-path:url(#8e87ec7f-d1ac-468a-9f0d-6de8bde4a509);}.\37 963ba9d-e428-47b4-881a-5c9cb796a392{opacity:0.18;}.c98c4c38-94d7-440f-bede-25d85354f69c{opacity:0.2;}.\31 356247c-62fb-4db9-820c-4b502bd78fbf{fill:#00395e;}.\34 f332fdc-3612-4fae-9a6e-9350553d1584{fill:#fbb03b;}.\35 9c16c7f-0cb4-4e07-8a1f-d2f32d760e2b{opacity:0.47;}.\39 81c0549-a62f-474e-92c6-54af665d667f{clip-path:url(#848b867a-a7ac-4f8d-97ff-b762764e0b6d);}.c2e4c518-72b3-4e06-af7b-69ff22460d9b{fill:#ff931e;}.\34 8dd9210-a4bd-42be-8cd5-fdbfe05b2e86{fill:#ff931f;}.f3275e07-db25-4127-9a84-23faf99b7af6{fill:#ff941f;}.\39 079ddb0-473b-4c27-a8c2-314c73deb53c{fill:#ff9420;}.\30 28616a8-c8db-4888-8e0e-6e971ec0e101{fill:#ff9421;}.e7fd1733-5359-4eac-b404-5c53a52e5374{fill:#ff9521;}.a3ea8517-2f03-4d88-ad15-ffa21d2bed53{fill:#ff9522;}.\31 04ed772-8c4b-4f29-a45a-49dd30c61bea{fill:#ff9523;}.\35 2b948d2-94f7-46b0-8d9d-36112440e247{fill:#ff9623;}.\31 341df00-86d5-4916-84a2-fff077055551{fill:#ff9624;}.b81740ac-091b-45e1-93bc-68fe86dc8162{fill:#ff9625;}.ac1da86b-87d4-4c16-ac41-a37004cd629f{fill:#ff9726;}.\33 4e6a6d1-2d0d-4eb4-925b-660df22e34ae{fill:#ff9727;}.\33 cd5f25e-21b1-4646-bd05-10defbd6c2b6{fill:#ff9828;}.d8d57aad-ff18-4aac-b123-393fe5bd940c{fill:#ff9829;}.\31 e9a24c6-300b-4ee6-a861-6307de0680ff{fill:#ff992a;}.ee0a3c97-3d3f-4d26-bc07-f6a3b6f599b2{fill:#ff992b;}.\38 f86ba07-e415-4fe0-88d5-922bf90bab12{fill:#ff9a2c;}.c3a87603-6cf4-44d5-b22e-6ede9f67abe9{fill:#ff9a2d;}.\32 8072659-5697-46c5-b9a1-80944f2796d1{fill:#ff9b2e;}.\37 137ee14-9183-4ea9-8bff-aed87c3cc9fd{fill:#ff9b2f;}.fd4b22c4-79b8-4b8b-987e-c5ff015f1c95{fill:#ff9b30;}.\30 2af4d29-1233-43fc-a109-a2197e426116{fill:#ff9c30;}.\32 7baf5a7-1737-4226-9a98-9129d3d563bb{fill:#ff9c31;}.\38 80b2751-a761-4026-a963-f5a297b91b8a{fill:#ff9d32;}.\37 e0eaf90-9f10-45f2-8184-59947d0fb8e8{fill:#ff9d33;}.c14794bf-10bc-4811-b886-d46fcc8a5c02{fill:#ff9d34;}.\32 35cc1cd-7e09-4867-b117-21ba76fa8ced{fill:#ff9e34;}.\37 737e491-39d1-415f-9bcd-1cda3f48912b{fill:#ff9e35;}.\39 63cd662-1c0f-4b77-abb2-7c463f5d69e6{fill:#ff9e36;}.\37 3903b33-e9e7-403d-8860-61eef92f24ed{fill:#ff9f36;}.b75c5f5b-a347-4f5d-9681-9d5c4a71743f{fill:#ff9f37;}.\37 272f7ac-cd1a-46bb-a09d-861ea44534ac{fill:#ff9f38;}.\33 acf1599-e855-4efc-88fe-c34cae9e70b4{fill:#ffa038;}.\32 b1f4902-ddf2-41c2-85b1-1bba7ae8b011{fill:#ffa039;}.\34 35f87f9-78a4-4c95-bdeb-be230532c535{fill:#ffa03a;}.\32 b80ab05-0a57-43ee-b12d-c94caaa84334{fill:#ffa13a;}.b4cc053f-4a72-4cd8-a026-ed5b2bbe4e2f{fill:#ffa13b;}.\39 4416281-d528-41d5-8744-31465096234d{fill:#ffa13c;}.\32 2934f14-88b6-49cf-a047-c23c48d6e194{fill:#ffa23d;}.\35 7556c08-2125-408a-8917-d2b72bfbaba1{fill:#ffa23e;}.b3567949-c4fd-4226-9276-0949adde283e{fill:#ffa33f;}.\38 fe9de10-f96c-44ba-9795-4fa7d601796f{fill:#ffa340;}.\36 bb435ee-6b2f-472a-94cf-607be57794c3{fill:#ffa440;}.\33 442d3a0-e3bf-4060-9665-382b73a35b8a{fill:#ffa441;}.\31 8b10a70-e8b8-4386-9f9d-7f22d448b3ea{fill:#ffa442;}.ea16bc2e-f158-4e91-ad5f-f1234bd3cc00{fill:#ffa543;}.\39 a67ab35-356a-43a1-98f4-7047fd8ad391{fill:#ffa544;}.\31 0202ba3-893e-41fe-b149-be85621e1252{fill:#ffa645;}.\30 37a1d12-dc56-4672-bfe0-5d8dd1b83b25{fill:#ffa646;}.\37 dd694d2-5813-4e5e-85fc-81773381d747{fill:#ffa747;}.ba0c239e-7006-4c46-9058-4f01859aced4{fill:#ffa748;}.\32 05ce7d2-6c94-402f-a0be-097ba1b7793e{fill:#ffa849;}.acfb6380-2e6e-4b84-96bb-3e5d95914564{fill:#ffa84a;}.a012c038-1064-449e-ad02-56d0a5b049f6{fill:#ffa84b;}.b7bbfdd9-a711-4526-9609-c8b293597527{fill:#ffa94b;}.bd30a3ea-441c-41b7-9d7a-ecf7d3ce7b4c{fill:#ffa94c;}.ff9a1116-699f-4157-a01f-6b47b286c682{fill:#ffaa4d;}.ad99bc2f-d09b-4428-be12-6f8454517656{fill:#ffaa4e;}.\31 7003107-d2bd-4249-b26f-5d7d472b80a7{fill:#ffab4f;}.ab35a03b-eb9c-4b0c-9c4d-58874a5cb515{fill:#ffab50;}.b7122215-0fa0-45f6-8f7e-c7119dce3d10{fill:#ffac51;}.\35 664f0c1-a7f4-42f6-98de-73923a2f1f1f{fill:#ffac52;}.e20937b6-0d07-4bb8-ac7a-f34a474f35df{fill:#ffac53;}.\32 7c06620-475b-40fc-bab0-8fb2813ad366{fill:#ffad54;}.\33 80c1f46-8045-439a-a895-7f625d0bb29b{fill:#ffad55;}.a5142a73-4b47-448d-abad-45cb50846b86{fill:#ffae56;}.\36 6c14705-8610-44c2-b13c-a552f66e9840{fill:#ffae57;}.\34 50e6e65-d2e9-41b5-bfc8-a1f972f9bd80{fill:#ffaf58;}.\32 117fb80-6bc2-43ea-9f42-6c3d1df9aa5e{fill:#ffaf59;}.\38 86a0876-de23-42b4-915d-87f78d6b5ed8{fill:#ffb05a;}.\39 5f3b0c0-ec44-4078-b9ea-0308468d04dd{fill:#ffb05b;}.e938a823-7710-4f8c-a2cc-e98956a6f219{fill:#ffb15c;}.c3f520f5-3a68-4985-9c94-20e823d8f04e{fill:#ffb15e;}.\38 69d0ea4-1e76-470c-a934-4325bb842560{fill:#ffb25f;}.\34 72f6fdb-ed21-4f63-9337-a186893a9136{fill:#ffb360;}.\36 82d0ec4-3a8d-44b2-8dc6-a53b68e84ea1{fill:#ffb361;}.e80ab8b7-6152-4dfc-b12a-b3b1914e355c{fill:#ffb462;}.a6e2d930-92eb-49b9-9cac-03443c648430{fill:#ffb463;}.f9fa87b2-abf0-4bb8-ad8b-7b5272924593{fill:#ffb564;}.e6e4e268-56b0-4ddb-a289-8f50680a097e{fill:#ffb565;}.aaac0938-1c73-452f-8e38-2db1459442f6{fill:#ffb667;}.\39 5b80e56-ec42-4a4f-9193-5f822131f3db{fill:#ffb668;}.c9321e51-8488-4353-ac62-cc2885874aee{fill:#ffb769;}.\36 4576c08-a956-4560-a4a8-73a7400d47e4{fill:#ffb86a;}.effbac9a-4ce8-4c1a-9b57-466bc711dde1{fill:#ffb86b;}.\35 0279073-2fb8-4e95-a0bf-d07498540213{fill:#ffb96d;}.a4a89102-069d-4125-9beb-c42e366de547{fill:#ffb96e;}.\38 55ce1a8-23d6-4524-94d0-94d81a3176eb{fill:#ffba6f;}.\33 3abb8d8-9e55-40a5-bd97-bef5d36b4156{fill:#ffba70;}.ed750a8d-de86-4ff8-93db-e92599963b3f{fill:#ffbb71;}.b4e61ca7-9f3c-49fd-847c-a6252ee62d8e{fill:#ffbc73;}.\38 39d5997-0da5-4854-9ebd-e9da9fca5831{fill:#ffbc74;}.\33 0f40a22-ac53-4716-8cd2-427e087c629a{fill:#ffbd75;}.\37 64d3f43-effe-4338-87fb-444a47099c71{fill:#ffbe77;}.\34 d42e070-79fe-4ceb-be47-eab444165901{fill:#ffbe78;}.\36 d567643-410e-46a1-8a59-099ebbcae67b{fill:#ffbf79;}.\30 b8cf979-9392-4905-ad53-e8f11d511128{fill:#ffbf7b;}.afc00e46-50d4-480a-9e3a-f331a4dd7aa6{fill:#ffc07c;}.d1c6a49b-4706-453e-84f9-ecb6d78fbdd6{fill:#ffc17d;}.a9b9a3a8-b0a0-4c01-813b-ce56d39e88ee{fill:#ffc17f;}.\35 dd424aa-f7b6-4cb1-8648-7918c515ffe6{fill:#ffc280;}.\35 9c7007e-f107-4d48-a397-caf4cc9bf5ca{fill:#ffc381;}.\31 7406a43-c43b-45b2-b1ca-68552bff1b5c{fill:#ffc383;}.d5dec3f6-8916-4646-9eb0-bc3b78150775{fill:#ffc484;}.\37 0f2ac41-c4e8-4d6f-9ca7-b1f96c6ba17e{fill:#ffc585;}.\34 5aa3a81-86d1-4b01-a64d-801f40f27e3e{fill:#ffc587;}.\30 92b9c02-acdd-421a-9b34-643eb82da80f{fill:#ffc688;}.\31 618cddb-cb97-44b8-9c13-412a5bf108c1{fill:#ffc78a;}.d1c3b1cb-41a8-4f35-9308-ab16ff5008c1{fill:#ffc78b;}.d23707ac-ca42-45d8-a19e-7c330dc03d06{fill:#ffc88d;}.\34 32c33e6-0b5a-4056-bab1-025d04f1c92e{fill:#ffc98e;}.feee9375-8ee5-477b-98a5-9a4b4949a7aa{fill:#ffca90;}.efd941bf-9c64-4cc3-b1f9-5143febb8128{fill:#ffca91;}.d782204e-ad3c-45ba-8829-80f8d1def5d2{fill:#ffcb93;}.\33 1335b1c-07d9-43b0-b6aa-8cd096d3396b{fill:#ffcc94;}.d65e329c-abd6-49d7-a65e-91ff38d3c654{fill:#ffcc96;}.\30 54243d8-4279-436e-83a0-08961e42acee{fill:#ffcd97;}.e0b8ac0f-5c64-4d2b-a7e6-91d9901bdfd6{fill:#ffce99;}.\33 f34f033-b0a1-43de-84bc-43cd52414cff{fill:#ffcf9a;}.\34 0957404-cf4c-4605-bdf7-c51d45c4aeb8{fill:#ffcf9c;}.\36 b366c12-878b-4ba3-a411-6bade4c8ea17{fill:#ffd09d;}.\34 6a92604-1700-4949-ac65-c3993a6dc578{fill:#ffd19f;}.a7fb0aac-d1e8-479c-b86a-7a01be45c80e{fill:#ffd2a0;}.a82400e9-e4c4-4efe-b5ce-c69e075e46b4{fill:#ffd2a2;}.\31 c6a2114-d588-4e71-bcd2-83b90dab6605{fill:#ffd3a4;}.\36 9dd89f1-03bc-47b0-8a44-accfd670992f{fill:#ffd4a5;}.af98cd89-edc0-457e-b461-58a13cead75f{fill:#ffd5a7;}.\33 b2f26ea-0886-4b5c-8cdb-43422f7b60e8{fill:#ffd5a9;}.\34 1cd0158-3558-4b7e-befe-03bbd157d2e7{fill:#ffd6aa;}.\36 f978eae-f603-43f3-90b2-72229789c450{fill:#ffd7ac;}.ea175f0f-456d-491d-9929-3d3576a6ba41{fill:#ffd8ae;}.a1e60ba5-746c-4551-b90a-3c1a1e07567b{fill:#ffd9af;}.f35ea0cd-f26e-474c-a4fd-d4623a773fc8{fill:#ffd9b1;}.e32b8cf2-91c2-4211-8e28-c67a733f58e0{fill:#ffdab3;}.\35 c723704-8721-4416-8cff-86abda567387{fill:#ffdbb4;}.\32 a67a5e6-c1d1-46cc-8761-f19fbb911b78{fill:#ffdcb6;}.\33 2d90bdd-b4e8-4224-b80a-93dad4b16003{fill:#ffddb8;}.\36 044dc53-7127-4f1f-b1bf-b8cb3e7b4042{fill:#ffdeb9;}.\33 5bb204c-302e-4a33-936a-75b91b63d528{fill:#ffdebb;}.c05ff177-b891-4d51-8c30-cee22f59d84e{fill:#ffdfbd;}.a57f68e8-577c-4c7f-abb5-cd87c03475e3{fill:#ffe0bf;}.c5a45344-b544-46de-9f06-6508738b42aa{fill:#ffe1c1;}.d74928a3-c5eb-4d62-ada1-91d3a3ba2dec{fill:#ffe2c2;}.f4a7b0b4-a2bb-41c3-ba97-d07990623710{fill:#ffe3c4;}.\30 ff0001d-c40f-4419-99f3-5364096af89f{fill:#ffe4c6;}.\32 db014ef-1a48-4d41-836d-d78edafcd38f{fill:#ffe4c8;}.\32 f847cf1-fc81-425e-8f76-1c8abba604ec{fill:#ffe5ca;}.a170766e-7c74-4846-a296-fdc6416ac347{fill:#ffe6cb;}.d5385989-36d2-4a7a-a1e9-ff3ad0959ac9{fill:#ffe7cd;}.da7f94de-36ee-4522-bb0d-89fb247d0c75{fill:#ffe8cf;}.\39 8246fd6-bf86-4dcc-8392-f72a18a8f8cc{fill:#ffe9d1;}.\33 f684e73-aec0-44eb-83c3-1f2be0cea66a{fill:#ffead3;}.\33 0c863d7-1e4f-4ccf-adf5-44899d336fd1{fill:#ffebd5;}.dbeb933b-35ce-4738-ac6b-de1069003d54{fill:#ffecd7;}.d25019cb-da4e-4530-847d-ea3c6d063a3b{fill:#ffedd9;}.a75d8c74-83f6-45c5-b48c-462b3bd96178{fill:#ffeedb;}.c020d0b7-2256-4264-b7e4-d30bea689cbb{fill:#ffeedc;}.e0bca244-879a-433f-9695-f62d01fe9bd6{fill:#ffefde;}.c283ee95-bd9a-426d-bdab-b45b1a9d6bfa{fill:#fff0e0;}.a1f7320d-9e43-4d4b-9101-6046e54bd01b{fill:#fff1e2;}.\37 f5a5bbc-237f-4c9d-a84c-877207d5c171{fill:#fff2e4;}.a6aaf16f-009d-48b8-91ee-efd5e3c3dd2f{fill:#fff3e6;}.\33 ec8f4ee-3f7e-44c9-a8e2-252cf53cba16{fill:#fff4e8;}.\33 c23d126-ca41-406c-892c-e43f0b1cbb50{fill:#fff5ea;}.b87edd4b-7d82-4fa0-a85d-2a894a483cd5{fill:#fff6ec;}.\33 d52cdee-6419-4b02-8607-c7b6f56f9e68{fill:#fff7ee;}.f0296729-6323-48ae-bdd6-f53cd659da42{fill:#fff8f0;}.d35a4ae7-5532-4d45-bdcc-925b6e6292a3{fill:#fff9f2;}.\35 081f317-0097-4cf2-8f0f-0441aff60243{fill:#fffaf5;}.\37 8bb85f2-c3a0-43ff-9582-3ca4e4c46018{fill:#fffbf7;}.\38 7577a75-0524-4ef4-a98c-5afc96f80479{fill:#fffcf9;}.\33 bd0ccd1-9e95-4b33-b389-cb741e40e173{fill:#fffdfb;}.\38 b86f943-b357-4cce-995e-17ed7e93fc5e{fill:#fffefd;}.\33 27a3753-3645-402c-b8ca-6379557cd4ae{opacity:0.15;}.a15ff281-6d92-441a-9d65-480401701677{clip-path:url(#42dac8f5-e9d3-4367-a02d-5f3b1b2c60c1);}.\35 9b13152-47c8-49b6-94d6-03d4a31dd997{opacity:0.78;}.\36 fbe757c-3c62-4934-93d0-828f31df3b31{opacity:0.49;}.f1ae1279-7c05-4580-b3f2-0fba08d4aab0{fill:#66cbc4;}</style><clipPath id="4bca8932-8766-43a6-9a2e-4dd7e5405f43"><circle class="97c04051-5473-4b29-8c40-198be62e9315" cx="153.67" cy="922.83" r="123" transform="translate(-350.1 134.51) rotate(-23.13)"/></clipPath><clipPath id="8e87ec7f-d1ac-468a-9f0d-6de8bde4a509"><rect class="97c04051-5473-4b29-8c40-198be62e9315" x="-111.25" y="735.73" width="527.24" height="397.11" transform="translate(-146.21 35.98) rotate(-9.12)"/></clipPath><clipPath id="848b867a-a7ac-4f8d-97ff-b762764e0b6d"><polygon class="97c04051-5473-4b29-8c40-198be62e9315" points="105.98 884.37 129.26 912.67 165.67 908.44 145.94 939.33 161.22 972.65 125.74 963.43 98.77 988.25 96.58 951.67 64.64 933.69 98.76 920.3 105.98 884.37"/></clipPath><clipPath id="42dac8f5-e9d3-4367-a02d-5f3b1b2c60c1"><polygon class="97c04051-5473-4b29-8c40-198be62e9315" points="197.12 858.76 205.57 901.15 245.78 917.01 208.08 938.15 205.42 981.29 173.67 951.97 131.82 962.77 149.89 923.51 126.69 887.04 169.61 892.11 197.12 858.76"/></clipPath></defs><title>Sello_Puntuacion_9</title><g class="bc9eb8c2-6aef-4b43-96a5-46bef9d3da4e"><g id="1de5f035-0b3f-4c59-a419-d2aa1a126f01" data-name="Layer 1"><g class="3e3affd0-8f75-439a-98f5-e08df959974d"><circle class="f38e47ab-6043-408d-8916-c68e345b1cfe" cx="150.01" cy="927.3" r="132.91" transform="translate(-352.15 133.43) rotate(-23.13)"/></g><circle class="8609eb8a-ee26-41e9-9fc0-176c58daf784" cx="152.77" cy="923.48" r="132.91" transform="translate(-350.43 134.21) rotate(-23.13)"/><circle class="7e87b6ce-013b-4823-8477-4384374342cb" cx="152.77" cy="923.48" r="123" transform="translate(-350.43 134.21) rotate(-23.13)"/><g class="07e546b3-13c1-44cd-9f3d-586a15b5db44"><g class="5d3255ea-fb97-47f0-b695-6819423ea5fb"><g class="7ecf6df0-db76-4c0e-b09c-85375f8e58b1"><g class="6e1c1952-8932-4de4-b603-8fc6cfa6f1d3"><g class="7963ba9d-e428-47b4-881a-5c9cb796a392"><path class="8609eb8a-ee26-41e9-9fc0-176c58daf784" d="M199.19,1224.83l-0.15,0c-11.06,1.78-22.29,3.21-33.42,4.27L152.21,933.63c1.85-.19-1.89.3,0,0Zm33.33-6.45L152.27,933.67c1.77-.39-1.74.54,0,0l113.11,276.08C254.55,1213,243.52,1215.88,232.52,1218.38Zm-100.76,12.83c-11.24.34-22.6,0.28-33.76-.17l54.28-297.42c1.79,0.08-1.83,0,0,0ZM297.44,1199L152.22,933.68c1.68-.64-1.61.73,0,0l176.11,252.47C318.29,1190.69,307.9,1195,297.44,1199ZM64.49,1228.63c-11-1.17-22-2.74-32.71-4.68L152.22,933.68c1.72,0.3-1.76-.19,0,0ZM358,1171.4L152.22,933.68c1.54-.82-1.47.92,0,0l233.69,221.21C376.9,1160.62,367.5,1166.21,358,1171.4ZM0,1217c-10.37-2.68-20.69-5.73-30.59-9.05L152.27,933.67c1.6,0.53-1.69-.41,0,0Zm412.05-80.3-259.85-203c1.36-1-1.29,1.1,0,0l284,183.32C428.57,1123.77,420.42,1130.36,412.07,1136.67ZM-59.71,1196.8c-9.43-4-18.67-8.46-27.52-13.1L152.21,933.63c1.48,0.76-1.58-.69,0,0Zm517.95-100.91-306-162.21c1.17-1.18-1,1.26,0,0l325.67,140C471.78,1081.21,465.14,1088.71,458.24,1095.88Zm-571.15,72.84c-8.22-5.27-16.18-10.89-23.71-16.75l288.85-218.3c1.25,0.95-1.34-.88,0,0Zm608.07-118.47L152.22,933.68c0.84-1.29-.73,1.32,0,0L509.83,1026C505.44,1034.17,500.48,1042.34,495.16,1050.26Zm-653.32,83.27a276.34,276.34,0,0,1-19.21-20L152.27,933.62c1,1.1-1.11-1,0,0Zm680-132.58L152.22,933.68c0.57-1.35-.41,1.37,0,0l378.72,41.74A261.09,261.09,0,0,1,521.81,1000.95Zm-715.9,91.22a257.69,257.69,0,0,1-14.09-22.58L152.22,933.68c0.66,1.2-.82-1.18,0,0ZM537.2,949.52l-385-15.84c0.25-1.35-.09,1.37,0,0l388.23-10.1A217.37,217.37,0,0,1,537.2,949.52Zm-756.64,96.41a225.46,225.46,0,0,1-8.41-24.38l380.14-87.88c0.37,1.35-.52-1.28,0,0ZM540.8,897.74L152.22,933.68c-0.07-1.4.23,1.43,0,0h0L538.13,872l0.07,0.41A222.1,222.1,0,0,1,540.8,897.74Zm-774.08,99.57-0.17-1.07a227.33,227.33,0,0,1-2.61-25.05l388.28-37.51c0.07,1.4-.23-1.43,0,0h0l-385.68,62.78Zm385.49-63.63c-0.37-1.35.57,1.27,0,0L524,822.3a228.62,228.62,0,0,1,8.47,24.42Zm0,0-388,11.68a232.34,232.34,0,0,1,3.25-26l384.73,14.31C152,935,152.32,932.3,152.22,933.68Zm0,0c-0.67-1.25.87,1.17,0,0l346.4-157.57a235.25,235.25,0,0,1,14.09,22.58Zm0,0-378.57-40.15c2.55-8.52,5.62-17.12,9.08-25.52l369.49,65.66C151.71,935,152.63,932.31,152.22,933.68Zm0,0c-1-1.1,1.11,1,0,0l310.37-198.9a277,277,0,0,1,19.26,20Zm0,0-357.52-90.76c4.39-8.18,9.35-16.36,14.62-24.26l342.9,115C151.38,935,152.94,932.31,152.22,933.68Zm0,0c-1.21-1,1.39.82,0,0l265.08-234c8.22,5.27,16.18,10.89,23.71,16.75Zm0,0L-173.46,795.29c6.11-7.57,12.75-15.07,19.64-22.3l306,160.69C151.1,934.85,153.27,932.41,152.22,933.68Zm0,0c-1.44-.82,1.57.64,0,0L364,671.63c9.43,4,18.66,8.4,27.51,13.05Zm0,0L-131.84,751.89c7.65-6.77,15.79-13.41,24.13-19.72L152.22,933.68C150.87,934.68,153.5,932.53,152.22,933.68Zm0,0c-1.61-.58,1.69.41,0,0L304.29,651.52c10.36,2.63,20.63,5.68,30.59,9.05Zm0,0L-81.55,714c9-5.79,18.36-11.37,27.94-16.57l205.84,236.3C150.68,934.5,153.69,932.71,152.22,933.68Zm0,0c-1.67-.31,1.76.19,0,0l87.55-293.77c11,1.16,22,2.79,32.81,4.67Zm0,0-176.3-251C-14,678-3.6,673.71,6.86,669.78l145.36,263.9C150.59,934.26,153.83,933,152.22,933.68Zm0,0c-1.74-.09,1.82-0.08,0,0l20.25-296.3c11.29-.35,22.65-0.29,33.86.16Zm0,0L38.91,659c10.72-3.24,21.76-6.16,32.76-8.66l80.55,283.35C150.4,934.08,154,933.14,152.22,933.68Zm0,0c-1.81.13,1.89-.3,0,0h0L105.3,643.78l0.41-.07c10.91-1.75,22-3.16,32.9-4.24Z"/></g></g></g></g></g><g class="c98c4c38-94d7-440f-bede-25d85354f69c"><path class="f38e47ab-6043-408d-8916-c68e345b1cfe" d="M207.79,1029.6c-62.47,26.68-143.85-2.21-168-65.69-14-36.74-8.3-55.27-2.52-79.89a123,123,0,1,0,236.08,68C262.38,983.73,241.08,1015.38,207.79,1029.6Z"/></g><path class="1356247c-62fb-4db9-820c-4b502bd78fbf" d="M242.22,984.32l1.07-1.2c0.68-.8,1.76-1.9,3-3.43l2-2.5,2.26-3c1.57-2.2,3.24-4.75,4.94-7.6,0.85-1.43,1.64-3,2.49-4.53s1.65-3.23,2.37-5l1.14-2.64c0.37-.9.69-1.83,1-2.76,0.73-1.85,1.3-3.8,2-5.75a106.47,106.47,0,0,0,2.8-12.38,94.55,94.55,0,0,0,.43-26.12,107.42,107.42,0,0,0-2.39-12.47c-0.59-2-1.1-3.94-1.77-5.81-0.32-.94-0.62-1.88-1-2.79l-1-2.68c-0.66-1.78-1.51-3.42-2.2-5.06s-1.54-3.16-2.34-4.61c-1.6-2.91-3.19-5.51-4.68-7.76l-2.16-3.12-1.95-2.57c-1.16-1.57-2.19-2.7-2.84-3.52l-1-1.24,1.15,1.13,1.38,1.35,0.87,0.86,0.93,1,2.18,2.41,2.41,3c0.86,1.07,1.67,2.28,2.59,3.51s1.72,2.64,2.66,4.05,1.73,3,2.64,4.57l1.25,2.49c0.43,0.84.85,1.7,1.22,2.6a88.56,88.56,0,0,1,4.26,11.46A95.54,95.54,0,0,1,270.6,907a87.9,87.9,0,0,1-.45,27,96.25,96.25,0,0,1-3.15,12.7A88.8,88.8,0,0,1,262.37,958c-0.4.88-.86,1.73-1.31,2.55L259.73,963c-1,1.55-1.85,3.07-2.79,4.48s-1.83,2.76-2.79,4-1.81,2.39-2.7,3.43l-2.5,2.9-2.26,2.34-1,1-0.9.83-1.42,1.31Z"/><path class="1356247c-62fb-4db9-820c-4b502bd78fbf" d="M73.32,997.59l-1.3-.95-1.56-1.14-1-.72-1.07-.88-2.51-2.07-2.82-2.6c-1-.93-2-2-3.08-3.1s-2.09-2.36-3.22-3.62-2.15-2.7-3.28-4.13l-1.6-2.28c-0.54-.77-1.09-1.56-1.59-2.39A88.8,88.8,0,0,1,44.41,963a96.25,96.25,0,0,1-4.57-12.26A87.9,87.9,0,0,1,36.32,924a95.54,95.54,0,0,1,1.24-13,88.57,88.57,0,0,1,2.92-11.87c0.27-.93.59-1.83,0.92-2.72l1-2.61c0.72-1.68,1.38-3.31,2.1-4.84s1.41-3,2.18-4.33,1.44-2.63,2.17-3.79l2.05-3.24,1.89-2.65,0.81-1.13,0.77-1,1.21-1.5,1-1.25-0.88,1.35c-0.55.89-1.46,2.13-2.42,3.82L51.61,878l-1.79,3.34c-1.23,2.41-2.51,5.17-3.77,8.24-0.63,1.53-1.18,3.17-1.8,4.85s-1.16,3.44-1.61,5.28l-0.74,2.78c-0.23.94-.42,1.91-0.63,2.88-0.45,1.93-.73,3.95-1.09,6a107.42,107.42,0,0,0-1,12.66,94.55,94.55,0,0,0,3.4,25.9,106.47,106.47,0,0,0,4.2,12c0.88,1.86,1.66,3.74,2.6,5.49,0.46,0.88.89,1.77,1.35,2.62l1.43,2.5c0.92,1.66,2,3.16,2.92,4.69s2,2.89,3,4.21c2,2.64,4,5,5.77,7l2.59,2.77,2.3,2.25c1.37,1.38,2.57,2.35,3.34,3.07Z"/><path class="8609eb8a-ee26-41e9-9fc0-176c58daf784" d="M91.5,852.42L89,850.34a0.11,0.11,0,0,0-.14,0L84,853.8a0.12,0.12,0,0,0-.06.13l1.13,3a0.26,0.26,0,0,1-.1.34l-1.06.75a0.21,0.21,0,0,1-.34-0.1l-6-16.58a0.26,0.26,0,0,1,.09-0.34l1.31-.92a0.26,0.26,0,0,1,.36,0L93,851.32l0.06,0a0.2,0.2,0,0,1-.09.31l-1.08.76A0.26,0.26,0,0,1,91.5,852.42Zm-8.11,0a0.12,0.12,0,0,0,.09,0l4.23-3a0.12,0.12,0,0,0,0-.08s0-.05,0-0.06l-8-6.68a0.07,0.07,0,0,0-.07,0,0.07,0.07,0,0,0,0,.07l3.66,9.72S83.36,852.4,83.39,852.41Z"/><path class="8609eb8a-ee26-41e9-9fc0-176c58daf784" d="M96.79,849.2L84.38,836.73l-0.06-.05a0.2,0.2,0,0,1,.12-0.3l1.17-.67a0.24,0.24,0,0,1,.35.06l10.29,10.58a0.07,0.07,0,0,0,.07,0,0.07,0.07,0,0,0,0-.07l-4-14.22a0.26,0.26,0,0,1,.13-0.33l1.13-.65a0.21,0.21,0,0,1,.33.13l4.52,17a0.26,0.26,0,0,1-.13.33l-1.21.7A0.26,0.26,0,0,1,96.79,849.2Z"/><path class="8609eb8a-ee26-41e9-9fc0-176c58daf784" d="M106.78,826.76l-6.86,3a0.09,0.09,0,0,0,0,.13l2.51,5.67a0.09,0.09,0,0,0,.13.05l4.62-2a0.22,0.22,0,0,1,.33.13l0.42,1a0.22,0.22,0,0,1-.13.33l-4.62,2a0.09,0.09,0,0,0,0,.13l2.53,5.71a0.09,0.09,0,0,0,.13.05l6.86-3a0.22,0.22,0,0,1,.33.13l0.43,1a0.22,0.22,0,0,1-.13.33l-8.34,3.7a0.22,0.22,0,0,1-.33-0.13l-6.89-15.54a0.22,0.22,0,0,1,.13-0.33l8.34-3.7a0.22,0.22,0,0,1,.33.13l0.42,1A0.22,0.22,0,0,1,106.78,826.76Z"/><path class="8609eb8a-ee26-41e9-9fc0-176c58daf784" d="M119.42,820.86l1.22-.38a0.22,0.22,0,0,1,.31.16l5.1,16.22a0.22,0.22,0,0,1-.16.31l-1.29.4a0.3,0.3,0,0,1-.34-0.08l-10.4-10.75a0.15,0.15,0,0,0-.1,0s0,0,0,.08l4,12.66a0.22,0.22,0,0,1-.17.31l-1.22.38a0.22,0.22,0,0,1-.31-0.16L111,823.78a0.22,0.22,0,0,1,.17-0.31l1.29-.41a0.29,0.29,0,0,1,.34.08l10.42,10.8a0.14,0.14,0,0,0,.1,0s0,0,0-.08l-4-12.7A0.22,0.22,0,0,1,119.42,820.86Z"/><path class="8609eb8a-ee26-41e9-9fc0-176c58daf784" d="M135.58,817.52l0.2,1a0.22,0.22,0,0,1-.2.29l-4,.78a0.09,0.09,0,0,0-.08.12l3,15.31a0.22,0.22,0,0,1-.2.29l-1.25.25a0.22,0.22,0,0,1-.29-0.2l-3-15.31a0.09,0.09,0,0,0-.12-0.08l-3.85.75a0.22,0.22,0,0,1-.29-0.2l-0.2-1a0.22,0.22,0,0,1,.2-0.29l9.79-1.92A0.22,0.22,0,0,1,135.58,817.52Z"/><path class="8609eb8a-ee26-41e9-9fc0-176c58daf784" d="M143.7,833.46a4.53,4.53,0,0,1-1.95-1.67,5.6,5.6,0,0,1-.86-2.66l-1-12.21a0.22,0.22,0,0,1,.23-0.27l1.27-.11a0.22,0.22,0,0,1,.27.23l1,12.31a3.58,3.58,0,0,0,1.14,2.49,3.5,3.5,0,0,0,4.83-.41,3.59,3.59,0,0,0,.71-2.64l-1-12.31a0.22,0.22,0,0,1,.23-0.27l1.27-.11a0.22,0.22,0,0,1,.27.23l1,12.21a5.62,5.62,0,0,1-.41,2.77,4.5,4.5,0,0,1-1.64,2A5.88,5.88,0,0,1,143.7,833.46Z"/><path class="8609eb8a-ee26-41e9-9fc0-176c58daf784" d="M163.32,833.23l-2.88-7.81a0.1,0.1,0,0,0-.1-0.08l-3.22-.09a0.09,0.09,0,0,0-.1.1L156.8,833a0.22,0.22,0,0,1-.26.24l-1.27,0a0.22,0.22,0,0,1-.24-0.26l0.49-17a0.22,0.22,0,0,1,.26-0.24l5.3,0.15a4.45,4.45,0,0,1,2.29.67,4.09,4.09,0,0,1,1.53,1.74,5.47,5.47,0,0,1,.49,2.54,5,5,0,0,1-.91,2.87,3.94,3.94,0,0,1-2.3,1.54c-0.07,0-.09.07-0.05,0.12l3,7.84,0,0.1a0.19,0.19,0,0,1-.23.19l-1.33,0A0.27,0.27,0,0,1,163.32,833.23Zm-6.07-15.83-0.18,6.32a0.09,0.09,0,0,0,.1.1l3.45,0.1a2.68,2.68,0,0,0,2.12-.84,3.41,3.41,0,0,0,.87-2.33,3.44,3.44,0,0,0-.73-2.4,2.67,2.67,0,0,0-2.07-1l-3.45-.1A0.09,0.09,0,0,0,157.25,817.4Z"/><path class="8609eb8a-ee26-41e9-9fc0-176c58daf784" d="M179.24,819.25l-7.43-1a0.09,0.09,0,0,0-.11.08l-0.85,6.14a0.09,0.09,0,0,0,.08.11l5,0.69a0.22,0.22,0,0,1,.21.28l-0.14,1a0.22,0.22,0,0,1-.28.21l-5-.69a0.09,0.09,0,0,0-.11.09l-0.85,6.19a0.09,0.09,0,0,0,.08.11l7.43,1a0.22,0.22,0,0,1,.21.28l-0.14,1a0.22,0.22,0,0,1-.28.21l-9-1.25a0.22,0.22,0,0,1-.21-0.28l2.32-16.84a0.22,0.22,0,0,1,.28-0.21l9,1.25a0.22,0.22,0,0,1,.21.28l-0.14,1A0.22,0.22,0,0,1,179.24,819.25Z"/><path class="8609eb8a-ee26-41e9-9fc0-176c58daf784" d="M188.2,837.48l-1.14-8.25a0.1,0.1,0,0,0-.08-0.1l-3.13-.78a0.09,0.09,0,0,0-.12.07l-1.85,7.42a0.22,0.22,0,0,1-.3.18l-1.24-.31a0.22,0.22,0,0,1-.18-0.3l4.11-16.5a0.22,0.22,0,0,1,.3-0.18l5.14,1.28a4.46,4.46,0,0,1,2.1,1.14,4.1,4.1,0,0,1,1.12,2,5.47,5.47,0,0,1-.07,2.59,5,5,0,0,1-1.5,2.61,3.93,3.93,0,0,1-2.57,1c-0.07,0-.1.05-0.08,0.11l1.25,8.3v0.1a0.19,0.19,0,0,1-.27.14l-1.29-.32A0.28,0.28,0,0,1,188.2,837.48Zm-2.55-16.76-1.53,6.14a0.09,0.09,0,0,0,.07.12l3.35,0.83a2.68,2.68,0,0,0,2.25-.37,3.4,3.4,0,0,0,1.34-2.09,3.44,3.44,0,0,0-.2-2.5,2.67,2.67,0,0,0-1.82-1.38l-3.35-.83A0.09,0.09,0,0,0,185.65,820.72Z"/><path class="8609eb8a-ee26-41e9-9fc0-176c58daf784" d="M194.4,839.2a4.48,4.48,0,0,1-1.07-2.3,5.36,5.36,0,0,1,.32-2.71l2.66-7.25a5.47,5.47,0,0,1,1.52-2.28,4.46,4.46,0,0,1,2.31-1.07,6,6,0,0,1,5,1.85,4.55,4.55,0,0,1,1.08,2.32,5.34,5.34,0,0,1-.31,2.72l-2.66,7.25a5.31,5.31,0,0,1-1.52,2.26,4.58,4.58,0,0,1-2.32,1.05A6,6,0,0,1,194.4,839.2Zm5.46,0a3.43,3.43,0,0,0,1.73-2l2.71-7.37a3.5,3.5,0,0,0,0-2.7,3.25,3.25,0,0,0-2-1.75,3.2,3.2,0,0,0-2.61.07,3.51,3.51,0,0,0-1.74,2.06l-2.71,7.37a3.44,3.44,0,0,0,0,2.66A3.6,3.6,0,0,0,199.87,839.22Z"/><polygon class="4f332fdc-3612-4fae-9a6e-9350553d1584" points="105.98 884.37 129.26 912.67 165.67 908.44 145.94 939.33 161.22 972.65 125.74 963.43 98.77 988.25 96.58 951.67 64.64 933.69 98.76 920.3 105.98 884.37"/><g class="59c16c7f-0cb4-4e07-8a1f-d2f32d760e2b"><g class="981c0549-a62f-474e-92c6-54af665d667f"><rect class="c2e4c518-72b3-4e06-af7b-69ff22460d9b" x="64.78" y="882.58" width="104" height="101" transform="translate(-146.48 30.32) rotate(-9.12)"/><circle class="c2e4c518-72b3-4e06-af7b-69ff22460d9b" cx="117.22" cy="933.93" r="51.3" transform="translate(-146.6 30.4) rotate(-9.12)"/><circle class="c2e4c518-72b3-4e06-af7b-69ff22460d9b" cx="117.22" cy="933.93" r="51.07" transform="translate(-146.6 30.4) rotate(-9.12)"/><circle class="c2e4c518-72b3-4e06-af7b-69ff22460d9b" cx="117.22" cy="933.93" r="50.84" transform="translate(-146.6 30.4) rotate(-9.12)"/><circle class="c2e4c518-72b3-4e06-af7b-69ff22460d9b" cx="117.22" cy="933.93" r="50.62" transform="translate(-146.6 30.4) rotate(-9.12)"/><circle class="c2e4c518-72b3-4e06-af7b-69ff22460d9b" cx="117.22" cy="933.93" r="50.39" transform="translate(-146.6 30.4) rotate(-9.12)"/><circle class="c2e4c518-72b3-4e06-af7b-69ff22460d9b" cx="117.22" cy="933.93" r="50.16" transform="translate(-146.6 30.4) rotate(-9.12)"/><circle class="c2e4c518-72b3-4e06-af7b-69ff22460d9b" cx="117.22" cy="933.93" r="49.93" transform="translate(-146.6 30.4) rotate(-9.12)"/><circle class="c2e4c518-72b3-4e06-af7b-69ff22460d9b" cx="117.22" cy="933.93" r="49.7" transform="translate(-146.6 30.4) rotate(-9.12)"/><circle class="c2e4c518-72b3-4e06-af7b-69ff22460d9b" cx="117.22" cy="933.93" r="49.48" transform="translate(-146.6 30.4) rotate(-9.12)"/><circle class="c2e4c518-72b3-4e06-af7b-69ff22460d9b" cx="117.22" cy="933.93" r="49.25" transform="translate(-146.6 30.4) rotate(-9.12)"/><circle class="c2e4c518-72b3-4e06-af7b-69ff22460d9b" cx="117.22" cy="933.93" r="49.02" transform="translate(-146.6 30.4) rotate(-9.12)"/><circle class="c2e4c518-72b3-4e06-af7b-69ff22460d9b" cx="117.22" cy="933.93" r="48.79" transform="translate(-146.6 30.4) rotate(-9.12)"/><circle class="c2e4c518-72b3-4e06-af7b-69ff22460d9b" cx="117.22" cy="933.93" r="48.56" transform="translate(-146.6 30.4) rotate(-9.12)"/><circle class="48dd9210-a4bd-42be-8cd5-fdbfe05b2e86" cx="117.22" cy="933.93" r="48.34" transform="translate(-146.6 30.4) rotate(-9.12)"/><circle class="48dd9210-a4bd-42be-8cd5-fdbfe05b2e86" cx="117.22" cy="933.93" r="48.11" transform="translate(-146.6 30.4) rotate(-9.12)"/><circle class="48dd9210-a4bd-42be-8cd5-fdbfe05b2e86" cx="117.22" cy="933.93" r="47.88" transform="translate(-146.6 30.4) rotate(-9.12)"/><circle class="48dd9210-a4bd-42be-8cd5-fdbfe05b2e86" cx="117.22" cy="933.93" r="47.65" transform="translate(-146.6 30.4) rotate(-9.12)"/><circle class="48dd9210-a4bd-42be-8cd5-fdbfe05b2e86" cx="117.22" cy="933.93" r="47.42" transform="translate(-146.6 30.4) rotate(-9.12)"/><circle class="f3275e07-db25-4127-9a84-23faf99b7af6" cx="117.22" cy="933.93" r="47.2" transform="translate(-146.6 30.4) rotate(-9.12)"/><circle class="f3275e07-db25-4127-9a84-23faf99b7af6" cx="117.22" cy="933.93" r="46.97" transform="translate(-146.6 30.4) rotate(-9.12)"/><circle class="f3275e07-db25-4127-9a84-23faf99b7af6" cx="117.22" cy="933.93" r="46.74" transform="translate(-146.6 30.4) rotate(-9.12)"/><circle class="9079ddb0-473b-4c27-a8c2-314c73deb53c" cx="117.22" cy="933.93" r="46.51" transform="translate(-146.6 30.4) rotate(-9.12)"/><circle class="9079ddb0-473b-4c27-a8c2-314c73deb53c" cx="117.22" cy="933.93" r="46.28" transform="translate(-146.6 30.4) rotate(-9.12)"/><circle class="9079ddb0-473b-4c27-a8c2-314c73deb53c" cx="117.22" cy="933.93" r="46.06" transform="translate(-146.6 30.4) rotate(-9.12)"/><circle class="9079ddb0-473b-4c27-a8c2-314c73deb53c" cx="117.22" cy="933.93" r="45.83" transform="translate(-146.6 30.4) rotate(-9.12)"/><circle class="9079ddb0-473b-4c27-a8c2-314c73deb53c" cx="117.22" cy="933.93" r="45.6" transform="translate(-146.6 30.4) rotate(-9.12)"/><circle class="9079ddb0-473b-4c27-a8c2-314c73deb53c" cx="117.22" cy="933.93" r="45.37" transform="translate(-146.6 30.4) rotate(-9.12)"/><circle class="028616a8-c8db-4888-8e0e-6e971ec0e101" cx="117.22" cy="933.93" r="45.14" transform="translate(-146.6 30.4) rotate(-9.12)"/><circle class="028616a8-c8db-4888-8e0e-6e971ec0e101" cx="117.22" cy="933.93" r="44.92" transform="translate(-146.6 30.4) rotate(-9.12)"/><circle class="028616a8-c8db-4888-8e0e-6e971ec0e101" cx="117.22" cy="933.93" r="44.69" transform="translate(-146.6 30.4) rotate(-9.12)"/><circle class="e7fd1733-5359-4eac-b404-5c53a52e5374" cx="117.22" cy="933.93" r="44.46" transform="translate(-146.6 30.4) rotate(-9.12)"/><circle class="e7fd1733-5359-4eac-b404-5c53a52e5374" cx="117.22" cy="933.93" r="44.23" transform="translate(-146.6 30.4) rotate(-9.12)"/><circle class="a3ea8517-2f03-4d88-ad15-ffa21d2bed53" cx="117.22" cy="933.93" r="44" transform="translate(-146.6 30.4) rotate(-9.12)"/><circle class="a3ea8517-2f03-4d88-ad15-ffa21d2bed53" cx="117.22" cy="933.93" r="43.78" transform="translate(-146.6 30.4) rotate(-9.12)"/><circle class="a3ea8517-2f03-4d88-ad15-ffa21d2bed53" cx="117.22" cy="933.93" r="43.55" transform="translate(-146.6 30.4) rotate(-9.12)"/><circle class="a3ea8517-2f03-4d88-ad15-ffa21d2bed53" cx="117.22" cy="933.93" r="43.32" transform="translate(-146.6 30.4) rotate(-9.12)"/><circle class="104ed772-8c4b-4f29-a45a-49dd30c61bea" cx="117.22" cy="933.93" r="43.09" transform="translate(-146.6 30.4) rotate(-9.12)"/><circle class="104ed772-8c4b-4f29-a45a-49dd30c61bea" cx="117.22" cy="933.93" r="42.86" transform="translate(-146.6 30.4) rotate(-9.12)"/><circle class="52b948d2-94f7-46b0-8d9d-36112440e247" cx="117.22" cy="933.93" r="42.64" transform="translate(-146.6 30.4) rotate(-9.12)"/><circle class="1341df00-86d5-4916-84a2-fff077055551" cx="117.22" cy="933.93" r="42.41" transform="translate(-146.6 30.4) rotate(-9.12)"/><circle class="1341df00-86d5-4916-84a2-fff077055551" cx="117.22" cy="933.93" r="42.18" transform="translate(-146.6 30.4) rotate(-9.12)"/><circle class="1341df00-86d5-4916-84a2-fff077055551" cx="117.22" cy="933.93" r="41.95" transform="translate(-146.6 30.4) rotate(-9.12)"/><circle class="b81740ac-091b-45e1-93bc-68fe86dc8162" cx="117.22" cy="933.93" r="41.72" transform="translate(-146.6 30.4) rotate(-9.12)"/><circle class="b81740ac-091b-45e1-93bc-68fe86dc8162" cx="117.22" cy="933.93" r="41.5" transform="translate(-146.6 30.4) rotate(-9.12)"/><circle class="b81740ac-091b-45e1-93bc-68fe86dc8162" cx="117.22" cy="933.93" r="41.27" transform="translate(-146.6 30.4) rotate(-9.12)"/><circle class="ac1da86b-87d4-4c16-ac41-a37004cd629f" cx="117.22" cy="933.93" r="41.04" transform="translate(-146.6 30.4) rotate(-9.12)"/><circle class="ac1da86b-87d4-4c16-ac41-a37004cd629f" cx="117.22" cy="933.93" r="40.81" transform="translate(-146.6 30.4) rotate(-9.12)"/><circle class="ac1da86b-87d4-4c16-ac41-a37004cd629f" cx="117.22" cy="933.93" r="40.58" transform="translate(-146.6 30.4) rotate(-9.12)"/><circle class="34e6a6d1-2d0d-4eb4-925b-660df22e34ae" cx="117.22" cy="933.93" r="40.36" transform="translate(-146.6 30.4) rotate(-9.12)"/><circle class="34e6a6d1-2d0d-4eb4-925b-660df22e34ae" cx="117.22" cy="933.93" r="40.13" transform="translate(-146.6 30.4) rotate(-9.12)"/><circle class="3cd5f25e-21b1-4646-bd05-10defbd6c2b6" cx="117.22" cy="933.93" r="39.9" transform="translate(-146.6 30.4) rotate(-9.12)"/><circle class="3cd5f25e-21b1-4646-bd05-10defbd6c2b6" cx="117.22" cy="933.93" r="39.67" transform="translate(-146.6 30.4) rotate(-9.12)"/><circle class="3cd5f25e-21b1-4646-bd05-10defbd6c2b6" cx="117.22" cy="933.93" r="39.44" transform="translate(-146.6 30.4) rotate(-9.12)"/><circle class="d8d57aad-ff18-4aac-b123-393fe5bd940c" cx="117.22" cy="933.93" r="39.22" transform="translate(-146.6 30.4) rotate(-9.12)"/><circle class="d8d57aad-ff18-4aac-b123-393fe5bd940c" cx="117.22" cy="933.93" r="38.99" transform="translate(-146.6 30.4) rotate(-9.12)"/><circle class="1e9a24c6-300b-4ee6-a861-6307de0680ff" cx="117.22" cy="933.93" r="38.76" transform="translate(-146.6 30.4) rotate(-9.12)"/><circle class="1e9a24c6-300b-4ee6-a861-6307de0680ff" cx="117.22" cy="933.93" r="38.53" transform="translate(-146.6 30.4) rotate(-9.12)"/><circle class="ee0a3c97-3d3f-4d26-bc07-f6a3b6f599b2" cx="117.22" cy="933.93" r="38.3" transform="translate(-146.6 30.4) rotate(-9.12)"/><circle class="ee0a3c97-3d3f-4d26-bc07-f6a3b6f599b2" cx="117.22" cy="933.93" r="38.08" transform="translate(-146.6 30.4) rotate(-9.12)"/><circle class="ee0a3c97-3d3f-4d26-bc07-f6a3b6f599b2" cx="117.22" cy="933.93" r="37.85" transform="translate(-146.6 30.4) rotate(-9.12)"/><circle class="8f86ba07-e415-4fe0-88d5-922bf90bab12" cx="117.22" cy="933.93" r="37.62" transform="translate(-146.6 30.4) rotate(-9.12)"/><circle class="8f86ba07-e415-4fe0-88d5-922bf90bab12" cx="117.22" cy="933.93" r="37.39" transform="translate(-146.6 30.4) rotate(-9.12)"/><circle class="c3a87603-6cf4-44d5-b22e-6ede9f67abe9" cx="117.22" cy="933.93" r="37.16" transform="translate(-146.6 30.4) rotate(-9.12)"/><circle class="c3a87603-6cf4-44d5-b22e-6ede9f67abe9" cx="117.22" cy="933.93" r="36.94" transform="translate(-146.6 30.4) rotate(-9.12)"/><circle class="28072659-5697-46c5-b9a1-80944f2796d1" cx="117.22" cy="933.93" r="36.71" transform="translate(-146.6 30.4) rotate(-9.12)"/><circle class="7137ee14-9183-4ea9-8bff-aed87c3cc9fd" cx="117.22" cy="933.93" r="36.48" transform="translate(-146.6 30.4) rotate(-9.12)"/><circle class="7137ee14-9183-4ea9-8bff-aed87c3cc9fd" cx="117.22" cy="933.93" r="36.25" transform="translate(-146.6 30.4) rotate(-9.12)"/><circle class="fd4b22c4-79b8-4b8b-987e-c5ff015f1c95" cx="117.22" cy="933.93" r="36.02" transform="translate(-146.6 30.4) rotate(-9.12)"/><circle class="02af4d29-1233-43fc-a109-a2197e426116" cx="117.22" cy="933.93" r="35.8" transform="translate(-146.6 30.4) rotate(-9.12)"/><circle class="27baf5a7-1737-4226-9a98-9129d3d563bb" cx="117.22" cy="933.93" r="35.57" transform="translate(-146.6 30.4) rotate(-9.12)"/><circle class="27baf5a7-1737-4226-9a98-9129d3d563bb" cx="117.22" cy="933.93" r="35.34" transform="translate(-146.6 30.4) rotate(-9.12)"/><circle class="880b2751-a761-4026-a963-f5a297b91b8a" cx="117.22" cy="933.93" r="35.11" transform="translate(-146.6 30.4) rotate(-9.12)"/><circle class="7e0eaf90-9f10-45f2-8184-59947d0fb8e8" cx="117.22" cy="933.93" r="34.88" transform="translate(-146.6 30.4) rotate(-9.12)"/><circle class="7e0eaf90-9f10-45f2-8184-59947d0fb8e8" cx="117.22" cy="933.93" r="34.66" transform="translate(-146.6 30.4) rotate(-9.12)"/><circle class="c14794bf-10bc-4811-b886-d46fcc8a5c02" cx="117.22" cy="933.93" r="34.43" transform="translate(-146.6 30.4) rotate(-9.12)"/><circle class="235cc1cd-7e09-4867-b117-21ba76fa8ced" cx="117.22" cy="933.93" r="34.2" transform="translate(-146.6 30.4) rotate(-9.12)"/><circle class="7737e491-39d1-415f-9bcd-1cda3f48912b" cx="117.22" cy="933.93" r="33.97" transform="translate(-146.6 30.4) rotate(-9.12)"/><circle class="963cd662-1c0f-4b77-abb2-7c463f5d69e6" cx="117.22" cy="933.93" r="33.74" transform="translate(-146.6 30.4) rotate(-9.12)"/><circle class="73903b33-e9e7-403d-8860-61eef92f24ed" cx="117.22" cy="933.93" r="33.52" transform="translate(-146.6 30.4) rotate(-9.12)"/><circle class="b75c5f5b-a347-4f5d-9681-9d5c4a71743f" cx="117.22" cy="933.93" r="33.29" transform="translate(-146.6 30.4) rotate(-9.12)"/><circle class="7272f7ac-cd1a-46bb-a09d-861ea44534ac" cx="117.22" cy="933.93" r="33.06" transform="translate(-146.6 30.4) rotate(-9.12)"/><circle class="3acf1599-e855-4efc-88fe-c34cae9e70b4" cx="117.22" cy="933.93" r="32.83" transform="translate(-146.6 30.4) rotate(-9.12)"/><circle class="2b1f4902-ddf2-41c2-85b1-1bba7ae8b011" cx="117.22" cy="933.93" r="32.6" transform="translate(-146.6 30.4) rotate(-9.12)"/><circle class="435f87f9-78a4-4c95-bdeb-be230532c535" cx="117.22" cy="933.93" r="32.38" transform="translate(-146.6 30.4) rotate(-9.12)"/><circle class="2b80ab05-0a57-43ee-b12d-c94caaa84334" cx="117.22" cy="933.93" r="32.15" transform="translate(-146.6 30.4) rotate(-9.12)"/><circle class="b4cc053f-4a72-4cd8-a026-ed5b2bbe4e2f" cx="117.22" cy="933.93" r="31.92" transform="translate(-146.6 30.4) rotate(-9.12)"/><circle class="94416281-d528-41d5-8744-31465096234d" cx="117.22" cy="933.93" r="31.69" transform="translate(-146.6 30.4) rotate(-9.12)"/><circle class="22934f14-88b6-49cf-a047-c23c48d6e194" cx="117.22" cy="933.93" r="31.46" transform="translate(-146.6 30.4) rotate(-9.12)"/><circle class="22934f14-88b6-49cf-a047-c23c48d6e194" cx="117.22" cy="933.93" r="31.24" transform="translate(-146.6 30.4) rotate(-9.12)"/><circle class="57556c08-2125-408a-8917-d2b72bfbaba1" cx="117.22" cy="933.93" r="31.01" transform="translate(-146.6 30.4) rotate(-9.12)"/><circle class="b3567949-c4fd-4226-9276-0949adde283e" cx="117.22" cy="933.93" r="30.78" transform="translate(-146.6 30.4) rotate(-9.12)"/><circle class="8fe9de10-f96c-44ba-9795-4fa7d601796f" cx="117.22" cy="933.93" r="30.55" transform="translate(-146.6 30.4) rotate(-9.12)"/><circle class="6bb435ee-6b2f-472a-94cf-607be57794c3" cx="117.22" cy="933.93" r="30.32" transform="translate(-146.6 30.4) rotate(-9.12)"/><circle class="3442d3a0-e3bf-4060-9665-382b73a35b8a" cx="117.22" cy="933.93" r="30.1" transform="translate(-146.6 30.4) rotate(-9.12)"/><circle class="18b10a70-e8b8-4386-9f9d-7f22d448b3ea" cx="117.22" cy="933.93" r="29.87" transform="translate(-146.6 30.4) rotate(-9.12)"/><circle class="ea16bc2e-f158-4e91-ad5f-f1234bd3cc00" cx="117.22" cy="933.93" r="29.64" transform="translate(-146.6 30.4) rotate(-9.12)"/><circle class="9a67ab35-356a-43a1-98f4-7047fd8ad391" cx="117.22" cy="933.93" r="29.41" transform="translate(-146.6 30.4) rotate(-9.12)"/><circle class="9a67ab35-356a-43a1-98f4-7047fd8ad391" cx="117.22" cy="933.93" r="29.18" transform="translate(-146.6 30.4) rotate(-9.12)"/><circle class="10202ba3-893e-41fe-b149-be85621e1252" cx="117.22" cy="933.93" r="28.96" transform="translate(-146.6 30.4) rotate(-9.12)"/><circle class="037a1d12-dc56-4672-bfe0-5d8dd1b83b25" cx="117.22" cy="933.93" r="28.73" transform="translate(-146.6 30.4) rotate(-9.12)"/><circle class="7dd694d2-5813-4e5e-85fc-81773381d747" cx="117.22" cy="933.93" r="28.5" transform="translate(-146.6 30.4) rotate(-9.12)"/><circle class="ba0c239e-7006-4c46-9058-4f01859aced4" cx="117.22" cy="933.93" r="28.27" transform="translate(-146.6 30.4) rotate(-9.12)"/><circle class="205ce7d2-6c94-402f-a0be-097ba1b7793e" cx="117.22" cy="933.93" r="28.04" transform="translate(-146.6 30.4) rotate(-9.12)"/><circle class="acfb6380-2e6e-4b84-96bb-3e5d95914564" cx="117.22" cy="933.93" r="27.82" transform="translate(-146.6 30.4) rotate(-9.12)"/><circle class="a012c038-1064-449e-ad02-56d0a5b049f6" cx="117.22" cy="933.93" r="27.59" transform="matrix(0.99, -0.16, 0.16, 0.99, -146.6, 30.4)"/><circle class="b7bbfdd9-a711-4526-9609-c8b293597527" cx="117.22" cy="933.93" r="27.36" transform="translate(-146.6 30.4) rotate(-9.12)"/><circle class="bd30a3ea-441c-41b7-9d7a-ecf7d3ce7b4c" cx="117.22" cy="933.93" r="27.13" transform="translate(-146.6 30.4) rotate(-9.12)"/><circle class="ff9a1116-699f-4157-a01f-6b47b286c682" cx="117.22" cy="933.93" r="26.9" transform="translate(-146.6 30.4) rotate(-9.12)"/><circle class="ad99bc2f-d09b-4428-be12-6f8454517656" cx="117.22" cy="933.93" r="26.68" transform="translate(-146.6 30.4) rotate(-9.12)"/><circle class="17003107-d2bd-4249-b26f-5d7d472b80a7" cx="117.22" cy="933.93" r="26.45" transform="translate(-146.6 30.4) rotate(-9.12)"/><circle class="ab35a03b-eb9c-4b0c-9c4d-58874a5cb515" cx="117.22" cy="933.93" r="26.22" transform="translate(-146.6 30.4) rotate(-9.12)"/><circle class="b7122215-0fa0-45f6-8f7e-c7119dce3d10" cx="117.22" cy="933.93" r="25.99" transform="translate(-146.6 30.4) rotate(-9.12)"/><circle class="5664f0c1-a7f4-42f6-98de-73923a2f1f1f" cx="117.22" cy="933.93" r="25.76" transform="translate(-146.6 30.4) rotate(-9.12)"/><circle class="e20937b6-0d07-4bb8-ac7a-f34a474f35df" cx="117.22" cy="933.93" r="25.54" transform="translate(-146.6 30.4) rotate(-9.12)"/><circle class="27c06620-475b-40fc-bab0-8fb2813ad366" cx="117.22" cy="933.93" r="25.31" transform="translate(-146.6 30.4) rotate(-9.12)"/><circle class="380c1f46-8045-439a-a895-7f625d0bb29b" cx="117.22" cy="933.93" r="25.08" transform="translate(-146.6 30.4) rotate(-9.12)"/><circle class="a5142a73-4b47-448d-abad-45cb50846b86" cx="117.22" cy="933.93" r="24.85" transform="translate(-146.6 30.4) rotate(-9.12)"/><circle class="66c14705-8610-44c2-b13c-a552f66e9840" cx="117.22" cy="933.93" r="24.62" transform="translate(-146.6 30.4) rotate(-9.12)"/><circle class="450e6e65-d2e9-41b5-bfc8-a1f972f9bd80" cx="117.22" cy="933.93" r="24.4" transform="translate(-146.6 30.4) rotate(-9.12)"/><circle class="2117fb80-6bc2-43ea-9f42-6c3d1df9aa5e" cx="117.22" cy="933.93" r="24.17" transform="translate(-146.6 30.4) rotate(-9.12)"/><circle class="886a0876-de23-42b4-915d-87f78d6b5ed8" cx="117.22" cy="933.93" r="23.94" transform="translate(-146.6 30.4) rotate(-9.12)"/><circle class="95f3b0c0-ec44-4078-b9ea-0308468d04dd" cx="117.22" cy="933.93" r="23.71" transform="translate(-146.6 30.4) rotate(-9.12)"/><circle class="e938a823-7710-4f8c-a2cc-e98956a6f219" cx="117.22" cy="933.93" r="23.48" transform="translate(-146.6 30.4) rotate(-9.12)"/><circle class="c3f520f5-3a68-4985-9c94-20e823d8f04e" cx="117.22" cy="933.93" r="23.26" transform="translate(-146.6 30.4) rotate(-9.12)"/><circle class="869d0ea4-1e76-470c-a934-4325bb842560" cx="117.22" cy="933.93" r="23.03" transform="translate(-146.6 30.4) rotate(-9.12)"/><circle class="472f6fdb-ed21-4f63-9337-a186893a9136" cx="117.22" cy="933.93" r="22.8" transform="matrix(0.99, -0.16, 0.16, 0.99, -146.6, 30.4)"/><circle class="682d0ec4-3a8d-44b2-8dc6-a53b68e84ea1" cx="117.22" cy="933.93" r="22.57" transform="translate(-146.6 30.4) rotate(-9.12)"/><circle class="e80ab8b7-6152-4dfc-b12a-b3b1914e355c" cx="117.22" cy="933.93" r="22.34" transform="translate(-146.6 30.4) rotate(-9.12)"/><circle class="a6e2d930-92eb-49b9-9cac-03443c648430" cx="117.22" cy="933.93" r="22.12" transform="translate(-146.6 30.4) rotate(-9.12)"/><circle class="f9fa87b2-abf0-4bb8-ad8b-7b5272924593" cx="117.22" cy="933.93" r="21.89" transform="translate(-146.6 30.4) rotate(-9.12)"/><circle class="e6e4e268-56b0-4ddb-a289-8f50680a097e" cx="117.22" cy="933.93" r="21.66" transform="translate(-146.6 30.4) rotate(-9.12)"/><circle class="aaac0938-1c73-452f-8e38-2db1459442f6" cx="117.22" cy="933.93" r="21.43" transform="translate(-146.6 30.4) rotate(-9.12)"/><circle class="95b80e56-ec42-4a4f-9193-5f822131f3db" cx="117.22" cy="933.93" r="21.2" transform="translate(-146.6 30.4) rotate(-9.12)"/><circle class="c9321e51-8488-4353-ac62-cc2885874aee" cx="117.22" cy="933.93" r="20.98" transform="translate(-146.6 30.4) rotate(-9.12)"/><circle class="64576c08-a956-4560-a4a8-73a7400d47e4" cx="117.22" cy="933.93" r="20.75" transform="translate(-146.6 30.4) rotate(-9.12)"/><circle class="effbac9a-4ce8-4c1a-9b57-466bc711dde1" cx="117.22" cy="933.93" r="20.52" transform="translate(-146.6 30.4) rotate(-9.12)"/><circle class="50279073-2fb8-4e95-a0bf-d07498540213" cx="117.22" cy="933.93" r="20.29" transform="translate(-146.6 30.4) rotate(-9.12)"/><circle class="a4a89102-069d-4125-9beb-c42e366de547" cx="117.22" cy="933.93" r="20.06" transform="translate(-146.6 30.4) rotate(-9.12)"/><circle class="855ce1a8-23d6-4524-94d0-94d81a3176eb" cx="117.22" cy="933.93" r="19.84" transform="translate(-146.6 30.4) rotate(-9.12)"/><circle class="33abb8d8-9e55-40a5-bd97-bef5d36b4156" cx="117.22" cy="933.93" r="19.61" transform="translate(-146.6 30.4) rotate(-9.12)"/><circle class="ed750a8d-de86-4ff8-93db-e92599963b3f" cx="117.22" cy="933.93" r="19.38" transform="translate(-146.6 30.4) rotate(-9.12)"/><circle class="b4e61ca7-9f3c-49fd-847c-a6252ee62d8e" cx="117.22" cy="933.93" r="19.15" transform="translate(-146.6 30.4) rotate(-9.12)"/><circle class="839d5997-0da5-4854-9ebd-e9da9fca5831" cx="117.22" cy="933.93" r="18.92" transform="translate(-146.6 30.4) rotate(-9.12)"/><circle class="30f40a22-ac53-4716-8cd2-427e087c629a" cx="117.22" cy="933.93" r="18.7" transform="translate(-146.6 30.4) rotate(-9.12)"/><circle class="764d3f43-effe-4338-87fb-444a47099c71" cx="117.22" cy="933.93" r="18.47" transform="translate(-146.6 30.4) rotate(-9.12)"/><circle class="4d42e070-79fe-4ceb-be47-eab444165901" cx="117.22" cy="933.93" r="18.24" transform="translate(-146.6 30.4) rotate(-9.12)"/><circle class="6d567643-410e-46a1-8a59-099ebbcae67b" cx="117.22" cy="933.93" r="18.01" transform="translate(-146.6 30.4) rotate(-9.12)"/><circle class="0b8cf979-9392-4905-ad53-e8f11d511128" cx="117.22" cy="933.93" r="17.78" transform="translate(-146.6 30.4) rotate(-9.12)"/><circle class="afc00e46-50d4-480a-9e3a-f331a4dd7aa6" cx="117.22" cy="933.93" r="17.56" transform="translate(-146.6 30.4) rotate(-9.12)"/><circle class="d1c6a49b-4706-453e-84f9-ecb6d78fbdd6" cx="117.22" cy="933.93" r="17.33" transform="translate(-146.6 30.4) rotate(-9.12)"/><circle class="a9b9a3a8-b0a0-4c01-813b-ce56d39e88ee" cx="117.22" cy="933.93" r="17.1" transform="translate(-146.6 30.4) rotate(-9.12)"/><circle class="5dd424aa-f7b6-4cb1-8648-7918c515ffe6" cx="117.22" cy="933.93" r="16.87" transform="translate(-146.6 30.4) rotate(-9.12)"/><circle class="59c7007e-f107-4d48-a397-caf4cc9bf5ca" cx="117.22" cy="933.93" r="16.64" transform="translate(-146.6 30.4) rotate(-9.12)"/><circle class="17406a43-c43b-45b2-b1ca-68552bff1b5c" cx="117.22" cy="933.93" r="16.42" transform="translate(-146.6 30.4) rotate(-9.12)"/><circle class="d5dec3f6-8916-4646-9eb0-bc3b78150775" cx="117.22" cy="933.93" r="16.19" transform="translate(-146.6 30.4) rotate(-9.12)"/><circle class="70f2ac41-c4e8-4d6f-9ca7-b1f96c6ba17e" cx="117.22" cy="933.93" r="15.96" transform="translate(-146.6 30.4) rotate(-9.12)"/><circle class="45aa3a81-86d1-4b01-a64d-801f40f27e3e" cx="117.22" cy="933.93" r="15.73" transform="translate(-146.6 30.4) rotate(-9.12)"/><circle class="092b9c02-acdd-421a-9b34-643eb82da80f" cx="117.22" cy="933.93" r="15.5" transform="translate(-146.6 30.4) rotate(-9.12)"/><circle class="1618cddb-cb97-44b8-9c13-412a5bf108c1" cx="117.22" cy="933.93" r="15.28" transform="translate(-146.6 30.4) rotate(-9.12)"/><circle class="d1c3b1cb-41a8-4f35-9308-ab16ff5008c1" cx="117.22" cy="933.93" r="15.05" transform="translate(-146.6 30.4) rotate(-9.12)"/><circle class="d23707ac-ca42-45d8-a19e-7c330dc03d06" cx="117.22" cy="933.93" r="14.82" transform="translate(-146.6 30.4) rotate(-9.12)"/><circle class="432c33e6-0b5a-4056-bab1-025d04f1c92e" cx="117.22" cy="933.93" r="14.59" transform="translate(-146.6 30.4) rotate(-9.12)"/><circle class="feee9375-8ee5-477b-98a5-9a4b4949a7aa" cx="117.22" cy="933.93" r="14.36" transform="translate(-146.6 30.4) rotate(-9.12)"/><circle class="efd941bf-9c64-4cc3-b1f9-5143febb8128" cx="117.22" cy="933.93" r="14.14" transform="translate(-146.6 30.4) rotate(-9.12)"/><circle class="d782204e-ad3c-45ba-8829-80f8d1def5d2" cx="117.22" cy="933.93" r="13.91" transform="translate(-146.6 30.4) rotate(-9.12)"/><circle class="31335b1c-07d9-43b0-b6aa-8cd096d3396b" cx="117.22" cy="933.93" r="13.68" transform="translate(-146.6 30.4) rotate(-9.12)"/><circle class="d65e329c-abd6-49d7-a65e-91ff38d3c654" cx="117.22" cy="933.93" r="13.45" transform="translate(-146.6 30.4) rotate(-9.12)"/><circle class="054243d8-4279-436e-83a0-08961e42acee" cx="117.22" cy="933.93" r="13.22" transform="translate(-146.6 30.4) rotate(-9.12)"/><circle class="e0b8ac0f-5c64-4d2b-a7e6-91d9901bdfd6" cx="117.22" cy="933.93" r="13" transform="translate(-146.6 30.4) rotate(-9.12)"/><circle class="3f34f033-b0a1-43de-84bc-43cd52414cff" cx="117.22" cy="933.93" r="12.77" transform="translate(-146.6 30.4) rotate(-9.12)"/><circle class="40957404-cf4c-4605-bdf7-c51d45c4aeb8" cx="117.22" cy="933.93" r="12.54" transform="translate(-146.6 30.4) rotate(-9.12)"/><circle class="6b366c12-878b-4ba3-a411-6bade4c8ea17" cx="117.22" cy="933.93" r="12.31" transform="translate(-146.6 30.4) rotate(-9.12)"/><circle class="46a92604-1700-4949-ac65-c3993a6dc578" cx="117.22" cy="933.93" r="12.08" transform="translate(-146.6 30.4) rotate(-9.12)"/><circle class="a7fb0aac-d1e8-479c-b86a-7a01be45c80e" cx="117.22" cy="933.93" r="11.86" transform="translate(-146.6 30.4) rotate(-9.12)"/><circle class="a82400e9-e4c4-4efe-b5ce-c69e075e46b4" cx="117.22" cy="933.93" r="11.63" transform="translate(-146.6 30.4) rotate(-9.12)"/><circle class="1c6a2114-d588-4e71-bcd2-83b90dab6605" cx="117.22" cy="933.93" r="11.4" transform="translate(-146.6 30.4) rotate(-9.12)"/><circle class="69dd89f1-03bc-47b0-8a44-accfd670992f" cx="117.22" cy="933.93" r="11.17" transform="translate(-146.6 30.4) rotate(-9.12)"/><circle class="af98cd89-edc0-457e-b461-58a13cead75f" cx="117.22" cy="933.93" r="10.94" transform="translate(-146.6 30.4) rotate(-9.12)"/><circle class="3b2f26ea-0886-4b5c-8cdb-43422f7b60e8" cx="117.22" cy="933.93" r="10.72" transform="translate(-146.6 30.4) rotate(-9.12)"/><circle class="41cd0158-3558-4b7e-befe-03bbd157d2e7" cx="117.22" cy="933.93" r="10.49" transform="matrix(0.99, -0.16, 0.16, 0.99, -146.6, 30.4)"/><circle class="6f978eae-f603-43f3-90b2-72229789c450" cx="117.22" cy="933.93" r="10.26" transform="translate(-146.6 30.4) rotate(-9.12)"/><circle class="ea175f0f-456d-491d-9929-3d3576a6ba41" cx="117.22" cy="933.93" r="10.03" transform="translate(-146.6 30.4) rotate(-9.12)"/><circle class="a1e60ba5-746c-4551-b90a-3c1a1e07567b" cx="117.22" cy="933.93" r="9.8" transform="translate(-146.6 30.4) rotate(-9.12)"/><circle class="f35ea0cd-f26e-474c-a4fd-d4623a773fc8" cx="117.22" cy="933.93" r="9.58" transform="translate(-146.6 30.4) rotate(-9.12)"/><circle class="e32b8cf2-91c2-4211-8e28-c67a733f58e0" cx="117.22" cy="933.93" r="9.35" transform="translate(-146.6 30.4) rotate(-9.12)"/><circle class="5c723704-8721-4416-8cff-86abda567387" cx="117.22" cy="933.93" r="9.12" transform="translate(-146.6 30.4) rotate(-9.12)"/><circle class="2a67a5e6-c1d1-46cc-8761-f19fbb911b78" cx="117.22" cy="933.93" r="8.89" transform="translate(-146.6 30.4) rotate(-9.12)"/><circle class="32d90bdd-b4e8-4224-b80a-93dad4b16003" cx="117.22" cy="933.93" r="8.66" transform="translate(-146.6 30.4) rotate(-9.12)"/><circle class="6044dc53-7127-4f1f-b1bf-b8cb3e7b4042" cx="117.22" cy="933.93" r="8.44" transform="translate(-146.6 30.4) rotate(-9.12)"/><circle class="35bb204c-302e-4a33-936a-75b91b63d528" cx="117.22" cy="933.93" r="8.21" transform="translate(-146.6 30.4) rotate(-9.12)"/><circle class="c05ff177-b891-4d51-8c30-cee22f59d84e" cx="117.22" cy="933.93" r="7.98" transform="translate(-146.6 30.4) rotate(-9.12)"/><circle class="a57f68e8-577c-4c7f-abb5-cd87c03475e3" cx="117.22" cy="933.93" r="7.75" transform="translate(-146.6 30.4) rotate(-9.12)"/><circle class="c5a45344-b544-46de-9f06-6508738b42aa" cx="117.22" cy="933.93" r="7.52" transform="translate(-146.6 30.4) rotate(-9.12)"/><circle class="d74928a3-c5eb-4d62-ada1-91d3a3ba2dec" cx="117.22" cy="933.93" r="7.3" transform="translate(-146.6 30.4) rotate(-9.12)"/><circle class="f4a7b0b4-a2bb-41c3-ba97-d07990623710" cx="117.22" cy="933.93" r="7.07" transform="translate(-146.6 30.4) rotate(-9.12)"/><circle class="0ff0001d-c40f-4419-99f3-5364096af89f" cx="117.22" cy="933.93" r="6.84" transform="translate(-146.6 30.4) rotate(-9.12)"/><circle class="2db014ef-1a48-4d41-836d-d78edafcd38f" cx="117.22" cy="933.93" r="6.61" transform="translate(-146.6 30.4) rotate(-9.12)"/><circle class="2f847cf1-fc81-425e-8f76-1c8abba604ec" cx="117.22" cy="933.93" r="6.38" transform="matrix(0.99, -0.16, 0.16, 0.99, -146.6, 30.4)"/><circle class="a170766e-7c74-4846-a296-fdc6416ac347" cx="117.22" cy="933.93" r="6.16" transform="translate(-146.6 30.4) rotate(-9.12)"/><circle class="d5385989-36d2-4a7a-a1e9-ff3ad0959ac9" cx="117.22" cy="933.93" r="5.93" transform="translate(-146.6 30.4) rotate(-9.12)"/><circle class="da7f94de-36ee-4522-bb0d-89fb247d0c75" cx="117.22" cy="933.93" r="5.7" transform="matrix(0.99, -0.16, 0.16, 0.99, -146.6, 30.4)"/><circle class="98246fd6-bf86-4dcc-8392-f72a18a8f8cc" cx="117.22" cy="933.93" r="5.47" transform="translate(-146.6 30.4) rotate(-9.12)"/><circle class="3f684e73-aec0-44eb-83c3-1f2be0cea66a" cx="117.22" cy="933.93" r="5.24" transform="translate(-146.6 30.4) rotate(-9.12)"/><circle class="30c863d7-1e4f-4ccf-adf5-44899d336fd1" cx="117.22" cy="933.93" r="5.02" transform="translate(-146.6 30.4) rotate(-9.12)"/><circle class="dbeb933b-35ce-4738-ac6b-de1069003d54" cx="117.22" cy="933.93" r="4.79" transform="translate(-146.6 30.4) rotate(-9.12)"/><circle class="d25019cb-da4e-4530-847d-ea3c6d063a3b" cx="117.22" cy="933.93" r="4.56" transform="translate(-146.6 30.4) rotate(-9.12)"/><circle class="a75d8c74-83f6-45c5-b48c-462b3bd96178" cx="117.22" cy="933.93" r="4.33" transform="translate(-146.6 30.4) rotate(-9.12)"/><circle class="c020d0b7-2256-4264-b7e4-d30bea689cbb" cx="117.22" cy="933.93" r="4.1" transform="translate(-146.6 30.4) rotate(-9.12)"/><circle class="e0bca244-879a-433f-9695-f62d01fe9bd6" cx="117.22" cy="933.93" r="3.88" transform="translate(-146.6 30.4) rotate(-9.12)"/><circle class="c283ee95-bd9a-426d-bdab-b45b1a9d6bfa" cx="117.22" cy="933.93" r="3.65" transform="translate(-146.6 30.4) rotate(-9.12)"/><circle class="a1f7320d-9e43-4d4b-9101-6046e54bd01b" cx="117.22" cy="933.93" r="3.42" transform="translate(-146.6 30.4) rotate(-9.12)"/><circle class="7f5a5bbc-237f-4c9d-a84c-877207d5c171" cx="117.22" cy="933.93" r="3.19" transform="translate(-146.6 30.4) rotate(-9.12)"/><circle class="a6aaf16f-009d-48b8-91ee-efd5e3c3dd2f" cx="117.22" cy="933.93" r="2.96" transform="translate(-146.6 30.4) rotate(-9.12)"/><circle class="3ec8f4ee-3f7e-44c9-a8e2-252cf53cba16" cx="117.22" cy="933.93" r="2.74" transform="translate(-146.6 30.4) rotate(-9.12)"/><circle class="3c23d126-ca41-406c-892c-e43f0b1cbb50" cx="117.22" cy="933.93" r="2.51" transform="translate(-146.6 30.4) rotate(-9.12)"/><circle class="b87edd4b-7d82-4fa0-a85d-2a894a483cd5" cx="117.22" cy="933.93" r="2.28" transform="translate(-146.6 30.4) rotate(-9.12)"/><circle class="3d52cdee-6419-4b02-8607-c7b6f56f9e68" cx="117.22" cy="933.93" r="2.05" transform="translate(-146.6 30.4) rotate(-9.12)"/><circle class="f0296729-6323-48ae-bdd6-f53cd659da42" cx="117.22" cy="933.93" r="1.82" transform="translate(-146.6 30.4) rotate(-9.12)"/><circle class="d35a4ae7-5532-4d45-bdcc-925b6e6292a3" cx="117.22" cy="933.93" r="1.6" transform="translate(-146.6 30.4) rotate(-9.12)"/><circle class="5081f317-0097-4cf2-8f0f-0441aff60243" cx="117.22" cy="933.93" r="1.37" transform="translate(-146.6 30.4) rotate(-9.12)"/><circle class="78bb85f2-c3a0-43ff-9582-3ca4e4c46018" cx="117.22" cy="933.93" r="1.14" transform="translate(-146.6 30.4) rotate(-9.12)"/><circle class="87577a75-0524-4ef4-a98c-5afc96f80479" cx="117.22" cy="933.93" r="0.91" transform="translate(-146.6 30.4) rotate(-9.12)"/><circle class="3bd0ccd1-9e95-4b33-b389-cb741e40e173" cx="117.22" cy="933.93" r="0.68" transform="translate(-146.6 30.4) rotate(-9.12)"/><circle class="8b86f943-b357-4cce-995e-17ed7e93fc5e" cx="117.22" cy="933.93" r="0.46" transform="translate(-146.6 30.4) rotate(-9.12)"/><circle class="8609eb8a-ee26-41e9-9fc0-176c58daf784" cx="117.22" cy="933.93" r="0.23" transform="translate(-146.6 30.4) rotate(-9.12)"/></g></g><polygon class="4f332fdc-3612-4fae-9a6e-9350553d1584" points="197.12 858.76 205.57 901.15 245.78 917.01 208.08 938.15 205.42 981.29 173.67 951.97 131.82 962.77 149.89 923.51 126.69 887.04 169.61 892.11 197.12 858.76"/><g class="59c16c7f-0cb4-4e07-8a1f-d2f32d760e2b"><polygon class="f38e47ab-6043-408d-8916-c68e345b1cfe" points="141.81 911.21 149.89 923.51 131.82 962.77 146.37 924.02 139.03 911.48 141.81 911.21"/></g><g class="59c16c7f-0cb4-4e07-8a1f-d2f32d760e2b"><polygon class="f38e47ab-6043-408d-8916-c68e345b1cfe" points="131.82 962.77 154.09 956.85 161.22 972.65 153.14 960.14 131.82 962.77"/></g><g class="327a3753-3645-402c-b8ca-6379557cd4ae"><g class="a15ff281-6d92-441a-9d65-480401701677"><rect class="c2e4c518-72b3-4e06-af7b-69ff22460d9b" x="125.82" y="860.49" width="120" height="122" transform="translate(-143.76 41.12) rotate(-9.12)"/><circle class="c2e4c518-72b3-4e06-af7b-69ff22460d9b" cx="186" cy="922.48" r="60.52" transform="translate(-143.92 41.16) rotate(-9.12)"/><circle class="c2e4c518-72b3-4e06-af7b-69ff22460d9b" cx="186" cy="922.48" r="60.25" transform="translate(-143.92 41.16) rotate(-9.12)"/><circle class="c2e4c518-72b3-4e06-af7b-69ff22460d9b" cx="186" cy="922.48" r="59.99" transform="matrix(0.99, -0.16, 0.16, 0.99, -143.92, 41.16)"/><circle class="c2e4c518-72b3-4e06-af7b-69ff22460d9b" cx="186" cy="922.48" r="59.72" transform="translate(-143.92 41.16) rotate(-9.12)"/><circle class="c2e4c518-72b3-4e06-af7b-69ff22460d9b" cx="186" cy="922.48" r="59.45" transform="translate(-143.92 41.16) rotate(-9.12)"/><circle class="c2e4c518-72b3-4e06-af7b-69ff22460d9b" cx="186" cy="922.48" r="59.18" transform="translate(-143.92 41.16) rotate(-9.12)"/><circle class="c2e4c518-72b3-4e06-af7b-69ff22460d9b" cx="186" cy="922.48" r="58.91" transform="translate(-143.92 41.16) rotate(-9.12)"/><circle class="c2e4c518-72b3-4e06-af7b-69ff22460d9b" cx="186" cy="922.48" r="58.64" transform="translate(-143.92 41.16) rotate(-9.12)"/><circle class="c2e4c518-72b3-4e06-af7b-69ff22460d9b" cx="186" cy="922.48" r="58.37" transform="translate(-143.92 41.16) rotate(-9.12)"/><circle class="c2e4c518-72b3-4e06-af7b-69ff22460d9b" cx="186" cy="922.48" r="58.1" transform="translate(-143.92 41.16) rotate(-9.12)"/><circle class="c2e4c518-72b3-4e06-af7b-69ff22460d9b" cx="186" cy="922.48" r="57.83" transform="translate(-143.92 41.16) rotate(-9.12)"/><circle class="c2e4c518-72b3-4e06-af7b-69ff22460d9b" cx="186" cy="922.48" r="57.56" transform="translate(-143.92 41.16) rotate(-9.12)"/><circle class="c2e4c518-72b3-4e06-af7b-69ff22460d9b" cx="186" cy="922.48" r="57.3" transform="translate(-143.92 41.16) rotate(-9.12)"/><circle class="48dd9210-a4bd-42be-8cd5-fdbfe05b2e86" cx="186" cy="922.48" r="57.03" transform="translate(-143.92 41.16) rotate(-9.12)"/><circle class="48dd9210-a4bd-42be-8cd5-fdbfe05b2e86" cx="186" cy="922.48" r="56.76" transform="matrix(0.99, -0.16, 0.16, 0.99, -143.92, 41.16)"/><circle class="48dd9210-a4bd-42be-8cd5-fdbfe05b2e86" cx="186" cy="922.48" r="56.49" transform="translate(-143.92 41.16) rotate(-9.12)"/><circle class="48dd9210-a4bd-42be-8cd5-fdbfe05b2e86" cx="186" cy="922.48" r="56.22" transform="translate(-143.92 41.16) rotate(-9.12)"/><circle class="48dd9210-a4bd-42be-8cd5-fdbfe05b2e86" cx="186" cy="922.48" r="55.95" transform="translate(-143.92 41.16) rotate(-9.12)"/><circle class="f3275e07-db25-4127-9a84-23faf99b7af6" cx="186" cy="922.48" r="55.68" transform="translate(-143.92 41.16) rotate(-9.12)"/><circle class="f3275e07-db25-4127-9a84-23faf99b7af6" cx="186" cy="922.48" r="55.41" transform="translate(-143.92 41.16) rotate(-9.12)"/><circle class="f3275e07-db25-4127-9a84-23faf99b7af6" cx="186" cy="922.48" r="55.14" transform="translate(-143.92 41.16) rotate(-9.12)"/><circle class="9079ddb0-473b-4c27-a8c2-314c73deb53c" cx="186" cy="922.48" r="54.87" transform="translate(-143.92 41.16) rotate(-9.12)"/><circle class="9079ddb0-473b-4c27-a8c2-314c73deb53c" cx="186" cy="922.48" r="54.61" transform="translate(-143.92 41.16) rotate(-9.12)"/><circle class="9079ddb0-473b-4c27-a8c2-314c73deb53c" cx="186" cy="922.48" r="54.34" transform="translate(-143.92 41.16) rotate(-9.12)"/><circle class="9079ddb0-473b-4c27-a8c2-314c73deb53c" cx="186" cy="922.48" r="54.07" transform="translate(-143.92 41.16) rotate(-9.12)"/><circle class="9079ddb0-473b-4c27-a8c2-314c73deb53c" cx="186" cy="922.48" r="53.8" transform="matrix(0.99, -0.16, 0.16, 0.99, -143.92, 41.16)"/><circle class="9079ddb0-473b-4c27-a8c2-314c73deb53c" cx="186" cy="922.48" r="53.53" transform="translate(-143.92 41.16) rotate(-9.12)"/><circle class="028616a8-c8db-4888-8e0e-6e971ec0e101" cx="186" cy="922.48" r="53.26" transform="translate(-143.92 41.16) rotate(-9.12)"/><circle class="028616a8-c8db-4888-8e0e-6e971ec0e101" cx="186" cy="922.48" r="52.99" transform="translate(-143.92 41.16) rotate(-9.12)"/><circle class="028616a8-c8db-4888-8e0e-6e971ec0e101" cx="186" cy="922.48" r="52.72" transform="matrix(0.99, -0.16, 0.16, 0.99, -143.92, 41.16)"/><circle class="e7fd1733-5359-4eac-b404-5c53a52e5374" cx="186" cy="922.48" r="52.45" transform="translate(-143.92 41.16) rotate(-9.12)"/><circle class="e7fd1733-5359-4eac-b404-5c53a52e5374" cx="186" cy="922.48" r="52.18" transform="translate(-143.92 41.16) rotate(-9.12)"/><circle class="a3ea8517-2f03-4d88-ad15-ffa21d2bed53" cx="186" cy="922.48" r="51.92" transform="translate(-143.92 41.16) rotate(-9.12)"/><circle class="a3ea8517-2f03-4d88-ad15-ffa21d2bed53" cx="186" cy="922.48" r="51.65" transform="translate(-143.92 41.16) rotate(-9.12)"/><circle class="a3ea8517-2f03-4d88-ad15-ffa21d2bed53" cx="186" cy="922.48" r="51.38" transform="translate(-143.92 41.16) rotate(-9.12)"/><circle class="a3ea8517-2f03-4d88-ad15-ffa21d2bed53" cx="186" cy="922.48" r="51.11" transform="translate(-143.92 41.16) rotate(-9.12)"/><circle class="104ed772-8c4b-4f29-a45a-49dd30c61bea" cx="186" cy="922.48" r="50.84" transform="translate(-143.92 41.16) rotate(-9.12)"/><circle class="104ed772-8c4b-4f29-a45a-49dd30c61bea" cx="186" cy="922.48" r="50.57" transform="translate(-143.92 41.16) rotate(-9.12)"/><circle class="52b948d2-94f7-46b0-8d9d-36112440e247" cx="186" cy="922.48" r="50.3" transform="translate(-143.92 41.16) rotate(-9.12)"/><circle class="1341df00-86d5-4916-84a2-fff077055551" cx="186" cy="922.48" r="50.03" transform="translate(-143.92 41.16) rotate(-9.12)"/><circle class="1341df00-86d5-4916-84a2-fff077055551" cx="186" cy="922.48" r="49.76" transform="translate(-143.92 41.16) rotate(-9.12)"/><circle class="1341df00-86d5-4916-84a2-fff077055551" cx="186" cy="922.48" r="49.49" transform="matrix(0.99, -0.16, 0.16, 0.99, -143.92, 41.16)"/><circle class="b81740ac-091b-45e1-93bc-68fe86dc8162" cx="186" cy="922.48" r="49.23" transform="translate(-143.92 41.16) rotate(-9.12)"/><circle class="b81740ac-091b-45e1-93bc-68fe86dc8162" cx="186" cy="922.48" r="48.96" transform="translate(-143.92 41.16) rotate(-9.12)"/><circle class="b81740ac-091b-45e1-93bc-68fe86dc8162" cx="186" cy="922.48" r="48.69" transform="translate(-143.92 41.16) rotate(-9.12)"/><circle class="ac1da86b-87d4-4c16-ac41-a37004cd629f" cx="186" cy="922.48" r="48.42" transform="translate(-143.92 41.16) rotate(-9.12)"/><circle class="ac1da86b-87d4-4c16-ac41-a37004cd629f" cx="186" cy="922.48" r="48.15" transform="translate(-143.92 41.16) rotate(-9.12)"/><circle class="ac1da86b-87d4-4c16-ac41-a37004cd629f" cx="186" cy="922.48" r="47.88" transform="translate(-143.92 41.16) rotate(-9.12)"/><circle class="34e6a6d1-2d0d-4eb4-925b-660df22e34ae" cx="186" cy="922.48" r="47.61" transform="translate(-143.92 41.16) rotate(-9.12)"/><circle class="34e6a6d1-2d0d-4eb4-925b-660df22e34ae" cx="186" cy="922.48" r="47.34" transform="translate(-143.92 41.16) rotate(-9.12)"/><circle class="3cd5f25e-21b1-4646-bd05-10defbd6c2b6" cx="186" cy="922.48" r="47.07" transform="translate(-143.92 41.16) rotate(-9.12)"/><circle class="3cd5f25e-21b1-4646-bd05-10defbd6c2b6" cx="186" cy="922.48" r="46.8" transform="translate(-143.92 41.16) rotate(-9.12)"/><circle class="3cd5f25e-21b1-4646-bd05-10defbd6c2b6" cx="186" cy="922.48" r="46.54" transform="translate(-143.92 41.16) rotate(-9.12)"/><circle class="d8d57aad-ff18-4aac-b123-393fe5bd940c" cx="186" cy="922.48" r="46.27" transform="translate(-143.92 41.16) rotate(-9.12)"/><circle class="d8d57aad-ff18-4aac-b123-393fe5bd940c" cx="186" cy="922.48" r="46" transform="translate(-143.92 41.16) rotate(-9.12)"/><circle class="1e9a24c6-300b-4ee6-a861-6307de0680ff" cx="186" cy="922.48" r="45.73" transform="translate(-143.92 41.16) rotate(-9.12)"/><circle class="1e9a24c6-300b-4ee6-a861-6307de0680ff" cx="186" cy="922.48" r="45.46" transform="translate(-143.92 41.16) rotate(-9.12)"/><circle class="ee0a3c97-3d3f-4d26-bc07-f6a3b6f599b2" cx="186" cy="922.48" r="45.19" transform="translate(-143.92 41.16) rotate(-9.12)"/><circle class="ee0a3c97-3d3f-4d26-bc07-f6a3b6f599b2" cx="186" cy="922.48" r="44.92" transform="translate(-143.92 41.16) rotate(-9.12)"/><circle class="ee0a3c97-3d3f-4d26-bc07-f6a3b6f599b2" cx="186" cy="922.48" r="44.65" transform="translate(-143.92 41.16) rotate(-9.12)"/><circle class="8f86ba07-e415-4fe0-88d5-922bf90bab12" cx="186" cy="922.48" r="44.38" transform="translate(-143.92 41.16) rotate(-9.12)"/><circle class="8f86ba07-e415-4fe0-88d5-922bf90bab12" cx="186" cy="922.48" r="44.11" transform="translate(-143.92 41.16) rotate(-9.12)"/><circle class="c3a87603-6cf4-44d5-b22e-6ede9f67abe9" cx="186" cy="922.48" r="43.85" transform="translate(-143.92 41.16) rotate(-9.12)"/><circle class="c3a87603-6cf4-44d5-b22e-6ede9f67abe9" cx="186" cy="922.48" r="43.58" transform="translate(-143.92 41.16) rotate(-9.12)"/><circle class="28072659-5697-46c5-b9a1-80944f2796d1" cx="186" cy="922.48" r="43.31" transform="translate(-143.92 41.16) rotate(-9.12)"/><circle class="7137ee14-9183-4ea9-8bff-aed87c3cc9fd" cx="186" cy="922.48" r="43.04" transform="matrix(0.99, -0.16, 0.16, 0.99, -143.92, 41.16)"/><circle class="7137ee14-9183-4ea9-8bff-aed87c3cc9fd" cx="186" cy="922.48" r="42.77" transform="translate(-143.92 41.16) rotate(-9.12)"/><circle class="fd4b22c4-79b8-4b8b-987e-c5ff015f1c95" cx="186" cy="922.48" r="42.5" transform="translate(-143.92 41.16) rotate(-9.12)"/><circle class="02af4d29-1233-43fc-a109-a2197e426116" cx="186" cy="922.48" r="42.23" transform="translate(-143.92 41.16) rotate(-9.12)"/><circle class="27baf5a7-1737-4226-9a98-9129d3d563bb" cx="186" cy="922.48" r="41.96" transform="translate(-143.92 41.16) rotate(-9.12)"/><circle class="27baf5a7-1737-4226-9a98-9129d3d563bb" cx="186" cy="922.48" r="41.69" transform="translate(-143.92 41.16) rotate(-9.12)"/><circle class="880b2751-a761-4026-a963-f5a297b91b8a" cx="186" cy="922.48" r="41.42" transform="translate(-143.92 41.16) rotate(-9.12)"/><circle class="7e0eaf90-9f10-45f2-8184-59947d0fb8e8" cx="186" cy="922.48" r="41.16" transform="translate(-143.92 41.16) rotate(-9.12)"/><circle class="7e0eaf90-9f10-45f2-8184-59947d0fb8e8" cx="186" cy="922.48" r="40.89" transform="translate(-143.92 41.16) rotate(-9.12)"/><circle class="c14794bf-10bc-4811-b886-d46fcc8a5c02" cx="186" cy="922.48" r="40.62" transform="matrix(0.99, -0.16, 0.16, 0.99, -143.92, 41.16)"/><circle class="235cc1cd-7e09-4867-b117-21ba76fa8ced" cx="186" cy="922.48" r="40.35" transform="translate(-143.92 41.16) rotate(-9.12)"/><circle class="7737e491-39d1-415f-9bcd-1cda3f48912b" cx="186" cy="922.48" r="40.08" transform="translate(-143.92 41.16) rotate(-9.12)"/><circle class="963cd662-1c0f-4b77-abb2-7c463f5d69e6" cx="186" cy="922.48" r="39.81" transform="translate(-143.92 41.16) rotate(-9.12)"/><circle class="73903b33-e9e7-403d-8860-61eef92f24ed" cx="186" cy="922.48" r="39.54" transform="translate(-143.92 41.16) rotate(-9.12)"/><circle class="b75c5f5b-a347-4f5d-9681-9d5c4a71743f" cx="186" cy="922.48" r="39.27" transform="translate(-143.92 41.16) rotate(-9.12)"/><circle class="7272f7ac-cd1a-46bb-a09d-861ea44534ac" cx="186" cy="922.48" r="39" transform="translate(-143.92 41.16) rotate(-9.12)"/><circle class="3acf1599-e855-4efc-88fe-c34cae9e70b4" cx="186" cy="922.48" r="38.73" transform="matrix(0.99, -0.16, 0.16, 0.99, -143.92, 41.16)"/><circle class="2b1f4902-ddf2-41c2-85b1-1bba7ae8b011" cx="186" cy="922.48" r="38.47" transform="translate(-143.92 41.16) rotate(-9.12)"/><circle class="435f87f9-78a4-4c95-bdeb-be230532c535" cx="186" cy="922.48" r="38.2" transform="translate(-143.92 41.16) rotate(-9.12)"/><circle class="2b80ab05-0a57-43ee-b12d-c94caaa84334" cx="186" cy="922.48" r="37.93" transform="translate(-143.92 41.16) rotate(-9.12)"/><circle class="b4cc053f-4a72-4cd8-a026-ed5b2bbe4e2f" cx="186" cy="922.48" r="37.66" transform="translate(-143.92 41.16) rotate(-9.12)"/><circle class="94416281-d528-41d5-8744-31465096234d" cx="186" cy="922.48" r="37.39" transform="translate(-143.92 41.16) rotate(-9.12)"/><circle class="22934f14-88b6-49cf-a047-c23c48d6e194" cx="186" cy="922.48" r="37.12" transform="translate(-143.92 41.16) rotate(-9.12)"/><circle class="22934f14-88b6-49cf-a047-c23c48d6e194" cx="186" cy="922.48" r="36.85" transform="translate(-143.92 41.16) rotate(-9.12)"/><circle class="57556c08-2125-408a-8917-d2b72bfbaba1" cx="186" cy="922.48" r="36.58" transform="translate(-143.92 41.16) rotate(-9.12)"/><circle class="b3567949-c4fd-4226-9276-0949adde283e" cx="186" cy="922.48" r="36.31" transform="translate(-143.92 41.16) rotate(-9.12)"/><circle class="8fe9de10-f96c-44ba-9795-4fa7d601796f" cx="186" cy="922.48" r="36.04" transform="translate(-143.92 41.16) rotate(-9.12)"/><circle class="6bb435ee-6b2f-472a-94cf-607be57794c3" cx="186" cy="922.48" r="35.78" transform="translate(-143.92 41.16) rotate(-9.12)"/><circle class="3442d3a0-e3bf-4060-9665-382b73a35b8a" cx="186" cy="922.48" r="35.51" transform="translate(-143.92 41.16) rotate(-9.12)"/><circle class="18b10a70-e8b8-4386-9f9d-7f22d448b3ea" cx="186" cy="922.48" r="35.24" transform="translate(-143.92 41.16) rotate(-9.12)"/><circle class="ea16bc2e-f158-4e91-ad5f-f1234bd3cc00" cx="186" cy="922.48" r="34.97" transform="translate(-143.92 41.16) rotate(-9.12)"/><circle class="9a67ab35-356a-43a1-98f4-7047fd8ad391" cx="186" cy="922.48" r="34.7" transform="translate(-143.92 41.16) rotate(-9.12)"/><circle class="9a67ab35-356a-43a1-98f4-7047fd8ad391" cx="186" cy="922.48" r="34.43" transform="translate(-143.92 41.16) rotate(-9.12)"/><circle class="10202ba3-893e-41fe-b149-be85621e1252" cx="186" cy="922.48" r="34.16" transform="translate(-143.92 41.16) rotate(-9.12)"/><circle class="037a1d12-dc56-4672-bfe0-5d8dd1b83b25" cx="186" cy="922.48" r="33.89" transform="matrix(0.99, -0.16, 0.16, 0.99, -143.92, 41.16)"/><circle class="7dd694d2-5813-4e5e-85fc-81773381d747" cx="186" cy="922.48" r="33.62" transform="translate(-143.92 41.16) rotate(-9.12)"/><circle class="ba0c239e-7006-4c46-9058-4f01859aced4" cx="186" cy="922.48" r="33.35" transform="translate(-143.92 41.16) rotate(-9.12)"/><circle class="205ce7d2-6c94-402f-a0be-097ba1b7793e" cx="186" cy="922.48" r="33.09" transform="translate(-143.92 41.16) rotate(-9.12)"/><circle class="acfb6380-2e6e-4b84-96bb-3e5d95914564" cx="186" cy="922.48" r="32.82" transform="translate(-143.92 41.16) rotate(-9.12)"/><circle class="a012c038-1064-449e-ad02-56d0a5b049f6" cx="186" cy="922.48" r="32.55" transform="translate(-143.92 41.16) rotate(-9.12)"/><circle class="b7bbfdd9-a711-4526-9609-c8b293597527" cx="186" cy="922.48" r="32.28" transform="translate(-143.92 41.16) rotate(-9.12)"/><circle class="bd30a3ea-441c-41b7-9d7a-ecf7d3ce7b4c" cx="186" cy="922.48" r="32.01" transform="translate(-143.92 41.16) rotate(-9.12)"/><circle class="ff9a1116-699f-4157-a01f-6b47b286c682" cx="186" cy="922.48" r="31.74" transform="translate(-143.92 41.16) rotate(-9.12)"/><circle class="ad99bc2f-d09b-4428-be12-6f8454517656" cx="186" cy="922.48" r="31.47" transform="translate(-143.92 41.16) rotate(-9.12)"/><circle class="17003107-d2bd-4249-b26f-5d7d472b80a7" cx="186" cy="922.48" r="31.2" transform="translate(-143.92 41.16) rotate(-9.12)"/><circle class="ab35a03b-eb9c-4b0c-9c4d-58874a5cb515" cx="186" cy="922.48" r="30.93" transform="translate(-143.92 41.16) rotate(-9.12)"/><circle class="b7122215-0fa0-45f6-8f7e-c7119dce3d10" cx="186" cy="922.48" r="30.66" transform="translate(-143.92 41.16) rotate(-9.12)"/><circle class="5664f0c1-a7f4-42f6-98de-73923a2f1f1f" cx="186" cy="922.48" r="30.4" transform="translate(-143.92 41.16) rotate(-9.12)"/><circle class="e20937b6-0d07-4bb8-ac7a-f34a474f35df" cx="186" cy="922.48" r="30.13" transform="translate(-143.92 41.16) rotate(-9.12)"/><circle class="27c06620-475b-40fc-bab0-8fb2813ad366" cx="186" cy="922.48" r="29.86" transform="translate(-143.92 41.16) rotate(-9.12)"/><circle class="380c1f46-8045-439a-a895-7f625d0bb29b" cx="186" cy="922.48" r="29.59" transform="matrix(0.99, -0.16, 0.16, 0.99, -143.92, 41.16)"/><circle class="a5142a73-4b47-448d-abad-45cb50846b86" cx="186" cy="922.48" r="29.32" transform="translate(-143.92 41.16) rotate(-9.12)"/><circle class="66c14705-8610-44c2-b13c-a552f66e9840" cx="186" cy="922.48" r="29.05" transform="translate(-143.92 41.16) rotate(-9.12)"/><circle class="450e6e65-d2e9-41b5-bfc8-a1f972f9bd80" cx="186" cy="922.48" r="28.78" transform="translate(-143.92 41.16) rotate(-9.12)"/><circle class="2117fb80-6bc2-43ea-9f42-6c3d1df9aa5e" cx="186" cy="922.48" r="28.51" transform="translate(-143.92 41.16) rotate(-9.12)"/><circle class="886a0876-de23-42b4-915d-87f78d6b5ed8" cx="186" cy="922.48" r="28.24" transform="matrix(0.99, -0.16, 0.16, 0.99, -143.92, 41.16)"/><circle class="95f3b0c0-ec44-4078-b9ea-0308468d04dd" cx="186" cy="922.48" r="27.98" transform="translate(-143.92 41.16) rotate(-9.12)"/><circle class="e938a823-7710-4f8c-a2cc-e98956a6f219" cx="186" cy="922.48" r="27.71" transform="translate(-143.92 41.16) rotate(-9.12)"/><circle class="c3f520f5-3a68-4985-9c94-20e823d8f04e" cx="186" cy="922.48" r="27.44" transform="translate(-143.92 41.16) rotate(-9.12)"/><circle class="869d0ea4-1e76-470c-a934-4325bb842560" cx="186" cy="922.48" r="27.17" transform="translate(-143.92 41.16) rotate(-9.12)"/><circle class="472f6fdb-ed21-4f63-9337-a186893a9136" cx="186" cy="922.48" r="26.9" transform="translate(-143.92 41.16) rotate(-9.12)"/><circle class="682d0ec4-3a8d-44b2-8dc6-a53b68e84ea1" cx="186" cy="922.48" r="26.63" transform="translate(-143.92 41.16) rotate(-9.12)"/><circle class="e80ab8b7-6152-4dfc-b12a-b3b1914e355c" cx="186" cy="922.48" r="26.36" transform="translate(-143.92 41.16) rotate(-9.12)"/><circle class="a6e2d930-92eb-49b9-9cac-03443c648430" cx="186" cy="922.48" r="26.09" transform="translate(-143.92 41.16) rotate(-9.12)"/><circle class="f9fa87b2-abf0-4bb8-ad8b-7b5272924593" cx="186" cy="922.48" r="25.82" transform="translate(-143.92 41.16) rotate(-9.12)"/><circle class="e6e4e268-56b0-4ddb-a289-8f50680a097e" cx="186" cy="922.48" r="25.55" transform="translate(-143.92 41.16) rotate(-9.12)"/><circle class="aaac0938-1c73-452f-8e38-2db1459442f6" cx="186" cy="922.48" r="25.29" transform="translate(-143.92 41.16) rotate(-9.12)"/><circle class="95b80e56-ec42-4a4f-9193-5f822131f3db" cx="186" cy="922.48" r="25.02" transform="translate(-143.92 41.16) rotate(-9.12)"/><circle class="c9321e51-8488-4353-ac62-cc2885874aee" cx="186" cy="922.48" r="24.75" transform="translate(-143.92 41.16) rotate(-9.12)"/><circle class="64576c08-a956-4560-a4a8-73a7400d47e4" cx="186" cy="922.48" r="24.48" transform="translate(-143.92 41.16) rotate(-9.12)"/><circle class="effbac9a-4ce8-4c1a-9b57-466bc711dde1" cx="186" cy="922.48" r="24.21" transform="translate(-143.92 41.16) rotate(-9.12)"/><circle class="50279073-2fb8-4e95-a0bf-d07498540213" cx="186" cy="922.48" r="23.94" transform="translate(-143.92 41.16) rotate(-9.12)"/><circle class="a4a89102-069d-4125-9beb-c42e366de547" cx="186" cy="922.48" r="23.67" transform="translate(-143.92 41.16) rotate(-9.12)"/><circle class="855ce1a8-23d6-4524-94d0-94d81a3176eb" cx="186" cy="922.48" r="23.4" transform="translate(-143.92 41.16) rotate(-9.12)"/><circle class="33abb8d8-9e55-40a5-bd97-bef5d36b4156" cx="186" cy="922.48" r="23.13" transform="matrix(0.99, -0.16, 0.16, 0.99, -143.92, 41.16)"/><circle class="ed750a8d-de86-4ff8-93db-e92599963b3f" cx="186" cy="922.48" r="22.86" transform="translate(-143.92 41.16) rotate(-9.12)"/><circle class="b4e61ca7-9f3c-49fd-847c-a6252ee62d8e" cx="186" cy="922.48" r="22.6" transform="translate(-143.92 41.16) rotate(-9.12)"/><circle class="839d5997-0da5-4854-9ebd-e9da9fca5831" cx="186" cy="922.48" r="22.33" transform="translate(-143.92 41.16) rotate(-9.12)"/><circle class="30f40a22-ac53-4716-8cd2-427e087c629a" cx="186" cy="922.48" r="22.06" transform="translate(-143.92 41.16) rotate(-9.12)"/><circle class="764d3f43-effe-4338-87fb-444a47099c71" cx="186" cy="922.48" r="21.79" transform="translate(-143.92 41.16) rotate(-9.12)"/><circle class="4d42e070-79fe-4ceb-be47-eab444165901" cx="186" cy="922.48" r="21.52" transform="translate(-143.92 41.16) rotate(-9.12)"/><circle class="6d567643-410e-46a1-8a59-099ebbcae67b" cx="186" cy="922.48" r="21.25" transform="translate(-143.92 41.16) rotate(-9.12)"/><circle class="0b8cf979-9392-4905-ad53-e8f11d511128" cx="186" cy="922.48" r="20.98" transform="translate(-143.92 41.16) rotate(-9.12)"/><circle class="afc00e46-50d4-480a-9e3a-f331a4dd7aa6" cx="186" cy="922.48" r="20.71" transform="translate(-143.92 41.16) rotate(-9.12)"/><circle class="d1c6a49b-4706-453e-84f9-ecb6d78fbdd6" cx="186" cy="922.48" r="20.44" transform="translate(-143.92 41.16) rotate(-9.12)"/><circle class="a9b9a3a8-b0a0-4c01-813b-ce56d39e88ee" cx="186" cy="922.48" r="20.17" transform="translate(-143.92 41.16) rotate(-9.12)"/><circle class="5dd424aa-f7b6-4cb1-8648-7918c515ffe6" cx="186" cy="922.48" r="19.91" transform="matrix(0.99, -0.16, 0.16, 0.99, -143.92, 41.16)"/><circle class="59c7007e-f107-4d48-a397-caf4cc9bf5ca" cx="186" cy="922.48" r="19.64" transform="translate(-143.92 41.16) rotate(-9.12)"/><circle class="17406a43-c43b-45b2-b1ca-68552bff1b5c" cx="186" cy="922.48" r="19.37" transform="translate(-143.92 41.16) rotate(-9.12)"/><circle class="d5dec3f6-8916-4646-9eb0-bc3b78150775" cx="186" cy="922.48" r="19.1" transform="translate(-143.92 41.16) rotate(-9.12)"/><circle class="70f2ac41-c4e8-4d6f-9ca7-b1f96c6ba17e" cx="186" cy="922.48" r="18.83" transform="translate(-143.92 41.16) rotate(-9.12)"/><circle class="45aa3a81-86d1-4b01-a64d-801f40f27e3e" cx="186" cy="922.48" r="18.56" transform="translate(-143.92 41.16) rotate(-9.12)"/><circle class="092b9c02-acdd-421a-9b34-643eb82da80f" cx="186" cy="922.48" r="18.29" transform="translate(-143.92 41.16) rotate(-9.12)"/><circle class="1618cddb-cb97-44b8-9c13-412a5bf108c1" cx="186" cy="922.48" r="18.02" transform="translate(-143.92 41.16) rotate(-9.12)"/><circle class="d1c3b1cb-41a8-4f35-9308-ab16ff5008c1" cx="186" cy="922.48" r="17.75" transform="matrix(0.99, -0.16, 0.16, 0.99, -143.92, 41.16)"/><circle class="d23707ac-ca42-45d8-a19e-7c330dc03d06" cx="186" cy="922.48" r="17.48" transform="translate(-143.92 41.16) rotate(-9.12)"/><circle class="432c33e6-0b5a-4056-bab1-025d04f1c92e" cx="186" cy="922.48" r="17.22" transform="translate(-143.92 41.16) rotate(-9.12)"/><circle class="feee9375-8ee5-477b-98a5-9a4b4949a7aa" cx="186" cy="922.48" r="16.95" transform="translate(-143.92 41.16) rotate(-9.12)"/><circle class="efd941bf-9c64-4cc3-b1f9-5143febb8128" cx="186" cy="922.48" r="16.68" transform="translate(-143.92 41.16) rotate(-9.12)"/><circle class="d782204e-ad3c-45ba-8829-80f8d1def5d2" cx="186" cy="922.48" r="16.41" transform="translate(-143.92 41.16) rotate(-9.12)"/><circle class="31335b1c-07d9-43b0-b6aa-8cd096d3396b" cx="186" cy="922.48" r="16.14" transform="translate(-143.92 41.16) rotate(-9.12)"/><circle class="d65e329c-abd6-49d7-a65e-91ff38d3c654" cx="186" cy="922.48" r="15.87" transform="translate(-143.92 41.16) rotate(-9.12)"/><circle class="054243d8-4279-436e-83a0-08961e42acee" cx="186" cy="922.48" r="15.6" transform="translate(-143.92 41.16) rotate(-9.12)"/><circle class="e0b8ac0f-5c64-4d2b-a7e6-91d9901bdfd6" cx="186" cy="922.48" r="15.33" transform="translate(-143.92 41.16) rotate(-9.12)"/><circle class="3f34f033-b0a1-43de-84bc-43cd52414cff" cx="186" cy="922.48" r="15.06" transform="translate(-143.92 41.16) rotate(-9.12)"/><circle class="40957404-cf4c-4605-bdf7-c51d45c4aeb8" cx="186" cy="922.48" r="14.79" transform="translate(-143.92 41.16) rotate(-9.12)"/><circle class="6b366c12-878b-4ba3-a411-6bade4c8ea17" cx="186" cy="922.48" r="14.53" transform="translate(-143.92 41.16) rotate(-9.12)"/><circle class="46a92604-1700-4949-ac65-c3993a6dc578" cx="186" cy="922.48" r="14.26" transform="translate(-143.92 41.16) rotate(-9.12)"/><circle class="a7fb0aac-d1e8-479c-b86a-7a01be45c80e" cx="186" cy="922.48" r="13.99" transform="translate(-143.92 41.16) rotate(-9.12)"/><circle class="a82400e9-e4c4-4efe-b5ce-c69e075e46b4" cx="186" cy="922.48" r="13.72" transform="translate(-143.92 41.16) rotate(-9.12)"/><circle class="1c6a2114-d588-4e71-bcd2-83b90dab6605" cx="186" cy="922.48" r="13.45" transform="translate(-143.92 41.16) rotate(-9.12)"/><circle class="69dd89f1-03bc-47b0-8a44-accfd670992f" cx="186" cy="922.48" r="13.18" transform="translate(-143.92 41.16) rotate(-9.12)"/><circle class="af98cd89-edc0-457e-b461-58a13cead75f" cx="186" cy="922.48" r="12.91" transform="translate(-143.92 41.16) rotate(-9.12)"/><circle class="3b2f26ea-0886-4b5c-8cdb-43422f7b60e8" cx="186" cy="922.48" r="12.64" transform="translate(-143.92 41.16) rotate(-9.12)"/><circle class="41cd0158-3558-4b7e-befe-03bbd157d2e7" cx="186" cy="922.48" r="12.37" transform="translate(-143.92 41.16) rotate(-9.12)"/><circle class="6f978eae-f603-43f3-90b2-72229789c450" cx="186" cy="922.48" r="12.1" transform="translate(-143.92 41.16) rotate(-9.12)"/><circle class="ea175f0f-456d-491d-9929-3d3576a6ba41" cx="186" cy="922.48" r="11.84" transform="translate(-143.92 41.16) rotate(-9.12)"/><circle class="a1e60ba5-746c-4551-b90a-3c1a1e07567b" cx="186" cy="922.48" r="11.57" transform="translate(-143.92 41.16) rotate(-9.12)"/><circle class="f35ea0cd-f26e-474c-a4fd-d4623a773fc8" cx="186" cy="922.48" r="11.3" transform="translate(-143.92 41.16) rotate(-9.12)"/><circle class="e32b8cf2-91c2-4211-8e28-c67a733f58e0" cx="186" cy="922.48" r="11.03" transform="translate(-143.92 41.16) rotate(-9.12)"/><circle class="5c723704-8721-4416-8cff-86abda567387" cx="186" cy="922.48" r="10.76" transform="translate(-143.92 41.16) rotate(-9.12)"/><circle class="2a67a5e6-c1d1-46cc-8761-f19fbb911b78" cx="186" cy="922.48" r="10.49" transform="translate(-143.92 41.16) rotate(-9.12)"/><circle class="32d90bdd-b4e8-4224-b80a-93dad4b16003" cx="186" cy="922.48" r="10.22" transform="translate(-143.92 41.16) rotate(-9.12)"/><circle class="6044dc53-7127-4f1f-b1bf-b8cb3e7b4042" cx="186" cy="922.48" r="9.95" transform="translate(-143.92 41.16) rotate(-9.12)"/><circle class="35bb204c-302e-4a33-936a-75b91b63d528" cx="186" cy="922.48" r="9.68" transform="translate(-143.92 41.16) rotate(-9.12)"/><circle class="c05ff177-b891-4d51-8c30-cee22f59d84e" cx="186" cy="922.48" r="9.41" transform="matrix(0.99, -0.16, 0.16, 0.99, -143.92, 41.16)"/><circle class="a57f68e8-577c-4c7f-abb5-cd87c03475e3" cx="186" cy="922.48" r="9.15" transform="translate(-143.92 41.16) rotate(-9.12)"/><circle class="c5a45344-b544-46de-9f06-6508738b42aa" cx="186" cy="922.48" r="8.88" transform="matrix(0.99, -0.16, 0.16, 0.99, -143.92, 41.16)"/><circle class="d74928a3-c5eb-4d62-ada1-91d3a3ba2dec" cx="186" cy="922.48" r="8.61" transform="translate(-143.92 41.16) rotate(-9.12)"/><circle class="f4a7b0b4-a2bb-41c3-ba97-d07990623710" cx="186" cy="922.48" r="8.34" transform="translate(-143.92 41.16) rotate(-9.12)"/><circle class="0ff0001d-c40f-4419-99f3-5364096af89f" cx="186" cy="922.48" r="8.07" transform="matrix(0.99, -0.16, 0.16, 0.99, -143.92, 41.16)"/><circle class="2db014ef-1a48-4d41-836d-d78edafcd38f" cx="186" cy="922.48" r="7.8" transform="translate(-143.92 41.16) rotate(-9.12)"/><circle class="2f847cf1-fc81-425e-8f76-1c8abba604ec" cx="186" cy="922.48" r="7.53" transform="translate(-143.92 41.16) rotate(-9.12)"/><circle class="a170766e-7c74-4846-a296-fdc6416ac347" cx="186" cy="922.48" r="7.26" transform="translate(-143.92 41.16) rotate(-9.12)"/><circle class="d5385989-36d2-4a7a-a1e9-ff3ad0959ac9" cx="186" cy="922.48" r="6.99" transform="translate(-143.92 41.16) rotate(-9.12)"/><circle class="da7f94de-36ee-4522-bb0d-89fb247d0c75" cx="186" cy="922.48" r="6.72" transform="translate(-143.92 41.16) rotate(-9.12)"/><circle class="98246fd6-bf86-4dcc-8392-f72a18a8f8cc" cx="186" cy="922.48" r="6.46" transform="translate(-143.92 41.16) rotate(-9.12)"/><circle class="3f684e73-aec0-44eb-83c3-1f2be0cea66a" cx="186" cy="922.48" r="6.19" transform="translate(-143.92 41.16) rotate(-9.12)"/><circle class="30c863d7-1e4f-4ccf-adf5-44899d336fd1" cx="186" cy="922.48" r="5.92" transform="translate(-143.92 41.16) rotate(-9.12)"/><circle class="dbeb933b-35ce-4738-ac6b-de1069003d54" cx="186" cy="922.48" r="5.65" transform="translate(-143.92 41.16) rotate(-9.12)"/><circle class="d25019cb-da4e-4530-847d-ea3c6d063a3b" cx="186" cy="922.48" r="5.38" transform="translate(-143.92 41.16) rotate(-9.12)"/><circle class="a75d8c74-83f6-45c5-b48c-462b3bd96178" cx="186" cy="922.48" r="5.11" transform="translate(-143.92 41.16) rotate(-9.12)"/><circle class="c020d0b7-2256-4264-b7e4-d30bea689cbb" cx="186" cy="922.48" r="4.84" transform="translate(-143.92 41.16) rotate(-9.12)"/><circle class="e0bca244-879a-433f-9695-f62d01fe9bd6" cx="186" cy="922.48" r="4.57" transform="translate(-143.92 41.16) rotate(-9.12)"/><circle class="c283ee95-bd9a-426d-bdab-b45b1a9d6bfa" cx="186" cy="922.48" r="4.3" transform="translate(-143.92 41.16) rotate(-9.12)"/><circle class="a1f7320d-9e43-4d4b-9101-6046e54bd01b" cx="186" cy="922.48" r="4.03" transform="translate(-143.92 41.16) rotate(-9.12)"/><circle class="7f5a5bbc-237f-4c9d-a84c-877207d5c171" cx="186" cy="922.48" r="3.77" transform="translate(-143.92 41.16) rotate(-9.12)"/><circle class="a6aaf16f-009d-48b8-91ee-efd5e3c3dd2f" cx="186" cy="922.48" r="3.5" transform="translate(-143.92 41.16) rotate(-9.12)"/><circle class="3ec8f4ee-3f7e-44c9-a8e2-252cf53cba16" cx="186" cy="922.48" r="3.23" transform="translate(-143.92 41.16) rotate(-9.12)"/><circle class="3c23d126-ca41-406c-892c-e43f0b1cbb50" cx="186" cy="922.48" r="2.96" transform="translate(-143.92 41.16) rotate(-9.12)"/><circle class="b87edd4b-7d82-4fa0-a85d-2a894a483cd5" cx="186" cy="922.48" r="2.69" transform="translate(-143.92 41.16) rotate(-9.12)"/><circle class="3d52cdee-6419-4b02-8607-c7b6f56f9e68" cx="186" cy="922.48" r="2.42" transform="translate(-143.92 41.16) rotate(-9.12)"/><circle class="f0296729-6323-48ae-bdd6-f53cd659da42" cx="186" cy="922.48" r="2.15" transform="translate(-143.92 41.16) rotate(-9.12)"/><circle class="d35a4ae7-5532-4d45-bdcc-925b6e6292a3" cx="186" cy="922.48" r="1.88" transform="translate(-143.92 41.16) rotate(-9.12)"/><circle class="5081f317-0097-4cf2-8f0f-0441aff60243" cx="186" cy="922.48" r="1.61" transform="translate(-143.92 41.16) rotate(-9.12)"/><circle class="78bb85f2-c3a0-43ff-9582-3ca4e4c46018" cx="186" cy="922.48" r="1.34" transform="translate(-143.92 41.16) rotate(-9.12)"/><circle class="87577a75-0524-4ef4-a98c-5afc96f80479" cx="186" cy="922.48" r="1.08" transform="translate(-143.92 41.16) rotate(-9.12)"/><circle class="3bd0ccd1-9e95-4b33-b389-cb741e40e173" cx="186" cy="922.48" r="0.81" transform="translate(-143.92 41.16) rotate(-9.12)"/><circle class="8b86f943-b357-4cce-995e-17ed7e93fc5e" cx="186" cy="922.48" r="0.54" transform="matrix(0.99, -0.16, 0.16, 0.99, -143.92, 41.16)"/><circle class="8609eb8a-ee26-41e9-9fc0-176c58daf784" cx="186" cy="922.48" r="0.27" transform="translate(-143.92 41.16) rotate(-9.12)"/></g></g><g class="59b13152-47c8-49b6-94d6-03d4a31dd997"><polygon class="8609eb8a-ee26-41e9-9fc0-176c58daf784" points="196.66 860.98 204.53 900.48 194.8 863.56 196.66 860.98"/></g><g class="59b13152-47c8-49b6-94d6-03d4a31dd997"><polygon class="8609eb8a-ee26-41e9-9fc0-176c58daf784" points="205.59 902.34 243.53 916.84 207.88 936.57 239.06 917.38 205.59 902.34"/></g><g class="59b13152-47c8-49b6-94d6-03d4a31dd997"><polygon class="8609eb8a-ee26-41e9-9fc0-176c58daf784" points="128.61 888.11 169.01 893.78 166.7 896.68 128.61 888.11"/></g><g class="6fbe757c-3c62-4934-93d0-828f31df3b31"><polygon class="8609eb8a-ee26-41e9-9fc0-176c58daf784" points="98.53 921.55 67.26 933.41 96.55 950.23 73.55 933.16 98.53 921.55"/></g><polygon class="8609eb8a-ee26-41e9-9fc0-176c58daf784" points="106.34 886.62 100.06 920.04 107.68 888.69 106.34 886.62"/><polygon class="8609eb8a-ee26-41e9-9fc0-176c58daf784" points="97.39 953.89 99.3 986.25 122.93 964.73 100.92 982.19 97.39 953.89"/><polygon class="c2e4c518-72b3-4e06-af7b-69ff22460d9b" points="131.82 962.77 161.22 972.65 153.14 960.14 131.82 962.77"/><polygon class="c2e4c518-72b3-4e06-af7b-69ff22460d9b" points="129.26 912.67 139.03 911.48 146.37 924.02 131.82 962.77 140.14 925.25 129.26 912.67"/><g class="c563be18-2610-4305-acf8-86e68c9443fb"><polygon class="8609eb8a-ee26-41e9-9fc0-176c58daf784" points="192.85 867.16 186.19 874.56 193.36 870.37 197.09 879.39 194.09 865.44 192.85 867.16"/></g><circle class="f1ae1279-7c05-4580-b3f2-0fba08d4aab0" cx="68.52" cy="857.16" r="3.5" transform="translate(-135.05 21.71) rotate(-9.12)"/><circle class="f1ae1279-7c05-4580-b3f2-0fba08d4aab0" cx="104.26" cy="1021.91" r="3.5" transform="translate(-160.72 29.46) rotate(-9.12)"/><circle class="f1ae1279-7c05-4580-b3f2-0fba08d4aab0" cx="226.87" cy="1000.2" r="3.5" transform="translate(-155.72 48.63) rotate(-9.12)"/><circle class="f1ae1279-7c05-4580-b3f2-0fba08d4aab0" cx="214.24" cy="837.48" r="3.5" transform="translate(-130.08 44.57) rotate(-9.12)"/><path class="8609eb8a-ee26-41e9-9fc0-176c58daf784" d="M109.89,1030.89l4.88-16.28a0.22,0.22,0,0,1,.31-0.17l4.67,1.4a4.77,4.77,0,0,1,3,2.23,4.67,4.67,0,0,1,.24,3.7l-2.3,7.66a4.67,4.67,0,0,1-2.23,3,4.77,4.77,0,0,1-3.73.21l-4.67-1.4A0.22,0.22,0,0,1,109.89,1030.89Zm2.17-.71,3.14,0.94a2.86,2.86,0,0,0,2.35-.25,3.61,3.61,0,0,0,1.49-2.1l2.21-7.38a3.55,3.55,0,0,0-.06-2.58,2.79,2.79,0,0,0-1.85-1.49l-3.14-.94a0.09,0.09,0,0,0-.13.07l-4.08,13.6A0.09,0.09,0,0,0,112.06,1030.18Z"/><path class="8609eb8a-ee26-41e9-9fc0-176c58daf784" d="M136,1021l-7.38-1.32a0.09,0.09,0,0,0-.12.08l-1.09,6.1a0.09,0.09,0,0,0,.08.12l5,0.89a0.22,0.22,0,0,1,.2.29l-0.19,1a0.22,0.22,0,0,1-.29.2l-5-.89a0.09,0.09,0,0,0-.12.08l-1.1,6.15a0.09,0.09,0,0,0,.08.12l7.38,1.32a0.22,0.22,0,0,1,.2.29l-0.19,1a0.22,0.22,0,0,1-.29.2l-9-1.61a0.22,0.22,0,0,1-.2-0.29l3-16.73a0.22,0.22,0,0,1,.29-0.2l9,1.61a0.22,0.22,0,0,1,.2.29l-0.19,1A0.22,0.22,0,0,1,136,1021Z"/><path class="8609eb8a-ee26-41e9-9fc0-176c58daf784" d="M137.9,1037l1.16-17a0.22,0.22,0,0,1,.27-0.23l1.27,0.09a0.22,0.22,0,0,1,.23.27l-1.07,15.56a0.09,0.09,0,0,0,.09.11l7.26,0.5a0.22,0.22,0,0,1,.23.27l-0.07,1a0.22,0.22,0,0,1-.27.23l-8.88-.61A0.22,0.22,0,0,1,137.9,1037Z"/><path class="8609eb8a-ee26-41e9-9fc0-176c58daf784" d="M164.41,1019.74l0.08,1a0.22,0.22,0,0,1-.23.27l-4.06.33a0.09,0.09,0,0,0-.09.11l1.27,15.55a0.22,0.22,0,0,1-.23.27l-1.27.1a0.22,0.22,0,0,1-.27-0.23l-1.27-15.55a0.09,0.09,0,0,0-.11-0.09l-3.91.32a0.22,0.22,0,0,1-.27-0.23l-0.09-1a0.22,0.22,0,0,1,.23-0.27l9.94-.81A0.22,0.22,0,0,1,164.41,1019.74Z"/><path class="8609eb8a-ee26-41e9-9fc0-176c58daf784" d="M169.62,1036l-2.73-16.78a0.22,0.22,0,0,1,.21-0.29l1.26-.2a0.22,0.22,0,0,1,.29.21l2.73,16.78a0.22,0.22,0,0,1-.21.29l-1.26.2A0.22,0.22,0,0,1,169.62,1036Z"/><path class="8609eb8a-ee26-41e9-9fc0-176c58daf784" d="M181.64,1017.4l-7.28,1.8a0.09,0.09,0,0,0-.07.12l1.49,6a0.09,0.09,0,0,0,.12.07l4.9-1.21a0.22,0.22,0,0,1,.3.18l0.25,1a0.22,0.22,0,0,1-.18.3l-4.9,1.21a0.09,0.09,0,0,0-.07.12l1.5,6.07a0.09,0.09,0,0,0,.12.07l7.28-1.8a0.22,0.22,0,0,1,.3.18l0.25,1a0.22,0.22,0,0,1-.18.3l-8.86,2.19a0.22,0.22,0,0,1-.3-0.18l-4.08-16.5a0.22,0.22,0,0,1,.18-0.3l8.86-2.19a0.22,0.22,0,0,1,.3.18l0.25,1A0.22,0.22,0,0,1,181.64,1017.4Z"/><path class="8609eb8a-ee26-41e9-9fc0-176c58daf784" d="M193,1011.65l1.22-.46a0.22,0.22,0,0,1,.32.15l6,15.89a0.22,0.22,0,0,1-.14.32l-1.19.45a0.22,0.22,0,0,1-.32-0.14l-4.83-12.71a0.1,0.1,0,0,0-.08-0.07s-0.05,0-.05.07l-1.06,6.58a0.36,0.36,0,0,1-.22.27l-0.26.1a0.36,0.36,0,0,1-.34-0.06l-5.17-4.18s-0.06,0-.09,0a0.1,0.1,0,0,0,0,.11l4.82,12.69a0.22,0.22,0,0,1-.14.32l-1.19.45a0.22,0.22,0,0,1-.32-0.15l-6-15.89a0.22,0.22,0,0,1,.14-0.32l1.21-.46a0.36,0.36,0,0,1,.34.06l5.81,4.66a0.1,0.1,0,0,0,.08,0,0.1,0.1,0,0,0,.06,0l1.2-7.33A0.36,0.36,0,0,1,193,1011.65Z"/><path class="8609eb8a-ee26-41e9-9fc0-176c58daf784" d="M205.78,1006.75a5,5,0,0,1,2.75,2.55,4.88,4.88,0,0,1,.54,3.66,4.25,4.25,0,0,1-2.25,2.67l-3.29,1.74a0.09,0.09,0,0,0,0,.14l3.5,6.63a0.22,0.22,0,0,1-.1.34l-1.13.6a0.22,0.22,0,0,1-.34-0.1l-8-15.05a0.22,0.22,0,0,1,.11-0.34l4.73-2.5A4.2,4.2,0,0,1,205.78,1006.75Zm1.6,5.9a3.49,3.49,0,0,0-.41-2.5,3.57,3.57,0,0,0-1.85-1.78,2.69,2.69,0,0,0-2.31.19l-3.09,1.64a0.09,0.09,0,0,0,0,.14l3,5.7a0.09,0.09,0,0,0,.14,0l3.09-1.64A2.7,2.7,0,0,0,207.39,1012.64Z"/><path class="8609eb8a-ee26-41e9-9fc0-176c58daf784" d="M219.37,1016.8a4.48,4.48,0,0,1-2.5-.46,5.38,5.38,0,0,1-2-1.82l-4.37-6.37a5.45,5.45,0,0,1-1-2.56,4.45,4.45,0,0,1,.47-2.5,6,6,0,0,1,4.43-3,4.54,4.54,0,0,1,2.51.46,5.38,5.38,0,0,1,2,1.83l4.37,6.37a5.28,5.28,0,0,1,1,2.55,4.56,4.56,0,0,1-.48,2.5A6,6,0,0,1,219.37,1016.8Zm3.18-4.44a3.44,3.44,0,0,0-.65-2.58l-4.44-6.47a3.5,3.5,0,0,0-2.2-1.57,3.57,3.57,0,0,0-4,2.76,3.5,3.5,0,0,0,.67,2.62l4.44,6.47a3.43,3.43,0,0,0,2.18,1.54A3.6,3.6,0,0,0,222.55,1012.36Z"/></g></g></svg>