<svg id="b6d35953-954c-4b29-b9ac-191d412e9afb" data-name="Layer 2" xmlns="http://www.w3.org/2000/svg" viewBox="0 0 800 800"><defs><style>.\36 1eb1f6c-db9f-4d6b-8d09-ceece6f6659b{fill:#275388;}.\30 8f0f0f4-17a6-45a7-871e-023f35cf12d1{fill:#fff;}</style></defs><title>Ayuda</title><circle class="61eb1f6c-db9f-4d6b-8d09-ceece6f6659b" cx="400" cy="400" r="327.03"/><path class="08f0f0f4-17a6-45a7-871e-023f35cf12d1" d="M344.93,457.2a8.16,8.16,0,0,1-2-5.82l0-6.78q0.09-20.35,7.47-35.16t17.77-23.77a273,273,0,0,1,26.59-19.74q16.2-10.78,23.81-18.81a26.83,26.83,0,0,0,7.65-19q0-11-7.25-17.53t-19.41-7.09q-14.14-.6-22.5,6.61a23.67,23.67,0,0,0-8.41,18.69v2.09q0,7.31-7.6,7l-79.75-7q-7.57-.32-7.55-6.06,0.14-33.91,16.41-59.57t45.35-39q29.08-13.36,67-11.76,36.35,1.55,63.3,16.26t41.74,39.61q14.78,24.89,14.66,57.24-0.1,23.48-7.74,39.33t-18,25.32a285.44,285.44,0,0,1-27.1,21.28q-16.71,11.3-24.57,19.83t-7.92,21.58v0.52a7.64,7.64,0,0,1-2,5.65,7.12,7.12,0,0,1-5.56,1.85l-78.76-3.35A7.63,7.63,0,0,1,344.93,457.2Zm8.86,114.39q-13.32-14.39-13.23-35.79,0.09-21.91,13.53-34.91t34.13-12.11q20.7,0.88,34,15t13.23,36q-0.09,20.87-13.52,34.38t-34.14,12.63Q367.11,586,353.79,571.59Z"/></svg>