<svg id="0b16f284-1d5c-41ff-99c1-639dd1e5bea2" data-name="Layer 2" xmlns="http://www.w3.org/2000/svg" viewBox="0 0 800 800"><defs><style>.\33 e54b61c-525e-427e-90c8-4a8c99851590{fill:#ffc107;}.d0ac6f34-4518-478b-bde0-fbc8d6ad6583{fill:#fff;}</style></defs><title>Pista</title><circle class="3e54b61c-525e-427e-90c8-4a8c99851590" cx="400" cy="400" r="327.03"/><circle class="d0ac6f34-4518-478b-bde0-fbc8d6ad6583" cx="401.24" cy="392.27" r="123.01"/><path class="d0ac6f34-4518-478b-bde0-fbc8d6ad6583" d="M320.56,464.87s6.68,87.87,38.68,105.87h84s37.32-31.87,37.32-99.87l-67.32-40Z"/><rect class="d0ac6f34-4518-478b-bde0-fbc8d6ad6583" x="348.24" y="585" width="106" height="48" rx="12" ry="12"/><rect class="d0ac6f34-4518-478b-bde0-fbc8d6ad6583" x="389.42" y="167" width="24" height="80" rx="12" ry="12"/><rect class="d0ac6f34-4518-478b-bde0-fbc8d6ad6583" x="300.93" y="188" width="24" height="80" rx="12" ry="12" transform="translate(-74.05 215.59) rotate(-34.24)"/><rect class="d0ac6f34-4518-478b-bde0-fbc8d6ad6583" x="225.93" y="261.5" width="24" height="80" rx="12" ry="12" transform="translate(-130.3 410.66) rotate(-68.23)"/><rect class="d0ac6f34-4518-478b-bde0-fbc8d6ad6583" x="482.57" y="191.73" width="24" height="80" rx="12" ry="12" transform="translate(773.04 701.57) rotate(-145.76)"/><rect class="d0ac6f34-4518-478b-bde0-fbc8d6ad6583" x="550.07" y="263" width="24" height="80" rx="12" ry="12" transform="translate(489.1 937.35) rotate(-111.77)"/></svg>