<svg id="22e974c8-b6b6-4580-8050-0b86d2b312cd" data-name="Layer 2" xmlns="http://www.w3.org/2000/svg" viewBox="0 0 800 800"><defs><style>.c7dafe5a-0405-4824-96c1-cad942554c6c{fill:#82e3ed;}.\31 5a154fe-81aa-49dc-9ced-794035181084{fill:#fff;}</style></defs><title>PuntajeSemanal_Reporte</title><circle class="c7dafe5a-0405-4824-96c1-cad942554c6c" cx="407.97" cy="402.35" r="339.03"/><path class="15a154fe-81aa-49dc-9ced-794035181084" d="M400.71,362.67a89.18,89.18,0,1,0,96,81.75A89.18,89.18,0,0,0,400.71,362.67Zm13.44,167.25a78.6,78.6,0,1,1,72.05-84.65A78.6,78.6,0,0,1,414.15,529.92Z"/><path class="15a154fe-81aa-49dc-9ced-794035181084" d="M452.28,432.65a5.62,5.62,0,0,0-5-3.27l-24.68-.65L409.19,408a5.62,5.62,0,0,0-10,1.19l-8.24,23.27-23.84,6.4a5.62,5.62,0,0,0-2,9.89l19.58,15-1.28,24.65a5.62,5.62,0,0,0,8.8,4.93l20.34-14,23,8.83a5.62,5.62,0,0,0,2.67.33h0a5.63,5.63,0,0,0,4.62-7.48L436,457.73l15.52-19.19a5.62,5.62,0,0,0,.73-5.89h0Z"/><path class="15a154fe-81aa-49dc-9ced-794035181084" d="M557.57,230.73H535.64v-41h-43v41h-170v-41h-44v41h-20a42.55,42.55,0,0,0-42.5,42.75l-0.21,299.25a42.94,42.94,0,0,0,42.71,43h299c23.49,0,42.07-19.74,42.07-43.23v-299C599.64,250,581.06,230.73,557.57,230.73Zm-0.93,342h-298v-234h298v234Z"/></svg>