<svg id="343e846f-a17b-41b5-a2ec-330b1b9b2bcb" data-name="Layer 2" xmlns="http://www.w3.org/2000/svg" viewBox="0 0 800 800"><defs><style>.\39 ce6e89c-b7fa-43d9-a1f9-695ffb39da55{fill:#fabb88;}.c34f8934-d2b9-4191-912c-7782956a8912{fill:#fff;}</style></defs><title>Puntaje</title><circle class="9ce6e89c-b7fa-43d9-a1f9-695ffb39da55" cx="400" cy="400" r="339.03"/><path class="c34f8934-d2b9-4191-912c-7782956a8912" d="M384.8,150.71C280.39,159.1,202.54,250.55,210.94,355S310.78,537.23,415.2,528.84,597.46,429,589.06,324.58,489.22,142.32,384.8,150.71Zm28.59,355.7a167.17,167.17,0,1,1,153.24-180A167.17,167.17,0,0,1,413.39,506.41Z"/><path class="c34f8934-d2b9-4191-912c-7782956a8912" d="M316,508.31l-32.55,138,70.13-36.56,39,52.13,27.55-138.39S382.07,493.89,316,508.31Z"/><path class="c34f8934-d2b9-4191-912c-7782956a8912" d="M516.37,486.85l63.17,113.74L506.11,585l-23.43,55.07L424,524.82S452,489.76,516.37,486.85Z"/><path class="c34f8934-d2b9-4191-912c-7782956a8912" d="M494.48,299.53a12,12,0,0,0-10.55-6.95l-52.48-1.38-28.61-44a12,12,0,0,0-21.3,2.53L364,299.21l-50.7,13.61a12,12,0,0,0-4.18,21l41.64,32-2.72,52.43a12,12,0,0,0,18.72,10.48L410,399l49,18.79a12,12,0,0,0,5.69.71h0a12,12,0,0,0,9.83-15.9l-14.72-49.7,33-40.82a12,12,0,0,0,1.56-12.53h0Z"/></svg>