<svg id="bfd71ec6-7b61-4333-829a-9611d5990b93" data-name="Layer 2" xmlns="http://www.w3.org/2000/svg" viewBox="0 0 800 800"><defs><style>.ebe06586-091d-4b3d-b2df-8457c132470c{fill:#ff7596;}.a1defba0-8ebd-4a33-9066-d133beb1dd7c{fill:#fff;}</style></defs><title>PuntajeSemanal</title><circle class="ebe06586-091d-4b3d-b2df-8457c132470c" cx="400" cy="400" r="339.03"/><path class="a1defba0-8ebd-4a33-9066-d133beb1dd7c" d="M392.74,360.32a89.18,89.18,0,1,0,96,81.75A89.18,89.18,0,0,0,392.74,360.32Zm13.44,167.25a78.6,78.6,0,1,1,72.05-84.65A78.6,78.6,0,0,1,406.19,527.57Z"/><path class="a1defba0-8ebd-4a33-9066-d133beb1dd7c" d="M444.31,430.3a5.62,5.62,0,0,0-5-3.27l-24.68-.65-13.45-20.69a5.62,5.62,0,0,0-10,1.19L383,430.15l-23.84,6.4a5.62,5.62,0,0,0-2,9.89l19.58,15-1.28,24.65a5.62,5.62,0,0,0,8.8,4.93l20.34-14,23,8.83a5.62,5.62,0,0,0,2.67.33h0a5.63,5.63,0,0,0,4.62-7.48l-6.92-23.37,15.52-19.19a5.62,5.62,0,0,0,.73-5.89h0Z"/><path class="a1defba0-8ebd-4a33-9066-d133beb1dd7c" d="M549.61,228H528V187H485v41H315V187H271v41H250.63c-23.7,0-42.5,19.46-42.5,42.95l-0.21,299.16A42.86,42.86,0,0,0,250.63,613h299C573.1,613,592,593.65,592,570.16v-299C592,247.69,573.1,228,549.61,228ZM549,570H251V336H549V570Z"/></svg>