<svg id="826da2f2-f4bd-4a93-8822-c222b3d71118" data-name="Layer 2" xmlns="http://www.w3.org/2000/svg" viewBox="0 0 800 800"><defs><style>.\37 a86d7cb-dc7d-4079-9346-3ba462a604ef{fill:#60a863;}.f2c722ba-e821-4e37-b1ab-d788e0624d4c{fill:#6ebd6b;}.adc13d4a-be07-4998-9e34-565748cff80a{fill:#f2d231;}</style></defs><title>Top10</title><path class="7a86d7cb-dc7d-4079-9346-3ba462a604ef" d="M304.62,578.29c-3.12-1.66-31.31-16.2-60.63-16.2a72.78,72.78,0,0,0-24.94,4.13c-36.28,13.2-55.68,59.06-57.78,64.25a21.5,21.5,0,0,0,9.84,27c3.12,1.66,31.31,16.2,60.63,16.2h0a72.78,72.78,0,0,0,24.93-4.13c36.27-13.21,55.68-59.07,57.78-64.25a21.51,21.51,0,0,0-9.84-27h0Z"/><path class="7a86d7cb-dc7d-4079-9346-3ba462a604ef" d="M226,518.57c-3.37-4.47-34-43.75-72.44-47.11-1.83-.16-3.7-0.24-5.57-0.24-36.4,0-70.21,30.56-73.95,34.05a21.5,21.5,0,0,0-2.51,28.66c3.36,4.47,34,43.74,72.44,47.11,1.83,0.16,3.7.24,5.57,0.24h0c36.39,0,70.2-30.56,73.94-34A21.5,21.5,0,0,0,226,518.57h0Z"/><path class="7a86d7cb-dc7d-4079-9346-3ba462a604ef" d="M179.95,431.21c-1.16-5.47-12.31-54-45.74-73.31-11.36-6.56-25.44-9.89-41.85-9.89a157.71,157.71,0,0,0-44.52,6.93,21.5,21.5,0,0,0-14.38,24.92c1.16,5.47,12.31,54,45.75,73.31,11.36,6.56,25.44,9.88,41.85,9.89h0a157.75,157.75,0,0,0,44.5-6.92,21.51,21.51,0,0,0,14.39-24.92h0Z"/><path class="7a86d7cb-dc7d-4079-9346-3ba462a604ef" d="M164.68,246.8c-22.15-31.63-71.47-38.5-77-39.18a21.51,21.51,0,0,0-23.56,16.5c-1.26,5.45-11.67,54.15,10.48,85.77s71.46,38.5,77,39.18a21.82,21.82,0,0,0,2.64.16,21.51,21.51,0,0,0,20.93-16.66C176.41,327.12,186.82,278.42,164.68,246.8Z"/><path class="7a86d7cb-dc7d-4079-9346-3ba462a604ef" d="M239.24,159c-6.7-38-48.5-65.1-53.24-68.06a21.5,21.5,0,0,0-28.33,5c-3.44,4.4-33.46,44.14-26.76,82.17s48.5,65.09,53.24,68.05a21.5,21.5,0,0,0,28.34-5c3.45-4.4,33.46-44.15,26.75-82.16h0Z"/><path class="7a86d7cb-dc7d-4079-9346-3ba462a604ef" d="M638.72,630.47c-2.09-5.19-21.5-51-57.78-64.25A72.79,72.79,0,0,0,556,562.09c-29.32,0-57.51,14.54-60.63,16.2a21.51,21.51,0,0,0-9.84,27c2.09,5.19,21.5,51,57.79,64.26a72.79,72.79,0,0,0,24.92,4.12c29.32,0,57.51-14.55,60.63-16.2a21.5,21.5,0,0,0,9.84-27h0Z"/><path class="7a86d7cb-dc7d-4079-9346-3ba462a604ef" d="M726,505.27c-3.73-3.49-37.55-34.05-73.94-34.05-1.87,0-3.74.08-5.57,0.24C608,474.82,577.38,514.1,574,518.57a21.51,21.51,0,0,0,2.51,28.66c3.74,3.49,37.55,34,73.95,34,1.87,0,3.74-.08,5.57-0.24,38.46-3.36,69.07-42.64,72.44-47.11A21.5,21.5,0,0,0,726,505.27h0Z"/><path class="7a86d7cb-dc7d-4079-9346-3ba462a604ef" d="M752.16,354.94A157.6,157.6,0,0,0,707.64,348c-16.4,0-30.48,3.33-41.85,9.89-33.43,19.31-44.58,67.84-45.74,73.31a21.5,21.5,0,0,0,14.39,24.92,157.76,157.76,0,0,0,44.5,6.92c16.41,0,30.49-3.33,41.86-9.89,33.43-19.31,44.58-67.83,45.74-73.3a21.5,21.5,0,0,0-14.38-24.91h0Z"/><path class="7a86d7cb-dc7d-4079-9346-3ba462a604ef" d="M735.91,224.12a21.5,21.5,0,0,0-23.57-16.5c-5.55.68-54.87,7.55-77,39.18s-11.74,80.32-10.48,85.77a21.51,21.51,0,0,0,20.93,16.66,21.87,21.87,0,0,0,2.64-.16c5.55-.68,54.87-7.56,77-39.18s11.74-80.32,10.48-85.77h0Z"/><path class="7a86d7cb-dc7d-4079-9346-3ba462a604ef" d="M642.33,95.93a21.51,21.51,0,0,0-28.33-5c-4.74,3-46.53,30-53.24,68.06s23.31,77.76,26.75,82.16a21.5,21.5,0,0,0,28.34,5c4.74-3,46.53-30,53.24-68.06s-23.31-77.76-26.76-82.17h0Z"/><path class="f2c722ba-e821-4e37-b1ab-d788e0624d4c" d="M671.17,371.07A271.08,271.08,0,0,0,535.63,136.2a21.5,21.5,0,1,0-21.54,37.22A229.07,229.07,0,0,1,628.16,371.07c0,125.81-102.35,228.16-228.16,228.16S171.83,496.88,171.83,371.07A229,229,0,0,1,285.91,173.43a21.5,21.5,0,0,0-21.53-37.23A271.07,271.07,0,0,0,128.83,371.07c0,124.68,84.59,230,199.39,261.51-12.52,12.72-24,28.92-34,48.36a21.5,21.5,0,1,0,38.2,19.77c19.23-37.15,43.88-58.46,67.63-58.46s48.39,21.31,67.63,58.46a21.51,21.51,0,0,0,38.2-19.77c-10.06-19.43-21.52-35.63-34-48.35C586.58,601,671.17,495.75,671.17,371.07h0Z"/><path class="adc13d4a-be07-4998-9e34-565748cff80a" d="M571.82,313.3a21.5,21.5,0,0,0-17.36-14.63L461.06,285.1l-41.77-84.64a21.5,21.5,0,0,0-38.57,0L338.94,285.1l-93.41,13.57a21.5,21.5,0,0,0-11.92,36.68l67.59,65.88-16,93a21.5,21.5,0,0,0,31.2,22.67L400,473l83.54,43.92a21.49,21.49,0,0,0,10,2.47h0.07a21.52,21.52,0,0,0,20.92-26.31l-15.76-91.86,67.59-65.88a21.51,21.51,0,0,0,5.44-22h0Z"/></svg>