<svg id="a453d356-3c33-43d7-ac42-84ea064c7695" data-name="Layer 2" xmlns="http://www.w3.org/2000/svg" viewBox="0 0 800 800"><defs><style>.\35 bdd7aaf-8588-4a33-b5e7-b012aa6ee583{fill:#ff777c;}.\32 9259642-3597-4c74-b159-97ed51b600b3{fill:#fff;}</style></defs><title>Reporte_ReactivosResueltos</title><circle class="5bdd7aaf-8588-4a33-b5e7-b012aa6ee583" cx="400" cy="400" r="339.03"/><path class="29259642-3597-4c74-b159-97ed51b600b3" d="M539.27,240.84H456.1C447.75,217.76,425.86,201,400,201s-47.75,16.71-56.1,39.79H260.73a39.91,39.91,0,0,0-39.79,39.79V559.16A39.91,39.91,0,0,0,260.73,599H539.27a39.91,39.91,0,0,0,39.79-39.79V280.63A39.91,39.91,0,0,0,539.27,240.84Zm-139.27,0a19.9,19.9,0,1,1-19.9,19.9A20,20,0,0,1,400,240.84ZM360.21,519.37l-79.58-79.58,28.05-28.05,51.53,51.33L491.32,332l28.05,28.25Z"/></svg>