<svg id="b5ccefa9-63c9-458e-ac1d-2966c0a20a1f" data-name="Layer 2" xmlns="http://www.w3.org/2000/svg" viewBox="0 0 800 800"><defs><style>.\31 d52d9bb-0b3a-4122-bd0f-68f07a6214be{fill:#975cb1;}</style></defs><title>Reglas</title><path class="1d52d9bb-0b3a-4122-bd0f-68f07a6214be" d="M572.25,371.29v57.42H687.08V371.29H572.25ZM514.83,561.05c27.56,20.38,63.44,47.37,91.87,68.61,11.48-15.22,23-30.72,34.45-45.93-28.42-21.24-64.31-48.23-91.87-68.9C537.8,530.33,526.31,545.84,514.83,561.05ZM641.15,216.27c-11.48-15.22-23-30.72-34.45-45.93-28.42,21.24-64.31,48.23-91.87,68.9,11.48,15.22,23,30.72,34.45,45.93C576.84,264.5,612.73,237.8,641.15,216.27ZM170.34,313.88a57.58,57.58,0,0,0-57.42,57.42v57.42a57.58,57.58,0,0,0,57.42,57.42H199V601h57.42V486.12h28.71l143.54,86.12V227.75L285.17,313.88H170.34ZM500.48,400a128.61,128.61,0,0,0-43.06-96.17V495.88A127.53,127.53,0,0,0,500.48,400Z"/></svg>