<svg id="33c20c36-709f-43c9-839b-f4dc7009c36e" data-name="Layer 2" xmlns="http://www.w3.org/2000/svg" viewBox="0 0 800 800"><defs><style>.a4a2ddf4-51b8-4adb-a1ef-de03f651a5af{fill:#e57171;}.\33 0fc158c-ccef-4670-8f34-10846ee96854{fill:#fff;}</style></defs><title>Reporte2_TotalDeErrores</title><circle class="a4a2ddf4-51b8-4adb-a1ef-de03f651a5af" cx="400" cy="400" r="339.03"/><path class="30fc158c-ccef-4670-8f34-10846ee96854" d="M539.27,240.84H456.1C447.75,217.76,425.86,201,400,201s-47.75,16.71-56.1,39.79H260.73a39.91,39.91,0,0,0-39.79,39.79V559.16A39.91,39.91,0,0,0,260.73,599H539.27a39.91,39.91,0,0,0,39.79-39.79V280.63A39.91,39.91,0,0,0,539.27,240.84Zm-139.27,0a19.9,19.9,0,1,1-19.9,19.9A20,20,0,0,1,400,240.84ZM491.32,332l28.05,28.25L360.21,519.37l-79.58-79.58,28.05-28.05,51.53,51.33"/><rect class="30fc158c-ccef-4670-8f34-10846ee96854" x="272" y="266" width="256" height="268"/><path class="a4a2ddf4-51b8-4adb-a1ef-de03f651a5af" d="M328.78,504q-1.06-1.11,0-2.88l41.9-72.56a3.06,3.06,0,0,0,0-1.77L329.15,354a7.81,7.81,0,0,1-.53-1.55,2,2,0,0,1,1.07-1.77,4.92,4.92,0,0,1,2.66-.66l44.11,0.11q3.72,0,4.78,2.67l18,36.15a1.47,1.47,0,0,0,1.19.89,1,1,0,0,0,.93-0.88l18.43-36.06a4.87,4.87,0,0,1,4.79-2.65l43.58,0.11a4.23,4.23,0,0,1,3.19,1.12q1.06,1.11,0,2.88l-41.64,72.56a3,3,0,0,0,0,1.77L471,501.44a8.27,8.27,0,0,1,.53,1.55,2,2,0,0,1-1.07,1.77,4.93,4.93,0,0,1-2.66.66l-43.58-.11q-3.46,0-4.51-2.45l-18.51-36.38a1,1,0,0,0-.93-0.89,1.48,1.48,0,0,0-1.2.88L380.6,502.55a4.88,4.88,0,0,1-4.79,2.65L332,505.09A4.21,4.21,0,0,1,328.78,504Z"/></svg>