<svg id="767d6f65-f88f-4004-b6b6-ed2c96457944" data-name="Layer 2" xmlns="http://www.w3.org/2000/svg" viewBox="0 0 800 800"><defs><style>.be771f3b-aa5d-4231-ab63-042d029e36db{fill:#fbb03b;}.\34 edf2465-2883-465b-a800-3e3561ea21cf{fill:#fff;}</style></defs><title>Reporte2_TotalDeAciertos</title><circle class="be771f3b-aa5d-4231-ab63-042d029e36db" cx="400" cy="400" r="339.03"/><path class="4edf2465-2883-465b-a800-3e3561ea21cf" d="M539.27,240.84H456.1C447.75,217.76,425.86,201,400,201s-47.75,16.71-56.1,39.79H260.73a39.91,39.91,0,0,0-39.79,39.79V559.16A39.91,39.91,0,0,0,260.73,599H539.27a39.91,39.91,0,0,0,39.79-39.79V280.63A39.91,39.91,0,0,0,539.27,240.84Zm-139.27,0a19.9,19.9,0,1,1-19.9,19.9A20,20,0,0,1,400,240.84ZM360.21,519.37l-79.58-79.58,28.05-28.05,51.53,51.33L491.32,332l28.05,28.25Z"/></svg>