<svg id="9527910b-1688-4be7-b216-e1b2f911a989" data-name="Layer 1" xmlns="http://www.w3.org/2000/svg" xmlns:xlink="http://www.w3.org/1999/xlink" viewBox="0 0 1024 768"><defs><style>.\39 48a9063-1e9e-447e-b801-1efde1974991{fill:none;}.b4d6b13e-f289-40ed-9ab6-8d982012068d{clip-path:url(#79feef3d-adc6-4a04-aa0a-3ab1206d44d5);}.d0894d1e-d2fa-4a3d-94f1-3175201be993{opacity:0.5;isolation:isolate;}.d17fd8a9-7a61-4ddf-b012-0e935f9778de{clip-path:url(#a4e5502d-5825-48b3-972d-9f0192da401b);}.bc0fdf30-56c7-43f4-9601-655229c3a970{opacity:0.18;}.a4bfbb80-ebd7-4cf4-8107-baa33a566451{fill:#fff;}.\34 7a5d784-6029-4aaa-82b6-13804e238814{opacity:0.15;}</style><clipPath id="79feef3d-adc6-4a04-aa0a-3ab1206d44d5"><rect class="948a9063-1e9e-447e-b801-1efde1974991" x="1.39" y="-1.5" width="1021.22" height="771"/></clipPath><clipPath id="a4e5502d-5825-48b3-972d-9f0192da401b"><rect class="948a9063-1e9e-447e-b801-1efde1974991" x="1.61" y="1" width="1021" height="769"/></clipPath></defs><title>Fondo_Tema10</title><g class="b4d6b13e-f289-40ed-9ab6-8d982012068d"><g class="d0894d1e-d2fa-4a3d-94f1-3175201be993"><g class="d17fd8a9-7a61-4ddf-b012-0e935f9778de"><g class="bc0fdf30-56c7-43f4-9601-655229c3a970"><path class="a4bfbb80-ebd7-4cf4-8107-baa33a566451" d="M512.41,955.4h-0.3c-21.7,0-43.6-.7-65.2-2.1L512,384.2c3.6,0.2-3.7,0,0,0Zm65.7-2.1-66-569c3.5-.2-3.5.5,0,0l131.5,562.6C621.91,949.7,599.91,951.9,578.11,953.3Zm-196.6-6.4c-21.6-2.8-43.3-6.4-64.5-10.7l195.1-552c3.4,0.7-3.5-.5,0,0Zm326.7-10.8L512,384.3c3.4-.7-3.3.9,0,0l259.2,536.8C750.61,926.7,729.41,931.8,708.21,936.1Zm-454.5-14.8c-20.6-5.6-41.2-12-61.1-19L512,384.3c3.2,1.1-3.3-.9,0,0ZM832.41,902L512,384.3c3.2-1.1-3.1,1.3,0,0L890.91,879C871.91,887.2,852.21,895,832.41,902ZM134,879.2c-19-8.3-37.8-17.3-55.7-26.7l433.8-468.2c2.9,1.5-3.1-1.3,0,0Zm812.5-27L512,384.3c2.9-1.5-2.8,1.7,0,0L998.71,822C982,832.6,964.41,842.7,946.51,852.2ZM26,822.3c-16.8-10.6-33.1-21.9-48.6-33.5L512,384.2c2.6,1.9-2.8-1.8,0,0Zm1021.3-33.9L512,384.3c2.6-1.9-2.3,2.1,0,0l579.7,367.6C1077.71,764.5,1062.71,776.8,1047.31,788.4ZM-67.09,752.3c-14.1-12.6-27.6-25.8-40.2-39.3L512,384.3c2.1,2.2-2.3-2.1,0,0Zm1199-39.8L512,384.3c2-2.2-1.8,2.3,0,0l655.4,286.3C1156.51,684.9,1144.51,699,1131.91,712.5Zm-1274.7-41.4a535.12,535.12,0,0,1-30.6-44.1l685.5-242.8c1.5,2.4-1.8-2.3,0,0ZM1198,626.4L512,384.3c1.5-2.4-1.2,2.5,0,0l711.3,196.1A505.61,505.61,0,0,1,1198,626.4ZM-198.79,581a499,499,0,0,1-20-47.5L512,384.3c0.9,2.5-1.2-2.5,0,0Zm1442-48.2L512,384.3c0.9-2.5-.6,2.6,0,0l745.4,99.9A420.94,420.94,0,0,1,1243.21,532.8Zm-1476.3-48a436.61,436.61,0,0,1-8.6-49.2l753.8-51.3c0.3,2.7-.6-2.6,0,0ZM1266,434.9L512,384.3c0.3-2.7,0,2.8,0,0h0l756.8,0.5v0.8A430.1,430.1,0,0,1,1266,434.9Zm-1510.6-47.3v-2.1a440.23,440.23,0,0,1,2.7-48.7L512,384.3c-0.3,2.7,0-2.8,0,0h0l-756.7,1.6ZM512,384.3c-0.3-2.7.7,2.6,0,0l745.1-98.8a442.71,442.71,0,0,1,8.7,49.3Zm0,0-745.4-96.8a449.93,449.93,0,0,1,14.2-48.7L512,384.3C511.11,386.8,512.61,381.7,512,384.3Zm0,0c-0.9-2.6,1.3,2.5,0,0l710.7-194.9a455.55,455.55,0,0,1,20,47.5Zm0,0-711.5-193c7.5-15.5,16-31,25.2-46L512,384.3C510.61,386.7,513.21,381.8,512,384.3Zm0,0c-1.5-2.4,1.8,2.3,0,0l654.5-285a536.45,536.45,0,0,1,30.7,44.1Zm0,0L-143.69,101c10.9-14.3,22.9-28.4,35.4-41.9L512,384.3C510,386.5,513.81,381.9,512,384.3Zm0,0c-2-2.3,2.4,2,0,0l578.7-366.1c14.1,12.6,27.6,25.8,40.2,39.3Zm0,0L-68.19,19.7c14-12.6,29-24.9,44.4-36.6L512,384.3C509.51,386.2,514.41,382.2,512,384.3Zm0,0c-2.5-2,2.8,1.7,0,0l485.4-436c16.8,10.6,33.1,21.8,48.6,33.4Zm0,0L24.71-50.5C41.41-61.1,59-71.3,76.91-80.8L512,384.3C509.11,385.8,514.81,382.5,512,384.3Zm0,0c-2.9-1.6,3.1,1.3,0,0l377.4-492.8c19,8.2,37.7,17.2,55.7,26.7Zm0,0L132.51-107.6c19-8.3,38.6-16.1,58.5-23.1l321,515C508.81,385.4,515.11,382.9,512,384.3Zm0,0c-3.1-1.1,3.3.9,0,0l257.6-534.8c20.7,5.6,41.3,12.1,61.3,19Zm0,0L252-149.8c20.7-5.7,41.9-10.8,63.1-15.1L512,384.3C508.71,384.9,515.31,383.4,512,384.3Zm0,0c-3.3-.7,3.5.4,0,0L641.71-176c21.7,2.8,43.4,6.4,64.7,10.7Zm0,0-132.3-560c21.5-2.9,43.5-5.1,65.3-6.5l67,566.5C508.41,384.5,515.51,383.8,512,384.3Zm0,0c-3.5-.3,3.7,0,0,0h0l-0.7-568.7h0.8c21.4,0,43,.7,64.2,2Z"/></g></g></g><g class="47a5d784-6029-4aaa-82b6-13804e238814"><path class="a4bfbb80-ebd7-4cf4-8107-baa33a566451" d="M694.67,451.62c0.59-2.94-4.11-8.62,2.74-9,5.48-.39,4.11,5.29,4.9,8.81,2.74,13.32-8.62,22.71-9.2,35.05,0,1.57-2.15,2.94-3.52,1.76-7.44-5.87-8,1.57-10.77,5.29-1.57,2-2.55,5.87-6.07,3.72-2.94-2-.78-4.9.2-7.44,2.74-6.46,9-11.16,9.4-18.8,0.2-3.13,1.57-6.46-1.76-8.62a6.36,6.36,0,0,0-8.81,1.37c-10,14.49-17.23,2.15-21.54-3.72-4.7-6.27-8-5.87-13.9-4.31-8,2.35-15.67-1.17-23.3-3.13-3.72-1-4.9-3.72-4.5-7.25,0.39-3.13,1-6.27,1.37-9.4,2.35-16.84,2.35-16.64,19.19-10.77,2.55,0.78,5.48.59,8.22,0.59s7-.59,7.44,2c1.17,10.77,12.73,9.59,18.21,15.47,2.74,2.94,13.51,3.33,20.56,6.07,3.13,1.17,6.07,2.15,4.31,6.66-1.17,2.94-2,6.85,2.74,7.25,5.48,0.39,4.7-3.92,4.5-7.64C695.06,454.56,694.87,453.39,694.67,451.62Z"/><path class="a4bfbb80-ebd7-4cf4-8107-baa33a566451" d="M411.33,187.86c5.09,5.48,12.73,10.77,2.35,18-4.11,2.94-7.83,3.72-11.75-.2-2.15-2.35-4.5-4.5-6.66-6.85-12.53-13.12-10.38-25.06,5.68-32.9,0.39-.2,1-0.59,1-0.39,11.36,8.22,16.84-3.92,24.87-7a47.29,47.29,0,0,1,10.38-2.55c5.68-1,12.14,1.76,12.92,5.87,1,4.9-3.13,10.38-10,10.57C428.17,172.19,422.1,183.55,411.33,187.86Z"/><path class="a4bfbb80-ebd7-4cf4-8107-baa33a566451" d="M384.11,287.53c4.9-.78,9,1,12.73,3.13,3.33,1.76,11,3.33,8,7.25-2.74,3.72-5.48,14.88-15.86,7-5.29-4.11-11.94-8.22-19.78-4.9a2.48,2.48,0,0,1-1.17.2c-2.55-.39-3.13-2.35-3.52-4.11-2-13.71-28.39-16.64-16.25-36.81,2.15-3.52,2.55-8.22,3.33-12.53,0.59-3.33,2.35-4.9,5.68-4.9,2.74,0.2,6.46-.2,3.72,4.5,14.69,5.29,10,16.45,10.18,27.41C371.19,278.72,373.54,289.29,384.11,287.53Z"/><path class="a4bfbb80-ebd7-4cf4-8107-baa33a566451" d="M720.91,514.48c-5.09,1.17-10.18,2.15-14.88,3.72-6.85,2.55-10.18-.39-12.53-6.46-2.94-7.25,1.57-9.2,6.85-11,4.5-1.57,6.46-3.33,7.44-9.4,2.15-12.14,14.1-18.21,22.13-26.63,2-2,4.31.59,6.46,1.37,5.87,2.15,11.94,4.31,17.62,6.85,2.74,1.17,9.2.59,6.27,5.68-2.35,4.31-2.74,12.92-11.55,10.77a52.29,52.29,0,0,1-7.83-2.55c-13.9-5.09-19.58-1.37-20.17,14.1-0.2,4.31.2,8.62,0.39,13.12Z"/><path class="a4bfbb80-ebd7-4cf4-8107-baa33a566451" d="M537.24,332.76c-1.76-4.11-10.18-4.11-6.66-11.75,3.13-6.66,8.62-6.27,14.1-5.87,6.27,0.59,12.34,0,16.84,7.83,3.72,6.66,11.16,1,15.86-2.94,8.62-7.25,17-9.2,25.65-.2,4.9,5.09,7.44,9.79-2,12.92-3.33,1.17-6.27,3.52-9.4,5.09-4.31,2-6.85,9.59-11,7.44-6.07-2.94-12.73-6.66-16.84-12.73-1.17-1.76-2.74-6.07-4.31-3.92-6.66,9-15.47,0-22.32,4.11h0Z"/><path class="a4bfbb80-ebd7-4cf4-8107-baa33a566451" d="M689.78,88.19c-6.85-5.09-15.27-6.07-22.71-9.59C662,76,658.84,74.68,664.91,69c5.29-5.09,9.6-10.57,4.5-19.78-4.7-8.62-.59-13.71,9.6-14.88,5.87-.59,11.55-1.37,17.62-2-3.52,18.41-4.7,20-18.41,23.3,3.13,10.77,21.93,1.57,21.34,16.64-0.2,6.85-2,13.51-10.18,15.67Z"/><path class="a4bfbb80-ebd7-4cf4-8107-baa33a566451" d="M200,246c-4.31-.2-7.25,0-10-0.59-8-1.57-12.14,1.17-12.53,9.59-0.2,3.72-1.17,7.64-6.07,7.25-5.29-.39-8.62-3.92-7.44-8.62,1.37-5.87-5.87-18.6,10-14.69,11.16-13.71,26.24-4.11,39.36-6.46,6.27-1.17,8-3.33,6.46-9.4-0.78-2.94-3.13-7.83,1.37-9,3.92-1,10.18-.78,12.34,1.57,3.72,4.31,4.9,11,3.92,16.84-0.78,5.09-6.85,5.87-10.77,5.29-3.92-.39-4.7-0.78-6.85,3.33C215.32,250.72,205.53,243.47,200,246Z"/><path class="a4bfbb80-ebd7-4cf4-8107-baa33a566451" d="M737.56,562.65c-11.55,15.08-11.36,18.6,3.52,32.11,6.27,5.68,4.9,13.32,3.33,18.41-1.76,5.87-9.4,3.92-14.69,2.15-3.72-1.37-7.44-2.74-11.16-4.31-13.9-5.87-13.9-5.87-5.87-17.82,1.76-2.55,3.52-4.9,1.76-8.62-1.57-3.13-7.83-7.64-3.33-9.59C719.93,571.46,723.07,556.38,737.56,562.65Z"/><path class="a4bfbb80-ebd7-4cf4-8107-baa33a566451" d="M499.44,321c-3.13.39-6.27,1.37-9.4,1-5.68-.39-8-2.94-4.11-8.42,2.35-3.33,8-9.2,4.7-10.57-5.87-2.35-11.36-9.79-19.19-5.09-2.74,1.57-5.87,3.52-8.62,3.52-6.07-.2-10.57-4.9-12.14-10-1.57-4.9,4.5-5.48,7.64-7,4.5-2.35,9.59-3.92,14.29-5.48,2.15-.78,5.29-1.57,5.48,2.15,1,12.92,7.64,6.27,12.53,3.52,3.92-2.35,6.66-6.46,11.94-1.57,3.92,3.72,5.29,5.68,4.31,12.14-1.37,9.2-8,16.45-7.44,25.85h0Z"/><path class="a4bfbb80-ebd7-4cf4-8107-baa33a566451" d="M820.58,484.32a59.24,59.24,0,0,1,.39,8.22c-0.39,4.5.78,9.79-5.29,11.94-5.09,1.76-7-2.74-9.79-5.29-8.42-7.44-15.47-17.82-29.37-12.53-2.94,1.17-5.48-.59-6.07-3.92-0.78-3.52,1.57-4.9,4.5-5.87,3.33-1.17,6.85-1.57,9.2-4.9,3.33-4.5,4.9-8-2.35-10.38-3.33-1-8.42-1.17-6.46-7.64,2.15-7.25,6.66-3.33,10.57-2.74a70,70,0,0,1,9.2,2.15c2.94,1,8.42-1.17,8,4.5-0.2,4.7-2.74,8.22-8.62,7.64-1-.2-2.15.59-5.29,1.57,10,8.62,19.58,14.49,31.33,17.23h0Z"/><path class="a4bfbb80-ebd7-4cf4-8107-baa33a566451" d="M256.83,176.89c-0.78,0-1.76-.39-2.35-0.2-14.49,6.07-20.76-3.33-26-14.1-1.37-2.55-7-5.29-1.57-8.42,3.52-2.15,7.83-5.48,12.73-.39,10,10.57,12.14,10.18,17-4.5,4.7-13.9,13.9-4.11,20.36-3.72,7.25,0.39,2.35,6.85,1.57,10C274.06,172.59,268.77,177.48,256.83,176.89Z"/><path class="a4bfbb80-ebd7-4cf4-8107-baa33a566451" d="M772.61,152.42c5.87,7.83,14.49,13.12,19.19,21.93,1.37,2.74,6.07,6.66.78,8.62-4.31,1.76-9.2,8.42-14.49,2.15-7.44-9-19.19-12.53-26.24-21.93a46.6,46.6,0,0,0-10-12.92c-2.35-15.08,10-11.94,17.82-14.1C764.58,141.06,760.08,153.4,772.61,152.42Z"/><path class="a4bfbb80-ebd7-4cf4-8107-baa33a566451" d="M449.71,365.27c2.74,5.48,8.22,7.64,13.32,9,6.07,1.76,8.62,4.9,9,10.77,0.2,5.87-.2,11.16-7,13.32-1.76.59-4.31,0.78-3.92,3.52,0.59,3.33,2.74,2.15,5.09,2.15,7,0,11.55,6.07,17.43,8.81,1.76,0.78,2,2.35,1,3.92-1.17,2.15-3.13,4.11-5.68,3.13-2.94-1-6.27-2.35-8.22-4.5-6.85-7.64-15.47-8.42-24.87-7.25H446c0-5.48-3.92-9.4-5.68-14.1-2.55-6.66-5.68-12.34,5.09-14.88,7.64-1.37.78-9.59,4.31-13.9h0Z"/><path class="a4bfbb80-ebd7-4cf4-8107-baa33a566451" d="M120.35,358.22c-0.78,1.76-1,4.11-2.15,5.48-11.94,13.9-11,30.35-10.38,47,0.2,4.11.78,8.22-4.9,8.81-5.29.59-5.68-3.72-5.68-7,0-9.2-10.57-19.19,2.55-27.81,3.33-2.15-.39-6.27-2.74-7.83-8.81-5.48-6.46-11.16-1.17-17.43a32.38,32.38,0,0,0,4.31-7c2-4.7,4.9-6.07,9.2-3.72C113.69,350.78,119.37,351.76,120.35,358.22Z"/><path class="a4bfbb80-ebd7-4cf4-8107-baa33a566451" d="M385.48,693.06c1.17,5.68-.2,10-5.87,12.73-2.15,1-4.5,2.35-5.68,4.31-11,17.23-29.37,12.73-45,15.27-7,1.17-8.81-5.48-9-10.18-0.2-8,6.07-3.92,9.59-3.52,9.2,1.37,17.43,3.13,23.69-7.25,3.33-5.48,8.81-10.57,18-9.2,4.7,0.78,7.25-4.7,5.68-10.18C379,688.56,380,693.46,385.48,693.06Z"/><path class="a4bfbb80-ebd7-4cf4-8107-baa33a566451" d="M487.11,538.57c-1.57,8,2.35,10.57,9.2,7.44,6.46-2.74,8.22.39,10,5.48a80.5,80.5,0,0,0,7.25,14.88c3.72,5.48,4.5,9.79-2.15,13.51-6.07,3.52-11.16,3.92-14.69-3.33-3.13-6.07-6.46-11.75-9.4-17.82-1.37-2.74-2.15-5.87-5.48-7.25-6.85-2.94-10-12.73-5.87-18.8a7.65,7.65,0,0,1,8.22-3.33C489.65,531.12,487.11,535.24,487.11,538.57Z"/><path class="a4bfbb80-ebd7-4cf4-8107-baa33a566451" d="M334.57,315.73c0.59-1.17,1.17-2.74,2.35-3.52,2.15-1.57,3.92-.2,4.7,1.76,6.07,18,18.6,10,29.37,6.85,4.7-1.37,8-3.13,10.18,2.94,1.76,4.7,7.25,8.22,1,14.49-5.48,5.48-15.47,5.87-17.43,16.25-0.39,2.35-10,.39-10.57-3.33-2.15-12.92-9.79-22.13-17.43-31.72A13.3,13.3,0,0,1,334.57,315.73Z"/><path class="a4bfbb80-ebd7-4cf4-8107-baa33a566451" d="M248,427.34c4.7,0.78,9.59,1.17,14.1,2.35,3.52,1,10.38.2,7.83,7-1.76,4.9-1,14.49-11.55,10.57-1.37-.59-3.13-0.2-4.7-0.78-9.4-2.94-14.69-.78-13.71,10.38,0.78,7.44-5.68,8.62-11,10.38-5.68,2-7.83-2.74-10-6.27-3.72-5.87-1.37-9.59,4.7-11.75,6.46-2.55,11.94-5.48,11.75-14.29C235.49,427.15,242.14,427.34,248,427.34Z"/><path class="a4bfbb80-ebd7-4cf4-8107-baa33a566451" d="M372.95,506.45c-10.77-.59-22.32-16.45-20.36-24.87,0.39-1.76,2.74-4.5.39-5.09-10.38-3.13-5.68-12.73-8.42-19-1.37-3.13-5.68-8.62,1.57-10.57,6.66-1.76,9.79,2.74,9.79,8.62,0.2,10.77,5.87,18.41,12.73,25.65a46.33,46.33,0,0,0,8.22,6.85c3.72,2.35,3.52,4.7,1.37,7.64C375.49,499,375.69,504.49,372.95,506.45Z"/><path class="a4bfbb80-ebd7-4cf4-8107-baa33a566451" d="M747.35,389.55c6.46-8,10.38-17.62,14.69-26.83,3.33,0.78,3.72,3.92,5.29,6.07,2.74,4.11,3.33,9.79,11.36,3.13,5.29-4.5,15.47-3.92,23.69-1.57l0.2-.2c-4.7,1.57-5.09,7-8,9.59-9.6,8-22.52,10.18-32.7,17.82-4.31,3.13-10-4.9-14.49-8h0Z"/><path class="a4bfbb80-ebd7-4cf4-8107-baa33a566451" d="M705.64,281.26c6.07-8.62,15.27-1.17,22.32-4.31l0.59,0.59a1,1,0,0,0-.78-0.39c-1-2.94-7-4.31-2.94-8.62,5.29-5.68,10.18-12.73,19-12.34,4.11,0.2,7.83,3.72,9.79,7.83,1.76,4.11-1.76,5.48-4.5,6.85-6.27,3.13-11.16,7.44-12.53,14.69-1.37,7-5.87,9.2-11.94,7s-12.53,1.76-18.41-2.15C702.7,287.73,704.86,284.4,705.64,281.26Z"/><path class="a4bfbb80-ebd7-4cf4-8107-baa33a566451" d="M684.49,393.27c-6.07,3.52-11.16,2-16.06-2.35-3.72-3.33-5.09-6.27.2-9.2,11.55-6.27,6.46-11.55-1-16.84-3.33-2.35-6.46-4.7-9.6-7,8-10.77,7.44-10,18-3.33,8,5.09,10,16.25,20.36,19,2.94,0.78-.78,4.7-0.59,7.25C691.93,385,688.21,389.16,684.49,393.27Z"/><path class="a4bfbb80-ebd7-4cf4-8107-baa33a566451" d="M557.21,717.93c-0.78,5.09-.78,8,1,11,2.35,3.92,5.68,8.62.78,12.73-5.48,4.7-12.14,8.62-19.19,8-4.9-.39-4.9-7.25-7-11.16-1.76-3.33,2.94-3.72,5.09-4.7,1.76-1,3.72-1.37,5.48-2.15,3.13-1.57,8-2.94,7.64-6.46-0.39-4.31-5.48-3.33-8.81-3.52-4.9-.39-10,0-9.2-7.44,0.78-6.66,4.7-8.62,10.77-7.44C551.14,708.14,561.91,706.18,557.21,717.93Z"/><path class="a4bfbb80-ebd7-4cf4-8107-baa33a566451" d="M318.9,622.18a25.34,25.34,0,0,0,3.13-3.52c6.66-10.57,14.49-11.55,23.89-3.52,4.11,3.52,9,6.85,15.08,6.27,7.83-.59,7.83,5.68,8.22,10.38,0.39,6.66-5.68,2.94-8,4.5-11.55,7.25-18-3.13-26.24-6.66C329.48,627.47,324.39,624.72,318.9,622.18Z"/><path class="a4bfbb80-ebd7-4cf4-8107-baa33a566451" d="M621,193c2.94-.78,5.68.39,4.7,3.13-2.15,5.68,7.83,12.92-1.57,16.64-6.46,2.35-11.75,8.42-19.78,6.66-5.48-1.17-5.48,4.7-7.83,7.64-1.37,1.57-2.55,3.13-4.9,2.15a4,4,0,0,1-2.15-3.92C589.52,210.77,606.16,193.54,621,193Z"/><path class="a4bfbb80-ebd7-4cf4-8107-baa33a566451" d="M636.12,295.75c-8.22,1.37-11.55-1.37-11.36-9.4a60,60,0,0,0-2.55-17.62c-1.57-6.07-1-10.57,6.07-11.16,5.68-.39,13.12-3.13,14.29,7,0.78,6.66,2.55,13.32,3.52,20C647.29,292.43,646.11,298.69,636.12,295.75Z"/><path class="a4bfbb80-ebd7-4cf4-8107-baa33a566451" d="M467.33,639.41c1.37,7.44-4.7,8.22-8.22,10.57-4.9,3.33-5.87-2-7.44-4.7-5.68-9.59-10.18-20-22.52-22.91-2.35-.59-4.31-2.35-3.33-5.29,0.78-2.74,1.76-4.9,5.48-5.09,7.44-.59,14.1-1.17,19.19,6.46,3.13,4.9,8.22,8.42,12.73,12.34C466,633.54,467.92,636.28,467.33,639.41Z"/><path class="a4bfbb80-ebd7-4cf4-8107-baa33a566451" d="M802.18,370.56c4.7,5.09,9.6,2.15,14.69.39q8.52-2.94,17-5.29c4.11-1,6.66.39,7.25,5.09,0.59,4.31.2,6.85-4.5,7.83s-9.2,2.35-13.9,3.72c-5.48,1.76-10.38,3.33-6.85,11.36,2,4.7,0,10-6.66,9.59-3.92-.2-9.4,4.11-11.55-2-2.15-5.87.59-9.2,7.25-10.77,6.07-1.37,4.5-13.12-2.74-20h0Z"/><path class="a4bfbb80-ebd7-4cf4-8107-baa33a566451" d="M473.6,683.67c-10.38-.39-7.64,7.83-8.81,13.51-0.78,3.52,1,8.81-5.68,7.83-5.87-1-6.85-5.29-5.29-9.79,3.52-9.79,2.55-16.84-9.2-19.58-4.31-1-6.85-4.31-4.9-9,1.76-4.31,5.09-3.72,8.81-2.74,9.79,2.94,19.78,5.48,29.76,8Z"/><path class="a4bfbb80-ebd7-4cf4-8107-baa33a566451" d="M797.08,39.63c-2.74,0-7,.78-5.68-3.52,1.76-5.48-2.55-14.1,6.66-15.86,10.18-2.15,20.56-1.17,30.74-.59,4.9,0.39,5.09,4.5,4.5,8-0.78,5.29-2.15,10.38-9.2,10.18C814.9,37.86,805.9,37.86,797.08,39.63Z"/><path class="a4bfbb80-ebd7-4cf4-8107-baa33a566451" d="M254.48,705.79c0.2,9-6.66,14.29-14.88,11.94a109.62,109.62,0,0,1-13.32-5.09c-13.71-6.66-14.1-8.22-4.5-19.78,0.59-.59.78-1.37,1.37-2,2.74-3.13,5.09-.2,7.25,1,7.83,3.72,15.47,7.44,23.11,11.36C254.48,703.44,254.28,705.2,254.48,705.79Z"/><path class="a4bfbb80-ebd7-4cf4-8107-baa33a566451" d="M691.34,202c0.59-9,5.48-12.53,14.1-10.77,7.44,1.57,18.21-1.17,21.34,5.48,2.15,4.7-5.48,12.92-5.87,20.56l0.2-.2c-9.2-3.72-19-3.52-28.78-3.72C692.13,209.6,693.5,205.68,691.34,202Z"/><path class="a4bfbb80-ebd7-4cf4-8107-baa33a566451" d="M900.48,605.73c0.39,4.5-1.17,7.44-5.48,9.2-5.48,2.15-10.57,5.68-16.06,7.44-3.92,1.37-8.22,9.59-12.14,1.76-2.94-5.87-7.44-14.1,3.92-18.21a171,171,0,0,0,18.21-8.62C898.13,592.81,899.89,598.49,900.48,605.73Z"/><path class="a4bfbb80-ebd7-4cf4-8107-baa33a566451" d="M142.08,496.86c-0.39,2.94-3.13,3.52-4.7,5.09-4.31,3.92-9,7.64-13.12,12.14-3.72,4.11-6.85,6.66-11.75,2-4.5-4.5-8.62-9-2.74-15.08a196.41,196.41,0,0,1,14.49-14.1c2.55-2.15,6.07-6.46,9-3.72C137.19,486.67,139.34,492.16,142.08,496.86Z"/><path class="a4bfbb80-ebd7-4cf4-8107-baa33a566451" d="M269,654.68c0.78-10.18-3.33-18.21-11-24.67-4.11-3.52-5.09-6.85-1-11,3.72-3.52,7.44-4.7,11.36-1a68.53,68.53,0,0,1,7.44,7.64c15.08,19,20.17,21.15-6.85,29h0Z"/><path class="a4bfbb80-ebd7-4cf4-8107-baa33a566451" d="M720.91,217.23c11.16,4.11,22.32,8,34.07,16.45-2.55,1.57-5.29,2.35-6.27,4.11-6.46,11.36-13.51,9.4-24.09,4.31-9.79-4.7-10-9.4-6.27-17.43,1-2.35,1.76-5.09,2.55-7.44h0Z"/><path class="a4bfbb80-ebd7-4cf4-8107-baa33a566451" d="M890.49,388.38c-5.48-.78-11-1.57-16.45-2-5.29-.39-10-1.37-14.1,5.09s-16.45,3.33-19.78-3.92c-1.37-3.13-.39-5.09,2.55-4.7,15.27,1.76,27-10.18,42.1-9.79,7.44,0.2,11.36,2.15,12.53,9C898.32,387.59,895.58,389.55,890.49,388.38Z"/><path class="a4bfbb80-ebd7-4cf4-8107-baa33a566451" d="M523.92,174.15h-3.33c-2-.2-5.29-0.78-4.7-2.35,5.68-12.53-17.43-13.51-10-26.44a61,61,0,0,0,4.5-9.59c1.57-4.7,3.92-8.22,9.4-5.87,4.7,2,8.42,5.09,7,10.77A64.71,64.71,0,0,1,522.94,153c-2.74,6.66-7.44,13.51,5.68,13.12,2.35,0,3.52,2,2.94,4.11C530.58,175.13,526.27,173.76,523.92,174.15Z"/><path class="a4bfbb80-ebd7-4cf4-8107-baa33a566451" d="M239.21,284c-2.55,7.25,1.76,17.43-7,21.54-1.57.78-17.23-.78-15.08-11.16,1.57-7.64-4.9-22.32,12.53-21.74C236.66,272.84,241,275.59,239.21,284Z"/><path class="a4bfbb80-ebd7-4cf4-8107-baa33a566451" d="M560.15,523.68c-3.92,4.9,1.57,11.36-4.5,14.49-1,.39-3.72-0.59-4.11-1.57-2-5.48.39-11,.78-16.45,0.2-2.15,1.57-3.33,3.92-3.72,7.64-1.57,15.27-3.92,22.91-4.5,3.33-.2,10.77-4.7,10.57,4.11-0.2,6.07,1.37,13.71-9.4,14.49C567.78,531.12,568,531.91,560.15,523.68Z"/><path class="a4bfbb80-ebd7-4cf4-8107-baa33a566451" d="M172.24,184.73a18.84,18.84,0,0,1-2.55,3.33l-25.26,20c-3.52,2.74-5.87-.2-8.22-2-3.33-2.55-1.37-4.7.39-7,5.48-6.85,11-13.71,16.25-20.56,3.52-4.7,7.64-3.13,11.75-1.37C167.73,178.46,171.06,180.22,172.24,184.73Z"/><path class="a4bfbb80-ebd7-4cf4-8107-baa33a566451" d="M63.17,389.35c0,2.74.39,5.68-.2,8.42-0.78,3.52,2.94,10-4.9,9-5.48-.78-12.92.39-12.53-8.81,0.2-6.66.39-13.51,1-20.17,0.39-4.11-.59-10,6.27-9.2,5.48,0.78,11.16,2.55,10.77,10.18-0.2,3.52,0,7.25,0,10.77A0.39,0.39,0,0,0,63.17,389.35Z"/><path class="a4bfbb80-ebd7-4cf4-8107-baa33a566451" d="M885.79,291.64c12.53-2.15,18.8,2.55,18.21,15.67-0.2,2.35,1.17,4.7.78,7-0.78,4.31,7,11.16-3.33,12.73-8.62,1.37-13.9-1.37-13.71-11,0-1-1-2.15-1.57-3.13C886.18,305.74,886,298.69,885.79,291.64Z"/><path class="a4bfbb80-ebd7-4cf4-8107-baa33a566451" d="M414.26,80.94c-1.17-1.57-3.13-2.94-3.72-4.7-1.17-3.92-10.18-3.72-6.46-9,4.11-5.68,7.25-14.1,16.84-12.92,9.2,1.17,17.82,1,25.06-6.27,1.37-1.37,4.31-3.33,6.27-1,2.55,3.52-1,4.9-3.33,6.07C437.18,59.8,425.62,66.65,417.59,78,416.61,79,415.44,80,414.26,80.94Z"/><path class="a4bfbb80-ebd7-4cf4-8107-baa33a566451" d="M899.69,64.1c3.72,0,3.92,2.74,4.9,4.7,1.76,3.92,2.55,8.81,5.29,11.75C915,86,914.57,90,908.5,93.48c-2.94,1.76-3.33,9.59-8.42,5.29-6.85-5.87-13.12-13.71-12.14-23.3C888.33,70.37,894.41,66.26,899.69,64.1Z"/><path class="a4bfbb80-ebd7-4cf4-8107-baa33a566451" d="M747.15,389.35v22.52c2.94-5.87,7.64-5.48,12.53-4.31,6.46,1.57,7.83,6.85,10.38,13.71-10.18-1.76-18.6-2.74-27-4.9-3.92-1-10.18-1.76-6.27-9.2,0.59-1-.59-2.94-1-4.5-1.17-4.31-10.57-5.87-5.87-10.77,3.52-3.72,11-4.11,17.23-2.55h0Z"/><path class="a4bfbb80-ebd7-4cf4-8107-baa33a566451" d="M136.21,675.83c-5.09-2.94-3.72-9.2-6.85-13.12-2.74-3.33-1-5.68,2-7.64a83.61,83.61,0,0,0,10.18-8c5.87-5.87,9.79-1.76,13.9,2.15,4.11,4.11,4.31,8-.2,12.14C149.33,666.43,143.45,671.92,136.21,675.83Z"/><path class="a4bfbb80-ebd7-4cf4-8107-baa33a566451" d="M338.48,116.58c5.68-10,12.14-19.58,20.36-27.61,3.13-2.94,5.68-5.48,9.79-1,3.13,3.33,4.7,5.68,1,9.79-6.46,7.44-12.34,15.47-18.21,23.5-3.33,4.5-6.85,4.9-11.16,2.15C339.85,121.09,339.07,118.93,338.48,116.58Z"/><path class="a4bfbb80-ebd7-4cf4-8107-baa33a566451" d="M402.91,24.35c-1.76-9,3.72-9,9-6.85,7.64,2.94,13.71,3.92,18.21-4.9,1.37-2.94,4.11-6.27,8.62-3.52,1.17,0.78,3.52.78,2.94,2.94-1,3.52-3.13,7.64-6.46,8-7.25,1-8.81,4.5-8.42,11,0.59,9.4-4.31,10.18-10.77,5.48C410.94,32.77,399.19,36.3,402.91,24.35Z"/><path class="a4bfbb80-ebd7-4cf4-8107-baa33a566451" d="M772.61,152.42c-12.53,1-8-11.36-12.92-16.45a29.65,29.65,0,0,1-.39-5.87c0.59-3.33-2.74-10.18,2.94-9,5.48,1.17,14.1-5.87,17.23,6.07C782.4,137.73,782.59,146,772.61,152.42Z"/><path class="a4bfbb80-ebd7-4cf4-8107-baa33a566451" d="M283.26,181.4c8.22,17-7,27-12.34,39.75-1.17,2.94-4.9,3.72-8.42,2.74-2.94-.78-3.13-3.33-3.33-5.68-0.59-9.79,14.88-32.9,24.28-36.81h-0.2Z"/><path class="a4bfbb80-ebd7-4cf4-8107-baa33a566451" d="M176.35,170.63c-4.5,1.37-6.46-1.17-7.64-5.09-1.17-4.7,2.35-4.9,5.29-6.07a176.22,176.22,0,0,0,20.17-7.25c4.31-1.76,7.64-1.76,10.57,2.15,2.15,2.94,4.7,5.68,3.92,9.59-1.37,5.48-6.27,3.92-9.79,4.31C191.43,169.45,184,170,176.35,170.63Z"/><path class="a4bfbb80-ebd7-4cf4-8107-baa33a566451" d="M422.49,408.35h23.3c3.72,3.72,13.9,2.15,9.59,12.14-2,4.31-4.11,7.44-9.59,6.27A113.16,113.16,0,0,0,434,425.19c-17-1-17-1-11.94-17Z"/><path class="a4bfbb80-ebd7-4cf4-8107-baa33a566451" d="M644.54,648.22c6.07,2.15,12.92.59,18.6,3.92-0.39,3.33-5.48,7.25,1,10.18-2.35,4.9,1.37,8,3.13,11.75,1.37,2.94,5.87,5.87,1.57,9.2s-8,.2-9.4-3.72c-3.52-10.77-10.38-15.67-21.93-12.92,0.39-8,9-11,7-18.41h0Z"/><path class="a4bfbb80-ebd7-4cf4-8107-baa33a566451" d="M684.49,393.27l11.16-12.34c4.9-1.17,10-2.15,14.88-3.33,4.11-1,7.83-2,9.4,3.72,1.37,4.9,1.37,10.18-3.92,12.14-8.42,3.13-17.23,4.9-25.85,6.85C684.49,401.49,686.06,395.82,684.49,393.27Z"/><path class="a4bfbb80-ebd7-4cf4-8107-baa33a566451" d="M1007.59,322.39c1,4.5-.59,6.27-3.92,6.85a128.46,128.46,0,0,0-28.2,9.2c-2.74,1.37-5.48,1.57-7-1.76-1.76-3.52-2-7.25,1.57-9.59,10.18-6.66,21.74-9.79,33.68-11C1009,315.92,1006.61,321,1007.59,322.39Z"/><path class="a4bfbb80-ebd7-4cf4-8107-baa33a566451" d="M321.64,533.67c4.9-1.37,9.79-2.74,14.88-3.92,14.1-3.13,13.71-3.13,13.9,11.55,0,4.9-1,7-6.07,7.83-5.48.78-10.77,2.55-16.06,3.92C330.26,545.22,320.86,541.31,321.64,533.67Z"/><path class="a4bfbb80-ebd7-4cf4-8107-baa33a566451" d="M28.7,658.6c-2.35,0-4.7.2-7.25,0-3.52-.39-7.44-0.59-6.66-6.07,0.59-4.11.59-7.64,6.66-7.64,7,0,14.29-1.17,21.34-2,3.92-.39,8.22-1.76,8.62,4.7,0.2,4.5.2,9-5.87,9.79L28.9,659.19A0.72,0.72,0,0,0,28.7,658.6Z"/><path class="a4bfbb80-ebd7-4cf4-8107-baa33a566451" d="M468.7,3.21c-2.55-6.27-4.9-11.75-7-17.23-2.94-7.44,3.52-10.38,7.44-14.49,4.31-4.31,8.62-2.55,12.73.59,4.9,3.92,7.25,8.22,1.76,13.71C478.49-8.94,474.18-3.26,468.7,3.21Z"/><path class="a4bfbb80-ebd7-4cf4-8107-baa33a566451" d="M754.79,746.33c5.09,1.76,10.77,3.72,7.64,11.94-1.76,4.5-2.74,9.2-5.09,13.32-1.76,3.13-2,10.38-8.42,6.27-4.31-2.74-13.71-3.92-7.25-13.51,2.55-3.92,3.72-8.62,5.29-13.12C748.52,747.89,749.7,745.35,754.79,746.33Z"/><path class="a4bfbb80-ebd7-4cf4-8107-baa33a566451" d="M823.72,617.48c-7-.2-13.51-1.17-8.42-11.55,1.76-3.72,2.15-8.22,3.33-12.34,1.37-4.5,2.35-10.18,9-7.64,5.29,2,12.14,3.52,8.81,12.34a56.93,56.93,0,0,0-3.52,12.53C832.53,616.3,829.39,618.07,823.72,617.48Z"/><path class="a4bfbb80-ebd7-4cf4-8107-baa33a566451" d="M379.21,219.58c10.57,0.2,21.34,8.22,23.5,18.6,1.17,4.9-2.74,6.46-7,5.09-7.25-2.15-14.29-4.9-21.54-7.25-4.11-1.37-3.92-4.31-2-6.46C375.1,226.63,371.77,219.19,379.21,219.58Z"/><path class="a4bfbb80-ebd7-4cf4-8107-baa33a566451" d="M479.47,506.45c2-4.5.59-8.81-1.37-12.53-3.72-7.25-1.17-10.57,5.48-13.71,7.64-3.33,9.79,1.17,11.94,6.66,0.59,1.57,1.17,2.94,1.76,4.5,3.52,8.42,5.87,16.25-8.22,15.67-1.37,0-2.74,1.37-4.11,2.15l-2.94-.59c-0.39-1.37-1-2.55-2.55-2.15h0Z"/><path class="a4bfbb80-ebd7-4cf4-8107-baa33a566451" d="M311.27,366.44c-0.78,1.37-2,4.7-3.52,4.9-6.07,1-14.88-.78-16.25-4.31-3.33-7.44-11.75-10.57-13.12-19-0.59-3.33-1.37-6.27,2.35-8,3.72-2,4.9,1,6.27,3.33,5.09,7.83,10,16.06,21,17.23C310.09,360.77,312,362.53,311.27,366.44Z"/><path class="a4bfbb80-ebd7-4cf4-8107-baa33a566451" d="M560.54,478.45c7.25,0.59,12.73.78,18.21,1.76,4.5,1,11.55-3.33,13.12,3.52,1,3.92,2.15,11.16-2.35,12.92-5.87,2.35-13.32,3.72-19.19-.78C564.85,492,560.54,486.87,560.54,478.45Z"/><path class="a4bfbb80-ebd7-4cf4-8107-baa33a566451" d="M28.51,365.27c0.2,4.5-14.1,24.48-16.84,25.46-3.33,1.17-5.29-.78-7-2.94-2.35-2.74-4.31-5.68-1.57-9.59,3.52-5.09,6.85-10.57,10.57-15.67,1.57-2.35,2.35-7.25,6.46-5.09C23.42,359.39,26.16,363.11,28.51,365.27Z"/><path class="a4bfbb80-ebd7-4cf4-8107-baa33a566451" d="M657.66,232.51c11.55,0.78,22.71-8,29.37,6.85,2.74,6.07.78,10-3.92,13.12-5.09,3.52-9.2,3.13-12.92-2.74C667.06,244.45,662.76,239.56,657.66,232.51Z"/><path class="a4bfbb80-ebd7-4cf4-8107-baa33a566451" d="M308.72,539.15a28.65,28.65,0,0,0-14.1-.2c-8.22,1.37-9.79-5.29-12.14-10.57-2.74-5.87,1.76-9,5.68-11.36,4.7-2.94,8.62-2.74,11.75,2.94,2.74,5.29,6.66,10,10,14.88C309.5,536.22,309.11,537.78,308.72,539.15Z"/><path class="a4bfbb80-ebd7-4cf4-8107-baa33a566451" d="M587.17,354.69c3.92,0,5.68,2.55,7.25,5.29,1.76,3.52-.78,4.7-3.13,6.27-9.4,5.87-19,11.16-29.76,13.9-2.15.59-4.5,2.15-5.87-1-0.78-1.57-.59-3.52.78-4.11,10.18-4.31,15.47-15.47,26.44-18.8A28,28,0,0,0,587.17,354.69Z"/><path class="a4bfbb80-ebd7-4cf4-8107-baa33a566451" d="M811,183.75c-6.66-18-6.27-17.62,7-27,6.85-4.7,9.79-1.17,13.71,3.13,5.09,5.68,2,8.81-2.94,12.14C822.93,175.72,817.06,179.64,811,183.75Z"/><path class="a4bfbb80-ebd7-4cf4-8107-baa33a566451" d="M691.93,746.13c-8.22,1.17-7.64-5.87-6.85-10,2.35-12.34,14.1-5.29,21.15-8.62,5.48-2.55,6.46,4.31,6.85,8.22C713.47,742.41,704.86,746.52,691.93,746.13Z"/><path class="a4bfbb80-ebd7-4cf4-8107-baa33a566451" d="M669.61,637.45c-7.83-8.81,1.76-11.94,5.09-17.62,4.31-6.85,7.83-11.55,17.23-6.66,4.9,2.55,6.07,4.11,3.52,8.42-3.33,5.68-5.87,12.14-12.92,14.49C677.83,634.32,673.72,636.87,669.61,637.45Z"/><path class="a4bfbb80-ebd7-4cf4-8107-baa33a566451" d="M820.58,484.32h0c0.39-9,6.66-12.73,14.1-12.53,6.66,0,14.88,16.25,12.92,22.91h0c-7.83,3.52-14.69,3.33-19.58-5.09C826.46,487.07,824.11,484.52,820.58,484.32Z"/><path class="a4bfbb80-ebd7-4cf4-8107-baa33a566451" d="M147,11.23A52.11,52.11,0,0,1,131.9,2.81c-6.07-5.09.78-7,1.76-10.18,1.37-4.11,3.52-5.87,7.83-2.94a77.13,77.13,0,0,0,12.34,7c3.72,1.76,7.44,3.13,5.48,8.62C157.75,9.86,154.61,12.41,147,11.23Z"/><path class="a4bfbb80-ebd7-4cf4-8107-baa33a566451" d="M811.77,280.09c7,2.55,13.9,4.7,17.62-5.09,0.39-1,6.85-3.52,10.77-1.57a4.43,4.43,0,0,1,2.15,3.72c-0.2,4.5-4.5,5.09-7.44,6.66-3.13,1.57-7.83,1.37-9,5.09-3.33,10-9.79,6.85-16.25,4.7-2.94-1-6.66-1.57-5.48-6.07C805.11,283.61,807.07,280.28,811.77,280.09Z"/><path class="a4bfbb80-ebd7-4cf4-8107-baa33a566451" d="M245.08,523.1c-7.83-3.13-13.9-5.29-16.64,7-1,4.9-10.57,2.74-16.45,2.15-1.76-.2-1.76-2.15-1.17-3.92,0.78-2,2.15-4.11,4.11-3.33,11.75,3.52,14.69-3.92,17-12.92,1.37-4.7,4.5-7,10-4.5,4.5,2.15,10.18,2,10,9.4C252.13,522.12,250.76,524.66,245.08,523.1Z"/><path class="a4bfbb80-ebd7-4cf4-8107-baa33a566451" d="M547,265c-5.87-17.62-4.5-23.69,5.68-27.61,6.27-2.55,9.79,1,12.73,5.48,2.94,4.7,1.17,7.83-3.13,10.77C556.82,257.18,552.12,261.09,547,265Z"/><path class="a4bfbb80-ebd7-4cf4-8107-baa33a566451" d="M615,702.66c2.74-.39,4.11,1.76,5.48,3.72,2,2.55.2,4.31-1.57,6.07-4.5,4.9-9.2,9.79-13.71,14.69-2.55,2.94-5.48,4.7-9.4,2.55-3.13-1.57-7.25-3.13-7.64-6.85-0.59-4.31,4.11-5.09,7-7C601.66,711.47,608.12,707,615,702.66Z"/><path class="a4bfbb80-ebd7-4cf4-8107-baa33a566451" d="M786.31,603.58c-2.55.39-2.94-3.13-2.94-5.48,0-3.52-5.68-6.46-.59-10.57,7.44-5.87,19.19-6.27,26.44-.2,3.33,2.74,5.09,5.87,0,8C802.18,598.49,794.93,600.64,786.31,603.58Z"/><path class="a4bfbb80-ebd7-4cf4-8107-baa33a566451" d="M201,728.12c2,9-2.74,8.81-7.25,9.6-4.31.59-7.44,2.55-9.4-4.31-2.94-10.18-1.37-17.82,7.25-24.09,4.7-3.52,7-2.35,7.64,3.52C199.85,718.52,200.63,724.39,201,728.12Z"/><path class="a4bfbb80-ebd7-4cf4-8107-baa33a566451" d="M250,583.41c-5.29-7-11.16-11.55-11-18.41,0.2-5.09,1-11.55,7-13.9,2.35-1,16.25,17.23,15.67,21.34C260.55,578.9,251.35,575,250,583.41Z"/><path class="a4bfbb80-ebd7-4cf4-8107-baa33a566451" d="M570.53,579.1c-0.2-6.66-4.5-14.88,6.46-17.23,5.68-1.17,9.6-.2,7.83,7.25-1.37,6.66-2.35,13.32-3.33,20-0.59,4.11-1,8.22-6.66,7.83-5.48-.39-4.11-4.9-4.5-8.22C570.33,585.37,570.53,582.23,570.53,579.1Z"/><path class="a4bfbb80-ebd7-4cf4-8107-baa33a566451" d="M669.41,111.1c-1.37,2-2.74,4.5-4.5,6.66-2.15,2.55-4.11.78-6.27-.39-5.87-3.33-11.75-6.66-17.62-9.79-2.35-1.17-6.07-1.37-5.09-5.29a12.43,12.43,0,0,1,6.66-8C645.91,93.08,669,107.58,669.41,111.1Z"/><path class="a4bfbb80-ebd7-4cf4-8107-baa33a566451" d="M325.76,463.57A13.71,13.71,0,0,1,323,466.7c-6.46,4.11-12.73,8.22-19.39,11.75-5.68,3.13-9.2-1.17-11.55-5.09-3.13-5.29,2.74-6.07,5.29-7.25,6.66-3.33,13.9-5.68,21-8.42C323,455.93,324.39,459.06,325.76,463.57Z"/><path class="a4bfbb80-ebd7-4cf4-8107-baa33a566451" d="M851.72,458.67c-0.59,3.72-2.35,6.85-5.48,8.62-4.11,2.35-5.48-1.37-7.25-3.72-4.11-5.87-8-11.75-11.94-17.62-1.37-2-2.74-3.92-.78-6.27,1.17-1.57,2.55-2.94,4.9-2.74C834.09,437.33,851.72,455.74,851.72,458.67Z"/><path class="a4bfbb80-ebd7-4cf4-8107-baa33a566451" d="M262.12,678.57c-1-10.57,3.92-13.32,10.18-14.49,8.42-1.57,6.85,5.29,6.27,9.2-0.59,6.07,10,14.49-4.9,18.6-7,2-8.62,1.57-9.79-4.5C263.1,683.47,262.31,679.75,262.12,678.57Z"/><path class="a4bfbb80-ebd7-4cf4-8107-baa33a566451" d="M976.26,430.48c-2.55,3.92-3.52,9.59-10.57,5.87-5.87-3.13-12.34-5.09-18.6-7.64-2.35-1-5.87-1.37-5.09-5.29,0.78-3.52,2.35-8,6.27-7.44,10,1.17,18.6,5.87,26.63,11.75C975.86,428.13,975.86,429.69,976.26,430.48Z"/><path class="a4bfbb80-ebd7-4cf4-8107-baa33a566451" d="M878,240.53a30.67,30.67,0,0,1-4.11-3.33c-2-2.55-1-5.29.78-7.64a78.47,78.47,0,0,1,19.78-18.8c2-1.37,4.11-3.13,5.87.2,1.17,2.15,5.09,4.31,2.55,7-7,7.44-14.69,14.49-22.13,21.54C880.31,239.95,879.52,239.95,878,240.53Z"/><path class="a4bfbb80-ebd7-4cf4-8107-baa33a566451" d="M179.09,398.17c8.22,5.48,16.64,10.77,24.48,16.64,2,1.57-.59,4.31-2.35,5.87-2.15,2.15-4.31,4.9-8,2.35-6.46-4.7-12.92-9.2-19.19-14.1-2-1.37-3.52-3.52-1.17-6.07C174.39,400.91,175.76,398.17,179.09,398.17Z"/><path class="a4bfbb80-ebd7-4cf4-8107-baa33a566451" d="M885.79,291.64c0.2,7,.2,14.29.39,21.34-3.72-1-7.64-2.55-11.36-2.74-10.18-.2-13.32-3.72-10.57-14.1,1.37-5.29,2.55-6.27,7.44-5.48C876.39,291.45,881.09,291.25,885.79,291.64Z"/><path class="a4bfbb80-ebd7-4cf4-8107-baa33a566451" d="M385.48,693.06c-5.48.2-6.46-4.5-8.62-7.64-0.2-2.94-4.5-6.66.78-9,6.85-2.94,13.71-7.25,21.15-3.72,3.92,1.76,5.87,6.27,6.07,10.77,0.2,3.92-2.94,3.92-5.87,4.31C394.1,688.56,388.81,688,385.48,693.06Z"/><path class="a4bfbb80-ebd7-4cf4-8107-baa33a566451" d="M801.59,332c-5.87-11.94-.78-18,10-22.52,6.46-2.74,8.62.39,11.36,4.5,3.52,5.09,0,6.85-3.72,8.81C813.34,325.91,807.46,329,801.59,332Z"/><path class="a4bfbb80-ebd7-4cf4-8107-baa33a566451" d="M797.87,113.45c2.74-5.68,2.55-14.88,11.55-16.45,2.35-.39,12.14,1.76,9.79,6.85-3.33,6.66-2.15,17.82-12.34,19.39C802.18,123.83,797.48,120.5,797.87,113.45Z"/><path class="a4bfbb80-ebd7-4cf4-8107-baa33a566451" d="M575.62,64.3c-0.59-4.5,1-6.66,5.68-6.85,4.31-.2,7.83-0.2,8.22,5.68s1.37,11.75,2.35,17.62c1,6.07-3.33,7.44-7.44,8.81-6.27,2.15-5.09-3.72-5.68-6.27C577,76.83,576.4,70.57,575.62,64.3Z"/><path class="a4bfbb80-ebd7-4cf4-8107-baa33a566451" d="M462.63,233.29c0,4.31.2,8.81-3.92,10.77-5.09,2.55-4.5-4.11-7.44-5.68a57.74,57.74,0,0,1-10.38-7.83c-3.52-3.13-3.13-6.85-.2-10.57,3.33-4.31,6.66-2,9,.59C453.62,225.06,463,224.48,462.63,233.29Z"/><path class="a4bfbb80-ebd7-4cf4-8107-baa33a566451" d="M669.61,637.45c4.31-.59,8.42-3.13,12.92-1.37,0,2.74.2,5.48,0,8.22-1.17,15.08-3.33,17-18.21,18-6.46-2.74-1.17-6.66-1-10.18C667.26,648.22,663.34,640.59,669.61,637.45Z"/><path class="a4bfbb80-ebd7-4cf4-8107-baa33a566451" d="M303.43,402.47c-0.78,2.55-2,5.09-2.55,7.64-0.59,2.94-1,5.29-4.9,4.7-3.13-.39-5.09-1.76-5.29-5.09-0.59-7.44-1.37-14.88-2.15-22.32-0.39-3.33.59-5.68,4.31-5.68,3.13,0,6.85-.2,7,4.31A56.35,56.35,0,0,0,303.43,402.47Z"/><path class="a4bfbb80-ebd7-4cf4-8107-baa33a566451" d="M776.52,320.82c1,4.5-2.74,4.31-5.09,4.5-3.13.2-6.46,5.48-9.2,0-1.76-3.52-4.11-7.44-3.92-11,0.2-6.46,3.52-13.9,9.79-14.88,5.09-.78,4.11,7,5.48,11.16C774.57,314,775.54,317.49,776.52,320.82Z"/><path class="a4bfbb80-ebd7-4cf4-8107-baa33a566451" d="M316.94,337.46c0.2,3.13-3.13,4.31-6.85,4.7-5.68.59-17-11.16-16.45-18,0.59-7.25,7.83-2.74,11.36-5.68C306.37,317.29,316.55,331.59,316.94,337.46Z"/><path class="a4bfbb80-ebd7-4cf4-8107-baa33a566451" d="M264.27,89.76c0-4.9-.59-8.42,4.7-9,5.48-.78,6.66,1.76,7.44,6.27,0.78,5.48,2.55,10.77,3.92,16.06,0.78,3.13,2,6.27-2.55,7.64-4.11,1.17-8,1.37-9.4-3.92C266.82,100.53,265.44,94.46,264.27,89.76Z"/><path class="a4bfbb80-ebd7-4cf4-8107-baa33a566451" d="M958.24,623.75c-11-2.35-7-13.32-10.18-20.17-2.55-5.48,3.52-6.66,7-6.07,11.36,1.37,9,12.14,11.36,19.19C968.42,622.18,964.31,624.53,958.24,623.75Z"/><path class="a4bfbb80-ebd7-4cf4-8107-baa33a566451" d="M572.88,612.58c0.2,4.7-12.53,12.73-19.78,12.53a6,6,0,0,1-6.27-7c2-11.16,12.73-9.79,20.36-12.53C573.66,603.18,572.09,609.45,572.88,612.58Z"/><path class="a4bfbb80-ebd7-4cf4-8107-baa33a566451" d="M492.59,764.54c-7.25,1.57-7.83-1.37-8.22-6.27-1.17-12.34,9-10,15.27-11.75,6.46-1.76,8.62,4.5,8,8.81C506.3,765.12,496.9,762.38,492.59,764.54Z"/><path class="a4bfbb80-ebd7-4cf4-8107-baa33a566451" d="M161.66,582.62c-3.33-4.9-5.87-8.42-8.22-11.94-3.92-6.07-.39-10.57,3.72-14.49,3.72-3.72,7.83-2.55,11.75.39,5.29,4.31,2.15,8.22-.2,12.34S164.4,577.34,161.66,582.62Z"/><path class="a4bfbb80-ebd7-4cf4-8107-baa33a566451" d="M631.62,544.64c5.68-2.74,9.79-1.57,12.34,4.5,1.76,4.31,4.7,8.42,6.07,12.92,1,3.52,7.25,8.22-1,11.55-6.46,2.55-8.22-1.57-10-6.27-1.37-3.52-2.35-7.64-6.46-9.59C641.8,552.86,631.23,549.14,631.62,544.64Z"/><path class="a4bfbb80-ebd7-4cf4-8107-baa33a566451" d="M15,564.81c1.57,11.94-8.62,9.59-15.08,11.55-6.07,1.76-8.22-3.92-8-7.64,0.78-10.77,11-7.83,17.43-10C14.21,557,16,559.91,15,564.81Z"/><path class="a4bfbb80-ebd7-4cf4-8107-baa33a566451" d="M568.57,301c-3.13-2-10,3.72-10.18-4.9-0.2-9.59,5.68-11.16,13.9-11.55,6.66-.2,9.79,2,9.79,8.42C581.88,302.8,574.05,299.87,568.57,301Z"/><path class="a4bfbb80-ebd7-4cf4-8107-baa33a566451" d="M134.64,236.81c-4.11-1.17-11.16,4.31-11.55-5.29-0.39-8.42,6.07-8.62,11.55-8.22,5.87,0.59,16.06-4.5,16.84,4.9C152.65,240.93,140.71,234.66,134.64,236.81Z"/><path class="a4bfbb80-ebd7-4cf4-8107-baa33a566451" d="M530.58,124.61c3.13-7.64-1.37-19.58,13.32-21.54,6.07-.78,5.29,1.57,4.11,4.7-2.74,7-6.27,13.71-9.2,20.76-1.17,2.55-2.74,3.72-5.48,3.13C529.21,130.49,530,127.55,530.58,124.61Z"/><path class="a4bfbb80-ebd7-4cf4-8107-baa33a566451" d="M730.12,673.09c6.46,4.7,15.47,7,20.36,14.49,2,2.94,0,7-2.94,9.4-3.13,2.55-5.09-.39-7-2.15-4.7-4.31-9.2-8.81-13.71-13.12-1.37-1.37-2.94-2.74-1.76-5.09A5.3,5.3,0,0,1,730.12,673.09Z"/><path class="a4bfbb80-ebd7-4cf4-8107-baa33a566451" d="M216.3,197.26c-7.64-2.55-17.62-.78-18.6-12.92-0.59-5.87,2.15-9,7.44-10,5.09-1,8.42.78,8.81,6.66C214.53,186.29,218.25,191.19,216.3,197.26Z"/><path class="a4bfbb80-ebd7-4cf4-8107-baa33a566451" d="M597.16,774.33c-9.4,10.57-16.25,8-23.5-.39-4.11-4.7-2.35-9.4,1.37-11.16C587,756.9,589.13,770.41,597.16,774.33Z"/><path class="a4bfbb80-ebd7-4cf4-8107-baa33a566451" d="M245.08,482.56c-6.27,7.64-12.34,15.08-18.6,22.71-1.57,2-3.13,3.72-5.87,2-2.35-1.57-4.5-3.52-2.74-6.85a64.25,64.25,0,0,1,16.64-19.58c4.7-3.52,6.66,4.31,10.57,1.76h0Z"/><path class="a4bfbb80-ebd7-4cf4-8107-baa33a566451" d="M720.91,514.48l0.2-.39c3.13-4.11,4.9-9.79,12.53-5.09,8.22,4.9,1.76,8.42.2,12.34-2.74,6.66-4.9,16.64-14.88,7.25C713.86,524.08,720.32,519.38,720.91,514.48Z"/><path class="a4bfbb80-ebd7-4cf4-8107-baa33a566451" d="M473.6,683.67c1.57-3.92,3.13-7.64,4.7-11.55,2-4.11.59-11.36,9-9,7.44,2.15,5.48,7.25,4.31,12.53C488.28,691.89,487.5,692.28,473.6,683.67Z"/><path class="a4bfbb80-ebd7-4cf4-8107-baa33a566451" d="M632,760.82c-2.74.2-5.68,0.59-6.46-3.33-0.59-3.33,1-5.29,4.11-6.27,6.07-1.76,12.14-3.52,18.41-5.09,4.7-1.17,7.83,1.37,9,5.68,1.57,5.09-3.33,6.27-6.27,6.85C644.74,760,638.28,760.23,632,760.82Z"/><path class="a4bfbb80-ebd7-4cf4-8107-baa33a566451" d="M31.84,176.11c-2.35,3.72,2,12.92-7.44,13.32-3.13.2-10.18-1.17-7.44-7.64,2.55-5.87-2.15-15.86,7.83-17.43C31.84,163.19,32.82,169.06,31.84,176.11Z"/><path class="a4bfbb80-ebd7-4cf4-8107-baa33a566451" d="M844.08,674.46c0.2,3.72-2.35,4.31-4.5,5.09-5.87,2.55-11.75,4.9-17.62,7.44-2.94,1.37-5.48,1-7.44-1.76-2.35-3.52.59-4.9,2.94-6.46,4.5-3.33,8.81-6.66,13.51-9.79C838.21,664.67,840.95,670.55,844.08,674.46Z"/><path class="a4bfbb80-ebd7-4cf4-8107-baa33a566451" d="M96.06,249.54c2.35-.2,4.9-0.59,5.09,2.94,0.2,2.94-10,21.54-11.36,20.76-3.52-1.76-9-1.57-10-6.66C78.64,258.55,87.25,249.93,96.06,249.54Z"/><path class="a4bfbb80-ebd7-4cf4-8107-baa33a566451" d="M874.43,408.15c-0.78-5.09-7-5.87-4.9-11.94,5.68,1.76,14.1,4.7,12.73,9.4-1.57,5.09-3.92,13.71-12.34,14.88-3.13.39-6.27,1.17-9.4,1.57-2.35.2-4.9,1-5.68-2.55-0.59-3.13,0-5.48,3.72-6.07C864.05,412.46,869.54,411.29,874.43,408.15Z"/><path class="a4bfbb80-ebd7-4cf4-8107-baa33a566451" d="M636.71,380.15c-1,4.7-4.9,6.27-8,8.22-1.57,1-17.23-13.32-16.64-15.27,1.17-3.92,3.92-8,8.22-7C627.9,367.81,632.4,374.08,636.71,380.15Z"/><path class="a4bfbb80-ebd7-4cf4-8107-baa33a566451" d="M194.76,226.44a9.57,9.57,0,0,1-4.7-11.36c2.35-7.25,10.38-9,16.64-10.38,4.7-1,5.87,4.9,4.9,8.62C209,221.34,200.83,222.71,194.76,226.44Z"/><path class="a4bfbb80-ebd7-4cf4-8107-baa33a566451" d="M426.41,148.3c-9.4,1.17-17.82,5.87-23.89-4.9-2.74-4.9-1.57-8.22,2.55-11.36s7.83-2.94,11,1.76C419,138.51,422.29,142.82,426.41,148.3Z"/><path class="a4bfbb80-ebd7-4cf4-8107-baa33a566451" d="M298.34,505.28a9.41,9.41,0,0,1-.78,2.94c-0.78,1.37-26.83,8-28.39,7-3.72-2.74-4.31-6.07-.2-8.42,7.64-4.5,16.45-5.68,25.06-6.85C297.56,499.6,297.75,502.73,298.34,505.28Z"/><path class="a4bfbb80-ebd7-4cf4-8107-baa33a566451" d="M97,316.31c3.52-.2,21.74,14.88,22.52,17.62,0.78,2.94-1.57,4.11-3.13,5.68-2.55,2.55-4.7,2.35-6.85-.2a69,69,0,0,0-14.88-13.32c-2-1.37-4.11-3.13-2.15-5.68C93.71,318.47,95.87,317.29,97,316.31Z"/><path class="a4bfbb80-ebd7-4cf4-8107-baa33a566451" d="M949.63,556.58c2.55,0.39,6.66-1,6.85,2.74,0.39,6.46-1.17,12.92-5.87,17.43-3.33,3.13-8.62,2.74-12.34.39-4.5-2.74-.59-6.46.78-9.2C941.4,563.24,940.23,554.82,949.63,556.58Z"/><path class="a4bfbb80-ebd7-4cf4-8107-baa33a566451" d="M449.71,365.27h0c-1.76-3.72-4.11-7.64-5.29-11.55-1-2.94-6.85-7-.2-9.59,4.5-1.76,9.79-4.5,14.1,2.94C466.16,360.77,461.65,364.88,449.71,365.27Z"/><path class="a4bfbb80-ebd7-4cf4-8107-baa33a566451" d="M498.07,54.51c-5.68-1.76-9.59-4.31-8.62-9.4,1.17-6.27,1.76-13.9,8.42-16.84,1.76-.78,10,4.5,9.2,8.62C506.1,43.35,503.36,50.2,498.07,54.51Z"/><path class="a4bfbb80-ebd7-4cf4-8107-baa33a566451" d="M631.62,544.64c-0.59,4.5,10.18,8.22.78,13.12-8,5.29-10.38-2.74-13.71-6.66-5.68-6.66-.39-12.34,2.55-18.21C626.72,535.63,627.31,541.7,631.62,544.64Z"/><path class="a4bfbb80-ebd7-4cf4-8107-baa33a566451" d="M414.26,80.94L417.79,78c9.4,1.17,18.21,16.25,14.29,24.28-1.37,2.74-3.72,2.55-6.07,2.55A6.56,6.56,0,0,1,419.55,99C418.77,92.69,417.59,86.43,414.26,80.94Z"/><path class="a4bfbb80-ebd7-4cf4-8107-baa33a566451" d="M213.16,318.08c-5.09,6.46-10.18,12.53-17.43,16.06-2,1-3.72-1-4.7-2.74-1.37-2.55-2.15-5.29,0-7.83,4.11-4.31,8.22-8.62,12.53-12.73,1.57-1.76,3.52-2,5.09,0A50.94,50.94,0,0,1,213.16,318.08Z"/><path class="a4bfbb80-ebd7-4cf4-8107-baa33a566451" d="M524.7,621.2c-5.09-.39-9.2.78-9.6-4.7-0.39-4.9,2.35-6.07,6.46-6.46,4.31-.59,8.42-1.76,12.73-2.74,2.94-.59,6.27-2.74,7.64,2.15,1.17,3.92.59,7.44-3.72,8.81C533.32,619.63,528.23,620.42,524.7,621.2Z"/><path class="a4bfbb80-ebd7-4cf4-8107-baa33a566451" d="M270.34,405.41c-4.7,4.11-7.83,6.46-10.38,9.4-4.7,5.29-9.4,2.55-13.9.2-4.31-2.55-2.94-6.66-1.57-10.57,2.35-6.27,6.85-3.52,11-2.55C259.57,403.06,263.88,403.84,270.34,405.41Z"/><path class="a4bfbb80-ebd7-4cf4-8107-baa33a566451" d="M847.61,494.7c2.35,0,4.7-.2,7,0,6.27,0.78,12.14,2.35,10.18,10.77s-7.25,6.46-12.73,4.11c-3.52-1.57-8-.2-10.77-3.72,0.78-4.5,8.62-5.09,6.27-11.16h0Z"/><path class="a4bfbb80-ebd7-4cf4-8107-baa33a566451" d="M204.74,127.74c3.52,2.35,11.75-6.27,12.14,4.7,0.39,6.66-4.9,6.66-9.2,5.87-5.87-1.17-15.86,3.92-16.45-6.07C190.84,123.24,199.85,129.51,204.74,127.74Z"/><path class="a4bfbb80-ebd7-4cf4-8107-baa33a566451" d="M686.64,278.52c-5.48,2-11,2-11.36-5.09-0.59-8.22,5.68-13.12,11.94-15.86,5.87-2.55,6.27,4.9,7.44,7.83,2.35,6.07-6.46,6.85-7.25,11.94A6.11,6.11,0,0,0,686.64,278.52Z"/><path class="a4bfbb80-ebd7-4cf4-8107-baa33a566451" d="M991.14,395c-1,4.11,2,10.38-6.85,10.57-10.57.2-6.85-7.25-7.25-12.34-0.39-4.9-1.57-11,6.66-10.77C992.12,382.89,990.55,389.55,991.14,395Z"/><path class="a4bfbb80-ebd7-4cf4-8107-baa33a566451" d="M308.72,539.15c0.39-1.57.78-2.94,1.17-4.5,3.92-1.37,7.64-3.92,11.94-1.17-0.78,7.44,8.42,11.55,6.85,19.39C316.94,558.73,316.94,558.73,308.72,539.15Z"/><path class="a4bfbb80-ebd7-4cf4-8107-baa33a566451" d="M170.67,332.57c5.68,2.55,11,6.66,12.53,12.73,1,3.72-2.55,7.44-7.25,8-3.13.39-15.86-11.36-15.08-14.1C162.25,335.11,166.95,335.11,170.67,332.57Z"/><path class="a4bfbb80-ebd7-4cf4-8107-baa33a566451" d="M446.57,255.61c3.13,1.57,9.2.78,7.64,5.68-2.15,6.66-5.48,13.9-12.73,15.86-2.74.78-7.64-5.09-6.46-8.42C436.78,263.25,439.13,256.59,446.57,255.61Z"/><path class="a4bfbb80-ebd7-4cf4-8107-baa33a566451" d="M527.25,257.77c-7.44,4.7-23.89,1-27.81-6.27-1-1.57-1.17-2.94.2-4.11,1.57-1.57,3.72-5.09,5.48-3.52,6.46,5.87,18.41,3.52,22.13,13.9h0Z"/><path class="a4bfbb80-ebd7-4cf4-8107-baa33a566451" d="M110.95,213.51C102.13,211,93.13,211,93.52,199c0.2-4.9,2.94-7.25,7.25-8,4.9-.78,7.44,1.57,7.83,6.46C109.18,202.55,110,207.64,110.95,213.51Z"/><path class="a4bfbb80-ebd7-4cf4-8107-baa33a566451" d="M482,508.61l2.94,0.59c-1.57,7.44-7.64,11.55-12.73,16.25-2.94,2.74-5.87,1.37-8.22-1.17-2.55-2.55-2-5.09.59-7,4.7-3.92,6.27-12.34,14.88-10.77h-0.2C479.28,508.21,480.65,508.41,482,508.61Z"/><path class="a4bfbb80-ebd7-4cf4-8107-baa33a566451" d="M510.21,659.38c4.9,0.2,11.55-1.37,11.55,6.46,0,8.22-6.85,7.64-12.34,7.44-4.7-.2-11,2-11-6.66C498.47,656.84,505.12,659.78,510.21,659.38Z"/><path class="a4bfbb80-ebd7-4cf4-8107-baa33a566451" d="M379.61,360.77c6.27,3.33,11.36,7.44,13.12,13.32,1,3.13-2.35,8.62-6.85,7.83-6.85-1.17-11.94-7-14.29-12.73C369.23,363.31,378,365.27,379.61,360.77Z"/><path class="a4bfbb80-ebd7-4cf4-8107-baa33a566451" d="M741.08,133.23c-7.83,6.46-11.55,15.47-21.74,9.59-3.72-2.15-5.29-4.5-4.11-8.62,1-4.31,3.92-5.87,8-5.09C728.55,129.9,733.64,131.46,741.08,133.23Z"/><path class="a4bfbb80-ebd7-4cf4-8107-baa33a566451" d="M595.39,591c4.31,4.31,11.55,6.46,12.14,13.51,0.2,3.72-2.74,8.62-7.44,7.25-6.66-1.76-12.53-6.85-14.49-13.12C584.43,595,591.67,593.79,595.39,591Z"/><path class="a4bfbb80-ebd7-4cf4-8107-baa33a566451" d="M644.54,217c-4.31,3.52,3.92,13.9-7.44,14.49-8,.39-7-5.48-6.85-10.57,0.2-7.44,5.87-10.38,11.36-11.36C646.7,208.81,643.76,213.9,644.54,217Z"/><path class="a4bfbb80-ebd7-4cf4-8107-baa33a566451" d="M192.41,448.88c3.92-6.46,3.33-17.62,15.86-14.88,5.87,1.17,7.44,5.68,5.87,9.79C209.64,454.56,199.65,446.53,192.41,448.88Z"/><path class="a4bfbb80-ebd7-4cf4-8107-baa33a566451" d="M317.92,30c-6.46,5.87-8,15.08-18.21,12.53-5.48-1.37-8.22-4.11-7.25-10,1-5.68,4.7-6.66,9.59-5.68C306.76,27.68,311.27,28.66,317.92,30Z"/><path class="a4bfbb80-ebd7-4cf4-8107-baa33a566451" d="M861.7,242.1c0.39,7.25-.2,13.32-8.42,13.51-7.83.39-5.48-5.87-5.87-10-0.78-6.85.2-12.73,9-12.73C864.45,232.7,860.53,239.36,861.7,242.1Z"/><path class="a4bfbb80-ebd7-4cf4-8107-baa33a566451" d="M599.11,273.43c2.74,8.22-1.57,15.86-1.76,23.89,0,2.74-.59,5.87-4.7,5.09-3.33-.59-6.27-2.35-5.48-6.27,1.57-7.83,0-18,12.34-19.19C601.66,276.56,601.46,274.61,599.11,273.43Z"/><path class="a4bfbb80-ebd7-4cf4-8107-baa33a566451" d="M691.34,202c2.35,3.52,1,7.44,1,11.36-5.87,1.76-11.55-1-17.23-1.57-8.62-.59-2.74-8.22-6.27-12.14C677,198.43,684.1,201.57,691.34,202Z"/><path class="a4bfbb80-ebd7-4cf4-8107-baa33a566451" d="M741.86,150.07a48.71,48.71,0,0,1,10,12.92c-2.94,4.5-6.07,9-9,13.32a2.83,2.83,0,0,1-1.37.39c-1.76-5.48-2.94-11.16-5.29-16.45C733.44,154,736.19,151.44,741.86,150.07Z"/><path class="a4bfbb80-ebd7-4cf4-8107-baa33a566451" d="M338.48,116.58l1.76,7c-2.74,4.11-6.07,4.11-10.18,2.35s-8.42-4.9-13.32-2h0c0.59-1,1.76-2,1.76-2.94,0-10.77,4.9-11.94,13.32-7C334,115,336.33,115.6,338.48,116.58Z"/><path class="a4bfbb80-ebd7-4cf4-8107-baa33a566451" d="M120.35,86.43c-3.52.2-15.27-15.47-13.51-18.41,1.57-2.74,5.09-4.9,8-3.33,6.66,3.72,9,10.77,11,17.43C127,85.84,122.89,85.64,120.35,86.43Z"/><path class="a4bfbb80-ebd7-4cf4-8107-baa33a566451" d="M341.81,757.68c-1.76,7.83-9.59,8.42-15.08,10.57-3.33,1.37-5.09-3.13-4.9-6.46,0.59-8.42,7.83-11,13.9-12.53C342.6,747.31,339.07,754.55,341.81,757.68Z"/><path class="a4bfbb80-ebd7-4cf4-8107-baa33a566451" d="M328.11,236.42c-6.27.78-6.85-1.76-6.85-5.48,0-10.77,9.2-7.44,14.69-9.59,4.31-1.57,5.68,2.15,5.48,5.48C341,236.81,331.83,234.07,328.11,236.42Z"/><path class="a4bfbb80-ebd7-4cf4-8107-baa33a566451" d="M316.75,124c-0.39,5.09,0,11.16-4.9,13.51-4.5,2.15-8-3.52-12.34-5.09-3.33-1.17-4.9-3.72-2.94-7.44,1.76-3.52,3.92-5.48,8.42-4.11,3.92,1,7,5.48,11.75,3.13h0Z"/><path class="a4bfbb80-ebd7-4cf4-8107-baa33a566451" d="M190.06,669.17c-3.52-.2-4.9-4.11-4.7-7.44,0.59-8,8.22-7.44,13.32-9,4.11-1.37,4.7,3.33,5.09,6.27C204.15,662.32,195.54,669.17,190.06,669.17Z"/><path class="a4bfbb80-ebd7-4cf4-8107-baa33a566451" d="M574.83,33.95c4.11,0.2,15.47,13.12,14.88,16.45-0.59,3.13-3.13,4.5-6.07,4.31-2.35,0-15.86-13.51-15.47-15.47C569,35.52,572.48,35.12,574.83,33.95Z"/><path class="a4bfbb80-ebd7-4cf4-8107-baa33a566451" d="M189.86,776.29c-3.33,2.74,1,11.75-7.44,11.36-3.13-.2-9.2-2.55-6.85-8.81,1.76-4.7.59-11.94,9-11.55C190.06,767.28,190.64,771,189.86,776.29Z"/><path class="a4bfbb80-ebd7-4cf4-8107-baa33a566451" d="M956.67,382.3c-1.57,2.94-.2,8.81-5.68,7.44-5.87-1.37-11.55-5.09-13.32-10.77-1.17-3.72,4.7-7.64,7.44-7C950,373.1,955.3,376,956.67,382.3Z"/><path class="a4bfbb80-ebd7-4cf4-8107-baa33a566451" d="M620.26,502.34c6.07,3.13,12.34,6.85,14.88,13.9,0.78,2.35-2.74,6.07-5.09,4.5-5.87-3.72-12.53-7.25-15.67-13.71C613.21,505.08,616.74,502.73,620.26,502.34Z"/><path class="a4bfbb80-ebd7-4cf4-8107-baa33a566451" d="M448.14,696.78c-0.2,8.81-8.62,7.25-13.71,9.4-3.72,1.57-5.48-2.15-5.29-5.68,0.78-8.81,8.62-9.6,14.49-11.16C450.1,687.58,446.57,694,448.14,696.78Z"/><path class="a4bfbb80-ebd7-4cf4-8107-baa33a566451" d="M144,378c-3.92,3.13,2.15,12.34-7.25,12.14-4.11,0-8.62-1.76-7.25-7,1.17-4.5,0-11.55,6.66-12.34A6.88,6.88,0,0,1,144,378Z"/><path class="a4bfbb80-ebd7-4cf4-8107-baa33a566451" d="M331.83,677.2c-4.9-9.6-10.38-15.47-2.15-21.74,3.33-2.55,7.25-2.35,9.4,1C345.34,665.65,333,667.22,331.83,677.2Z"/><path class="a4bfbb80-ebd7-4cf4-8107-baa33a566451" d="M534.5,419.71c5.68,6.85,11.16,12.34,15.27,18.8,1,1.37-3.33,6.27-6.46,5.09-7-2.94-11.94-8.81-14.88-15.86C526.86,423.62,531.75,424.21,534.5,419.71Z"/><path class="a4bfbb80-ebd7-4cf4-8107-baa33a566451" d="M731.88,441.83c2.74,1,5.48,3.33,4.7,5.68-2.55,7.25-8.62,11.94-15.67,14.69-2.94,1.17-3.52-2.35-4.31-4.31S729.53,441.64,731.88,441.83Z"/><path class="a4bfbb80-ebd7-4cf4-8107-baa33a566451" d="M864.05,461.81c4.5,3.72,9.4,6.66,12.53,11,1.76,2.55-1.76,6.46-5.29,6.27-5.87-.39-10.38-4.31-12.73-9.4C857.2,466.51,861.31,464.74,864.05,461.81Z"/><path class="a4bfbb80-ebd7-4cf4-8107-baa33a566451" d="M283.46,181.59c-0.78-2.55-2.35-5.29-2.35-7.83,0-4.11-1.57-9.59,3.52-11.36,2.94-1,8,.78,8.22,4.9,0.2,4.9,2.74,11.75-5.09,13.9a18.92,18.92,0,0,1-4.7.2Z"/><path class="a4bfbb80-ebd7-4cf4-8107-baa33a566451" d="M167.54,296.34c3.52,0.59,7.44,1.37,6.27,4.5-2,5.09-2,12.14-8.62,14.1-2.35.78-7.83-.59-7.25-3.92C158.92,305.15,161.66,299.28,167.54,296.34Z"/><path class="a4bfbb80-ebd7-4cf4-8107-baa33a566451" d="M885.79,179c3.92,2.94,11.36,1.76,12.92,8.62a4.56,4.56,0,0,1-5.87,5.29c-4.9-1.37-11.55-1.17-12.73-7.83C879.52,183,880.11,178.66,885.79,179Z"/><path class="a4bfbb80-ebd7-4cf4-8107-baa33a566451" d="M466.94,69.78c-4.31-.59-6.85-2.74-6.46-6.07,0.78-6.27,4.7-11.55,10.38-13.32,3.33-1.17,6.27,4.9,5.87,7.44C476.34,63.52,470.66,66.06,466.94,69.78Z"/><path class="a4bfbb80-ebd7-4cf4-8107-baa33a566451" d="M488.87,377.41c2.55,1.37,8-2.15,7.83,3.92-0.2,4.9-2.15,9.4-8.81,8.22-4.11-.78-9.4.59-9.4-6.07C478.3,375.65,484.17,377.8,488.87,377.41Z"/><path class="a4bfbb80-ebd7-4cf4-8107-baa33a566451" d="M577.77,710.88c-5.68.39-9-.59-9-6.07,0-3.33,2-6.27,4.9-5.09,4.9,2.15,13.32,1,14.1,6.27C588.54,711.86,580.51,709.32,577.77,710.88Z"/><path class="a4bfbb80-ebd7-4cf4-8107-baa33a566451" d="M864.64,433.8c-1.57,4.7-3.92,8.62-7.25,8-4.5-1-11-1.57-11.55-7.83-0.39-3.13,1.76-7.83,6.27-7C856.81,427.73,861.12,430.48,864.64,433.8Z"/><path class="a4bfbb80-ebd7-4cf4-8107-baa33a566451" d="M612.23,673.29c-7.44-3.72-15.86-2.15-15.47-12.34,0.2-4.5,2.74-6.85,6.85-6.07C613.8,657,609.1,665.65,612.23,673.29Z"/><path class="a4bfbb80-ebd7-4cf4-8107-baa33a566451" d="M307,294c-3.72-.2-7.83-0.78-8.62-4.7s3.72-4.9,6.46-5.48c4.11-.78,7.25-8.81,12.34-2.35,1.37,1.76,4.9,4.31,2.15,6.85C316.16,291.64,312.24,294.78,307,294Z"/><path class="a4bfbb80-ebd7-4cf4-8107-baa33a566451" d="M499.44,321h0c5.68-1.57,11-1.17,11.55,5.68a13.15,13.15,0,0,1-4.9,11.55c-1,.78-3.72-0.2-5.48-1.17-5.29-2.55-2-6.66-1.57-10.38A51.74,51.74,0,0,0,499.44,321Z"/><path class="a4bfbb80-ebd7-4cf4-8107-baa33a566451" d="M668.63,265c-2.35,3.33-1,9.79-7.83,9.79-3.72,0-6.66-1.57-5.29-5.68,1.57-4.5.59-11.16,7-11.75A6.72,6.72,0,0,1,668.63,265Z"/><path class="a4bfbb80-ebd7-4cf4-8107-baa33a566451" d="M324,508.8c-5.68-1-11.55-1-15.47-6.27-1.76-2.55-4.7-4.5-1-7.83,2.74-2.35,4.7-3.13,7.83,0,4.11,4.11,8,8,8.62,14.1h0Z"/><path class="a4bfbb80-ebd7-4cf4-8107-baa33a566451" d="M274.45,459.06c-5.87,9.2-13.32,3.33-20.17,2-2.55-.39-2.35-2.94-1.57-4.9,0.78-2.35,2.35-4.11,5.29-3.72,5.09,0.78,10.18,1.57,15.27,2.15C273.67,456.13,274.06,457.5,274.45,459.06Z"/><path class="a4bfbb80-ebd7-4cf4-8107-baa33a566451" d="M167.54,143.41c-1.17,3.33.78,9.79-6.07,10-5.68.2-5.48-4.5-4.9-8.62s0.39-9,7-8.42C167.93,136.95,168.52,139.1,167.54,143.41Z"/><path class="a4bfbb80-ebd7-4cf4-8107-baa33a566451" d="M644.54,124.42c0.59,3.92.59,7.25-4.9,7.25-5.87-.2-7.44-3.33-6.85-8.42,0.39-3.72-1-8.42,5.29-8.62C644.94,114.62,645.13,119.52,644.54,124.42Z"/><path class="a4bfbb80-ebd7-4cf4-8107-baa33a566451" d="M686.64,278.52c0.2-.39.59-1,0.78-1.37l18.21,4.11c-0.78,3.13-3.13,6.46.59,9.4C698.39,288.7,686.06,294.19,686.64,278.52Z"/><path class="a4bfbb80-ebd7-4cf4-8107-baa33a566451" d="M677,296.73c-1,3.52-3.33,4.5-5.68,3.52-6.07-2.55-12.73-4.9-15.08-11.94-0.59-1.76,2-4.11,3.92-3.33A66.77,66.77,0,0,1,677,296.73Z"/><path class="a4bfbb80-ebd7-4cf4-8107-baa33a566451" d="M813.92,527c-2,4.11,1,10.77-4.7,11.36-5.87.59-4.5-5.48-3.92-9,0.78-4.31-1.57-11.75,4.11-12.14C815.69,516.44,812.16,523.88,813.92,527Z"/><path class="a4bfbb80-ebd7-4cf4-8107-baa33a566451" d="M720.72,672.7c-2.35,5.09-5.48,10-11.16,11.36-4.11,1-5.29-4.31-4.9-6.46,0.59-6.07,6.07-9,11-10.77C718.37,665.85,719.74,669.76,720.72,672.7Z"/><path class="a4bfbb80-ebd7-4cf4-8107-baa33a566451" d="M390,540.72c-1.76,3.33-5.09,5.09-7.83,4.31a11.1,11.1,0,0,1-8.22-10.18c-0.2-2.55,3.13-5.48,5.87-4.9C385.28,530.93,387,536.61,390,540.72Z"/><path class="a4bfbb80-ebd7-4cf4-8107-baa33a566451" d="M794.54,352.34c6.46-3.52,8.81-12.53,17.43-9,2.55,1,4.5,4.31,1.17,7.83C807.66,357,802.18,357.83,794.54,352.34Z"/><path class="a4bfbb80-ebd7-4cf4-8107-baa33a566451" d="M478.3,274c-3.52-1.57-5.68-3.72-4.11-6.66,2.55-5.09,4.7-11.16,11.16-12.73,2-.39,4.9,2.55,3.52,4.9C485.74,264.62,483.39,270.49,478.3,274Z"/><path class="a4bfbb80-ebd7-4cf4-8107-baa33a566451" d="M405.84,584.78c4.7,2.55,13.51-2,13.12,4.7-0.39,6.27-9.4,4.7-14.88,5.29-4.31.59-8.42-1-8-6.07C396.84,580.47,403.1,587.52,405.84,584.78Z"/><path class="a4bfbb80-ebd7-4cf4-8107-baa33a566451" d="M743.82,523.29c3.13,1.57,6.85,2.94,5.09,5.09C745,533.87,744,541.89,736.38,544c-1.76.59-4.11-2.74-3.33-5.29C735,532.3,739.12,527.4,743.82,523.29Z"/><path class="a4bfbb80-ebd7-4cf4-8107-baa33a566451" d="M818.62,215.67c-2.94,5.29-9.2,5.68-14.49,7.64-2.74,1-4.7-1.37-4.31-4.11,1.17-7.44,8.81-6.46,13.51-9.2C816.86,208.22,817.65,212.14,818.62,215.67Z"/><path class="a4bfbb80-ebd7-4cf4-8107-baa33a566451" d="M802.57,783.14c-4.7-1.76-7-3.33-5.87-6.85,1.76-5.29,3.72-10.77,9.4-12.92,2.35-.78,4.5,2.55,3.72,4.9C807.85,773.54,804.92,778.44,802.57,783.14Z"/><path class="a4bfbb80-ebd7-4cf4-8107-baa33a566451" d="M399.38,431.06c-2.94,4.9-7.25,8.81-12.53,10-3.52.78-4.11-3.72-4.11-6.07,0.2-5.48,5.29-7.64,9.4-8.81C394.88,425.19,398.21,427.54,399.38,431.06Z"/><path class="a4bfbb80-ebd7-4cf4-8107-baa33a566451" d="M393.9,627.47c4.31,2,5.87,5.48,6.27,9.4,0.59,5.09-2.15,8.81-6.85,9.6a4.86,4.86,0,0,1-6.07-5.48C388.22,636.28,389.79,631.19,393.9,627.47Z"/><path class="a4bfbb80-ebd7-4cf4-8107-baa33a566451" d="M463,568.53c-0.39-4.31-.78-8.42,3.13-7,6.46,2.35,5.48,9.79,7.64,14.88,1.37,3.33-.59,7.25-4.5,6.46C460.09,580.86,467.33,571.46,463,568.53Z"/><path class="a4bfbb80-ebd7-4cf4-8107-baa33a566451" d="M338.88,63.91c4.7-1,5.87,1.76,5.87,4.5-0.2,7-7.25,6.07-11.36,8.62-2.55,1.57-4.31-1.37-4.5-3.72C328.89,66.26,335,65.87,338.88,63.91Z"/><path class="a4bfbb80-ebd7-4cf4-8107-baa33a566451" d="M304.8,652.33c-4.11.2-7.83,0.39-7.25-4.31,1-8.42,8.42-4.7,12.92-6.46,3.13-1.17,6.85-.59,6.27,4.11C315.77,653.71,308.33,650.38,304.8,652.33Z"/><path class="a4bfbb80-ebd7-4cf4-8107-baa33a566451" d="M301.67,194.32c-0.78,4.7-1.17,9.59-7.64,9.79-3.13,0-5.87-1.17-4.31-4.9s-1.17-10.38,6.27-10.57C300.1,188.64,301.87,190.41,301.67,194.32Z"/><path class="a4bfbb80-ebd7-4cf4-8107-baa33a566451" d="M250.76,198.63C247.43,201.37,249,209,242.14,209c-2.15,0-6.66-.39-5.48-4.31,1.57-4.9,2.94-11.16,10.18-11.36C249.58,193.34,251.15,194.91,250.76,198.63Z"/><path class="a4bfbb80-ebd7-4cf4-8107-baa33a566451" d="M418.18,448.49c-5.68.59-9.4-.39-8.62-2.35,2-5.29,5.68-10,11.55-11.55,2.15-.59,6.66,1.57,5.87,4.31C425.23,444.18,421.12,447.9,418.18,448.49Z"/><path class="a4bfbb80-ebd7-4cf4-8107-baa33a566451" d="M764,652.33c-3.72-1.17-9-1.37-8-6.66,0.78-4.5,3.72-8.62,6.07-12.73,0.78-1.37,2.74-1.17,4.11,0a4.93,4.93,0,0,1,2,6.27c-1.57,4.31-2.94,8.81-4.11,13.12h0Z"/><path class="a4bfbb80-ebd7-4cf4-8107-baa33a566451" d="M274.45,459.06c-0.39-1.37-.78-2.94-1.17-4.31a30.44,30.44,0,0,1,1.57-4.5c1.76-3.52-.2-9.4,6.27-9.79,1.57,0,3.52,1.17,2.94,2.94-1.57,5.29,2,11.94-3.92,16.06C279,460.24,276.41,459.26,274.45,459.06Z"/><path class="a4bfbb80-ebd7-4cf4-8107-baa33a566451" d="M45.74,337.46c-5.48-.39-5.68-5.29-6.46-9.2-0.59-3.33,2.15-5.29,4.9-5.09,5.68,0.39,5.87,5.68,6.85,9.59C52,336.29,49.07,337.07,45.74,337.46Z"/><path class="a4bfbb80-ebd7-4cf4-8107-baa33a566451" d="M619.09,238.77c-0.39,2.55,1,6.27-3.33,6.27-4.31.2-6.46-2.35-6.07-6.85,0.39-3.13-1.17-8.22,4.31-7.83C618.7,230.74,618.5,235.25,619.09,238.77Z"/><path class="a4bfbb80-ebd7-4cf4-8107-baa33a566451" d="M537.43,775.7c-4.9-1.57-3.72-7.25-5.09-11.16-1.17-3.52,2-5.09,4.9-4.7,5.48,0.78,5.87,5.48,6.66,9.6S541.94,774.92,537.43,775.7Z"/><path class="a4bfbb80-ebd7-4cf4-8107-baa33a566451" d="M760.47,94.85c-4.9,4.5-9.6,9-14.69,13.32-0.2.2-2.94-1.57-3.52-2.74-2.35-5.68,3.72-7,6.07-10.18,2-2.55,4.11-6.46,8.62-4.31C757.92,91.71,758.51,92.89,760.47,94.85Z"/><path class="a4bfbb80-ebd7-4cf4-8107-baa33a566451" d="M636.71,597.11a18.55,18.55,0,0,1-12.14-10.18c-0.78-2,1.57-4.5,3.13-4.11,5.48,2,10.57,5.09,13.71,10C642.78,594.76,639.65,596.72,636.71,597.11Z"/><path class="a4bfbb80-ebd7-4cf4-8107-baa33a566451" d="M574.25,455.54c4.31-1.37,7.64,1,7.44,4.9-0.39,5.68-5.87,4.9-9.79,5.48-3.72.39-8.22-.59-8.22-4.5C563.48,454.17,570.13,456.91,574.25,455.54Z"/><path class="a4bfbb80-ebd7-4cf4-8107-baa33a566451" d="M162.05,538.17c-1.57,3.13,1.57,9.4-4.7,9.79-3.13.2-8.42-2.55-6.66-7.64,1.37-3.92-.78-10.77,6.46-10.57C162.25,529.95,162.25,534.06,162.05,538.17Z"/><path class="a4bfbb80-ebd7-4cf4-8107-baa33a566451" d="M522.36,197.26c-0.2,2.74-16.45,10.77-18.6,9-2.55-2-2.94-4.5-.59-7,4.31-4.7,10-5.48,15.86-5.87C521.38,193.34,522.36,195.1,522.36,197.26Z"/><path class="a4bfbb80-ebd7-4cf4-8107-baa33a566451" d="M347.69,590.26c-0.59,2.94.59,8.62-3.33,7.44-7-2.15-1.76-10.77-5.68-15.47-1.17-1.37.78-2.74,2.55-2.74C348.47,580.27,347.3,585.76,347.69,590.26Z"/><path class="a4bfbb80-ebd7-4cf4-8107-baa33a566451" d="M360.22,401.1C365.7,404,371,407,372.75,413.24c0.59,2.15-2.74,4.31-3.72,3.52-4.9-3.52-11.36-5.68-13.51-11.75C354.74,403.06,357.87,401.49,360.22,401.1Z"/><path class="a4bfbb80-ebd7-4cf4-8107-baa33a566451" d="M652.38,67.82c-4.7,5.87-10.18,7.25-15.27,9.2-2.55,1-4.7-1-5.48-3.33-1.17-3.13,1-4.31,3.33-4.9C640.24,67.63,645.33,64.89,652.38,67.82Z"/><path class="a4bfbb80-ebd7-4cf4-8107-baa33a566451" d="M834.09,194.32c-4.11,0-5.87-2-5.48-4.5,1.17-7,7.64-6.85,12.53-8.22,2.94-.78,4.11,1.37,4.11,4.11C844.86,194.13,836.25,190.41,834.09,194.32Z"/><path class="a4bfbb80-ebd7-4cf4-8107-baa33a566451" d="M715.23,351.76c4.31,0.39,3.92,4.7,4.11,8.62,0.2,2.94-.39,6.07-4.11,5.48-5.68-1-4.9-6.27-5.48-10.38C709.16,352.54,710.93,351.17,715.23,351.76Z"/><path class="a4bfbb80-ebd7-4cf4-8107-baa33a566451" d="M844.28,340.2c3.92,4.11,8.42,8,9.79,13.9,0.59,2.15-2.35,5.48-4.31,4.31-5.87-3.13-6.66-9.79-8.81-15.47C840.36,341.58,842.51,340.79,844.28,340.2Z"/><path class="a4bfbb80-ebd7-4cf4-8107-baa33a566451" d="M552.9,226c-2.15,3.52-4.5,7.44-8.62,8.62-2,.59-6.27-1.37-5.87-4.5a9.55,9.55,0,0,1,7.64-8.22C549,221.34,551.53,222.52,552.9,226Z"/><path class="a4bfbb80-ebd7-4cf4-8107-baa33a566451" d="M561.32,15.93c2-3.72-.39-10.18,6.46-11,3.13-.39,3.92,2.35,3.13,4.9-1.57,4.7-2,11.16-7.25,12.53C560.15,23.37,561.32,18.67,561.32,15.93Z"/><path class="a4bfbb80-ebd7-4cf4-8107-baa33a566451" d="M352.19,361.94c3.13,3.13,8.81,3.52,10,8.81,0.59,2.74-2,4.5-4.5,3.92-4.7-.78-9.4-2.94-11.16-7.64C345.73,364.88,349.06,362.92,352.19,361.94Z"/><path class="a4bfbb80-ebd7-4cf4-8107-baa33a566451" d="M37.32,248.76c-2.74-.78-8.22,2.35-7.25-2.74,1-4.9,7.64-4.31,11.94-5.68,3.13-1,6.07,1.17,5.68,4.11C46.52,251.11,40.45,246.8,37.32,248.76Z"/><path class="a4bfbb80-ebd7-4cf4-8107-baa33a566451" d="M275.24,720.09c3.52,2.55,10.18,2.15,11.94,8.42,0.59,2.15-1.17,6.07-3.13,5.29a25.31,25.31,0,0,1-12.73-11.16C270.73,721.46,272.49,719.89,275.24,720.09Z"/><path class="a4bfbb80-ebd7-4cf4-8107-baa33a566451" d="M246.45,368.4c4.5,2.74,9.79,5.29,11,11.36,0.39,2.15-2.94,4.11-3.92,3.33-4.11-3.33-10-5.29-11.94-10.57C240.77,370.36,243.32,368.21,246.45,368.4Z"/><path class="a4bfbb80-ebd7-4cf4-8107-baa33a566451" d="M776.72,362.14c-4.5-3.92-10-7.25-11.94-13.51-0.59-2,2.94-3.72,4.11-2.74,4.9,3.72,10.18,7.25,12.53,13.12C781.81,360.37,779.46,362.33,776.72,362.14Z"/><path class="a4bfbb80-ebd7-4cf4-8107-baa33a566451" d="M602.64,525.84c-1.37,0-5.48-.39-5.29-4.9,0.2-3.72,3.13-6.27,7.44-5.48,3.52,0.59,7.25,1.76,7,6.27S608.12,526,602.64,525.84Z"/><path class="a4bfbb80-ebd7-4cf4-8107-baa33a566451" d="M175.57,491.18c-0.78,5.29-5.68,5.87-9.59,7.44s-4.7-1.37-4.9-4.5c-0.39-6.27,4.9-6.46,8.81-7.64C173.41,485.3,174.59,488.24,175.57,491.18Z"/><path class="a4bfbb80-ebd7-4cf4-8107-baa33a566451" d="M758.31,510.17c-3.33.39-6.07,0.2-5.87-3.92,0.2-4.7,3.92-5.48,7.44-6.07,4.11-.78,6.07,1,6.07,5.09C765.75,510.37,761.25,509.39,758.31,510.17Z"/><path class="a4bfbb80-ebd7-4cf4-8107-baa33a566451" d="M671.37,576c3.33,1.37,5.68,3.52,4.11,7.25-1.17,3.13-1,8-5.87,7.83-3.13-.2-6.46-2-4.7-6.27C666.28,581.25,665.69,576.16,671.37,576Z"/><path class="a4bfbb80-ebd7-4cf4-8107-baa33a566451" d="M232.74,332.18c-1.76,4.11-5.68,4.7-9.59,5.09-2.94.2-4.7-2.15-3.92-4.5,1.57-4.5,6.66-3.72,10.18-4.7C231.57,327.28,232.74,329.63,232.74,332.18Z"/><path class="a4bfbb80-ebd7-4cf4-8107-baa33a566451" d="M847.8,320.62c-2.74,2.94-3.33,8.42-8.81,8.22-2.35,0-5.09-1.37-3.92-4.31,1.37-3.52,2.74-7.83,7.64-7.83C844.86,316.71,847.41,317.49,847.8,320.62Z"/><path class="a4bfbb80-ebd7-4cf4-8107-baa33a566451" d="M498.86,642.74c-3.72.39-7.44-.2-6.85-4.31,0.78-4.7,5.48-4.9,9.4-5.29,3.13-.39,6.85-0.59,6.27,4.31C507.08,643.13,501.79,641.56,498.86,642.74Z"/><path class="a4bfbb80-ebd7-4cf4-8107-baa33a566451" d="M665.89,419.71c0.59-1-3.33-6.07,2.15-5.87,7.83,0.39,3.13,8.42,6.07,12.14,2,2.74-1.37,3.72-3.72,3.72C663.54,429.89,664.13,425.58,665.89,419.71Z"/><path class="a4bfbb80-ebd7-4cf4-8107-baa33a566451" d="M371.58,395c-3.92-3.13-9.2-5.68-11.16-11-0.78-1.76,2-3.72,3.92-3.13,5.09,1.57,8.62,5.29,11,10C376.28,393.27,374.12,394.25,371.58,395Z"/><path class="a4bfbb80-ebd7-4cf4-8107-baa33a566451" d="M310.48,585.17c0.59,3.72-1.37,4.5-4.11,4.5-6.66,0-5.29-5.68-6.27-9.4-0.78-2.94,1-4.7,3.92-4.31C309.9,576.55,309.11,581.84,310.48,585.17Z"/><path class="a4bfbb80-ebd7-4cf4-8107-baa33a566451" d="M783,564.61c2.74,0,6.46-.78,5.87,2.35-1,6.07-6.85,3.92-10.77,4.5-2.35.39-7,1-6.07-2.94C773.59,563.24,779.66,566.37,783,564.61Z"/><path class="a4bfbb80-ebd7-4cf4-8107-baa33a566451" d="M91.36,294.19c1.76-3.92,6.07-4.31,9.59-5.29,2.35-.78,3.92,1.37,3.52,3.52-1,5.29-5.68,6.07-10,6.46C92.15,299.08,91.56,296.54,91.36,294.19Z"/><path class="a4bfbb80-ebd7-4cf4-8107-baa33a566451" d="M207.29,505.08c3.92-.2,6.46.2,5.87,3.72-0.59,4.31-.78,9.2-5.68,10.77a3.16,3.16,0,0,1-4.11-4.11C204.55,511.93,203,506.65,207.29,505.08Z"/><path class="a4bfbb80-ebd7-4cf4-8107-baa33a566451" d="M925.74,248.17c-2.35,2.35,0,8.62-6.46,7.83-3.13-.39-5.48-2.55-4.11-5.68s0.59-8.81,6.27-8.22C924.36,242.49,926.52,244.65,925.74,248.17Z"/><path class="a4bfbb80-ebd7-4cf4-8107-baa33a566451" d="M466.55,14c8.81,0.39,8.22,5.29,8.81,8.81,0.78,4.31-2.35,5.68-5.68,5.09-5.29-.78-4.31-5.68-4.9-9.2C464,14.76,466.35,14,466.55,14Z"/><path class="a4bfbb80-ebd7-4cf4-8107-baa33a566451" d="M548.59,466.11c0,3.72-2.94,5.48-5.09,5.09-4.11-.39-6.46-3.92-6.85-8-0.2-2.35-1.17-6.85,2.55-6.46C544.09,457.11,545.66,462.79,548.59,466.11Z"/><path class="a4bfbb80-ebd7-4cf4-8107-baa33a566451" d="M689.58,88c0,3.72,9.2,4.31,3.52,10.18-4.5,4.7-7.83.2-9.6-2.35-5.48-8,2.35-6.46,6.27-7.64Z"/><path class="a4bfbb80-ebd7-4cf4-8107-baa33a566451" d="M550.55,35.71c2.55,3.13,6.07,7,8.81,11.55,0.78,1.17-1.76,3.72-3.92,3.33-5.48-1-8.42-5.29-10.77-9.79C543.7,38.45,546,37.67,550.55,35.71Z"/><path class="a4bfbb80-ebd7-4cf4-8107-baa33a566451" d="M571.9,402.08c0.39,3.52-1.57,5.29-4.11,4.7-5.68-1.17-5.87-6.66-6.85-11.16-0.59-3.13,1.57-4.31,4.31-4.11C572.09,392.29,569.55,398.95,571.9,402.08Z"/><path class="a4bfbb80-ebd7-4cf4-8107-baa33a566451" d="M444.22,721.07c2.55,0,6.46-.78,5.48,2.55-1.37,4.5-6.85,4.31-10.77,5.68-2.35.78-5.29-.78-4.9-3.72C435,718.91,441.09,722.83,444.22,721.07Z"/><path class="a4bfbb80-ebd7-4cf4-8107-baa33a566451" d="M149.91,267.36c-4.11,4.5-7.25.78-10.38,0.39-3.52-.39-6.07-2.15-6.46-5.87-0.2-1.37.59-3.52,1.57-3.92,2.94-1.17,5.09,1.37,7.25,2.74C144.82,262.86,147.37,265.21,149.91,267.36Z"/><path class="a4bfbb80-ebd7-4cf4-8107-baa33a566451" d="M537.43,659.38c3.92,0,7.83.2,8.22,5.09,0.2,4.31-3.52,3.52-6.07,3.33-3.72-.39-9,0.59-9-5.09C530.38,657.62,535.08,660.36,537.43,659.38Z"/><path class="a4bfbb80-ebd7-4cf4-8107-baa33a566451" d="M745.19,654.88c3.33,0.2,6.46.78,5.87,4.31-1,4.7-6.07,4.31-9.6,5.48-3.92,1.37-5.29-2.55-5.09-4.7C737,655.08,742.06,656.06,745.19,654.88Z"/><path class="a4bfbb80-ebd7-4cf4-8107-baa33a566451" d="M644.54,648.42a3.31,3.31,0,0,0-1-.39c-7.83-1.57-6.85-8.42-7.83-13.9-0.39-2.55,2.55-3.13,4.11-2.35,5.68,2.74,4.9,8.22,5.09,13.12a17.58,17.58,0,0,0-.39,3.52h0Z"/><path class="a4bfbb80-ebd7-4cf4-8107-baa33a566451" d="M594.61,622.18c-5.09-2.35-11.55,2-14.1-5.09-0.78-2.35.78-4.31,3.72-4.7C590.5,612,593.44,615.13,594.61,622.18Z"/><path class="a4bfbb80-ebd7-4cf4-8107-baa33a566451" d="M245.08,482.76c-0.2-1.57-.59-2.94-0.78-4.5-0.78-3.92-4.9-8.22,1.57-11,3.13-1.37,3.92,1.37,4.9,3.52,2.35,4.9,3.52,9-3.72,10.38a5,5,0,0,0-2,1.57h0Z"/><path class="a4bfbb80-ebd7-4cf4-8107-baa33a566451" d="M260.75,104.05c0.2,3.52-2.35,4.5-4.5,4.11-4.31-.78-6.27-4.7-7.44-8.42-1-3.33,2.55-3.92,4.7-3.72C258.2,96.41,259,100.92,260.75,104.05Z"/><path class="a4bfbb80-ebd7-4cf4-8107-baa33a566451" d="M608.71,351.17c-2.15,2.55-.2,8.62-5.87,9.2-2.15.2-3.33-2.35-2.55-4.31,1.37-3.72.78-9.2,6.27-9.79C608.71,345.88,609.3,348.43,608.71,351.17Z"/><path class="a4bfbb80-ebd7-4cf4-8107-baa33a566451" d="M539.59,285.38c2.94,1,6.46,2,5.29,5.29s-4.7,5.29-8.42,5.68c-2.35.2-5.48-1.76-5.29-3.92C532,288.12,535.87,286.55,539.59,285.38Z"/><path class="a4bfbb80-ebd7-4cf4-8107-baa33a566451" d="M392.14,575.57c-2.74-1-5.09-2.15-4.31-5.09,0.78-3.13.2-7.83,4.9-8.42,2.74-.2,5.68,1.76,4.9,5.09C396.64,570.48,395.86,574.4,392.14,575.57Z"/><path class="a4bfbb80-ebd7-4cf4-8107-baa33a566451" d="M291.88,761.6c0.39,6.85,2.55,12.34-3.92,15.08-3.33,1.37-5.68-1-6.27-3.52C280.52,766.1,287.38,765.91,291.88,761.6Z"/><path class="a4bfbb80-ebd7-4cf4-8107-baa33a566451" d="M276,271.08c-1.17,3.33-2.55,5.48-5.48,3.92-3.33-1.76-8-2.55-8-7.44A3.1,3.1,0,0,1,267.6,265C270.54,267,275.43,267,276,271.08Z"/><path class="a4bfbb80-ebd7-4cf4-8107-baa33a566451" d="M815.49,146.15c0.2,5.09-4.9,4.7-8,6.27a2.73,2.73,0,0,1-3.92-2.74c0.2-4.5,3.92-6.46,7.64-7.83C814.71,140.67,814.9,143.21,815.49,146.15Z"/><path class="a4bfbb80-ebd7-4cf4-8107-baa33a566451" d="M514.13,414.42c-3.33-4.31-9.2-7.25-6.46-13.71,0.39-.78,3.52-1.57,3.92-1.17C514.52,404,516.68,408.74,514.13,414.42Z"/><path class="a4bfbb80-ebd7-4cf4-8107-baa33a566451" d="M144.43,408.94c-1.37,3.72-4.5,5.87-7.83,7.64-2,1-4.5-.2-4.31-2.35,0.2-4.7,3.92-7.25,8-8.62C141.89,405.22,143.84,406.39,144.43,408.94Z"/><path class="a4bfbb80-ebd7-4cf4-8107-baa33a566451" d="M324.58,489.22c2-3.13,3.52-7,8-7,2.15,0,4.11,2.94,3.72,5.29-0.78,3.92-3.13,7.44-7.83,7.25C326,494.31,324.39,492.16,324.58,489.22Z"/><path class="a4bfbb80-ebd7-4cf4-8107-baa33a566451" d="M852.5,110.9c-3.52-1.76-6.85-4.11-7.64-8.22-0.39-2.15,1-4.31,3.33-3.72,3.92,1,7.25,3.33,7.64,7.83A4.18,4.18,0,0,1,852.5,110.9Z"/><path class="a4bfbb80-ebd7-4cf4-8107-baa33a566451" d="M647.87,513.5c-3.72.59-6.46,0.2-5.68-3.13,1.37-5.48,6.85-4.11,10.57-5.68,2.15-.78,5.48-1,5.09,2.35C657.08,513.7,650,510.76,647.87,513.5Z"/><path class="a4bfbb80-ebd7-4cf4-8107-baa33a566451" d="M323.8,509c5.87,2,11.36,4.7,14.49,10.57-7.25.2-14.88,0.59-14.49-10.57h0Z"/><path class="a4bfbb80-ebd7-4cf4-8107-baa33a566451" d="M700.55,239.36c3.72,1.37,7.64,2,8.81,5.68,0.78,2.35-1.76,4.7-4.11,4.7-3.52,0-7-1.76-8.22-5.29C696.24,242.1,698.59,240.34,700.55,239.36Z"/><path class="a4bfbb80-ebd7-4cf4-8107-baa33a566451" d="M495.92,157.7c0,4.5-1.37,5.68-4.5,5.09-4.31-.78-9.2-1.57-9.2-7.25,0-3.13,3.13-3.13,5.48-2.94C491.61,153.2,495.72,153.79,495.92,157.7Z"/><path class="a4bfbb80-ebd7-4cf4-8107-baa33a566451" d="M927.5-7.17c-1.57,3.13,0,9.2-6.46,9-3.13,0-3.72-2.15-3.52-4.9,0.59-4.5,3.33-7,7.44-8C927.3-11.87,927.89-9.72,927.5-7.17Z"/><path class="a4bfbb80-ebd7-4cf4-8107-baa33a566451" d="M943.95,120.11c1.17-2.74,2.35-5.29,5.68-4.7,3.52,0.59,7.25.78,7.64,5.48,0.2,3.33-2.15,3.72-4.7,3.33C949.23,123.83,945.51,124,943.95,120.11Z"/><path class="a4bfbb80-ebd7-4cf4-8107-baa33a566451" d="M530.19,514.28c3.92-4.9,8.62-4.11,13.12-2.15,0.78,0.39,1.37,3.52.78,3.92C539,520.94,535.08,514.48,530.19,514.28Z"/><path class="a4bfbb80-ebd7-4cf4-8107-baa33a566451" d="M278.37,529.75c0.2,3.52-2.15,4.7-5.09,4.9-3.92.39-8.22,0.59-8.81-4.9-0.39-3.92,2.55-4.31,5.48-4.31C273.28,525.64,277.19,525.05,278.37,529.75Z"/><path class="a4bfbb80-ebd7-4cf4-8107-baa33a566451" d="M555.84,493.33c-0.59,3.33-2.94,3.72-5.29,3.13-3.33-.78-7.64-0.59-8-5.09-0.2-2.55,2.55-3.92,5.09-2.74C550.55,490,555.25,488.63,555.84,493.33Z"/><path class="a4bfbb80-ebd7-4cf4-8107-baa33a566451" d="M391.94,745.93c-3.72-4.7-7.44-7.64-3.13-12.34,1.57-1.57,3.52-2.35,5.29-.78C399.38,737.71,393.9,741,391.94,745.93Z"/><path class="a4bfbb80-ebd7-4cf4-8107-baa33a566451" d="M373.73,555.21c-0.39,1.37-.2,2.55-0.78,2.74-4.31,2.35-8.42,5.68-13.9,3.72-1.76-.59-2.15-3.13-1.37-3.92A16.87,16.87,0,0,1,373.73,555.21Z"/><path class="a4bfbb80-ebd7-4cf4-8107-baa33a566451" d="M422.49,408.35H422.1c-2.15-2.55-4.11-5.48-2-8.22,1.37-1.76,4.7-2.35,7.44-2.74,0.78-.2,2.55,1.57,3.13,2.94,1.37,3.72-2.15,4.31-4.31,5.68C425.23,406.78,423.86,407.56,422.49,408.35Z"/><path class="a4bfbb80-ebd7-4cf4-8107-baa33a566451" d="M555.84,635.49c-2.55,3.33-3.13,8.81-8.22,10-2,.39-3.52-2.15-2.55-4.31,1.57-3.92,3.13-8.22,7.64-9.79C554.86,630.79,556,632.75,555.84,635.49Z"/><path class="a4bfbb80-ebd7-4cf4-8107-baa33a566451" d="M707,540.13c-1.57,4.7-6.07,5.48-10.18,6.66-2.55.59-5.29-1.17-4.11-3.92,1.76-4.31,6.85-4.9,10.77-6.46C706.42,535,706.42,538,707,540.13Z"/><path class="a4bfbb80-ebd7-4cf4-8107-baa33a566451" d="M162.84,98.76c-2.15.2-4.5,0.39-4.7-2.35-0.2-4.7,3.72-4.31,6.66-4.7,2.35-.39,5.48-0.39,5.09,2.94C169.89,99.16,165.38,97.59,162.84,98.76Z"/><path class="a4bfbb80-ebd7-4cf4-8107-baa33a566451" d="M913.79,737.71c0.39,2.35-.39,4.31-2.74,4.31-4.5.2-4.31-3.92-5.29-6.66-1-2.55,0-5.09,3.13-4.9C912.81,730.86,912.22,735.16,913.79,737.71Z"/><path class="a4bfbb80-ebd7-4cf4-8107-baa33a566451" d="M297.56,568.53c-4.5-1.17-4.9-5.68-6.46-9-1-2,0-4.9,2.15-4.31,5.09,1,5.29,6.27,6.85,10.18C301.08,567,299.71,568.33,297.56,568.53Z"/><path class="a4bfbb80-ebd7-4cf4-8107-baa33a566451" d="M527.05,258a10.7,10.7,0,0,0,3.52-.2c4.7-1.76,7.44,1,9.2,4.7a3.45,3.45,0,0,1-2.35,4.7c-4.5,1.17-5.87-2.74-8-5.29-1.17-1-1.57-2.74-2.35-3.92h0Z"/><path class="a4bfbb80-ebd7-4cf4-8107-baa33a566451" d="M428.56,562.65c-2.74-1.57-7.83-1-7.83-5.29,0-2.55,3.33-5.29,6.85-4.9,3.13,0.39,6.27,1.76,6.27,5.68C433.85,561.48,432.08,563.24,428.56,562.65Z"/><path class="a4bfbb80-ebd7-4cf4-8107-baa33a566451" d="M887.55,426.75c2.55,0,6.07-.78,5.87,2.35-0.39,6.07-6.66,3.33-10.18,5.29-1.76,1-4.31.39-4.31-2.35C879.13,426.17,884.61,428.13,887.55,426.75Z"/><path class="a4bfbb80-ebd7-4cf4-8107-baa33a566451" d="M376.28,191.38c-0.78,3.72-3.72,3.52-6.46,3.33-2.55-.2-6.07.2-5.48-4.11,0.59-3.33,3.33-3.92,6.27-3.72C373.73,186.88,376.08,187.86,376.28,191.38Z"/><path class="a4bfbb80-ebd7-4cf4-8107-baa33a566451" d="M858.18,15c-0.78,3.13-2.74,4.31-5.29,3.52-3.13-1-7.83-.59-7.25-5.68,0.39-2.74,3.52-2.94,5.68-2.15C854.07,11.43,858,10.65,858.18,15Z"/><path class="a4bfbb80-ebd7-4cf4-8107-baa33a566451" d="M852.3,536.41c-0.39,2.55-2,4.31-3.92,3.33-3.13-1.37-8.42-.78-7.83-6.46,0.2-2.74,2.35-2.94,4.31-2.35C847.8,531.91,851.52,532.3,852.3,536.41Z"/><path class="a4bfbb80-ebd7-4cf4-8107-baa33a566451" d="M647.09,9.67c3.72,0.2,4.9,3.33,6.27,6.07,1,2.15-.2,4.31-2.35,4.31-4.31.39-6.07-3.13-7.25-6.46C643,11.23,644.94,10.25,647.09,9.67Z"/><path class="a4bfbb80-ebd7-4cf4-8107-baa33a566451" d="M116.43,534.85c-1,2.55-.39,6.85-5.09,6.27-2.35-.2-4.5-2.15-3.33-5.09,1-2.74-.2-7.25,4.31-7.25C116.23,528.77,116.82,531.52,116.43,534.85Z"/><path class="a4bfbb80-ebd7-4cf4-8107-baa33a566451" d="M686.25,326.69c-2.55-1.17-6.46-1-7-4.7a3.88,3.88,0,0,1,4.31-4.5c2.94,0.2,6.66.78,7,4.7C690.76,324.34,689.58,326.89,686.25,326.69Z"/><path class="a4bfbb80-ebd7-4cf4-8107-baa33a566451" d="M477.9,207.64c-0.59,2.74-1.76,4.7-4.11,3.92-3.13-1.17-7.83-.2-8.62-4.7-0.39-2.15,1.57-3.72,3.92-3.33C472.42,203.92,475.75,204.9,477.9,207.64Z"/><path class="a4bfbb80-ebd7-4cf4-8107-baa33a566451" d="M866.4,546.59c-2,4.9-3.92,9.79-10,9.4-0.78,0-2.15-2-2-2.35C856.42,548.36,861.31,547.57,866.4,546.59Z"/><path class="a4bfbb80-ebd7-4cf4-8107-baa33a566451" d="M508.06,517.42c0.78-3.52,2.94-2.94,4.7-2.15,2.94,1.37,7.83.39,8.42,4.7,0.39,2.35-2.74,3.72-5.29,2.55C512.76,521.33,508.84,521.14,508.06,517.42Z"/><path class="a4bfbb80-ebd7-4cf4-8107-baa33a566451" d="M612.43,76.64c4.31,0.59,6.07,3.92,7,7.44a3.42,3.42,0,0,1-3.33,4.11c-4.5,0-5.48-4.11-6.66-7.25C608.32,78.4,610.86,77.62,612.43,76.64Z"/><path class="a4bfbb80-ebd7-4cf4-8107-baa33a566451" d="M218.64,113.25c6.46,0,10.18,3.72,14.29,7.83C223.54,122.26,223.54,122.26,218.64,113.25Z"/><path class="a4bfbb80-ebd7-4cf4-8107-baa33a566451" d="M763.8,652.33a18.93,18.93,0,0,1,4.7.2c3.92,0.59,9.2-2.15,11,3.72,0.59,2-2.15,2.94-4.11,2.94-5.29,0-11.94,2.15-11.55-6.85h0Z"/><path class="a4bfbb80-ebd7-4cf4-8107-baa33a566451" d="M678.22-7c2.74,0.59,4.5,2.74,3.92,5.09A7.61,7.61,0,0,1,674.5,4a3.64,3.64,0,0,1-3.33-4.11C671.57-4.24,675.09-5.61,678.22-7Z"/><path class="a4bfbb80-ebd7-4cf4-8107-baa33a566451" d="M930.83,654.29c-4.11-.78-4.9-4.31-6.07-7.44-1-2.74.78-5.09,3.13-4.9,4.9,0.2,4.9,5.29,6.27,8.62C935.13,652.53,933.18,653.71,930.83,654.29Z"/><path class="a4bfbb80-ebd7-4cf4-8107-baa33a566451" d="M914,454.76c0.39,3.33-1,4.7-3.13,4.7-5.09.2-5.09-4.11-5.68-7.25-0.39-2.35,1.37-3.52,3.72-3.13C913,449.47,913.2,453,914,454.76Z"/><path class="a4bfbb80-ebd7-4cf4-8107-baa33a566451" d="M478.88,717.93c-1.17,2.94-2.35,6.66-6.46,6.85a3.37,3.37,0,0,1-3.33-3.92c0.78-3.72,2.94-6.66,6.66-7.25C478.3,713.23,479.08,715.39,478.88,717.93Z"/><path class="a4bfbb80-ebd7-4cf4-8107-baa33a566451" d="M188.29,290.08c3.52-3.72,5.09-8,10-6.46,2,0.59,2.55,2.94,1.37,4.9C196.91,292.43,193.38,292.62,188.29,290.08Z"/><path class="a4bfbb80-ebd7-4cf4-8107-baa33a566451" d="M390.77,448.1c-1.57,2.55-.59,7-5.09,7.83-2.74.59-4.31-1-4.31-3.92,0-3.72.59-7.25,4.9-7.83C388.81,443.79,391.16,444.38,390.77,448.1Z"/><path class="a4bfbb80-ebd7-4cf4-8107-baa33a566451" d="M741.67,176.89a3.63,3.63,0,0,0,1.37-.39c2.94,4.11,6.27,8,4.7,13.51-0.2.78-3.72,1.57-3.72,1.37A23.14,23.14,0,0,1,741.67,176.89Z"/><path class="a4bfbb80-ebd7-4cf4-8107-baa33a566451" d="M236.27,651.75c-0.39,3.13.78,7.44-3.72,7.25-4.9-.2-3.52-5.29-4.31-8.42-1.17-4.11,1.17-6.66,4.7-6.27C237.44,644.7,235.09,649.2,236.27,651.75Z"/><path class="a4bfbb80-ebd7-4cf4-8107-baa33a566451" d="M456.37,534.26c0.2,4.31-4.11,3.33-6.66,4.5-3.13,1.57-5.87-.2-6.27-3.13-0.39-3.92,3.72-4.5,6.46-5.29C453,529.36,455.39,530.54,456.37,534.26Z"/><path class="a4bfbb80-ebd7-4cf4-8107-baa33a566451" d="M307.94,67.63c-0.2,3.13-1.57,5.48-4.7,5.48-3.92-.2-3.13-3.72-3.13-6.27s-0.39-5.87,4.11-5.09C307.74,62.34,307.94,64.89,307.94,67.63Z"/><path class="a4bfbb80-ebd7-4cf4-8107-baa33a566451" d="M592.46,419.71c-0.59,4.5-4.7,5.68-8.22,6.85-1.57.59-3.72-.2-3.33-2,0.78-4.5,5.09-5.29,8.22-7.44C590.89,416.18,591.87,417.94,592.46,419.71Z"/><path class="a4bfbb80-ebd7-4cf4-8107-baa33a566451" d="M697.81,604.95c-1.17,2.35-3.33,2.55-4.9,1.37-3.13-2.15-7.25-3.72-6.66-8.42,0.2-1.76,2.74-2.74,4.7-1.57C694.48,598.49,697.41,600.84,697.81,604.95Z"/><path class="a4bfbb80-ebd7-4cf4-8107-baa33a566451" d="M537.24,332.76h0c-0.2,3.72,5.68,8.81-1.17,11-4.7,1.57-5.87-2.94-6.46-6.46C528.62,329.83,533.52,332.18,537.24,332.76Z"/><path class="a4bfbb80-ebd7-4cf4-8107-baa33a566451" d="M540.76,385.24c2.55,0,5.09,0,4.7,3.52s-3.52,3.72-6.27,4.31-4.5-.59-4.5-3.72C534.89,385,538.22,385.63,540.76,385.24Z"/><path class="a4bfbb80-ebd7-4cf4-8107-baa33a566451" d="M677.25,171.41c4.11-1.57,8.22-5.29,12.53-1.37a3.57,3.57,0,0,1,.2,3.13C685.47,175.52,681.36,174.35,677.25,171.41Z"/><path class="a4bfbb80-ebd7-4cf4-8107-baa33a566451" d="M376.47,596.33c-1.76,3.33-3.72,6.66-7.44,8.42a2.17,2.17,0,0,1-2.94-2.55,13.36,13.36,0,0,1,7-8.81C374.71,592.61,376.08,594.37,376.47,596.33Z"/><path class="a4bfbb80-ebd7-4cf4-8107-baa33a566451" d="M421.71,685.23c-1.17,3.52-3.13,6.46-6.85,6.85-2.35.2-2.94-2.15-2.74-4.11,0.39-3.13,2-6.07,5.29-7C420.34,680.14,420.73,683.27,421.71,685.23Z"/><path class="a4bfbb80-ebd7-4cf4-8107-baa33a566451" d="M390.77,87.21c-2.55.2-4.11-1.37-3.92-3.33,0.2-2.94.2-6.46,3.92-7.64a2.79,2.79,0,0,1,3.52,3.33C393.7,82.32,394.1,85.84,390.77,87.21Z"/><path class="a4bfbb80-ebd7-4cf4-8107-baa33a566451" d="M822.93,647c-1.17,2.55-1,6.46-4.9,7.25-2.35.39-3.92-.78-3.52-3.13,0.59-2.94,1.37-6.46,4.9-7.44C822,642.94,822.93,644.5,822.93,647Z"/><path class="a4bfbb80-ebd7-4cf4-8107-baa33a566451" d="M329.67,448.88c-1.57,3.92-5.68,3.52-8.81,4.31-2.35.59-5.29-2-4.9-4.11,1-4.7,5.48-4.9,9.2-5.09C327.91,443.79,329.28,445.94,329.67,448.88Z"/><path class="a4bfbb80-ebd7-4cf4-8107-baa33a566451" d="M371.77,760.62c3.33,1.57,6.27,3.13,6.27,6.66a3.52,3.52,0,0,1-4.7,3.72c-2.74-1-6.27-2.35-6.27-6.27C367.27,762.19,369.62,760.82,371.77,760.62Z"/><path class="a4bfbb80-ebd7-4cf4-8107-baa33a566451" d="M893.43,548.94c-0.39-2,0-3.72,2-3.72,3.92,0,6.27,2.94,7.83,6.07a3.12,3.12,0,0,1-2.74,4.31C896.36,555.41,895,551.49,893.43,548.94Z"/><path class="a4bfbb80-ebd7-4cf4-8107-baa33a566451" d="M731.49,725c-0.2,2-.78,3.52-2.74,3.13-2.94-.59-6.46-0.59-7.44-4.31a2.17,2.17,0,0,1,2.74-2.74C727,721.46,730.31,721.07,731.49,725Z"/><path class="a4bfbb80-ebd7-4cf4-8107-baa33a566451" d="M94.5,166.52c-0.39,4.11-1.37,7.25-5.29,7.44-2.94.2-4.31-1.76-3.33-4.5s0.2-6.85,4.7-7C94.3,162.21,94.3,164.75,94.5,166.52Z"/><path class="a4bfbb80-ebd7-4cf4-8107-baa33a566451" d="M722.87,633.93c-0.2,2.74,0,5.87-3.72,6.27-3.52.39-3.33-2.55-3.13-4.9,0.2-2.55-1-6.07,3.33-6.46C722.48,628.64,722.67,631.38,722.87,633.93Z"/><path class="a4bfbb80-ebd7-4cf4-8107-baa33a566451" d="M102.33,763.95c0.2-2.55,1.76-3.72,3.92-3.33a8.61,8.61,0,0,1,6.66,5.68,3.13,3.13,0,0,1-2.94,4.11A11.48,11.48,0,0,1,102.33,763.95Z"/><path class="a4bfbb80-ebd7-4cf4-8107-baa33a566451" d="M728,277a1,1,0,0,0,.78.39A2.79,2.79,0,0,1,728,277h0Z"/><path class="a4bfbb80-ebd7-4cf4-8107-baa33a566451" d="M482,508.61c-1.37,0-2.74-.2-2.74-2.15C481,506.06,481.63,507.24,482,508.61Z"/></g></g></svg>