<svg id="fbcc4cb9-1a2a-4d8f-87a9-2094273908fb" data-name="Layer 1" xmlns="http://www.w3.org/2000/svg" xmlns:xlink="http://www.w3.org/1999/xlink" viewBox="0 0 1024 768"><defs><style>.\38 30f444a-fe39-409a-a5d9-0cc446a496c6{fill:none;}.\33 a5aac61-6c58-4373-899b-f8361ef54974{opacity:0.5;}.\34 679ccbf-2516-412a-8c3c-bf864cd1e4f3{clip-path:url(#6b2c196e-96a8-42e9-8dca-68c0ed338334);}.\31 11bb679-c59a-4971-8858-81f3a067eb24{opacity:0.18;}.\39 9287e08-f6fc-49eb-88db-134f7fecd611{fill:#fff;}</style><clipPath id="6b2c196e-96a8-42e9-8dca-68c0ed338334"><rect id="550666cc-9ea9-4ddc-b5c5-3c1ca5c47166" data-name="SVGID" class="830f444a-fe39-409a-a5d9-0cc446a496c6" x="2.98" y="2.01" width="1021.02" height="768.99"/></clipPath></defs><title>Fondo_blanco_FinalTema</title><g class="3a5aac61-6c58-4373-899b-f8361ef54974"><g class="4679ccbf-2516-412a-8c3c-bf864cd1e4f3"><g class="111bb679-c59a-4971-8858-81f3a067eb24"><path class="99287e08-f6fc-49eb-88db-134f7fecd611" d="M513.75,956.44h-0.26c-21.71,0-43.64-.71-65.18-2.1l65.13-569.07c3.57,0.23-3.68,0,0,0Zm65.72-2.15-66-569c3.55-.23-3.5.46,0,0L644.89,947.84C623.31,950.69,601.3,952.86,579.48,954.29Zm-196.57-6.34c-21.63-2.84-43.35-6.44-64.55-10.7l195.08-552c3.4,0.68-3.48-.46,0,0Zm326.67-10.88L513.44,385.26c3.4-.69-3.27.9,0,0l259.22,536.8C752,927.73,730.81,932.77,709.58,937.06ZM255.15,922.29c-20.61-5.64-41.16-12-61.09-19l319.38-518c3.22,1.13-3.3-.9,0,0ZM833.76,903L513.44,385.26c3.18-1.12-3.06,1.33,0,0L892.33,879.94C873.33,888.22,853.63,896,833.76,903ZM135.35,880.24C116.34,872,97.6,863,79.63,853.49L513.44,385.26c2.89,1.53-3.07-1.34,0,0Zm812.55-27L513.44,385.26c2.91-1.54-2.75,1.74,0,0l486.74,437.67C983.4,833.55,965.81,843.74,947.9,853.2ZM27.4,823.31c-16.75-10.59-33.1-21.85-48.57-33.48L513.44,385.26c2.55,1.92-2.77-1.75,0,0ZM1048.72,789.4L513.44,385.26c2.57-1.93-2.35,2.11,0,0l579.71,367.62C1079.1,765.49,1064.15,777.77,1048.72,789.4ZM-65.71,753.29C-79.79,740.69-93.3,727.46-105.87,714L513.44,385.26c2.07,2.22-2.33-2.08,0,0Zm1199-39.78L513.44,385.26c2-2.19-1.78,2.31,0,0l655.39,286.32C1157.85,685.88,1145.9,700,1133.31,713.51ZM-141.42,672.13c-11-14.3-21.31-29.14-30.61-44.1L513.44,385.26c1.49,2.4-1.77-2.3,0,0Zm1340.81-44.7L513.44,385.26c1.49-2.4-1.19,2.47,0,0l711.28,196.12A503.48,503.48,0,0,1,1199.39,627.43ZM-197.44,582a474.44,474.44,0,0,1-20-47.54L513.44,385.26c0.9,2.53-1.2-2.48,0,0Zm1442-48.18L513.44,385.26c0.9-2.53-.61,2.61,0,0l745.42,99.9A452.26,452.26,0,0,1,1244.6,533.83Zm-1476.33-48a440,440,0,0,1-8.61-49.25l753.77-51.33c0.31,2.7-.61-2.62,0,0Zm1499.11-50-754-50.62c0.32-2.74,0,2.79,0,0h0l756.77,0.45v0.78A435.18,435.18,0,0,1,1267.39,435.88ZM-243.22,388.6V386.5a435.94,435.94,0,0,1,2.74-48.71l753.93,47.47c-0.3,2.7,0-2.75,0,0h0l-756.67,1.63v1.7Zm756.66-3.33c-0.31-2.66.62,2.6,0,0l745.1-98.77a439.31,439.31,0,0,1,8.7,49.33Zm0,0L-232,288.52a452.06,452.06,0,0,1,14.19-48.7L513.44,385.26C512.55,387.79,514,382.66,513.44,385.26Zm0,0c-0.91-2.55,1.21,2.49,0,0l710.68-194.91a475.94,475.94,0,0,1,20,47.48Zm0,0L-198,192.25a503.9,503.9,0,0,1,25.25-46L513.44,385.26C512,387.68,514.64,382.78,513.44,385.26Zm0,0c-1.5-2.4,1.77,2.29,0,0l654.51-285c11,14.29,21.36,29.12,30.68,44.08Zm0,0L-142.29,102c10.94-14.28,22.85-28.39,35.42-41.92L513.44,385.26C511.38,387.48,515.22,382.94,513.44,385.26Zm0,0c-2.09-2.23,2.32,2.08,0,0L1092.11,19.2c14.09,12.58,27.62,25.79,40.21,39.25Zm0,0L-66.76,20.65c14-12.63,29-24.94,44.43-36.6L513.44,385.26C510.89,387.19,515.76,383.18,513.44,385.26Zm0,0c-2.57-1.93,2.77,1.75,0,0l485.45-436c16.76,10.56,33.11,21.8,48.61,33.43Zm0,0L26.13-49.5C42.88-60.13,60.45-70.33,78.34-79.81l435.1,465.07C510.52,386.81,516.19,383.52,513.44,385.26Zm0,0c-2.93-1.54,3.08,1.33,0,0l377.4-492.84c19,8.23,37.73,17.21,55.71,26.67Zm0,0L133.88-106.59c19-8.29,38.65-16.05,58.5-23.07L513.44,385.26C510.24,386.4,516.5,383.93,513.44,385.26Zm0,0c-3.13-1.1,3.27.89,0,0L771-149.52c20.72,5.65,41.34,12.05,61.3,19Zm0,0-260-534.09c20.65-5.69,41.89-10.76,63.13-15.06L513.44,385.26C510.08,385.94,516.71,384.36,513.44,385.26Zm0,0c-3.37-.67,3.45.45,0,0L643.13-175.06c21.67,2.83,43.42,6.41,64.66,10.65Zm0,0-132.25-560c21.53-2.87,43.52-5.06,65.35-6.51l66.9,566.48C509.85,385.5,516.94,384.8,513.44,385.26Zm0,0c-3.57-.23,3.64,0,0,0h0l-0.73-568.7h0.78c21.36,0,43,.68,64.2,2Z"/></g></g></g></svg>