<svg xmlns="http://www.w3.org/2000/svg" width="23.826" height="19.061" viewBox="0 0 23.826 19.061">
  <path id="Icon_awesome-city" data-name="Icon awesome-city" d="M22.933,7.148H17.87V.893A.893.893,0,0,0,16.976,0H11.615a.893.893,0,0,0-.893.893v2.68H8.339V.6a.6.6,0,0,0-.6-.6h-.6a.6.6,0,0,0-.6.6V3.574H4.17V.6a.6.6,0,0,0-.6-.6h-.6a.6.6,0,0,0-.6.6V3.574H.893A.893.893,0,0,0,0,4.467v13.4a1.191,1.191,0,0,0,1.191,1.191H22.635a1.191,1.191,0,0,0,1.191-1.191V8.041A.893.893,0,0,0,22.933,7.148ZM4.765,15.04a.447.447,0,0,1-.447.447H2.829a.447.447,0,0,1-.447-.447V13.551a.447.447,0,0,1,.447-.447H4.319a.447.447,0,0,1,.447.447Zm0-3.574a.447.447,0,0,1-.447.447H2.829a.447.447,0,0,1-.447-.447V9.977a.447.447,0,0,1,.447-.447H4.319a.447.447,0,0,1,.447.447Zm0-3.574a.447.447,0,0,1-.447.447H2.829a.447.447,0,0,1-.447-.447V6.4a.447.447,0,0,1,.447-.447H4.319a.447.447,0,0,1,.447.447ZM9.531,15.04a.447.447,0,0,1-.447.447H7.595a.447.447,0,0,1-.447-.447V13.551a.447.447,0,0,1,.447-.447H9.084a.447.447,0,0,1,.447.447Zm0-3.574a.447.447,0,0,1-.447.447H7.595a.447.447,0,0,1-.447-.447V9.977a.447.447,0,0,1,.447-.447H9.084a.447.447,0,0,1,.447.447Zm0-3.574a.447.447,0,0,1-.447.447H7.595a.447.447,0,0,1-.447-.447V6.4a.447.447,0,0,1,.447-.447H9.084a.447.447,0,0,1,.447.447Zm5.957,3.574a.447.447,0,0,1-.447.447H13.551a.447.447,0,0,1-.447-.447V9.977a.447.447,0,0,1,.447-.447H15.04a.447.447,0,0,1,.447.447Zm0-3.574a.447.447,0,0,1-.447.447H13.551a.447.447,0,0,1-.447-.447V6.4a.447.447,0,0,1,.447-.447H15.04a.447.447,0,0,1,.447.447Zm0-3.574a.447.447,0,0,1-.447.447H13.551a.447.447,0,0,1-.447-.447V2.829a.447.447,0,0,1,.447-.447H15.04a.447.447,0,0,1,.447.447ZM21.444,15.04a.447.447,0,0,1-.447.447H19.508a.447.447,0,0,1-.447-.447V13.551a.447.447,0,0,1,.447-.447H21a.447.447,0,0,1,.447.447Zm0-3.574a.447.447,0,0,1-.447.447H19.508a.447.447,0,0,1-.447-.447V9.977a.447.447,0,0,1,.447-.447H21a.447.447,0,0,1,.447.447Z" fill="#3589e7"/>
</svg>
