<svg xmlns="http://www.w3.org/2000/svg" width="24.41" height="24.409" viewBox="0 0 24.41 24.409">
  <path id="Icon_metro-earth" data-name="Icon metro-earth" d="M14.776,1.928a12.2,12.2,0,1,0,12.2,12.2,12.2,12.2,0,0,0-12.2-12.2Zm0,22.884a10.644,10.644,0,0,1-4.225-.869l5.558-6.252a.763.763,0,0,0,.193-.507V14.9a.763.763,0,0,0-.763-.763c-2.693,0-5.535-2.8-5.563-2.828a.763.763,0,0,0-.539-.223H6.385a.763.763,0,0,0-.763.763v4.577a.763.763,0,0,0,.422.682l2.63,1.315V22.9A10.686,10.686,0,0,1,5.125,9.556H7.91a.763.763,0,0,0,.539-.223L11.5,6.281a.763.763,0,0,0,.223-.539V3.9a10.709,10.709,0,0,1,7.73.634c-.1.083-.195.171-.287.263A4.577,4.577,0,0,0,22.4,12.608q.113,0,.227-.006a17.913,17.913,0,0,1-.2,8.875.76.76,0,0,0-.02.125,10.646,10.646,0,0,1-7.631,3.21Z" transform="translate(-2.571 -1.928)" fill="#3589e7"/>
</svg>
