<svg id="9613a00e-b64d-4265-96ce-719fe67be095" data-name="Layer 1" xmlns="http://www.w3.org/2000/svg" viewBox="0 0 600 600"><defs><style>.\30 785089e-ec69-4af0-803f-c7fd8592a7ac{fill:#f15a24;}.fd3d817d-6c97-4f89-a9cc-8597bb8097c9{fill:#fff;}</style></defs><title>Avatar_Alumno</title><circle class="0785089e-ec69-4af0-803f-c7fd8592a7ac" cx="301.74" cy="301.03" r="274.13" transform="translate(-118.51 372.18) rotate(-54.54)"/><path class="fd3d817d-6c97-4f89-a9cc-8597bb8097c9" d="M299.4,582.51A282.5,282.5,0,0,1,69.94,136.15a282.44,282.44,0,0,1,393.9-66.21h0a282.44,282.44,0,0,1-117,508.59A286.14,286.14,0,0,1,299.4,582.51Zm1.17-548.4a269.09,269.09,0,0,0-44.63,3.74A265.82,265.82,0,0,0,145.79,516.52a263.9,263.9,0,0,0,153.64,49.37,269.15,269.15,0,0,0,44.63-3.74A265.82,265.82,0,0,0,454.21,83.48,263.88,263.88,0,0,0,300.57,34.11Z"/><path class="fd3d817d-6c97-4f89-a9cc-8597bb8097c9" d="M211.55,318.31v52.5l91.88,50.14,91.88-50.14v-52.5l-91.87,50.14Zm91.88-133.61L159,263.44l144.38,78.75,118.13-64.44v90.69H447.8v-105Z"/></svg>