<svg xmlns="http://www.w3.org/2000/svg" viewBox="0 0 600 600"><defs><style>.b67edfda-7fcc-436d-b5e6-cdae01034a00{isolation:isolate;}.f4324f0d-d80d-4b35-a39a-2eb30bcf5fe3{fill:#fbb03b;}.\35 90fd28c-13bc-4916-b350-84a28af78521{fill:#fff;}.\38 8df8bb5-563a-42ad-9afb-99dd056ea20b{fill:#333;}.cbeb7376-efe1-4455-b93a-430fb71598a3{fill:#e6e6e6;}.\38 4eb94b2-4279-415b-9ffb-a08536870cfc{opacity:0.2;mix-blend-mode:multiply;}</style></defs><title>Fem_1</title><g class="b67edfda-7fcc-436d-b5e6-cdae01034a00"><g id="97bfb2ab-396d-4644-80fe-7cda7fac40e1" data-name="Layer 1"><circle class="f4324f0d-d80d-4b35-a39a-2eb30bcf5fe3" cx="300" cy="300" r="274.13" transform="translate(-118.39 370.33) rotate(-54.54)"/><path class="590fd28c-13bc-4916-b350-84a28af78521" d="M299.4,582.51A282.5,282.5,0,0,1,69.94,136.15a282.44,282.44,0,0,1,508.59,117A282.44,282.44,0,0,1,346.82,578.53,286.05,286.05,0,0,1,299.4,582.51Zm1.17-548.4a269.1,269.1,0,0,0-44.63,3.74A265.82,265.82,0,0,0,145.79,516.52a263.89,263.89,0,0,0,153.64,49.37,269.1,269.1,0,0,0,44.63-3.74A265.82,265.82,0,0,0,454.21,83.48,263.88,263.88,0,0,0,300.57,34.11Z"/><path class="88df8bb5-563a-42ad-9afb-99dd056ea20b" d="M461,237.91C461,303.45,598.66,475,322.24,483.17c-336.48,9.95-162-179.73-162-245.26s67.34-118.66,150.4-118.66S461,172.38,461,237.91Z"/><path class="590fd28c-13bc-4916-b350-84a28af78521" d="M431.24,280.12s-7.48-92.24-117.16-112.18S169.5,242.73,169.5,242.73l-10,104.7S132.1,464.59,266.72,474.57c74,5.48,114.9-18.44,136.67-41.08a86.2,86.2,0,0,0,23.72-56.15Z"/><path class="590fd28c-13bc-4916-b350-84a28af78521" d="M413.22,296.25S426.15,263.9,452,278.69s28.65,79.48-34.19,71.16"/><path class="88df8bb5-563a-42ad-9afb-99dd056ea20b" d="M438.17,295.33a28,28,0,0,0-4.5-.06,19.84,19.84,0,0,0-2.13.26,14.06,14.06,0,0,0-2,.5,9.74,9.74,0,0,0-1.76.79,7.13,7.13,0,0,0-1.43,1.07,7.86,7.86,0,0,0-.58.63c-0.18.22-.32,0.47-0.49,0.7s-0.27.51-.42,0.75-0.22.55-.33,0.81a11.71,11.71,0,0,0-.47,1.76c-0.15.59-.16,1.26-0.25,1.89s-0.08,1.31,0,2,0,1.35.1,2,0.12,1.37.23,2.07,0.17,1.39.31,2.09,0.23,1.4.39,2.1l0.45,2.11-3.83-2c0.7-.26,1.29-0.43,1.94-0.61s1.27-.34,1.91-0.49a31.83,31.83,0,0,1,3.93-.63,21.45,21.45,0,0,1,4.14,0,14.56,14.56,0,0,1,2.16.42,9.81,9.81,0,0,1,2.18.88c0.35,0.2.7,0.45,1,.68a11.28,11.28,0,0,1,.93.87,7.17,7.17,0,0,1,1.27,2.15,8,8,0,0,1,.45,2.27v1.08c0,0.35-.09.69-0.14,1a13.41,13.41,0,0,1-.47,1.95c-0.22.61-.45,1.22-0.71,1.8s-0.54,1.15-.86,1.69-0.65,1.08-1,1.6c0.07-.63.17-1.24,0.25-1.85l0.19-1.81c0-.6,0-1.2.07-1.78l0-.86a4.58,4.58,0,0,0-.07-0.83c0-.27-0.06-0.55-0.12-0.8l-0.19-.74c-0.07-.24-0.18-0.45-0.26-0.66a5.35,5.35,0,0,0-.32-0.57,3.35,3.35,0,0,0-.81-0.83l-0.49-.29c-0.2-.07-0.36-0.16-0.56-0.22a8.51,8.51,0,0,0-2.76-.3c-0.51,0-1,.05-1.56.12s-1.07.16-1.61,0.26a32.83,32.83,0,0,0-3.26.8c-0.54.16-1.09,0.32-1.62,0.5s-1.09.39-1.54,0.55l-3.11,1.16-0.73-3.17-0.53-2.3c-0.19-.76-0.29-1.56-0.43-2.34s-0.23-1.58-.31-2.38-0.13-1.61-.16-2.43a23.86,23.86,0,0,1,0-2.47c0-.82.17-1.68,0.26-2.51a18.52,18.52,0,0,1,.62-2.54,13.65,13.65,0,0,1,1-2.49c0.24-.4.46-0.8,0.72-1.18s0.56-.75.87-1.11,0.66-.68,1-1a11.84,11.84,0,0,1,1.13-.83,8.43,8.43,0,0,1,1.22-.66,8.62,8.62,0,0,1,1.27-.48A11.23,11.23,0,0,1,429,293a13.72,13.72,0,0,1,2.49.05,16.18,16.18,0,0,1,2.37.44,22.18,22.18,0,0,1,2.24.76A15,15,0,0,1,438.17,295.33Z"/><ellipse class="88df8bb5-563a-42ad-9afb-99dd056ea20b" cx="212.77" cy="305.58" rx="14.13" ry="16.74"/><circle class="88df8bb5-563a-42ad-9afb-99dd056ea20b" cx="317.26" cy="299.43" r="16.82"/><path class="88df8bb5-563a-42ad-9afb-99dd056ea20b" d="M219,261.66c-9.19-3.23-24.77-4.62-37.64,14.65a1.25,1.25,0,0,0,1.9,1.6c7.21-7,19.19-15.11,35.2-13.84A1.24,1.24,0,0,0,219,261.66Z"/><path class="88df8bb5-563a-42ad-9afb-99dd056ea20b" d="M310.23,249.42c12.55-4.41,33.82-6.31,51.38,20A1.7,1.7,0,0,1,359,271.6C349.17,262,332.82,251,311,252.71A1.7,1.7,0,0,1,310.23,249.42Z"/><polygon class="88df8bb5-563a-42ad-9afb-99dd056ea20b" points="328.68 290.11 338.24 285.12 333.67 297.58 328.68 290.11"/><polygon class="88df8bb5-563a-42ad-9afb-99dd056ea20b" points="202.05 297.63 191.35 296.37 200.05 306.39 202.05 297.63"/><path class="88df8bb5-563a-42ad-9afb-99dd056ea20b" d="M295.72,161.58s-18.31,78.48-129.06,109l3-29.23S196.31,152.86,295.72,161.58Z"/><path class="88df8bb5-563a-42ad-9afb-99dd056ea20b" d="M240.89,179.6s81.5,87,191.38,78.75c0,0-24.72-96.15-154.75-95.23Z"/><path class="88df8bb5-563a-42ad-9afb-99dd056ea20b" d="M245,362.53s2.22-33.79,38.22,1.11Z"/><path class="88df8bb5-563a-42ad-9afb-99dd056ea20b" d="M245,362.53s-7.5,19.82,14.68,20.49c9.14,0.28,27.42,1.66,23.54-19.39Z"/><path class="590fd28c-13bc-4916-b350-84a28af78521" d="M245,362.53s7.55,12.74,38.22,1.11C283.26,363.64,256.12,370.77,245,362.53Z"/><ellipse class="cbeb7376-efe1-4455-b93a-430fb71598a3" cx="358.04" cy="335.67" rx="20.77" ry="11.63"/><ellipse class="cbeb7376-efe1-4455-b93a-430fb71598a3" cx="186.93" cy="340.25" rx="14.73" ry="8.46"/><path class="590fd28c-13bc-4916-b350-84a28af78521" d="M327,135.15s83.09,10,99.7,78.1C426.72,213.25,405.12,155.92,327,135.15Z"/><path class="88df8bb5-563a-42ad-9afb-99dd056ea20b" d="M236.45,135.15S136.75,165.89,155,257.29l15.79,11.63Z"/><path class="590fd28c-13bc-4916-b350-84a28af78521" d="M194.08,175s-36.56,18.28-29.91,68.13c0,0-2.49-16.62,10.8-31.57s-0.83,17.45,16.62,9.14,21.6-19.94,21.6-19.94-27.42,24.93-22.43,3.32S180,198.3,180,198.3,184.94,177.53,194.08,175Z"/><path class="88df8bb5-563a-42ad-9afb-99dd056ea20b" d="M410.66,294.4l21-19.39-2.22-19.39-26,1.66S420.08,270,410.66,294.4Z"/><circle class="88df8bb5-563a-42ad-9afb-99dd056ea20b" cx="434.2" cy="340.37" r="6.65"/><g class="84eb94b2-4279-415b-9ffb-a08536870cfc"><path class="88df8bb5-563a-42ad-9afb-99dd056ea20b" d="M228.42,138.75s83.64-20.49,140.69,15.51C369.12,154.26,317.6,111.61,228.42,138.75Z"/></g><g class="84eb94b2-4279-415b-9ffb-a08536870cfc"><path class="88df8bb5-563a-42ad-9afb-99dd056ea20b" d="M283.81,182s-10,39.88-75.89,73.12C207.93,255.07,306.52,208,283.81,182Z"/></g><g class="84eb94b2-4279-415b-9ffb-a08536870cfc"><path class="88df8bb5-563a-42ad-9afb-99dd056ea20b" d="M166.66,270.58l-6.37,58.71s5.54-63.15-5.26-72C155,257.29,163.06,272.24,166.66,270.58Z"/></g><g class="84eb94b2-4279-415b-9ffb-a08536870cfc"><path class="88df8bb5-563a-42ad-9afb-99dd056ea20b" d="M403.46,257.29s35.45,7.2,40.44-10.52C443.89,246.76,451.09,280,403.46,257.29Z"/></g><path class="590fd28c-13bc-4916-b350-84a28af78521" d="M256.39,351.45a7.57,7.57,0,0,0-7.48,5.54Z"/></g></g></svg>