<svg xmlns="http://www.w3.org/2000/svg" viewBox="0 0 600 600"><defs><style>.b6336c46-2660-47af-9835-79cf24e043dd{isolation:isolate;}.\38 eaf9161-318d-4b8b-afca-d3d31c4e09eb{fill:#a381bd;}.\36 c39378f-7265-4f7b-a253-196a40d51792{fill:#fff;}.f7739aeb-73b3-4ef5-b947-17c7080310b9{fill:#333;}.d66682cd-9895-43fa-96e0-5e1e06638fe1{fill:#e6e6e6;}.\36 d415d0e-3e41-44f5-99c8-9a2cd7841e94,.a2b2762c-bda0-4b20-9252-75003c065172{opacity:0.2;}.a2b2762c-bda0-4b20-9252-75003c065172{mix-blend-mode:multiply;}</style></defs><title>Fem_2</title><g class="b6336c46-2660-47af-9835-79cf24e043dd"><g id="06025d39-2a17-4441-b925-958fd88b99ca" data-name="Layer 1"><circle class="8eaf9161-318d-4b8b-afca-d3d31c4e09eb" cx="300" cy="300" r="274.13" transform="translate(-118.39 370.33) rotate(-54.54)"/><path class="6c39378f-7265-4f7b-a253-196a40d51792" d="M299.4,582.51A282.5,282.5,0,0,1,69.94,136.15a282.44,282.44,0,0,1,508.59,117A282.44,282.44,0,0,1,346.82,578.53,286.05,286.05,0,0,1,299.4,582.51Zm1.17-548.4a269.1,269.1,0,0,0-44.63,3.74A265.82,265.82,0,0,0,145.79,516.52a263.89,263.89,0,0,0,153.64,49.37,269.1,269.1,0,0,0,44.63-3.74A265.82,265.82,0,0,0,454.21,83.48,263.88,263.88,0,0,0,300.57,34.11Z"/><path class="f7739aeb-73b3-4ef5-b947-17c7080310b9" d="M169.15,226.55s-42.37,92.23-86.41,109.67c0,0,21.6,50.68,51.51,64l12.46-19.11-0.83,26.59s16.62,10.8,27.42,8.31,206.06-3.32,206.06-3.32,73.12,24.1,110.51-5l-7.48-29.91,18.28,27.42s35.73-10.8,43.21-28.25c0,0-80.59-95.55-88.9-155.37S345.3,136,300.43,146.78C300.43,146.78,195.74,148.44,169.15,226.55Z"/><path class="6c39378f-7265-4f7b-a253-196a40d51792" d="M431.24,280.12s-7.48-92.24-117.16-112.18S169.5,242.73,169.5,242.73l-10,104.7S149.2,455,283.81,465c74,5.48,87.79-7.75,119.58-31.52,16.8-12.56,22.82-35.19,23.72-56.15Z"/><path class="6c39378f-7265-4f7b-a253-196a40d51792" d="M413.22,296.25S426.15,263.9,452,278.69s28.65,79.48-34.19,71.16"/><path class="f7739aeb-73b3-4ef5-b947-17c7080310b9" d="M438.17,295.33a28,28,0,0,0-4.5-.06,19.84,19.84,0,0,0-2.13.26,14.06,14.06,0,0,0-2,.5,9.74,9.74,0,0,0-1.76.79,7.13,7.13,0,0,0-1.43,1.07,7.86,7.86,0,0,0-.58.63c-0.18.22-.32,0.47-0.49,0.7s-0.27.51-.42,0.75-0.22.55-.33,0.81a11.71,11.71,0,0,0-.47,1.76c-0.15.59-.16,1.26-0.25,1.89s-0.08,1.31,0,2,0,1.35.1,2,0.12,1.37.23,2.07,0.17,1.39.31,2.09,0.23,1.4.39,2.1l0.45,2.11-3.83-2c0.7-.26,1.29-0.43,1.94-0.61s1.27-.34,1.91-0.49a31.83,31.83,0,0,1,3.93-.63,21.45,21.45,0,0,1,4.14,0,14.56,14.56,0,0,1,2.16.42,9.81,9.81,0,0,1,2.18.88c0.35,0.2.7,0.45,1,.68a11.28,11.28,0,0,1,.93.87,7.17,7.17,0,0,1,1.27,2.15,8,8,0,0,1,.45,2.27v1.08c0,0.35-.09.69-0.14,1a13.41,13.41,0,0,1-.47,1.95c-0.22.61-.45,1.22-0.71,1.8s-0.54,1.15-.86,1.69-0.65,1.08-1,1.6c0.07-.63.17-1.24,0.25-1.85l0.19-1.81c0-.6,0-1.2.07-1.78l0-.86a4.58,4.58,0,0,0-.07-0.83c0-.27-0.06-0.55-0.12-0.8l-0.19-.74c-0.07-.24-0.18-0.45-0.26-0.66a5.35,5.35,0,0,0-.32-0.57,3.35,3.35,0,0,0-.81-0.83l-0.49-.29c-0.2-.07-0.36-0.16-0.56-0.22a8.51,8.51,0,0,0-2.76-.3c-0.51,0-1,.05-1.56.12s-1.07.16-1.61,0.26a32.83,32.83,0,0,0-3.26.8c-0.54.16-1.09,0.32-1.62,0.5s-1.09.39-1.54,0.55l-3.11,1.16-0.73-3.17-0.53-2.3c-0.19-.76-0.29-1.56-0.43-2.34s-0.23-1.58-.31-2.38-0.13-1.61-.16-2.43a23.86,23.86,0,0,1,0-2.47c0-.82.17-1.68,0.26-2.51a18.52,18.52,0,0,1,.62-2.54,13.65,13.65,0,0,1,1-2.49c0.24-.4.46-0.8,0.72-1.18s0.56-.75.87-1.11,0.66-.68,1-1a11.84,11.84,0,0,1,1.13-.83,8.43,8.43,0,0,1,1.22-.66,8.62,8.62,0,0,1,1.27-.48A11.23,11.23,0,0,1,429,293a13.72,13.72,0,0,1,2.49.05,16.18,16.18,0,0,1,2.37.44,22.18,22.18,0,0,1,2.24.76A15,15,0,0,1,438.17,295.33Z"/><path class="f7739aeb-73b3-4ef5-b947-17c7080310b9" d="M226.21,283.81c-9.19-3.23-24.77-4.62-37.64,14.65a1.25,1.25,0,0,0,1.9,1.6c7.21-7,19.19-15.11,35.2-13.84A1.24,1.24,0,0,0,226.21,283.81Z"/><path class="f7739aeb-73b3-4ef5-b947-17c7080310b9" d="M315.49,277.25c12.55-4.41,33.82-6.31,51.38,20a1.7,1.7,0,0,1-2.59,2.18c-9.84-9.55-26.2-20.63-48.05-18.89A1.7,1.7,0,0,1,315.49,277.25Z"/><ellipse class="d66682cd-9895-43fa-96e0-5e1e06638fe1" cx="366.76" cy="338.99" rx="20.77" ry="11.63"/><ellipse class="d66682cd-9895-43fa-96e0-5e1e06638fe1" cx="190.26" cy="349.39" rx="14.73" ry="8.46"/><path class="f7739aeb-73b3-4ef5-b947-17c7080310b9" d="M273.76,151.55S183,173.83,159.18,279.17c0,0,27.94-.8,81.81-24.66l18.2-36.58,3.35,39.33s81,30.21,128.73.86c0,0-8-31.24-18.35-46.39l21.36,39.86s7.89,7.65,25.65-14.09C419.93,237.5,407,126.83,273.76,151.55Z"/><path class="f7739aeb-73b3-4ef5-b947-17c7080310b9" d="M374.1,212.14L406.78,318.5S420.49,276.81,433,276c0,0-9.55-41.13-20.36-50.27Z"/><ellipse class="f7739aeb-73b3-4ef5-b947-17c7080310b9" cx="324.31" cy="313.99" rx="13.91" ry="17.46"/><polygon class="f7739aeb-73b3-4ef5-b947-17c7080310b9" points="331.27 300.11 341.97 293.85 335.02 305.93 331.27 300.11"/><ellipse class="f7739aeb-73b3-4ef5-b947-17c7080310b9" cx="218.21" cy="323.09" rx="11.58" ry="16.2" transform="translate(-33.67 25.5) rotate(-6.21)"/><polygon class="f7739aeb-73b3-4ef5-b947-17c7080310b9" points="210.4 313.08 200.44 309.17 208.5 318.98 210.4 313.08"/><path class="f7739aeb-73b3-4ef5-b947-17c7080310b9" d="M321.46,367l-60.94,13.34a3.45,3.45,0,0,0-1.1,6.3c11.38,7.08,36.89,16.66,65.3-13.89A3.46,3.46,0,0,0,321.46,367Z"/><path class="6c39378f-7265-4f7b-a253-196a40d51792" d="M184.28,233.81s9.32-22.39,14.31-20.11c6.29,2.88,25.4-.45,39.4-17.21,0,0,8.77-8.62,6.23,4.09s-10.5,34.1-15.08,29.75,2.13-15.45-11.52-9.45-19.63,3.55-19.42,1.28S191.21,220.43,184.28,233.81Z"/><path class="6c39378f-7265-4f7b-a253-196a40d51792" d="M273.84,195s-1.66,29.91,9.14,31.57c0,0,14.12-15.79,38.22-8.31s57.33,14.12,63.15-.83c0,0-26.59,12.46-60.65-10.8s-36.56,4.15-36.56,4.15Z"/><g class="6d415d0e-3e41-44f5-99c8-9a2cd7841e94"><polygon class="f7739aeb-73b3-4ef5-b947-17c7080310b9" points="241 254.5 260.96 236.52 259.19 217.93 241 254.5"/></g><g class="6d415d0e-3e41-44f5-99c8-9a2cd7841e94"><path class="f7739aeb-73b3-4ef5-b947-17c7080310b9" d="M388.92,259.37l12,40.3-12.88-31.57s-13.71,3.32-22-.42Z"/></g><g class="a2b2762c-bda0-4b20-9252-75003c065172"><path class="f7739aeb-73b3-4ef5-b947-17c7080310b9" d="M152.54,278.48s26.59,0,44.87-7.89C197.4,270.58,171.23,290.11,152.54,278.48Z"/></g><g class="a2b2762c-bda0-4b20-9252-75003c065172"><path class="f7739aeb-73b3-4ef5-b947-17c7080310b9" d="M414.26,240.12s-17.17,19.66-48.19,27.56C366.07,267.67,412,262.27,414.26,240.12Z"/></g><g class="a2b2762c-bda0-4b20-9252-75003c065172"><path class="f7739aeb-73b3-4ef5-b947-17c7080310b9" d="M482.39,377.76L469.65,358.1s16.62,50.41,1.11,58.71l19.11-9.14Z"/></g><g class="a2b2762c-bda0-4b20-9252-75003c065172"><path class="f7739aeb-73b3-4ef5-b947-17c7080310b9" d="M428.11,350.62s3.32,48.74-12.46,69.52c0,0,22.16-23.26,18.28-69.79Z"/></g><g class="a2b2762c-bda0-4b20-9252-75003c065172"><path class="f7739aeb-73b3-4ef5-b947-17c7080310b9" d="M146.72,381.09l13.57-45.42s-7.75,43.21,18.83,79.49c0,0-16.34,5.54-33.23-7.48Z"/></g></g></g></svg>