<svg xmlns="http://www.w3.org/2000/svg" viewBox="0 0 600 600"><defs><style>.\33 77bd831-75d5-4fc1-8c2d-6d702952d83d{isolation:isolate;}.\38 d83d8a8-c5da-4154-8c8a-18c17398e674{fill:#d9e021;}.c03070a0-93b1-41e3-a210-a36d20c2b2e5{fill:#fff;}.\33 d7d03a6-ce24-4989-b8cf-ce5e8465a366{fill:#333;}.e599a1ae-786d-4449-950d-601e06a26b71{opacity:0.2;mix-blend-mode:multiply;}</style></defs><title>Fem_3</title><g class="377bd831-75d5-4fc1-8c2d-6d702952d83d"><g id="1296f733-8431-4fb5-8dff-6f5f440944df" data-name="Layer 1"><circle class="8d83d8a8-c5da-4154-8c8a-18c17398e674" cx="300" cy="300" r="274.13" transform="translate(-118.39 370.33) rotate(-54.54)"/><path class="c03070a0-93b1-41e3-a210-a36d20c2b2e5" d="M299.4,582.51A282.5,282.5,0,0,1,69.94,136.15a282.44,282.44,0,0,1,508.59,117A282.44,282.44,0,0,1,346.82,578.53,286.05,286.05,0,0,1,299.4,582.51Zm1.17-548.4a269.1,269.1,0,0,0-44.63,3.74A265.82,265.82,0,0,0,145.79,516.52a263.89,263.89,0,0,0,153.64,49.37,269.1,269.1,0,0,0,44.63-3.74A265.82,265.82,0,0,0,454.21,83.48,263.88,263.88,0,0,0,300.57,34.11Z"/><path class="3d7d03a6-ce24-4989-b8cf-ce5e8465a366" d="M461,237.91c0,65.53,13.67,179.4-129.85,180.56-204.39,1.66-170.95-115-170.95-180.56s67.34-118.66,150.4-118.66S461,172.38,461,237.91Z"/><path class="c03070a0-93b1-41e3-a210-a36d20c2b2e5" d="M431.35,275.94s-7.21-89-113-108.2-139.43,72.13-139.43,72.13l-9.62,101S162,445.9,278,454.2c71.41,5.11,91.23-7.37,118-36.56,15.59-17,30.52-27.73,31.38-48Z"/><path class="c03070a0-93b1-41e3-a210-a36d20c2b2e5" d="M413.22,296.25S426.15,263.9,452,278.69s28.65,79.48-34.19,71.16"/><path class="3d7d03a6-ce24-4989-b8cf-ce5e8465a366" d="M438.17,295.33a28,28,0,0,0-4.5-.06,19.84,19.84,0,0,0-2.13.26,14.06,14.06,0,0,0-2,.5,9.74,9.74,0,0,0-1.76.79,7.13,7.13,0,0,0-1.43,1.07,7.86,7.86,0,0,0-.58.63c-0.18.22-.32,0.47-0.49,0.7s-0.27.51-.42,0.75-0.22.55-.33,0.81a11.71,11.71,0,0,0-.47,1.76c-0.15.59-.16,1.26-0.25,1.89s-0.08,1.31,0,2,0,1.35.1,2,0.12,1.37.23,2.07,0.17,1.39.31,2.09,0.23,1.4.39,2.1l0.45,2.11-3.83-2c0.7-.26,1.29-0.43,1.94-0.61s1.27-.34,1.91-0.49a31.83,31.83,0,0,1,3.93-.63,21.45,21.45,0,0,1,4.14,0,14.56,14.56,0,0,1,2.16.42,9.81,9.81,0,0,1,2.18.88c0.35,0.2.7,0.45,1,.68a11.28,11.28,0,0,1,.93.87,7.17,7.17,0,0,1,1.27,2.15,8,8,0,0,1,.45,2.27v1.08c0,0.35-.09.69-0.14,1a13.41,13.41,0,0,1-.47,1.95c-0.22.61-.45,1.22-0.71,1.8s-0.54,1.15-.86,1.69-0.65,1.08-1,1.6c0.07-.63.17-1.24,0.25-1.85l0.19-1.81c0-.6,0-1.2.07-1.78l0-.86a4.58,4.58,0,0,0-.07-0.83c0-.27-0.06-0.55-0.12-0.8l-0.19-.74c-0.07-.24-0.18-0.45-0.26-0.66a5.35,5.35,0,0,0-.32-0.57,3.35,3.35,0,0,0-.81-0.83l-0.49-.29c-0.2-.07-0.36-0.16-0.56-0.22a8.51,8.51,0,0,0-2.76-.3c-0.51,0-1,.05-1.56.12s-1.07.16-1.61,0.26a32.83,32.83,0,0,0-3.26.8c-0.54.16-1.09,0.32-1.62,0.5s-1.09.39-1.54,0.55l-3.11,1.16-0.73-3.17-0.53-2.3c-0.19-.76-0.29-1.56-0.43-2.34s-0.23-1.58-.31-2.38-0.13-1.61-.16-2.43a23.86,23.86,0,0,1,0-2.47c0-.82.17-1.68,0.26-2.51a18.52,18.52,0,0,1,.62-2.54,13.65,13.65,0,0,1,1-2.49c0.24-.4.46-0.8,0.72-1.18s0.56-.75.87-1.11,0.66-.68,1-1a11.84,11.84,0,0,1,1.13-.83,8.43,8.43,0,0,1,1.22-.66,8.62,8.62,0,0,1,1.27-.48A11.23,11.23,0,0,1,429,293a13.72,13.72,0,0,1,2.49.05,16.18,16.18,0,0,1,2.37.44,22.18,22.18,0,0,1,2.24.76A15,15,0,0,1,438.17,295.33Z"/><path class="3d7d03a6-ce24-4989-b8cf-ce5e8465a366" d="M226.9,305.58c0,9.25-6.74,11.95-14.55,11.95s-13.72-2.7-13.72-11.95,6.33-16.74,14.13-16.74S226.9,296.33,226.9,305.58Z"/><path class="3d7d03a6-ce24-4989-b8cf-ce5e8465a366" d="M334.08,301.77c0,10.58-6.91,12.57-16.2,12.57s-17.45-2-17.45-12.57S308,282.6,317.26,282.6,334.08,291.18,334.08,301.77Z"/><path class="3d7d03a6-ce24-4989-b8cf-ce5e8465a366" d="M224.83,264.56c-9.19-3.23-24.77-4.62-37.64,14.65a1.25,1.25,0,0,0,1.9,1.6c7.21-7,19.19-15.11,35.2-13.84A1.24,1.24,0,0,0,224.83,264.56Z"/><path class="3d7d03a6-ce24-4989-b8cf-ce5e8465a366" d="M310.23,249.42c12.55-4.41,33.82-6.31,51.38,20A1.7,1.7,0,0,1,359,271.6C349.17,262,332.82,251,311,252.71A1.7,1.7,0,0,1,310.23,249.42Z"/><polygon class="3d7d03a6-ce24-4989-b8cf-ce5e8465a366" points="330.65 293.4 340.96 290.26 334.17 301.67 330.65 293.4"/><polygon class="3d7d03a6-ce24-4989-b8cf-ce5e8465a366" points="202.05 297.63 191.35 296.37 200.05 306.39 202.05 297.63"/><path class="3d7d03a6-ce24-4989-b8cf-ce5e8465a366" d="M289.63,166.72s-17.45,74.78-123,103.86l2.83-27.85S194.91,158.42,289.63,166.72Z"/><path class="3d7d03a6-ce24-4989-b8cf-ce5e8465a366" d="M321.86,360.18s-36.29,30.68-82.69,12.07C239.17,372.26,286.18,425.74,321.86,360.18Z"/><path class="3d7d03a6-ce24-4989-b8cf-ce5e8465a366" d="M422.57,351.18S396,339.54,391.83,371.95s24.1,38.22-13.29,43.21-16.62,51.51,5,67.3S363.58,509,363.58,509s72.29-17.45,33.23-43.21c0,0-15-18.28,12.46-24.93s63.15-24.1,36.56-51.51c0,0,27.83-29.91,7.89-43.21Z"/><path class="3d7d03a6-ce24-4989-b8cf-ce5e8465a366" d="M162.51,334.56s-31.57,21.6-10,42.65,12.74,26.59,4.43,32.68-3.88,33.23,12.19,38.22S188,476.91,188,476.91s21-43.76-10.52-45.42c0,0,25.48-8.31,9.42-28.25,0,0-20.22-30.88-17.52-67.85Z"/><path class="3d7d03a6-ce24-4989-b8cf-ce5e8465a366" d="M244.49,231S332,172.82,394,203.84c0,0-38.22-57.61-110.78-44.31S244.49,231,244.49,231Z"/><path class="3d7d03a6-ce24-4989-b8cf-ce5e8465a366" d="M329.51,195s30.74,65.64,88.9,87.24L432.33,276S420.08,155.09,329.51,195Z"/><path class="3d7d03a6-ce24-4989-b8cf-ce5e8465a366" d="M332,194.14s-3.6,33.79,25.2,52.62c0,0-36-14.4-33.79-48.74C323.42,198,328.4,186.94,332,194.14Z"/><path class="c03070a0-93b1-41e3-a210-a36d20c2b2e5" d="M191.86,188.33s-18.28,16.06-12.74,37.11c0,0,2.77,8.86,11.08-6.09s18.83-30.47,23.26-17.73,27.14-24.93,48.19-26c0,0-24.93-5-40.44,10.52,0,0-12.19-7.75-21,6.09C200.17,192.2,179.68,221.56,191.86,188.33Z"/><g class="e599a1ae-786d-4449-950d-601e06a26b71"><path class="3d7d03a6-ce24-4989-b8cf-ce5e8465a366" d="M332,199.13s0.83-50.68,74.78-41.54C406.78,157.58,356.1,159.25,332,199.13Z"/></g><g class="e599a1ae-786d-4449-950d-601e06a26b71"><path class="3d7d03a6-ce24-4989-b8cf-ce5e8465a366" d="M164.17,266.15S193.53,272.8,246.7,229C246.7,229,200.17,281.11,164.17,266.15Z"/></g><path class="3d7d03a6-ce24-4989-b8cf-ce5e8465a366" d="M407.34,276.12s-9.42,4.43.55,13.29c0,0-9.42,0-1.66,9.42,0,0-4.43-2.77,3.88-5s8.31-11.63,8.31-11.63Z"/><g class="e599a1ae-786d-4449-950d-601e06a26b71"><path class="3d7d03a6-ce24-4989-b8cf-ce5e8465a366" d="M445.83,389.4a50.28,50.28,0,0,1-22,14.12S452.06,399,445.83,389.4Z"/></g><g class="e599a1ae-786d-4449-950d-601e06a26b71"><path class="3d7d03a6-ce24-4989-b8cf-ce5e8465a366" d="M323.42,198s-1.38,14,4,21.46c0,0-9.55-8.72-8.31-17,0,0-27,3.74-38.64,9.55C280.49,212,307.77,198.57,323.42,198Z"/></g><g class="e599a1ae-786d-4449-950d-601e06a26b71"><path class="3d7d03a6-ce24-4989-b8cf-ce5e8465a366" d="M169.36,335.39s-5.19,29.91,20.84,73.12C190.2,408.51,148.52,363.64,169.36,335.39Z"/></g><g class="e599a1ae-786d-4449-950d-601e06a26b71"><path class="3d7d03a6-ce24-4989-b8cf-ce5e8465a366" d="M177.46,431.49s-19.32-3.46-14.33,1.73S177.46,431.49,177.46,431.49Z"/></g><g class="e599a1ae-786d-4449-950d-601e06a26b71"><path class="3d7d03a6-ce24-4989-b8cf-ce5e8465a366" d="M396.4,399.78s12,13.29-16.2,15c0,0,12-7.89,11.63-28.25C391.83,386.49,394.32,395.84,396.4,399.78Z"/></g></g></g></svg>