<svg xmlns="http://www.w3.org/2000/svg" viewBox="0 0 600 600"><defs><style>.e2c8beab-8c10-43dc-9e5f-2381c4f145bb{isolation:isolate;}.f517872d-130d-433e-b540-b788becf2d36{fill:#d13b51;}.fab4fce7-97b6-4202-91ab-0fd8567627de{fill:#fff;}.cd03c6f0-0c6b-46d7-9963-9ef22eb89f9a{fill:#333;}.\36 7c3ab0b-87b0-4b65-b4ca-376650cc565f{opacity:0.2;mix-blend-mode:multiply;}</style></defs><title>Fem_4</title><g class="e2c8beab-8c10-43dc-9e5f-2381c4f145bb"><g id="8790ccc4-d7dd-481c-8031-1e01cd628f68" data-name="Layer 1"><circle class="f517872d-130d-433e-b540-b788becf2d36" cx="300" cy="300" r="274.13" transform="translate(-118.39 370.33) rotate(-54.54)"/><path class="fab4fce7-97b6-4202-91ab-0fd8567627de" d="M299.4,582.51A282.5,282.5,0,0,1,69.94,136.15a282.44,282.44,0,0,1,508.59,117A282.44,282.44,0,0,1,346.82,578.53,286.05,286.05,0,0,1,299.4,582.51Zm1.17-548.4a269.1,269.1,0,0,0-44.63,3.74A265.82,265.82,0,0,0,145.79,516.52a263.89,263.89,0,0,0,153.64,49.37,269.1,269.1,0,0,0,44.63-3.74A265.82,265.82,0,0,0,454.21,83.48,263.88,263.88,0,0,0,300.57,34.11Z"/><path class="cd03c6f0-0c6b-46d7-9963-9ef22eb89f9a" d="M487.51,247.28c0,70.71,14.75,193.56-140.11,194.82C126.87,443.9,163,318,163,247.28s72.65-128,162.28-128S487.51,176.57,487.51,247.28Z"/><path class="fab4fce7-97b6-4202-91ab-0fd8567627de" d="M448.59,370.5l6.9-82.18s-7.78-96-121.91-116.74S183.13,249.4,183.13,249.4l-10.38,109s0.13,107.05,125.34,116C298.09,474.38,422.26,482,448.59,370.5Z"/><path class="fab4fce7-97b6-4202-91ab-0fd8567627de" d="M435.92,310.23s14-34.9,41.88-18.95,30.91,85.75-36.89,76.78"/><path class="cd03c6f0-0c6b-46d7-9963-9ef22eb89f9a" d="M462.84,309.23a29.6,29.6,0,0,0-4.84-.14,21.3,21.3,0,0,0-2.31.26,15.24,15.24,0,0,0-2.17.52,10.61,10.61,0,0,0-1.93.84,7.83,7.83,0,0,0-1.59,1.16,8.66,8.66,0,0,0-.65.69c-0.2.24-.36,0.52-0.55,0.76s-0.31.56-.47,0.82-0.25.6-.37,0.89a12.64,12.64,0,0,0-.53,1.93c-0.17.65-.18,1.38-0.29,2.06s-0.09,1.43,0,2.17,0,1.46.11,2.22,0.13,1.49.24,2.25,0.18,1.51.34,2.27,0.25,1.52.42,2.28l0.48,2.28-3.83-2c0.75-.28,1.38-0.46,2.07-0.66s1.36-.36,2-0.53a34.32,34.32,0,0,1,4.21-.69,23,23,0,0,1,4.43,0,15.46,15.46,0,0,1,2.31.44,10.45,10.45,0,0,1,2.31.93c0.38,0.21.74,0.48,1.1,0.72a12.13,12.13,0,0,1,1,.92,9.23,9.23,0,0,1,.79,1.09,7.59,7.59,0,0,1,.57,1.18,8.59,8.59,0,0,1,.49,2.4v1.15c0,0.38-.09.74-0.14,1.1a14.61,14.61,0,0,1-.48,2.09c-0.23.66-.47,1.31-0.74,1.94s-0.57,1.24-.9,1.83-0.68,1.17-1,1.73c0.08-.67.2-1.33,0.29-2l0.24-2c0-.65.07-1.29,0.11-1.92l0-.93a5,5,0,0,0-.06-0.91c0-.29-0.05-0.59-0.12-0.87l-0.19-.82c-0.08-.26-0.19-0.49-0.28-0.73a5.91,5.91,0,0,0-.35-0.64,3.79,3.79,0,0,0-.89-1l-0.54-.34c-0.22-.08-0.4-0.18-0.62-0.25a8.45,8.45,0,0,0-1.43-.3,10.94,10.94,0,0,0-1.61-.06c-0.56,0-1.13.05-1.7,0.12s-1.16.17-1.75,0.27-1.18.24-1.77,0.38-1.18.31-1.77,0.48-1.18.35-1.76,0.54-1.19.42-1.67,0.6L443.82,337l-0.72-3.17-0.56-2.47c-0.21-.82-0.31-1.67-0.46-2.51s-0.24-1.7-.34-2.56-0.14-1.73-.17-2.6a25.7,25.7,0,0,1,0-2.65c0-.88.18-1.8,0.28-2.69a19.91,19.91,0,0,1,.66-2.71A14.62,14.62,0,0,1,443.6,313c0.25-.42.49-0.85,0.77-1.26s0.59-.8.92-1.18,0.7-.73,1.08-1a12.64,12.64,0,0,1,1.2-.89,9,9,0,0,1,1.3-.7,9.18,9.18,0,0,1,1.35-.52,12.08,12.08,0,0,1,2.74-.53,14.83,14.83,0,0,1,2.67,0,17.57,17.57,0,0,1,2.55.45,23.92,23.92,0,0,1,2.41.78A16.39,16.39,0,0,1,462.84,309.23Z"/><path class="cd03c6f0-0c6b-46d7-9963-9ef22eb89f9a" d="M339,278.23c10.44-5.55,28.75-9.55,47,14.13,1.17,1.52-.58,3.59-2,2.37-9.66-8.24-15.44-25.14-44-13.4C338.4,282,337.45,279.06,339,278.23Z"/><path class="cd03c6f0-0c6b-46d7-9963-9ef22eb89f9a" d="M302.57,170.47S283.75,251.15,169.9,282.53l3.06-30S200.38,161.51,302.57,170.47Z"/><path class="cd03c6f0-0c6b-46d7-9963-9ef22eb89f9a" d="M253.87,239.8S348.29,177,415.23,210.51c0,0-41.24-62.16-119.53-47.81S253.87,239.8,253.87,239.8Z"/><path class="cd03c6f0-0c6b-46d7-9963-9ef22eb89f9a" d="M345.6,201s33.17,70.82,95.92,94.13l14.28-6.43S443.32,157.92,345.6,201Z"/><path class="fab4fce7-97b6-4202-91ab-0fd8567627de" d="M197.09,193.78s-19.72,17.33-13.75,40c0,0,3,9.56,12-6.57s20.32-32.87,25.1-19.12,29.28-26.89,52-28.09c0,0-26.89-5.38-43.63,11.36,0,0-13.15-8.37-22.71,6.57C206.05,198,183.94,229.64,197.09,193.78Z"/><path class="cd03c6f0-0c6b-46d7-9963-9ef22eb89f9a" d="M357.11,210.19S335.6,364.82,195.75,394.4c0,0-9.41-30.93,24.2-78,0,0-12.1,63.2-60.51,65.89,0,0-75.16-82.74-1.2-171.49C158.24,210.81,269.71,90.51,357.11,210.19Z"/><ellipse class="cd03c6f0-0c6b-46d7-9963-9ef22eb89f9a" cx="349.79" cy="310.43" rx="16.44" ry="18.93"/><polygon class="cd03c6f0-0c6b-46d7-9963-9ef22eb89f9a" points="360.25 323.77 373.99 324.37 362.64 316 360.25 323.77"/><polygon class="cd03c6f0-0c6b-46d7-9963-9ef22eb89f9a" points="353.09 325.61 365.05 332.43 358.77 319.79 353.09 325.61"/><polygon class="cd03c6f0-0c6b-46d7-9963-9ef22eb89f9a" points="428.98 289.25 430.77 354.7 441.68 294.68 428.98 289.25"/><path class="cd03c6f0-0c6b-46d7-9963-9ef22eb89f9a" d="M277.47,393.69s-1.79-30.48,44.82-6.28Z"/><path class="cd03c6f0-0c6b-46d7-9963-9ef22eb89f9a" d="M282.4,392.12s3.93,14.37,18.38,11.43c19.12-3.88,21.07-16,21.07-16Z"/><path class="fab4fce7-97b6-4202-91ab-0fd8567627de" d="M160.93,242.19s-38.55,45.72-7.17,102.2c0,0-14.34-21.52,2.69-47.51,0,0,9.86,20.62,21.52,2.69S204,270,210.24,287c0,0,.9-46.62-21.52-20.62S148.38,288.81,160.93,242.19Z"/><g class="67c3ab0b-87b0-4b65-b4ca-376650cc565f"><path class="cd03c6f0-0c6b-46d7-9963-9ef22eb89f9a" d="M448.59,370.5S436.69,450.88,342.8,470.82C342.8,470.82,416.45,450.47,448.59,370.5Z"/></g><g class="67c3ab0b-87b0-4b65-b4ca-376650cc565f"><path class="cd03c6f0-0c6b-46d7-9963-9ef22eb89f9a" d="M195.75,394.4s128.77-20.79,158.68-177c0,0,17.45,26.59,27.42,34.07l-23.26-10S332.86,364.51,195.75,394.4Z"/></g><g class="67c3ab0b-87b0-4b65-b4ca-376650cc565f"><path class="cd03c6f0-0c6b-46d7-9963-9ef22eb89f9a" d="M195.74,393.14s-15,1.66-12.46,10c0,0-8.31-16.2-7.89-24.51,0,0,14.54-5.4,21.19-15C196.57,363.64,192.42,381.09,195.74,393.14Z"/></g><g class="67c3ab0b-87b0-4b65-b4ca-376650cc565f"><path class="cd03c6f0-0c6b-46d7-9963-9ef22eb89f9a" d="M176.63,195s49.85-47.36,163.68-39.05c0,0-76.44-34.9-152.88,21.6Z"/></g><g class="67c3ab0b-87b0-4b65-b4ca-376650cc565f"><path class="cd03c6f0-0c6b-46d7-9963-9ef22eb89f9a" d="M282.71,393.27s11.63,1.94,20.49-2.77l18.65-2.94-17.54,4.6S289.35,402.14,282.71,393.27Z"/></g><path class="cd03c6f0-0c6b-46d7-9963-9ef22eb89f9a" d="M486.49,304.59s8.59-7.69,11.34-1.61-9.54,5.75-9.54,5.75S482.29,307.87,486.49,304.59Z"/><path class="cd03c6f0-0c6b-46d7-9963-9ef22eb89f9a" d="M491.12,312.42s6.77-6.89,8.48-2-7.37,5.32-7.37,5.32S487.84,315.39,491.12,312.42Z"/><circle class="cd03c6f0-0c6b-46d7-9963-9ef22eb89f9a" cx="455.8" cy="357.82" r="7.89"/><circle class="cd03c6f0-0c6b-46d7-9963-9ef22eb89f9a" cx="469.93" cy="355.75" r="3.32"/></g></g></svg>