<svg xmlns="http://www.w3.org/2000/svg" viewBox="0 0 600 600"><defs><style>.\36 d744f4a-9b41-480c-98da-bca3030e3d93{isolation:isolate;}.\31 7426ea5-b28f-4316-b132-47c58e5e808a{fill:#c949df;}.\36 c9a593e-70e5-4b8b-a74b-5b24562090d8{fill:#fff;}.ede6ed7c-aa50-49bc-abce-9512b3a1ea3f{fill:#333;}.e47245c1-d92a-41d7-ae89-8960705a4206{fill:#24242d;}.\34 c1aa9f7-3bc5-4651-96aa-531c034d878d,.aef05bf0-e1b7-4065-95da-775e04de585b{opacity:0.2;}.\34 2789c7a-f1aa-4ccf-9ba5-72d8a44bb84f{opacity:0.13;}.\35 f108755-0ea1-4255-8e54-b10d59a43338{fill:#5d5d5d;}.aef05bf0-e1b7-4065-95da-775e04de585b{mix-blend-mode:multiply;}.db2a73a7-0afe-4d1c-bc79-8ca6432f4330{opacity:0.45;}</style></defs><title>Masc_1</title><g class="6d744f4a-9b41-480c-98da-bca3030e3d93"><g id="a0ee415d-0e6a-44a7-bff9-fcc08633c88c" data-name="Layer 1"><circle class="17426ea5-b28f-4316-b132-47c58e5e808a" cx="300" cy="300" r="274.13" transform="translate(-118.39 370.33) rotate(-54.54)"/><path class="6c9a593e-70e5-4b8b-a74b-5b24562090d8" d="M299.4,582.51A282.5,282.5,0,0,1,69.94,136.15a282.44,282.44,0,0,1,393.9-66.21h0a282.44,282.44,0,0,1-117,508.59A286.14,286.14,0,0,1,299.4,582.51Zm1.17-548.4a269.09,269.09,0,0,0-44.63,3.74A265.82,265.82,0,0,0,145.79,516.52a263.9,263.9,0,0,0,153.64,49.37,269.15,269.15,0,0,0,44.63-3.74A265.82,265.82,0,0,0,454.21,83.48,263.88,263.88,0,0,0,300.57,34.11Z"/><path class="ede6ed7c-aa50-49bc-abce-9512b3a1ea3f" d="M332.22,132.13s121.51-23.45,140.82,86c11.7,66.28-34.89,103.44-34.89,103.44Z"/><path class="6c9a593e-70e5-4b8b-a74b-5b24562090d8" d="M437.48,296S430,203.79,320.32,183.85s-144.59,74.79-144.59,74.79l-10,104.7S138.34,480.49,273,490.47c91.14,6.75,132-31.06,148.89-56.19a67,67,0,0,0,11.23-34.52Z"/><path class="6c9a593e-70e5-4b8b-a74b-5b24562090d8" d="M414.47,317.82s17.45-43.62,52.34-23.68,38.63,107.18-46.11,96"/><path class="ede6ed7c-aa50-49bc-abce-9512b3a1ea3f" d="M448.12,316.57a35.08,35.08,0,0,0-6-.39,26.23,26.23,0,0,0-2.92.23c-0.48,0-.95.16-1.41,0.24s-0.92.22-1.36,0.34a13.57,13.57,0,0,0-2.51,1c-0.19.11-.39,0.2-0.58,0.31l-0.54.36a9.82,9.82,0,0,0-1,.78,11.33,11.33,0,0,0-.88.88c-0.28.31-.5,0.67-0.75,1s-0.42.72-.64,1.07-0.34.78-.52,1.16a15.83,15.83,0,0,0-.73,2.5,26.48,26.48,0,0,0-.4,2.66l-0.07,1.38a11.84,11.84,0,0,0,0,1.39c0,0.94,0,1.87.12,2.83l0.11,1.42c0,0.47.13,1,.18,1.43,0.12,1,.23,1.91.42,2.87s0.31,1.92.53,2.88l0.61,2.88-3.83-2c0.9-.34,1.69-0.57,2.54-0.82s1.68-.46,2.52-0.66,1.7-.36,2.56-0.52,1.74-.27,2.61-0.36a28.2,28.2,0,0,1,5.42,0,18.61,18.61,0,0,1,2.8.5,12.63,12.63,0,0,1,2.78,1.08c0.45,0.24.88,0.56,1.31,0.84a15.06,15.06,0,0,1,1.17,1.07,11.08,11.08,0,0,1,.95,1.28,9,9,0,0,1,.69,1.4,8.92,8.92,0,0,1,.43,1.44c0.07,0.48.17,1,.2,1.43l0,1.4c0,0.46-.09.9-0.14,1.35a18.6,18.6,0,0,1-.53,2.58c-0.26.82-.53,1.64-0.85,2.42s-0.66,1.56-1,2.31-0.79,1.48-1.21,2.2c0.14-.83.31-1.64,0.46-2.45l0.38-2.43c0.09-.81.14-1.61,0.21-2.4v-1.76l-0.05-.57c0-.38,0-0.76-0.12-1.12l-0.22-1.06c-0.09-.34-0.23-0.65-0.33-1a7.63,7.63,0,0,0-.44-0.87,5.4,5.4,0,0,0-.54-0.74,8.11,8.11,0,0,0-.64-0.61c-0.24-.17-0.49-0.33-0.73-0.49s-0.54-.27-0.84-0.37a10.44,10.44,0,0,0-1.9-.46,14,14,0,0,0-2.1-.13c-0.72,0-1.46,0-2.2.12s-1.49.2-2.24,0.32-1.5.29-2.26,0.46-1.5.38-2.25,0.59-1.5.43-2.23,0.68-1.5.52-2.14,0.76l-3.11,1.16-0.72-3.17-0.7-3.07c-0.26-1-.39-2.07-0.57-3.11s-0.3-2.1-.42-3.16-0.18-2.13-.22-3.21a32.22,32.22,0,0,1,0-3.26,15.39,15.39,0,0,1,.13-1.65l0.19-1.65a24.7,24.7,0,0,1,.78-3.31,17.87,17.87,0,0,1,1.3-3.23c0.3-.51.58-1,0.91-1.53s0.7-1,1.09-1.43,0.83-.88,1.28-1.27a15.35,15.35,0,0,1,1.43-1.09,11.1,11.1,0,0,1,1.55-.87l0.8-.36c0.27-.11.55-0.19,0.82-0.29a15,15,0,0,1,3.32-.7,18.65,18.65,0,0,1,3.28,0,22.38,22.38,0,0,1,3.16.48,29.86,29.86,0,0,1,3,.88A21.31,21.31,0,0,1,448.12,316.57Z"/><ellipse class="ede6ed7c-aa50-49bc-abce-9512b3a1ea3f" cx="219.01" cy="321.48" rx="14.13" ry="16.74"/><circle class="ede6ed7c-aa50-49bc-abce-9512b3a1ea3f" cx="323.49" cy="315.32" r="16.82"/><path class="ede6ed7c-aa50-49bc-abce-9512b3a1ea3f" d="M189.58,367.95c-23.34,0-39.72-6.37-48.75-19-15.24-21.27-3.15-51.66-2.63-52.94a5,5,0,0,1,1.72-2.18c1.51-1.08,37.68-26.2,95.54-5.62a5,5,0,0,1,3.15,3.44c0.39,1.5,9.41,37.06-6.71,59.23-7.45,10.25-18.87,15.9-34,16.79Q193.63,367.95,189.58,367.95ZM146.92,301.2c-2,5.72-8.41,27.47,2,42,8,11.08,24.25,16,48.4,14.54,12-.71,20.86-5,26.47-12.67,11.15-15.32,7.32-40.32,5.7-48.33-15.2-5.07-37.3-9.46-60.6-4.06A77,77,0,0,0,146.92,301.2Z"/><path class="ede6ed7c-aa50-49bc-abce-9512b3a1ea3f" d="M303.58,357.73A29.43,29.43,0,0,1,275.14,338a5,5,0,0,1-.22-1.47c0-.21,0-21.27-1.24-40.81-0.43-6.91,1.45-12.65,5.59-17.06,7-7.46,18.17-8.12,20.25-8.17,4.42-.49,55.38-5.9,84.82.1,20,4.07,24.38,17.8,23.94,24.87,1.28,23.54-8.72,38.77-17.36,47.41a61.29,61.29,0,0,1-19.52,13.29,5,5,0,0,1-1.64.32C369.29,356.5,322.13,357.73,303.58,357.73Zm-18.7-22.07c1,2.52,5.73,12.1,18.7,12.1,17,0,58.31-1,65-1.22,4.91-2.14,31.8-15.49,29.72-50.83a5,5,0,0,1,0-.75c0.07-1.08.22-11.3-16-14.6-28.59-5.82-81.42,0-81.95.07l-0.54,0c-0.19,0-8.78.15-13.36,5.06-2.19,2.35-3.13,5.48-2.87,9.58C284.73,312.69,284.87,331.44,284.89,335.67Z"/><rect class="ede6ed7c-aa50-49bc-abce-9512b3a1ea3f" x="237.49" y="309.72" width="41.14" height="9.97" transform="translate(-9.42 7.96) rotate(-1.74)"/><path class="ede6ed7c-aa50-49bc-abce-9512b3a1ea3f" d="M287.28,246.32l6.09,16.06s62.59-10,87,0l1.66-8.86S363.72,231.37,287.28,246.32Z"/><path class="ede6ed7c-aa50-49bc-abce-9512b3a1ea3f" d="M224.13,256.29l-4.31,16.06s-44.29-10-61.54,0l-1.18-8.86S170,241.34,224.13,256.29Z"/><polygon class="ede6ed7c-aa50-49bc-abce-9512b3a1ea3f" points="423.82 303.1 403.88 303.1 403.88 292.3 432.96 292.3 423.82 303.1"/><path class="e47245c1-d92a-41d7-ae89-8960705a4206" d="M423,144s22.43-3.32,24.1,18.28Z"/><g class="4c1aa9f7-3bc5-4651-96aa-531c034d878d"><path class="ede6ed7c-aa50-49bc-abce-9512b3a1ea3f" d="M162.51,389.51s5.2-28.07,57.54-10.63,140.82-10,140.82-10,49.85-13.71,56.08-48.6c0,0,28.18,70.86,10.74,103.26s-35.45,50.27-97.77,65.22-118.82-8.31-140-28.25S162.51,404.46,162.51,389.51Z"/></g><path class="ede6ed7c-aa50-49bc-abce-9512b3a1ea3f" d="M367.21,381.61S331,419,296.73,419h-34.1S332.09,451.64,367.21,381.61Z"/><g class="42789c7a-f1aa-4ccf-9ba5-72d8a44bb84f"><path class="6c9a593e-70e5-4b8b-a74b-5b24562090d8" d="M423,144s-24.65-.42-41.27,11.77c0,0,14.12,12.74,21.88,23.82,0,0,21.74-3.6,30-27.42Z"/></g><path class="5f108755-0ea1-4255-8e54-b10d59a43338" d="M180.79,249.92s-67.47-23-41.3-70.4,115.9-102.19,248-19.94c0,0,56.18,60,42.42,106.41,0,0-38.77-93.89-154.54-81.7C275.37,184.28,208.52,188.5,180.79,249.92Z"/><g class="aef05bf0-e1b7-4065-95da-775e04de585b"><path class="ede6ed7c-aa50-49bc-abce-9512b3a1ea3f" d="M180.79,249.92s74.78-68.13,144.16-64C324.95,185.95,210,149.67,180.79,249.92Z"/></g><g class="db2a73a7-0afe-4d1c-bc79-8ca6432f4330"><path class="6c9a593e-70e5-4b8b-a74b-5b24562090d8" d="M138,202.84s-6.09-34.34,51-62C189,140.8,147.42,162.41,138,202.84Z"/></g><g class="aef05bf0-e1b7-4065-95da-775e04de585b"><path class="ede6ed7c-aa50-49bc-abce-9512b3a1ea3f" d="M437.11,290.64L429.64,269s40.71-29.08,39.88-64c0,0,15.79,46.53-7.48,86.41C462,291.47,453.73,284.82,437.11,290.64Z"/></g></g></g></svg>