<svg id="f74541ea-6532-41ca-a11f-ddba66c20c0b" data-name="Layer 1" xmlns="http://www.w3.org/2000/svg" viewBox="0 0 600 600"><defs><style>.b7af1025-1ad3-4a61-9218-62750b91177e{fill:#00a99d;}.ed221982-549b-4a0d-9bb1-b530361bc345{fill:#fff;}.da385850-0985-4b88-a541-30552848787f{fill:#333;}.\31 d0db6fd-bdec-41f4-850a-8473432536a0{fill:#1a1a1a;}.bd52a644-f747-4060-9cb5-01cf3b13e4d5{opacity:0.2;}</style></defs><title>Masc_2</title><circle class="b7af1025-1ad3-4a61-9218-62750b91177e" cx="300" cy="300" r="274.13" transform="translate(-118.39 370.33) rotate(-54.54)"/><path class="ed221982-549b-4a0d-9bb1-b530361bc345" d="M299.4,582.51A282.5,282.5,0,0,1,69.94,136.15a282.44,282.44,0,0,1,393.9-66.21h0a282.44,282.44,0,0,1-117,508.59A286.14,286.14,0,0,1,299.4,582.51Zm1.17-548.4a269.09,269.09,0,0,0-44.63,3.74A265.82,265.82,0,0,0,145.79,516.52a263.9,263.9,0,0,0,153.64,49.37,269.15,269.15,0,0,0,44.63-3.74A265.82,265.82,0,0,0,454.21,83.48,263.88,263.88,0,0,0,300.57,34.11Z"/><path class="ed221982-549b-4a0d-9bb1-b530361bc345" d="M437.48,296S430,203.79,320.32,183.85s-144.59,74.79-144.59,74.79l-10,104.7S138.34,480.49,273,490.47,432.5,413.19,432.5,413.19Z"/><path class="ed221982-549b-4a0d-9bb1-b530361bc345" d="M414.47,317.82s17.45-43.62,52.34-23.68,38.63,107.18-46.11,96"/><path class="da385850-0985-4b88-a541-30552848787f" d="M448.12,316.57a35.08,35.08,0,0,0-6-.39,26.23,26.23,0,0,0-2.92.23c-0.48,0-.95.16-1.41,0.24s-0.92.22-1.36,0.34a13.57,13.57,0,0,0-2.51,1c-0.19.11-.39,0.2-0.58,0.31l-0.54.36a9.82,9.82,0,0,0-1,.78,11.33,11.33,0,0,0-.88.88c-0.28.31-.5,0.67-0.75,1s-0.42.72-.64,1.07-0.34.78-.52,1.16a15.83,15.83,0,0,0-.73,2.5,26.48,26.48,0,0,0-.4,2.66l-0.07,1.38a11.84,11.84,0,0,0,0,1.39c0,0.94,0,1.87.12,2.83l0.11,1.42c0,0.47.13,1,.18,1.43,0.12,1,.23,1.91.42,2.87s0.31,1.92.53,2.88l0.61,2.88-3.83-2c0.9-.34,1.69-0.57,2.54-0.82s1.68-.46,2.52-0.66,1.7-.36,2.56-0.52,1.74-.27,2.61-0.36a28.2,28.2,0,0,1,5.42,0,18.61,18.61,0,0,1,2.8.5,12.63,12.63,0,0,1,2.78,1.08c0.45,0.24.88,0.56,1.31,0.84a15.06,15.06,0,0,1,1.17,1.07,11.08,11.08,0,0,1,.95,1.28,9,9,0,0,1,.69,1.4,8.92,8.92,0,0,1,.43,1.44c0.07,0.48.17,1,.2,1.43l0,1.4c0,0.46-.09.9-0.14,1.35a18.6,18.6,0,0,1-.53,2.58c-0.26.82-.53,1.64-0.85,2.42s-0.66,1.56-1,2.31-0.79,1.48-1.21,2.2c0.14-.83.31-1.64,0.46-2.45l0.38-2.43c0.09-.81.14-1.61,0.21-2.4v-1.76l-0.05-.57c0-.38,0-0.76-0.12-1.12l-0.22-1.06c-0.09-.34-0.23-0.65-0.33-1a7.63,7.63,0,0,0-.44-0.87,5.4,5.4,0,0,0-.54-0.74,8.11,8.11,0,0,0-.64-0.61c-0.24-.17-0.49-0.33-0.73-0.49s-0.54-.27-0.84-0.37a10.44,10.44,0,0,0-1.9-.46,14,14,0,0,0-2.1-.13c-0.72,0-1.46,0-2.2.12s-1.49.2-2.24,0.32-1.5.29-2.26,0.46-1.5.38-2.25,0.59-1.5.43-2.23,0.68-1.5.52-2.14,0.76l-3.11,1.16-0.72-3.17-0.7-3.07c-0.26-1-.39-2.07-0.57-3.11s-0.3-2.1-.42-3.16-0.18-2.13-.22-3.21a32.22,32.22,0,0,1,0-3.26,15.39,15.39,0,0,1,.13-1.65l0.19-1.65a24.7,24.7,0,0,1,.78-3.31,17.87,17.87,0,0,1,1.3-3.23c0.3-.51.58-1,0.91-1.53s0.7-1,1.09-1.43,0.83-.88,1.28-1.27a15.35,15.35,0,0,1,1.43-1.09,11.1,11.1,0,0,1,1.55-.87l0.8-.36c0.27-.11.55-0.19,0.82-0.29a15,15,0,0,1,3.32-.7,18.65,18.65,0,0,1,3.28,0,22.38,22.38,0,0,1,3.16.48,29.86,29.86,0,0,1,3,.88A21.31,21.31,0,0,1,448.12,316.57Z"/><ellipse class="da385850-0985-4b88-a541-30552848787f" cx="219.01" cy="321.48" rx="14.13" ry="16.74"/><ellipse class="da385850-0985-4b88-a541-30552848787f" cx="333.37" cy="309.03" rx="15.38" ry="18.38"/><path class="da385850-0985-4b88-a541-30552848787f" d="M303.81,233.51l-0.19,16.91s54.53,8.05,71.29,24.3l4.22-7.92S371.3,240.71,303.81,233.51Z"/><path class="da385850-0985-4b88-a541-30552848787f" d="M231.31,260.24l2.89,16.21s-38.29,5.32-47.82,20.16L182,288.84S183.47,264.18,231.31,260.24Z"/><path class="da385850-0985-4b88-a541-30552848787f" d="M185.91,238.29s-43.76-22.16-34.34-85.86c0,0-2.77,1.66,8.31,6.65,0,0-5.54-49.3,19.39-59.27,0,0-7.2,31.57,48.74,23.82s135.71-31.57,187.78,78.1c0,0,6.65,24.93-7.2,31.57,0,0-42.1-54.84-73.12-19.94-15.88,17.86-98,35.45-116.32.55C219.15,213.92,197.55,220,185.91,238.29Z"/><path class="1d0db6fd-bdec-41f4-850a-8473432536a0" d="M219.15,213.92s-7.2-10.52-7.75-21.6c0,0-29.36,27.7-25.48,46C185.91,238.29,199.76,222.23,219.15,213.92Z"/><polygon class="ed221982-549b-4a0d-9bb1-b530361bc345" points="367.04 248.26 357.63 268.76 362.61 270.42 370.92 252.69 367.04 248.26"/><g class="bd52a644-f747-4060-9cb5-01cf3b13e4d5"><path class="da385850-0985-4b88-a541-30552848787f" d="M338,210.87s76.72-9.14,76.3,107.18c0,0,12.32-25.48,22.85-26,0,0-5-60.65-70.62-90.29C366.49,201.73,349.32,197,338,210.87Z"/></g><path class="da385850-0985-4b88-a541-30552848787f" d="M245.18,393.09s57.49,24.78,111.34-21C356.52,372.06,307.24,437.39,245.18,393.09Z"/><path class="ed221982-549b-4a0d-9bb1-b530361bc345" d="M197.82,136.93s19.94,15,76.44-1.66c0,0-40.71,12.46-40.71,24.1C233.55,159.36,208.62,163.51,197.82,136.93Z"/><g class="bd52a644-f747-4060-9cb5-01cf3b13e4d5"><path class="da385850-0985-4b88-a541-30552848787f" d="M185.91,238.29s22.71-21.19,39.33-17c0,0-5.54-3-6.09-7.34C219.15,213.92,201.84,217.1,185.91,238.29Z"/></g></svg>