<svg id="b91ffa4d-b331-42b3-9d53-69f60be9aa88" data-name="Layer 1" xmlns="http://www.w3.org/2000/svg" viewBox="0 0 600 600"><defs><style>.\30 883f24a-2bb3-4b5c-86f3-5fd721857ae5{fill:#ed7284;}.\33 9d425b5-69db-425f-95c3-1ad6fd20a005{fill:#fff;}.\38 b3828af-fcbc-47a9-a025-927fbb059cb1{fill:#333;}.\37 6b84125-b9d1-4f2f-a942-7a6fb7b38a1f{opacity:0.2;}</style></defs><title>Masc_3</title><circle class="0883f24a-2bb3-4b5c-86f3-5fd721857ae5" cx="300" cy="300" r="274.13" transform="translate(-118.39 370.33) rotate(-54.54)"/><path class="39d425b5-69db-425f-95c3-1ad6fd20a005" d="M299.4,582.51A282.5,282.5,0,0,1,69.94,136.15a282.44,282.44,0,0,1,393.9-66.21h0a282.44,282.44,0,0,1-117,508.59A286.14,286.14,0,0,1,299.4,582.51Zm1.17-548.4a269.09,269.09,0,0,0-44.63,3.74A265.82,265.82,0,0,0,145.79,516.52a263.9,263.9,0,0,0,153.64,49.37,269.14,269.14,0,0,0,44.63-3.74A265.82,265.82,0,0,0,454.21,83.48,263.88,263.88,0,0,0,300.57,34.11Z"/><ellipse class="8b3828af-fcbc-47a9-a025-927fbb059cb1" cx="185.88" cy="281.09" rx="74.15" ry="76.64"/><ellipse class="8b3828af-fcbc-47a9-a025-927fbb059cb1" cx="241.96" cy="177.65" rx="74.15" ry="76.64"/><ellipse class="8b3828af-fcbc-47a9-a025-927fbb059cb1" cx="311.75" cy="203.82" rx="74.15" ry="76.64"/><ellipse class="8b3828af-fcbc-47a9-a025-927fbb059cb1" cx="403.97" cy="228.74" rx="74.15" ry="76.64"/><ellipse class="8b3828af-fcbc-47a9-a025-927fbb059cb1" cx="446.35" cy="309.75" rx="74.15" ry="76.64"/><ellipse class="8b3828af-fcbc-47a9-a025-927fbb059cb1" cx="411.45" cy="355.86" rx="74.15" ry="76.64"/><path class="39d425b5-69db-425f-95c3-1ad6fd20a005" d="M437.48,296S430,203.79,320.32,183.85s-144.59,74.79-144.59,74.79l-26.81,89.9a101.89,101.89,0,0,0,8.15,78.57c15.87,28.56,48.57,58.37,115.88,63.36,134.61,10,159.54-77.28,159.54-77.28Z"/><path class="39d425b5-69db-425f-95c3-1ad6fd20a005" d="M414.47,317.82s17.45-43.62,52.34-23.68,38.63,107.18-46.11,96"/><path class="8b3828af-fcbc-47a9-a025-927fbb059cb1" d="M448.12,316.57a35.08,35.08,0,0,0-6-.39,26.23,26.23,0,0,0-2.92.23c-0.48,0-.95.16-1.41,0.24s-0.92.22-1.36,0.34a13.57,13.57,0,0,0-2.51,1c-0.19.11-.39,0.2-0.58,0.31l-0.54.36a9.82,9.82,0,0,0-1,.78,11.33,11.33,0,0,0-.88.88c-0.28.31-.5,0.67-0.75,1s-0.42.72-.64,1.07-0.34.78-.52,1.16a15.83,15.83,0,0,0-.73,2.5,26.48,26.48,0,0,0-.4,2.66l-0.07,1.38a11.84,11.84,0,0,0,0,1.39c0,0.94,0,1.87.12,2.83l0.11,1.42c0,0.47.13,1,.18,1.43,0.12,1,.23,1.91.42,2.87s0.31,1.92.53,2.88l0.61,2.88-3.83-2c0.9-.34,1.69-0.57,2.54-0.82s1.68-.46,2.52-0.66,1.7-.36,2.56-0.52,1.74-.27,2.61-0.36a28.2,28.2,0,0,1,5.42,0,18.61,18.61,0,0,1,2.8.5,12.63,12.63,0,0,1,2.78,1.08c0.45,0.24.88,0.56,1.31,0.84a15.06,15.06,0,0,1,1.17,1.07,11.08,11.08,0,0,1,.95,1.28,9,9,0,0,1,.69,1.4,8.92,8.92,0,0,1,.43,1.44c0.07,0.48.17,1,.2,1.43l0,1.4c0,0.46-.09.9-0.14,1.35a18.6,18.6,0,0,1-.53,2.58c-0.26.82-.53,1.64-0.85,2.42s-0.66,1.56-1,2.31-0.79,1.48-1.21,2.2c0.14-.83.31-1.64,0.46-2.45l0.38-2.43c0.09-.81.14-1.61,0.21-2.4v-1.76l-0.05-.57c0-.38,0-0.76-0.12-1.12l-0.22-1.06c-0.09-.34-0.23-0.65-0.33-1a7.63,7.63,0,0,0-.44-0.87,5.4,5.4,0,0,0-.54-0.74,8.11,8.11,0,0,0-.64-0.61c-0.24-.17-0.49-0.33-0.73-0.49s-0.54-.27-0.84-0.37a10.44,10.44,0,0,0-1.9-.46,14,14,0,0,0-2.1-.13c-0.72,0-1.46,0-2.2.12s-1.49.2-2.24,0.32-1.5.29-2.26,0.46-1.5.38-2.25,0.59-1.5.43-2.23,0.68-1.5.52-2.14,0.76l-3.11,1.16-0.72-3.17-0.7-3.07c-0.26-1-.39-2.07-0.57-3.11s-0.3-2.1-.42-3.16-0.18-2.13-.22-3.21a32.22,32.22,0,0,1,0-3.26,15.39,15.39,0,0,1,.13-1.65l0.19-1.65a24.7,24.7,0,0,1,.78-3.31,17.87,17.87,0,0,1,1.3-3.23c0.3-.51.58-1,0.91-1.53s0.7-1,1.09-1.43,0.83-.88,1.28-1.27a15.35,15.35,0,0,1,1.43-1.09,11.1,11.1,0,0,1,1.55-.87l0.8-.36c0.27-.11.55-0.19,0.82-0.29a15,15,0,0,1,3.32-.7,18.65,18.65,0,0,1,3.28,0,22.38,22.38,0,0,1,3.16.48,29.86,29.86,0,0,1,3,.88A21.31,21.31,0,0,1,448.12,316.57Z"/><ellipse class="8b3828af-fcbc-47a9-a025-927fbb059cb1" cx="219.01" cy="321.48" rx="14.13" ry="16.74"/><ellipse class="8b3828af-fcbc-47a9-a025-927fbb059cb1" cx="334.24" cy="313.44" rx="15.38" ry="18.38"/><path class="8b3828af-fcbc-47a9-a025-927fbb059cb1" d="M231.31,260.24l2.89,16.21s-38.29,5.32-47.82,20.16L182,288.84S183.47,264.18,231.31,260.24Z"/><path class="8b3828af-fcbc-47a9-a025-927fbb059cb1" d="M328.66,246.12l-2.89,16.21s38.29,5.32,47.82,20.16l4.36-7.78S376.5,250.06,328.66,246.12Z"/><path class="8b3828af-fcbc-47a9-a025-927fbb059cb1" d="M234.54,380.22s33.71,40.36,81.86-6Z"/><ellipse class="8b3828af-fcbc-47a9-a025-927fbb059cb1" cx="183.38" cy="215.03" rx="38.25" ry="39.54"/><ellipse class="8b3828af-fcbc-47a9-a025-927fbb059cb1" cx="255.33" cy="189.65" rx="38.25" ry="39.54"/><ellipse class="8b3828af-fcbc-47a9-a025-927fbb059cb1" cx="325.77" cy="197.93" rx="38.25" ry="39.54"/><ellipse class="8b3828af-fcbc-47a9-a025-927fbb059cb1" cx="392.12" cy="225.65" rx="38.25" ry="39.54"/><ellipse class="8b3828af-fcbc-47a9-a025-927fbb059cb1" cx="427.52" cy="250.5" rx="38.25" ry="39.54"/><path class="8b3828af-fcbc-47a9-a025-927fbb059cb1" d="M411.45,279.22s-16.44,30-1.48,44.93l7.34-11a67.8,67.8,0,0,1,14.44-15.65L442.51,289Z"/><path class="8b3828af-fcbc-47a9-a025-927fbb059cb1" d="M258.21,408.18s13.49,10.38,30.47,1C288.68,409.18,275.23,414.05,258.21,408.18Z"/><path class="39d425b5-69db-425f-95c3-1ad6fd20a005" d="M216.93,119.75S168.74,138,184.81,172.38C184.81,172.38,178.71,141.36,216.93,119.75Z"/><path class="39d425b5-69db-425f-95c3-1ad6fd20a005" d="M144.92,227.77S108.37,254.91,120,295.9C120,295.9,116.68,261,144.92,227.77Z"/><g class="76b84125-b9d1-4f2f-a942-7a6fb7b38a1f"><path class="8b3828af-fcbc-47a9-a025-927fbb059cb1" d="M288.8,208.24s-10.25,21-33.48,20.95C255.33,229.19,287.14,238.15,288.8,208.24Z"/></g><g class="76b84125-b9d1-4f2f-a942-7a6fb7b38a1f"><path class="8b3828af-fcbc-47a9-a025-927fbb059cb1" d="M220.81,207.27s6.09,23.82-13.29,38.22c0,0,17.17-5.54,17.73-21.6l10-.55S221.92,213.37,220.81,207.27Z"/></g><g class="76b84125-b9d1-4f2f-a942-7a6fb7b38a1f"><path class="8b3828af-fcbc-47a9-a025-927fbb059cb1" d="M325.77,237.47s16.62,0.82,28.25-12.75c0,0-.55,16.34,10,28,0,0-11.63-8.59-13.57-15.79C350.43,236.91,335.19,241.91,325.77,237.47Z"/></g></svg>