<svg id="1d5ef86c-1167-4042-8e60-f1e7bd9f55ec" data-name="Layer 1" xmlns="http://www.w3.org/2000/svg" viewBox="0 0 600 600"><defs><style>.\39 a996b92-254b-4fad-883f-fb778f34e185{fill:#585aa8;}.f4818d0c-468c-4bfb-bd61-a6f00dcccf7f{fill:#fff;}.\35 2bc767d-18a7-445f-8a8b-31af0f06d871{fill:#333;}.cd909166-6cd1-461a-bd5b-4d7af7a91772{opacity:0.2;}</style></defs><title>Masc_4</title><circle class="9a996b92-254b-4fad-883f-fb778f34e185" cx="300" cy="300" r="274.13" transform="translate(-118.39 370.33) rotate(-54.54)"/><path class="f4818d0c-468c-4bfb-bd61-a6f00dcccf7f" d="M299.4,582.51A282.5,282.5,0,0,1,69.94,136.15a282.44,282.44,0,0,1,393.9-66.21h0a282.44,282.44,0,0,1-117,508.59A286.14,286.14,0,0,1,299.4,582.51Zm1.17-548.4a269.09,269.09,0,0,0-44.63,3.74A265.82,265.82,0,0,0,145.79,516.52a263.9,263.9,0,0,0,153.64,49.37,269.14,269.14,0,0,0,44.63-3.74A265.82,265.82,0,0,0,454.21,83.48,263.88,263.88,0,0,0,300.57,34.11Z"/><path class="52bc767d-18a7-445f-8a8b-31af0f06d871" d="M432.5,413.19S449.43,450,480.59,430c0,0-31.16-18.69-13.71-47.36l-43.62-27.42Z"/><ellipse class="52bc767d-18a7-445f-8a8b-31af0f06d871" cx="310.47" cy="289.8" rx="152.39" ry="147.12"/><path class="f4818d0c-468c-4bfb-bd61-a6f00dcccf7f" d="M437.48,296S430,203.79,320.32,183.85s-144.59,74.79-144.59,74.79l-26.81,89.9c-7.82,26.23,12.7,85.42,29,107.44,25.76,34.9,134.77,44,194.42,12.46,42.37-22.43,60.19-55.25,60.19-55.25Z"/><path class="f4818d0c-468c-4bfb-bd61-a6f00dcccf7f" d="M414.47,317.82s17.45-43.62,52.34-23.68,38.63,107.18-46.11,96"/><path class="52bc767d-18a7-445f-8a8b-31af0f06d871" d="M448.12,316.57a35.08,35.08,0,0,0-6-.39,26.23,26.23,0,0,0-2.92.23c-0.48,0-.95.16-1.41,0.24s-0.92.22-1.36,0.34a13.57,13.57,0,0,0-2.51,1c-0.19.11-.39,0.2-0.58,0.31l-0.54.36a9.82,9.82,0,0,0-1,.78,11.33,11.33,0,0,0-.88.88c-0.28.31-.5,0.67-0.75,1s-0.42.72-.64,1.07-0.34.78-.52,1.16a15.83,15.83,0,0,0-.73,2.5,26.48,26.48,0,0,0-.4,2.66l-0.07,1.38a11.84,11.84,0,0,0,0,1.39c0,0.94,0,1.87.12,2.83l0.11,1.42c0,0.47.13,1,.18,1.43,0.12,1,.23,1.91.42,2.87s0.31,1.92.53,2.88l0.61,2.88-3.83-2c0.9-.34,1.69-0.57,2.54-0.82s1.68-.46,2.52-0.66,1.7-.36,2.56-0.52,1.74-.27,2.61-0.36a28.2,28.2,0,0,1,5.42,0,18.61,18.61,0,0,1,2.8.5,12.63,12.63,0,0,1,2.78,1.08c0.45,0.24.88,0.56,1.31,0.84a15.06,15.06,0,0,1,1.17,1.07,11.08,11.08,0,0,1,.95,1.28,9,9,0,0,1,.69,1.4,8.92,8.92,0,0,1,.43,1.44c0.07,0.48.17,1,.2,1.43l0,1.4c0,0.46-.09.9-0.14,1.35a18.6,18.6,0,0,1-.53,2.58c-0.26.82-.53,1.64-0.85,2.42s-0.66,1.56-1,2.31-0.79,1.48-1.21,2.2c0.14-.83.31-1.64,0.46-2.45l0.38-2.43c0.09-.81.14-1.61,0.21-2.4v-1.76l-0.05-.57c0-.38,0-0.76-0.12-1.12l-0.22-1.06c-0.09-.34-0.23-0.65-0.33-1a7.63,7.63,0,0,0-.44-0.87,5.4,5.4,0,0,0-.54-0.74,8.11,8.11,0,0,0-.64-0.61c-0.24-.17-0.49-0.33-0.73-0.49s-0.54-.27-0.84-0.37a10.44,10.44,0,0,0-1.9-.46,14,14,0,0,0-2.1-.13c-0.72,0-1.46,0-2.2.12s-1.49.2-2.24,0.32-1.5.29-2.26,0.46-1.5.38-2.25,0.59-1.5.43-2.23,0.68-1.5.52-2.14,0.76l-3.11,1.16-0.72-3.17-0.7-3.07c-0.26-1-.39-2.07-0.57-3.11s-0.3-2.1-.42-3.16-0.18-2.13-.22-3.21a32.22,32.22,0,0,1,0-3.26,15.39,15.39,0,0,1,.13-1.65l0.19-1.65a24.7,24.7,0,0,1,.78-3.31,17.87,17.87,0,0,1,1.3-3.23c0.3-.51.58-1,0.91-1.53s0.7-1,1.09-1.43,0.83-.88,1.28-1.27a15.35,15.35,0,0,1,1.43-1.09,11.1,11.1,0,0,1,1.55-.87l0.8-.36c0.27-.11.55-0.19,0.82-0.29a15,15,0,0,1,3.32-.7,18.65,18.65,0,0,1,3.28,0,22.38,22.38,0,0,1,3.16.48,29.86,29.86,0,0,1,3,.88A21.31,21.31,0,0,1,448.12,316.57Z"/><path class="52bc767d-18a7-445f-8a8b-31af0f06d871" d="M317,248.48L297.53,269c-34.9,43.21-24.08,85.71-29.91,81.42-28.25-20.77-20.77-57.33-20.77-57.33-23.4,14.4-22.43,36-19.94,54.28,0.93,6.8-11.1,4-17.45,1.38-21.18-8.76-24.93-50.68-24.93-50.68-10.27,12-9.2,40.61-10.52,52.34a3.51,3.51,0,0,1-6.83.62l-13.94-37.46c-0.38-1.23-1.92-18.86-3-33.87a55.51,55.51,0,0,1,10.94-37.36L184,211.92l86-49.85L405.81,197l44.87,88.41c-16.62,1.44-35.68,32.37-50.66,54-4.73,6.84-15.48,3-14.79-5.32,3-36.41,10.34-41.77,10.34-41.77s6.86-63.57-41.51-61.16A55,55,0,0,0,317,248.48Z"/><polygon class="52bc767d-18a7-445f-8a8b-31af0f06d871" points="366.28 151.77 362.38 135.07 375.75 155.12 396.9 150.1 383.54 159.57 369.06 161.24 366.28 151.77"/><path class="52bc767d-18a7-445f-8a8b-31af0f06d871" d="M216.39,391.38s69.79,15,115.9-6.23C332.29,385.15,297.39,420,216.39,391.38Z"/><path class="52bc767d-18a7-445f-8a8b-31af0f06d871" d="M182.59,209.41S137,226.49,155.36,228,185.86,242,185.86,242Z"/><path class="f4818d0c-468c-4bfb-bd61-a6f00dcccf7f" d="M170.4,245.77s5-31.57,29.08-36.56c0,0-23.26,26.59-1.66,17.45s51.51-43.21,53.18-19.11,12.46,16.62,12.46,16.62S236,235,241,217.52s-15,10.8-15,10.8-43.21,42.37-42.37,10C183.7,238.29,179.54,221.67,170.4,245.77Z"/><ellipse class="52bc767d-18a7-445f-8a8b-31af0f06d871" cx="325.42" cy="317.95" rx="15.38" ry="18.38"/><path class="52bc767d-18a7-445f-8a8b-31af0f06d871" d="M307.94,273.05l3,16.19s37.7-8.55,51.86,2l1.33-8.82S354.08,259.83,307.94,273.05Z"/><g class="cd909166-6cd1-461a-bd5b-4d7af7a91772"><path class="52bc767d-18a7-445f-8a8b-31af0f06d871" d="M317,248.48s20.41-25.14,55.31-15.17c0,0,27.42,6.65,23.26,59C395.57,292.3,378.84,215.46,317,248.48Z"/></g><g class="cd909166-6cd1-461a-bd5b-4d7af7a91772"><path class="52bc767d-18a7-445f-8a8b-31af0f06d871" d="M246.84,293.13s-24.37,11.08-21,43.21c0,0,6.65-26.59,20.49-29.91C246.29,306.42,244.08,295.9,246.84,293.13Z"/></g><g class="cd909166-6cd1-461a-bd5b-4d7af7a91772"><path class="52bc767d-18a7-445f-8a8b-31af0f06d871" d="M174.28,338.55s1.11-32.68,10.25-40.44l4.71,20.49S178.71,312.52,174.28,338.55Z"/></g></svg>