<svg id="2adbb7cf-73e5-48f8-860a-8c3976add945" data-name="Layer 1" xmlns="http://www.w3.org/2000/svg" viewBox="0 0 600 600"><defs><style>.\34 c83691f-b04a-4b4c-a10c-21892f281a05{fill:#f47b50;}.\32 7dd1bd1-93f3-4259-aa0d-8983b08f7e40{fill:#fff;}.d02f9a9f-b478-45dd-8382-ca7f82b41f4a{fill:#333;}.ed5bbf75-006f-4356-9143-a107fddaa9a7{opacity:0.2;}.e167f5ff-3055-4674-806b-f24ce793044b{fill:#5d5d5d;}</style></defs><title>Masc_5</title><circle class="4c83691f-b04a-4b4c-a10c-21892f281a05" cx="300" cy="300" r="274.13" transform="translate(-118.39 370.33) rotate(-54.54)"/><path class="27dd1bd1-93f3-4259-aa0d-8983b08f7e40" d="M299.4,582.51A282.5,282.5,0,0,1,69.94,136.15a282.44,282.44,0,0,1,393.9-66.21h0a282.44,282.44,0,0,1-117,508.59A286.14,286.14,0,0,1,299.4,582.51Zm1.17-548.4a269.09,269.09,0,0,0-44.63,3.74A265.82,265.82,0,0,0,145.79,516.52a263.9,263.9,0,0,0,153.64,49.37,269.14,269.14,0,0,0,44.63-3.74A265.82,265.82,0,0,0,454.21,83.48,263.88,263.88,0,0,0,300.57,34.11Z"/><path class="27dd1bd1-93f3-4259-aa0d-8983b08f7e40" d="M446.61,270.91s-8-98.38-125-119.65S167.42,231,167.42,231L156.78,342.71s-29.25,125,114.34,135.61,170.17-82.43,170.17-82.43Z"/><path class="27dd1bd1-93f3-4259-aa0d-8983b08f7e40" d="M428.71,371.26c90.39,12,86.4-81.09,49.18-102.35s-55.83,25.26-55.83,25.26"/><path class="d02f9a9f-b478-45dd-8382-ca7f82b41f4a" d="M458,292.83a36.92,36.92,0,0,0-6.43-.47,27.86,27.86,0,0,0-3.12.22c-0.51,0-1,.17-1.51.24s-1,.22-1.46.36a14.55,14.55,0,0,0-2.7,1.07c-0.21.11-.42,0.21-0.62,0.33l-0.58.39a10.5,10.5,0,0,0-1.09.84,12.23,12.23,0,0,0-1,.95c-0.3.33-.54,0.72-0.82,1.06s-0.46.78-.7,1.16-0.37.84-.56,1.25a16.86,16.86,0,0,0-.8,2.69,28.1,28.1,0,0,0-.44,2.86l-0.08,1.48a12.68,12.68,0,0,0,0,1.49c0,1,0,2,.12,3l0.12,1.52c0,0.51.14,1,.19,1.53,0.13,1,.24,2,0.45,3.07l0.27,1.54c0.08,0.51.17,1,.29,1.54l0.66,3.08-3.83-2c1-.35,1.8-0.6,2.7-0.87s1.78-.49,2.68-0.7,1.81-.39,2.72-0.55,1.84-.29,2.78-0.39a29.94,29.94,0,0,1,5.74-.06,19.66,19.66,0,0,1,3,.52,13.36,13.36,0,0,1,2.94,1.13c0.48,0.25.93,0.58,1.38,0.88a16.17,16.17,0,0,1,1.24,1.13,11.76,11.76,0,0,1,1,1.34,9.46,9.46,0,0,1,1.18,3c0.08,0.51.18,1,.22,1.51l0,1.48c0,0.49-.09,1-0.14,1.43l-0.08.71-0.15.68-0.32,1.35c-0.27.88-.56,1.74-0.88,2.58s-0.69,1.66-1.09,2.46-0.83,1.58-1.27,2.35c0.16-.88.35-1.74,0.52-2.6s0.28-1.73.43-2.58,0.16-1.72.25-2.56l0-1.26v-0.62l-0.05-.61c0-.4,0-0.81-0.11-1.2l-0.22-1.14c-0.09-.37-0.24-0.71-0.35-1.05a8.27,8.27,0,0,0-.46-0.95,5.91,5.91,0,0,0-.58-0.81,8.68,8.68,0,0,0-.69-0.67c-0.26-.19-0.54-0.36-0.8-0.54s-0.59-.3-0.91-0.41a11.12,11.12,0,0,0-2.06-.51,15,15,0,0,0-2.26-.15c-0.78,0-1.57,0-2.36.12s-1.6.2-2.4,0.34-1.61.3-2.42,0.49-1.61.41-2.41,0.62-1.6.46-2.39,0.72-1.6.55-2.3,0.81l-3.11,1.16-0.72-3.17-0.74-3.26c-0.27-1.08-.41-2.21-0.61-3.31s-0.32-2.23-.45-3.36-0.19-2.27-.24-3.41a34.56,34.56,0,0,1,0-3.46,16.38,16.38,0,0,1,.13-1.75l0.2-1.75a26.39,26.39,0,0,1,.81-3.51,19,19,0,0,1,1.36-3.42c0.32-.54.61-1.1,1-1.62s0.74-1,1.15-1.51,0.87-.93,1.35-1.35a16.24,16.24,0,0,1,1.51-1.15,11.8,11.8,0,0,1,1.64-.92l0.85-.39c0.28-.12.58-0.21,0.87-0.31a16,16,0,0,1,3.51-.76,19.93,19.93,0,0,1,3.48,0,24,24,0,0,1,3.36.48,31.86,31.86,0,0,1,3.22.91A23,23,0,0,1,458,292.83Z"/><path class="d02f9a9f-b478-45dd-8382-ca7f82b41f4a" d="M288.42,223.22L292.9,235s66.76-10.63,92.76,0l1.77-9.45S368.84,203,292,216.84A4.77,4.77,0,0,0,288.42,223.22Z"/><path class="d02f9a9f-b478-45dd-8382-ca7f82b41f4a" d="M219,228.54l-4.6,17.13s-47.24-10.63-65.64,0l-1.25-9.45S161.35,212.58,219,228.54Z"/><path class="d02f9a9f-b478-45dd-8382-ca7f82b41f4a" d="M371.66,362.12S333,402,296.48,402H260.11S334.19,436.82,371.66,362.12Z"/><path class="d02f9a9f-b478-45dd-8382-ca7f82b41f4a" d="M254.32,123.63S183.7,94.55,191.18,155.2,229.4,215,244.35,191.76s29.08-14.12,25.76-3.32,49.85,10.8,35.73-6.65,10.8-15,10.8-15-3.32,49.85,36.56,23.26,43.21,10,43.21,10-13.29,34.9,10.8,21.6c0,0-19.53,91,26.17,56.08L446.25,264l33.23-20.77L434.62,131.11,313.31,103.69Z"/><path class="d02f9a9f-b478-45dd-8382-ca7f82b41f4a" d="M192,143.57s-16.62-10.8-24.1,6.65-16.62,24.93-18.28,14.12-15.79,24.93,3.32,15.79c0,0-21.6,17.45,1.66,28.25s5.82,29.91,5.82,29.91l2.49,16.62,17.45-44s21.6,1.66,23.26-15Z"/><path class="d02f9a9f-b478-45dd-8382-ca7f82b41f4a" d="M247.68,125.29s-9.14-20.77,13.29-20.77,41.54,17.45,39.05.83,17.45-2.49,17.45-2.49,5,16.62,20.77,6.65,24.93,12.46,31.57-.83,18.28-10.8,12.46-2.49-6.65,16.62,5,16.62,11.63-6.65,6.65-10.8,17.45,2.49,15,13.29c0,0,19.94-15.79,29.08-1.66s-4.15,39.88,10.8,43.21S467,170.16,462.87,181a23,23,0,0,0,.83,19.11s18.28,7.48,15-4.15c0,0,15,25.76-8.31,23.26,0,0,41.19,23.55,12.88,53.59,0,0-20.36-23.68-58.58,7.06l12.46-20.77-56.5-108.84Z"/><path class="d02f9a9f-b478-45dd-8382-ca7f82b41f4a" d="M318.44,286.17c7.06-4.07,32.47-16.4,48.52,6.29a4.82,4.82,0,0,1,.6,4.34h0a4.83,4.83,0,0,1-6,3.07c-7.47-2.26-23-5.69-35.44,0a4.75,4.75,0,0,1-3.44.19c-2.82-.92-7.47-3.49-6.65-10.25A4.82,4.82,0,0,1,318.44,286.17Z"/><path class="d02f9a9f-b478-45dd-8382-ca7f82b41f4a" d="M224.13,293.13c-6.87-3-31.81-12-39.93,11a5,5,0,0,0,.47,4.26h0a5.1,5.1,0,0,0,6.61,2c6-2.93,17.66-7.28,29.07-3.76a5.06,5.06,0,0,0,4.47-.67c2.06-1.5,4.25-4.51,2-10.08A5.11,5.11,0,0,0,224.13,293.13Z"/><g class="ed5bbf75-006f-4356-9143-a107fddaa9a7"><path class="d02f9a9f-b478-45dd-8382-ca7f82b41f4a" d="M396.4,200.07s-2.22-31.57-36-15.51C360.4,184.56,379.78,178.47,396.4,200.07Z"/></g><g class="ed5bbf75-006f-4356-9143-a107fddaa9a7"><path class="e167f5ff-3055-4674-806b-f24ce793044b" d="M175.39,223.61l5-12.74s22.43,1.11,23.26-15,0-1.11,0-1.11,8.31,23.82-21,19.11Z"/></g><polygon class="d02f9a9f-b478-45dd-8382-ca7f82b41f4a" points="291.71 235 286.17 223.21 283.4 224.4 290.05 235 291.71 235"/><polygon class="d02f9a9f-b478-45dd-8382-ca7f82b41f4a" points="215.69 245.56 220.26 230.19 222.75 232.47 217.14 245.98 215.69 245.56"/><g class="ed5bbf75-006f-4356-9143-a107fddaa9a7"><polygon class="d02f9a9f-b478-45dd-8382-ca7f82b41f4a" points="441.29 395.88 434.52 370.19 442.41 372.37 441.29 395.88"/></g><g class="ed5bbf75-006f-4356-9143-a107fddaa9a7"><path class="e167f5ff-3055-4674-806b-f24ce793044b" d="M270.11,188.44s2.77-9.42-5.82-11.08-15.79,9.14-15.79,9.14S264.29,173.76,270.11,188.44Z"/></g><path class="27dd1bd1-93f3-4259-aa0d-8983b08f7e40" d="M238.12,124.88s-36.56-15.37-37.39,16.2C200.73,141.08,204.05,117,238.12,124.88Z"/><path class="27dd1bd1-93f3-4259-aa0d-8983b08f7e40" d="M176.22,157.7s-10.39,19.53-19.11,22.85-13.71,17-8.31,18.69c0,0-2.91-8.72,9.55-13.29S176.22,157.7,176.22,157.7Z"/><g class="ed5bbf75-006f-4356-9143-a107fddaa9a7"><ellipse class="d02f9a9f-b478-45dd-8382-ca7f82b41f4a" cx="353.2" cy="325.53" rx="8.72" ry="3.32"/></g><g class="ed5bbf75-006f-4356-9143-a107fddaa9a7"><ellipse class="d02f9a9f-b478-45dd-8382-ca7f82b41f4a" cx="225.8" cy="332.73" rx="8.72" ry="3.32"/></g><g class="ed5bbf75-006f-4356-9143-a107fddaa9a7"><ellipse class="d02f9a9f-b478-45dd-8382-ca7f82b41f4a" cx="333.25" cy="333.43" rx="8.72" ry="3.32"/></g><g class="ed5bbf75-006f-4356-9143-a107fddaa9a7"><ellipse class="d02f9a9f-b478-45dd-8382-ca7f82b41f4a" cx="356.86" cy="335.83" rx="4.91" ry="2.16"/></g><g class="ed5bbf75-006f-4356-9143-a107fddaa9a7"><ellipse class="d02f9a9f-b478-45dd-8382-ca7f82b41f4a" cx="208.97" cy="337.5" rx="4.91" ry="2.16"/></g><g class="ed5bbf75-006f-4356-9143-a107fddaa9a7"><ellipse class="d02f9a9f-b478-45dd-8382-ca7f82b41f4a" cx="374.24" cy="329.13" rx="4.91" ry="2.16"/></g><g class="ed5bbf75-006f-4356-9143-a107fddaa9a7"><ellipse class="d02f9a9f-b478-45dd-8382-ca7f82b41f4a" cx="199.76" cy="332.46" rx="4.91" ry="2.16"/></g></svg>