<?xml version="1.0" encoding="UTF-8" standalone="no"?>
<svg
   xmlns:dc="http://purl.org/dc/elements/1.1/"
   xmlns:cc="http://creativecommons.org/ns#"
   xmlns:rdf="http://www.w3.org/1999/02/22-rdf-syntax-ns#"
   xmlns:svg="http://www.w3.org/2000/svg"
   xmlns="http://www.w3.org/2000/svg"
   xmlns:sodipodi="http://sodipodi.sourceforge.net/DTD/sodipodi-0.dtd"
   xmlns:inkscape="http://www.inkscape.org/namespaces/inkscape"
   width="56.304001"
   height="56.304001"
   viewBox="0 0 56.304 56.304"
   version="1.1"
   id="svg63"
   sodipodi:docname="avatar_hold.svg"
   inkscape:version="0.92.4 (5da689c313, 2019-01-14)">
  <metadata
     id="metadata69">
    <rdf:RDF>
      <cc:Work
         rdf:about="">
        <dc:format>image/svg+xml</dc:format>
        <dc:type
           rdf:resource="http://purl.org/dc/dcmitype/StillImage" />
        <dc:title></dc:title>
      </cc:Work>
    </rdf:RDF>
  </metadata>
  <defs
     id="defs67" />
  <sodipodi:namedview
     pagecolor="#ffffff"
     bordercolor="#666666"
     borderopacity="1"
     objecttolerance="10"
     gridtolerance="10"
     guidetolerance="10"
     inkscape:pageopacity="0"
     inkscape:pageshadow="2"
     inkscape:window-width="1360"
     inkscape:window-height="705"
     id="namedview65"
     showgrid="false"
     fit-margin-top="0"
     fit-margin-left="0"
     fit-margin-right="0"
     fit-margin-bottom="0"
     inkscape:zoom="1.4001613"
     inkscape:cx="18.276172"
     inkscape:cy="27.794001"
     inkscape:window-x="1912"
     inkscape:window-y="-8"
     inkscape:window-maximized="1"
     inkscape:current-layer="svg63" />
  <g
     id="g929"
     transform="translate(-17.434,-15.156)">
    <g
       transform="translate(18.934,16.656)"
       data-name="Grupo 2026"
       id="Grupo_2026">
      <path
         style="fill:#ed7284;stroke:#ffffff;stroke-width:3;stroke-miterlimit:10"
         d="M 53.304001,26.652 A 26.652,26.652 0 0 1 26.652,53.304001 26.652,26.652 0 0 1 0,26.652 26.652,26.652 0 0 1 26.652,0 26.652,26.652 0 0 1 53.304001,26.652 Z"
         id="Elipse_1062"
         inkscape:connector-curvature="0" />
    </g>
    <g
       transform="translate(27.282,23.961)"
       data-name="Grupo 2027"
       id="Grupo_2027">
      <g
         transform="translate(-0.001,10.057)"
         data-name="Grupo 1819"
         id="Grupo_1819">
        <path
           style="fill:#333333"
           d="M 14.418,7.4520001 A 7.2090001,7.4520001 0 0 1 7.2090001,14.904 7.2090001,7.4520001 0 0 1 0,7.4520001 7.2090001,7.4520001 0 0 1 7.2090001,0 7.2090001,7.4520001 0 0 1 14.418,7.4520001 Z"
           id="Elipse_1063"
           inkscape:connector-curvature="0" />
      </g>
      <g
         transform="translate(5.452)"
         data-name="Grupo 1820"
         id="Grupo_1820">
        <path
           style="fill:#333333"
           d="M 14.418,7.4520001 A 7.2090001,7.4520001 0 0 1 7.2090001,14.904 7.2090001,7.4520001 0 0 1 0,7.4520001 7.2090001,7.4520001 0 0 1 7.2090001,0 7.2090001,7.4520001 0 0 1 14.418,7.4520001 Z"
           id="Elipse_1064"
           inkscape:connector-curvature="0" />
      </g>
      <g
         transform="translate(12.237,2.545)"
         data-name="Grupo 1821"
         id="Grupo_1821">
        <path
           style="fill:#333333"
           d="M 14.418,7.4520001 A 7.2090001,7.4520001 0 0 1 7.2090001,14.904 7.2090001,7.4520001 0 0 1 0,7.4520001 7.2090001,7.4520001 0 0 1 7.2090001,0 7.2090001,7.4520001 0 0 1 14.418,7.4520001 Z"
           id="Elipse_1065"
           inkscape:connector-curvature="0" />
      </g>
      <g
         transform="translate(21.203,4.968)"
         data-name="Grupo 1822"
         id="Grupo_1822">
        <path
           style="fill:#333333"
           d="M 14.418,7.4520001 A 7.2090001,7.4520001 0 0 1 7.2090001,14.904 7.2090001,7.4520001 0 0 1 0,7.4520001 7.2090001,7.4520001 0 0 1 7.2090001,0 7.2090001,7.4520001 0 0 1 14.418,7.4520001 Z"
           id="Elipse_1066"
           inkscape:connector-curvature="0" />
      </g>
      <g
         transform="translate(25.323,12.844)"
         data-name="Grupo 1823"
         id="Grupo_1823">
        <path
           style="fill:#333333"
           d="M 14.418,7.4520001 A 7.2090001,7.4520001 0 0 1 7.2090001,14.904 7.2090001,7.4520001 0 0 1 0,7.4520001 7.2090001,7.4520001 0 0 1 7.2090001,0 7.2090001,7.4520001 0 0 1 14.418,7.4520001 Z"
           id="Elipse_1067"
           inkscape:connector-curvature="0" />
      </g>
      <g
         transform="translate(21.93,17.327)"
         data-name="Grupo 1824"
         id="Grupo_1824">
        <path
           style="fill:#333333"
           d="M 14.418,7.4520001 A 7.2090001,7.4520001 0 0 1 7.2090001,14.904 7.2090001,7.4520001 0 0 1 0,7.4520001 7.2090001,7.4520001 0 0 1 7.2090001,0 7.2090001,7.4520001 0 0 1 14.418,7.4520001 Z"
           id="Elipse_1068"
           inkscape:connector-curvature="0" />
      </g>
      <g
         transform="translate(2.551,7.145)"
         data-name="Grupo 1825"
         id="Grupo_1825">
        <path
           style="fill:#ffffff"
           inkscape:connector-curvature="0"
           transform="translate(3718.315,-7075.11)"
           d="m -3689.2,7086.926 c 0,0 -0.727,-8.968 -11.391,-10.907 a 12.2,12.2 0 0 0 -14.058,7.271 l -2.606,8.742 a 9.9,9.9 0 0 0 0.793,7.639 c 1.542,2.777 4.722,5.675 11.266,6.16 13.087,0.97 15.511,-7.513 15.511,-7.513 z"
           data-name="Trazado 4260"
           id="Trazado_4260" />
        <path
           style="fill:#333333"
           inkscape:connector-curvature="0"
           transform="translate(3721.155,-7072.265)"
           d="m -3706.063,7103.7 c -0.706,0 -1.381,-0.029 -2.016,-0.076 -3.89,-0.289 -9.091,-1.648 -11.781,-6.489 a 10.6,10.6 0 0 1 -0.847,-8.136 l 2.619,-8.78 a 13.387,13.387 0 0 1 3.192,-4.607 c 2.1,-1.981 5.812,-4.123 11.584,-3.074 5.744,1.045 8.679,4.1 10.129,6.479 a 12.481,12.481 0 0 1 1.789,5.009 v 0.039 l -0.49,11.508 -0.021,0.073 a 10.368,10.368 0 0 1 -3.038,4.424 c -3.233,2.89 -7.542,3.63 -11.12,3.63 z m -10.812,-23.051 -2.6,8.718 a 9.306,9.306 0 0 0 0.738,7.142 c 1.936,3.484 5.554,5.446 10.751,5.831 5.136,0.38 9.331,-0.719 12.13,-3.18 a 9.467,9.467 0 0 0 2.694,-3.807 l 0.479,-11.258 a 11.555,11.555 0 0 0 -1.632,-4.46 c -1.914,-3.1 -5.019,-5.066 -9.229,-5.832 -4.19,-0.762 -7.7,0.149 -10.433,2.707 a 12.363,12.363 0 0 0 -2.898,4.143 z"
           data-name="Trazado 4261"
           id="Trazado_4261" />
      </g>
      <g
         transform="translate(29.433,17.67)"
         data-name="Grupo 1828"
         id="Grupo_1828">
        <g
           transform="translate(0,0.6)"
           data-name="Grupo 1826"
           id="Grupo_1826">
          <path
             style="fill:#ffffff"
             inkscape:connector-curvature="0"
             transform="translate(3574.946,-7132.775)"
             d="m -3574.946,7135.584 c 0,0 1.7,-4.24 5.089,-2.3 3.389,1.94 3.756,10.42 -4.483,9.33"
             data-name="Trazado 4262"
             id="Trazado_4262" />
        </g>
        <g
           data-name="Grupo 1827"
           id="Grupo_1827">
          <path
             style="fill:#333333"
             inkscape:connector-curvature="0"
             transform="translate(3574.946,-7129.51)"
             d="m -3574.946,7132.92 c 0,0 0.013,-0.084 0.056,-0.239 a 5.359,5.359 0 0 1 0.229,-0.659 5.156,5.156 0 0 1 0.534,-0.968 4,4 0 0 1 0.45,-0.54 3.434,3.434 0 0 1 0.629,-0.513 3.193,3.193 0 0 1 0.841,-0.379 3.292,3.292 0 0 1 1.008,-0.11 4.291,4.291 0 0 1 1.99,0.653 2.2,2.2 0 0 1 0.236,0.162 c 0.081,0.061 0.171,0.124 0.244,0.189 a 5.106,5.106 0 0 1 0.406,0.4 l 0.189,0.213 c 0.06,0.073 0.115,0.149 0.172,0.225 a 4.884,4.884 0 0 1 0.311,0.474 6.348,6.348 0 0 1 0.771,2.115 6.351,6.351 0 0 1 0,2.25 5.342,5.342 0 0 1 -0.829,2.057 4.648,4.648 0 0 1 -1.516,1.412 5.27,5.27 0 0 1 -1.684,0.607 c -0.134,0.026 -0.266,0.034 -0.393,0.05 a 3.013,3.013 0 0 1 -0.373,0.032 h -0.353 a 2.444,2.444 0 0 1 -0.33,-0.01 c -0.213,-0.021 -0.41,-0.03 -0.59,-0.057 l -0.491,-0.089 a 3.145,3.145 0 0 1 -0.388,-0.094 l -0.283,-0.081 -0.233,-0.071 0.243,-0.023 c 0.158,-0.017 0.388,-0.024 0.677,-0.063 l 0.474,-0.06 c 0.171,-0.027 0.353,-0.064 0.547,-0.1 0.194,-0.036 0.392,-0.1 0.6,-0.146 0.105,-0.023 0.207,-0.067 0.314,-0.1 0.107,-0.033 0.215,-0.068 0.321,-0.115 a 4.984,4.984 0 0 0 1.243,-0.716 3.8,3.8 0 0 0 0.967,-1.156 3.075,3.075 0 0 0 0.17,-0.354 l 0.078,-0.183 0.061,-0.193 a 3.142,3.142 0 0 0 0.1,-0.395 c 0.04,-0.131 0.049,-0.272 0.076,-0.409 a 5.479,5.479 0 0 0 -0.047,-1.707 5.46,5.46 0 0 0 -0.54,-1.619 3.987,3.987 0 0 0 -0.209,-0.355 c -0.037,-0.056 -0.072,-0.116 -0.11,-0.17 l -0.121,-0.158 a 3.784,3.784 0 0 0 -0.257,-0.293 l -0.12,-0.114 a 0.849,0.849 0 0 0 -0.138,-0.123 3.411,3.411 0 0 0 -1.331,-0.647 2.217,2.217 0 0 0 -1.273,0.1 2.822,2.822 0 0 0 -0.563,0.28 4.1,4.1 0 0 0 -0.484,0.353 6.5,6.5 0 0 0 -0.724,0.714 c -0.189,0.218 -0.332,0.4 -0.424,0.525 -0.092,0.125 -0.133,0.198 -0.133,0.198 z"
             data-name="Trazado 4263"
             id="Trazado_4263" />
        </g>
      </g>
      <g
         transform="translate(29.834,20.52)"
         data-name="Grupo 1829"
         id="Grupo_1829">
        <path
           style="fill:#333333"
           inkscape:connector-curvature="0"
           transform="translate(3572.763,-7145.012)"
           d="m -3569.893,7145.45 a 4.574,4.574 0 0 0 -0.6,0.071 2.434,2.434 0 0 0 -0.269,0.066 1.707,1.707 0 0 0 -0.239,0.091 1.133,1.133 0 0 0 -0.194,0.118 0.746,0.746 0 0 0 -0.14,0.137 0.709,0.709 0 0 0 -0.092,0.152 l -0.034,0.082 c -0.01,0.029 -0.017,0.061 -0.026,0.089 a 1.619,1.619 0 0 0 -0.036,0.2 c -0.012,0.066 -0.01,0.146 -0.016,0.218 -0.01,0.072 0,0.154 0.01,0.237 0.01,0.083 0.01,0.162 0.019,0.248 0.013,0.086 0.019,0.168 0.033,0.255 0.014,0.087 0.022,0.173 0.041,0.261 0.019,0.088 0.029,0.175 0.049,0.265 l 0.054,0.268 -0.848,-0.444 a 2.814,2.814 0 0 1 0.272,-0.083 c 0.087,-0.024 0.175,-0.044 0.263,-0.063 a 4.26,4.26 0 0 1 0.545,-0.076 2.993,2.993 0 0 1 0.587,0.02 2.221,2.221 0 0 1 0.315,0.071 1.514,1.514 0 0 1 0.325,0.144 c 0.053,0.032 0.106,0.074 0.157,0.111 a 1.609,1.609 0 0 1 0.142,0.141 1.1,1.1 0 0 1 0.187,0.341 1.126,1.126 0 0 1 0.052,0.343 l -0.011,0.157 c -0.01,0.051 -0.019,0.1 -0.029,0.146 a 1.641,1.641 0 0 1 -0.087,0.266 c -0.037,0.082 -0.077,0.162 -0.121,0.237 a 2.625,2.625 0 0 1 -0.308,0.416 c 0,-0.088 0,-0.171 0,-0.254 l -0.01,-0.244 c 0,-0.08 -0.013,-0.158 -0.018,-0.232 a 2.06,2.06 0 0 0 -0.039,-0.211 1,1 0 0 0 -0.06,-0.177 0.479,0.479 0 0 0 -0.083,-0.116 0.248,0.248 0 0 0 -0.086,-0.049 0.327,0.327 0 0 1 -0.044,-0.012 l -0.052,-0.01 a 1.349,1.349 0 0 0 -0.291,0 2.63,2.63 0 0 0 -0.371,0.067 c -0.13,0.028 -0.263,0.07 -0.4,0.112 -0.067,0.021 -0.134,0.043 -0.2,0.066 l -0.183,0.07 -0.683,0.26 -0.165,-0.705 -0.073,-0.31 c -0.027,-0.1 -0.04,-0.211 -0.058,-0.317 a 4.238,4.238 0 0 1 -0.059,-0.659 3.131,3.131 0 0 1 0.01,-0.344 c 0.01,-0.115 0.029,-0.236 0.045,-0.353 a 2.451,2.451 0 0 1 0.1,-0.362 1.95,1.95 0 0 1 0.161,-0.359 c 0.037,-0.058 0.072,-0.116 0.112,-0.171 0.04,-0.055 0.087,-0.11 0.134,-0.162 a 1.64,1.64 0 0 1 0.331,-0.259 1.41,1.41 0 0 1 0.375,-0.152 1.54,1.54 0 0 1 0.373,-0.049 1.914,1.914 0 0 1 0.671,0.123 2.169,2.169 0 0 1 0.295,0.136 1.746,1.746 0 0 1 0.269,0.185 z"
           data-name="Trazado 4264"
           id="Trazado_4264" />
      </g>
      <g
         transform="translate(9.056,19.808)"
         data-name="Grupo 1830"
         id="Grupo_1830">
        <path
           style="fill:#333333"
           d="M 2.7479999,1.628 A 1.374,1.628 0 0 1 1.374,3.256 1.374,1.628 0 0 1 0,1.628 1.374,1.628 0 0 1 1.374,0 1.374,1.628 0 0 1 2.7479999,1.628 Z"
           id="Elipse_1069"
           inkscape:connector-curvature="0" />
      </g>
      <g
         transform="translate(20.138,18.866)"
         data-name="Grupo 1831"
         id="Grupo_1831">
        <path
           style="fill:#333333"
           d="m 2.99,1.7869999 a 1.495,1.7869999 0 0 1 -1.495,1.787 A 1.495,1.7869999 0 0 1 0,1.7869999 1.495,1.7869999 0 0 1 1.495,0 1.495,1.7869999 0 0 1 2.99,1.7869999 Z"
           id="Elipse_1070"
           inkscape:connector-curvature="0" />
      </g>
      <g
         transform="translate(6.834,15.482)"
         data-name="Grupo 1832"
         id="Grupo_1832">
        <path
           style="fill:#333333"
           inkscape:connector-curvature="0"
           transform="translate(3697.859,-7117.612)"
           d="m -3693.067,7117.612 0.281,1.577 c 0,0 -3.723,0.517 -4.649,1.96 l -0.423,-0.757 c 0,0 0.14,-2.397 4.791,-2.78 z"
           data-name="Trazado 4265"
           id="Trazado_4265" />
      </g>
      <g
         transform="translate(20.809,14.109)"
         data-name="Grupo 1833"
         id="Grupo_1833">
        <path
           style="fill:#333333"
           inkscape:connector-curvature="0"
           transform="translate(3621.85,-7110.142)"
           d="m -3621.569,7110.142 -0.281,1.577 c 0,0 3.723,0.518 4.649,1.96 l 0.423,-0.756 c 0,0 -0.139,-2.398 -4.791,-2.781 z"
           data-name="Trazado 4266"
           id="Trazado_4266" />
      </g>
      <g
         transform="translate(11.94,26.56)"
         data-name="Grupo 1834"
         id="Grupo_1834">
        <path
           style="fill:#333333"
           inkscape:connector-curvature="0"
           transform="translate(3670.091,-7177.859)"
           d="m -3670.091,7178.446 c 0,0 3.277,3.924 7.959,-0.587 z"
           data-name="Trazado 4267"
           id="Trazado_4267" />
      </g>
      <g
         transform="translate(3.246,7.242)"
         data-name="Grupo 1835"
         id="Grupo_1835">
        <path
           style="fill:#333333"
           d="M 7.4380002,3.8440001 A 3.7190001,3.8440001 0 0 1 3.7190001,7.6880002 3.7190001,3.8440001 0 0 1 0,3.8440001 3.7190001,3.8440001 0 0 1 3.7190001,0 3.7190001,3.8440001 0 0 1 7.4380002,3.8440001 Z"
           id="Elipse_1071"
           inkscape:connector-curvature="0" />
      </g>
      <g
         transform="translate(10.241,4.775)"
         data-name="Grupo 1836"
         id="Grupo_1836">
        <path
           style="fill:#333333"
           d="M 7.4380002,3.8440001 A 3.7190001,3.8440001 0 0 1 3.7190001,7.6880002 3.7190001,3.8440001 0 0 1 0,3.8440001 3.7190001,3.8440001 0 0 1 3.7190001,0 3.7190001,3.8440001 0 0 1 7.4380002,3.8440001 Z"
           id="Elipse_1072"
           inkscape:connector-curvature="0" />
      </g>
      <g
         transform="translate(17.09,5.58)"
         data-name="Grupo 1837"
         id="Grupo_1837">
        <path
           style="fill:#333333"
           d="M 7.4380002,3.8440001 A 3.7190001,3.8440001 0 0 1 3.7190001,7.6880002 3.7190001,3.8440001 0 0 1 0,3.8440001 3.7190001,3.8440001 0 0 1 3.7190001,0 3.7190001,3.8440001 0 0 1 7.4380002,3.8440001 Z"
           id="Elipse_1073"
           inkscape:connector-curvature="0" />
      </g>
      <g
         transform="translate(23.541,8.275)"
         data-name="Grupo 1838"
         id="Grupo_1838">
        <path
           style="fill:#333333"
           d="M 7.4380002,3.8440001 A 3.7190001,3.8440001 0 0 1 3.7190001,7.6880002 3.7190001,3.8440001 0 0 1 0,3.8440001 3.7190001,3.8440001 0 0 1 3.7190001,0 3.7190001,3.8440001 0 0 1 7.4380002,3.8440001 Z"
           id="Elipse_1074"
           inkscape:connector-curvature="0" />
      </g>
      <g
         transform="translate(26.982,10.69)"
         data-name="Grupo 1839"
         id="Grupo_1839">
        <path
           style="fill:#333333"
           d="M 7.4380002,3.8440001 A 3.7190001,3.8440001 0 0 1 3.7190001,7.6880002 3.7190001,3.8440001 0 0 1 0,3.8440001 3.7190001,3.8440001 0 0 1 3.7190001,0 3.7190001,3.8440001 0 0 1 7.4380002,3.8440001 Z"
           id="Elipse_1075"
           inkscape:connector-curvature="0" />
      </g>
      <g
         transform="translate(28.385,17.327)"
         data-name="Grupo 1840"
         id="Grupo_1840">
        <path
           style="fill:#333333"
           inkscape:connector-curvature="0"
           transform="translate(3580.647,-7127.644)"
           d="m -3579.892,7127.644 c 0,0 -1.6,2.914 -0.144,4.368 l 1.3,-1.944 1.451,-1.152 z"
           data-name="Trazado 4268"
           id="Trazado_4268" />
      </g>
      <g
         transform="translate(14.241,29.866)"
         data-name="Grupo 1841"
         id="Grupo_1841">
        <path
           style="fill:#333333"
           inkscape:connector-curvature="0"
           transform="translate(3657.575,-7195.84)"
           d="m -3657.575,7195.84 a 2.773,2.773 0 0 0 2.963,0.1 4.8,4.8 0 0 1 -2.963,-0.1 z"
           data-name="Trazado 4269"
           id="Trazado_4269" />
      </g>
      <g
         transform="translate(6.785,1.823)"
         data-name="Grupo 1842"
         id="Grupo_1842">
        <path
           style="fill:#ffffff"
           inkscape:connector-curvature="0"
           transform="translate(3698.125,-7043.318)"
           d="m -3694.683,7043.318 c 0,0 -4.686,1.777 -3.124,5.116 10e-4,0 -0.593,-3.015 3.124,-5.116 z"
           data-name="Trazado 4270"
           id="Trazado_4270" />
      </g>
      <g
         transform="translate(0.581,12.325)"
         data-name="Grupo 1843"
         id="Grupo_1843">
        <path
           style="fill:#ffffff"
           inkscape:connector-curvature="0"
           transform="translate(3731.871,-7100.436)"
           d="m -3729.225,7100.436 c 0,0 -3.555,2.639 -2.423,6.625 a 9.66,9.66 0 0 1 2.423,-6.625 z"
           data-name="Trazado 4271"
           id="Trazado_4271" />
      </g>
    </g>
  </g>
</svg>
