<svg id="374e8819-1953-4138-95d5-19a25f63f402" data-name="Layer 1" xmlns="http://www.w3.org/2000/svg" viewBox="0 0 600 600"><defs><style>.b05bd2f0-cb50-450d-b981-a468bcd5c975{fill:#00819d;}.\31 16736ea-c568-4f2a-8795-18134f9d727c{fill:#fff;}</style></defs><title>Avatar_Profesor</title><circle class="b05bd2f0-cb50-450d-b981-a468bcd5c975" cx="301.74" cy="301.03" r="274.13" transform="translate(-118.51 372.18) rotate(-54.54)"/><path class="116736ea-c568-4f2a-8795-18134f9d727c" d="M299.4,582.51A282.5,282.5,0,0,1,69.94,136.15a282.44,282.44,0,0,1,393.9-66.21h0a282.44,282.44,0,0,1-117,508.59A286.14,286.14,0,0,1,299.4,582.51Zm1.17-548.4a269.09,269.09,0,0,0-44.63,3.74A265.82,265.82,0,0,0,145.79,516.52a263.9,263.9,0,0,0,153.64,49.37,269.15,269.15,0,0,0,44.63-3.74A265.82,265.82,0,0,0,454.21,83.48,263.88,263.88,0,0,0,300.57,34.11Z"/><path class="116736ea-c568-4f2a-8795-18134f9d727c" d="M270.56,341v-14.5H169.21l-0.14,58a28.9,28.9,0,0,0,29,29h203a28.9,28.9,0,0,0,29-29v-58H328.56V341h-58Zm145-130.5H357.42v-29l-29-29h-58l-29,29v29H183.56a29.09,29.09,0,0,0-29,29V283a28.9,28.9,0,0,0,29,29h87V283h58v29h87a29.09,29.09,0,0,0,29-29v-43.5A29.09,29.09,0,0,0,415.56,210.49Zm-87,0h-58v-29h58v29Z"/></svg>