<svg id="Grupo_1702" data-name="Grupo 1702" xmlns="http://www.w3.org/2000/svg" width="38.875" height="38.875" viewBox="0 0 38.875 38.875">
  <path id="Trazado_4134" data-name="Trazado 4134" d="M21.438,2A19.438,19.438,0,1,0,40.875,21.438,19.445,19.445,0,0,0,21.438,2Zm9.524,26.221-2.721,2.721a.962.962,0,0,1-1.38,0l-6.628-6.628a6.724,6.724,0,0,1-8.183-9.544l4.568,4.568L19.358,16.6,14.79,12.049a6.724,6.724,0,0,1,9.544,8.183l6.628,6.628A.974.974,0,0,1,30.962,28.221Z" transform="translate(-2 -2)" fill="#87d0c7" fill-rule="evenodd"/>
</svg>
