<svg id="icon_action_visibility_24px" data-name="icon/action/visibility_24px" xmlns="http://www.w3.org/2000/svg" width="48" height="39" viewBox="0 0 48 39">
  <rect id="Boundary" width="39" height="39" fill="none"/>
  <path id="_Color" data-name=" ↳Color" d="M23,30A25.311,25.311,0,0,1,8.936,25.792,23.88,23.88,0,0,1,0,15,23.879,23.879,0,0,1,8.936,4.208a25.608,25.608,0,0,1,28.128,0A23.88,23.88,0,0,1,46,15a23.88,23.88,0,0,1-8.935,10.793A25.311,25.311,0,0,1,23,30ZM23,5A10.245,10.245,0,0,0,12.546,15,10.246,10.246,0,0,0,23,25,10.247,10.247,0,0,0,33.455,15,10.246,10.246,0,0,0,23,5Zm0,16a6.148,6.148,0,0,1-6.272-6A6.147,6.147,0,0,1,23,9a6.148,6.148,0,0,1,6.274,6A6.149,6.149,0,0,1,23,21Z" transform="translate(1 4.5)" fill="#ff9498"/>
</svg>