<svg id="ef3c4bf5-d4f7-4e0c-8987-67fd5a71dfc5" data-name="Layer 1" xmlns="http://www.w3.org/2000/svg" xmlns:xlink="http://www.w3.org/1999/xlink" viewBox="0 0 1024 768"><defs><style>.\33 c716f61-f669-4b17-ba9d-d227af3afaee{fill:none;}.\31 af61e2c-bb96-4fdf-9263-1c0dddcd0707,.f63a1988-d0ab-4575-82bf-2d760f74f749{opacity:0.04;mix-blend-mode:soft-light;}.\30 a5ec3f7-3a17-4bd3-a5d8-e2016cc36f70,.f63a1988-d0ab-4575-82bf-2d760f74f749{fill:#fff;}.\37 64b8fa4-eb2b-4e10-9c00-d95c2f53d850{fill:url(#321565f8-e406-4642-9d82-b451a59c0fff);}</style><pattern id="321565f8-e406-4642-9d82-b451a59c0fff" data-name="New Pattern Swatch 9" width="202.62" height="204.3" patternTransform="translate(0 -56.19) scale(1 1.01)" patternUnits="userSpaceOnUse" viewBox="0 0 202.62 204.3"><rect class="3c716f61-f669-4b17-ba9d-d227af3afaee" width="202.62" height="204.3"/><g class="1af61e2c-bb96-4fdf-9263-1c0dddcd0707"><path class="0a5ec3f7-3a17-4bd3-a5d8-e2016cc36f70" d="M115.68,71l-9.81-4.5a0.24,0.24,0,0,1-.14-0.37l4.59-10a0.61,0.61,0,0,0-.34-0.92l-2.45-1.12a0.61,0.61,0,0,0-.92.34l-4.59,10a0.24,0.24,0,0,1-.37.14l-9.81-4.5a0.61,0.61,0,0,0-.92.34l-1.1,2.39a0.61,0.61,0,0,0,.34.92l9.81,4.5a0.25,0.25,0,0,1,.14.37l-4.47,9.74a0.61,0.61,0,0,0,.34.92l2.45,1.12A0.61,0.61,0,0,0,99.36,80l4.47-9.74a0.24,0.24,0,0,1,.37-0.14l9.81,4.5a0.61,0.61,0,0,0,.92-0.34l1.1-2.39A0.61,0.61,0,0,0,115.68,71Z"/></g><path class="f63a1988-d0ab-4575-82bf-2d760f74f749" d="M83,188.91a4,4,0,0,0-2.28-2.15,4,4,0,0,0-3.08-.1,3.88,3.88,0,0,0-2.16,2.17l-0.3.74a0.71,0.71,0,0,0,.41,1l0.95,0.39a0.71,0.71,0,0,0,1-.41l0.26-.63a1.73,1.73,0,0,1,.86-1,1.43,1.43,0,0,1,1.21,0,1.52,1.52,0,0,1,.91.86,1.75,1.75,0,0,1-.07,1.35,6.73,6.73,0,0,1-2.6,2.52c-2.12,1.36-4.05,2.57-5.75,3.61l-0.05,0a1.06,1.06,0,0,0-.34.43l-0.33.8a0.71,0.71,0,0,0,.41,1l6.5,2.65a0.78,0.78,0,0,0,.36.06,0.72,0.72,0,0,0,.61-0.46l0.31-.77a0.72,0.72,0,0,0-.41-1l-4.14-1.69c2-1.24,3.52-2.18,4.48-2.81A8.09,8.09,0,0,0,82.91,192,4,4,0,0,0,83,188.91Z"/><g class="1af61e2c-bb96-4fdf-9263-1c0dddcd0707"><path class="0a5ec3f7-3a17-4bd3-a5d8-e2016cc36f70" d="M1.81,120.28l2.68,1.43a0.84,0.84,0,0,0,.7,0l8.7-3.94a0.2,0.2,0,0,1,.28.15l1.54,9.43a0.84,0.84,0,0,0,.43.56l2.58,1.38q0.42,0.23.54,0a0.54,0.54,0,0,0,0-.27L17.16,116.8a0.3,0.3,0,0,1,.12-0.22l11.4-5a0.28,0.28,0,0,0,.21-0.28,0.51,0.51,0,0,0-.31-0.33l-2.68-1.43a0.84,0.84,0,0,0-.7,0l-8.64,3.93a0.26,0.26,0,0,1-.16,0,0.26,0.26,0,0,1-.12-0.11l-1.56-9.39a0.84,0.84,0,0,0-.43-0.56l-2.63-1.41q-0.42-.23-0.54,0a0.53,0.53,0,0,0,0,.27l2.13,12.27a0.17,0.17,0,0,1-.12.22l-11.4,5a0.27,0.27,0,0,0-.21.28A0.5,0.5,0,0,0,1.81,120.28Z"/></g><g class="1af61e2c-bb96-4fdf-9263-1c0dddcd0707"><path class="0a5ec3f7-3a17-4bd3-a5d8-e2016cc36f70" d="M110,113.94l21.85,9.26a0.8,0.8,0,0,0,1.19-.48l1.49-3.5A0.8,0.8,0,0,0,134,118l-21.85-9.26a0.8,0.8,0,0,0-1.19.48l-1.49,3.5A0.8,0.8,0,0,0,110,113.94Z"/></g><g class="1af61e2c-bb96-4fdf-9263-1c0dddcd0707"><path class="0a5ec3f7-3a17-4bd3-a5d8-e2016cc36f70" d="M120.6,190.5l15.88,7.1a0.59,0.59,0,0,0,.88-0.34l1.14-2.55a0.59,0.59,0,0,0-.34-0.88l-15.88-7.1a0.59,0.59,0,0,0-.88.34l-1.14,2.55A0.59,0.59,0,0,0,120.6,190.5Z"/><circle class="0a5ec3f7-3a17-4bd3-a5d8-e2016cc36f70" cx="133.04" cy="183.98" r="3.81" transform="translate(-63.5 70.32) rotate(-24.09)"/><circle class="0a5ec3f7-3a17-4bd3-a5d8-e2016cc36f70" cx="125.66" cy="200.49" r="3.81" transform="translate(-70.88 68.75) rotate(-24.09)"/></g><path class="f63a1988-d0ab-4575-82bf-2d760f74f749" d="M148.19,29.62l-6.53,2.15s-2.49,3,1.18,4.32l6.7-2.6L150.92,52s0.57,3.27,3.19,1.23,16.35-25.43,16.35-25.43l27.09,10.48s3.86-1.56,1.85-4.78L169.12,21.84,154.41,45.66l-0.86-15.12a2.08,2.08,0,0,0-2.78-1.84Z"/><path class="f63a1988-d0ab-4575-82bf-2d760f74f749" d="M10.52,80.92l21.26-36L63.21,68.53ZM34.39,55.13L21.9,73.19l27.92-6.94Z"/><g class="1af61e2c-bb96-4fdf-9263-1c0dddcd0707"><path class="0a5ec3f7-3a17-4bd3-a5d8-e2016cc36f70" d="M189.12,144.25a8.26,8.26,0,1,1,1.53-11.58A8.26,8.26,0,0,1,189.12,144.25Zm-1.86-3a4.67,4.67,0,1,0-6.55-.87A4.67,4.67,0,0,0,187.26,141.29Z"/><polygon class="0a5ec3f7-3a17-4bd3-a5d8-e2016cc36f70" points="190.76 133.24 189.64 131.77 192.8 129.34 193.93 130.81 190.76 133.24"/><path class="0a5ec3f7-3a17-4bd3-a5d8-e2016cc36f70" d="M177.54,142.72l-27.8,15.86s-0.55-12,26.31-19.27Z"/><path class="0a5ec3f7-3a17-4bd3-a5d8-e2016cc36f70" d="M178.39,142.26L155.84,165s11.4,3.64,25.44-20.4Z"/><polygon class="0a5ec3f7-3a17-4bd3-a5d8-e2016cc36f70" points="169.73 153.3 165.31 147.54 166.44 146.67 170.86 152.44 169.73 153.3"/><polygon class="0a5ec3f7-3a17-4bd3-a5d8-e2016cc36f70" points="193.16 133.1 190.44 129.56 194.06 126.78 196.77 130.32 193.16 133.1"/></g><path class="f63a1988-d0ab-4575-82bf-2d760f74f749" d="M119.14,163.49a18.52,18.52,0,1,1-7.82-25A18.53,18.53,0,0,1,119.14,163.49Zm-5.66-18.78a29,29,0,0,1-.8,7l4.84,2.54A14.87,14.87,0,0,0,113.48,144.71Zm-10.44,2,6.27,3.29a26.09,26.09,0,0,0,.27-8.14A26.09,26.09,0,0,0,103,146.68Zm-9.18,7.74a26.59,26.59,0,0,1,3.44-6.56L91.75,145a14.49,14.49,0,0,0-3.44,6.56ZM92,165.06a29,29,0,0,1,.8-7l-4.84-2.54A14.79,14.79,0,0,0,92,165.06Zm13-24.81a14.79,14.79,0,0,0-10.17,2.12l4.84,2.54A29,29,0,0,1,105,140.26Zm-2.56,22.84-6.27-3.29a26.09,26.09,0,0,0-.27,8.14A26.09,26.09,0,0,0,102.43,163.09Zm4.41-6.06a27,27,0,0,0,1.46-3.42l-7.68-4a23.3,23.3,0,0,0-3.44,6.56l7.68,4A27.25,27.25,0,0,0,106.83,157Zm3.81,10.36-4.84-2.54a29,29,0,0,1-5.33,4.65A14.87,14.87,0,0,0,110.64,167.4Zm3.07-2.58a14.49,14.49,0,0,0,3.44-6.56l-5.55-2.91a26.59,26.59,0,0,1-3.44,6.56Z"/><path class="f63a1988-d0ab-4575-82bf-2d760f74f749" d="M202.41,180.64l-9.27,20.94a2.55,2.55,0,0,1-3.36,1.3l-11.63-5.15a2.54,2.54,0,0,1-1.28-3.35l9.27-20.94a2.54,2.54,0,0,1,3.35-1.3l11.63,5.16A2.54,2.54,0,0,1,202.41,180.64Zm-3.36,1.3-11.63-5.15-7.21,16.29,11.63,5.15Z"/><path class="f63a1988-d0ab-4575-82bf-2d760f74f749" d="M49.85,198.79l-1.68,4L0,182.6l1.68-4,8,3.37a4.37,4.37,0,0,1-2.33-5.7l8.42-20.07a4.37,4.37,0,0,1,5.7-2.33l32.11,13.47a4.37,4.37,0,0,1,2.33,5.7L47.5,193.09a4.35,4.35,0,0,1-5.68,2.34ZM11.4,177.94l32.11,13.47,8.42-20.07L19.81,157.87Z"/><g class="1af61e2c-bb96-4fdf-9263-1c0dddcd0707"><path class="0a5ec3f7-3a17-4bd3-a5d8-e2016cc36f70" d="M183.93,84.72l-11.2,24.18a4.29,4.29,0,0,1-5.61,2.3l-15-6.93a4.29,4.29,0,0,1-1.88-5.76l11.2-24.18a4.29,4.29,0,0,1,5.61-2.3l15,6.93A4.29,4.29,0,0,1,183.93,84.72ZM164,104.86l-5-2.31-0.62,1.34,5,2.31Zm17.75-21.14-18.09-8.38-10,21.49,18.09,8.38Z"/></g><path class="f63a1988-d0ab-4575-82bf-2d760f74f749" d="M115.16,14.4C111.68,20.84,98,25.72,98,25.72S94.5,11.57,98,5.13A9.76,9.76,0,0,1,115.16,14.4Zm-5.52-3a3.49,3.49,0,1,0-4.72,1.41A3.49,3.49,0,0,0,109.63,11.42Z"/><g class="1af61e2c-bb96-4fdf-9263-1c0dddcd0707"><path class="0a5ec3f7-3a17-4bd3-a5d8-e2016cc36f70" d="M20.64,15.11a7.72,7.72,0,0,1-1,6.29,2.15,2.15,0,0,0-.26,1.75L20,25.62a2.23,2.23,0,0,1-1.56,2.72l-0.3.08a2.2,2.2,0,0,1-3.68,1l-0.3.08a2.23,2.23,0,0,1-2.72-1.56L10.8,25.47a2.16,2.16,0,0,0-1.13-1.38,7.76,7.76,0,0,1,0-13.89,7.45,7.45,0,0,1,1.46-.56A7.76,7.76,0,0,1,20.64,15.11Zm-3,10-4.28,1.16,0.29,1.07,4.28-1.16ZM17,23l-4.28,1.16L13,25.22l4.28-1.16Zm-1.51-7-1-.55-1.27,2.21-2.21-1.27-0.55,1L13,18.79l0.75,2.77,1.07-.29L14.08,18.5Z"/></g><g class="1af61e2c-bb96-4fdf-9263-1c0dddcd0707"><path class="0a5ec3f7-3a17-4bd3-a5d8-e2016cc36f70" d="M66.78,30.36a4.64,4.64,0,0,1-.51,2.39,4.73,4.73,0,0,1-1.62,1.87,4.68,4.68,0,0,1-2.3.81H62A4.6,4.6,0,0,1,60,35a4.67,4.67,0,0,1-2.64-3.92,4.73,4.73,0,0,1,.48-2.43,4.61,4.61,0,0,1,1.61-1.84,4.78,4.78,0,0,1,4.75-.32A6.5,6.5,0,0,1,66,28.07h0A6.67,6.67,0,0,1,66.78,30.36Zm-2.63,1.36h0a2.33,2.33,0,0,0,.14-1.84,2.22,2.22,0,0,0-1.19-1.35,2.34,2.34,0,0,0-1-.25,2.38,2.38,0,0,0-.78.14,2.31,2.31,0,0,0-1.37,1.24,2.42,2.42,0,0,0-.16,1.88A2.23,2.23,0,0,0,61,32.91a2.18,2.18,0,0,0,1.8.09A2.43,2.43,0,0,0,64.16,31.72Z"/><path class="0a5ec3f7-3a17-4bd3-a5d8-e2016cc36f70" d="M53.14,14.64a4.79,4.79,0,0,1,2.08-4.28,4.72,4.72,0,0,1,2.29-.79,4.65,4.65,0,0,1,2.42.47,4.6,4.6,0,0,1,1.84,1.6,4.72,4.72,0,0,1,.79,2.29,4.79,4.79,0,0,1-2.08,4.28,4.72,4.72,0,0,1-2.29.79H57.82a4.6,4.6,0,0,1-2-.47,4.65,4.65,0,0,1-1.86-1.61A4.71,4.71,0,0,1,53.14,14.64Zm2.45,0.45a2.28,2.28,0,0,0,1.2,1.39,2.2,2.2,0,0,0,1.8.1,2.54,2.54,0,0,0,1.52-3.12,2.21,2.21,0,0,0-1.19-1.36,2.31,2.31,0,0,0-1-.25,2.42,2.42,0,0,0-2.18,1.36h0A2.4,2.4,0,0,0,55.6,15.09Z"/><path class="0a5ec3f7-3a17-4bd3-a5d8-e2016cc36f70" d="M70.59,15.87a0.74,0.74,0,0,0-.42-0.55l-0.86-.42a0.84,0.84,0,0,0-.93.08L49.53,28.38a0.7,0.7,0,0,0-.33.7,0.74,0.74,0,0,0,.42.55l0.86,0.42a1,1,0,0,0,.42.1A0.8,0.8,0,0,0,51.41,30L70.26,16.58A0.71,0.71,0,0,0,70.59,15.87Z"/></g><path class="f63a1988-d0ab-4575-82bf-2d760f74f749" d="M191.81,8.46A5.78,5.78,0,1,1,186,2.67,5.78,5.78,0,0,1,191.81,8.46Zm-1.62,0A4.16,4.16,0,1,0,186,12.62,4.16,4.16,0,0,0,190.19,8.46Z"/><g id="99a0245f-26df-4dd1-b32e-5dc8cf270f7e" data-name="O2GW8N" class="1af61e2c-bb96-4fdf-9263-1c0dddcd0707"><path class="0a5ec3f7-3a17-4bd3-a5d8-e2016cc36f70" d="M72.59,109.19l-5.43-2.37-1.51,2.75C63.78,113,61.92,116.4,60,119.78a14.66,14.66,0,0,1-3.53,4.46,3.18,3.18,0,0,1-5.07-1.31,2.82,2.82,0,0,1,1.08-3.34c1.12-.74,2.3-1.39,3.42-2.13a20.21,20.21,0,0,0,5.94-6.22c1-1.61,1.86-3.33,2.78-5,0.16-.29.17-0.51-0.2-0.66a25.39,25.39,0,0,0-2.4-.95,4.91,4.91,0,0,0-4.52,1l-0.38.29c-0.71.5-.71,0.5-1.55-0.07,1.29-1.25,2.55-2.51,3.86-3.71a3.9,3.9,0,0,1,3.2-.93,9.16,9.16,0,0,1,2.12.43c2.56,0.95,5.12,1.9,7.63,3,3.53,1.49,7,3.08,10.53,4.63l0.53,0.27-1.63,3.73L76,110.72c-0.41.84-.77,1.64-1.19,2.42-1.31,2.44-2.69,4.84-3.93,7.32a17.81,17.81,0,0,0-1.49,4.11,2.9,2.9,0,0,0,4,3.33,6.27,6.27,0,0,0,1.6-1.38,2.57,2.57,0,0,0,.33-0.52l0.94,0.41c-0.32.53-.6,1.05-0.94,1.54A8.88,8.88,0,0,1,72,130.87a5.28,5.28,0,0,1-6-.8,4.73,4.73,0,0,1-1.32-5.54,44,44,0,0,1,2.44-5.16c1.7-3.21,3.48-6.38,5.23-9.56C72.42,109.63,72.49,109.44,72.59,109.19Z"/></g></pattern></defs><title>FondoReactivos_Blanco_Opacidad4</title><rect class="764b8fa4-eb2b-4e10-9c00-d95c2f53d850" width="1024" height="768"/></svg>