<svg xmlns="http://www.w3.org/2000/svg" viewBox="0 0 680.99 690.74"><defs><style>.\36 effd819-8106-475f-afcb-d33e9d65029d{isolation:isolate;}.f1e77a64-4383-41d3-a3a1-b549702a3517{fill:#fbb03b;}.e16fac37-454f-4682-8ca2-b513231ae0e6{fill:#bc842c;}.\39 3e13be1-017d-4009-b4ff-4f383b3f0a0d{fill:#4b4b4b;opacity:0.2;mix-blend-mode:multiply;}.\31 4232fe9-bffd-4da1-8b75-35f1dc12927f{fill:#fff;}</style></defs><title>Icono_PreguntaAbierta</title><g class="6effd819-8106-475f-afcb-d33e9d65029d"><g id="a7f422e0-a4f1-4a5e-a43b-a1645345d60a" data-name="Layer 1"><polygon class="f1e77a64-4383-41d3-a3a1-b549702a3517" points="108.82 0 0 561.64 572.17 666.95 680.99 105.31 108.82 0"/><polygon class="e16fac37-454f-4682-8ca2-b513231ae0e6" points="0 561.64 572.17 666.95 680.99 105.31 561.14 647.19 0 561.64"/><polygon class="93e13be1-017d-4009-b4ff-4f383b3f0a0d" points="0 561.64 572.17 666.95 680.99 105.31 580.94 690.74 0 561.64"/><path class="14232fe9-bffd-4da1-8b75-35f1dc12927f" d="M-899.06,409.31a6.78,6.78,0,0,1-.89-5l0.89-5.56q2.66-16.68,10.61-27.89a62.17,62.17,0,0,1,17.61-17.23,226.65,226.65,0,0,1,24.33-12.8q14.66-6.78,21.93-12.4a22.27,22.27,0,0,0,8.7-14.6q1.43-9-3.71-15.3t-15-8.29q-11.52-2.3-19.3,2.55A19.65,19.65,0,0,0-863.2,307l-0.27,1.71q-1,6-7.13,4.76l-64.52-15.95q-6.17-1.23-5.42-5.94,4.44-27.8,21.05-46.77t42.18-26.24q25.56-7.25,56.42-1.11,29.62,5.9,49.85,21.41t29.19,37.81q9,22.3,4.73,48.82-3.07,19.25-11.36,31.28t-18,18.47a237,237,0,0,1-24.95,14q-15.15,7.14-22.68,13.13t-9.25,16.69l-0.07.43a6.34,6.34,0,0,1-2.4,4.38,5.91,5.91,0,0,1-4.8.81l-64.18-12.79A6.33,6.33,0,0,1-899.06,409.31Zm-7.31,95q-9.1-13.5-6.29-31,2.87-18,15.55-26.91t29.55-5.59q16.86,3.36,26,16.66t6.26,31.26q-2.73,17.11-15.48,26.48t-29.61,6Q-897.29,517.79-906.38,504.28Z" transform="translate(1189.85 -20.38)"/></g></g></svg>