<svg id="b9bf9d2a-40e1-404b-bb52-d92ad25a6ac2" data-name="Layer 2" xmlns="http://www.w3.org/2000/svg" viewBox="0 0 800 800"><defs><style>.bb5087ea-eb93-494d-93f1-3ffd9c3b0faf{fill:#78c4e4;}.\36 2e85de3-a882-43e7-9f0d-bdf51d342871{fill:#fff;}.\33 aefa599-22ce-4a4a-859e-40b8d618a3c8{fill:#fbb03b;}.ed599539-a180-4855-b0af-159880f943ae{fill:#e57171;}</style></defs><title>Clasificacion</title><polygon class="bb5087ea-eb93-494d-93f1-3ffd9c3b0faf" points="105.75 138.04 61.48 211.32 117.97 476.97 137.81 489.18 346.98 400.63 386.67 139.56 359.19 121.24 232.47 154.83 188.2 124.3 105.75 138.04"/><polygon class="bb5087ea-eb93-494d-93f1-3ffd9c3b0faf" points="117.97 476.97 136.29 305.98 307.28 185.37 441.63 138.04 459.95 159.41 444.69 205.21 346.98 400.63 137.81 489.18 117.97 476.97"/><polygon class="62e85de3-a882-43e7-9f0d-bdf51d342871" points="122.55 405.21 85.91 211.32 121.02 159.41 179.04 148.72 223.31 183.84 360.72 150.25 362.24 163.99 307.28 185.37 136.29 305.98 122.55 405.21"/><polygon class="3aefa599-22ce-4a4a-859e-40b8d618a3c8" points="177 203.42 122.55 293.55 192.02 620.27 216.43 635.29 473.68 526.39 522.5 205.3 488.7 182.77 332.85 224.08 278.4 186.52 177 203.42"/><polygon class="3aefa599-22ce-4a4a-859e-40b8d618a3c8" points="192.02 620.27 214.55 409.97 424.86 261.63 590.09 203.42 612.63 229.71 593.85 286.04 473.68 526.39 216.43 635.29 192.02 620.27"/><polygon class="62e85de3-a882-43e7-9f0d-bdf51d342871" points="197.66 532.02 152.59 293.55 195.78 229.71 267.13 216.57 321.58 259.75 490.58 218.44 492.45 235.34 424.86 261.63 214.55 409.97 197.66 532.02"/><polygon class="ed599539-a180-4855-b0af-159880f943ae" points="285.91 266.88 226.36 365.43 302.33 722.68 329.02 739.11 610.31 620.03 663.69 268.93 626.74 244.29 456.32 289.46 396.78 248.4 285.91 266.88"/><polygon class="ed599539-a180-4855-b0af-159880f943ae" points="302.33 722.68 326.97 492.73 556.93 330.53 737.61 266.88 762.25 295.62 741.71 357.22 610.31 620.03 329.02 739.11 302.33 722.68"/><polygon class="62e85de3-a882-43e7-9f0d-bdf51d342871" points="308.49 626.18 259.21 365.43 306.44 295.62 384.46 281.25 444 328.47 628.79 283.3 630.84 301.78 556.93 330.53 326.97 492.73 308.49 626.18"/></svg>