<svg id="905aa7a2-3446-45be-b0b9-d2058f1b60c0" data-name="Layer 1" xmlns="http://www.w3.org/2000/svg" viewBox="0 0 621.75 520.52"><defs><style>.\35 8471469-d92f-404d-8cf7-c5f95c093565,.fd1db0f2-3658-44e5-8442-11b71e11b97a{fill:none;stroke-miterlimit:10;}.\35 8471469-d92f-404d-8cf7-c5f95c093565{stroke:#a9ddf3;stroke-width:19px;}.\36 3f7f1bf-9b4d-4ca6-9b8a-c4fae2b37e2e{fill:#ff777c;}.fd1db0f2-3658-44e5-8442-11b71e11b97a{stroke:#c6686b;stroke-width:18px;}.ea746aa6-534a-446c-b891-b4a7eb6b4191{font-size:141.97px;font-family:Barlow Semi Condensed;}.\36 b10f2e4-ab5f-4b60-96fc-0062ab3f4e46,.ea746aa6-534a-446c-b891-b4a7eb6b4191{fill:#fff;}.\31 1c7eb3e-2bc3-4a9f-9f7c-d1877cf820fc{fill:#29abe2;}</style></defs><title>Icono_RelacionDeColumnas</title><polyline class="58471469-d92f-404d-8cf7-c5f95c093565" points="268.69 393.34 331.19 393.34 331.19 86.34 388.69 86.34"/><rect class="63f7f1bf-9b4d-4ca6-9b8a-c4fae2b37e2e" x="360" y="258.86" width="261.75" height="261.66" rx="12" ry="12"/><polyline class="fd1db0f2-3658-44e5-8442-11b71e11b97a" points="260.69 136.84 288.69 136.84 288.69 451.84 359.69 451.84"/><text class="ea746aa6-534a-446c-b891-b4a7eb6b4191" transform="translate(461.32 436.42) scale(1.2 1)">1</text><rect class="11c7eb3e-2bc3-4a9f-9f7c-d1877cf820fc" x="57.61" y="308" width="212.35" height="212.28" rx="12" ry="12"/><path class="6b10f2e4-ab5f-4b60-96fc-0062ab3f4e46" d="M-2794.29,1148.38a0.61,0.61,0,0,0,.61.25h25.7a2,2,0,0,1,1.34.41,1.38,1.38,0,0,1,.49,1.12v13.3a1.38,1.38,0,0,1-.49,1.12,2,2,0,0,1-1.34.41h-54a2,2,0,0,1-1.34-.41,1.37,1.37,0,0,1-.49-1.12v-13.1a2.44,2.44,0,0,1,1-1.93q16-13.3,24.36-21.63,8.28-7.92,8.28-12.49a4.52,4.52,0,0,0-1.46-3.6,5.93,5.93,0,0,0-4-1.27,6.22,6.22,0,0,0-4,1.27,4.14,4.14,0,0,0-1.58,3.4v3.15a1.38,1.38,0,0,1-.49,1.12,2,2,0,0,1-1.34.41h-19.49a2,2,0,0,1-1.34-.41,1.37,1.37,0,0,1-.49-1.12v-5.08a16.62,16.62,0,0,1,4.45-10.1,25.68,25.68,0,0,1,10.42-6.65,42.4,42.4,0,0,1,14.5-2.34,37.3,37.3,0,0,1,14.8,2.74,22.5,22.5,0,0,1,9.81,7.57,18.3,18.3,0,0,1,3.41,10.81,19.86,19.86,0,0,1-2.13,9.09,38,38,0,0,1-6.76,9,73.27,73.27,0,0,1-6.4,6q-4,3.35-7.86,6.5l-3.9,3.15Q-2794.41,1148.13-2794.29,1148.38Z" transform="translate(2959.05 -714.9)"/><rect class="11c7eb3e-2bc3-4a9f-9f7c-d1877cf820fc" x="387.61" width="212.35" height="212.28" rx="12" ry="12"/><path class="6b10f2e4-ab5f-4b60-96fc-0062ab3f4e46" d="M-2464.29,840.38a0.61,0.61,0,0,0,.61.25h25.7a2,2,0,0,1,1.34.41,1.38,1.38,0,0,1,.49,1.12v13.3a1.38,1.38,0,0,1-.49,1.12,2,2,0,0,1-1.34.41h-54a2,2,0,0,1-1.34-.41,1.37,1.37,0,0,1-.49-1.12v-13.1a2.44,2.44,0,0,1,1-1.93q16-13.3,24.36-21.63,8.28-7.92,8.28-12.49a4.52,4.52,0,0,0-1.46-3.6,5.93,5.93,0,0,0-4-1.27,6.22,6.22,0,0,0-4,1.27,4.14,4.14,0,0,0-1.58,3.4v3.15a1.38,1.38,0,0,1-.49,1.12,2,2,0,0,1-1.34.41h-19.49a2,2,0,0,1-1.34-.41,1.37,1.37,0,0,1-.49-1.12v-5.08a16.62,16.62,0,0,1,4.45-10.1,25.68,25.68,0,0,1,10.42-6.65,42.4,42.4,0,0,1,14.5-2.34,37.3,37.3,0,0,1,14.8,2.74,22.5,22.5,0,0,1,9.81,7.57,18.3,18.3,0,0,1,3.41,10.81,19.86,19.86,0,0,1-2.13,9.09,38,38,0,0,1-6.76,9,73.27,73.27,0,0,1-6.4,6q-4,3.35-7.86,6.5l-3.9,3.15Q-2464.41,840.13-2464.29,840.38Z" transform="translate(2959.05 -714.9)"/><rect class="63f7f1bf-9b4d-4ca6-9b8a-c4fae2b37e2e" y="1.35" width="261.75" height="261.66" rx="12" ry="12"/><text class="ea746aa6-534a-446c-b891-b4a7eb6b4191" transform="translate(95.28 187.39) scale(1.2 1)">1</text></svg>