<svg id="17fd24bd-fbcf-4991-8378-0d462b35c2c7" data-name="Layer 1" xmlns="http://www.w3.org/2000/svg" viewBox="0 0 574.5 556.72"><defs><style>.\36 a1f36f0-cd9b-40ce-be25-184406d391a5{fill:#b24146;}.\36 1b9174a-d75d-46b7-b4fc-60c9b05ec751{fill:#ff777c;}.\39 1b0c2fc-1baa-44c9-a6f7-3eee1aa2e681{fill:#fff;}.d8dc4a6f-3bef-4cb6-b367-ca6fb7fdaacd{fill:#999;}</style></defs><title>Icono_DragNDrop</title><path class="6a1f36f0-cd9b-40ce-be25-184406d391a5" d="M-2456,1474.46h-20v-3.33h-3.33v-20H-2466a10,10,0,0,1,10,10v13.33Z" transform="translate(2813.86 -1451.12)"/><path class="6a1f36f0-cd9b-40ce-be25-184406d391a5" d="M-2507.67,1471.12H-2536v-20h28.29v20Zm-56.57,0h-28.29v-20h28.29v20Zm-56.57,0h-28.29v-20h28.29v20Zm-56.57,0h-28.29v-20h28.29v20Zm-56.57,0h-28.29v-20H-2734v20Z" transform="translate(2813.86 -1451.12)"/><path class="6a1f36f0-cd9b-40ce-be25-184406d391a5" d="M-2793.86,1474.46h-20v-13.33a10,10,0,0,1,10-10h13.33v20h-3.33v3.33Z" transform="translate(2813.86 -1451.12)"/><path class="6a1f36f0-cd9b-40ce-be25-184406d391a5" d="M-2793.86,1757.31h-20V1729h20v28.29Zm0-56.57h-20v-28.29h20v28.29Zm0-56.57h-20v-28.29h20v28.29Zm0-56.57h-20v-28.29h20v28.29Zm0-56.57h-20v-28.29h20V1531Z" transform="translate(2813.86 -1451.12)"/><path class="6a1f36f0-cd9b-40ce-be25-184406d391a5" d="M-2790.52,1808.94h-13.33a10,10,0,0,1-10-10V1785.6h20v3.33h3.33v20Z" transform="translate(2813.86 -1451.12)"/><path class="6a1f36f0-cd9b-40ce-be25-184406d391a5" d="M-2507.67,1808.94H-2536v-20h28.29v20Zm-56.57,0h-28.29v-20h28.29v20Zm-56.57,0h-28.29v-20h28.29v20Zm-56.57,0h-28.29v-20h28.29v20Zm-56.57,0h-28.29v-20H-2734v20Z" transform="translate(2813.86 -1451.12)"/><path class="6a1f36f0-cd9b-40ce-be25-184406d391a5" d="M-2466,1808.94h-13.33v-20h3.33v-3.33h20v13.33A10,10,0,0,1-2466,1808.94Z" transform="translate(2813.86 -1451.12)"/><path class="6a1f36f0-cd9b-40ce-be25-184406d391a5" d="M-2456,1757.31h-20V1729h20v28.29Zm0-56.57h-20v-28.29h20v28.29Zm0-56.57h-20v-28.29h20v28.29Zm0-56.57h-20v-28.29h20v28.29Zm0-56.57h-20v-28.29h20V1531Z" transform="translate(2813.86 -1451.12)"/><rect class="61b9174a-d75d-46b7-b4fc-60c9b05ec751" x="236.69" y="218.91" width="337.81" height="337.81"/><path class="91b0c2fc-1baa-44c9-a6f7-3eee1aa2e681" d="M-2649.4,1694.48s-40,2.22-28.89,44.45,61.12,90,93.34,94.45,63.34,13.33,118.9-16.67,64.45-76.67,61.12-113.34c-2.71-29.8-83.34-152.24-131.12-128.9,0,0-48.89-13.33-50,28.89,0,0-37.78-12.22-34.45,30,0,0-45.56-16.67-42.23,31.11Z" transform="translate(2813.86 -1451.12)"/><path class="d8dc4a6f-3bef-4cb6-b367-ca6fb7fdaacd" d="M-2541.11,1849.24c-13.17,0-24.9-1.78-36.07-3.48-3.1-.47-6.19-0.94-9.29-1.37-38.1-5.26-90.83-58-102.57-102.63-4.33-16.47-2.62-30.18,5.08-40.77a41.9,41.9,0,0,1,19-14.17l-7.92-17.82a11.1,11.1,0,0,1-.93-3.74c-1.25-18,3.36-31.05,13.71-38.84,9.05-6.81,20.14-7.59,28.88-6.7,1.44-9.6,5.43-17,12-22.18,7.56-6,16.58-7.21,23.82-6.91a37.14,37.14,0,0,1,13.69-20.78c15.09-11.22,35.87-8.75,44.68-7,13.07-4.81,28-2.58,44.32,6.64,28.14,15.85,53.35,48.21,65.88,66.09,14.28,20.39,31.5,50.12,33,66.8,3.48,38.27-5.3,90.86-66.9,124.13C-2494,1844.42-2519.47,1849.24-2541.11,1849.24Zm-107.6-143.67c-0.35,0-11.91,1-17.34,8.58-3.53,4.93-4,12.31-1.5,22,4.63,17.61,18,38.67,35.83,56.33,16.81,16.68,35.31,28.15,48.28,29.94,3.2,0.44,6.39.93,9.59,1.41,28.62,4.35,55.65,8.46,102.51-16.85,40.89-22.08,59.51-56.59,55.33-102.56-1.68-18.46-46.79-92.51-87.67-115.54-11.25-6.33-20.5-7.81-27.51-4.39a11.12,11.12,0,0,1-7.8.74c-5.35-1.42-21.17-3.76-29.57,2.52-1.51,1.13-6.11,4.57-6.41,15.94a11.11,11.11,0,0,1-4.69,8.78,11.12,11.12,0,0,1-9.84,1.5c-2.7-.83-11.61-2.48-16.05,1.07s-4.3,12.44-3.9,17.48a11.11,11.11,0,0,1-4.36,9.72,11.11,11.11,0,0,1-10.54,1.59c-3.84-1.37-16.3-4.27-22.45.4-4.46,3.38-5.23,11.1-5,17.63l12.51,28.14a11.11,11.11,0,0,1-.67,10.31A11.12,11.12,0,0,1-2648.71,1705.57Z" transform="translate(2813.86 -1451.12)"/><line class="91b0c2fc-1baa-44c9-a6f7-3eee1aa2e681" x1="151.13" y1="213.35" x2="196.69" y2="294.47"/><path class="d8dc4a6f-3bef-4cb6-b367-ca6fb7fdaacd" d="M-2617.16,1756.71a11.11,11.11,0,0,1-9.7-5.67l-45.56-81.12a11.11,11.11,0,0,1,4.25-15.13A11.11,11.11,0,0,1-2653,1659l45.56,81.12a11.11,11.11,0,0,1-4.25,15.13A11.06,11.06,0,0,1-2617.16,1756.71Z" transform="translate(2813.86 -1451.12)"/><line class="91b0c2fc-1baa-44c9-a6f7-3eee1aa2e681" x1="191.75" y1="173.14" x2="221.62" y2="220.24"/><path class="d8dc4a6f-3bef-4cb6-b367-ca6fb7fdaacd" d="M-2592.22,1682.47a11.1,11.1,0,0,1-9.39-5.16l-29.87-47.1a11.11,11.11,0,0,1,3.43-15.34,11.11,11.11,0,0,1,15.34,3.43l29.87,47.1a11.11,11.11,0,0,1-3.43,15.34A11.06,11.06,0,0,1-2592.22,1682.47Z" transform="translate(2813.86 -1451.12)"/><line class="91b0c2fc-1baa-44c9-a6f7-3eee1aa2e681" x1="227.31" y1="150.91" x2="257.18" y2="198.01"/><path class="d8dc4a6f-3bef-4cb6-b367-ca6fb7fdaacd" d="M-2556.66,1660.25a11.1,11.1,0,0,1-9.39-5.16l-29.87-47.1a11.11,11.11,0,0,1,3.43-15.34,11.11,11.11,0,0,1,15.34,3.43l29.87,47.1a11.11,11.11,0,0,1-3.43,15.34A11.06,11.06,0,0,1-2556.66,1660.25Z" transform="translate(2813.86 -1451.12)"/><line class="91b0c2fc-1baa-44c9-a6f7-3eee1aa2e681" x1="273.98" y1="126.46" x2="303.85" y2="173.57"/><path class="d8dc4a6f-3bef-4cb6-b367-ca6fb7fdaacd" d="M-2510,1635.8a11.1,11.1,0,0,1-9.39-5.16l-29.87-47.1a11.11,11.11,0,0,1,3.43-15.34,11.11,11.11,0,0,1,15.34,3.43l29.87,47.1a11.11,11.11,0,0,1-3.43,15.34A11.06,11.06,0,0,1-2510,1635.8Z" transform="translate(2813.86 -1451.12)"/></svg>