<svg xmlns="http://www.w3.org/2000/svg" viewBox="0 0 646.42 509.01"><defs><style>.\31 fb970ce-27fb-4d13-a6fd-a79a80aafb9b{isolation:isolate;}.a743a823-d35b-4db7-98fe-a56a129c5f00{fill:#ff7bac;}.\30 e3ea5cc-e676-45eb-b046-0c30fdc93f01{fill:#8cc63f;}.\34 0a943e1-df77-4708-8e67-83adaac1459e{fill:#fff;}.aa619297-ec68-403f-9f20-4aaa75d17898{fill:#485b94;}.ba7e695b-006d-4c8c-b081-4e2e7a8af579{fill:#4b4b4b;opacity:0.2;mix-blend-mode:multiply;}</style></defs><title>Icono_MultiplesPreguntas</title><g class="1fb970ce-27fb-4d13-a6fd-a79a80aafb9b"><g id="77c808b7-0e70-4438-b3f7-9a2912749a27" data-name="Layer 1"><polygon class="a743a823-d35b-4db7-98fe-a56a129c5f00" points="335.57 0 235.46 304.74 546.3 403.64 646.41 98.91 335.57 0"/><polygon class="0e3ea5cc-e676-45eb-b046-0c30fdc93f01" points="0 87.06 33.83 406.03 357.87 368.59 324.04 49.62 0 87.06"/><path class="40a943e1-df77-4708-8e67-83adaac1459e" d="M-1208.38,1932.28a3.8,3.8,0,0,1-1.31-2.55l-0.44-3.13a36.67,36.67,0,0,1,1.11-16.7,34.86,34.86,0,0,1,6.61-12.13,127.08,127.08,0,0,1,10.94-10.86,66.58,66.58,0,0,0,9.72-10.25,12.49,12.49,0,0,0,2.27-9.25,10.39,10.39,0,0,0-4.5-7.6,13.92,13.92,0,0,0-9.41-2q-6.55.66-9.93,4.53a11,11,0,0,0-2.64,9.17l0.13,1q0.47,3.37-3,3.72l-37.21,2q-3.51.35-3.88-2.29-2.18-15.63,3.61-28.53a48.15,48.15,0,0,1,18.31-21q12.51-8.08,30.07-9.85,16.85-1.7,30.24,3.3a49.86,49.86,0,0,1,21.86,15.48q8.46,10.49,10.55,25.4,1.51,10.82-1,18.63a38.08,38.08,0,0,1-6.63,12.86,132.86,132.86,0,0,1-11.08,11.6,67,67,0,0,0-10,10.76,14.34,14.34,0,0,0-2.22,10.47l0,0.24a3.56,3.56,0,0,1-.57,2.74,3.31,3.31,0,0,1-2.44,1.22l-36.51,3.67A3.55,3.55,0,0,1-1208.38,1932.28Zm11.66,52.12a23.43,23.43,0,0,1-8.47-15.61q-1.41-10.1,3.92-17t14.92-7.84a22.19,22.19,0,0,1,16.67,4.66q7.07,5.63,8.48,15.73,1.34,9.62-4,16.74t-14.89,8.08A22,22,0,0,1-1196.72,1984.4Z" transform="translate(1369.77 -1666.57)"/><path class="40a943e1-df77-4708-8e67-83adaac1459e" d="M-957.71,1876a3.8,3.8,0,0,1,0-2.87l1-3a36.67,36.67,0,0,1,8.37-14.49,34.86,34.86,0,0,1,11.29-8,127.08,127.08,0,0,1,14.61-4.9,66.58,66.58,0,0,0,13.25-4.9,12.49,12.49,0,0,0,6.12-7.3,10.39,10.39,0,0,0-.68-8.8,13.92,13.92,0,0,0-7.57-5.93q-6.17-2.3-10.91-.32a11,11,0,0,0-6.42,7.06l-0.3.92q-1.07,3.23-4.37,2l-34.28-14.61q-3.3-1.23-2.47-3.77,4.95-15,15.85-24a48.15,48.15,0,0,1,25.7-10.74q14.8-1.72,31.33,4.45,15.86,5.92,25.67,16.32a49.86,49.86,0,0,1,12.77,23.55q3,13.15-1.76,27.45-3.43,10.38-9.09,16.29a38.08,38.08,0,0,1-11.63,8.61,132.86,132.86,0,0,1-15.06,5.51,67,67,0,0,0-13.73,5.23,14.34,14.34,0,0,0-6.61,8.41l-0.08.23a3.56,3.56,0,0,1-1.72,2.21,3.31,3.31,0,0,1-2.73,0l-34.37-12.84A3.55,3.55,0,0,1-957.71,1876Zm-12.56,51.91a23.43,23.43,0,0,1-.7-17.75q3.2-9.68,11-13.5t16.85-.44a22.19,22.19,0,0,1,12.89,11.55q3.85,8.18.66,17.86-3,9.23-10.94,13.27t-16.93.67A22,22,0,0,1-970.27,1927.94Z" transform="translate(1369.77 -1666.57)"/><polygon class="aa619297-ec68-403f-9f20-4aaa75d17898" points="226.87 115.9 191.69 476.68 558.9 509.01 594.08 148.23 226.87 115.9"/><path class="40a943e1-df77-4708-8e67-83adaac1459e" d="M-987.38,2017.17a4.29,4.29,0,0,1-.57-3.19l0.56-3.52a41.44,41.44,0,0,1,6.72-17.67,39.39,39.39,0,0,1,11.16-10.92,143.61,143.61,0,0,1,15.42-8.11,75.25,75.25,0,0,0,13.9-7.86,14.11,14.11,0,0,0,5.51-9.25A11.74,11.74,0,0,0-937,1947q-3.26-4-9.52-5.25-7.3-1.46-12.23,1.62a12.45,12.45,0,0,0-5.88,9l-0.17,1.08q-0.61,3.8-4.52,3l-40.88-10.11q-3.91-.78-3.43-3.76,2.81-17.61,13.34-29.64a54.42,54.42,0,0,1,26.73-16.62q16.2-4.6,35.75-.7,18.77,3.74,31.59,13.57a56.35,56.35,0,0,1,18.5,24q5.67,14.13,3,30.94-1.95,12.19-7.2,19.82a43,43,0,0,1-11.42,11.71,150.15,150.15,0,0,1-15.81,8.87q-9.6,4.52-14.37,8.32a16.21,16.21,0,0,0-5.86,10.58l0,0.27a4,4,0,0,1-1.52,2.77,3.74,3.74,0,0,1-3,.51l-40.66-8.11A4,4,0,0,1-987.38,2017.17Zm-4.63,60.17q-5.76-8.55-4-19.67,1.82-11.38,9.85-17.05t18.72-3.54A25.08,25.08,0,0,1-951,2047.64q5.78,8.43,4,19.81-1.73,10.84-9.81,16.78t-18.76,3.81A24.82,24.82,0,0,1-992,2077.34Z" transform="translate(1369.77 -1666.57)"/><polygon class="ba7e695b-006d-4c8c-b081-4e2e7a8af579" points="324.04 49.62 332.91 124.66 594.08 148.23 346.6 109.89 324.04 49.62"/></g></g></svg>