<svg id="defd1de2-aa10-4dab-9a3f-6fdbfc438efe" data-name="Layer 1" xmlns="http://www.w3.org/2000/svg" viewBox="0 0 579.98 463.9"><defs><style>.\33 c52f340-51e4-481b-980d-cd5df6d45db1{fill:#71c949;}.\32 7d22619-6e49-4263-ba93-3a00d421df22{fill:#fff;}.fa285322-5576-4a57-b096-81a45b71494d{fill:#29abe2;}.abba8d97-78ac-4d55-8ebb-2555b98557c7{fill:#fbb03b;}.\31 c57c30e-885b-49e5-84b8-e8be89a22bd5{fill:#ff777c;}</style></defs><title>Icono_OpciónMultiple</title><rect class="3c52f340-51e4-481b-980d-cd5df6d45db1" x="-2141.35" y="-323.19" width="240.02" height="237.02" rx="27.46" ry="27.46" transform="translate(2161.37 207.46) rotate(-9.29)"/><path class="27d22619-6e49-4263-ba93-3a00d421df22" d="M-1991-140.32l-5.93-14.87a1.33,1.33,0,0,0-1.37-.8l-30.05,4.91a1.33,1.33,0,0,0-1,1.2l-0.68,16a3.16,3.16,0,0,1-3,3.16l-32.86,5.37a2.77,2.77,0,0,1-2.45-.53,2.84,2.84,0,0,1-.71-2.45l13.71-140.06a3,3,0,0,1,2.78-3.13l39.67-6.49a3.05,3.05,0,0,1,3.63,2.08l57.41,128.43a2.3,2.3,0,0,1,.36,1q0.39,2.4-2.41,2.86l-33.26,5.44A3.16,3.16,0,0,1-1991-140.32Zm-37-41.46a1,1,0,0,0,1.37.8l17-2.78a1.08,1.08,0,0,0,1-1.6l-15.83-40.2a0.87,0.87,0,0,0-.93-0.67,0.87,0.87,0,0,0-.67.93l-2,43.11Z" transform="translate(2154.83 536.32)"/><rect class="fa285322-5576-4a57-b096-81a45b71494d" x="91.63" width="240.02" height="237.02" rx="27.46" ry="27.46"/><path class="27d22619-6e49-4263-ba93-3a00d421df22" d="M-1906.55-357q-13.5,10.25-34.81,10.25h-48.72a3,3,0,0,1-2.23-.81,3,3,0,0,1-.81-2.23v-136a3,3,0,0,1,.81-2.23,3,3,0,0,1,2.23-.81h44.66q49.73,0,49.74,40,0,18.88-13.4,27.81c-0.81.54-.88,1-0.2,1.42q16,11,16,32.07Q-1893.05-367.26-1906.55-357ZM-1955-455v20.1a1.08,1.08,0,0,0,1.22,1.22h8.73q5.89,0,8.93-2.94t3-8.42q0-11.16-12-11.17h-8.73A1.08,1.08,0,0,0-1955-455Zm20.5,72.27q3-3.24,3-9.34,0-5.89-2.94-9.24t-8.42-3.35h-11a1.08,1.08,0,0,0-1.22,1.22v22.74a1.08,1.08,0,0,0,1.22,1.22H-1943Q-1937.5-379.44-1934.46-382.69Z" transform="translate(2154.83 536.32)"/><rect class="abba8d97-78ac-4d55-8ebb-2555b98557c7" x="-1830.1" y="-505.52" width="240.02" height="237.02" rx="27.46" ry="27.46" transform="translate(2053.93 845.51) rotate(10.64)"/><path class="27d22619-6e49-4263-ba93-3a00d421df22" d="M-1771.14-327a3,3,0,0,1-.39-2.34L-1746.4-463a3,3,0,0,1,1.21-2,3,3,0,0,1,2.34-.39l45.29,8.51q14.76,2.77,24.94,10.16a41.68,41.68,0,0,1,14.56,18.12,40.63,40.63,0,0,1,2,23.31l-10.31,54.86a41.12,41.12,0,0,1-10.37,21.08,41.4,41.4,0,0,1-20.17,11.7q-12.17,3.19-26.93.41l-45.29-8.51A3,3,0,0,1-1771.14-327Zm43.79-24.2,9.81,1.64a10.47,10.47,0,0,0,9-2.43q4-3.37,5.48-9.92l8.66-46.09q1.24-6.58-1.3-11.19a10.89,10.89,0,0,0-7.93-5.62l-9.58-1.8a1.08,1.08,0,0,0-1.42,1l-13.72,73A1.08,1.08,0,0,0-1727.35-351.22Z" transform="translate(2154.83 536.32)"/><rect class="1c57c30e-885b-49e5-84b8-e8be89a22bd5" x="220.18" y="217.13" width="240.02" height="237.02" rx="27.46" ry="27.46"/><path class="27d22619-6e49-4263-ba93-3a00d421df22" d="M-1840.93-133.89a42.55,42.55,0,0,1-17.66-16.75q-6.3-10.86-6.29-25.27v-50.14q0-14.21,6.29-25a42.11,42.11,0,0,1,17.66-16.54q11.37-5.79,26.39-5.79t26.29,5.68a42.43,42.43,0,0,1,17.56,16q6.29,10.35,6.29,24.16a3.39,3.39,0,0,1-.81,2.33,2.84,2.84,0,0,1-2.23.91l-32.07,1.42q-3,0-3-2.84v-2.23q0-5.89-3.25-9.34a11.42,11.42,0,0,0-8.73-3.45,11.58,11.58,0,0,0-8.83,3.55,12.92,12.92,0,0,0-3.35,9.24v54.4a12.91,12.91,0,0,0,3.35,9.24,11.57,11.57,0,0,0,8.83,3.55,11.41,11.41,0,0,0,8.73-3.45q3.24-3.45,3.25-9.34v-2.44q0-2.84,3-2.84l32.07,1.42a3,3,0,0,1,2.23.81,3,3,0,0,1,.81,2.23,46.66,46.66,0,0,1-6.29,24.36,41.86,41.86,0,0,1-17.66,16.24q-11.37,5.69-26.19,5.68Q-1829.57-128-1840.93-133.89Z" transform="translate(2154.83 536.32)"/></svg>