<svg id="9cf66f3d-a815-43d0-83fb-65d83a4511d8" data-name="Layer 1" xmlns="http://www.w3.org/2000/svg" viewBox="0 0 680.86 379.08"><defs><style>.\30 b108b12-4baf-47aa-82f2-72aa8ba726d6{fill:#f7931e;}.\34 dfb45a9-b9c4-42fb-85c6-aa219eabb278{fill:#bf8f46;}.\39 9168a95-5b1e-41f1-bc8b-0616c96c99ac{fill:#bfb737;}.\38 26aeab8-c399-4c2f-ab10-33e39a27364b{fill:#fff;}</style></defs><title>Icono_Secuencia</title><rect class="0b108b12-4baf-47aa-82f2-72aa8ba726d6" width="261.75" height="261.66" rx="12" ry="12"/><rect class="4dfb45a9-b9c4-42fb-85c6-aa219eabb278" x="203.18" y="64.17" width="261.75" height="261.66" rx="12" ry="12"/><rect class="99168a95-5b1e-41f1-bc8b-0616c96c99ac" x="419.11" y="117.42" width="261.75" height="261.66" rx="12" ry="12"/><path class="826aeab8-c399-4c2f-ab10-33e39a27364b" d="M-2011,214.89H-1983a2.85,2.85,0,0,1,1.87.57,1.93,1.93,0,0,1,.68,1.56v95.12a1.92,1.92,0,0,1-.68,1.56,2.84,2.84,0,0,1-1.87.57h-26.91a2.83,2.83,0,0,1-1.87-.57,1.92,1.92,0,0,1-.68-1.56V240q0-.71-1-0.71l-13.62,1.14h-0.34q-2.39,0-2.38-2V222a2.39,2.39,0,0,1,2-2.41l13.79-4.26A9.25,9.25,0,0,1-2011,214.89Z" transform="translate(2136.05 -133.75)"/><path class="826aeab8-c399-4c2f-ab10-33e39a27364b" d="M-1800.63,355.8a0.85,0.85,0,0,0,.85.35h35.93a2.85,2.85,0,0,1,1.87.57,1.93,1.93,0,0,1,.68,1.56v18.6a1.92,1.92,0,0,1-.68,1.56,2.84,2.84,0,0,1-1.87.57h-75.44a2.83,2.83,0,0,1-1.87-.57,1.92,1.92,0,0,1-.68-1.56V358.57a3.41,3.41,0,0,1,1.36-2.7q22.31-18.6,34.06-30.24,11.58-11.07,11.58-17.46a6.32,6.32,0,0,0-2-5,8.29,8.29,0,0,0-5.62-1.77,8.7,8.7,0,0,0-5.62,1.77,5.78,5.78,0,0,0-2.21,4.76v4.4a1.92,1.92,0,0,1-.68,1.56,2.84,2.84,0,0,1-1.87.57h-27.25a2.83,2.83,0,0,1-1.87-.57,1.92,1.92,0,0,1-.68-1.56v-7.1a23.24,23.24,0,0,1,6.22-14.13,35.9,35.9,0,0,1,14.56-9.3,59.28,59.28,0,0,1,20.27-3.27,52.14,52.14,0,0,1,20.69,3.83,31.45,31.45,0,0,1,13.71,10.58,25.58,25.58,0,0,1,4.77,15.12,27.77,27.77,0,0,1-3,12.71,53.15,53.15,0,0,1-9.45,12.56,102.25,102.25,0,0,1-8.94,8.38q-5.54,4.69-11,9.09l-5.45,4.4Q-1800.8,355.45-1800.63,355.8Z" transform="translate(2136.05 -133.75)"/><path class="826aeab8-c399-4c2f-ab10-33e39a27364b" d="M-1546.47,398q0,11.5-5.62,19.59a31.1,31.1,0,0,1-13.37,10.79,49.23,49.23,0,0,1-20.18,3.83q-15,0-25.46-6.32T-1624,409.12a37.44,37.44,0,0,1-1.7-9.37q0-2.13,2.55-2.13H-1596q2.55,0,2.72,2.13a12.63,12.63,0,0,0,1,5,6.3,6.3,0,0,0,2.38,3.48,7.17,7.17,0,0,0,4.26,1.21,6.73,6.73,0,0,0,4-1.28,7.53,7.53,0,0,0,2.64-3.41,29.56,29.56,0,0,0,1.19-8.52,19.79,19.79,0,0,0-1.19-7.52q-2-5.54-6.81-5.54a13.79,13.79,0,0,0-7.49,2.56,3.3,3.3,0,0,1-1.87.57,2.47,2.47,0,0,1-1.87-.71l-13.62-12.63a1.92,1.92,0,0,1-.68-1.56,1.74,1.74,0,0,1,1-1.56l22-14.34c0.34-.28.45-0.52,0.34-0.71a1,1,0,0,0-.85-0.28H-1620a2.83,2.83,0,0,1-1.87-.57,1.92,1.92,0,0,1-.68-1.56V333.88a1.92,1.92,0,0,1,.68-1.56,2.84,2.84,0,0,1,1.87-.57h70a2.85,2.85,0,0,1,1.87.57,1.93,1.93,0,0,1,.68,1.56v19a3,3,0,0,1-1.36,2.56l-18.56,13.91q-1,.85.17,1.14,11.24,2.42,16.69,11.22A32.13,32.13,0,0,1-1546.47,398Z" transform="translate(2136.05 -133.75)"/></svg>