<svg id="a85aec55-abbd-4de6-b73f-865e870949f4" data-name="Layer 1" xmlns="http://www.w3.org/2000/svg" viewBox="0 0 800 800"><defs><style>.\31 66ae28e-725a-4003-a02f-a5985a5fac76{fill:#71c949;}.\36 c875acb-5868-4d2d-8189-479a854d5eeb{fill:#fff;}.\34 7dc54dd-1569-45e4-a328-3dbce5c897a9{fill:#e57171;}</style></defs><title>Icono_PreguntaVF</title><ellipse class="166ae28e-725a-4003-a02f-a5985a5fac76" cx="243.22" cy="294.03" rx="223.35" ry="173.51" transform="translate(-27.83 25.44) rotate(-5.66)"/><polygon class="166ae28e-725a-4003-a02f-a5985a5fac76" points="239.24 421.94 335.37 513.66 352.09 356.61 265.07 326.89 239.24 421.94"/><polygon class="6c875acb-5868-4d2d-8189-479a854d5eeb" points="164.12 329.01 244.59 364.14 311.65 201.98 285.89 190.68 228.25 328.81 176.08 304.73 164.12 329.01"/><ellipse class="47dc54dd-1569-45e4-a328-3dbce5c897a9" cx="584.97" cy="505.11" rx="151.64" ry="195.19" transform="translate(18.77 1031.18) rotate(-83.71)"/><polygon class="47dc54dd-1569-45e4-a328-3dbce5c897a9" points="530.82 634.81 412.88 680.05 455.76 536.16 542.99 541.97 530.82 634.81"/><path class="6c875acb-5868-4d2d-8189-479a854d5eeb" d="M523.56,552.56a1.66,1.66,0,0,1,.38-2.15l40.78-48.64a2.32,2.32,0,0,0,.24-1.32l-21.45-59.74a5.94,5.94,0,0,1-.19-1.23,1.52,1.52,0,0,1,1-1.18,3.72,3.72,0,0,1,2.07-.14l32.9,5.87q2.77,0.49,3.21,2.62L591.2,476a1.11,1.11,0,0,0,.77.82,0.76,0.76,0,0,0,.81-0.54l18.48-24.49a3.69,3.69,0,0,1,3.92-1.35l32.5,5.8a3.21,3.21,0,0,1,2.23,1.25,1.67,1.67,0,0,1-.38,2.15L609,508.3a2.27,2.27,0,0,0-.24,1.32L630,569.33a6.25,6.25,0,0,1,.19,1.23,1.53,1.53,0,0,1-1,1.18,3.74,3.74,0,0,1-2.07.14l-32.5-5.8q-2.58-.46-3-2.42l-9-29.57a0.77,0.77,0,0,0-.58-0.79,1.12,1.12,0,0,0-1,.5L562.41,558.3a3.7,3.7,0,0,1-3.92,1.35l-32.7-5.83A3.19,3.19,0,0,1,523.56,552.56Z"/></svg>