<svg xmlns="http://www.w3.org/2000/svg" width="324.293" height="389.497" viewBox="0 0 324.293 389.497">
  <g id="Grupo_3394" data-name="Grupo 3394" transform="translate(-164.341 -137.104)">
    <g id="Grupo_3393" data-name="Grupo 3393" transform="translate(164.341 137.104)">
      <g id="Grupo_3392" data-name="Grupo 3392">
        <g id="Grupo_3328" data-name="Grupo 3328" transform="translate(220.558 204.835)">
          <path id="Trazado_5170" data-name="Trazado 5170" d="M-4006.854,9067.072l34.906,34.905,25.823-25.669,7.077,6.411-32.1,42.528-15.647-4.012" transform="translate(4006.854 -9067.072)" fill="#6883c1"/>
        </g>
        <g id="Grupo_3329" data-name="Grupo 3329" transform="translate(97.382 315.607)">
          <path id="Trazado_5171" data-name="Trazado 5171" d="M-4147.382,9218.782l9.027,47.844-29.789,18.957,46.94-1.807,6.319-65.9S-4137.452,9204.339-4147.382,9218.782Z" transform="translate(4168.144 -9212.12)" fill="#9786be"/>
        </g>
        <g id="Grupo_3330" data-name="Grupo 3330" transform="translate(173.212 311.996)">
          <path id="Trazado_5172" data-name="Trazado 5172" d="M-4036.353,9214.054l-9.026,47.843,29.789,18.957-46.939-1.806-6.32-65.9S-4046.282,9199.61-4036.353,9214.054Z" transform="translate(4068.85 -9207.392)" fill="#9786be"/>
        </g>
        <g id="Grupo_3331" data-name="Grupo 3331" transform="translate(70.715 184.04)">
          <path id="Trazado_5173" data-name="Trazado 5173" d="M-4055.98,9057.112s39.674,41.523,14.427,120.059c0,0-37.872,30.691-114.515,11.735l-3.607-22.567-4.508,22.567s-29.757,2.708-38.772-11.735c0,0-3.538-83.283,30.24-137.327Z" transform="translate(4203.062 -9039.844)" fill="#6883c1"/>
        </g>
        <g id="Grupo_3339" data-name="Grupo 3339" transform="translate(0 194.73)">
          <g id="Grupo_3332" data-name="Grupo 3332" transform="translate(45.021)">
            <path id="Trazado_5174" data-name="Trazado 5174" d="M-4178.942,9088.487l-52.065,50.6-5.7-6.268,40.9-66.5,9.365-12.479,6.99.092S-4163.931,9056.629-4178.942,9088.487Z" transform="translate(4236.707 -9053.84)" fill="#6883c1"/>
          </g>
          <g id="Grupo_3333" data-name="Grupo 3333" transform="translate(25.544 69.008)">
            <path id="Trazado_5175" data-name="Trazado 5175" d="M-4230.6,9163l-20.3-18.8-11.309,40.76,5.584,4.158Z" transform="translate(4262.211 -9144.201)" fill="#333"/>
          </g>
          <g id="Grupo_3334" data-name="Grupo 3334" transform="translate(26.779 115.835)">
            <path id="Trazado_5176" data-name="Trazado 5176" d="M-4260.364,9205.519s23.183,21.3,10.252,22.578S-4260.364,9205.519-4260.364,9205.519Z" transform="translate(4260.594 -9205.519)" fill="#333"/>
          </g>
          <g id="Grupo_3335" data-name="Grupo 3335" transform="translate(13.85 112.228)">
            <path id="Trazado_5177" data-name="Trazado 5177" d="M-4259.907,9200.795a129.173,129.173,0,0,0-10.009,38.677,4.043,4.043,0,0,1-2.03,3.3c-1.153.547-3.245-.032-4.17-4.332C-4277.923,9230.057-4281.532,9220.889-4259.907,9200.795Z" transform="translate(4277.522 -9200.795)" fill="#333"/>
          </g>
          <g id="Grupo_3336" data-name="Grupo 3336" transform="translate(6.333 110.387)">
            <path id="Trazado_5178" data-name="Trazado 5178" d="M-4263.147,9198.384a121.624,121.624,0,0,0-18.631,34.528,3.594,3.594,0,0,1-2.695,2.554c-1.214.149-3.041-1.118-2.885-5.64C-4287.055,9221.011-4288.258,9210.824-4263.147,9198.384Z" transform="translate(4287.367 -9198.384)" fill="#333"/>
          </g>
          <g id="Grupo_3337" data-name="Grupo 3337" transform="translate(0 107.315)">
            <path id="Trazado_5179" data-name="Trazado 5179" d="M-4266.555,9194.362a175.763,175.763,0,0,0-25.31,28.054,4.407,4.407,0,0,1-2.789,1.99c-.9.048-1.721-1.144,0-4.963C-4291.3,9211.994-4288.5,9203.287-4266.555,9194.362Z" transform="translate(4295.659 -9194.362)" fill="#333"/>
          </g>
          <g id="Grupo_3338" data-name="Grupo 3338" transform="translate(12.339 99.144)">
            <ellipse id="Elipse_1215" data-name="Elipse 1215" cx="11.874" cy="9.151" rx="11.874" ry="9.151" transform="matrix(0.48, -0.877, 0.877, 0.48, 0, 20.834)" fill="#333"/>
          </g>
        </g>
        <g id="Grupo_3381" data-name="Grupo 3381" transform="translate(32.116)">
          <g id="Grupo_3341" data-name="Grupo 3341">
            <g id="Grupo_3340" data-name="Grupo 3340">
              <path id="Trazado_5180" data-name="Trazado 5180" d="M-4079.488,8879.313s6.286-44-57.829-80.458c0,0-31.428,26.4-33.314,61.6l-18.229-7.543s-5.657,22.63,9.428,30.8c0,0-34.572-26.4-74.172,6.287,0,0,3.143,74.8,66.63,72.286,0,0-28.287-3.771-44,12.572,0,0,10.687,28.914,52.8,15.086l114.4-4.4s10.686,20.116,40.857,13.2c0,0,5.029-25.771-15.714-35.829,0,0,39.6-14.458,32.687-55.315,0,0-14.457-9.429-37.715,1.257,0,0,33.944-25.144,6.915-62.229C-4036.743,8846.627-4071.315,8848.513-4079.488,8879.313Z" transform="translate(4253.604 -8798.854)" fill="gray"/>
            </g>
          </g>
          <g id="Grupo_3343" data-name="Grupo 3343" transform="translate(67.115 82.644)">
            <g id="Grupo_3342" data-name="Grupo 3342">
              <path id="Trazado_5181" data-name="Trazado 5181" d="M-4165.723,8959.064s3.383-41.725,53-50.745,65.405,33.83,65.405,33.83l4.511,47.362s12.4,53-48.49,57.512-72.172-34.959-72.172-34.959Z" transform="translate(4165.723 -8907.071)" fill="#fff"/>
            </g>
          </g>
          <g id="Grupo_3346" data-name="Grupo 3346" transform="translate(43.326 131.423)">
            <g id="Grupo_3345" data-name="Grupo 3345">
              <g id="Grupo_3344" data-name="Grupo 3344">
                <path id="Trazado_5182" data-name="Trazado 5182" d="M-4162.673,8984.018s-7.893-19.731-23.679-10.711-17.476,48.482,20.86,43.408" transform="translate(4196.873 -8970.945)" fill="#fff"/>
              </g>
            </g>
          </g>
          <g id="Grupo_3348" data-name="Grupo 3348" transform="translate(60.597 142.724)">
            <g id="Grupo_3347" data-name="Grupo 3347">
              <path id="Trazado_5183" data-name="Trazado 5183" d="M-4172.551,8986.949a16.075,16.075,0,0,1,2.729-.176,12.188,12.188,0,0,1,1.321.105c.217.021.428.072.64.105.207.054.415.1.615.156a6.182,6.182,0,0,1,1.135.459c.087.049.178.089.261.143l.243.163a4.386,4.386,0,0,1,.453.354,4.8,4.8,0,0,1,.4.4c.125.141.225.3.34.447s.192.326.29.485.155.353.234.522a7.059,7.059,0,0,1,.33,1.132,11.867,11.867,0,0,1,.183,1.2l.03.625a5.3,5.3,0,0,1,.009.63c-.014.425,0,.847-.052,1.278l-.052.644c-.017.214-.058.432-.081.647-.054.431-.1.864-.19,1.3s-.139.867-.24,1.3l-.278,1.3,1.734-.908c-.408-.152-.767-.257-1.15-.369s-.758-.206-1.14-.3-.771-.164-1.16-.234-.784-.119-1.182-.164a12.8,12.8,0,0,0-2.45-.021,8.441,8.441,0,0,0-1.265.225,5.734,5.734,0,0,0-1.258.488c-.2.109-.4.252-.593.379a6.986,6.986,0,0,0-.53.486,4.977,4.977,0,0,0-.43.578,4.07,4.07,0,0,0-.311.632,4.081,4.081,0,0,0-.192.651c-.033.218-.077.436-.091.649l-.008.631c.005.209.042.409.062.61a8.638,8.638,0,0,0,.242,1.168c.118.372.242.739.384,1.1.159.351.3.705.47,1.042s.359.67.548,1c-.062-.374-.14-.741-.209-1.107l-.17-1.1c-.041-.365-.062-.729-.1-1.086l0-.534,0-.263.022-.257c.019-.171.021-.344.053-.507l.1-.479c.041-.155.1-.295.151-.441a3.666,3.666,0,0,1,.2-.392,2.342,2.342,0,0,1,.244-.337,3.411,3.411,0,0,1,.289-.276c.108-.078.224-.148.332-.223.13-.054.245-.12.378-.168a4.513,4.513,0,0,1,.859-.206,6.162,6.162,0,0,1,.949-.059c.326,0,.66.021.995.054s.674.087,1.013.145.681.128,1.021.207.678.174,1.018.266.678.194,1.012.306.678.234.968.343l1.408.526.326-1.436.314-1.387c.116-.458.175-.937.259-1.407s.137-.949.191-1.429.082-.963.1-1.452a14.693,14.693,0,0,0,0-1.474,7.154,7.154,0,0,0-.059-.744l-.085-.747a11.306,11.306,0,0,0-.351-1.5,8.147,8.147,0,0,0-.587-1.462c-.136-.231-.26-.468-.411-.69s-.318-.439-.494-.646c-.192-.2-.373-.4-.58-.575a6.784,6.784,0,0,0-.648-.49,4.935,4.935,0,0,0-.7-.395l-.363-.164c-.122-.052-.249-.087-.371-.13a6.849,6.849,0,0,0-1.5-.317,8.443,8.443,0,0,0-1.481-.011,10.17,10.17,0,0,0-1.429.215,14,14,0,0,0-1.364.4A9.945,9.945,0,0,0-4172.551,8986.949Z" transform="translate(4174.257 -8985.742)" fill="#4d4d4d"/>
            </g>
          </g>
          <g id="Grupo_3350" data-name="Grupo 3350" transform="translate(159.551 138.576)">
            <g id="Grupo_3349" data-name="Grupo 3349">
              <path id="Trazado_5184" data-name="Trazado 5184" d="M-4044.684,8987.887c0,4.183,3.05,5.341,6.58,5.341s6.2-1.158,6.2-5.341-2.862-7.575-6.392-7.575S-4044.684,8983.7-4044.684,8987.887Z" transform="translate(4044.684 -8980.312)" fill="#333"/>
            </g>
          </g>
          <g id="Grupo_3352" data-name="Grupo 3352" transform="translate(110.818 136.51)">
            <g id="Grupo_3351" data-name="Grupo 3351">
              <path id="Trazado_5185" data-name="Trazado 5185" d="M-4108.5,8985.217c0,4.2,3.5,5.368,7.7,5.368s7.518-1.166,7.518-5.368a7.611,7.611,0,0,0-7.611-7.611A7.611,7.611,0,0,0-4108.5,8985.217Z" transform="translate(4108.497 -8977.605)" fill="#333"/>
            </g>
          </g>
          <g id="Grupo_3354" data-name="Grupo 3354" transform="translate(89.057 123.569)">
            <g id="Grupo_3353" data-name="Grupo 3353">
              <path id="Trazado_5186" data-name="Trazado 5186" d="M-4094.785,8961.127l-1.918,7.531s-28.643-1.287-39.088,4.438l-1.2-3.9S-4129.9,8958.3-4094.785,8961.127Z" transform="translate(4136.991 -8960.66)" fill="#333"/>
            </g>
          </g>
          <g id="Grupo_3356" data-name="Grupo 3356" transform="translate(155.749 124.492)">
            <g id="Grupo_3355" data-name="Grupo 3355">
              <path id="Trazado_5187" data-name="Trazado 5187" d="M-4049.662,8961.872l.014,7.522s20.521.8,26.9,7.169l1.546-3.738S-4024.277,8961.635-4049.662,8961.872Z" transform="translate(4049.662 -8961.868)" fill="#333"/>
            </g>
          </g>
          <g id="Grupo_3358" data-name="Grupo 3358" transform="translate(81.306 78.08)">
            <g id="Grupo_3357" data-name="Grupo 3357">
              <path id="Trazado_5188" data-name="Trazado 5188" d="M-4048,8906.611s-7.508,42.99-99.144,3.621C-4147.139,8910.232-4091.437,8892.357-4048,8906.611Z" transform="translate(4147.139 -8901.096)" fill="gray"/>
            </g>
          </g>
          <g id="Grupo_3361" data-name="Grupo 3361" transform="translate(78.959 151.42)">
            <g id="Grupo_3359" data-name="Grupo 3359" transform="translate(1.316 1.331)">
              <path id="Trazado_5189" data-name="Trazado 5189" d="M-4082.532,9006.634s29.315-12.4,51.865,3.947c0,0,15.221,10.711,15.221,27.622,0,0-17.476,18.6-50.738,9.584l-6.765-14.093,1.127,18.039s-38.9,12.967-49.046-5.073l6.765-18.6-14.094,15.783s-16.913-2.817-20.295-15.783C-4148.491,9028.058-4146.236,8980.7-4082.532,9006.634Z" transform="translate(4148.491 -8998.872)" fill="gray"/>
            </g>
            <g id="Grupo_3360" data-name="Grupo 3360">
              <path id="Trazado_5190" data-name="Trazado 5190" d="M-4122.42,9046.893a1.315,1.315,0,0,1-.09-1.094l4.429-12.177-9.54,10.684a1.324,1.324,0,0,1-1.2.422c-.725-.122-17.794-3.116-21.352-16.75a1.34,1.34,0,0,1-.041-.4c.032-.678.944-16.687,14.4-25.279,11.986-7.656,29.773-6.812,52.872,2.5a69.823,69.823,0,0,1,17.338-4.047c13.6-1.417,25.811,1.469,35.282,8.336.645.454,15.781,11.3,15.781,28.7a1.313,1.313,0,0,1-.357.9c-.186.2-4.663,4.9-13.353,8.489-7.968,3.293-21.149,6.22-38.688,1.464a1.319,1.319,0,0,1-.842-.7l-3.845-8.011.707,11.307a1.315,1.315,0,0,1-.9,1.329,103.232,103.232,0,0,1-21.016,4.291q-3.156.283-6.027.283C-4110.531,9057.144-4118.623,9053.646-4122.42,9046.893Z" transform="translate(4150.213 -8997.128)" fill="gray"/>
            </g>
          </g>
          <g id="Grupo_3363" data-name="Grupo 3363" transform="translate(61.824 90.978)">
            <g id="Grupo_3362" data-name="Grupo 3362">
              <path id="Trazado_5191" data-name="Trazado 5191" d="M-4142.751,8918l6.754,2.873s-1.5,34.2-36.458,33.826C-4172.455,8954.7-4176.954,8917.244-4142.751,8918Z" transform="translate(4172.65 -8917.985)" fill="gray"/>
            </g>
          </g>
          <g id="Grupo_3365" data-name="Grupo 3365" transform="translate(129.869 159.635)">
            <g id="Grupo_3364" data-name="Grupo 3364">
              <path id="Trazado_5192" data-name="Trazado 5192" d="M-4083.551,9012.918s.138-.056.4-.163.644-.247,1.13-.426,1.087-.365,1.768-.581,1.466-.41,2.313-.624c.853-.194,1.773-.4,2.755-.555s2.016-.3,3.09-.38c1.072-.1,2.183-.111,3.307-.117a33.5,33.5,0,0,1,3.4.236c.283.035.567.06.849.1l.842.14c.563.082,1.114.214,1.666.324.276.053.547.123.816.2l.808.207c.536.134,1.049.323,1.569.469,1.021.341,2.006.691,2.922,1.083.229.093.46.18.682.276s.437.2.65.3c.425.2.851.37,1.237.576.775.405,1.515.739,2.133,1.1s1.192.636,1.628.914.805.47,1.046.612l.377.211-.3-.313c-.2-.2-.479-.5-.856-.866-.367-.381-.852-.8-1.413-1.271-.548-.492-1.222-.979-1.954-1.518-.364-.273-.775-.508-1.186-.779l-.634-.4c-.218-.129-.447-.247-.675-.377a27.39,27.39,0,0,0-2.976-1.433,27.108,27.108,0,0,0-3.366-1.118c-.59-.139-1.178-.309-1.786-.4l-.907-.161c-.3-.048-.611-.079-.917-.119a27.414,27.414,0,0,0-3.669-.182c-.6.032-1.206.039-1.8.106q-.442.045-.879.087c-.29.035-.575.086-.86.127a25.609,25.609,0,0,0-3.228.712,26.8,26.8,0,0,0-2.784.968,23.584,23.584,0,0,0-3.876,2.043c-.444.285-.771.543-1,.713S-4083.551,9012.918-4083.551,9012.918Z" transform="translate(4083.551 -9007.886)" fill="#4d4d4d"/>
            </g>
          </g>
          <g id="Grupo_3367" data-name="Grupo 3367" transform="translate(161.62 86.842)">
            <g id="Grupo_3366" data-name="Grupo 3366">
              <path id="Trazado_5193" data-name="Trazado 5193" d="M-4032.7,8912.573s-2.505,8.018-9.271,10.023C-4041.974,8922.6-4038.215,8912.323-4032.7,8912.573Z" transform="translate(4041.974 -8912.568)" fill="#fff"/>
            </g>
          </g>
          <g id="Grupo_3369" data-name="Grupo 3369" transform="translate(90.425 176.085)">
            <g id="Grupo_3368" data-name="Grupo 3368">
              <path id="Trazado_5194" data-name="Trazado 5194" d="M-4122.706,9029.427s-.292.178-.786.516-1.183.842-2,1.472c-.4.324-.843.663-1.288,1.05s-.917.795-1.387,1.237-.949.909-1.424,1.4-.925,1.015-1.395,1.527c-.439.539-.906,1.06-1.342,1.6a15.092,15.092,0,0,0-1.185,1.653c-.164.289-.32.575-.463.86l-.208.425c-.062.143-.112.292-.168.435a14.424,14.424,0,0,0-.536,1.637c-.116.527-.2,1.01-.266,1.438a8.242,8.242,0,0,0-.051,1.134,9.666,9.666,0,0,0,.049.98l.22.044s.213-.3.514-.823q.11-.193.242-.429a4.318,4.318,0,0,1,.28-.5c.222-.347.456-.737.69-1.165.11-.215.262-.428.4-.652s.283-.454.419-.7.29-.482.45-.729.306-.5.454-.77c.132-.274.3-.535.452-.812s.3-.56.454-.846c.312-.566.668-1.123,1.024-1.682.39-.534.76-1.087,1.164-1.6s.787-1.038,1.192-1.516c.2-.244.4-.481.587-.715l.582-.671c.37-.444.747-.839,1.083-1.218.687-.741,1.286-1.337,1.706-1.754s.669-.646.669-.646Z" transform="translate(4135.2 -9029.427)" fill="#4d4d4d"/>
            </g>
          </g>
          <g id="Grupo_3371" data-name="Grupo 3371" transform="translate(196.882 178.34)">
            <g id="Grupo_3370" data-name="Grupo 3370">
              <path id="Trazado_5195" data-name="Trazado 5195" d="M-3995.8,9032.559s.251.228.669.646,1.018,1.013,1.706,1.753c.337.379.714.772,1.084,1.218l.58.672.588.715c.406.477.786,1,1.193,1.516s.772,1.068,1.163,1.6c.356.557.712,1.115,1.025,1.681.151.288.3.573.454.845s.32.538.452.813.3.522.454.77.316.487.449.729.282.472.418.7.292.438.4.651c.234.428.467.819.689,1.166a4.262,4.262,0,0,1,.28.5l.241.429c.3.52.513.822.513.822l.222-.043a9.479,9.479,0,0,0,.048-.981,8.047,8.047,0,0,0-.05-1.132c-.062-.429-.15-.912-.266-1.437a14.311,14.311,0,0,0-.536-1.638c-.055-.143-.1-.292-.168-.435l-.208-.425c-.143-.286-.3-.571-.464-.861a15.144,15.144,0,0,0-1.184-1.653c-.436-.537-.9-1.057-1.342-1.6-.469-.513-.918-1.04-1.4-1.526s-.942-.965-1.423-1.4-.931-.86-1.386-1.237-.89-.726-1.288-1.051c-.813-.628-1.5-1.141-2-1.471s-.787-.517-.787-.517Z" transform="translate(3995.8 -9032.379)" fill="#4d4d4d"/>
            </g>
          </g>
          <g id="Grupo_3373" data-name="Grupo 3373" transform="translate(106.495 109.097)">
            <g id="Grupo_3372" data-name="Grupo 3372">
              <path id="Trazado_5196" data-name="Trazado 5196" d="M-4047.756,8947.524c-.541-.216-1.1-.395-1.656-.563s-1.124-.321-1.692-.459c-1.136-.282-2.287-.5-3.449-.674s-2.333-.3-3.51-.358c-.588-.035-1.178-.048-1.768-.061s-1.183,0-1.775.022-1.183.067-1.773.121l-.887.089-.885.115c-.589.083-1.176.184-1.762.295s-1.168.248-1.746.4c-.582.139-1.15.332-1.725.5-.564.2-1.14.377-1.694.609l-.836.334-.823.369c-.278.119-.547.252-.812.4l-.8.418,1.112.03c-.784-.487-1.527-.894-2.3-1.3s-1.548-.793-2.335-1.158c-1.571-.739-3.184-1.382-4.816-1.968q-1.227-.431-2.474-.806c-.832-.248-1.663-.492-2.509-.689-.841-.213-1.691-.389-2.54-.563l-1.279-.237-1.287-.2c-.427-.071-.858-.124-1.29-.169s-.86-.1-1.295-.128l-1.3-.1-1.3-.054c-.432-.024-.867-.018-1.3-.021s-.864-.008-1.3.019l-1.3.061c-.432.025-.863.072-1.293.106-.862.059-1.716.2-2.57.321-.848.168-1.7.292-2.534.508-.419.1-.837.2-1.251.313l-1.234.369c-.413.114-.816.263-1.218.411l-1.2.446c.846-.146,1.669-.355,2.512-.472l1.256-.2,1.262-.146c.836-.122,1.683-.152,2.521-.229l1.262-.043c.419-.025.839-.031,1.26-.028s.839-.008,1.258,0l1.258.049c.418.008.836.058,1.254.079s.836.048,1.252.1l1.249.13,1.244.172c.415.051.825.131,1.238.2s.826.13,1.235.216l1.23.24,1.224.275c.812.2,1.623.4,2.425.634s1.6.47,2.4.724,1.584.534,2.37.816,1.564.589,2.338.907,1.541.645,2.3.991,1.514.7,2.255,1.083,1.489.781,2.157,1.184l.542.327.57-.3c.494-.259.976-.542,1.48-.782l.751-.372.767-.339c.507-.236,1.039-.417,1.559-.626.532-.177,1.058-.378,1.6-.528.27-.077.538-.165.81-.236l.816-.216c.547-.139,1.1-.27,1.651-.379l.833-.163.839-.136q.84-.13,1.688-.219t1.7-.161c.569-.037,1.139-.074,1.71-.086s1.144-.021,1.717-.02,1.147.013,1.722.033,1.148.058,1.723.1,1.15.09,1.724.157,1.147.141,1.721.221S-4048.326,8947.408-4047.756,8947.524Z" transform="translate(4114.157 -8941.711)" fill="#4d4d4d"/>
            </g>
          </g>
          <g id="Grupo_3375" data-name="Grupo 3375" transform="translate(159.929 147.985)">
            <g id="Grupo_3374" data-name="Grupo 3374">
              <path id="Trazado_5197" data-name="Trazado 5197" d="M-4028.966,8995.074l-2.628.362c-.784.1-1.693.211-2.666.3-.485.053-.988.069-1.495.105s-1.022.04-1.534.027-1.022-.027-1.517-.08a12.389,12.389,0,0,1-1.436-.221,8.689,8.689,0,0,1-1.273-.411l-.288-.126-.265-.147a3.136,3.136,0,0,1-.491-.306,3.191,3.191,0,0,1-.417-.335,2.356,2.356,0,0,1-.348-.342,5.27,5.27,0,0,1-.5-.64c-.125-.19-.205-.354-.27-.463l-.1-.167.037.189a4.744,4.744,0,0,0,.128.536,4.02,4.02,0,0,0,.352.8,2.662,2.662,0,0,0,.294.455,3.138,3.138,0,0,0,.4.46,3.852,3.852,0,0,0,.495.442c.09.073.184.142.281.211l.309.185a6.654,6.654,0,0,0,1.392.618,9.878,9.878,0,0,0,1.567.352,12.538,12.538,0,0,0,1.636.119c.547,0,1.09-.026,1.623-.069s1.051-.124,1.548-.207.975-.192,1.424-.3.868-.23,1.251-.351a17.717,17.717,0,0,0,1.822-.676C-4029.2,8995.2-4028.966,8995.074-4028.966,8995.074Z" transform="translate(4044.189 -8992.631)" fill="#333"/>
            </g>
          </g>
          <g id="Grupo_3377" data-name="Grupo 3377" transform="translate(108.813 145.731)">
            <g id="Grupo_3376" data-name="Grupo 3376">
              <path id="Trazado_5198" data-name="Trazado 5198" d="M-4095.9,8992.122l-2.629.362c-.785.1-1.694.211-2.666.3-.485.053-.987.068-1.495.1s-1.023.04-1.535.027-1.021-.027-1.516-.079a12.833,12.833,0,0,1-1.436-.221,8.86,8.86,0,0,1-1.273-.411c-.1-.044-.194-.086-.289-.126l-.264-.147a3.209,3.209,0,0,1-.49-.307,3.3,3.3,0,0,1-.417-.334,2.291,2.291,0,0,1-.348-.343,5.466,5.466,0,0,1-.5-.639c-.125-.191-.205-.354-.269-.463l-.1-.167.036.188a5.031,5.031,0,0,0,.128.537,4.164,4.164,0,0,0,.352.795,2.812,2.812,0,0,0,.294.456,3.3,3.3,0,0,0,.4.461,3.717,3.717,0,0,0,.5.441c.09.071.184.142.281.21s.2.122.309.185a6.645,6.645,0,0,0,1.392.619,9.876,9.876,0,0,0,1.567.351,12.716,12.716,0,0,0,1.636.12c.547,0,1.091-.026,1.624-.07s1.05-.123,1.548-.207.976-.191,1.424-.3.868-.231,1.251-.352a17.906,17.906,0,0,0,1.822-.676C-4096.137,8992.252-4095.9,8992.122-4095.9,8992.122Z" transform="translate(4111.122 -8989.679)" fill="#333"/>
            </g>
          </g>
          <g id="Grupo_3380" data-name="Grupo 3380" transform="translate(133.831 20.702)">
            <g id="Grupo_3379" data-name="Grupo 3379">
              <g id="Grupo_3378" data-name="Grupo 3378">
                <path id="Trazado_5199" data-name="Trazado 5199" d="M-4078.363,8825.964l.7.63c.458.407,1.1,1.033,1.929,1.82s1.8,1.775,2.89,2.924,2.292,2.472,3.578,3.93c.626.743,1.3,1.5,1.944,2.325l1.006,1.235,1.007,1.3.514.662c.165.228.332.455.5.687q.5.69,1.016,1.4.493.721,1,1.455c.338.488.681.978,1,1.491s.652,1.021.981,1.536.63,1.054.951,1.584c.649,1.057,1.224,2.169,1.831,3.276.313.548.569,1.127.851,1.7s.565,1.139.828,1.718l.761,1.758.379.879.333.9.677,1.792c.212.6.388,1.211.583,1.816l.287.906.145.454.118.459q.236.917.47,1.828c.074.3.164.6.226.911s.116.613.174.918q.179.914.357,1.819c.121.6.167,1.214.253,1.814s.157,1.2.235,1.791q.108,1.792.214,3.518c-.007,1.151,0,2.281-.014,3.381q-.122,1.648-.237,3.2c-.11,1.03-.276,2.021-.4,2.979-.1.965-.354,1.857-.522,2.724q-.134.65-.262,1.266c-.042.205-.084.406-.125.607s-.109.388-.162.578c-.216.759-.427,1.467-.606,2.129a18.8,18.8,0,0,1-.545,1.8c-.387,1.07-.67,1.923-.873,2.5l-.3.894.439-.831c.28-.546.707-1.342,1.222-2.371a18.917,18.917,0,0,0,.777-1.74c.271-.64.545-1.34.85-2.087.073-.187.155-.375.225-.57s.127-.4.192-.6l.4-1.258a26.957,26.957,0,0,0,.771-2.746c.212-.972.465-1.979.667-3.037q.22-1.6.453-3.3c.087-1.14.146-2.317.222-3.521.019-1.2-.037-2.437-.056-3.691-.115-1.247-.213-2.521-.381-3.8l-.318-1.922-.167-.967c-.06-.323-.146-.64-.219-.962q-.229-.961-.46-1.929l-.115-.484-.144-.476-.293-.953c-.2-.635-.385-1.278-.6-1.908l-.7-1.876-.355-.938-.4-.917q-.4-.913-.8-1.826c-.275-.6-.588-1.187-.884-1.778s-.582-1.185-.916-1.747l-.966-1.7c-.312-.568-.678-1.1-1.014-1.646s-.673-1.087-1.031-1.608-.719-1.032-1.073-1.543-.723-1.006-1.09-1.491-.73-.971-1.1-1.441-.754-.918-1.123-1.369c-.186-.225-.369-.449-.552-.671l-.564-.646c-1.468-1.734-2.977-3.264-4.38-4.654-.711-.686-1.391-1.345-2.061-1.947s-1.307-1.168-1.924-1.681c-1.211-1.049-2.327-1.893-3.24-2.59C-4077.239,8826.643-4078.363,8825.964-4078.363,8825.964Z" transform="translate(4078.363 -8825.964)" fill="#e6e6e6"/>
              </g>
            </g>
          </g>
        </g>
        <g id="Grupo_3382" data-name="Grupo 3382" transform="translate(113.61 214.063)">
          <path id="Trazado_5200" data-name="Trazado 5200" d="M-4146.4,9175.629c-3.141-43.753,9.762-96.474,9.762-96.474" transform="translate(4146.895 -9079.155)" fill="#405481"/>
        </g>
        <g id="Grupo_3383" data-name="Grupo 3383" transform="translate(96.251 353.085)">
          <path id="Trazado_5201" data-name="Trazado 5201" d="M-4169.625,9297.607l30.452-19.475-4.043-16.937,25.879,3.008-2.408,31.295Z" transform="translate(4169.625 -9261.195)" fill="#333"/>
        </g>
        <g id="Grupo_3384" data-name="Grupo 3384" transform="translate(175.621 353.686)">
          <path id="Trazado_5202" data-name="Trazado 5202" d="M-4065.695,9261.982l3.776,30.307,47.54,1.59-29.975-19.346,2.291-12.156Z" transform="translate(4065.695 -9261.982)" fill="#333"/>
        </g>
        <g id="Grupo_3385" data-name="Grupo 3385" transform="translate(121.858 256.592)">
          <ellipse id="Elipse_1216" data-name="Elipse 1216" cx="4.012" cy="5.216" rx="4.012" ry="5.216" fill="#333"/>
        </g>
        <g id="Grupo_3386" data-name="Grupo 3386" transform="translate(121.457 273.443)">
          <ellipse id="Elipse_1217" data-name="Elipse 1217" cx="4.012" cy="5.216" rx="4.012" ry="5.216" fill="#333"/>
        </g>
        <g id="Grupo_3387" data-name="Grupo 3387" transform="translate(275.524 183.445)">
          <path id="Trazado_5203" data-name="Trazado 5203" d="M-3934.879,9064.465l19.259,18.055,4.413-24.875s19.66-5.215,5.216-17.252c0,0-14.846-7.623-14.846,13.641Z" transform="translate(3934.879 -9039.063)" fill="#333"/>
        </g>
        <g id="Grupo_3388" data-name="Grupo 3388" transform="translate(294.559 163.512)">
          <path id="Trazado_5204" data-name="Trazado 5204" d="M-3909.329,9042.65s-3.8-28.013,7.322-29.627S-3909.329,9042.65-3909.329,9042.65Z" transform="translate(3909.954 -9012.963)" fill="#333"/>
        </g>
        <g id="Grupo_3389" data-name="Grupo 3389" transform="translate(301.403 179.549)">
          <path id="Trazado_5205" data-name="Trazado 5205" d="M-3900.993,9048.816s15.245-18.629,21.888-14.162S-3900.993,9048.816-3900.993,9048.816Z" transform="translate(3900.993 -9033.963)" fill="#333"/>
        </g>
        <g id="Grupo_3390" data-name="Grupo 3390" transform="translate(298.595 166.596)">
          <path id="Trazado_5206" data-name="Trazado 5206" d="M-3904.67,9043.4s5.854-29.052,19.563-26.206S-3904.67,9043.4-3904.67,9043.4Z" transform="translate(3904.67 -9017.002)" fill="#333"/>
        </g>
        <g id="Grupo_3391" data-name="Grupo 3391" transform="translate(280.721 174.978)">
          <path id="Trazado_5207" data-name="Trazado 5207" d="M-3919.228,9051.414s-3.51-1.5-3.51-8.426c0,0-3.611-6.019-5.115-9.027s5.115-9.932,7.521-3.009a125.6,125.6,0,0,1,3.913,14.442S-3912.106,9056.229-3919.228,9051.414Z" transform="translate(3928.073 -9027.977)" fill="#333"/>
        </g>
      </g>
      <path id="Trazado_5208" data-name="Trazado 5208" d="M-3985.174,9125.945S-3991.6,9095.781-4000,9087l30.474,42.957Z" transform="translate(4225.792 -8866.946)" fill="#333" opacity="0.3" style="mix-blend-mode: multiply;isolation: isolate"/>
      <path id="Trazado_5209" data-name="Trazado 5209" d="M-4196.533,9125.316l29.529-26.984-32.33,44.55Z" transform="translate(4272.897 -8869.623)" fill="#333" opacity="0.3" style="mix-blend-mode: multiply;isolation: isolate"/>
      <path id="Trazado_5210" data-name="Trazado 5210" d="M-4166.315,8969.085l9.165,12.22,2.036-21.638-12.219.763Z" transform="translate(4265.334 -8836.857)" fill="gray"/>
      <path id="Trazado_5211" data-name="Trazado 5211" d="M-4005.667,9005.666s20.366,4.837,27.493,32.584c0,0-4.582,7.129-10.691,8.4,0,0,8.146.762,13.492-8.147C-3975.374,9038.5-3975.883,9011.521-4005.667,9005.666Z" transform="translate(4227.131 -8847.727)" fill="#333" opacity="0.3" style="mix-blend-mode: multiply;isolation: isolate"/>
      <path id="Trazado_5212" data-name="Trazado 5212" d="M-4173.355,9031.667s-19.347,15.273-31.312,12.728c0,0,9.164,7.893,34.621,2.291l-2.625-5.177Z" transform="translate(4274.156 -8853.87)" fill="#333" opacity="0.3" style="mix-blend-mode: multiply;isolation: isolate"/>
      <path id="Trazado_5213" data-name="Trazado 5213" d="M-4131.117,8921.762s-1.791,24.109-20.883,30.984c0,0,20.365-3.311,23.42-25.967,0,0,23.42,6.873,37.93,4.838A170.956,170.956,0,0,1-4131.117,8921.762Z" transform="translate(4261.711 -8827.899)" fill="#333" opacity="0.3" style="mix-blend-mode: multiply;isolation: isolate"/>
      <path id="Trazado_5214" data-name="Trazado 5214" d="M-4138.333,9235.666l28.765,4.838S-4110.84,9248.141-4138.333,9235.666Z" transform="translate(4258.481 -8902.077)" fill="#333" opacity="0.3" style="mix-blend-mode: multiply;isolation: isolate"/>
      <path id="Trazado_5215" data-name="Trazado 5215" d="M-4066.333,9241.406l1.113,10.708,2.706-7.4,23.674-7.383S-4056.581,9241.327-4066.333,9241.406Z" transform="translate(4241.467 -8902.471)" fill="#333" opacity="0.3" style="mix-blend-mode: multiply;isolation: isolate"/>
      <path id="Trazado_5216" data-name="Trazado 5216" d="M-4261.907,9215.318l-.763-3.818s-5.728,19.283-4.392,26.729C-4267.062,9238.229-4264.771,9222.765-4261.907,9215.318Z" transform="translate(4288.949 -8896.367)" fill="#333" opacity="0.3" style="mix-blend-mode: multiply;isolation: isolate"/>
      <path id="Trazado_5217" data-name="Trazado 5217" d="M-4278.175,9230.987s-.191-12.028,5.919-20.237c0,0-10.883,16.229-8.592,26.156Z" transform="translate(4292.234 -8896.19)" fill="#333" opacity="0.3" style="mix-blend-mode: multiply;isolation: isolate"/>
      <path id="Trazado_5218" data-name="Trazado 5218" d="M-4285.821,9220.455s4.773-9.545,9.164-11.455c0,0-12.41,6.49-10.882,13.363Z" transform="translate(4293.771 -8895.777)" fill="#333" opacity="0.3" style="mix-blend-mode: multiply;isolation: isolate"/>
      <path id="Trazado_5219" data-name="Trazado 5219" d="M-4160,9053s19.474,36.275,73.7,28.256C-4086.3,9081.256-4145.49,9096.912-4160,9053Z" transform="translate(4263.602 -8858.912)" fill="#333" opacity="0.3" style="mix-blend-mode: multiply;isolation: isolate"/>
      <path id="Trazado_5220" data-name="Trazado 5220" d="M-4152.153,9228.072l3.172-2.508,1.718-17.945-.382-2.037Z" transform="translate(4261.747 -8894.969)" fill="#405481"/>
      <path id="Trazado_5221" data-name="Trazado 5221" d="M-4113.821,9058.186l4.338-13.272-2.947,15.595Z" transform="translate(4252.689 -8857)" fill="#4d4d4d"/>
      <path id="Trazado_5222" data-name="Trazado 5222" d="M-4043.457,9061.189l-3.845-8.01,8.632,10.045Z" transform="translate(4236.97 -8858.954)" fill="#4d4d4d"/>
      <path id="Trazado_5223" data-name="Trazado 5223" d="M-4083.667,9005.053a22.8,22.8,0,0,1,16.455,1.41Z" transform="translate(4245.563 -8847.369)" fill="#4d4d4d"/>
      <path id="Trazado_5224" data-name="Trazado 5224" d="M-4026.411,8904.209s1.739,12.823-2.588,16.133c0,0,10.674,12.733,13.992,21.131,0,0-2.027-16.8-6.864-19.095C-4021.872,8922.378-4020.257,8909.206-4026.411,8904.209Z" transform="translate(4232.645 -8823.751)" fill="#333" opacity="0.3" style="mix-blend-mode: multiply;isolation: isolate"/>
      <path id="Trazado_5225" data-name="Trazado 5225" d="M-3947.352,8941.249s-14.275,42.576-58.315,49.2c0,0,27.239,3.055,30.293,32.839,0,0-4.328,8.655-13.492,8.146,0,0,8.607,5.494,24.542.965,0,0,5.84-22.58-15.714-35.829C-3980.039,8996.564-3940.205,8982.169-3947.352,8941.249Z" transform="translate(4227.131 -8832.505)" fill="#333" opacity="0.12" style="mix-blend-mode: multiply;isolation: isolate"/>
      <path id="Trazado_5226" data-name="Trazado 5226" d="M-4134.362,9287.124l-12.888,7.828,11.264-5.346s-.668,3.054,1.719,2,7.446-.573,7.446-.573-5.537-1.336-8.019-.285C-4134.84,9290.752-4136.271,9288.078-4134.362,9287.124Z" transform="translate(4260.588 -8914.237)" fill="#e6e6e6"/>
      <path id="Trazado_5227" data-name="Trazado 5227" d="M-4262.758,9189.244s-5.107,1.241-6.491,4.392c0,0,3.723-3.723,6.969-3.771C-4262.28,9189.865-4261.326,9189.1-4262.758,9189.244Z" transform="translate(4289.417 -8891.104)" fill="#e6e6e6"/>
      <path id="Trazado_5228" data-name="Trazado 5228" d="M-4037.091,9282.5l20.046,12.219-17.374-8.783s-1.909,2.674-4.582.192C-4039,9286.128-4034.036,9286.891-4037.091,9282.5Z" transform="translate(4235.008 -8913.145)" fill="#e6e6e6"/>
      <path id="Trazado_5229" data-name="Trazado 5229" d="M-4022.335,9066.981s-10.883.382-19.665-2.481c0,0,15.656,7.063,8.4,12.028C-4033.6,9076.528-4023.862,9071.183-4022.335,9066.981Z" transform="translate(4235.717 -8861.63)" fill="#333" opacity="0.3" style="mix-blend-mode: multiply;isolation: isolate"/>
      <path id="Trazado_5230" data-name="Trazado 5230" d="M-3914.333,9044.224s9.928,4.073,5.854,10.691c0,0,2.673-12.473-2.163-14.255C-3910.642,9040.66-3912.169,9040.151-3914.333,9044.224Z" transform="translate(4205.548 -8855.991)" fill="#333" opacity="0.3" style="mix-blend-mode: multiply;isolation: isolate"/>
      <path id="Trazado_5231" data-name="Trazado 5231" d="M-3908.281,9063.395l-4.414,24.876-9.805-9.14,7.892,4.71Z" transform="translate(4207.478 -8861.368)" fill="#333" opacity="0.3" style="mix-blend-mode: multiply;isolation: isolate"/>
      <path id="Trazado_5232" data-name="Trazado 5232" d="M-3917.557,9058.666s2.285,2.163,3.684,2.163l-7.127.511Z" transform="translate(4207.124 -8860.251)" fill="#333" opacity="0.3" style="mix-blend-mode: multiply;isolation: isolate"/>
      <path id="Trazado_5233" data-name="Trazado 5233" d="M-3901.5,9014.655s4.328-2.292,4.455,2.292-1.782,6.872-1.782,6.872S-3895.136,9013.383-3901.5,9014.655Z" transform="translate(4202.515 -8849.715)" fill="#fff" opacity="0.49"/>
      <path id="Trazado_5234" data-name="Trazado 5234" d="M-3879.949,9018.131s4.891.248,2.653,4.249-5.051,4.99-5.051,4.99S-3873.831,9020.3-3879.949,9018.131Z" transform="translate(4197.989 -8850.673)" fill="#fff" opacity="0.49"/>
      <path id="Trazado_5235" data-name="Trazado 5235" d="M-3875.458,9035.118s3.677,1.289-.175,3.965-6.565,2.836-6.565,2.836S-3871.836,9038.2-3875.458,9035.118Z" transform="translate(4197.954 -8854.687)" fill="#fff" opacity="0.49"/>
      <path id="Trazado_5236" data-name="Trazado 5236" d="M-3926.25,9030.568s3.055-4.391,5.6-.762l.954,2.926S-3922.368,9026.369-3926.25,9030.568Z" transform="translate(4208.364 -8853.092)" fill="#fff" opacity="0.49"/>
      <path id="Trazado_5237" data-name="Trazado 5237" d="M-4138,9011.5s6.874-16.037,37.8-9.928C-4100.2,9001.57-4125.017,8997.751-4138,9011.5Z" transform="translate(4258.402 -8846.432)" fill="#e6e6e6"/>
      <path id="Trazado_5238" data-name="Trazado 5238" d="M-4051,9006.332s26.347-8.018,45.439,6.873C-4005.56,9013.205-4028.853,9002.514-4051,9006.332Z" transform="translate(4237.844 -8847.375)" fill="#e6e6e6"/>
    </g>
  </g>
</svg>
