<svg xmlns="http://www.w3.org/2000/svg" width="304.609" height="384.299" viewBox="0 0 304.609 384.299">
  <g id="Grupo_3449" data-name="Grupo 3449" transform="translate(2635.854 -10547.855)">
    <g id="Grupo_3448" data-name="Grupo 3448" transform="translate(-2635.854 10547.855)">
      <g id="Grupo_3403" data-name="Grupo 3403" transform="translate(34.299 193.348)">
        <path id="Trazado_5240" data-name="Trazado 5240" d="M-2524.079,10813.072l-33.321,33.322-24.651-24.5-6.755,6.12,30.64,40.6,14.937-3.83" transform="translate(2588.807 -10813.072)" fill="#6883c1"/>
      </g>
      <g id="Grupo_3404" data-name="Grupo 3404" transform="translate(13.92 172.929)">
        <path id="Trazado_5241" data-name="Trazado 5241" d="M-2584.126,10809.313l-18.384,17.236-4.213-23.747s-18.767-4.979-4.979-16.47c0,0,14.171-7.276,14.171,13.022Z" transform="translate(2616.761 -10785.063)" fill="#333"/>
      </g>
      <g id="Grupo_3405" data-name="Grupo 3405" transform="translate(17.396 153.902)">
        <path id="Trazado_5242" data-name="Trazado 5242" d="M-2601.6,10787.3s3.623-26.74-6.989-28.281S-2601.6,10787.3-2601.6,10787.3Z" transform="translate(2611.993 -10758.964)" fill="#333"/>
      </g>
      <g id="Grupo_3406" data-name="Grupo 3406" transform="translate(0 169.211)">
        <path id="Trazado_5243" data-name="Trazado 5243" d="M-2614,10794.143s-14.552-17.783-20.894-13.519S-2614,10794.143-2614,10794.143Z" transform="translate(2635.854 -10779.964)" fill="#333"/>
      </g>
      <g id="Grupo_3407" data-name="Grupo 3407" transform="translate(2.695 156.846)">
        <path id="Trazado_5244" data-name="Trazado 5244" d="M-2610.321,10788.206s-5.588-27.732-18.675-25.017S-2610.321,10788.206-2610.321,10788.206Z" transform="translate(2632.158 -10763.002)" fill="#333"/>
      </g>
      <g id="Grupo_3408" data-name="Grupo 3408" transform="translate(29.233 164.847)">
        <path id="Trazado_5245" data-name="Trazado 5245" d="M-2591.839,10796.351s3.352-1.437,3.352-8.043c0,0,3.447-5.745,4.884-8.617s-4.884-9.48-7.181-2.873a120.034,120.034,0,0,0-3.734,13.788S-2598.637,10800.946-2591.839,10796.351Z" transform="translate(2595.755 -10773.978)" fill="#333"/>
      </g>
      <g id="Grupo_3409" data-name="Grupo 3409" transform="translate(205.584 197.722)">
        <path id="Trazado_5246" data-name="Trazado 5246" d="M-2353.854,10819.072l33.322,33.322,24.651-24.5,6.755,6.119-30.64,40.6-14.937-3.83" transform="translate(2353.854 -10819.072)" fill="#6883c1"/>
      </g>
      <g id="Grupo_3410" data-name="Grupo 3410" transform="translate(258.055 177.303)">
        <path id="Trazado_5247" data-name="Trazado 5247" d="M-2281.879,10815.313l18.384,17.236,4.213-23.747s18.767-4.979,4.979-16.47c0,0-14.171-7.276-14.171,13.022Z" transform="translate(2281.879 -10791.063)" fill="#333"/>
      </g>
      <g id="Grupo_3411" data-name="Grupo 3411" transform="translate(276.226 158.276)">
        <path id="Trazado_5248" data-name="Trazado 5248" d="M-2256.358,10793.3s-3.623-26.74,6.99-28.281S-2256.358,10793.3-2256.358,10793.3Z" transform="translate(2256.954 -10764.964)" fill="#333"/>
      </g>
      <g id="Grupo_3412" data-name="Grupo 3412" transform="translate(282.759 173.585)">
        <path id="Trazado_5249" data-name="Trazado 5249" d="M-2247.993,10800.143s14.552-17.783,20.894-13.519S-2247.993,10800.143-2247.993,10800.143Z" transform="translate(2247.993 -10785.964)" fill="#333"/>
      </g>
      <g id="Grupo_3413" data-name="Grupo 3413" transform="translate(280.078 161.22)">
        <path id="Trazado_5250" data-name="Trazado 5250" d="M-2251.67,10794.206s5.588-27.732,18.674-25.017S-2251.67,10794.206-2251.67,10794.206Z" transform="translate(2251.67 -10769.002)" fill="#333"/>
      </g>
      <g id="Grupo_3414" data-name="Grupo 3414" transform="translate(263.016 169.222)">
        <path id="Trazado_5251" data-name="Trazado 5251" d="M-2266.63,10802.351s-3.351-1.437-3.351-8.043c0,0-3.447-5.745-4.883-8.617s4.883-9.48,7.181-2.873a120.006,120.006,0,0,1,3.735,13.788S-2259.832,10806.946-2266.63,10802.351Z" transform="translate(2275.074 -10779.978)" fill="#333"/>
      </g>
      <g id="Grupo_3415" data-name="Grupo 3415" transform="translate(111.434 313.672)">
        <path id="Trazado_5252" data-name="Trazado 5252" d="M-2478.6,10984.481l8.618,45.671-13.022,18.109,29.395-1.737,6.032-62.905S-2469.116,10970.693-2478.6,10984.481Z" transform="translate(2483 -10978.121)" fill="#9786be"/>
      </g>
      <g id="Grupo_3416" data-name="Grupo 3416" transform="translate(168.407 310.225)">
        <path id="Trazado_5253" data-name="Trazado 5253" d="M-2373.828,10979.753l-8.617,45.67,13.127,17.368-29.5-1-6.033-62.905S-2383.307,10965.965-2373.828,10979.753Z" transform="translate(2404.85 -10973.393)" fill="#9786be"/>
      </g>
      <g id="Grupo_3417" data-name="Grupo 3417" transform="translate(70.563 188.079)">
        <path id="Trazado_5254" data-name="Trazado 5254" d="M-2501.949,10948.14s-28.405,2.585-37.013-11.2c0,0-3.376-79.5,28.869-131.094l111.436,16.485s37.873,39.639,13.772,114.608c0,0-36.152,29.3-109.317,11.2" transform="translate(2539.063 -10805.844)" fill="#6883c1"/>
      </g>
      <g id="Grupo_3445" data-name="Grupo 3445" transform="translate(35.904)">
        <g id="Grupo_3419" data-name="Grupo 3419" transform="translate(57.423 82.675)">
          <g id="Grupo_3418" data-name="Grupo 3418">
            <path id="Trazado_5255" data-name="Trazado 5255" d="M-2383.834,10713.274s-3.385-41.74-53.021-50.766-65.43,33.844-65.43,33.844l-4.512,47.38s-12.409,53.021,48.509,57.534,72.2-34.972,72.2-34.972Z" transform="translate(2507.837 -10661.261)" fill="gray"/>
          </g>
        </g>
        <g id="Grupo_3421" data-name="Grupo 3421" transform="translate(159.612 138.628)">
          <g id="Grupo_3420" data-name="Grupo 3420">
            <path id="Trazado_5256" data-name="Trazado 5256" d="M-2367.665,10745.591c0,4.185,3.051,5.346,6.582,5.346s6.207-1.161,6.207-5.346-2.863-7.578-6.4-7.578S-2367.665,10741.406-2367.665,10745.591Z" transform="translate(2367.665 -10738.013)" fill="#333"/>
          </g>
        </g>
        <g id="Grupo_3423" data-name="Grupo 3423" transform="translate(110.86 136.561)">
          <g id="Grupo_3422" data-name="Grupo 3422">
            <path id="Trazado_5257" data-name="Trazado 5257" d="M-2434.538,10742.79c0,4.205,3.5,5.372,7.708,5.372s7.519-1.167,7.519-5.372a7.613,7.613,0,0,0-7.614-7.613A7.613,7.613,0,0,0-2434.538,10742.79Z" transform="translate(2434.538 -10735.177)" fill="#333"/>
          </g>
        </g>
        <g id="Grupo_3425" data-name="Grupo 3425" transform="translate(89.091 123.616)">
          <g id="Grupo_3424" data-name="Grupo 3424">
            <path id="Trazado_5258" data-name="Trazado 5258" d="M-2422.176,10717.887l-1.92,7.534s-28.653-1.288-39.1,4.438l-1.2-3.9S-2457.311,10715.064-2422.176,10717.887Z" transform="translate(2464.399 -10717.42)" fill="#333"/>
          </g>
        </g>
        <g id="Grupo_3427" data-name="Grupo 3427" transform="translate(155.808 124.539)">
          <g id="Grupo_3426" data-name="Grupo 3426">
            <path id="Trazado_5259" data-name="Trazado 5259" d="M-2372.882,10718.69l.014,7.526s20.529.8,26.908,7.17l1.547-3.738S-2347.488,10718.453-2372.882,10718.69Z" transform="translate(2372.882 -10718.687)" fill="#333"/>
          </g>
        </g>
        <g id="Grupo_3429" data-name="Grupo 3429" transform="translate(81.338 78.109)">
          <g id="Grupo_3428" data-name="Grupo 3428">
            <path id="Trazado_5260" data-name="Trazado 5260" d="M-2375.852,10660.517s-7.513,43.006-99.183,3.622C-2475.034,10664.139-2419.311,10646.256-2375.852,10660.517Z" transform="translate(2475.034 -10654.998)" fill="gray"/>
          </g>
        </g>
        <g id="Grupo_3431" data-name="Grupo 3431" transform="translate(61.847 91.013)">
          <g id="Grupo_3430" data-name="Grupo 3430">
            <path id="Trazado_5261" data-name="Trazado 5261" d="M-2471.858,10672.71l6.756,2.874s-1.5,34.215-36.472,33.84C-2501.574,10709.424-2506.074,10671.957-2471.858,10672.71Z" transform="translate(2501.769 -10672.699)" fill="gray"/>
          </g>
        </g>
        <g id="Grupo_3433" data-name="Grupo 3433" transform="translate(161.682 86.876)">
          <g id="Grupo_3432" data-name="Grupo 3432">
            <path id="Trazado_5262" data-name="Trazado 5262" d="M-2355.551,10667.028s-2.507,8.021-9.274,10.025C-2364.825,10677.054-2361.065,10666.776-2355.551,10667.028Z" transform="translate(2364.825 -10667.023)" fill="#fff"/>
          </g>
        </g>
        <g id="Grupo_3435" data-name="Grupo 3435" transform="translate(196.957 178.408)">
          <g id="Grupo_3434" data-name="Grupo 3434">
            <path id="Trazado_5263" data-name="Trazado 5263" d="M-2316.438,10792.758s.251.228.67.646,1.019,1.014,1.707,1.755c.337.378.714.772,1.084,1.218l.581.671q.288.352.588.715c.406.479.786,1,1.193,1.517s.773,1.069,1.163,1.6c.357.559.713,1.116,1.025,1.684.152.285.3.571.454.845s.32.538.452.812c.147.266.3.523.454.771s.316.487.449.729.283.471.419.7.292.436.4.651c.234.427.468.818.69,1.165a4.4,4.4,0,0,1,.28.5l.241.429c.3.521.513.823.513.823l.222-.044a9.423,9.423,0,0,0,.048-.981,8.032,8.032,0,0,0-.05-1.133c-.062-.428-.15-.912-.266-1.438a14.5,14.5,0,0,0-.536-1.639c-.056-.143-.1-.292-.168-.435l-.208-.426c-.142-.284-.3-.572-.463-.859a15.17,15.17,0,0,0-1.186-1.654c-.436-.537-.9-1.057-1.342-1.6-.47-.514-.919-1.042-1.4-1.528s-.943-.965-1.424-1.4-.932-.861-1.387-1.238-.89-.726-1.288-1.05c-.814-.629-1.5-1.142-2-1.472s-.787-.518-.787-.518Z" transform="translate(2316.438 -10792.578)" fill="#4d4d4d"/>
          </g>
        </g>
        <g id="Grupo_3437" data-name="Grupo 3437" transform="translate(106.535 109.139)">
          <g id="Grupo_3436" data-name="Grupo 3436">
            <path id="Trazado_5264" data-name="Trazado 5264" d="M-2374.044,10703.377c-.542-.215-1.1-.393-1.656-.563s-1.124-.319-1.692-.458c-1.136-.283-2.288-.5-3.45-.674s-2.333-.3-3.511-.357c-.588-.037-1.178-.049-1.769-.061s-1.183,0-1.774.021-1.184.066-1.775.121l-.887.088-.884.117c-.59.08-1.177.183-1.763.293s-1.169.249-1.746.405c-.583.139-1.151.331-1.726.5-.564.2-1.14.377-1.694.609l-.837.334-.824.369c-.277.118-.547.253-.812.4l-.8.418,1.112.029c-.783-.486-1.527-.895-2.3-1.3s-1.549-.792-2.337-1.157c-1.571-.741-3.185-1.382-4.818-1.968q-1.227-.434-2.474-.807c-.832-.248-1.664-.493-2.51-.689-.842-.214-1.691-.391-2.542-.564l-1.279-.237-1.286-.2c-.428-.07-.859-.123-1.291-.169s-.862-.1-1.3-.128l-1.3-.1-1.3-.054c-.432-.024-.867-.018-1.3-.021s-.866-.009-1.3.02l-1.3.061c-.432.025-.863.071-1.293.106-.862.057-1.718.2-2.571.32-.848.17-1.7.293-2.535.51-.418.1-.837.2-1.252.311l-1.234.37c-.414.113-.817.261-1.219.411l-1.2.447c.845-.146,1.669-.356,2.513-.473l1.256-.2,1.263-.146c.835-.122,1.683-.151,2.521-.228l1.263-.043c.42-.025.84-.031,1.26-.027s.84-.008,1.26,0l1.258.05c.419.007.837.057,1.255.078s.835.049,1.252.1l1.249.129,1.244.172c.415.051.827.131,1.239.2s.826.13,1.236.216l1.231.241,1.223.274c.812.2,1.624.4,2.427.635s1.6.469,2.4.724,1.584.534,2.371.817,1.565.588,2.338.906,1.542.646,2.3.992,1.514.705,2.256,1.084,1.49.78,2.158,1.185l.542.326.57-.3c.494-.259.976-.54,1.481-.781l.751-.372.768-.339c.508-.237,1.04-.417,1.56-.628.533-.176,1.058-.377,1.6-.527.271-.078.538-.164.811-.236l.817-.216c.547-.14,1.1-.27,1.651-.38l.833-.164.84-.135q.841-.13,1.69-.219c.565-.064,1.132-.119,1.7-.16s1.139-.075,1.711-.088,1.145-.02,1.718-.018,1.147.012,1.722.032,1.149.058,1.723.1,1.15.09,1.724.155,1.147.143,1.721.221S-2374.615,10703.264-2374.044,10703.377Z" transform="translate(2440.47 -10697.563)" fill="#4d4d4d"/>
          </g>
        </g>
        <g id="Grupo_3439" data-name="Grupo 3439" transform="translate(159.99 148.042)">
          <g id="Grupo_3438" data-name="Grupo 3438">
            <path id="Trazado_5265" data-name="Trazado 5265" d="M-2351.918,10753.369l-2.629.363c-.784.1-1.694.211-2.667.3-.485.052-.988.069-1.5.105s-1.024.04-1.535.027-1.022-.027-1.516-.08a12.367,12.367,0,0,1-1.436-.222,8.5,8.5,0,0,1-1.274-.411l-.288-.126-.265-.146a3.3,3.3,0,0,1-.491-.306,3.308,3.308,0,0,1-.417-.335,2.449,2.449,0,0,1-.348-.343,5.34,5.34,0,0,1-.5-.64c-.125-.19-.205-.354-.27-.461l-.1-.169.036.188a4.62,4.62,0,0,0,.128.537,3.991,3.991,0,0,0,.351.795,2.751,2.751,0,0,0,.3.457,3.094,3.094,0,0,0,.4.459,3.888,3.888,0,0,0,.5.443c.09.071.185.143.281.211l.309.186a6.715,6.715,0,0,0,1.392.617,9.989,9.989,0,0,0,1.569.352,12.512,12.512,0,0,0,1.636.12c.547,0,1.091-.026,1.624-.068s1.051-.124,1.549-.208.975-.193,1.424-.3.868-.232,1.252-.352a18.1,18.1,0,0,0,1.823-.676C-2352.155,10753.5-2351.918,10753.369-2351.918,10753.369Z" transform="translate(2367.146 -10750.925)" fill="#333"/>
          </g>
        </g>
        <g id="Grupo_3442" data-name="Grupo 3442" transform="translate(133.882 20.71)">
          <g id="Grupo_3441" data-name="Grupo 3441">
            <g id="Grupo_3440" data-name="Grupo 3440">
              <path id="Trazado_5266" data-name="Trazado 5266" d="M-2402.959,10576.264l.7.631c.458.406,1.1,1.035,1.93,1.82s1.8,1.777,2.891,2.924,2.293,2.475,3.58,3.933c.627.743,1.3,1.5,1.944,2.325l1.007,1.237,1.008,1.3.514.662.5.688,1.016,1.4,1,1.455c.337.487.681.979,1,1.492l.981,1.537c.332.514.63,1.053.951,1.584.649,1.057,1.225,2.17,1.831,3.277.313.549.569,1.128.852,1.7s.565,1.138.828,1.719l.76,1.756.379.88.334.9.677,1.791c.212.6.389,1.212.584,1.817l.287.907.145.453.118.459q.235.917.47,1.829c.074.3.164.605.226.912s.117.613.174.918q.181.916.358,1.82c.121.6.167,1.214.253,1.814s.156,1.2.235,1.793q.109,1.793.214,3.518c-.006,1.152.005,2.282-.012,3.383q-.124,1.649-.238,3.2c-.11,1.031-.277,2.023-.4,2.98-.1.965-.354,1.857-.523,2.725-.09.433-.177.855-.262,1.266-.043.205-.085.407-.126.606s-.109.389-.162.579c-.216.758-.428,1.467-.607,2.13s-.336,1.276-.545,1.806c-.387,1.07-.67,1.924-.874,2.5l-.3.895.439-.832c.281-.545.707-1.343,1.223-2.373a19,19,0,0,0,.776-1.74c.271-.641.546-1.34.85-2.087.073-.187.156-.375.225-.57s.128-.4.192-.6q.194-.612.4-1.258a26.758,26.758,0,0,0,.773-2.746c.211-.972.465-1.98.667-3.038q.219-1.6.453-3.306c.088-1.141.146-2.318.222-3.523.019-1.205-.038-2.438-.055-3.693-.116-1.248-.214-2.521-.382-3.8q-.158-.955-.318-1.923-.083-.482-.167-.968c-.059-.322-.146-.64-.219-.961q-.229-.961-.459-1.93l-.116-.484-.145-.477-.294-.953c-.2-.636-.383-1.278-.6-1.91l-.7-1.877-.355-.937-.4-.916q-.4-.917-.8-1.828c-.275-.6-.588-1.189-.884-1.779s-.582-1.184-.917-1.748-.645-1.137-.966-1.7-.679-1.1-1.015-1.647-.672-1.087-1.031-1.607l-1.074-1.545c-.348-.515-.722-1.006-1.09-1.493s-.73-.971-1.1-1.44l-1.124-1.369q-.278-.338-.551-.673l-.565-.645c-1.469-1.734-2.977-3.265-4.382-4.656-.712-.687-1.392-1.346-2.062-1.947s-1.308-1.169-1.925-1.682c-1.211-1.049-2.328-1.895-3.24-2.592C-2401.835,10576.943-2402.959,10576.264-2402.959,10576.264Z" transform="translate(2402.959 -10576.264)" fill="#e6e6e6"/>
            </g>
          </g>
        </g>
        <g id="Grupo_3444" data-name="Grupo 3444">
          <g id="Grupo_3443" data-name="Grupo 3443">
            <path id="Trazado_5267" data-name="Trazado 5267" d="M-2512.222,10628.345s-6.288-44.018,57.852-80.489c0,0,31.441,26.41,33.327,61.625l18.236-7.546s5.659,22.637-9.433,30.812c0,0,34.585-26.41,74.2,6.288,0,0-3.144,74.831-66.655,72.315,0,0,28.3-3.772,44.017,12.576,0,0-10.69,28.926-52.821,15.092l-114.446-4.4s-10.69,20.122-40.874,13.205c0,0-5.03-25.781,15.721-35.843,0,0-39.616-14.464-32.7-55.336,0,0,14.463-9.434,37.73,1.257,0,0-33.957-25.153-6.918-62.254C-2554.982,10595.646-2520.4,10597.532-2512.222,10628.345Z" transform="translate(2586.605 -10547.855)" fill="gray"/>
          </g>
        </g>
      </g>
      <g id="Grupo_3446" data-name="Grupo 3446" transform="translate(110.462 349.448)">
        <path id="Trazado_5268" data-name="Trazado 5268" d="M-2484.333,11062.046l13.547-18.681-3.859-16.17,24.7,2.873-2.3,29.874Z" transform="translate(2484.333 -11027.195)" fill="#333"/>
      </g>
      <g id="Grupo_3447" data-name="Grupo 3447" transform="translate(170.707 350.023)">
        <path id="Trazado_5269" data-name="Trazado 5269" d="M-2401.7,11027.983l3.6,28.931,30.072.789-13.3-17.739,2.187-11.6Z" transform="translate(2401.695 -11027.983)" fill="#333"/>
      </g>
    </g>
    <path id="Trazado_5270" data-name="Trazado 5270" d="M-2506.888,10812.55s64.848-48.062,116.949,6.28l-52.148,55.074Z" transform="translate(-34.947 -66.412)" fill="#6883c1"/>
    <path id="Trazado_5271" data-name="Trazado 5271" d="M-2510.313,10796.226l-2.187,37.545s47.751-22.964,65.976-55.771C-2446.524,10778-2490.629,10783.832-2510.313,10796.226Z" transform="translate(-33.427 -62.365)" fill="gray"/>
    <path id="Trazado_5272" data-name="Trazado 5272" d="M-2435,10789s5.1,35.723,41.554,47.387c0,0,14.58-14.581,9.477-45.2Z" transform="translate(-54.428 -65.345)" fill="gray"/>
    <path id="Trazado_5273" data-name="Trazado 5273" d="M-2346.5,10838.5s18.225,14.945,20.048,39.367l8.678,2.006S-2330.462,10845.426-2346.5,10838.5Z" transform="translate(-78.409 -78.759)" fill="#333" opacity="0.3" style="mix-blend-mode: multiply;isolation: isolate"/>
    <path id="Trazado_5274" data-name="Trazado 5274" d="M-2533.817,10875.475s4.739-19.32,9.842-26.975l-22.8,29.709Z" transform="translate(-24.138 -81.469)" fill="#333" opacity="0.3" style="mix-blend-mode: multiply;isolation: isolate"/>
  </g>
</svg>
