<svg xmlns="http://www.w3.org/2000/svg" width="345.382" height="499.245" viewBox="0 0 345.382 499.245">
  <text id="_" data-name="?" transform="matrix(0.982, -0.186, 0.186, 0.982, 273.645, 178.65)" fill="#f78b8b" font-size="147" font-family="SegoeUI, Segoe UI"><tspan x="0" y="0">?</tspan></text>
  <text id="_2" data-name="?" transform="matrix(-0.839, -0.545, 0.545, -0.839, 236.824, 42.162)" fill="#ce6666" font-size="92" font-family="SegoeUI, Segoe UI"><tspan x="0" y="0">?</tspan></text>
  <g id="Grupo_3530" data-name="Grupo 3530" transform="translate(6545.605 -5003.982)">
    <g id="Grupo_3478" data-name="Grupo 3478" transform="translate(-6373.97 5271.555)">
      <path id="Trazado_5486" data-name="Trazado 5486" d="M-6331.248,5354.37l51.753-.658-.372-38.174,1.664,6.775,16.766,47.827-38.651,26.9" transform="translate(6331.248 -5315.538)" fill="#6883c1"/>
    </g>
    <g id="Grupo_3479" data-name="Grupo 3479" transform="translate(-6477.177 5425.756)">
      <path id="Trazado_5487" data-name="Trazado 5487" d="M-6438.376,5515.106l9.465,50.161-31.233,19.875,49.215-1.893,6.625-69.09S-6427.965,5499.963-6438.376,5515.106Z" transform="translate(6460.144 -5508.122)" fill="#9786be"/>
    </g>
    <g id="Grupo_3480" data-name="Grupo 3480" transform="translate(-6397.672 5421.97)">
      <path id="Trazado_5488" data-name="Trazado 5488" d="M-6326.778,5510.377l-9.464,50.161,31.232,19.875-49.214-1.893-6.626-69.09S-6337.188,5495.235-6326.778,5510.377Z" transform="translate(6360.85 -5503.393)" fill="#9786be"/>
    </g>
    <g id="Grupo_3481" data-name="Grupo 3481" transform="translate(-6505.136 5287.814)">
      <path id="Trazado_5489" data-name="Trazado 5489" d="M-6340.853,5353.949s41.6,43.536,15.126,125.877c0,0-39.707,32.178-120.064,12.3l-3.782-23.661-4.727,23.661s-31.2,2.839-40.652-12.3c0,0-3.709-87.319,31.707-143.982Z" transform="translate(6495.063 -5335.844)" fill="#6883c1"/>
    </g>
    <g id="Grupo_3517" data-name="Grupo 3517" transform="translate(-6545.605 5094.855)">
      <g id="Grupo_3483" data-name="Grupo 3483">
        <g id="Grupo_3482" data-name="Grupo 3482">
          <path id="Trazado_5490" data-name="Trazado 5490" d="M-6363.05,5179.212s6.59-46.133-60.632-84.357c0,0-32.952,27.68-34.929,64.586l-19.113-7.908s-5.931,23.725,9.886,32.293c0,0-36.248-27.681-77.767,6.59,0,0,3.295,78.426,69.858,75.79,0,0-29.657-3.955-46.133,13.181,0,0,11.2,30.316,55.359,15.817l119.947-4.614s11.2,21.089,42.837,13.84c0,0,5.273-27.021-16.476-37.565,0,0,41.521-15.158,34.271-58,0,0-15.158-9.885-39.543,1.318,0,0,35.588-26.361,7.25-65.245C-6318.235,5144.942-6354.482,5146.919-6363.05,5179.212Z" transform="translate(6545.605 -5094.855)" fill="gray"/>
        </g>
      </g>
      <g id="Grupo_3485" data-name="Grupo 3485" transform="translate(70.367 86.649)">
        <g id="Grupo_3484" data-name="Grupo 3484">
          <path id="Trazado_5491" data-name="Trazado 5491" d="M-6457.723,5257.584s3.547-43.746,55.57-53.2,68.574,35.47,68.574,35.47l4.729,49.657s13.006,55.569-50.84,60.3-75.669-36.652-75.669-36.652Z" transform="translate(6457.723 -5203.072)" fill="#fff"/>
        </g>
      </g>
      <g id="Grupo_3488" data-name="Grupo 3488" transform="translate(45.425 137.792)">
        <g id="Grupo_3487" data-name="Grupo 3487">
          <g id="Grupo_3486" data-name="Grupo 3486">
            <path id="Trazado_5492" data-name="Trazado 5492" d="M-6453.016,5280.651s-8.275-20.687-24.826-11.23-18.323,50.832,21.87,45.512" transform="translate(6488.873 -5266.945)" fill="#fff"/>
          </g>
        </g>
      </g>
      <g id="Grupo_3490" data-name="Grupo 3490" transform="translate(63.533 149.64)">
        <g id="Grupo_3489" data-name="Grupo 3489">
          <path id="Trazado_5493" data-name="Trazado 5493" d="M-6464.468,5283.009a16.632,16.632,0,0,1,2.861-.184,11.939,11.939,0,0,1,1.385.109c.228.021.448.077.67.112.217.055.435.1.645.163a6.454,6.454,0,0,1,1.19.48c.091.051.187.094.273.148l.254.172a4.789,4.789,0,0,1,.475.37,5.287,5.287,0,0,1,.418.419c.131.146.236.317.357.469s.2.343.3.509.162.369.246.549a7.419,7.419,0,0,1,.346,1.186,12.473,12.473,0,0,1,.191,1.261l.032.655a5.611,5.611,0,0,1,.01.661c-.015.445,0,.887-.054,1.34l-.055.675c-.018.225-.061.452-.085.679-.057.453-.107.906-.2,1.361s-.146.908-.252,1.364l-.291,1.365,1.817-.953c-.428-.159-.8-.27-1.205-.388s-.794-.216-1.194-.312-.808-.172-1.216-.244-.823-.126-1.24-.173a13.4,13.4,0,0,0-2.568-.022,8.78,8.78,0,0,0-1.326.236,5.98,5.98,0,0,0-1.319.513c-.214.113-.418.264-.622.4a7.149,7.149,0,0,0-.556.509,5.351,5.351,0,0,0-.45.606,4.412,4.412,0,0,0-.326.661,4.311,4.311,0,0,0-.2.684c-.034.229-.08.457-.1.681l-.008.662c.005.219.044.429.065.64a8.877,8.877,0,0,0,.253,1.224c.124.391.253.776.4,1.15.167.367.312.738.493,1.093s.376.7.575,1.043c-.065-.394-.147-.777-.219-1.162l-.179-1.149c-.043-.383-.066-.765-.1-1.139l0-.559,0-.276.023-.27c.02-.179.022-.36.055-.531l.1-.5c.043-.161.11-.309.159-.462a3.755,3.755,0,0,1,.206-.411,2.508,2.508,0,0,1,.256-.353,3.755,3.755,0,0,1,.3-.29c.114-.081.234-.155.348-.232.137-.057.257-.128.4-.178a4.929,4.929,0,0,1,.9-.217,6.633,6.633,0,0,1,1-.061c.342,0,.691.021,1.043.057s.707.092,1.062.151.714.136,1.07.218.712.182,1.068.278.71.2,1.061.32.711.246,1.015.358l1.477.552.341-1.5.33-1.454c.122-.481.184-.983.271-1.476s.144-.994.2-1.5.085-1.011.105-1.522a15.244,15.244,0,0,0,0-1.545,7.354,7.354,0,0,0-.061-.781l-.089-.783a11.816,11.816,0,0,0-.368-1.569,8.508,8.508,0,0,0-.616-1.531c-.142-.243-.273-.491-.431-.726s-.334-.461-.518-.678c-.2-.2-.392-.418-.608-.6a7.045,7.045,0,0,0-.68-.515,5.388,5.388,0,0,0-.735-.414l-.381-.172c-.127-.053-.26-.091-.389-.136a7.076,7.076,0,0,0-1.575-.332,8.883,8.883,0,0,0-1.553-.013,10.849,10.849,0,0,0-1.5.227,14.236,14.236,0,0,0-1.43.416A10.281,10.281,0,0,0-6464.468,5283.009Z" transform="translate(6466.258 -5281.743)" fill="#4d4d4d"/>
        </g>
      </g>
      <g id="Grupo_3492" data-name="Grupo 3492" transform="translate(167.282 145.292)">
        <g id="Grupo_3491" data-name="Grupo 3491">
          <path id="Trazado_5494" data-name="Trazado 5494" d="M-6336.684,5284.253c0,4.385,3.2,5.6,6.9,5.6s6.5-1.216,6.5-5.6-3-7.941-6.7-7.941S-6336.684,5279.867-6336.684,5284.253Z" transform="translate(6336.684 -5276.312)" fill="#333"/>
        </g>
      </g>
      <g id="Grupo_3494" data-name="Grupo 3494" transform="translate(116.187 143.125)">
        <g id="Grupo_3493" data-name="Grupo 3493">
          <path id="Trazado_5495" data-name="Trazado 5495" d="M-6400.5,5281.584c0,4.407,3.671,5.629,8.078,5.629s7.881-1.223,7.881-5.629a7.979,7.979,0,0,0-7.979-7.979A7.98,7.98,0,0,0-6400.5,5281.584Z" transform="translate(6400.497 -5273.605)" fill="#333"/>
        </g>
      </g>
      <g id="Grupo_3496" data-name="Grupo 3496" transform="translate(85.246 81.863)">
        <g id="Grupo_3495" data-name="Grupo 3495">
          <path id="Trazado_5496" data-name="Trazado 5496" d="M-6335.191,5202.878s-7.873,45.073-103.949,3.8C-6439.14,5206.675-6380.738,5187.933-6335.191,5202.878Z" transform="translate(6439.14 -5197.095)" fill="gray"/>
        </g>
      </g>
      <g id="Grupo_3499" data-name="Grupo 3499" transform="translate(82.785 158.757)">
        <g id="Grupo_3497" data-name="Grupo 3497" transform="translate(1.379 1.396)">
          <path id="Trazado_5497" data-name="Trazado 5497" d="M-6371.336,5303.011s30.736-13,54.379,4.138c0,0,15.959,11.23,15.959,28.962,0,0-18.323,19.506-53.2,10.049l-7.093-14.777,1.183,18.914s-40.784,13.595-51.423-5.32l7.093-19.5-14.777,16.549s-17.731-2.955-21.278-16.549C-6440.491,5325.472-6438.127,5275.821-6371.336,5303.011Z" transform="translate(6440.491 -5294.872)" fill="gray"/>
        </g>
        <g id="Grupo_3498" data-name="Grupo 3498">
          <path id="Trazado_5498" data-name="Trazado 5498" d="M-6413.074,5345.306a1.384,1.384,0,0,1-.095-1.147l4.644-12.767-10,11.2a1.382,1.382,0,0,1-1.256.442c-.759-.127-18.657-3.267-22.386-17.562a1.376,1.376,0,0,1-.043-.414c.034-.71.99-17.494,15.1-26.5,12.568-8.025,31.216-7.142,55.435,2.623a73.216,73.216,0,0,1,18.179-4.244c14.262-1.486,27.061,1.541,36.992,8.74.676.476,16.544,11.852,16.544,30.09a1.379,1.379,0,0,1-.375.945c-.195.208-4.889,5.137-14,8.9-8.354,3.453-22.174,6.521-40.562,1.534a1.382,1.382,0,0,1-.883-.734l-4.031-8.4.742,11.854a1.382,1.382,0,0,1-.941,1.395,108.32,108.32,0,0,1-22.034,4.5q-3.31.3-6.319.3C-6400.609,5356.052-6409.092,5352.387-6413.074,5345.306Z" transform="translate(6442.214 -5293.128)" fill="gray"/>
        </g>
      </g>
      <g id="Grupo_3501" data-name="Grupo 3501" transform="translate(64.82 95.387)">
        <g id="Grupo_3500" data-name="Grupo 3500">
          <path id="Trazado_5499" data-name="Trazado 5499" d="M-6433.3,5214l7.082,3.012s-1.577,35.86-38.225,35.466C-6464.446,5252.476-6469.163,5213.209-6433.3,5214Z" transform="translate(6464.65 -5213.985)" fill="gray"/>
        </g>
      </g>
      <g id="Grupo_3503" data-name="Grupo 3503" transform="translate(136.162 167.372)">
        <g id="Grupo_3502" data-name="Grupo 3502">
          <path id="Trazado_5500" data-name="Trazado 5500" d="M-6375.551,5309.163l.417-.172c.271-.111.675-.259,1.185-.445s1.139-.383,1.854-.61,1.537-.431,2.424-.654c.895-.2,1.858-.42,2.889-.582s2.114-.312,3.239-.4c1.125-.105,2.289-.116,3.467-.122,1.179.043,2.376.085,3.562.247.3.038.595.063.89.106l.883.147c.59.086,1.168.225,1.747.34.29.056.574.13.856.207l.847.216c.562.142,1.1.339,1.646.491,1.07.358,2.1.726,3.064,1.136.241.1.483.188.716.291l.681.315c.446.209.892.388,1.3.6.813.425,1.588.775,2.236,1.158s1.25.666,1.707.959.844.492,1.1.641.4.222.4.222-.108-.113-.31-.327-.5-.526-.9-.91c-.384-.4-.893-.833-1.481-1.331-.575-.518-1.281-1.024-2.048-1.591-.381-.288-.813-.533-1.243-.818l-.665-.42c-.229-.135-.469-.261-.708-.4a28.967,28.967,0,0,0-3.119-1.5,28.373,28.373,0,0,0-3.53-1.173c-.618-.145-1.235-.323-1.872-.419l-.951-.169c-.319-.049-.641-.083-.961-.124a28.937,28.937,0,0,0-3.846-.19c-.634.033-1.265.04-1.883.111l-.921.092c-.3.036-.6.09-.9.133a26.635,26.635,0,0,0-3.384.746,28.008,28.008,0,0,0-2.919,1.014,24.758,24.758,0,0,0-4.064,2.144c-.465.3-.808.569-1.043.747S-6375.551,5309.163-6375.551,5309.163Z" transform="translate(6375.551 -5303.887)" fill="#4d4d4d"/>
        </g>
      </g>
      <g id="Grupo_3505" data-name="Grupo 3505" transform="translate(169.452 91.051)">
        <g id="Grupo_3504" data-name="Grupo 3504">
          <path id="Trazado_5501" data-name="Trazado 5501" d="M-6324.253,5208.574s-2.627,8.407-9.721,10.508C-6333.974,5219.082-6330.033,5208.311-6324.253,5208.574Z" transform="translate(6333.974 -5208.569)" fill="#fff"/>
        </g>
      </g>
      <g id="Grupo_3507" data-name="Grupo 3507" transform="translate(94.806 184.618)">
        <g id="Grupo_3506" data-name="Grupo 3506">
          <path id="Trazado_5502" data-name="Trazado 5502" d="M-6414.1,5325.427s-.306.188-.824.542-1.24.883-2.093,1.542c-.417.34-.884.695-1.35,1.1s-.962.833-1.455,1.3-.994.953-1.492,1.464-.97,1.064-1.462,1.6c-.461.564-.951,1.11-1.408,1.672a16.132,16.132,0,0,0-1.242,1.733c-.172.3-.335.6-.484.9-.074.15-.146.3-.219.445s-.118.306-.177.456a15.309,15.309,0,0,0-.562,1.717c-.121.552-.213,1.06-.278,1.508a8.529,8.529,0,0,0-.054,1.188,9.987,9.987,0,0,0,.052,1.028l.231.046s.224-.317.538-.862c.076-.136.161-.286.254-.45a4.451,4.451,0,0,1,.293-.521c.232-.364.478-.773.724-1.222.115-.226.274-.448.42-.683s.3-.478.439-.73.3-.506.472-.765.32-.53.476-.808c.138-.287.315-.561.474-.851s.316-.586.476-.886c.327-.594.7-1.179,1.073-1.763.41-.56.8-1.14,1.221-1.681s.825-1.088,1.25-1.589c.209-.254.415-.5.615-.75s.412-.475.609-.7c.388-.466.783-.879,1.137-1.275.721-.778,1.349-1.4,1.788-1.839s.7-.676.7-.676Z" transform="translate(6427.2 -5325.427)" fill="#4d4d4d"/>
        </g>
      </g>
      <g id="Grupo_3509" data-name="Grupo 3509" transform="translate(206.423 186.983)">
        <g id="Grupo_3508" data-name="Grupo 3508">
          <path id="Trazado_5503" data-name="Trazado 5503" d="M-6287.8,5328.567s.264.238.7.677,1.068,1.063,1.789,1.839c.353.4.748.811,1.136,1.276l.608.7.616.749c.426.5.824,1.052,1.25,1.59s.811,1.12,1.22,1.681c.374.584.747,1.169,1.075,1.763.159.3.311.6.475.887s.336.563.475.851.311.548.476.808.331.51.471.765.3.494.438.73.307.457.422.683c.245.448.489.858.723,1.222a4.312,4.312,0,0,1,.294.521c.092.164.177.313.253.45.315.545.538.862.538.862l.232-.047a9.742,9.742,0,0,0,.05-1.027,8.232,8.232,0,0,0-.053-1.188c-.064-.448-.156-.955-.278-1.507a15.212,15.212,0,0,0-.562-1.717c-.059-.15-.11-.306-.177-.456s-.145-.295-.218-.445c-.149-.3-.314-.6-.486-.9a15.854,15.854,0,0,0-1.241-1.733c-.458-.562-.946-1.107-1.407-1.673-.492-.537-.962-1.092-1.463-1.6s-.988-1.012-1.492-1.465-.977-.9-1.454-1.3-.933-.761-1.351-1.1c-.853-.658-1.568-1.2-2.093-1.542s-.824-.541-.824-.541Z" transform="translate(6287.801 -5328.38)" fill="#4d4d4d"/>
        </g>
      </g>
      <g id="Grupo_3511" data-name="Grupo 3511" transform="translate(167.679 155.157)">
        <g id="Grupo_3510" data-name="Grupo 3510">
          <path id="Trazado_5504" data-name="Trazado 5504" d="M-6320.229,5291.194l-2.755.38c-.823.1-1.776.221-2.8.313-.509.056-1.035.072-1.567.11s-1.072.043-1.608.028-1.072-.028-1.591-.083a13.09,13.09,0,0,1-1.5-.232,9.069,9.069,0,0,1-1.335-.431l-.3-.133-.278-.153a3.369,3.369,0,0,1-.514-.32,3.4,3.4,0,0,1-.437-.352,2.541,2.541,0,0,1-.365-.358,5.675,5.675,0,0,1-.523-.671c-.131-.2-.214-.371-.283-.484l-.1-.176.039.2a5.016,5.016,0,0,0,.134.563,4.274,4.274,0,0,0,.368.834,2.958,2.958,0,0,0,.309.479,3.341,3.341,0,0,0,.417.48,3.991,3.991,0,0,0,.519.465c.094.075.192.149.294.222s.214.127.324.193a6.987,6.987,0,0,0,1.458.647,10.243,10.243,0,0,0,1.644.367,13.058,13.058,0,0,0,1.715.127c.573,0,1.143-.028,1.7-.073s1.1-.13,1.624-.218,1.022-.2,1.493-.314.91-.242,1.312-.368a18.829,18.829,0,0,0,1.91-.709C-6320.477,5291.328-6320.229,5291.194-6320.229,5291.194Z" transform="translate(6336.189 -5288.632)" fill="#333"/>
        </g>
      </g>
      <g id="Grupo_3513" data-name="Grupo 3513" transform="translate(114.086 152.793)">
        <g id="Grupo_3512" data-name="Grupo 3512">
          <path id="Trazado_5505" data-name="Trazado 5505" d="M-6387.161,5288.241l-2.756.381c-.822.1-1.776.22-2.795.313-.509.054-1.035.071-1.567.109s-1.072.042-1.609.028-1.07-.028-1.589-.083a13.01,13.01,0,0,1-1.506-.232,8.929,8.929,0,0,1-1.335-.431l-.3-.132-.277-.154a3.34,3.34,0,0,1-.514-.32,3.367,3.367,0,0,1-.437-.352,2.4,2.4,0,0,1-.364-.359,5.589,5.589,0,0,1-.524-.67c-.131-.2-.215-.372-.282-.484l-.1-.175.038.2a4.908,4.908,0,0,0,.134.563,4.269,4.269,0,0,0,.369.833,2.936,2.936,0,0,0,.309.479,3.368,3.368,0,0,0,.416.482,4.063,4.063,0,0,0,.52.464c.095.075.192.148.295.221l.323.193a6.969,6.969,0,0,0,1.459.648,10.386,10.386,0,0,0,1.644.368,13.141,13.141,0,0,0,1.715.126c.573,0,1.144-.028,1.7-.073s1.1-.13,1.624-.218,1.022-.2,1.493-.314.91-.243,1.312-.369a18.907,18.907,0,0,0,1.91-.708C-6387.41,5288.376-6387.161,5288.241-6387.161,5288.241Z" transform="translate(6403.122 -5285.68)" fill="#333"/>
        </g>
      </g>
      <g id="Grupo_3516" data-name="Grupo 3516" transform="translate(140.316 21.706)">
        <g id="Grupo_3515" data-name="Grupo 3515">
          <g id="Grupo_3514" data-name="Grupo 3514">
            <path id="Trazado_5506" data-name="Trazado 5506" d="M-6370.363,5121.964l.733.66c.479.427,1.156,1.085,2.022,1.909.854.839,1.883,1.863,3.03,3.065s2.4,2.592,3.751,4.12c.657.78,1.36,1.574,2.039,2.438l1.055,1.3,1.056,1.36.539.693.523.72,1.065,1.464,1.043,1.524c.354.512.714,1.025,1.046,1.564l1.029,1.611c.348.539.661,1.1,1,1.661.681,1.107,1.283,2.274,1.919,3.434.329.575.6,1.183.893,1.779s.592,1.193.868,1.8.531,1.227.8,1.841l.4.922.35.941.71,1.877c.222.63.407,1.271.612,1.9l.3.952.151.475.123.481q.248.962.494,1.917c.077.32.172.635.237.956s.122.643.183.962l.375,1.908c.126.633.175,1.272.265,1.9s.165,1.258.247,1.879q.114,1.877.225,3.687c-.007,1.207,0,2.391-.015,3.544q-.128,1.727-.249,3.355c-.115,1.081-.289,2.12-.422,3.124-.106,1.011-.371,1.947-.547,2.855-.094.454-.186.9-.275,1.326q-.067.323-.132.638c-.05.207-.114.407-.169.606-.226.8-.448,1.538-.635,2.232s-.352,1.337-.571,1.892c-.406,1.122-.7,2.017-.916,2.625s-.316.937-.316.937l.46-.872c.294-.572.741-1.407,1.281-2.487a19.831,19.831,0,0,0,.814-1.824c.284-.671.572-1.4.89-2.187.077-.2.164-.393.237-.6s.134-.417.2-.631q.2-.642.421-1.319a27.978,27.978,0,0,0,.81-2.877c.222-1.019.488-2.077.7-3.185.154-1.119.312-2.276.476-3.465.091-1.2.153-2.43.232-3.692.019-1.263-.04-2.556-.059-3.871-.121-1.308-.224-2.644-.4-3.985q-.166-1-.333-2.015-.086-.506-.175-1.015c-.062-.338-.153-.67-.229-1.007q-.241-1.008-.482-2.023l-.121-.507-.151-.5-.309-1c-.21-.665-.4-1.339-.631-2l-.732-1.967-.373-.982-.419-.96-.844-1.916c-.289-.633-.617-1.246-.926-1.865s-.61-1.241-.961-1.832-.676-1.192-1.012-1.784-.712-1.155-1.063-1.726-.705-1.14-1.081-1.686-.753-1.083-1.125-1.619-.758-1.054-1.143-1.564-.765-1.018-1.152-1.51-.791-.962-1.178-1.436q-.292-.354-.578-.7l-.593-.677c-1.539-1.817-3.12-3.421-4.592-4.879-.747-.719-1.459-1.41-2.16-2.042s-1.371-1.224-2.018-1.762c-1.27-1.1-2.44-1.985-3.4-2.716C-6369.184,5122.676-6370.363,5121.964-6370.363,5121.964Z" transform="translate(6370.363 -5121.964)" fill="#e6e6e6"/>
          </g>
        </g>
      </g>
    </g>
    <g id="Grupo_3518" data-name="Grupo 3518" transform="translate(-6460.163 5319.291)">
      <path id="Trazado_5507" data-name="Trazado 5507" d="M-6438.378,5476.3c-3.293-45.874,10.235-101.148,10.235-101.148" transform="translate(6438.895 -5375.156)" fill="#405481"/>
    </g>
    <g id="Grupo_3519" data-name="Grupo 3519" transform="translate(-6478.362 5465.05)">
      <path id="Trazado_5508" data-name="Trazado 5508" d="M-6461.625,5595.373l31.928-20.418-4.239-17.759,27.133,3.155-2.524,32.812Z" transform="translate(6461.625 -5557.196)" fill="#333"/>
    </g>
    <g id="Grupo_3520" data-name="Grupo 3520" transform="translate(-6395.146 5465.681)">
      <path id="Trazado_5509" data-name="Trazado 5509" d="M-6357.7,5557.983l3.96,31.774,49.843,1.668-31.427-20.284,2.4-12.744Z" transform="translate(6357.695 -5557.983)" fill="#333"/>
    </g>
    <g id="Grupo_3521" data-name="Grupo 3521" transform="translate(-6451.515 5363.881)">
      <ellipse id="Elipse_1226" data-name="Elipse 1226" cx="4.207" cy="5.469" rx="4.207" ry="5.469" fill="#333"/>
    </g>
    <g id="Grupo_3522" data-name="Grupo 3522" transform="translate(-6451.936 5381.549)">
      <ellipse id="Elipse_1227" data-name="Elipse 1227" cx="4.207" cy="5.469" rx="4.207" ry="5.469" fill="#333"/>
    </g>
    <path id="Trazado_5510" data-name="Trazado 5510" d="M-6458.266,5265.542l9.608,12.811,2.135-22.687-12.811.8Z" transform="translate(-17.195 -32.05)" fill="gray"/>
    <path id="Trazado_5511" data-name="Trazado 5511" d="M-6297.667,5301.667s21.352,5.071,28.825,34.163c0,0-4.8,7.474-11.21,8.808,0,0,8.541.8,14.146-8.541C-6265.906,5336.1-6266.44,5307.805-6297.667,5301.667Z" transform="translate(-49.415 -41.218)" fill="#333" opacity="0.3" style="mix-blend-mode: multiply;isolation: isolate"/>
    <path id="Trazado_5512" data-name="Trazado 5512" d="M-6463.838,5327.667s-20.284,16.014-32.829,13.345c0,0,9.608,8.274,36.3,2.4l-2.752-5.428Z" transform="translate(-9.753 -46.4)" fill="#333" opacity="0.3" style="mix-blend-mode: multiply;isolation: isolate"/>
    <path id="Trazado_5513" data-name="Trazado 5513" d="M-6422.105,5217.762s-1.877,25.279-21.895,32.485c0,0,21.352-3.47,24.555-27.224,0,0,24.554,7.206,39.767,5.071A179.225,179.225,0,0,1-6422.105,5217.762Z" transform="translate(-20.25 -24.495)" fill="#333" opacity="0.3" style="mix-blend-mode: multiply;isolation: isolate"/>
    <path id="Trazado_5514" data-name="Trazado 5514" d="M-6430.333,5531.667l30.159,5.071S-6401.508,5544.745-6430.333,5531.667Z" transform="translate(-22.974 -87.058)" fill="#333" opacity="0.3" style="mix-blend-mode: multiply;isolation: isolate"/>
    <path id="Trazado_5515" data-name="Trazado 5515" d="M-6358.333,5537.6l1.167,11.227,2.836-7.757,24.822-7.74S-6348.108,5537.521-6358.333,5537.6Z" transform="translate(-37.324 -87.39)" fill="#333" opacity="0.3" style="mix-blend-mode: multiply;isolation: isolate"/>
    <path id="Trazado_5516" data-name="Trazado 5516" d="M-6452,5349s20.418,38.033,77.268,29.625C-6374.732,5378.625-6436.787,5395.04-6452,5349Z" transform="translate(-18.656 -50.652)" fill="#333" opacity="0.3" style="mix-blend-mode: multiply;isolation: isolate"/>
    <path id="Trazado_5517" data-name="Trazado 5517" d="M-6444.153,5525.162l3.325-2.627,1.8-18.816-.4-2.136Z" transform="translate(-20.22 -81.062)" fill="#405481"/>
    <path id="Trazado_5518" data-name="Trazado 5518" d="M-6405.821,5354.829l4.549-13.914-3.09,16.349Z" transform="translate(-27.859 -49.04)" fill="#4d4d4d"/>
    <path id="Trazado_5519" data-name="Trazado 5519" d="M-6335.271,5357.58l-4.032-8.4,9.05,10.532Z" transform="translate(-41.117 -50.688)" fill="#4d4d4d"/>
    <path id="Trazado_5520" data-name="Trazado 5520" d="M-6375.667,5301.1a23.911,23.911,0,0,1,17.252,1.478Z" transform="translate(-33.869 -40.916)" fill="#4d4d4d"/>
    <path id="Trazado_5521" data-name="Trazado 5521" d="M-6318.285,5200.21s1.823,13.443-2.715,16.913c0,0,11.191,13.352,14.67,22.156,0,0-2.125-17.618-7.2-20.021C-6313.527,5219.258-6311.835,5205.45-6318.285,5200.21Z" transform="translate(-44.764 -20.998)" fill="#333" opacity="0.3" style="mix-blend-mode: multiply;isolation: isolate"/>
    <path id="Trazado_5522" data-name="Trazado 5522" d="M-6236.527,5237.249s-14.966,44.64-61.14,51.579c0,0,28.559,3.2,31.761,34.43,0,0-4.538,9.074-14.146,8.541,0,0,9.024,5.761,25.73,1.012,0,0,6.124-23.675-16.476-37.565C-6270.8,5295.245-6229.034,5280.152-6236.527,5237.249Z" transform="translate(-49.415 -28.38)" fill="#333" opacity="0.12" style="mix-blend-mode: multiply;isolation: isolate"/>
    <path id="Trazado_5523" data-name="Trazado 5523" d="M-6425.738,5583.125l-13.512,8.207,11.811-5.6s-.7,3.2,1.8,2.1,7.807-.6,7.807-.6-5.8-1.4-8.407-.3C-6426.239,5586.929-6427.74,5584.126-6425.738,5583.125Z" transform="translate(-21.197 -97.314)" fill="#e6e6e6"/>
    <path id="Trazado_5524" data-name="Trazado 5524" d="M-6329,5578.5l21.019,12.811-18.216-9.208s-2,2.8-4.8.2C-6331,5582.3-6325.8,5583.1-6329,5578.5Z" transform="translate(-42.771 -96.392)" fill="#e6e6e6"/>
    <path id="Trazado_5525" data-name="Trazado 5525" d="M-6313.382,5363.1s-11.41.4-20.618-2.6c0,0,16.414,7.406,8.808,12.611C-6325.192,5373.111-6314.983,5367.506-6313.382,5363.1Z" transform="translate(-42.173 -52.944)" fill="#333" opacity="0.3" style="mix-blend-mode: multiply;isolation: isolate"/>
    <path id="Trazado_5526" data-name="Trazado 5526" d="M-6430,5308.047s7.206-16.814,39.634-10.409C-6390.365,5297.638-6416.388,5293.634-6430,5308.047Z" transform="translate(-23.041 -40.125)" fill="#e6e6e6"/>
    <path id="Trazado_5527" data-name="Trazado 5527" d="M-6343,5302.438s27.624-8.408,47.641,7.206C-6295.358,5309.644-6319.779,5298.434-6343,5302.438Z" transform="translate(-40.38 -40.921)" fill="#e6e6e6"/>
    <path id="Trazado_5528" data-name="Trazado 5528" d="M-6398.856,5247.473s14.48-21.514,34.338,2.481c0,0,9.929-9.1,21.927-4.137,0,0-9.1-9.1-21.514.827C-6364.1,5246.645-6383.962,5221.823-6398.856,5247.473Z" transform="translate(-29.247 -28.102)" fill="#4d4d4d"/>
    <g id="Grupo_3523" data-name="Grupo 3523" transform="translate(-6439.867 5216.789)">
      <path id="Trazado_5529" data-name="Trazado 5529" d="M-6413.548,5262.033s18.617,0,23.581-14.893c0,0,7.034,0,8.688,7.86C-6381.279,5255-6399.9,5275.686-6413.548,5262.033Z" transform="translate(6413.548 -5247.14)" fill="#333"/>
    </g>
    <g id="Grupo_3524" data-name="Grupo 3524" transform="translate(-6382.365 5220.172)">
      <path id="Trazado_5530" data-name="Trazado 5530" d="M-6315.359,5266.258s-15.216,0-19.273-14.893c0,0-5.748,0-7.1,7.86C-6341.733,5259.225-6326.518,5279.911-6315.359,5266.258Z" transform="translate(6341.733 -5251.365)" fill="#333"/>
    </g>
    <path id="Trazado_5531" data-name="Trazado 5531" d="M-6455.446,5384.243l-27.637,11.055,6.449,41.456-16.582.921-20.268-56.2,44.219-29.479" transform="translate(-6.402 -51.25)" fill="#6883c1"/>
    <line id="Línea_141" data-name="Línea 141" x1="6.449" y1="41.455" transform="translate(-6489.485 5344.048)" fill="#8671b9"/>
    <path id="Trazado_5532" data-name="Trazado 5532" d="M-6447.976,5392.375l-27.524,11.01,6.806,41.336-.4-37.833Z" transform="translate(-13.972 -59.297)" fill="#333" opacity="0.3" style="mix-blend-mode: multiply;isolation: isolate"/>
    <path id="Trazado_5533" data-name="Trazado 5533" d="M-6492.3,5449.5l5.2,12.211-6.406,2.6Z" transform="translate(-10.385 -70.682)" fill="#405481"/>
    <path id="Trazado_5534" data-name="Trazado 5534" d="M-6467.187,5355.758l13.112-7.006-1.051-2-8.757,1.852Z" transform="translate(-15.629 -50.203)" fill="#405481"/>
    <g id="Grupo_3525" data-name="Grupo 3525" transform="translate(-6504.565 5381.802)">
      <path id="Trazado_5535" data-name="Trazado 5535" d="M-6494.35,5466.306s19.858-20.271,30.2-10.343l-2.069,13.652s6.619,20.272-10.756,19.031c0,0-13.653,3.723-7.448-15.307Z" transform="translate(6494.35 -5453.226)" fill="#333"/>
    </g>
    <g id="Grupo_3526" data-name="Grupo 3526" transform="translate(-6492.082 5403.164)">
      <path id="Trazado_5536" data-name="Trazado 5536" d="M-6468.357,5479.906s15.322,26.854-6.6,31.193c0,0-8.765-3.1.324-10.254C-6474.634,5500.845-6464.12,5491.564-6468.357,5479.906Z" transform="translate(6478.759 -5479.906)" fill="#333"/>
    </g>
    <g id="Grupo_3527" data-name="Grupo 3527" transform="translate(-6501.3 5401.916)">
      <path id="Trazado_5537" data-name="Trazado 5537" d="M-6474.093,5478.346s9,29.58-13.342,28.959c0,0-7.86-4.964,2.585-9.929C-6484.85,5497.376-6472.542,5490.653-6474.093,5478.346Z" transform="translate(6490.272 -5478.346)" fill="#333"/>
    </g>
    <g id="Grupo_3528" data-name="Grupo 3528" transform="translate(-6511.922 5402.551)">
      <path id="Trazado_5538" data-name="Trazado 5538" d="M-6481.141,5479.14s.627,30.912-20.705,24.248c0,0-6.217-6.912,5.185-8.854C-6496.661,5494.535-6482.99,5491.407-6481.141,5479.14Z" transform="translate(6503.538 -5479.14)" fill="#333"/>
    </g>
    <g id="Grupo_3529" data-name="Grupo 3529" transform="translate(-6478.605 5395.813)">
      <path id="Trazado_5539" data-name="Trazado 5539" d="M-6461.928,5470.724s17.375,2.793,13.651,9.619-12.41-2.172-12.41-2.172Z" transform="translate(6461.928 -5470.724)" fill="#333"/>
    </g>
    <path id="Trazado_5540" data-name="Trazado 5540" d="M-6267.488,5359.517l-3.512-7.377,10.409-7.474,11.161,31.28Z" transform="translate(-54.73 -49.788)" fill="#6883c1"/>
    <path id="Trazado_5541" data-name="Trazado 5541" d="M-6300.71,5277.028s-8.007-8.407,2.8-13.211,2.4,15.213,10.809,22.82Z" transform="translate(-48.239 -33.528)" fill="#333"/>
    <ellipse id="Elipse_1228" data-name="Elipse 1228" cx="7.492" cy="8.715" rx="7.492" ry="8.715" transform="matrix(0.891, -0.454, 0.454, 0.891, -6347.326, 5250.623)" fill="#333"/>
    <path id="Trazado_5542" data-name="Trazado 5542" d="M-6289.75,5276.59s11.811-5.337,8.208,8.941h-4.4s.667-5.471-2.937-4.938Z" transform="translate(-50.993 -36.026)" fill="#333"/>
    <path id="Trazado_5543" data-name="Trazado 5543" d="M-6278.85,5281.942s6.6,1.931,1.238,8.187l-1.563-2.987s1.651-2.453-.223-3.08Z" transform="translate(-53.056 -37.287)" fill="#333"/>
    <path id="Trazado_5544" data-name="Trazado 5544" d="M-6282.484,5400.825S-6288.89,5376-6300.5,5372l45.19,9.394Z" transform="translate(-48.85 -55.236)" fill="#333" opacity="0.3" style="mix-blend-mode: multiply;isolation: isolate"/>
    <path id="Trazado_5545" data-name="Trazado 5545" d="M-6279.195,5300.75l9.208,6.606-6.205,2.4-8.808-5.2Z" transform="translate(-51.94 -41.035)" fill="#333"/>
    <path id="Trazado_5546" data-name="Trazado 5546" d="M-6271.6,5311l2,5.4-4.4-4.6Z" transform="translate(-54.132 -43.078)" fill="#6883c1"/>
  </g>
</svg>
