<svg xmlns="http://www.w3.org/2000/svg" viewBox="0 0 2420 1080"><defs><style>.f292e107-b38a-47aa-9579-141e6c6f9d2b{isolation:isolate;}.b23f854c-8ee6-4028-af7e-08cf18e5d53b{fill:#203e43;}.\32 7cb1d8b-d88f-4961-bf1d-165f202380c9{fill:#fcee21;opacity:0.39;}.\39 c427299-5aa1-4312-b2cf-59f88591e489{fill:#1c383b;}.\30 d525f49-9738-495a-91f3-93e9098c0f22,.dbf8ce64-d750-4623-a524-957bff4ab454{fill:#333;}.\30 d525f49-9738-495a-91f3-93e9098c0f22{opacity:0.3;}.\30 d525f49-9738-495a-91f3-93e9098c0f22,.\32 766f40c-10ec-40e1-ba36-631f33735f2c{mix-blend-mode:multiply;}.\31 fd03a0f-d92e-4808-a160-071ce67bbfd3,.b2810367-76aa-4d29-bb70-ac47c9a399ca,.b5f2247f-a888-4d45-90bc-304f2981492c,.bf860f88-abac-4a5f-a66f-803b5e193e46,.f48cee14-52b0-4eab-9280-440a2d9fbd47{fill:#fff;}.\37 c6f4da2-c59f-461a-8e8b-67b6899e1fbb{fill:#b3b3b3;}.\33 2ce73d1-5904-4a00-b0aa-aae8c315aabd{fill:#b8f9c6;}.\30 bc8b61e-90dd-414e-97b3-9aaae3f357db{fill:#386f76;}.\36 bddc474-8ee4-4689-a828-7c49a1001bbb{fill:#4d4d4d;}.e06e6677-bf79-4c91-a8bd-479ed6815c92{fill:#e6e6e6;}.\32 766f40c-10ec-40e1-ba36-631f33735f2c,.\36 0011025-37cd-40ab-92dd-a3348e4e6ec6{fill:#666;}.\37 b2c0783-1c68-40d6-aa72-458056e04d46{fill:#3fa9f5;}.\37 ea4e852-1d8c-4966-b74b-5dd2b415a329{fill:#999;}.\34 cc8a92d-fea8-4399-ba26-93046c62e3db{fill:#ff931e;}.ca0666bc-fcf7-43c4-b072-0ead5beb6c70{fill:#fbb03b;}.\38 371177d-e9ae-4aab-8b45-3e4c2237bd6b{fill:#c50d30;}.\31 3056b05-a86b-4570-b315-fe50c7c1b168{fill:#ed1c24;}.\31 f8e768d-4f78-463b-93ae-cc1d6cb9c117{fill:#6eac7c;}.\32 fba29e3-07ed-47b0-90fa-2ee6fc74f758{fill:#338189;}.f48cee14-52b0-4eab-9280-440a2d9fbd47{opacity:0.25;}.\39 cbdc692-7d54-4991-991b-b90d14429d55{fill:#ccc;}.\32 766f40c-10ec-40e1-ba36-631f33735f2c{opacity:0.2;}.c22e24ab-ae1d-4aaa-85dd-c40ddb33cb6a{fill:#0071bc;}.\30 14baf8e-1b38-4a53-90aa-f056c01ef6ee{fill:#736357;}.d9668eca-2258-4627-adc1-0dcb3b8c0564{fill:#534741;}.b2810367-76aa-4d29-bb70-ac47c9a399ca{opacity:0.52;}.\31 d8e048d-7dd3-4bce-9a12-714a618e5eef{fill:#cd5257;}.\35 9a149f0-8a7c-421e-9267-acb9e7080446,.\36 86804ea-2f96-464a-ba07-8e293217c942{fill:none;stroke-miterlimit:10;}.\35 9a149f0-8a7c-421e-9267-acb9e7080446{stroke:#ccc;}.\31 fd03a0f-d92e-4808-a160-071ce67bbfd3{opacity:0.49;}.bf860f88-abac-4a5f-a66f-803b5e193e46{opacity:0.27;}.\36 86804ea-2f96-464a-ba07-8e293217c942{stroke:#6eac7c;}</style></defs><title>Historia_Matematia_Largo</title><g class="f292e107-b38a-47aa-9579-141e6c6f9d2b"><g id="d64d2b9d-3b29-40c1-9c9b-22dc5483ed0b" data-name="Layer 1"><rect class="b23f854c-8ee6-4028-af7e-08cf18e5d53b" y="857.85" width="2420" height="222.15"/><path class="27cb1d8b-d88f-4961-bf1d-165f202380c9" d="M1113.77,176.16s-13.68-1-32.13-9.91-33.2,19.37-33.2,19.37,14.76,28.23,33.2,19.32,32.13-10,32.13-10c0.31,0.31.46-9.35,0.46-9.35S1114.07,175.85,1113.77,176.16Z"/><rect class="9c427299-5aa1-4312-b2cf-59f88591e489" x="1113.41" y="171.88" width="8.61" height="27.46"/><path class="0d525f49-9738-495a-91f3-93e9098c0f22" d="M1116,173.93v23.36S1118,179.26,1116,173.93Z"/><path class="0d525f49-9738-495a-91f3-93e9098c0f22" d="M1080.72,199.75c-14.15,0-26.37-6.07-32.13-14.88-0.5.85-.76,1.35-0.76,1.35s14.76,28.23,33.2,19.32,32.13-10,32.13-10c0.31,0.31.46-9.35,0.46-9.35s0-1.08-.05-2.5C1108.14,193.14,1095.48,199.75,1080.72,199.75Z"/><path class="b5f2247f-a888-4d45-90bc-304f2981492c" d="M1058,175.62s6.3-11.07,17.68-9.38C1075.65,166.24,1064.89,167.78,1058,175.62Z"/><path class="27cb1d8b-d88f-4961-bf1d-165f202380c9" d="M1113.77,242s-13.68-1-32.13-9.91-33.2,19.37-33.2,19.37,14.76,28.23,33.2,19.32,32.13-10,32.13-10c0.31,0.31.46-9.35,0.46-9.35S1114.07,241.69,1113.77,242Z"/><rect class="9c427299-5aa1-4312-b2cf-59f88591e489" x="1113.41" y="237.72" width="8.61" height="27.46"/><path class="0d525f49-9738-495a-91f3-93e9098c0f22" d="M1116,239.77v23.36S1118,245.1,1116,239.77Z"/><path class="0d525f49-9738-495a-91f3-93e9098c0f22" d="M1080.72,265.59c-14.15,0-26.37-6.07-32.13-14.88-0.5.85-.76,1.35-0.76,1.35s14.76,28.23,33.2,19.32,32.13-10,32.13-10c0.31,0.31.46-9.35,0.46-9.35s0-1.08-.05-2.5C1108.14,259,1095.48,265.59,1080.72,265.59Z"/><path class="b5f2247f-a888-4d45-90bc-304f2981492c" d="M1058,241.46s6.3-11.07,17.68-9.38C1075.65,232.09,1064.89,233.62,1058,241.46Z"/><path class="27cb1d8b-d88f-4961-bf1d-165f202380c9" d="M1804.47,357s13.68-1,32.13-9.91,33.2,19.37,33.2,19.37-14.76,28.23-33.2,19.32-32.13-10-32.13-10c-0.31.31-.46-9.35-0.46-9.35S1804.16,356.69,1804.47,357Z"/><rect class="9c427299-5aa1-4312-b2cf-59f88591e489" x="1796.22" y="352.72" width="8.61" height="27.46" transform="translate(3601.05 732.9) rotate(-180)"/><path class="0d525f49-9738-495a-91f3-93e9098c0f22" d="M1802,354.77v23.36S1800,360.09,1802,354.77Z"/><path class="0d525f49-9738-495a-91f3-93e9098c0f22" d="M1837.52,380.59c14.15,0,26.37-6.07,32.13-14.88,0.5,0.85.76,1.35,0.76,1.35s-14.76,28.23-33.2,19.32-32.13-10-32.13-10c-0.31.31-.46-9.35-0.46-9.35s0-1.08.05-2.5C1810.09,374,1822.76,380.59,1837.52,380.59Z"/><path class="b5f2247f-a888-4d45-90bc-304f2981492c" d="M1860.26,356.46s-6.3-11.07-17.68-9.38C1842.59,347.08,1853.35,348.62,1860.26,356.46Z"/><path class="27cb1d8b-d88f-4961-bf1d-165f202380c9" d="M1804.47,422.84s13.68-1,32.13-9.91,33.2,19.37,33.2,19.37-14.76,28.23-33.2,19.32-32.13-10-32.13-10c-0.31.31-.46-9.35-0.46-9.35S1804.16,422.53,1804.47,422.84Z"/><rect class="9c427299-5aa1-4312-b2cf-59f88591e489" x="1796.22" y="418.56" width="8.61" height="27.46" transform="translate(3601.05 864.58) rotate(-180)"/><path class="0d525f49-9738-495a-91f3-93e9098c0f22" d="M1802,420.61V444S1800,425.94,1802,420.61Z"/><path class="0d525f49-9738-495a-91f3-93e9098c0f22" d="M1837.52,446.43c14.15,0,26.37-6.07,32.13-14.88,0.5,0.85.76,1.35,0.76,1.35s-14.76,28.23-33.2,19.32-32.13-10-32.13-10c-0.31.31-.46-9.35-0.46-9.35s0-1.08.05-2.5C1810.09,439.83,1822.76,446.43,1837.52,446.43Z"/><path class="b5f2247f-a888-4d45-90bc-304f2981492c" d="M1860.26,422.3s-6.3-11.07-17.68-9.38C1842.59,412.92,1853.35,414.46,1860.26,422.3Z"/><rect class="7c6f4da2-c59f-461a-8e8b-67b6899e1fbb" x="1290.18" y="537.2" width="16.69" height="44.51"/><rect class="7c6f4da2-c59f-461a-8e8b-67b6899e1fbb" x="1639.49" y="537.2" width="16.69" height="44.51"/><polygon class="32ce73d1-5904-4a00-b0aa-aae8c315aabd" points="932.2 616.43 1167.04 616.43 1189.21 582.16 1722.38 582.16 1739.51 611.39 1995.52 610.38 1938.07 708.14 1715.32 688.99 1191.23 693.02 978.57 708.14 932.2 616.43"/><polygon class="0bc8b61e-90dd-414e-97b3-9aaae3f357db" points="969.49 731.32 1189.21 714.19 1720.36 714.19 1955.2 729.31 1955.2 738.88 1718.35 720.74 1188.2 720.24 969.49 743.42 969.49 731.32"/><polygon class="32ce73d1-5904-4a00-b0aa-aae8c315aabd" points="969.49 922.82 1205.34 892.58 1709.28 892.58 1955.2 922.82 1955.2 738.88 1718.35 720.74 1188.2 720.24 969.49 743.42 969.49 922.82"/><polygon class="0bc8b61e-90dd-414e-97b3-9aaae3f357db" points="1205.34 892.58 1188.2 720.24 1209.83 719.17 1215 892.58 1205.34 892.58"/><polygon class="0bc8b61e-90dd-414e-97b3-9aaae3f357db" points="1718.35 720.74 1709.28 892.58 1697.33 893 1701.33 720.33 1718.35 720.74"/><polygon class="0bc8b61e-90dd-414e-97b3-9aaae3f357db" points="932.2 616.43 883.83 616.43 883.83 911.06 932.2 918.28 969.49 922.82 969.49 731.32 978.57 708.14 932.2 616.43"/><polygon class="0bc8b61e-90dd-414e-97b3-9aaae3f357db" points="1995.52 610.38 1938.07 708.14 1955.2 729.31 1955.2 922.82 1995.52 918.28 2044.14 912.05 2055.99 610.38 1995.52 610.38"/><polygon class="6bddc474-8ee4-4689-a828-7c49a1001bbb" points="1216.88 599.29 1214.47 610.38 1222.98 668.33 1664.43 668.33 1688.65 608.36 1685.56 599.29 1661.91 662.79 1227.33 662.79 1216.88 599.29"/><polygon class="e06e6677-bf79-4c91-a8bd-479ed6815c92" points="1582.07 615.59 1585.61 599.29 1550.52 599.29 1549.28 615.89 1582.07 615.59"/><polygon class="60011025-37cd-40ab-92dd-a3348e4e6ec6" points="1549.28 615.89 1547.23 643.18 1576.18 642.73 1582.07 615.59 1549.28 615.89"/><polygon class="7b2c0783-1c68-40d6-aa72-458056e04d46" points="1641.89 615.05 1645.18 599.29 1612.07 599.29 1610.91 615.33 1641.89 615.05"/><polygon class="b5f2247f-a888-4d45-90bc-304f2981492c" points="1608.96 642.22 1636.31 641.79 1641.89 615.05 1610.91 615.33 1608.96 642.22"/><polygon class="7b2c0783-1c68-40d6-aa72-458056e04d46" points="1582.07 615.59 1576.18 642.73 1608.96 642.22 1610.91 615.33 1582.07 615.59"/><polygon class="dbf8ce64-d750-4623-a524-957bff4ab454" points="1610.91 615.33 1612.07 599.29 1585.61 599.29 1582.07 615.59 1610.91 615.33"/><polygon class="7b2c0783-1c68-40d6-aa72-458056e04d46" points="1451.73 616.77 1453.77 599.29 1418.11 599.29 1418.12 617.07 1451.73 616.77"/><polygon class="b5f2247f-a888-4d45-90bc-304f2981492c" points="1549.28 615.89 1550.52 599.29 1518.94 599.29 1518.72 616.16 1549.28 615.89"/><polygon class="b5f2247f-a888-4d45-90bc-304f2981492c" points="1488.23 616.44 1491.29 599.29 1453.77 599.29 1451.73 616.77 1488.23 616.44"/><polygon class="7ea4e852-1d8c-4966-b74b-5dd2b415a329" points="1518.72 616.16 1518.94 599.29 1491.29 599.29 1488.23 616.44 1518.72 616.16"/><polygon class="7b2c0783-1c68-40d6-aa72-458056e04d46" points="1385.96 617.36 1387.92 645.66 1418.12 645.19 1418.12 617.07 1385.96 617.36"/><polygon class="e06e6677-bf79-4c91-a8bd-479ed6815c92" points="1280.24 618.31 1283.21 647.29 1316.93 646.76 1318.28 617.97 1280.24 618.31"/><polygon class="b5f2247f-a888-4d45-90bc-304f2981492c" points="1247.76 618.61 1250.16 647.8 1283.21 647.29 1280.24 618.31 1247.76 618.61"/><polygon class="4cc8a92d-fea8-4399-ba26-93046c62e3db" points="1679.82 614.71 1685.56 599.29 1645.18 599.29 1641.89 615.05 1679.82 614.71"/><polygon class="7ea4e852-1d8c-4966-b74b-5dd2b415a329" points="1318.28 617.97 1316.93 646.76 1353.36 646.2 1349.76 617.69 1318.28 617.97"/><polygon class="e06e6677-bf79-4c91-a8bd-479ed6815c92" points="1418.12 617.07 1418.11 599.29 1384.71 599.29 1385.96 617.36 1418.12 617.07"/><polygon class="7ea4e852-1d8c-4966-b74b-5dd2b415a329" points="1518.72 616.16 1518.38 643.63 1547.23 643.18 1549.28 615.89 1518.72 616.16"/><polygon class="e06e6677-bf79-4c91-a8bd-479ed6815c92" points="1451.73 616.77 1448.46 644.71 1483.26 644.17 1488.23 616.44 1451.73 616.77"/><polygon class="b5f2247f-a888-4d45-90bc-304f2981492c" points="1488.23 616.44 1483.26 644.17 1518.38 643.63 1518.72 616.16 1488.23 616.44"/><polygon class="7ea4e852-1d8c-4966-b74b-5dd2b415a329" points="1418.12 617.07 1418.12 645.19 1448.46 644.71 1451.73 616.77 1418.12 617.07"/><polygon class="4cc8a92d-fea8-4399-ba26-93046c62e3db" points="1349.76 617.69 1353.36 646.2 1387.92 645.66 1385.96 617.36 1349.76 617.69"/><polygon class="7ea4e852-1d8c-4966-b74b-5dd2b415a329" points="1483.26 644.17 1479.93 662.79 1518.13 662.79 1518.38 643.63 1483.26 644.17"/><polygon class="7b2c0783-1c68-40d6-aa72-458056e04d46" points="1518.38 643.63 1518.13 662.79 1545.76 662.79 1547.23 643.18 1518.38 643.63"/><polygon class="6bddc474-8ee4-4689-a828-7c49a1001bbb" points="1387.92 645.66 1389.1 662.79 1418.13 662.79 1418.12 645.19 1387.92 645.66"/><polygon class="b5f2247f-a888-4d45-90bc-304f2981492c" points="1418.12 645.19 1418.13 662.79 1446.35 662.79 1448.46 644.71 1418.12 645.19"/><polygon class="7b2c0783-1c68-40d6-aa72-458056e04d46" points="1448.46 644.71 1446.35 662.79 1479.93 662.79 1483.26 644.17 1448.46 644.71"/><polygon class="ca0666bc-fcf7-43c4-b072-0ead5beb6c70" points="1547.23 643.18 1545.76 662.79 1571.82 662.79 1576.18 642.73 1547.23 643.18"/><polygon class="7ea4e852-1d8c-4966-b74b-5dd2b415a329" points="1385.96 617.36 1384.71 599.29 1347.43 599.29 1349.76 617.69 1385.96 617.36"/><polygon class="7ea4e852-1d8c-4966-b74b-5dd2b415a329" points="1631.93 662.79 1661.91 662.79 1669.92 641.27 1636.31 641.79 1631.93 662.79"/><polygon class="7b2c0783-1c68-40d6-aa72-458056e04d46" points="1641.89 615.05 1636.31 641.79 1669.92 641.27 1679.82 614.71 1641.89 615.05"/><polygon class="e06e6677-bf79-4c91-a8bd-479ed6815c92" points="1608.96 642.22 1607.47 662.79 1631.93 662.79 1636.31 641.79 1608.96 642.22"/><polygon class="7ea4e852-1d8c-4966-b74b-5dd2b415a329" points="1576.18 642.73 1571.82 662.79 1607.47 662.79 1608.96 642.22 1576.18 642.73"/><polygon class="7b2c0783-1c68-40d6-aa72-458056e04d46" points="1247.76 618.61 1220.1 618.85 1224.93 648.2 1250.16 647.8 1247.76 618.61"/><polygon class="b5f2247f-a888-4d45-90bc-304f2981492c" points="1246.17 599.29 1216.88 599.29 1220.1 618.85 1247.76 618.61 1246.17 599.29"/><polygon class="7b2c0783-1c68-40d6-aa72-458056e04d46" points="1280.24 618.31 1278.29 599.29 1246.17 599.29 1247.76 618.61 1280.24 618.31"/><polygon class="6bddc474-8ee4-4689-a828-7c49a1001bbb" points="1318.28 617.97 1319.15 599.29 1278.29 599.29 1280.24 618.31 1318.28 617.97"/><polygon class="b5f2247f-a888-4d45-90bc-304f2981492c" points="1349.76 617.69 1347.43 599.29 1319.15 599.29 1318.28 617.97 1349.76 617.69"/><polygon class="e06e6677-bf79-4c91-a8bd-479ed6815c92" points="1353.36 646.2 1355.45 662.79 1389.1 662.79 1387.92 645.66 1353.36 646.2"/><polygon class="7ea4e852-1d8c-4966-b74b-5dd2b415a329" points="1224.93 648.2 1227.33 662.79 1251.39 662.79 1250.16 647.8 1224.93 648.2"/><polygon class="b5f2247f-a888-4d45-90bc-304f2981492c" points="1316.93 646.76 1316.17 662.79 1355.45 662.79 1353.36 646.2 1316.93 646.76"/><polygon class="7b2c0783-1c68-40d6-aa72-458056e04d46" points="1283.21 647.29 1284.8 662.79 1316.17 662.79 1316.93 646.76 1283.21 647.29"/><polygon class="ca0666bc-fcf7-43c4-b072-0ead5beb6c70" points="1250.16 647.8 1251.39 662.79 1284.8 662.79 1283.21 647.29 1250.16 647.8"/><polygon class="7ea4e852-1d8c-4966-b74b-5dd2b415a329" points="1750.1 622.3 1715.32 676.39 1831.16 685.47 1862.47 623.48 1750.1 622.3"/><path class="8371177d-e9ae-4aab-8b45-3e4c2237bd6b" d="M1815.21,640.1l2.58,14.11s-6.89,13.61-35.61,14.79-30.91-9.24-30.91-9.24l0.8-12.6Z"/><path class="13056b05-a86b-4570-b315-fe50c7c1b168" d="M1813.26,646.69c-2.92,4.46-8,7.7-13.74,9.87a60.45,60.45,0,0,1-23.49,3.63c-0.47,0-.95,0-1.38-0.08-8.65-.71-25.54-4.54-22.15-15.32,1.74-5.49,6.63-8.84,12.12-11a76,76,0,0,1,15.67-3.67,75.22,75.22,0,0,1,22.18.08C1811.17,631.61,1819.1,637.77,1813.26,646.69Z"/><polygon class="dbf8ce64-d750-4623-a524-957bff4ab454" points="969.49 635.82 997.21 690 1158.47 681.45 1135.79 633.81 969.49 635.82"/><path class="6bddc474-8ee4-4689-a828-7c49a1001bbb" d="M1851.39,631.92c-0.59,2-3.49,3.7-6.48,3.7s-4.94-1.65-4.35-3.7,3.49-3.7,6.48-3.7S1852,629.88,1851.39,631.92Z"/><path class="6bddc474-8ee4-4689-a828-7c49a1001bbb" d="M1829.91,675.72c-0.59,2-3.49,3.7-6.48,3.7s-4.94-1.65-4.35-3.7,3.49-3.7,6.48-3.7S1830.5,673.68,1829.91,675.72Z"/><path class="6bddc474-8ee4-4689-a828-7c49a1001bbb" d="M1737.53,669.78c-0.59,2-3.49,3.7-6.48,3.7s-4.94-1.66-4.35-3.7,3.49-3.7,6.48-3.7S1738.12,667.73,1737.53,669.78Z"/><path class="6bddc474-8ee4-4689-a828-7c49a1001bbb" d="M1761.38,630.13c-0.59,2-3.49,3.7-6.48,3.7s-4.94-1.65-4.35-3.7,3.49-3.7,6.48-3.7S1762,628.09,1761.38,630.13Z"/><polygon class="0bc8b61e-90dd-414e-97b3-9aaae3f357db" points="1938.07 708.14 1955.2 729.31 1720.36 714.19 1189.21 714.19 969.49 731.32 978.57 708.14 1191.23 693.02 1715.32 688.99 1938.07 708.14"/><polygon class="60011025-37cd-40ab-92dd-a3348e4e6ec6" points="1874.57 623.48 1845.97 685.47 1928.46 694.03 1966.79 623.48 1874.57 623.48"/><path class="dbf8ce64-d750-4623-a524-957bff4ab454" d="M1868.67,656.49c-0.08.32-.2,0.64-0.27,1a18.7,18.7,0,0,0-.37,3.72l63.07,4.71a24.9,24.9,0,0,0,3.28-6.12Z"/><path class="dbf8ce64-d750-4623-a524-957bff4ab454" d="M1868.25,664.17a17.1,17.1,0,0,0,1.65,5.06l52.2,5.18a37,37,0,0,0,6.74-5.72Z"/><path class="dbf8ce64-d750-4623-a524-957bff4ab454" d="M1872,672.41c4.83,6,13.64,9.81,24.52,9.74a47.66,47.66,0,0,0,21.2-5.2Z"/><path class="dbf8ce64-d750-4623-a524-957bff4ab454" d="M1869.66,653.57l65.53,3.27a18.08,18.08,0,0,0,.16-6.23L1872.16,649A25.18,25.18,0,0,0,1869.66,653.57Z"/><path class="dbf8ce64-d750-4623-a524-957bff4ab454" d="M1928,638.62c-5.08-3.94-12.37-6.33-21-6.28a47.52,47.52,0,0,0-23.2,6.28H1928Z"/><path class="dbf8ce64-d750-4623-a524-957bff4ab454" d="M1879.34,641.58a35.35,35.35,0,0,0-4.9,4.55l60.22,1.51a18.19,18.19,0,0,0-3.51-6.06h-51.81Z"/><polygon class="1f8e768d-4f78-463b-93ae-cc1d6cb9c117" points="1221 728.5 1694 729.5 1686.5 889.5 1230.67 889 1221 728.5"/><polygon class="2fba29e3-07ed-47b0-90fa-2ee6fc74f758" points="1208.49 582.16 1707.26 582.16 1707.26 579.3 1208.38 581.06 1208.49 582.16"/><rect class="1f8e768d-4f78-463b-93ae-cc1d6cb9c117" x="1119.79" y="156.61" width="680.2" height="381.13"/><polygon class="dbf8ce64-d750-4623-a524-957bff4ab454" points="1756.17 516.88 1163.61 516.88 1152 193.14 1761.29 195.92 1756.17 516.88"/><polygon class="0d525f49-9738-495a-91f3-93e9098c0f22" points="1152.39 193.14 1164 516.88 1164 194.07 1152.39 193.14"/><polygon class="0d525f49-9738-495a-91f3-93e9098c0f22" points="1756.17 516.96 1761.29 196 1749.23 196 1756.17 516.96"/><polygon class="f48cee14-52b0-4eab-9280-440a2d9fbd47" points="1720.11 195.73 1560.05 516.79 1700.66 195.69 1720.11 195.73"/><polygon class="f48cee14-52b0-4eab-9280-440a2d9fbd47" points="1581.38 517 1643.51 395.2 1597.45 517 1581.38 517"/><polygon class="f48cee14-52b0-4eab-9280-440a2d9fbd47" points="1454.48 194.38 1309.81 516.95 1397.76 517.1 1524.03 194.99 1454.48 194.38"/><polygon class="0bc8b61e-90dd-414e-97b3-9aaae3f357db" points="1119.77 537.86 1131.6 543 1786.33 543 1800.06 537.78 1119.77 537.86"/><polygon class="0d525f49-9738-495a-91f3-93e9098c0f22" points="1639.31 542.94 1656 542.88 1656 579.56 1639.31 542.94"/><polygon class="0d525f49-9738-495a-91f3-93e9098c0f22" points="1306.87 543 1290 543 1290 581.71 1306.87 543"/><rect class="7ea4e852-1d8c-4966-b74b-5dd2b415a329" x="355.7" y="126.3" width="145.33" height="178.14"/><rect class="dbf8ce64-d750-4623-a524-957bff4ab454" x="368.41" y="139.78" width="119.81" height="148.98"/><circle class="dbf8ce64-d750-4623-a524-957bff4ab454" cx="362.68" cy="133" r="3.65"/><circle class="dbf8ce64-d750-4623-a524-957bff4ab454" cx="491.61" cy="133" r="3.65"/><circle class="dbf8ce64-d750-4623-a524-957bff4ab454" cx="362.68" cy="295.53" r="3.65"/><circle class="dbf8ce64-d750-4623-a524-957bff4ab454" cx="491.61" cy="295.53" r="3.65"/><path class="7c6f4da2-c59f-461a-8e8b-67b6899e1fbb" d="M368,144.33l120.54,0.15L491.35,157H368V144.33Z"/><path class="7c6f4da2-c59f-461a-8e8b-67b6899e1fbb" d="M368,160l120.54,0.33L491.35,173H368V160Z"/><path class="7c6f4da2-c59f-461a-8e8b-67b6899e1fbb" d="M368,175.59l120.54,0L491.35,188H368V175.59Z"/><path class="7c6f4da2-c59f-461a-8e8b-67b6899e1fbb" d="M368,191.22l120.54,0.21L491.35,204H368V191.22Z"/><path class="7c6f4da2-c59f-461a-8e8b-67b6899e1fbb" d="M368,206.84l120.54-.11L491.35,219H368V206.84Z"/><path class="7c6f4da2-c59f-461a-8e8b-67b6899e1fbb" d="M368,222.47l120.54,0.08L491.35,235H368V222.47Z"/><path class="7c6f4da2-c59f-461a-8e8b-67b6899e1fbb" d="M368,238.1l120.54,0.26L491.35,251H368V238.1Z"/><path class="7c6f4da2-c59f-461a-8e8b-67b6899e1fbb" d="M368,253.73l120.54,0L491.35,266H368V253.73Z"/><path class="7c6f4da2-c59f-461a-8e8b-67b6899e1fbb" d="M368,269.35l120.54,0.14L491.35,282H368V269.35Z"/><rect class="7ea4e852-1d8c-4966-b74b-5dd2b415a329" x="1979.7" y="126.3" width="145.33" height="178.14"/><rect class="dbf8ce64-d750-4623-a524-957bff4ab454" x="1992.41" y="139.78" width="119.81" height="148.98"/><circle class="dbf8ce64-d750-4623-a524-957bff4ab454" cx="1986.68" cy="133" r="3.65"/><circle class="dbf8ce64-d750-4623-a524-957bff4ab454" cx="2115.61" cy="133" r="3.65"/><circle class="dbf8ce64-d750-4623-a524-957bff4ab454" cx="1986.68" cy="295.53" r="3.65"/><circle class="dbf8ce64-d750-4623-a524-957bff4ab454" cx="2115.61" cy="295.53" r="3.65"/><path class="7c6f4da2-c59f-461a-8e8b-67b6899e1fbb" d="M1992,144.33l120.54,0.15,2.81,12.52H1992V144.33Z"/><path class="7c6f4da2-c59f-461a-8e8b-67b6899e1fbb" d="M1992,160l120.54,0.33,2.81,12.71H1992V160Z"/><path class="7c6f4da2-c59f-461a-8e8b-67b6899e1fbb" d="M1992,175.59l120.54,0,2.81,12.39H1992V175.59Z"/><path class="7c6f4da2-c59f-461a-8e8b-67b6899e1fbb" d="M1992,191.22l120.54,0.21,2.81,12.58H1992V191.22Z"/><path class="7c6f4da2-c59f-461a-8e8b-67b6899e1fbb" d="M1992,206.84l120.54-.11,2.81,12.26H1992V206.84Z"/><path class="7c6f4da2-c59f-461a-8e8b-67b6899e1fbb" d="M1992,222.47l120.54,0.08,2.81,12.45H1992V222.47Z"/><path class="7c6f4da2-c59f-461a-8e8b-67b6899e1fbb" d="M1992,238.1l120.54,0.26,2.81,12.64H1992V238.1Z"/><path class="7c6f4da2-c59f-461a-8e8b-67b6899e1fbb" d="M1992,253.73l120.54,0,2.81,12.32H1992V253.73Z"/><path class="7c6f4da2-c59f-461a-8e8b-67b6899e1fbb" d="M1992,269.35l120.54,0.14,2.81,12.51H1992V269.35Z"/><rect class="9cbdc692-7d54-4991-991b-b90d14429d55" x="298.84" y="666.35" width="410.08" height="212.09"/><polygon class="2766f40c-10ec-40e1-ba36-631f33735f2c" points="708.91 666 297.79 761.5 298.84 666 708.91 666"/><rect class="c22e24ab-ae1d-4aaa-85dd-c40ddb33cb6a" x="280.98" y="641.17" width="449.92" height="28.78"/><rect class="014baf8e-1b38-4a53-90aa-f056c01ef6ee" x="390.92" y="620.35" width="102.1" height="20.78"/><rect class="b5f2247f-a888-4d45-90bc-304f2981492c" x="495.65" y="638.74" width="80.08" height="2.4"/><rect class="b5f2247f-a888-4d45-90bc-304f2981492c" x="498.24" y="636.14" width="80.08" height="2.4"/><rect class="b5f2247f-a888-4d45-90bc-304f2981492c" x="494.85" y="633.54" width="80.08" height="2.4"/><rect class="b5f2247f-a888-4d45-90bc-304f2981492c" x="508.04" y="631.14" width="80.08" height="2.4"/><rect class="b5f2247f-a888-4d45-90bc-304f2981492c" x="502.04" y="628.35" width="80.08" height="2.4"/><rect class="b5f2247f-a888-4d45-90bc-304f2981492c" x="512.63" y="625.55" width="80.08" height="2.4"/><polygon class="d9668eca-2258-4627-adc1-0dcb3b8c0564" points="390.92 620 442.88 631.99 493.02 620 390.92 620"/><polygon class="d9668eca-2258-4627-adc1-0dcb3b8c0564" points="493.25 641 391.32 641 442.88 632.61 493.25 641"/><path class="b2810367-76aa-4d29-bb70-ac47c9a399ca" d="M442.38,555.84l3-17.24,4.47,0.77,0.55-1.91-20.06-3.55,0,2.09,4.3,0.74-3,17.68A27.33,27.33,0,1,0,442.38,555.84Z"/><path class="b5f2247f-a888-4d45-90bc-304f2981492c" d="M455.89,585.47A22.57,22.57,0,0,1,411,581.15s1.58-3.14,10.14,1,10.45,9.23,21.92,5.95c0,0,1.49-2.23,5-.8Z"/><circle class="b5f2247f-a888-4d45-90bc-304f2981492c" cx="428.23" cy="574.58" r="2.37" transform="translate(-184.71 945.84) rotate(-84.51)"/><circle class="b5f2247f-a888-4d45-90bc-304f2981492c" cx="421.72" cy="576.57" r="1.41" transform="translate(-192.57 941.16) rotate(-84.51)"/><rect class="dbf8ce64-d750-4623-a524-957bff4ab454" x="399.87" y="591.97" width="66.2" height="2"/><polygon class="dbf8ce64-d750-4623-a524-957bff4ab454" points="411.86 593.97 408.86 620.05 437.19 593.37 411.71 614.81 413.81 593.67 411.86 593.97"/><polygon class="dbf8ce64-d750-4623-a524-957bff4ab454" points="456.98 593.97 459.97 620.05 431.64 593.37 457.12 614.81 455.03 593.67 456.98 593.97"/><polygon class="dbf8ce64-d750-4623-a524-957bff4ab454" points="391.83 895.07 384.73 894.95 409.93 732.33 417.03 733.43 391.83 895.07"/><polygon class="dbf8ce64-d750-4623-a524-957bff4ab454" points="472.78 895.25 480.46 895.15 454.66 732.33 447.55 733.43 472.78 895.25"/><rect class="dbf8ce64-d750-4623-a524-957bff4ab454" x="398.22" y="734.57" width="68.05" height="8.21"/><path class="1d8e048d-7dd3-4bce-9a12-714a618e5eef" d="M379.78,717.68H484.14a3.65,3.65,0,0,1,3.65,3.65v5.51a10,10,0,0,1-10,10H386.88a10.75,10.75,0,0,1-10.75-10.75v-4.78a3.65,3.65,0,0,1,3.65-3.65Z"/><rect class="dbf8ce64-d750-4623-a524-957bff4ab454" x="405.86" y="779.74" width="55.67" height="4.8"/><polygon class="0d525f49-9738-495a-91f3-93e9098c0f22" points="883.83 911.06 708.91 878.44 707 857 885 857 883.83 911.06"/><polygon class="0d525f49-9738-495a-91f3-93e9098c0f22" points="2044.36 912.2 2170 858 2046 858 2044.36 912.2"/><polygon class="59a149f0-8a7c-421e-9267-acb9e7080446" points="978 640.67 1054.67 639 1074 681 1001.67 685.33 978 640.67"/><polygon class="0d525f49-9738-495a-91f3-93e9098c0f22" points="1135.79 633.81 1158.47 681.45 1130.17 633.83 1135.79 633.81"/><polygon class="0d525f49-9738-495a-91f3-93e9098c0f22" points="1167.04 616.43 1209.33 693 1189.21 582.16 1167.04 616.43"/><polygon class="0d525f49-9738-495a-91f3-93e9098c0f22" points="1722.38 582.16 1685 688 1739.51 611.39 1722.38 582.16"/><path class="1fd03a0f-d92e-4808-a160-071ce67bbfd3" d="M1783,632.5s-25.5.5-26.5,13.5C1756.5,646,1768,636,1783,632.5Z"/><rect class="0d525f49-9738-495a-91f3-93e9098c0f22" x="1290.17" y="556.92" width="16.75" height="0.75"/><rect class="0d525f49-9738-495a-91f3-93e9098c0f22" x="1290.17" y="547.75" width="16.75" height="0.75"/><rect class="0d525f49-9738-495a-91f3-93e9098c0f22" x="1290.17" y="565.92" width="16.75" height="0.75"/><rect class="0d525f49-9738-495a-91f3-93e9098c0f22" x="1290.17" y="574.92" width="16.75" height="0.75"/><rect class="0d525f49-9738-495a-91f3-93e9098c0f22" x="1639.5" y="556.92" width="16.75" height="0.75"/><rect class="0d525f49-9738-495a-91f3-93e9098c0f22" x="1639.5" y="547.75" width="16.75" height="0.75"/><rect class="0d525f49-9738-495a-91f3-93e9098c0f22" x="1639.5" y="565.92" width="16.75" height="0.75"/><rect class="0d525f49-9738-495a-91f3-93e9098c0f22" x="1639.5" y="574.92" width="16.75" height="0.75"/><polygon class="bf860f88-abac-4a5f-a66f-803b5e193e46" points="1063 640 1132 638.25 1134.25 642.25 1064.75 644.5 1063 640"/><polygon class="bf860f88-abac-4a5f-a66f-803b5e193e46" points="1067 647 1136 645.25 1138.25 649.25 1068.75 651.5 1067 647"/><polygon class="bf860f88-abac-4a5f-a66f-803b5e193e46" points="1070 655 1139 653.25 1141.25 657.25 1071.75 659.5 1070 655"/><polygon class="0d525f49-9738-495a-91f3-93e9098c0f22" points="1152.23 193.31 1761.2 196.25 1751 206 1164 206 1152.23 193.31"/><polygon class="686804ea-2f96-464a-ba07-8e293217c942" points="1728.33 733.67 1840.33 743 1831 896.33 1719.67 882.33 1728.33 733.67"/><polygon class="686804ea-2f96-464a-ba07-8e293217c942" points="1829.33 742.69 1941.33 752.36 1932 911.31 1820.67 896.8 1829.33 742.69"/><polygon class="686804ea-2f96-464a-ba07-8e293217c942" points="1180.08 739.67 1073.11 748.58 1082.02 895.03 1188.36 881.66 1180.08 739.67"/><polygon class="686804ea-2f96-464a-ba07-8e293217c942" points="1083.61 748.28 976.64 757.52 985.56 909.34 1091.89 895.48 1083.61 748.28"/><polygon class="0d525f49-9738-495a-91f3-93e9098c0f22" points="1230.67 889 1221 728.5 1241.67 728.33 1227 733.67 1230.67 889"/><polygon class="0d525f49-9738-495a-91f3-93e9098c0f22" points="384.73 894.95 298.84 878.44 387.67 878.33 384.73 894.95"/></g></g></svg>