<svg xmlns="http://www.w3.org/2000/svg" viewBox="0 0 2420 1080"><defs><style>.\32 b04d2b7-d18e-4db5-94ba-2573c61a837a{isolation:isolate;}.c2c70948-918a-4e6b-adab-284d860f5ad9{fill:#203e43;}.\37 b4a5448-8972-4e94-a904-1a7b6f723ff5{fill:#fcee21;opacity:0.39;}.\38 843e5ec-33fa-4cc7-b75e-380ba5415838{fill:#1c383b;}.\34 093e5cd-6de8-446d-9302-c66250032be0,.c73e338e-c66e-48d2-a276-f306f7cdacf9{fill:#333;}.\34 093e5cd-6de8-446d-9302-c66250032be0{opacity:0.3;mix-blend-mode:multiply;}.\32 a8bd8bf-64c4-4abe-a5cb-57fd51f01283,.\36 bd3d40c-5f57-4817-92d5-96d6ecd5fd9c,.b2d143af-c1a3-4b4e-8993-b655d0357e50,.ef5bef38-441f-46ca-a0fc-139344abb6ba{fill:#fff;}.be6b9d23-5865-4f32-9be0-56ff60c35567{fill:#b3b3b3;}.\39 92a9d90-143d-40fe-a9c5-bae8d6824670{fill:#b8f9c6;}.\31 4aa69ba-d5c6-4cbf-ad6c-9f5d330de642{fill:#386f76;}.b4d392b8-ee30-47c0-9272-12355a38b3ae{fill:#4d4d4d;}.\36 1465d90-9b45-4028-a761-5e43a7f527f6{fill:#e6e6e6;}.eae2bcbd-74b7-43b6-a661-264246300cf0{fill:#666;}.\31 b96f797-c83f-4f23-8042-c1e248c1d545{fill:#3fa9f5;}.\38 7a2bce1-7931-4fa5-bbfc-4a12c2e206d2{fill:#999;}.\35 8d07588-ecef-4f04-83e0-aa80bb1041d3{fill:#ff931e;}.\37 1a524ae-6fd4-4f6d-859c-01d0a5e84efd{fill:#fbb03b;}.\36 f578a1c-ecb6-49bb-9ceb-dae71a19aae3{fill:#c50d30;}.\35 5691ac5-caef-4972-838c-24ef08ada598{fill:#ed1c24;}.c1d40e50-6598-4b60-8268-715d3ea06ab0{fill:#6eac7c;}.\39 5d414d1-1573-456c-b2f2-bd603b71c101{fill:#338189;}.\32 a8bd8bf-64c4-4abe-a5cb-57fd51f01283{opacity:0.25;}.\36 b5f9d75-0fa1-4e8f-a4e2-f6c0484655de,.\39 4756736-3e4d-481e-b877-42456f5f86e5{fill:none;stroke-miterlimit:10;}.\36 b5f9d75-0fa1-4e8f-a4e2-f6c0484655de{stroke:#ccc;}.b2d143af-c1a3-4b4e-8993-b655d0357e50{opacity:0.49;}.\36 bd3d40c-5f57-4817-92d5-96d6ecd5fd9c{opacity:0.27;}.\39 4756736-3e4d-481e-b877-42456f5f86e5{stroke:#6eac7c;}</style></defs><title>Pantalla02_Larga</title><g class="2b04d2b7-d18e-4db5-94ba-2573c61a837a"><g id="24528f18-5467-4902-a269-6507b4502b70" data-name="Layer 1 copy 2"><rect class="c2c70948-918a-4e6b-adab-284d860f5ad9" y="857.85" width="2420" height="222.15"/><path class="7b4a5448-8972-4e94-a904-1a7b6f723ff5" d="M834.43,104s-15.28-1.12-35.88-11.07-37.08,21.63-37.08,21.63S778,146.05,798.55,136.1,834.43,125,834.43,125c0.34,0.34.51-10.44,0.51-10.44S834.77,103.62,834.43,104Z"/><rect class="8843e5ec-33fa-4cc7-b75e-380ba5415838" x="834.03" y="99.19" width="9.61" height="30.67"/><path class="4093e5cd-6de8-446d-9302-c66250032be0" d="M837,101.48v26.09S839,107.43,837,101.48Z"/><path class="4093e5cd-6de8-446d-9302-c66250032be0" d="M797.52,130.32c-15.8,0-29.45-6.78-35.89-16.61-0.55.94-.85,1.51-0.85,1.51s16.48,31.53,37.08,21.57,35.88-11.13,35.88-11.13c0.34,0.34.51-10.44,0.51-10.44s0-1.2-.06-2.79C828.15,122.94,814,130.32,797.52,130.32Z"/><path class="ef5bef38-441f-46ca-a0fc-139344abb6ba" d="M772.12,103.37s7-12.36,19.74-10.47C791.86,92.9,779.84,94.61,772.12,103.37Z"/><path class="7b4a5448-8972-4e94-a904-1a7b6f723ff5" d="M834.43,177.5s-15.28-1.12-35.88-11.07-37.08,21.63-37.08,21.63,16.48,31.53,37.08,21.57,35.88-11.13,35.88-11.13c0.34,0.34.51-10.44,0.51-10.44S834.77,177.16,834.43,177.5Z"/><rect class="8843e5ec-33fa-4cc7-b75e-380ba5415838" x="834.03" y="172.72" width="9.61" height="30.67"/><path class="4093e5cd-6de8-446d-9302-c66250032be0" d="M837,175V201.1S839,181,837,175Z"/><path class="4093e5cd-6de8-446d-9302-c66250032be0" d="M797.52,203.85c-15.8,0-29.45-6.78-35.89-16.61-0.55.94-.85,1.51-0.85,1.51s16.48,31.53,37.08,21.57,35.88-11.13,35.88-11.13c0.34,0.34.51-10.44,0.51-10.44s0-1.2-.06-2.79C828.15,196.47,814,203.85,797.52,203.85Z"/><path class="ef5bef38-441f-46ca-a0fc-139344abb6ba" d="M772.12,176.9s7-12.36,19.74-10.47C791.86,166.43,779.84,168.14,772.12,176.9Z"/><path class="7b4a5448-8972-4e94-a904-1a7b6f723ff5" d="M1605.78,305.92s15.28-1.12,35.88-11.07,37.08,21.63,37.08,21.63-16.48,31.53-37.08,21.57-35.88-11.13-35.88-11.13c-0.34.34-.51-10.44-0.51-10.44S1605.44,305.58,1605.78,305.92Z"/><rect class="8843e5ec-33fa-4cc7-b75e-380ba5415838" x="1596.57" y="301.15" width="9.61" height="30.67" transform="translate(3202.76 632.96) rotate(-180)"/><path class="4093e5cd-6de8-446d-9302-c66250032be0" d="M1603,303.43v26.09S1601,309.39,1603,303.43Z"/><path class="4093e5cd-6de8-446d-9302-c66250032be0" d="M1642.69,332.27c15.8,0,29.45-6.78,35.89-16.61,0.55,0.94.85,1.51,0.85,1.51s-16.48,31.53-37.08,21.57-35.88-11.13-35.88-11.13c-0.34.34-.51-10.44-0.51-10.44s0-1.2.06-2.79C1612.07,324.89,1626.21,332.27,1642.69,332.27Z"/><path class="ef5bef38-441f-46ca-a0fc-139344abb6ba" d="M1668.1,305.32s-7-12.36-19.74-10.47C1648.36,294.85,1660.37,296.57,1668.1,305.32Z"/><path class="7b4a5448-8972-4e94-a904-1a7b6f723ff5" d="M1605.78,379.46s15.28-1.12,35.88-11.07S1678.74,390,1678.74,390s-16.48,31.53-37.08,21.57-35.88-11.13-35.88-11.13c-0.34.34-.51-10.44-0.51-10.44S1605.44,379.11,1605.78,379.46Z"/><rect class="8843e5ec-33fa-4cc7-b75e-380ba5415838" x="1596.57" y="374.68" width="9.61" height="30.67" transform="translate(3202.76 780.03) rotate(-180)"/><path class="4093e5cd-6de8-446d-9302-c66250032be0" d="M1603,377v26.09S1601,382.92,1603,377Z"/><path class="4093e5cd-6de8-446d-9302-c66250032be0" d="M1642.69,405.81c15.8,0,29.45-6.78,35.89-16.61,0.55,0.94.85,1.51,0.85,1.51s-16.48,31.53-37.08,21.57-35.88-11.13-35.88-11.13c-0.34.34-.51-10.44-0.51-10.44s0-1.2.06-2.79C1612.07,398.43,1626.21,405.81,1642.69,405.81Z"/><path class="ef5bef38-441f-46ca-a0fc-139344abb6ba" d="M1668.1,378.85s-7-12.36-19.74-10.47C1648.36,368.38,1660.37,370.1,1668.1,378.85Z"/><rect class="be6b9d23-5865-4f32-9be0-56ff60c35567" x="1031.44" y="507.17" width="18.64" height="49.71"/><rect class="be6b9d23-5865-4f32-9be0-56ff60c35567" x="1421.54" y="507.17" width="18.64" height="49.71"/><polygon class="992a9d90-143d-40fe-a9c5-bae8d6824670" points="631.66 595.65 893.92 595.65 918.68 557.38 1514.11 557.38 1533.25 590.02 1819.14 588.89 1754.98 698.08 1506.23 676.69 920.94 681.19 683.44 698.08 631.66 595.65"/><polygon class="14aa69ba-d5c6-4cbf-ad6c-9f5d330de642" points="673.31 723.96 918.68 704.83 1511.86 704.83 1774.12 721.71 1774.12 732.4 1509.61 712.14 917.56 711.58 673.31 737.47 673.31 723.96"/><polygon class="992a9d90-143d-40fe-a9c5-bae8d6824670" points="673.31 937.82 936.69 904.05 1499.48 904.05 1774.12 937.82 1774.12 732.4 1509.61 712.14 917.56 711.58 673.31 737.47 673.31 937.82"/><polygon class="14aa69ba-d5c6-4cbf-ad6c-9f5d330de642" points="936.69 904.05 917.56 711.58 941.72 710.39 947.49 904.05 936.69 904.05"/><polygon class="14aa69ba-d5c6-4cbf-ad6c-9f5d330de642" points="1509.61 712.14 1499.48 904.05 1486.14 904.52 1490.61 711.69 1509.61 712.14"/><polygon class="14aa69ba-d5c6-4cbf-ad6c-9f5d330de642" points="631.66 595.65 577.64 595.65 577.64 924.69 631.66 932.76 673.31 937.82 673.31 723.96 683.44 698.08 631.66 595.65"/><polygon class="14aa69ba-d5c6-4cbf-ad6c-9f5d330de642" points="1819.14 588.89 1754.98 698.08 1774.12 721.71 1774.12 937.82 1819.14 932.76 1873.44 925.8 1886.67 588.89 1819.14 588.89"/><polygon class="b4d392b8-ee30-47c0-9272-12355a38b3ae" points="949.58 576.51 946.89 588.89 956.39 653.62 1449.39 653.62 1476.44 586.64 1472.99 576.51 1446.58 647.42 961.26 647.42 949.58 576.51"/><polygon class="61465d90-9b45-4028-a761-5e43a7f527f6" points="1357.42 594.72 1361.37 576.51 1322.19 576.51 1320.8 595.05 1357.42 594.72"/><polygon class="eae2bcbd-74b7-43b6-a661-264246300cf0" points="1320.8 595.05 1318.51 625.52 1350.84 625.02 1357.42 594.72 1320.8 595.05"/><polygon class="1b96f797-c83f-4f23-8042-c1e248c1d545" points="1424.23 594.11 1427.9 576.51 1390.92 576.51 1389.62 594.43 1424.23 594.11"/><polygon class="ef5bef38-441f-46ca-a0fc-139344abb6ba" points="1387.45 624.45 1417.99 623.97 1424.23 594.11 1389.62 594.43 1387.45 624.45"/><polygon class="1b96f797-c83f-4f23-8042-c1e248c1d545" points="1357.42 594.72 1350.84 625.02 1387.45 624.45 1389.62 594.43 1357.42 594.72"/><polygon class="c73e338e-c66e-48d2-a276-f306f7cdacf9" points="1389.62 594.43 1390.92 576.51 1361.37 576.51 1357.42 594.72 1389.62 594.43"/><polygon class="1b96f797-c83f-4f23-8042-c1e248c1d545" points="1211.85 596.03 1214.13 576.51 1174.32 576.51 1174.32 596.37 1211.85 596.03"/><polygon class="ef5bef38-441f-46ca-a0fc-139344abb6ba" points="1320.8 595.05 1322.19 576.51 1286.91 576.51 1286.67 595.35 1320.8 595.05"/><polygon class="ef5bef38-441f-46ca-a0fc-139344abb6ba" points="1252.62 595.66 1256.04 576.51 1214.13 576.51 1211.85 596.03 1252.62 595.66"/><polygon class="87a2bce1-7931-4fa5-bbfc-4a12c2e206d2" points="1286.67 595.35 1286.91 576.51 1256.04 576.51 1252.62 595.66 1286.67 595.35"/><polygon class="1b96f797-c83f-4f23-8042-c1e248c1d545" points="1138.41 596.69 1140.59 628.29 1174.33 627.77 1174.32 596.37 1138.41 596.69"/><polygon class="61465d90-9b45-4028-a761-5e43a7f527f6" points="1020.34 597.75 1023.66 630.11 1061.31 629.53 1062.82 597.37 1020.34 597.75"/><polygon class="ef5bef38-441f-46ca-a0fc-139344abb6ba" points="984.07 598.08 986.75 630.69 1023.66 630.11 1020.34 597.75 984.07 598.08"/><polygon class="58d07588-ecef-4f04-83e0-aa80bb1041d3" points="1466.58 593.73 1472.99 576.51 1427.9 576.51 1424.23 594.11 1466.58 593.73"/><polygon class="87a2bce1-7931-4fa5-bbfc-4a12c2e206d2" points="1062.82 597.37 1061.31 629.53 1101.99 628.89 1097.97 597.05 1062.82 597.37"/><polygon class="61465d90-9b45-4028-a761-5e43a7f527f6" points="1174.32 596.37 1174.32 576.51 1137.02 576.51 1138.41 596.69 1174.32 596.37"/><polygon class="87a2bce1-7931-4fa5-bbfc-4a12c2e206d2" points="1286.67 595.35 1286.29 626.02 1318.51 625.52 1320.8 595.05 1286.67 595.35"/><polygon class="61465d90-9b45-4028-a761-5e43a7f527f6" points="1211.85 596.03 1208.21 627.24 1247.07 626.63 1252.62 595.66 1211.85 596.03"/><polygon class="ef5bef38-441f-46ca-a0fc-139344abb6ba" points="1252.62 595.66 1247.07 626.63 1286.29 626.02 1286.67 595.35 1252.62 595.66"/><polygon class="87a2bce1-7931-4fa5-bbfc-4a12c2e206d2" points="1174.32 596.37 1174.33 627.77 1208.21 627.24 1211.85 596.03 1174.32 596.37"/><polygon class="58d07588-ecef-4f04-83e0-aa80bb1041d3" points="1097.97 597.05 1101.99 628.89 1140.59 628.29 1138.41 596.69 1097.97 597.05"/><polygon class="87a2bce1-7931-4fa5-bbfc-4a12c2e206d2" points="1247.07 626.63 1243.35 647.42 1286.02 647.42 1286.29 626.02 1247.07 626.63"/><polygon class="1b96f797-c83f-4f23-8042-c1e248c1d545" points="1286.29 626.02 1286.02 647.42 1316.87 647.42 1318.51 625.52 1286.29 626.02"/><polygon class="b4d392b8-ee30-47c0-9272-12355a38b3ae" points="1140.59 628.29 1141.91 647.42 1174.33 647.42 1174.33 627.77 1140.59 628.29"/><polygon class="ef5bef38-441f-46ca-a0fc-139344abb6ba" points="1174.33 627.77 1174.33 647.42 1205.85 647.42 1208.21 627.24 1174.33 627.77"/><polygon class="1b96f797-c83f-4f23-8042-c1e248c1d545" points="1208.21 627.24 1205.85 647.42 1243.35 647.42 1247.07 626.63 1208.21 627.24"/><polygon class="71a524ae-6fd4-4f6d-859c-01d0a5e84efd" points="1318.51 625.52 1316.87 647.42 1345.97 647.42 1350.84 625.02 1318.51 625.52"/><polygon class="87a2bce1-7931-4fa5-bbfc-4a12c2e206d2" points="1138.41 596.69 1137.02 576.51 1095.38 576.51 1097.97 597.05 1138.41 596.69"/><polygon class="87a2bce1-7931-4fa5-bbfc-4a12c2e206d2" points="1413.1 647.42 1446.58 647.42 1455.53 623.39 1417.99 623.97 1413.1 647.42"/><polygon class="1b96f797-c83f-4f23-8042-c1e248c1d545" points="1424.23 594.11 1417.99 623.97 1455.53 623.39 1466.58 593.73 1424.23 594.11"/><polygon class="61465d90-9b45-4028-a761-5e43a7f527f6" points="1387.45 624.45 1385.79 647.42 1413.1 647.42 1417.99 623.97 1387.45 624.45"/><polygon class="87a2bce1-7931-4fa5-bbfc-4a12c2e206d2" points="1350.84 625.02 1345.97 647.42 1385.79 647.42 1387.45 624.45 1350.84 625.02"/><polygon class="1b96f797-c83f-4f23-8042-c1e248c1d545" points="984.07 598.08 953.18 598.36 958.57 631.13 986.75 630.69 984.07 598.08"/><polygon class="ef5bef38-441f-46ca-a0fc-139344abb6ba" points="982.3 576.51 949.58 576.51 953.18 598.36 984.07 598.08 982.3 576.51"/><polygon class="1b96f797-c83f-4f23-8042-c1e248c1d545" points="1020.34 597.75 1018.17 576.51 982.3 576.51 984.07 598.08 1020.34 597.75"/><polygon class="b4d392b8-ee30-47c0-9272-12355a38b3ae" points="1062.82 597.37 1063.8 576.51 1018.17 576.51 1020.34 597.75 1062.82 597.37"/><polygon class="ef5bef38-441f-46ca-a0fc-139344abb6ba" points="1097.97 597.05 1095.38 576.51 1063.8 576.51 1062.82 597.37 1097.97 597.05"/><polygon class="61465d90-9b45-4028-a761-5e43a7f527f6" points="1101.99 628.89 1104.34 647.42 1141.91 647.42 1140.59 628.29 1101.99 628.89"/><polygon class="87a2bce1-7931-4fa5-bbfc-4a12c2e206d2" points="958.57 631.13 961.26 647.42 988.12 647.42 986.75 630.69 958.57 631.13"/><polygon class="ef5bef38-441f-46ca-a0fc-139344abb6ba" points="1061.31 629.53 1060.47 647.42 1104.34 647.42 1101.99 628.89 1061.31 629.53"/><polygon class="1b96f797-c83f-4f23-8042-c1e248c1d545" points="1023.66 630.11 1025.43 647.42 1060.47 647.42 1061.31 629.53 1023.66 630.11"/><polygon class="71a524ae-6fd4-4f6d-859c-01d0a5e84efd" points="986.75 630.69 988.12 647.42 1025.43 647.42 1023.66 630.11 986.75 630.69"/><polygon class="87a2bce1-7931-4fa5-bbfc-4a12c2e206d2" points="1545.06 602.21 1506.23 662.62 1635.6 672.75 1670.57 603.53 1545.06 602.21"/><path class="6f578a1c-ecb6-49bb-9ceb-dae71a19aae3" d="M1617.78,622.09l2.88,15.76s-7.69,15.2-39.77,16.52S1546.38,644,1546.38,644l0.9-14.07Z"/><path class="55691ac5-caef-4972-838c-24ef08ada598" d="M1615.6,629.45c-3.26,5-8.91,8.6-15.34,11a67.51,67.51,0,0,1-26.23,4.06c-0.53,0-1.06,0-1.54-.09-9.65-.79-28.52-5.07-24.73-17.1,1.94-6.13,7.41-9.87,13.53-12.3s12.83-3.39,17.5-4.1a84,84,0,0,1,24.78.09C1613.27,612.6,1622.13,619.48,1615.6,629.45Z"/><polygon class="c73e338e-c66e-48d2-a276-f306f7cdacf9" points="673.31 617.3 704.26 677.82 884.36 668.26 859.03 615.06 673.31 617.3"/><path class="b4d392b8-ee30-47c0-9272-12355a38b3ae" d="M1658.18,613c-0.66,2.28-3.9,4.13-7.24,4.13s-5.52-1.85-4.86-4.13,3.9-4.13,7.24-4.13S1658.84,610.68,1658.18,613Z"/><path class="b4d392b8-ee30-47c0-9272-12355a38b3ae" d="M1634.2,661.86c-0.66,2.28-3.9,4.13-7.24,4.13s-5.52-1.85-4.86-4.13,3.9-4.13,7.24-4.13S1634.86,659.58,1634.2,661.86Z"/><path class="b4d392b8-ee30-47c0-9272-12355a38b3ae" d="M1531,655.23c-0.66,2.28-3.9,4.13-7.24,4.13s-5.52-1.85-4.86-4.13,3.9-4.13,7.24-4.13S1531.69,652.95,1531,655.23Z"/><path class="b4d392b8-ee30-47c0-9272-12355a38b3ae" d="M1557.66,611c-0.66,2.28-3.9,4.13-7.24,4.13s-5.52-1.85-4.86-4.13,3.9-4.13,7.24-4.13S1558.32,608.68,1557.66,611Z"/><polygon class="14aa69ba-d5c6-4cbf-ad6c-9f5d330de642" points="1754.98 698.08 1774.12 721.71 1511.86 704.83 918.68 704.83 673.31 723.96 683.44 698.08 920.94 681.19 1506.23 676.69 1754.98 698.08"/><polygon class="eae2bcbd-74b7-43b6-a661-264246300cf0" points="1684.07 603.53 1652.13 672.75 1744.25 682.32 1787.06 603.53 1684.07 603.53"/><path class="c73e338e-c66e-48d2-a276-f306f7cdacf9" d="M1677.48,640.39c-0.09.36-.22,0.72-0.3,1.08a20.89,20.89,0,0,0-.41,4.16l70.43,5.26a27.8,27.8,0,0,0,3.66-6.83Z"/><path class="c73e338e-c66e-48d2-a276-f306f7cdacf9" d="M1677,649a19.1,19.1,0,0,0,1.84,5.65l58.3,5.79a41.34,41.34,0,0,0,7.53-6.39Z"/><path class="c73e338e-c66e-48d2-a276-f306f7cdacf9" d="M1681.22,658.17c5.39,6.67,15.24,11,27.38,10.88a53.23,53.23,0,0,0,23.67-5.81Z"/><path class="c73e338e-c66e-48d2-a276-f306f7cdacf9" d="M1678.59,637.13l73.18,3.65a20.19,20.19,0,0,0,.18-7l-70.57-1.77A28.12,28.12,0,0,0,1678.59,637.13Z"/><path class="c73e338e-c66e-48d2-a276-f306f7cdacf9" d="M1743.73,620.43c-5.67-4.4-13.82-7.07-23.42-7a53.07,53.07,0,0,0-25.9,7h49.32Z"/><path class="c73e338e-c66e-48d2-a276-f306f7cdacf9" d="M1689.4,623.74a39.48,39.48,0,0,0-5.47,5.08l67.25,1.68a20.31,20.31,0,0,0-3.92-6.76H1689.4Z"/><polygon class="c1d40e50-6598-4b60-8268-715d3ea06ab0" points="954.18 720.81 1482.42 721.93 1474.04 900.61 964.98 900.05 954.18 720.81"/><polygon class="95d414d1-1573-456c-b2f2-bd603b71c101" points="940.21 557.38 1497.23 557.38 1497.23 554.19 940.09 556.16 940.21 557.38"/><rect class="c1d40e50-6598-4b60-8268-715d3ea06ab0" x="841.16" y="82.14" width="759.63" height="425.64"/><polygon class="c73e338e-c66e-48d2-a276-f306f7cdacf9" points="1551.85 484.48 890.09 484.48 877.13 122.94 1557.56 126.04 1551.85 484.48"/><polygon class="4093e5cd-6de8-446d-9302-c66250032be0" points="878.04 122.94 891 484.48 891 123.97 878.04 122.94"/><polygon class="4093e5cd-6de8-446d-9302-c66250032be0" points="1551.85 484.44 1557.56 126 1544.1 126 1551.85 484.44"/><polygon class="2a8bd8bf-64c4-4abe-a5cb-57fd51f01283" points="1511.57 125.82 1332.82 484.38 1489.86 125.78 1511.57 125.82"/><polygon class="2a8bd8bf-64c4-4abe-a5cb-57fd51f01283" points="1356.64 485 1426.03 348.98 1374.59 485 1356.64 485"/><polygon class="2a8bd8bf-64c4-4abe-a5cb-57fd51f01283" points="1214.93 124.32 1053.36 484.56 1151.58 484.73 1292.6 125.01 1214.93 124.32"/><polygon class="14aa69ba-d5c6-4cbf-ad6c-9f5d330de642" points="841.14 508.08 854.34 514 1585.53 514 1600.87 508.08 841.14 508.08"/><polygon class="4093e5cd-6de8-446d-9302-c66250032be0" points="1421.36 513.58 1440 513.51 1440 554.48 1421.36 513.58"/><polygon class="4093e5cd-6de8-446d-9302-c66250032be0" points="1050.09 514 1031 514 1031 556.88 1050.09 514"/><rect class="87a2bce1-7931-4fa5-bbfc-4a12c2e206d2" x="1850.48" y="84.3" width="162.3" height="198.95"/><rect class="c73e338e-c66e-48d2-a276-f306f7cdacf9" x="1864.67" y="99.34" width="133.8" height="166.38"/><circle class="c73e338e-c66e-48d2-a276-f306f7cdacf9" cx="1858.27" cy="91.78" r="4.07"/><circle class="c73e338e-c66e-48d2-a276-f306f7cdacf9" cx="2002.26" cy="91.78" r="4.07"/><circle class="c73e338e-c66e-48d2-a276-f306f7cdacf9" cx="1858.27" cy="273.28" r="4.07"/><circle class="c73e338e-c66e-48d2-a276-f306f7cdacf9" cx="2002.26" cy="273.28" r="4.07"/><path class="be6b9d23-5865-4f32-9be0-56ff60c35567" d="M1864,104.43l134.72,0.38L2002,119H1864V104.43Z"/><path class="be6b9d23-5865-4f32-9be0-56ff60c35567" d="M1864,121.88L1998.72,122l3.25,14H1864V121.88Z"/><path class="be6b9d23-5865-4f32-9be0-56ff60c35567" d="M1864,139.33l134.72-.08L2002,153H1864V139.33Z"/><path class="be6b9d23-5865-4f32-9be0-56ff60c35567" d="M1864,156.79l134.72,0.2,3.25,14H1864V156.79Z"/><path class="be6b9d23-5865-4f32-9be0-56ff60c35567" d="M1864,174.24l134.72,0L2002,188H1864V174.24Z"/><path class="be6b9d23-5865-4f32-9be0-56ff60c35567" d="M1864,191.69l134.72,0.25L2002,206H1864V191.69Z"/><path class="be6b9d23-5865-4f32-9be0-56ff60c35567" d="M1864,209.14l134.72,0.52L2002,224H1864V209.14Z"/><path class="be6b9d23-5865-4f32-9be0-56ff60c35567" d="M1864,226.6l134.72-.21L2002,240H1864V226.6Z"/><path class="be6b9d23-5865-4f32-9be0-56ff60c35567" d="M1864,244l134.72,0.07L2002,258H1864V244Z"/><polygon class="4093e5cd-6de8-446d-9302-c66250032be0" points="577.64 924.53 382.3 888.02 320 857.67 577.5 857.5 577.64 924.53"/><polygon class="4093e5cd-6de8-446d-9302-c66250032be0" points="1873.69 925.53 2126 857.5 1875.5 857 1873.69 925.53"/><polygon class="6b5f9d75-0fa1-4e8f-a4e2-f6c0484655de" points="682.81 622.72 768.43 620.86 790.02 667.76 709.24 672.6 682.81 622.72"/><polygon class="4093e5cd-6de8-446d-9302-c66250032be0" points="859.03 615.06 884.36 668.26 852.75 615.09 859.03 615.06"/><polygon class="4093e5cd-6de8-446d-9302-c66250032be0" points="893.92 595.65 941.16 681.16 918.68 557.38 893.92 595.65"/><polygon class="4093e5cd-6de8-446d-9302-c66250032be0" points="1514.11 557.38 1472.37 675.58 1533.25 590.02 1514.11 557.38"/><path class="b2d143af-c1a3-4b4e-8993-b655d0357e50" d="M1581.81,613.6s-28.48.56-29.59,15.08C1552.22,628.68,1565.06,617.51,1581.81,613.6Z"/><rect class="4093e5cd-6de8-446d-9302-c66250032be0" x="1031.43" y="529.19" width="18.71" height="0.84"/><rect class="4093e5cd-6de8-446d-9302-c66250032be0" x="1031.43" y="518.95" width="18.71" height="0.84"/><rect class="4093e5cd-6de8-446d-9302-c66250032be0" x="1031.43" y="539.24" width="18.71" height="0.84"/><rect class="4093e5cd-6de8-446d-9302-c66250032be0" x="1031.43" y="549.29" width="18.71" height="0.84"/><rect class="4093e5cd-6de8-446d-9302-c66250032be0" x="1421.55" y="529.19" width="18.71" height="0.84"/><rect class="4093e5cd-6de8-446d-9302-c66250032be0" x="1421.55" y="518.95" width="18.71" height="0.84"/><rect class="4093e5cd-6de8-446d-9302-c66250032be0" x="1421.55" y="539.24" width="18.71" height="0.84"/><rect class="4093e5cd-6de8-446d-9302-c66250032be0" x="1421.55" y="549.29" width="18.71" height="0.84"/><polygon class="6bd3d40c-5f57-4817-92d5-96d6ecd5fd9c" points="777.74 621.98 854.79 620.02 857.3 624.49 779.69 627 777.74 621.98"/><polygon class="6bd3d40c-5f57-4817-92d5-96d6ecd5fd9c" points="782.2 629.79 859.26 627.84 861.77 632.3 784.16 634.82 782.2 629.79"/><polygon class="6bd3d40c-5f57-4817-92d5-96d6ecd5fd9c" points="785.55 638.73 862.61 636.77 865.12 641.24 787.51 643.75 785.55 638.73"/><polygon class="4093e5cd-6de8-446d-9302-c66250032be0" points="877.38 122.97 1557.47 126.19 1546.07 137 890.53 137 877.38 122.97"/><polygon class="94756736-3e4d-481e-b877-42456f5f86e5" points="1520.76 726.58 1645.84 737 1635.41 908.24 1511.08 892.61 1520.76 726.58"/><polygon class="94756736-3e4d-481e-b877-42456f5f86e5" points="1633.55 736.65 1758.63 747.46 1748.21 924.97 1623.88 908.76 1633.55 736.65"/><polygon class="94756736-3e4d-481e-b877-42456f5f86e5" points="908.49 733.28 789.02 743.24 798.98 906.79 917.73 891.85 908.49 733.28"/><polygon class="94756736-3e4d-481e-b877-42456f5f86e5" points="800.76 742.9 681.29 753.22 691.25 922.76 810 907.28 800.76 742.9"/><polygon class="4093e5cd-6de8-446d-9302-c66250032be0" points="964.98 900.05 954.18 720.81 977.26 720.62 960.89 726.58 964.98 900.05"/></g></g></svg>